<svg width="1000" height="640" viewBox="0 0 1000 640" fill="none" xmlns="http://www.w3.org/2000/svg">
<g clip-path="url(#clip0_518_78)">
<mask id="mask0_518_78" style="mask-type:luminance" maskUnits="userSpaceOnUse" x="0" y="0" width="1000" height="640">
<path d="M1000 0H0V640H1000V0Z" fill="white"/>
</mask>
<g mask="url(#mask0_518_78)">
<path d="M1000 0H0V640H1000V0Z" fill="white"/>
<path d="M222.882 687.899C174.849 676.841 99.3685 704.341 101.027 655.009C101.682 635.508 107.657 623.021 121.768 609.569C151.673 581.06 185.173 628.312 226.338 625.148C279.333 621.075 306.22 551.693 353.378 576.246C375.971 588.009 390.924 600.285 396.589 625.148C406.07 666.753 366.134 694.703 325.723 708.239C286.899 721.243 262.779 697.084 222.882 687.899Z" fill="#0C7D81"/>
<path d="M791.067 549.382C845.59 471.011 769.992 325.069 865.067 316.382C965.67 307.191 975.121 465.935 945.067 562.382C904.594 692.268 565.852 814.719 621.067 690.382C656.074 611.553 741.809 620.186 791.067 549.382Z" fill="#0469B1"/>
<path d="M807.004 246.187C818.209 203.91 791.761 156.98 830.504 136.687C880.225 110.643 910.878 229.608 875.504 273.187C853.36 300.468 805.004 334.692 790.504 302.687C781.019 281.749 801.115 268.406 807.004 246.187Z" fill="#F9BB0D"/>
<path d="M1016.67 -5.22611C976.12 -25.1373 966.157 -79.0723 921.669 -71.2261C861.786 -60.6645 883.44 23.904 898.669 82.7739C917.967 157.37 959.141 222.388 1036.17 224.274C1096.67 225.755 1167.33 202.793 1167.67 142.274C1167.81 117.568 1146.35 107.48 1146.17 82.7739C1146.02 62.7374 1161.02 53.2651 1159.67 33.2739C1155.76 -24.4275 1068.58 20.2647 1016.67 -5.22611Z" fill="#E30140"/>
<path d="M984 84C986.209 84 988 82.2091 988 80C988 77.7908 986.209 76 984 76C981.791 76 980 77.7908 980 80C980 82.2091 981.791 84 984 84Z" fill="#51001A"/>
<path d="M597.658 -4.5166C572.33 -9.26402 549.113 6.88986 532.158 -12.5166C519.105 -27.4577 521.875 -42.7181 523.158 -62.5166C526.955 -121.082 579.427 -174.012 636.658 -161.017C687.118 -149.558 712.797 -99.8956 706.658 -48.5166C703.312 -20.51 699.45 3.49782 674.158 15.9834C646.424 29.6746 628.058 1.18139 597.658 -4.5166Z" fill="#0C7D81"/>
<path d="M103.151 75.0096C137.218 61.8936 174.67 85.5929 194.438 54.9045C221.048 13.5958 159.011 -19.9861 115.742 -43.2712C60.913 -72.7765 -0.244915 -84.0513 -43.6472 -39.4085C-77.7375 -4.34371 -102.906 50.159 -67.2066 83.5842C-52.6328 97.2296 -34.8696 90.0404 -20.1208 103.497C-8.15966 114.409 -10.7759 128.503 1.82204 138.675C38.1839 168.032 59.5378 91.801 103.151 75.0096Z" fill="#E30140"/>
<path d="M69.2431 39.4751C70.5522 40.6887 72.5973 40.6114 73.811 39.3022C75.0246 37.9931 74.9473 35.948 73.6382 34.7343C72.3291 33.5207 70.2839 33.598 69.0703 34.9072C67.8566 36.2163 67.934 38.2614 69.2431 39.4751Z" fill="#51001A"/>
<path d="M-9.40454 16.1474L1.52419 16.0007C1.98606 15.9945 2.39208 16.3054 2.50647 16.7529L5.83455 29.7734C5.93608 30.1706 6.26976 30.4656 6.67641 30.5177L18.9351 32.0871C19.4276 32.1502 19.7993 32.5652 19.8079 33.0616L20.02 45.2452C20.0293 45.7782 20.4552 46.2103 20.988 46.2272L31.2632 46.5545C31.8464 46.5731 32.2899 47.085 32.2252 47.6649L31.2131 56.7387C31.1389 57.4042 31.7269 57.9531 32.3857 57.8335L43.7513 55.7687C44.3807 55.6543 44.9542 56.1523 44.9293 56.7915L44.3975 70.4347" stroke="#51001A" stroke-width="7" stroke-linecap="round"/>
<path d="M6.56768 640.207C-46.4494 566.007 -97.1814 407.576 -5.98811 407.026C28.5639 406.818 42.1048 433.884 76.1088 440.016C127.932 449.362 174.257 382.954 209.725 421.876C239.711 454.783 205.33 491.313 206.239 535.824C207.772 610.875 277.873 672.063 226.67 726.955C163.649 794.515 60.2797 715.38 6.56768 640.207Z" fill="#EE75A7"/>
<path d="M36 527C38.2091 527 40 525.209 40 523C40 520.791 38.2091 519 36 519C33.7909 519 32 520.791 32 523C32 525.209 33.7909 527 36 527Z" fill="#932050"/>
<path d="M177 523C179.209 523 181 521.209 181 519C181 516.791 179.209 515 177 515C174.791 515 173 516.791 173 519C173 521.209 174.791 523 177 523Z" fill="#932050"/>
<path d="M103 578.5C108.679 578.5 112.5 573.099 112.5 567.5C112.5 561.901 108.679 556.5 103 556.5C97.3211 556.5 93.5 561.901 93.5 567.5C93.5 573.099 97.3211 578.5 103 578.5Z" stroke="#932050" stroke-width="5"/>
<path d="M-5.16544 203.003C-36.7886 208.582 -57.341 224.35 -69.6654 254.003C-93.3628 311.018 -14.9406 349.115 45.3346 362.503C100.74 374.808 180.957 380.089 185.335 323.503C189.206 273.456 127.583 269.482 84.3346 244.003C51.211 224.488 32.6947 196.323 -5.16544 203.003Z" fill="#9C9B9B"/>
<path d="M15 298C17.2091 298 19 296.209 19 294C19 291.791 17.2091 290 15 290C12.7909 290 11 291.791 11 294C11 296.209 12.7909 298 15 298Z" fill="#303636"/>
<path d="M97 298C99.2091 298 101 296.209 101 294C101 291.791 99.2091 290 97 290C94.7909 290 93 291.791 93 294C93 296.209 94.7909 298 97 298Z" fill="#303636"/>
<path d="M37 310.501C51.1548 292.911 59.3936 293.919 74.5 310.501" stroke="#303636" stroke-width="7" stroke-linecap="round"/>
<path d="M369.545 60.0641C334.395 66.2609 316.51 21.0984 282.545 32.0641C229.819 49.0865 323.642 136.604 379.045 136.064C420.637 135.659 467.54 117.655 467.045 76.0641C466.739 50.3795 457.157 27.4163 432.545 20.0641C404.621 11.7225 398.245 55.0044 369.545 60.0641Z" fill="#EE75A7"/>
<path d="M354 100H395" stroke="#932050" stroke-width="7" stroke-linecap="round"/>
<path d="M343 81C345.209 81 347 79.2091 347 77C347 74.7908 345.209 73 343 73C340.791 73 339 74.7908 339 77C339 79.2091 340.791 81 343 81Z" fill="#932050"/>
<path d="M391 81C393.209 81 395 79.2091 395 77C395 74.7908 393.209 73 391 73C388.791 73 387 74.7908 387 77C387 79.2091 388.791 81 391 81Z" fill="#932050"/>
<path d="M823 239.17C823 239.17 830.002 233.206 835.5 232.17C845.713 230.245 849.243 245.345 859.5 243.67C867.252 242.404 876 232.17 876 232.17" stroke="#906804" stroke-width="7" stroke-linecap="round"/>
<path d="M830 210C832.209 210 834 208.209 834 206C834 203.791 832.209 202 830 202C827.791 202 826 203.791 826 206C826 208.209 827.791 210 830 210Z" fill="#906804"/>
<path d="M863 210C865.209 210 867 208.209 867 206C867 203.791 865.209 202 863 202C860.791 202 859 203.791 859 206C859 208.209 860.791 210 863 210Z" fill="#906804"/>
<path d="M857 498C857 524 891 528.5 891 498" stroke="#022F50" stroke-width="7" stroke-linecap="round"/>
<path d="M859 482C861.209 482 863 480.209 863 478C863 475.791 861.209 474 859 474C856.791 474 855 475.791 855 478C855 480.209 856.791 482 859 482Z" fill="#022F50"/>
<path d="M888 482C890.209 482 892 480.209 892 478C892 475.791 890.209 474 888 474C885.791 474 884 475.791 884 478C884 480.209 885.791 482 888 482Z" fill="#022F50"/>
<path d="M802 49C805.866 49 809 45.866 809 42C809 38.134 805.866 35 802 35C798.134 35 795 38.134 795 42C795 45.866 798.134 49 802 49Z" fill="#F9BB0D"/>
<path d="M955 238C958.866 238 962 234.866 962 231C962 227.134 958.866 224 955 224C951.134 224 948 227.134 948 231C948 234.866 951.134 238 955 238Z" fill="#E30140"/>
<path d="M121.733 564.194C124.909 561.99 125.697 557.628 123.493 554.452C121.289 551.276 116.927 550.488 113.751 552.692C110.575 554.896 109.787 559.258 111.991 562.434C114.195 565.61 118.557 566.398 121.733 564.194Z" fill="#EE75A7"/>
<path d="M86.7327 396.194C89.9088 393.99 90.6968 389.628 88.4927 386.452C86.2885 383.276 81.927 382.488 78.7509 384.692C75.5748 386.896 74.7868 391.258 76.9909 394.434C79.195 397.61 83.5566 398.398 86.7327 396.194Z" fill="#9C9B9B"/>
<path d="M86.7327 275.194C89.9088 272.99 90.6968 268.628 88.4927 265.452C86.2885 262.276 81.927 261.488 78.7509 263.692C75.5748 265.896 74.7868 270.258 76.9909 273.434C79.195 276.61 83.5566 277.398 86.7327 275.194Z" fill="#9C9B9B"/>
<path d="M625 175.5H375C368.373 175.5 363 180.873 363 187.5V453.5C363 460.127 368.373 465.5 375 465.5H625C631.627 465.5 637 460.127 637 453.5V187.5C637 180.873 631.627 175.5 625 175.5Z" fill="white"/>
<path d="M612 192.5H387C383.134 192.5 380 195.634 380 199.5V218.5C380 222.366 383.134 225.5 387 225.5H612C615.866 225.5 619 222.366 619 218.5V199.5C619 195.634 615.866 192.5 612 192.5Z" fill="#F7F7F7"/>
<path d="M612 192.5H387C383.134 192.5 380 195.634 380 199.5V218.5C380 222.366 383.134 225.5 387 225.5H612C615.866 225.5 619 222.366 619 218.5V199.5C619 195.634 615.866 192.5 612 192.5Z" stroke="#E6E6E6" stroke-width="2"/>
<path d="M613 237.5H387C383.134 237.5 380 240.634 380 244.5V263.5C380 267.366 383.134 270.5 387 270.5H613C616.866 270.5 620 267.366 620 263.5V244.5C620 240.634 616.866 237.5 613 237.5Z" fill="#F7F7F7"/>
<path d="M613 237.5H387C383.134 237.5 380 240.634 380 244.5V263.5C380 267.366 383.134 270.5 387 270.5H613C616.866 270.5 620 267.366 620 263.5V244.5C620 240.634 616.866 237.5 613 237.5Z" stroke="#E6E6E6" stroke-width="2"/>
<path d="M613 282.5H387C383.134 282.5 380 285.634 380 289.5V308.5C380 312.366 383.134 315.5 387 315.5H613C616.866 315.5 620 312.366 620 308.5V289.5C620 285.634 616.866 282.5 613 282.5Z" fill="#F7F7F7"/>
<path d="M613 282.5H387C383.134 282.5 380 285.634 380 289.5V308.5C380 312.366 383.134 315.5 387 315.5H613C616.866 315.5 620 312.366 620 308.5V289.5C620 285.634 616.866 282.5 613 282.5Z" stroke="#E6E6E6" stroke-width="2"/>
<path d="M613 327.5H387C383.134 327.5 380 330.634 380 334.5V353.5C380 357.366 383.134 360.5 387 360.5H613C616.866 360.5 620 357.366 620 353.5V334.5C620 330.634 616.866 327.5 613 327.5Z" fill="#F7F7F7"/>
<path d="M613 327.5H387C383.134 327.5 380 330.634 380 334.5V353.5C380 357.366 383.134 360.5 387 360.5H613C616.866 360.5 620 357.366 620 353.5V334.5C620 330.634 616.866 327.5 613 327.5Z" stroke="#E6E6E6" stroke-width="2"/>
<path d="M613 372.5H387C383.134 372.5 380 375.634 380 379.5V398.5C380 402.366 383.134 405.5 387 405.5H613C616.866 405.5 620 402.366 620 398.5V379.5C620 375.634 616.866 372.5 613 372.5Z" fill="#F7F7F7"/>
<path d="M613 372.5H387C383.134 372.5 380 375.634 380 379.5V398.5C380 402.366 383.134 405.5 387 405.5H613C616.866 405.5 620 402.366 620 398.5V379.5C620 375.634 616.866 372.5 613 372.5Z" stroke="#E6E6E6" stroke-width="2"/>
<path d="M460.239 169V156.396H468.088V159.367H464.036V161.204H467.842V164.175H464.036V166.029H468.378V169H460.239ZM475.664 169V164.087C475.664 163.53 475.579 163.132 475.409 162.892C475.245 162.646 474.976 162.522 474.601 162.522C474.278 162.522 474.026 162.648 473.845 162.9C473.663 163.152 473.572 163.475 473.572 163.867V169H469.828V160H473.572V161.406H473.607C473.906 160.891 474.308 160.492 474.812 160.211C475.315 159.924 475.863 159.78 476.455 159.78C478.424 159.78 479.408 161.022 479.408 163.507V169H475.664ZM487.107 169V167.954H487.072C486.773 168.347 486.384 168.657 485.903 168.886C485.423 169.108 484.948 169.22 484.479 169.22C483.712 169.22 483.035 169.032 482.449 168.657C481.863 168.276 481.424 167.746 481.131 167.066C480.844 166.387 480.7 165.584 480.7 164.658C480.7 163.703 480.873 162.856 481.219 162.118C481.564 161.38 482.051 160.806 482.678 160.396C483.305 159.985 484.008 159.78 484.787 159.78C485.156 159.78 485.496 159.833 485.807 159.938C486.123 160.044 486.396 160.188 486.624 160.369C486.858 160.545 487.008 160.721 487.072 160.896H487.107V155.676H490.852V169H487.107ZM487.187 164.228C487.187 163.688 487.066 163.27 486.826 162.971C486.592 162.672 486.272 162.522 485.868 162.522C485.464 162.522 485.133 162.71 484.875 163.085C484.623 163.454 484.497 163.949 484.497 164.57C484.497 165.842 484.937 166.478 485.815 166.478C486.231 166.478 486.562 166.308 486.809 165.968C487.061 165.622 487.187 165.121 487.187 164.465V164.228ZM495.888 165.563C495.952 165.95 496.175 166.255 496.556 166.478C496.937 166.694 497.44 166.803 498.067 166.803C498.94 166.803 499.767 166.636 500.546 166.302V168.675C499.638 169.038 498.536 169.22 497.241 169.22C495.671 169.22 494.449 168.818 493.576 168.016C492.703 167.213 492.267 166.108 492.267 164.702C492.267 163.735 492.457 162.883 492.838 162.145C493.225 161.406 493.793 160.829 494.543 160.413C495.299 159.991 496.131 159.78 497.039 159.78C497.971 159.78 498.768 159.962 499.43 160.325C500.092 160.688 500.593 161.198 500.933 161.854C501.278 162.511 501.451 163.278 501.451 164.157V165.563H495.888ZM498.138 163.604C498.138 162.566 497.766 162.048 497.021 162.048C496.711 162.048 496.45 162.191 496.239 162.479C496.028 162.76 495.905 163.135 495.87 163.604H498.138ZM509.52 163.208C509.379 163.144 509.188 163.085 508.948 163.032C508.708 162.979 508.509 162.953 508.351 162.953C507.114 162.953 506.496 163.668 506.496 165.098V169H502.752V160H506.496V161.582H506.531C506.76 161.014 507.085 160.583 507.507 160.29C507.929 159.991 508.421 159.842 508.983 159.842C509.188 159.842 509.367 159.877 509.52 159.947V163.208ZM513.835 165.563C513.899 165.95 514.122 166.255 514.503 166.478C514.884 166.694 515.388 166.803 516.015 166.803C516.888 166.803 517.714 166.636 518.493 166.302V168.675C517.585 169.038 516.483 169.22 515.188 169.22C513.618 169.22 512.396 168.818 511.523 168.016C510.65 167.213 510.214 166.108 510.214 164.702C510.214 163.735 510.404 162.883 510.785 162.145C511.172 161.406 511.74 160.829 512.49 160.413C513.246 159.991 514.078 159.78 514.986 159.78C515.918 159.78 516.715 159.962 517.377 160.325C518.039 160.688 518.54 161.198 518.88 161.854C519.226 162.511 519.398 163.278 519.398 164.157V165.563H513.835ZM516.085 163.604C516.085 162.566 515.713 162.048 514.969 162.048C514.658 162.048 514.397 162.191 514.187 162.479C513.976 162.76 513.853 163.135 513.817 163.604H516.085ZM528.117 168.745C527.625 169.038 526.699 169.196 525.34 169.22V169.58C526.482 169.662 527.054 170.184 527.054 171.145C527.054 171.795 526.787 172.293 526.254 172.639C525.727 172.984 524.974 173.157 523.995 173.157C523.679 173.157 523.342 173.14 522.984 173.104V171.593C523.201 171.64 523.441 171.663 523.705 171.663C524.039 171.663 524.291 171.613 524.461 171.514C524.631 171.42 524.716 171.297 524.716 171.145C524.716 170.963 524.648 170.828 524.514 170.74C524.379 170.658 524.145 170.617 523.811 170.617H523.652L523.468 170.635V168.974C522.478 168.669 521.701 168.136 521.139 167.374C520.582 166.612 520.304 165.722 520.304 164.702C520.304 163.671 520.521 162.789 520.954 162.057C521.394 161.318 522.018 160.756 522.826 160.369C523.635 159.977 524.572 159.78 525.639 159.78C526.225 159.78 526.749 159.818 527.212 159.895C527.681 159.971 527.982 160.059 528.117 160.158V163.076C527.93 162.93 527.66 162.801 527.309 162.689C526.957 162.578 526.632 162.522 526.333 162.522C525.595 162.522 525.038 162.695 524.663 163.041C524.288 163.387 524.101 163.879 524.101 164.518C524.101 165.139 524.285 165.622 524.654 165.968C525.023 166.308 525.536 166.478 526.192 166.478C526.89 166.478 527.531 166.311 528.117 165.977V168.745ZM539.622 164.342C539.622 165.859 539.162 167.052 538.242 167.919C537.328 168.786 536.048 169.22 534.401 169.22C532.767 169.22 531.492 168.798 530.578 167.954C529.67 167.104 529.216 165.936 529.216 164.447C529.216 163.492 529.43 162.663 529.857 161.96C530.285 161.257 530.895 160.718 531.686 160.343C532.477 159.968 533.388 159.78 534.419 159.78C535.485 159.78 536.408 159.977 537.188 160.369C537.973 160.762 538.573 161.307 538.989 162.004C539.411 162.701 539.622 163.48 539.622 164.342ZM535.825 164.359C535.825 163.135 535.356 162.522 534.419 162.522C533.481 162.522 533.013 163.164 533.013 164.447C533.013 165.801 533.487 166.478 534.437 166.478C535.362 166.478 535.825 165.771 535.825 164.359Z" fill="#1D1D1D" fill-opacity="0.5"/>
</g>
<path d="M352.784 215H350.884L349.318 212.375C349.177 212.133 349.038 211.928 348.901 211.76C348.769 211.587 348.632 211.445 348.491 211.336C348.354 211.227 348.204 211.147 348.04 211.097C347.876 211.047 347.691 211.021 347.486 211.021H346.83V215H345.21V205.197H348.437C348.897 205.197 349.321 205.252 349.708 205.361C350.095 205.471 350.433 205.637 350.72 205.86C351.007 206.079 351.23 206.355 351.39 206.688C351.554 207.016 351.636 207.401 351.636 207.843C351.636 208.189 351.583 208.508 351.479 208.8C351.378 209.087 351.232 209.344 351.041 209.572C350.854 209.796 350.626 209.987 350.357 210.146C350.093 210.306 349.795 210.429 349.462 210.516V210.543C349.64 210.643 349.795 210.755 349.927 210.878C350.059 210.996 350.184 211.119 350.303 211.247C350.421 211.375 350.537 211.521 350.651 211.685C350.77 211.844 350.9 212.031 351.041 212.245L352.784 215ZM346.83 206.517V209.702H348.184C348.434 209.702 348.664 209.663 348.874 209.586C349.088 209.508 349.273 209.397 349.428 209.251C349.583 209.105 349.703 208.927 349.79 208.718C349.877 208.508 349.92 208.273 349.92 208.014C349.92 207.544 349.772 207.177 349.476 206.913C349.179 206.649 348.753 206.517 348.197 206.517H346.83ZM359.859 215H358.273V213.893H358.246C357.786 214.74 357.07 215.164 356.1 215.164C354.445 215.164 353.618 214.171 353.618 212.184V208H355.204V212.02C355.204 213.277 355.689 213.906 356.66 213.906C357.13 213.906 357.515 213.733 357.815 213.387C358.121 213.04 358.273 212.587 358.273 212.026V208H359.859V215ZM367.304 215H365.766V213.906H365.738C365.255 214.745 364.547 215.164 363.612 215.164C362.924 215.164 362.384 214.977 361.992 214.604C361.605 214.23 361.411 213.735 361.411 213.12C361.411 211.799 362.172 211.028 363.694 210.81L365.772 210.516C365.772 209.518 365.299 209.019 364.351 209.019C363.517 209.019 362.765 209.306 362.095 209.88V208.492C362.833 208.055 363.685 207.836 364.651 207.836C366.42 207.836 367.304 208.706 367.304 210.447V215ZM365.772 211.562L364.303 211.767C363.847 211.826 363.503 211.938 363.271 212.102C363.043 212.261 362.929 212.544 362.929 212.949C362.929 213.245 363.034 213.489 363.243 213.681C363.457 213.868 363.742 213.961 364.098 213.961C364.581 213.961 364.979 213.792 365.294 213.455C365.613 213.113 365.772 212.685 365.772 212.17V211.562Z" fill="#1D1D1D" fill-opacity="0.5"/>
<path d="M331.21 259V249.197H334.32C335.268 249.197 336.018 249.405 336.569 249.819C337.125 250.234 337.403 250.774 337.403 251.439C337.403 251.995 337.246 252.479 336.932 252.889C336.617 253.299 336.182 253.59 335.626 253.764V253.791C336.3 253.868 336.838 254.119 337.239 254.543C337.645 254.962 337.848 255.509 337.848 256.184C337.848 257.022 337.517 257.701 336.856 258.221C336.196 258.74 335.362 259 334.354 259H331.21ZM332.83 250.503V253.292H333.883C334.448 253.292 334.89 253.16 335.209 252.896C335.533 252.627 335.694 252.248 335.694 251.761C335.694 250.922 335.134 250.503 334.013 250.503H332.83ZM332.83 254.598V257.701H334.218C334.824 257.701 335.291 257.562 335.619 257.284C335.952 257.002 336.118 256.614 336.118 256.122C336.118 255.106 335.414 254.598 334.006 254.598H332.83ZM344.868 259H343.33V257.906H343.303C342.82 258.745 342.111 259.164 341.177 259.164C340.489 259.164 339.949 258.977 339.557 258.604C339.169 258.23 338.976 257.735 338.976 257.12C338.976 255.799 339.737 255.028 341.259 254.81L343.337 254.516C343.337 253.518 342.863 253.019 341.915 253.019C341.081 253.019 340.329 253.306 339.659 253.88V252.492C340.397 252.055 341.25 251.836 342.216 251.836C343.984 251.836 344.868 252.706 344.868 254.447V259ZM343.337 255.562L341.867 255.767C341.411 255.826 341.067 255.938 340.835 256.102C340.607 256.261 340.493 256.544 340.493 256.949C340.493 257.245 340.598 257.489 340.808 257.681C341.022 257.868 341.307 257.961 341.662 257.961C342.145 257.961 342.544 257.792 342.858 257.455C343.177 257.113 343.337 256.685 343.337 256.17V255.562ZM347.609 250.53C347.35 250.53 347.126 250.446 346.939 250.277C346.757 250.109 346.666 249.895 346.666 249.635C346.666 249.375 346.757 249.159 346.939 248.985C347.126 248.812 347.35 248.726 347.609 248.726C347.878 248.726 348.106 248.812 348.293 248.985C348.48 249.159 348.573 249.375 348.573 249.635C348.573 249.881 348.48 250.093 348.293 250.271C348.106 250.444 347.878 250.53 347.609 250.53ZM348.396 259H346.81V252H348.396V259ZM354.534 253.511C354.343 253.36 354.067 253.285 353.707 253.285C353.238 253.285 352.846 253.497 352.531 253.921C352.217 254.345 352.06 254.921 352.06 255.65V259H350.474V252H352.06V253.442H352.087C352.242 252.95 352.479 252.567 352.798 252.294C353.121 252.016 353.481 251.877 353.878 251.877C354.165 251.877 354.384 251.92 354.534 252.007V253.511ZM359.716 253.511C359.524 253.36 359.249 253.285 358.889 253.285C358.419 253.285 358.027 253.497 357.713 253.921C357.398 254.345 357.241 254.921 357.241 255.65V259H355.655V252H357.241V253.442H357.269C357.424 252.95 357.66 252.567 357.979 252.294C358.303 252.016 358.663 251.877 359.06 251.877C359.347 251.877 359.565 251.92 359.716 252.007V253.511ZM363.817 259.164C362.737 259.164 361.874 258.838 361.227 258.187C360.584 257.53 360.263 256.662 360.263 255.582C360.263 254.406 360.598 253.488 361.268 252.827C361.942 252.166 362.849 251.836 363.988 251.836C365.082 251.836 365.934 252.157 366.545 252.8C367.156 253.442 367.461 254.333 367.461 255.473C367.461 256.589 367.131 257.485 366.47 258.159C365.813 258.829 364.929 259.164 363.817 259.164ZM363.893 253.101C363.273 253.101 362.783 253.317 362.423 253.75C362.063 254.183 361.883 254.78 361.883 255.541C361.883 256.275 362.065 256.854 362.43 257.277C362.794 257.697 363.282 257.906 363.893 257.906C364.517 257.906 364.995 257.699 365.328 257.284C365.665 256.869 365.834 256.279 365.834 255.514C365.834 254.743 365.665 254.149 365.328 253.729C364.995 253.31 364.517 253.101 363.893 253.101Z" fill="#1D1D1D" fill-opacity="0.5"/>
<path d="M333.046 303.59C332.308 303.973 331.389 304.164 330.291 304.164C328.869 304.164 327.73 303.715 326.873 302.817C326.016 301.92 325.588 300.742 325.588 299.283C325.588 297.715 326.069 296.449 327.03 295.482C327.996 294.516 329.215 294.033 330.688 294.033C331.635 294.033 332.422 294.168 333.046 294.437V296.05C332.385 295.658 331.656 295.462 330.858 295.462C329.797 295.462 328.935 295.801 328.274 296.48C327.618 297.16 327.29 298.066 327.29 299.201C327.29 300.281 327.598 301.143 328.213 301.785C328.828 302.423 329.637 302.742 330.64 302.742C331.565 302.742 332.367 302.523 333.046 302.086V303.59ZM335.527 295.53C335.268 295.53 335.044 295.446 334.857 295.277C334.675 295.109 334.584 294.895 334.584 294.635C334.584 294.375 334.675 294.159 334.857 293.985C335.044 293.812 335.268 293.726 335.527 293.726C335.796 293.726 336.024 293.812 336.211 293.985C336.398 294.159 336.491 294.375 336.491 294.635C336.491 294.881 336.398 295.093 336.211 295.271C336.024 295.444 335.796 295.53 335.527 295.53ZM336.313 304H334.728V297H336.313V304ZM344.756 304H343.17V302.811H343.143C342.632 303.713 341.846 304.164 340.784 304.164C339.923 304.164 339.232 303.852 338.713 303.228C338.198 302.599 337.94 301.744 337.94 300.664C337.94 299.507 338.225 298.579 338.795 297.882C339.369 297.185 340.132 296.836 341.085 296.836C342.028 296.836 342.714 297.214 343.143 297.971H343.17V293.637H344.756V304ZM343.19 300.801V299.885C343.19 299.388 343.029 298.966 342.705 298.62C342.382 298.274 341.969 298.101 341.468 298.101C340.875 298.101 340.408 298.322 340.066 298.764C339.729 299.206 339.561 299.819 339.561 300.603C339.561 301.313 339.722 301.876 340.046 302.291C340.374 302.701 340.814 302.906 341.365 302.906C341.908 302.906 342.347 302.708 342.685 302.312C343.022 301.91 343.19 301.407 343.19 300.801ZM352.2 304H350.662V302.906H350.635C350.152 303.745 349.443 304.164 348.509 304.164C347.821 304.164 347.281 303.977 346.889 303.604C346.501 303.23 346.308 302.735 346.308 302.12C346.308 300.799 347.069 300.028 348.591 299.81L350.669 299.516C350.669 298.518 350.195 298.019 349.247 298.019C348.413 298.019 347.661 298.306 346.991 298.88V297.492C347.729 297.055 348.582 296.836 349.548 296.836C351.316 296.836 352.2 297.706 352.2 299.447V304ZM350.669 300.562L349.199 300.767C348.743 300.826 348.399 300.938 348.167 301.102C347.939 301.261 347.825 301.544 347.825 301.949C347.825 302.245 347.93 302.489 348.14 302.681C348.354 302.868 348.639 302.961 348.994 302.961C349.477 302.961 349.876 302.792 350.19 302.455C350.509 302.113 350.669 301.685 350.669 301.17V300.562ZM360.506 304H358.92V302.811H358.893C358.382 303.713 357.596 304.164 356.534 304.164C355.673 304.164 354.982 303.852 354.463 303.228C353.948 302.599 353.69 301.744 353.69 300.664C353.69 299.507 353.975 298.579 354.545 297.882C355.119 297.185 355.882 296.836 356.835 296.836C357.778 296.836 358.464 297.214 358.893 297.971H358.92V293.637H360.506V304ZM358.94 300.801V299.885C358.94 299.388 358.779 298.966 358.455 298.62C358.132 298.274 357.719 298.101 357.218 298.101C356.625 298.101 356.158 298.322 355.816 298.764C355.479 299.206 355.311 299.819 355.311 300.603C355.311 301.313 355.472 301.876 355.796 302.291C356.124 302.701 356.564 302.906 357.115 302.906C357.658 302.906 358.097 302.708 358.435 302.312C358.772 301.91 358.94 301.407 358.94 300.801ZM368.504 300.931H363.732C363.751 301.578 363.949 302.077 364.327 302.428C364.71 302.779 365.234 302.954 365.899 302.954C366.647 302.954 367.333 302.731 367.957 302.284V303.562C367.319 303.964 366.476 304.164 365.428 304.164C364.398 304.164 363.589 303.847 363.001 303.214C362.418 302.576 362.126 301.68 362.126 300.527C362.126 299.438 362.447 298.552 363.09 297.868C363.737 297.18 364.539 296.836 365.496 296.836C366.453 296.836 367.194 297.144 367.718 297.759C368.242 298.374 368.504 299.229 368.504 300.322V300.931ZM366.973 299.81C366.968 299.24 366.834 298.798 366.569 298.483C366.305 298.164 365.94 298.005 365.476 298.005C365.02 298.005 364.632 298.171 364.313 298.504C363.999 298.837 363.805 299.272 363.732 299.81H366.973Z" fill="#1D1D1D" fill-opacity="0.5"/>
<path d="M332.713 349H327.21V339.197H332.494V340.578H328.837V343.354H332.207V344.728H328.837V347.626H332.713V349ZM333.841 348.781V347.312C334.433 347.763 335.087 347.988 335.803 347.988C336.76 347.988 337.238 347.706 337.238 347.141C337.238 346.981 337.197 346.847 337.115 346.737C337.033 346.623 336.922 346.523 336.78 346.437C336.644 346.35 336.479 346.272 336.288 346.204C336.101 346.136 335.892 346.058 335.659 345.972C335.372 345.858 335.112 345.737 334.88 345.609C334.652 345.482 334.461 345.338 334.306 345.179C334.155 345.015 334.041 344.83 333.964 344.625C333.886 344.42 333.848 344.181 333.848 343.907C333.848 343.57 333.927 343.274 334.087 343.019C334.246 342.759 334.461 342.542 334.729 342.369C334.998 342.191 335.304 342.059 335.646 341.973C335.987 341.882 336.34 341.836 336.705 341.836C337.352 341.836 337.931 341.934 338.441 342.13V343.518C337.949 343.18 337.384 343.012 336.746 343.012C336.546 343.012 336.363 343.032 336.199 343.073C336.04 343.114 335.903 343.171 335.789 343.244C335.675 343.317 335.586 343.406 335.522 343.511C335.459 343.611 335.427 343.723 335.427 343.846C335.427 343.996 335.459 344.124 335.522 344.229C335.586 344.333 335.68 344.427 335.803 344.509C335.93 344.586 336.081 344.659 336.254 344.728C336.432 344.791 336.634 344.862 336.862 344.939C337.163 345.062 337.432 345.188 337.669 345.315C337.91 345.443 338.116 345.589 338.284 345.753C338.453 345.912 338.583 346.099 338.674 346.313C338.765 346.523 338.811 346.774 338.811 347.065C338.811 347.421 338.729 347.731 338.564 347.995C338.4 348.259 338.182 348.478 337.908 348.651C337.635 348.825 337.318 348.952 336.958 349.034C336.603 349.121 336.227 349.164 335.83 349.164C335.064 349.164 334.401 349.036 333.841 348.781ZM344.013 348.925C343.703 349.08 343.295 349.157 342.789 349.157C341.431 349.157 340.752 348.506 340.752 347.202V343.244H339.583V342H340.752V340.38L342.338 339.929V342H344.013V343.244H342.338V346.744C342.338 347.159 342.413 347.455 342.563 347.633C342.714 347.811 342.965 347.899 343.315 347.899C343.584 347.899 343.817 347.822 344.013 347.667V348.925ZM350.753 349H349.215V347.906H349.188C348.704 348.745 347.996 349.164 347.062 349.164C346.373 349.164 345.833 348.977 345.441 348.604C345.054 348.23 344.86 347.735 344.86 347.12C344.86 345.799 345.621 345.028 347.144 344.81L349.222 344.516C349.222 343.518 348.748 343.019 347.8 343.019C346.966 343.019 346.214 343.306 345.544 343.88V342.492C346.282 342.055 347.134 341.836 348.101 341.836C349.869 341.836 350.753 342.706 350.753 344.447V349ZM349.222 345.562L347.752 345.767C347.296 345.826 346.952 345.938 346.72 346.102C346.492 346.261 346.378 346.544 346.378 346.949C346.378 347.245 346.483 347.489 346.692 347.681C346.907 347.868 347.191 347.961 347.547 347.961C348.03 347.961 348.429 347.792 348.743 347.455C349.062 347.113 349.222 346.685 349.222 346.17V345.562ZM359.059 349H357.473V347.811H357.445C356.935 348.713 356.149 349.164 355.087 349.164C354.226 349.164 353.535 348.852 353.016 348.228C352.501 347.599 352.243 346.744 352.243 345.664C352.243 344.507 352.528 343.579 353.098 342.882C353.672 342.185 354.435 341.836 355.388 341.836C356.331 341.836 357.017 342.214 357.445 342.971H357.473V338.637H359.059V349ZM357.493 345.801V344.885C357.493 344.388 357.331 343.966 357.008 343.62C356.684 343.274 356.272 343.101 355.771 343.101C355.178 343.101 354.711 343.322 354.369 343.764C354.032 344.206 353.863 344.819 353.863 345.603C353.863 346.313 354.025 346.876 354.349 347.291C354.677 347.701 355.117 347.906 355.668 347.906C356.21 347.906 356.65 347.708 356.987 347.312C357.325 346.91 357.493 346.407 357.493 345.801ZM364.233 349.164C363.153 349.164 362.29 348.838 361.643 348.187C361 347.53 360.679 346.662 360.679 345.582C360.679 344.406 361.014 343.488 361.684 342.827C362.358 342.166 363.265 341.836 364.404 341.836C365.498 341.836 366.35 342.157 366.961 342.8C367.572 343.442 367.877 344.333 367.877 345.473C367.877 346.589 367.547 347.485 366.886 348.159C366.229 348.829 365.345 349.164 364.233 349.164ZM364.309 343.101C363.689 343.101 363.199 343.317 362.839 343.75C362.479 344.183 362.299 344.78 362.299 345.541C362.299 346.275 362.481 346.854 362.846 347.277C363.21 347.697 363.698 347.906 364.309 347.906C364.933 347.906 365.411 347.699 365.744 347.284C366.081 346.869 366.25 346.279 366.25 345.514C366.25 344.743 366.081 344.149 365.744 343.729C365.411 343.31 364.933 343.101 364.309 343.101Z" fill="#1D1D1D" fill-opacity="0.5"/>
<path d="M352.046 393.59C351.308 393.973 350.389 394.164 349.291 394.164C347.869 394.164 346.73 393.715 345.873 392.817C345.016 391.92 344.588 390.742 344.588 389.283C344.588 387.715 345.069 386.449 346.03 385.482C346.996 384.516 348.215 384.033 349.688 384.033C350.635 384.033 351.422 384.168 352.046 384.437V386.05C351.385 385.658 350.656 385.462 349.858 385.462C348.797 385.462 347.935 385.801 347.274 386.48C346.618 387.16 346.29 388.066 346.29 389.201C346.29 390.281 346.598 391.143 347.213 391.785C347.828 392.423 348.637 392.742 349.64 392.742C350.565 392.742 351.367 392.523 352.046 392.086V393.59ZM359.408 394H353.905V384.197H359.189V385.578H355.532V388.354H358.902V389.728H355.532V392.626H359.408V394ZM362.771 390.445V394H361.151V384.197H364.125C365.251 384.197 366.123 384.459 366.743 384.983C367.363 385.507 367.673 386.246 367.673 387.198C367.673 388.151 367.349 388.93 366.702 389.536C366.055 390.142 365.18 390.445 364.077 390.445H362.771ZM362.771 385.537V389.119H363.824C364.521 389.119 365.052 388.957 365.417 388.634C365.782 388.31 365.964 387.854 365.964 387.267C365.964 386.114 365.294 385.537 363.954 385.537H362.771Z" fill="#1D1D1D" fill-opacity="0.5"/>
</g>
<defs>
<clipPath id="clip0_518_78">
<rect width="1000" height="640" fill="white"/>
</clipPath>
</defs>
</svg>
