<svg width="382" height="640" viewBox="0 0 382 640" fill="none" xmlns="http://www.w3.org/2000/svg">
<g clip-path="url(#clip0_402_4)">
<rect width="382" height="640" fill="white"/>
<path d="M120.016 196.703H112.109V202.203H119.375V206.297H112.109V215H107.062V192.594H120.016V196.703ZM135.578 215H130.906V212.703H130.844C129.771 214.495 128.182 215.391 126.078 215.391C124.526 215.391 123.302 214.953 122.406 214.078C121.521 213.193 121.078 212.016 121.078 210.547C121.078 207.443 122.917 205.651 126.594 205.172L130.938 204.594C130.938 202.844 129.99 201.969 128.094 201.969C126.188 201.969 124.375 202.536 122.656 203.672V199.953C123.344 199.599 124.281 199.286 125.469 199.016C126.667 198.745 127.755 198.609 128.734 198.609C133.297 198.609 135.578 200.885 135.578 205.438V215ZM130.938 208.5V207.422L128.031 207.797C126.427 208.005 125.625 208.729 125.625 209.969C125.625 210.531 125.818 210.995 126.203 211.359C126.599 211.714 127.13 211.891 127.797 211.891C128.724 211.891 129.479 211.573 130.062 210.938C130.646 210.292 130.938 209.479 130.938 208.5ZM151.609 214.422C150.495 215.068 148.885 215.391 146.781 215.391C144.323 215.391 142.333 214.646 140.812 213.156C139.292 211.667 138.531 209.745 138.531 207.391C138.531 204.672 139.344 202.531 140.969 200.969C142.604 199.396 144.786 198.609 147.516 198.609C149.401 198.609 150.766 198.859 151.609 199.359V203.547C150.578 202.776 149.427 202.391 148.156 202.391C146.74 202.391 145.615 202.807 144.781 203.641C143.958 204.464 143.547 205.604 143.547 207.062C143.547 208.479 143.943 209.594 144.734 210.406C145.526 211.208 146.615 211.609 148 211.609C149.229 211.609 150.432 211.224 151.609 210.453V214.422ZM144.062 222.047V219.891C144.427 219.953 144.802 219.984 145.188 219.984C146.469 219.984 147.109 219.604 147.109 218.844C147.109 218.156 146.531 217.812 145.375 217.812C145.24 217.812 145.047 217.823 144.797 217.844V215H147.484V216.281C149.432 216.365 150.406 217.229 150.406 218.875C150.406 221.031 148.75 222.109 145.438 222.109C144.958 222.109 144.5 222.089 144.062 222.047ZM168.172 215H163.5V212.703H163.438C162.365 214.495 160.776 215.391 158.672 215.391C157.12 215.391 155.896 214.953 155 214.078C154.115 213.193 153.672 212.016 153.672 210.547C153.672 207.443 155.51 205.651 159.188 205.172L163.531 204.594C163.531 202.844 162.583 201.969 160.688 201.969C158.781 201.969 156.969 202.536 155.25 203.672V199.953C155.938 199.599 156.875 199.286 158.062 199.016C159.26 198.745 160.349 198.609 161.328 198.609C165.891 198.609 168.172 200.885 168.172 205.438V215ZM163.531 208.5V207.422L160.625 207.797C159.021 208.005 158.219 208.729 158.219 209.969C158.219 210.531 158.411 210.995 158.797 211.359C159.193 211.714 159.724 211.891 160.391 211.891C161.318 211.891 162.073 211.573 162.656 210.938C163.24 210.292 163.531 209.479 163.531 208.5ZM179.875 214.578V210.578C180.688 211.068 181.495 211.432 182.297 211.672C183.109 211.911 183.875 212.031 184.594 212.031C185.469 212.031 186.156 211.911 186.656 211.672C187.167 211.432 187.422 211.068 187.422 210.578C187.422 210.266 187.307 210.005 187.078 209.797C186.849 209.589 186.552 209.406 186.188 209.25C185.833 209.094 185.443 208.953 185.016 208.828C184.589 208.703 184.177 208.562 183.781 208.406C183.146 208.167 182.583 207.911 182.094 207.641C181.615 207.359 181.208 207.036 180.875 206.672C180.552 206.307 180.302 205.885 180.125 205.406C179.958 204.927 179.875 204.359 179.875 203.703C179.875 202.807 180.068 202.036 180.453 201.391C180.849 200.745 181.37 200.219 182.016 199.812C182.672 199.396 183.417 199.094 184.25 198.906C185.094 198.708 185.969 198.609 186.875 198.609C187.583 198.609 188.302 198.667 189.031 198.781C189.76 198.885 190.479 199.042 191.188 199.25V203.062C190.562 202.698 189.891 202.427 189.172 202.25C188.464 202.062 187.766 201.969 187.078 201.969C186.755 201.969 186.448 202 186.156 202.062C185.875 202.115 185.625 202.198 185.406 202.312C185.188 202.417 185.016 202.557 184.891 202.734C184.766 202.901 184.703 203.094 184.703 203.312C184.703 203.604 184.797 203.854 184.984 204.062C185.172 204.271 185.417 204.453 185.719 204.609C186.021 204.755 186.354 204.891 186.719 205.016C187.094 205.13 187.464 205.25 187.828 205.375C188.484 205.604 189.078 205.854 189.609 206.125C190.141 206.396 190.594 206.714 190.969 207.078C191.354 207.443 191.646 207.87 191.844 208.359C192.052 208.849 192.156 209.432 192.156 210.109C192.156 211.057 191.948 211.87 191.531 212.547C191.125 213.214 190.578 213.76 189.891 214.188C189.214 214.604 188.427 214.906 187.531 215.094C186.646 215.292 185.724 215.391 184.766 215.391C183.005 215.391 181.375 215.12 179.875 214.578ZM209.391 208.406H198.953C199.12 210.729 200.583 211.891 203.344 211.891C205.104 211.891 206.651 211.474 207.984 210.641V214.203C206.505 214.995 204.583 215.391 202.219 215.391C199.635 215.391 197.63 214.677 196.203 213.25C194.776 211.812 194.062 209.812 194.062 207.25C194.062 204.594 194.833 202.49 196.375 200.938C197.917 199.385 199.812 198.609 202.062 198.609C204.396 198.609 206.198 199.302 207.469 200.688C208.75 202.073 209.391 203.953 209.391 206.328V208.406ZM204.812 205.375C204.812 203.083 203.885 201.938 202.031 201.938C201.24 201.938 200.552 202.266 199.969 202.922C199.396 203.578 199.047 204.396 198.922 205.375H204.812ZM227.531 215H222.609V212.562H222.531C221.312 214.448 219.682 215.391 217.641 215.391C213.932 215.391 212.078 213.146 212.078 208.656V199H217V208.219C217 210.479 217.896 211.609 219.688 211.609C220.573 211.609 221.281 211.302 221.812 210.688C222.344 210.062 222.609 209.219 222.609 208.156V199H227.531V215ZM245.484 215H240.547V191.312H245.484V215ZM257.266 215.391C254.599 215.391 252.5 214.646 250.969 213.156C249.448 211.656 248.688 209.625 248.688 207.062C248.688 204.417 249.479 202.349 251.062 200.859C252.646 199.359 254.786 198.609 257.484 198.609C260.141 198.609 262.224 199.359 263.734 200.859C265.245 202.349 266 204.323 266 206.781C266 209.438 265.219 211.536 263.656 213.078C262.104 214.62 259.974 215.391 257.266 215.391ZM257.391 202.391C256.224 202.391 255.318 202.792 254.672 203.594C254.026 204.396 253.703 205.531 253.703 207C253.703 210.073 254.943 211.609 257.422 211.609C259.786 211.609 260.969 210.031 260.969 206.875C260.969 203.885 259.776 202.391 257.391 202.391ZM284.891 213.172C284.891 216.141 284.031 218.438 282.312 220.062C280.594 221.698 278.104 222.516 274.844 222.516C272.688 222.516 270.979 222.208 269.719 221.594V217.438C271.365 218.396 273.026 218.875 274.703 218.875C276.37 218.875 277.661 218.432 278.578 217.547C279.495 216.672 279.953 215.479 279.953 213.969V212.703H279.891C278.766 214.495 277.104 215.391 274.906 215.391C272.865 215.391 271.245 214.672 270.047 213.234C268.849 211.797 268.25 209.87 268.25 207.453C268.25 204.745 268.917 202.594 270.25 201C271.583 199.406 273.339 198.609 275.516 198.609C277.464 198.609 278.922 199.359 279.891 200.859H279.953V199H284.891V213.172ZM280.016 207.312V206.047C280.016 205.036 279.714 204.177 279.109 203.469C278.516 202.75 277.74 202.391 276.781 202.391C275.688 202.391 274.828 202.818 274.203 203.672C273.578 204.526 273.266 205.729 273.266 207.281C273.266 208.615 273.562 209.672 274.156 210.453C274.75 211.224 275.562 211.609 276.594 211.609C277.615 211.609 278.438 211.219 279.062 210.438C279.698 209.646 280.016 208.604 280.016 207.312ZM291.516 196.469C290.682 196.469 290 196.224 289.469 195.734C288.938 195.234 288.672 194.625 288.672 193.906C288.672 193.167 288.938 192.562 289.469 192.094C290 191.625 290.682 191.391 291.516 191.391C292.359 191.391 293.042 191.625 293.562 192.094C294.094 192.562 294.359 193.167 294.359 193.906C294.359 194.656 294.094 195.271 293.562 195.75C293.042 196.229 292.359 196.469 291.516 196.469ZM293.953 215H289.016V199H293.953V215ZM313.562 215H308.641V206.109C308.641 203.63 307.755 202.391 305.984 202.391C305.13 202.391 304.427 202.719 303.875 203.375C303.323 204.031 303.047 204.865 303.047 205.875V215H298.109V199H303.047V201.531H303.109C304.286 199.583 306 198.609 308.25 198.609C311.792 198.609 313.562 200.807 313.562 205.203V215ZM122.031 247H117.109V238.109C117.109 235.63 116.224 234.391 114.453 234.391C113.599 234.391 112.896 234.719 112.344 235.375C111.792 236.031 111.516 236.865 111.516 237.875V247H106.578V231H111.516V233.531H111.578C112.755 231.583 114.469 230.609 116.719 230.609C120.26 230.609 122.031 232.807 122.031 237.203V247ZM139.266 247H134.594V244.703H134.531C133.458 246.495 131.87 247.391 129.766 247.391C128.214 247.391 126.99 246.953 126.094 246.078C125.208 245.193 124.766 244.016 124.766 242.547C124.766 239.443 126.604 237.651 130.281 237.172L134.625 236.594C134.625 234.844 133.677 233.969 131.781 233.969C129.875 233.969 128.062 234.536 126.344 235.672V231.953C127.031 231.599 127.969 231.286 129.156 231.016C130.354 230.745 131.443 230.609 132.422 230.609C136.984 230.609 139.266 232.885 139.266 237.438V247ZM134.625 240.5V239.422L131.719 239.797C130.115 240.005 129.312 240.729 129.312 241.969C129.312 242.531 129.505 242.995 129.891 243.359C130.286 243.714 130.818 243.891 131.484 243.891C132.411 243.891 133.167 243.573 133.75 242.938C134.333 242.292 134.625 241.479 134.625 240.5ZM157.016 245.141H156.953V254.359H152.016V231H156.953V233.406H157.016C158.234 231.542 159.948 230.609 162.156 230.609C164.229 230.609 165.828 231.323 166.953 232.75C168.089 234.167 168.656 236.099 168.656 238.547C168.656 241.214 167.995 243.354 166.672 244.969C165.359 246.583 163.609 247.391 161.422 247.391C159.495 247.391 158.026 246.641 157.016 245.141ZM156.875 238.578V239.859C156.875 240.964 157.167 241.865 157.75 242.562C158.333 243.26 159.099 243.609 160.047 243.609C161.172 243.609 162.042 243.177 162.656 242.312C163.281 241.438 163.594 240.203 163.594 238.609C163.594 235.797 162.5 234.391 160.312 234.391C159.302 234.391 158.474 234.776 157.828 235.547C157.193 236.307 156.875 237.318 156.875 238.578ZM176.797 247H171.859V223.312H176.797V247ZM194.266 247H189.594V244.703H189.531C188.458 246.495 186.87 247.391 184.766 247.391C183.214 247.391 181.99 246.953 181.094 246.078C180.208 245.193 179.766 244.016 179.766 242.547C179.766 239.443 181.604 237.651 185.281 237.172L189.625 236.594C189.625 234.844 188.677 233.969 186.781 233.969C184.875 233.969 183.062 234.536 181.344 235.672V231.953C182.031 231.599 182.969 231.286 184.156 231.016C185.354 230.745 186.443 230.609 187.422 230.609C191.984 230.609 194.266 232.885 194.266 237.438V247ZM189.625 240.5V239.422L186.719 239.797C185.115 240.005 184.312 240.729 184.312 241.969C184.312 242.531 184.505 242.995 184.891 243.359C185.286 243.714 185.818 243.891 186.484 243.891C187.411 243.891 188.167 243.573 188.75 242.938C189.333 242.292 189.625 241.479 189.625 240.5ZM207.844 246.812C207.115 247.198 206.016 247.391 204.547 247.391C201.068 247.391 199.328 245.583 199.328 241.969V234.641H196.734V231H199.328V227.547L204.25 226.141V231H207.844V234.641H204.25V241.109C204.25 242.776 204.911 243.609 206.234 243.609C206.755 243.609 207.292 243.458 207.844 243.156V246.812ZM223.953 247H219.281V244.703H219.219C218.146 246.495 216.557 247.391 214.453 247.391C212.901 247.391 211.677 246.953 210.781 246.078C209.896 245.193 209.453 244.016 209.453 242.547C209.453 239.443 211.292 237.651 214.969 237.172L219.312 236.594C219.312 234.844 218.365 233.969 216.469 233.969C214.562 233.969 212.75 234.536 211.031 235.672V231.953C211.719 231.599 212.656 231.286 213.844 231.016C215.042 230.745 216.13 230.609 217.109 230.609C221.672 230.609 223.953 232.885 223.953 237.438V247ZM219.312 240.5V239.422L216.406 239.797C214.802 240.005 214 240.729 214 241.969C214 242.531 214.193 242.995 214.578 243.359C214.974 243.714 215.505 243.891 216.172 243.891C217.099 243.891 217.854 243.573 218.438 242.938C219.021 242.292 219.312 241.479 219.312 240.5ZM238.297 227.094C237.661 226.844 237.052 226.719 236.469 226.719C234.885 226.719 234.094 227.578 234.094 229.297V231H237.75V234.641H234.094V247H229.172V234.641H226.484V231H229.172V229.016C229.172 227.193 229.766 225.724 230.953 224.609C232.141 223.495 233.755 222.938 235.797 222.938C236.797 222.938 237.63 223.042 238.297 223.25V227.094ZM247.766 247.391C245.099 247.391 243 246.646 241.469 245.156C239.948 243.656 239.188 241.625 239.188 239.062C239.188 236.417 239.979 234.349 241.562 232.859C243.146 231.359 245.286 230.609 247.984 230.609C250.641 230.609 252.724 231.359 254.234 232.859C255.745 234.349 256.5 236.323 256.5 238.781C256.5 241.438 255.719 243.536 254.156 245.078C252.604 246.62 250.474 247.391 247.766 247.391ZM247.891 234.391C246.724 234.391 245.818 234.792 245.172 235.594C244.526 236.396 244.203 237.531 244.203 239C244.203 242.073 245.443 243.609 247.922 243.609C250.286 243.609 251.469 242.031 251.469 238.875C251.469 235.885 250.276 234.391 247.891 234.391ZM270.141 235.453C269.547 235.13 268.854 234.969 268.062 234.969C266.99 234.969 266.151 235.365 265.547 236.156C264.943 236.938 264.641 238.005 264.641 239.359V247H259.703V231H264.641V233.969H264.703C265.484 231.802 266.891 230.719 268.922 230.719C269.443 230.719 269.849 230.781 270.141 230.906V235.453ZM297.953 247H293.031V237.875C293.031 235.552 292.177 234.391 290.469 234.391C289.656 234.391 288.995 234.74 288.484 235.438C287.974 236.135 287.719 237.005 287.719 238.047V247H282.781V237.781C282.781 235.521 281.943 234.391 280.266 234.391C279.422 234.391 278.745 234.724 278.234 235.391C277.734 236.057 277.484 236.964 277.484 238.109V247H272.547V231H277.484V233.5H277.547C278.057 232.646 278.771 231.953 279.688 231.422C280.615 230.88 281.625 230.609 282.719 230.609C284.979 230.609 286.526 231.604 287.359 233.594C288.578 231.604 290.37 230.609 292.734 230.609C296.214 230.609 297.953 232.755 297.953 237.047V247ZM315.172 247H310.5V244.703H310.438C309.365 246.495 307.776 247.391 305.672 247.391C304.12 247.391 302.896 246.953 302 246.078C301.115 245.193 300.672 244.016 300.672 242.547C300.672 239.443 302.51 237.651 306.188 237.172L310.531 236.594C310.531 234.844 309.583 233.969 307.688 233.969C305.781 233.969 303.969 234.536 302.25 235.672V231.953C302.938 231.599 303.875 231.286 305.062 231.016C306.26 230.745 307.349 230.609 308.328 230.609C312.891 230.609 315.172 232.885 315.172 237.438V247ZM310.531 240.5V239.422L307.625 239.797C306.021 240.005 305.219 240.729 305.219 241.969C305.219 242.531 305.411 242.995 305.797 243.359C306.193 243.714 306.724 243.891 307.391 243.891C308.318 243.891 309.073 243.573 309.656 242.938C310.24 242.292 310.531 241.479 310.531 240.5Z" fill="#1D1D1D"/>
<rect x="74" y="250" width="274" height="207" rx="12" fill="white"/>
<rect x="91" y="267" width="240" height="43" rx="7" fill="#F7F7F7"/>
<rect x="91" y="267" width="240" height="43" rx="7" stroke="#E6E6E6" stroke-width="2"/>
<rect x="91" y="322" width="240" height="43" rx="7" fill="#F7F7F7"/>
<rect x="91" y="322" width="240" height="43" rx="7" stroke="#E6E6E6" stroke-width="2"/>
<rect x="90" y="374" width="242" height="35" rx="5" fill="#E30140"/>
<path d="M189.031 395.172V397H182.977V395.172H189.031ZM183.742 385.625V397H181.398V385.625H183.742ZM188.242 390.258V392.039H182.977V390.258H188.242ZM189.023 385.625V387.461H182.977V385.625H189.023ZM199.656 385.625V397H197.312L192.742 389.375V397H190.398V385.625H192.742L197.32 393.258V385.625H199.656ZM206.547 385.625V397H204.211V385.625H206.547ZM210.047 385.625V387.461H200.766V385.625H210.047ZM211.383 385.625H215.625C216.495 385.625 217.242 385.755 217.867 386.016C218.497 386.276 218.982 386.661 219.32 387.172C219.659 387.682 219.828 388.31 219.828 389.055C219.828 389.664 219.724 390.188 219.516 390.625C219.312 391.057 219.023 391.419 218.648 391.711C218.279 391.997 217.844 392.227 217.344 392.398L216.602 392.789H212.914L212.898 390.961H215.641C216.052 390.961 216.393 390.888 216.664 390.742C216.935 390.596 217.138 390.393 217.273 390.133C217.414 389.872 217.484 389.57 217.484 389.227C217.484 388.862 217.417 388.547 217.281 388.281C217.146 388.016 216.94 387.812 216.664 387.672C216.388 387.531 216.042 387.461 215.625 387.461H213.727V397H211.383V385.625ZM217.742 397L215.148 391.93L217.625 391.914L220.25 396.891V397H217.742ZM226.258 387.57L223.164 397H220.672L224.898 385.625H226.484L226.258 387.57ZM228.828 397L225.727 387.57L225.477 385.625H227.078L231.328 397H228.828ZM228.688 392.766V394.602H222.68V392.766H228.688ZM232.383 385.625H236.625C237.495 385.625 238.242 385.755 238.867 386.016C239.497 386.276 239.982 386.661 240.32 387.172C240.659 387.682 240.828 388.31 240.828 389.055C240.828 389.664 240.724 390.188 240.516 390.625C240.312 391.057 240.023 391.419 239.648 391.711C239.279 391.997 238.844 392.227 238.344 392.398L237.602 392.789H233.914L233.898 390.961H236.641C237.052 390.961 237.393 390.888 237.664 390.742C237.935 390.596 238.138 390.393 238.273 390.133C238.414 389.872 238.484 389.57 238.484 389.227C238.484 388.862 238.417 388.547 238.281 388.281C238.146 388.016 237.94 387.812 237.664 387.672C237.388 387.531 237.042 387.461 236.625 387.461H234.727V397H232.383V385.625ZM238.742 397L236.148 391.93L238.625 391.914L241.25 396.891V397H238.742Z" fill="white"/>
<path d="M118.326 428.047V438H117L111.989 430.323V438H110.669V428.047H111.989L117.02 435.744V428.047H118.326ZM124.834 436.735V432.928C124.834 432.636 124.774 432.383 124.656 432.169C124.542 431.95 124.369 431.782 124.136 431.663C123.904 431.545 123.617 431.485 123.275 431.485C122.956 431.485 122.676 431.54 122.434 431.649C122.197 431.759 122.01 431.902 121.874 432.08C121.741 432.258 121.675 432.449 121.675 432.654H120.411C120.411 432.39 120.479 432.128 120.616 431.868C120.752 431.608 120.948 431.374 121.204 431.164C121.463 430.95 121.773 430.781 122.133 430.658C122.498 430.531 122.904 430.467 123.35 430.467C123.888 430.467 124.362 430.558 124.772 430.74C125.187 430.923 125.51 431.198 125.743 431.567C125.98 431.932 126.098 432.39 126.098 432.941V436.387C126.098 436.633 126.119 436.895 126.16 437.173C126.205 437.451 126.271 437.69 126.358 437.891V438H125.039C124.975 437.854 124.925 437.66 124.888 437.419C124.852 437.173 124.834 436.945 124.834 436.735ZM125.052 433.516L125.066 434.404H123.788C123.428 434.404 123.106 434.434 122.824 434.493C122.541 434.548 122.304 434.632 122.113 434.746C121.921 434.86 121.776 435.004 121.675 435.177C121.575 435.345 121.525 435.544 121.525 435.771C121.525 436.004 121.577 436.216 121.682 436.407C121.787 436.599 121.944 436.751 122.154 436.865C122.368 436.975 122.63 437.029 122.94 437.029C123.327 437.029 123.669 436.947 123.965 436.783C124.262 436.619 124.496 436.419 124.669 436.182C124.847 435.945 124.943 435.715 124.957 435.491L125.497 436.1C125.465 436.291 125.378 436.503 125.237 436.735C125.096 436.968 124.906 437.191 124.669 437.405C124.437 437.615 124.159 437.79 123.835 437.932C123.516 438.068 123.156 438.137 122.755 438.137C122.254 438.137 121.814 438.039 121.436 437.843C121.062 437.647 120.771 437.385 120.561 437.057C120.356 436.724 120.253 436.353 120.253 435.942C120.253 435.546 120.331 435.197 120.486 434.896C120.641 434.591 120.864 434.338 121.156 434.138C121.447 433.933 121.798 433.778 122.209 433.673C122.619 433.568 123.077 433.516 123.583 433.516H125.052ZM125.059 427.637L125.914 427.712C125.914 428.045 125.848 428.336 125.715 428.587C125.583 428.838 125.405 429.031 125.182 429.168C124.963 429.305 124.715 429.373 124.437 429.373C124.205 429.373 124.013 429.341 123.863 429.277C123.712 429.209 123.578 429.134 123.46 429.052C123.341 428.965 123.216 428.89 123.084 428.826C122.956 428.758 122.796 428.724 122.605 428.724C122.414 428.724 122.252 428.797 122.12 428.942C121.992 429.088 121.928 429.268 121.928 429.482L121.074 429.441C121.074 429.109 121.138 428.817 121.265 428.566C121.397 428.311 121.575 428.113 121.798 427.972C122.022 427.826 122.27 427.753 122.543 427.753C122.739 427.753 122.91 427.787 123.056 427.855C123.207 427.919 123.348 427.994 123.48 428.081C123.612 428.163 123.749 428.238 123.89 428.307C124.031 428.37 124.193 428.402 124.376 428.402C124.567 428.402 124.729 428.329 124.861 428.184C124.993 428.033 125.059 427.851 125.059 427.637ZM127.752 434.384V434.227C127.752 433.693 127.83 433.199 127.985 432.743C128.14 432.283 128.363 431.884 128.655 431.547C128.946 431.205 129.3 430.941 129.714 430.754C130.129 430.562 130.594 430.467 131.109 430.467C131.628 430.467 132.096 430.562 132.51 430.754C132.93 430.941 133.285 431.205 133.577 431.547C133.873 431.884 134.099 432.283 134.253 432.743C134.408 433.199 134.486 433.693 134.486 434.227V434.384C134.486 434.917 134.408 435.411 134.253 435.867C134.099 436.323 133.873 436.722 133.577 437.063C133.285 437.401 132.932 437.665 132.517 437.856C132.107 438.043 131.642 438.137 131.123 438.137C130.603 438.137 130.136 438.043 129.721 437.856C129.307 437.665 128.951 437.401 128.655 437.063C128.363 436.722 128.14 436.323 127.985 435.867C127.83 435.411 127.752 434.917 127.752 434.384ZM129.017 434.227V434.384C129.017 434.753 129.06 435.102 129.147 435.43C129.234 435.753 129.363 436.04 129.537 436.291C129.714 436.542 129.935 436.74 130.2 436.886C130.464 437.027 130.772 437.098 131.123 437.098C131.469 437.098 131.772 437.027 132.032 436.886C132.296 436.74 132.515 436.542 132.688 436.291C132.861 436.04 132.991 435.753 133.078 435.43C133.169 435.102 133.214 434.753 133.214 434.384V434.227C133.214 433.862 133.169 433.518 133.078 433.194C132.991 432.866 132.859 432.577 132.681 432.326C132.508 432.071 132.289 431.87 132.025 431.725C131.765 431.579 131.46 431.506 131.109 431.506C130.763 431.506 130.457 431.579 130.193 431.725C129.933 431.87 129.714 432.071 129.537 432.326C129.363 432.577 129.234 432.866 129.147 433.194C129.06 433.518 129.017 433.862 129.017 434.227ZM142.641 430.604V431.574H138.642V430.604H142.641ZM139.996 428.806H141.26V436.168C141.26 436.419 141.299 436.608 141.376 436.735C141.454 436.863 141.554 436.947 141.677 436.988C141.8 437.029 141.932 437.05 142.074 437.05C142.179 437.05 142.288 437.041 142.402 437.022C142.52 437 142.609 436.981 142.668 436.968L142.675 438C142.575 438.032 142.443 438.062 142.279 438.089C142.119 438.121 141.926 438.137 141.698 438.137C141.388 438.137 141.103 438.075 140.843 437.952C140.584 437.829 140.376 437.624 140.221 437.337C140.071 437.045 139.996 436.653 139.996 436.161V428.806ZM147.194 438.137C146.679 438.137 146.212 438.05 145.793 437.877C145.378 437.699 145.02 437.451 144.719 437.132C144.423 436.813 144.195 436.435 144.036 435.997C143.876 435.56 143.796 435.081 143.796 434.562V434.274C143.796 433.673 143.885 433.137 144.063 432.668C144.241 432.194 144.482 431.793 144.788 431.465C145.093 431.137 145.439 430.888 145.827 430.72C146.214 430.551 146.615 430.467 147.03 430.467C147.558 430.467 148.014 430.558 148.397 430.74C148.784 430.923 149.101 431.178 149.347 431.506C149.593 431.829 149.776 432.212 149.894 432.654C150.013 433.092 150.072 433.57 150.072 434.09V434.657H144.548V433.625H148.807V433.529C148.789 433.201 148.721 432.882 148.602 432.572C148.488 432.262 148.306 432.007 148.055 431.807C147.805 431.606 147.463 431.506 147.03 431.506C146.743 431.506 146.478 431.567 146.237 431.69C145.995 431.809 145.788 431.987 145.615 432.224C145.442 432.461 145.307 432.75 145.211 433.092C145.116 433.434 145.068 433.828 145.068 434.274V434.562C145.068 434.912 145.116 435.243 145.211 435.553C145.312 435.858 145.455 436.127 145.642 436.359C145.834 436.592 146.064 436.774 146.333 436.906C146.606 437.038 146.916 437.104 147.262 437.104C147.709 437.104 148.087 437.013 148.397 436.831C148.707 436.649 148.978 436.405 149.21 436.1L149.976 436.708C149.817 436.95 149.614 437.18 149.368 437.398C149.122 437.617 148.819 437.795 148.459 437.932C148.103 438.068 147.682 438.137 147.194 438.137ZM152.806 432.073V438H151.535V430.604H152.738L152.806 432.073ZM152.546 434.021L151.959 434.001C151.963 433.495 152.029 433.028 152.157 432.6C152.284 432.167 152.474 431.791 152.724 431.472C152.975 431.153 153.287 430.907 153.661 430.733C154.034 430.556 154.467 430.467 154.96 430.467C155.306 430.467 155.625 430.517 155.917 430.617C156.208 430.713 156.461 430.866 156.675 431.075C156.89 431.285 157.056 431.554 157.174 431.882C157.293 432.21 157.352 432.606 157.352 433.071V438H156.087V433.133C156.087 432.745 156.021 432.436 155.889 432.203C155.762 431.971 155.579 431.802 155.342 431.697C155.105 431.588 154.827 431.533 154.508 431.533C154.135 431.533 153.822 431.599 153.572 431.731C153.321 431.864 153.121 432.046 152.97 432.278C152.82 432.511 152.71 432.777 152.642 433.078C152.578 433.374 152.546 433.689 152.546 434.021ZM157.338 433.324L156.491 433.584C156.495 433.178 156.561 432.789 156.689 432.415C156.821 432.041 157.01 431.709 157.256 431.417C157.507 431.125 157.815 430.895 158.179 430.727C158.544 430.553 158.961 430.467 159.43 430.467C159.827 430.467 160.178 430.519 160.483 430.624C160.793 430.729 161.053 430.891 161.262 431.109C161.476 431.324 161.638 431.599 161.748 431.937C161.857 432.274 161.912 432.675 161.912 433.14V438H160.64V433.126C160.64 432.711 160.574 432.39 160.442 432.162C160.314 431.93 160.132 431.768 159.895 431.677C159.663 431.581 159.385 431.533 159.061 431.533C158.783 431.533 158.537 431.581 158.323 431.677C158.109 431.772 157.929 431.905 157.783 432.073C157.637 432.237 157.525 432.426 157.448 432.641C157.375 432.855 157.338 433.083 157.338 433.324ZM171.824 436.291V430.604H173.095V438H171.885L171.824 436.291ZM172.063 434.732L172.589 434.719C172.589 435.211 172.537 435.667 172.432 436.086C172.332 436.501 172.168 436.861 171.94 437.166C171.712 437.471 171.414 437.711 171.044 437.884C170.675 438.052 170.226 438.137 169.698 438.137C169.338 438.137 169.007 438.084 168.707 437.979C168.41 437.875 168.155 437.713 167.941 437.494C167.727 437.275 167.56 436.991 167.442 436.64C167.328 436.289 167.271 435.867 167.271 435.375V430.604H168.536V435.389C168.536 435.721 168.572 435.997 168.645 436.216C168.723 436.43 168.825 436.601 168.953 436.729C169.085 436.852 169.231 436.938 169.39 436.988C169.554 437.038 169.723 437.063 169.896 437.063C170.434 437.063 170.86 436.961 171.174 436.756C171.489 436.546 171.714 436.266 171.851 435.915C171.992 435.56 172.063 435.165 172.063 434.732ZM176.281 432.073V438H175.009V430.604H176.212L176.281 432.073ZM176.021 434.021L175.433 434.001C175.438 433.495 175.504 433.028 175.631 432.6C175.759 432.167 175.948 431.791 176.199 431.472C176.449 431.153 176.762 430.907 177.135 430.733C177.509 430.556 177.942 430.467 178.434 430.467C178.78 430.467 179.099 430.517 179.391 430.617C179.683 430.713 179.936 430.866 180.15 431.075C180.364 431.285 180.53 431.554 180.649 431.882C180.767 432.21 180.827 432.606 180.827 433.071V438H179.562V433.133C179.562 432.745 179.496 432.436 179.364 432.203C179.236 431.971 179.054 431.802 178.817 431.697C178.58 431.588 178.302 431.533 177.983 431.533C177.609 431.533 177.297 431.599 177.046 431.731C176.796 431.864 176.595 432.046 176.445 432.278C176.294 432.511 176.185 432.777 176.117 433.078C176.053 433.374 176.021 433.689 176.021 434.021ZM180.813 433.324L179.965 433.584C179.97 433.178 180.036 432.789 180.164 432.415C180.296 432.041 180.485 431.709 180.731 431.417C180.982 431.125 181.289 430.895 181.654 430.727C182.018 430.553 182.435 430.467 182.905 430.467C183.301 430.467 183.652 430.519 183.958 430.624C184.267 430.729 184.527 430.891 184.737 431.109C184.951 431.324 185.113 431.599 185.222 431.937C185.332 432.274 185.386 432.675 185.386 433.14V438H184.115V433.126C184.115 432.711 184.049 432.39 183.917 432.162C183.789 431.93 183.607 431.768 183.37 431.677C183.137 431.581 182.859 431.533 182.536 431.533C182.258 431.533 182.012 431.581 181.797 431.677C181.583 431.772 181.403 431.905 181.257 432.073C181.112 432.237 181 432.426 180.922 432.641C180.849 432.855 180.813 433.083 180.813 433.324ZM191.662 436.735V432.928C191.662 432.636 191.602 432.383 191.484 432.169C191.37 431.95 191.197 431.782 190.964 431.663C190.732 431.545 190.445 431.485 190.103 431.485C189.784 431.485 189.504 431.54 189.262 431.649C189.025 431.759 188.838 431.902 188.702 432.08C188.57 432.258 188.503 432.449 188.503 432.654H187.239C187.239 432.39 187.307 432.128 187.444 431.868C187.581 431.608 187.777 431.374 188.032 431.164C188.292 430.95 188.601 430.781 188.961 430.658C189.326 430.531 189.732 430.467 190.178 430.467C190.716 430.467 191.19 430.558 191.6 430.74C192.015 430.923 192.338 431.198 192.571 431.567C192.808 431.932 192.926 432.39 192.926 432.941V436.387C192.926 436.633 192.947 436.895 192.988 437.173C193.033 437.451 193.099 437.69 193.186 437.891V438H191.867C191.803 437.854 191.753 437.66 191.716 437.419C191.68 437.173 191.662 436.945 191.662 436.735ZM191.88 433.516L191.894 434.404H190.616C190.256 434.404 189.934 434.434 189.652 434.493C189.369 434.548 189.132 434.632 188.941 434.746C188.75 434.86 188.604 435.004 188.503 435.177C188.403 435.345 188.353 435.544 188.353 435.771C188.353 436.004 188.405 436.216 188.51 436.407C188.615 436.599 188.772 436.751 188.982 436.865C189.196 436.975 189.458 437.029 189.768 437.029C190.155 437.029 190.497 436.947 190.793 436.783C191.09 436.619 191.324 436.419 191.498 436.182C191.675 435.945 191.771 435.715 191.785 435.491L192.325 436.1C192.293 436.291 192.206 436.503 192.065 436.735C191.924 436.968 191.735 437.191 191.498 437.405C191.265 437.615 190.987 437.79 190.664 437.932C190.345 438.068 189.985 438.137 189.584 438.137C189.082 438.137 188.642 438.039 188.264 437.843C187.89 437.647 187.599 437.385 187.389 437.057C187.184 436.724 187.082 436.353 187.082 435.942C187.082 435.546 187.159 435.197 187.314 434.896C187.469 434.591 187.692 434.338 187.984 434.138C188.276 433.933 188.626 433.778 189.037 433.673C189.447 433.568 189.905 433.516 190.411 433.516H191.88ZM201.348 437.098C201.649 437.098 201.927 437.036 202.182 436.913C202.437 436.79 202.647 436.621 202.811 436.407C202.975 436.188 203.069 435.94 203.091 435.662H204.294C204.272 436.1 204.124 436.507 203.85 436.886C203.581 437.259 203.228 437.562 202.791 437.795C202.353 438.023 201.872 438.137 201.348 438.137C200.792 438.137 200.307 438.039 199.892 437.843C199.482 437.647 199.14 437.378 198.867 437.036C198.598 436.694 198.395 436.302 198.258 435.86C198.126 435.414 198.06 434.942 198.06 434.445V434.158C198.06 433.661 198.126 433.192 198.258 432.75C198.395 432.303 198.598 431.909 198.867 431.567C199.14 431.226 199.482 430.957 199.892 430.761C200.307 430.565 200.792 430.467 201.348 430.467C201.927 430.467 202.433 430.585 202.866 430.822C203.299 431.055 203.638 431.374 203.884 431.779C204.135 432.18 204.272 432.636 204.294 433.146H203.091C203.069 432.841 202.982 432.565 202.832 432.319C202.686 432.073 202.485 431.877 202.23 431.731C201.979 431.581 201.685 431.506 201.348 431.506C200.961 431.506 200.635 431.583 200.371 431.738C200.111 431.889 199.904 432.094 199.749 432.354C199.598 432.609 199.489 432.894 199.42 433.208C199.357 433.518 199.325 433.835 199.325 434.158V434.445C199.325 434.769 199.357 435.088 199.42 435.402C199.484 435.717 199.591 436.002 199.742 436.257C199.897 436.512 200.104 436.717 200.364 436.872C200.628 437.022 200.956 437.098 201.348 437.098ZM205.381 434.384V434.227C205.381 433.693 205.459 433.199 205.614 432.743C205.769 432.283 205.992 431.884 206.284 431.547C206.575 431.205 206.929 430.941 207.343 430.754C207.758 430.562 208.223 430.467 208.738 430.467C209.257 430.467 209.724 430.562 210.139 430.754C210.558 430.941 210.914 431.205 211.206 431.547C211.502 431.884 211.727 432.283 211.882 432.743C212.037 433.199 212.115 433.693 212.115 434.227V434.384C212.115 434.917 212.037 435.411 211.882 435.867C211.727 436.323 211.502 436.722 211.206 437.063C210.914 437.401 210.561 437.665 210.146 437.856C209.736 438.043 209.271 438.137 208.751 438.137C208.232 438.137 207.765 438.043 207.35 437.856C206.935 437.665 206.58 437.401 206.284 437.063C205.992 436.722 205.769 436.323 205.614 435.867C205.459 435.411 205.381 434.917 205.381 434.384ZM206.646 434.227V434.384C206.646 434.753 206.689 435.102 206.776 435.43C206.862 435.753 206.992 436.04 207.166 436.291C207.343 436.542 207.564 436.74 207.829 436.886C208.093 437.027 208.401 437.098 208.751 437.098C209.098 437.098 209.401 437.027 209.661 436.886C209.925 436.74 210.144 436.542 210.317 436.291C210.49 436.04 210.62 435.753 210.707 435.43C210.798 435.102 210.843 434.753 210.843 434.384V434.227C210.843 433.862 210.798 433.518 210.707 433.194C210.62 432.866 210.488 432.577 210.31 432.326C210.137 432.071 209.918 431.87 209.654 431.725C209.394 431.579 209.089 431.506 208.738 431.506C208.391 431.506 208.086 431.579 207.822 431.725C207.562 431.87 207.343 432.071 207.166 432.326C206.992 432.577 206.862 432.866 206.776 433.194C206.689 433.518 206.646 433.862 206.646 434.227ZM214.965 432.183V438H213.701V430.604H214.897L214.965 432.183ZM214.665 434.021L214.138 434.001C214.143 433.495 214.218 433.028 214.364 432.6C214.51 432.167 214.715 431.791 214.979 431.472C215.243 431.153 215.558 430.907 215.922 430.733C216.292 430.556 216.699 430.467 217.146 430.467C217.511 430.467 217.839 430.517 218.13 430.617C218.422 430.713 218.67 430.868 218.876 431.082C219.085 431.296 219.245 431.574 219.354 431.916C219.463 432.253 219.518 432.666 219.518 433.153V438H218.247V433.14C218.247 432.752 218.19 432.442 218.076 432.21C217.962 431.973 217.795 431.802 217.577 431.697C217.358 431.588 217.089 431.533 216.77 431.533C216.456 431.533 216.168 431.599 215.909 431.731C215.654 431.864 215.432 432.046 215.246 432.278C215.063 432.511 214.92 432.777 214.815 433.078C214.715 433.374 214.665 433.689 214.665 434.021ZM224.536 430.604V431.574H220.537V430.604H224.536ZM221.89 428.806H223.155V436.168C223.155 436.419 223.194 436.608 223.271 436.735C223.349 436.863 223.449 436.947 223.572 436.988C223.695 437.029 223.827 437.05 223.968 437.05C224.073 437.05 224.182 437.041 224.296 437.022C224.415 437 224.504 436.981 224.563 436.968L224.57 438C224.47 438.032 224.337 438.062 224.173 438.089C224.014 438.121 223.82 438.137 223.592 438.137C223.282 438.137 222.998 438.075 222.738 437.952C222.478 437.829 222.271 437.624 222.116 437.337C221.965 437.045 221.89 436.653 221.89 436.161V428.806ZM230.38 436.735V432.928C230.38 432.636 230.321 432.383 230.203 432.169C230.089 431.95 229.916 431.782 229.683 431.663C229.451 431.545 229.164 431.485 228.822 431.485C228.503 431.485 228.223 431.54 227.981 431.649C227.744 431.759 227.557 431.902 227.42 432.08C227.288 432.258 227.222 432.449 227.222 432.654H225.958C225.958 432.39 226.026 432.128 226.163 431.868C226.299 431.608 226.495 431.374 226.751 431.164C227.01 430.95 227.32 430.781 227.68 430.658C228.045 430.531 228.45 430.467 228.897 430.467C229.435 430.467 229.909 430.558 230.319 430.74C230.734 430.923 231.057 431.198 231.29 431.567C231.527 431.932 231.645 432.39 231.645 432.941V436.387C231.645 436.633 231.666 436.895 231.707 437.173C231.752 437.451 231.818 437.69 231.905 437.891V438H230.585C230.522 437.854 230.472 437.66 230.435 437.419C230.399 437.173 230.38 436.945 230.38 436.735ZM230.599 433.516L230.613 434.404H229.335C228.974 434.404 228.653 434.434 228.371 434.493C228.088 434.548 227.851 434.632 227.66 434.746C227.468 434.86 227.322 435.004 227.222 435.177C227.122 435.345 227.072 435.544 227.072 435.771C227.072 436.004 227.124 436.216 227.229 436.407C227.334 436.599 227.491 436.751 227.701 436.865C227.915 436.975 228.177 437.029 228.487 437.029C228.874 437.029 229.216 436.947 229.512 436.783C229.808 436.619 230.043 436.419 230.216 436.182C230.394 435.945 230.49 435.715 230.503 435.491L231.043 436.1C231.012 436.291 230.925 436.503 230.784 436.735C230.642 436.968 230.453 437.191 230.216 437.405C229.984 437.615 229.706 437.79 229.382 437.932C229.063 438.068 228.703 438.137 228.302 438.137C227.801 438.137 227.361 438.039 226.983 437.843C226.609 437.647 226.318 437.385 226.108 437.057C225.903 436.724 225.8 436.353 225.8 435.942C225.8 435.546 225.878 435.197 226.033 434.896C226.188 434.591 226.411 434.338 226.703 434.138C226.994 433.933 227.345 433.778 227.755 433.673C228.166 433.568 228.624 433.516 229.129 433.516H230.599ZM236.382 435.197H235.111C235.115 434.76 235.154 434.402 235.227 434.124C235.305 433.841 235.43 433.584 235.603 433.352C235.776 433.119 236.006 432.855 236.293 432.559C236.503 432.344 236.695 432.144 236.868 431.957C237.045 431.766 237.189 431.561 237.298 431.342C237.408 431.118 237.462 430.852 237.462 430.542C237.462 430.228 237.405 429.956 237.292 429.729C237.182 429.501 237.018 429.325 236.799 429.202C236.585 429.079 236.319 429.018 236 429.018C235.735 429.018 235.485 429.065 235.248 429.161C235.011 429.257 234.819 429.405 234.673 429.605C234.528 429.801 234.452 430.059 234.448 430.378H233.183C233.192 429.863 233.32 429.421 233.566 429.052C233.817 428.683 234.154 428.4 234.578 428.204C235.001 428.008 235.475 427.91 236 427.91C236.578 427.91 237.071 428.015 237.476 428.225C237.886 428.434 238.198 428.735 238.413 429.127C238.627 429.514 238.734 429.975 238.734 430.508C238.734 430.918 238.65 431.296 238.481 431.643C238.317 431.984 238.105 432.306 237.845 432.606C237.585 432.907 237.31 433.194 237.018 433.468C236.767 433.7 236.599 433.962 236.512 434.254C236.426 434.546 236.382 434.86 236.382 435.197ZM235.056 437.364C235.056 437.159 235.12 436.986 235.248 436.845C235.375 436.703 235.56 436.633 235.801 436.633C236.047 436.633 236.234 436.703 236.362 436.845C236.489 436.986 236.553 437.159 236.553 437.364C236.553 437.56 236.489 437.729 236.362 437.87C236.234 438.011 236.047 438.082 235.801 438.082C235.56 438.082 235.375 438.011 235.248 437.87C235.12 437.729 235.056 437.56 235.056 437.364Z" fill="#1D1D1D" fill-opacity="0.6"/>
</g>
<defs>
<clipPath id="clip0_402_4">
<rect width="382" height="640" fill="white"/>
</clipPath>
</defs>
</svg>
