<svg width="1000" height="640" viewBox="0 0 1000 640" fill="none" xmlns="http://www.w3.org/2000/svg">
    <g clip-path="url(#clip0_288_516)">
        <rect width="1000" height="640" fill="white"/>
        <path d="M201.882 773.899C153.849 762.841 78.3686 790.341 80.0269 741.009C80.6824 721.508 86.6567 709.021 100.768 695.569C130.673 667.06 164.173 714.312 205.338 711.148C258.333 707.075 285.22 637.693 332.378 662.246C354.971 674.009 369.924 686.285 375.589 711.148C385.07 752.753 345.134 780.703 304.723 794.239C265.899 807.243 241.779 783.084 201.882 773.899Z" fill="#0C7D81"/>
        <path d="M770.068 635.382C824.59 557.011 748.992 411.069 844.068 402.382C944.67 393.191 954.121 551.935 924.068 648.382C883.594 778.268 544.852 900.719 600.068 776.382C635.074 697.553 720.809 706.186 770.068 635.382Z" fill="#0469B1"/>
        <path d="M786.004 332.187C797.209 289.91 770.762 242.98 809.504 222.687C859.225 196.643 889.878 315.608 854.504 359.187C832.36 386.468 784.004 420.692 769.504 388.687C760.019 367.749 780.116 354.406 786.004 332.187Z" fill="#F9BB0D"/>
        <path d="M995.67 80.7739C955.12 60.8627 945.157 6.92767 900.67 14.7739C840.786 25.3355 862.44 109.904 877.67 168.774C896.967 243.37 938.141 308.388 1015.17 310.274C1075.67 311.755 1146.33 288.793 1146.67 228.274C1146.81 203.568 1125.35 193.48 1125.17 168.774C1125.02 148.737 1140.02 139.265 1138.67 119.274C1134.76 61.5725 1047.58 106.265 995.67 80.7739Z" fill="#E30140"/>
        <circle cx="963" cy="166" r="4" fill="#51001A"/>
        <path d="M985 182.501C999.155 164.911 1007.39 165.919 1022.5 182.501" stroke="#51001A" stroke-width="7" stroke-linecap="round"/>
        <path d="M576.658 81.4834C551.33 76.736 528.113 92.8899 511.158 73.4834C498.105 58.5423 500.875 43.2819 502.158 23.4834C505.955 -35.0822 558.427 -88.0125 615.658 -75.0166C666.118 -63.5584 691.797 -13.8956 685.658 37.4834C682.312 65.49 678.45 89.4978 653.158 101.983C625.424 115.675 607.058 87.1814 576.658 81.4834Z" fill="#0C7D81"/>
        <path d="M82.151 161.01C116.218 147.894 153.67 171.593 173.438 140.905C200.048 99.5959 138.011 66.014 94.7417 42.7289C39.9131 13.2235 -21.2448 1.94875 -64.6471 46.5916C-98.7374 81.6564 -123.906 136.159 -88.2065 169.584C-73.6327 183.23 -55.8695 176.04 -41.1207 189.497C-29.1596 200.41 -31.7758 214.503 -19.1779 224.675C17.184 254.032 38.5379 177.801 82.151 161.01Z" fill="#E30140"/>
        <circle cx="1.84859" cy="78.0551" r="3.2323" transform="rotate(42.8335 1.84859 78.0551)" fill="#51001A"/>
        <circle cx="50.4409" cy="123.105" r="3.2323" transform="rotate(42.8335 50.4409 123.105)" fill="#51001A"/>
        <path d="M-30.4045 102.147L-19.4758 102.001C-19.0139 101.994 -18.6079 102.305 -18.4935 102.753L-15.1654 115.773C-15.0639 116.171 -14.7302 116.466 -14.3235 116.518L-2.06494 118.087C-1.57239 118.15 -1.20073 118.565 -1.19209 119.062L-0.979975 131.245C-0.970694 131.778 -0.54484 132.21 -0.0119623 132.227L10.2632 132.555C10.8464 132.573 11.2899 133.085 11.2252 133.665L10.2131 142.739C10.1389 143.404 10.7269 143.953 11.3857 143.833L22.7513 141.769C23.3807 141.654 23.9542 142.152 23.9293 142.792L23.3975 156.435" stroke="#51001A" stroke-width="7" stroke-linecap="round"/>
        <path d="M-14.4324 726.208C-67.4495 652.007 -118.181 493.576 -26.9882 493.026C7.56375 492.818 21.1046 519.884 55.1087 526.016C106.932 535.362 153.256 468.954 188.725 507.876C218.711 540.783 184.33 577.313 185.239 621.824C186.772 696.875 256.873 758.063 205.67 812.955C142.649 880.515 39.2795 801.38 -14.4324 726.208Z" fill="#EE75A7"/>
        <circle cx="15" cy="609" r="4" fill="#932050"/>
        <circle cx="156" cy="605" r="4" fill="#932050"/>
        <path d="M-26.1654 289.003C-57.7886 294.582 -78.341 310.35 -90.6654 340.003C-114.363 397.018 -35.9406 435.115 24.3346 448.503C79.7396 460.808 159.957 466.089 164.335 409.503C168.206 359.456 106.583 355.482 63.3346 330.003C30.211 310.488 11.6947 282.323 -26.1654 289.003Z" fill="#9C9B9B"/>
        <circle cx="76" cy="380" r="4" fill="#303636"/>
        <path d="M16 396.501C30.1548 378.911 38.3936 379.919 53.5 396.501" stroke="#303636" stroke-width="7" stroke-linecap="round"/>
        <path d="M348.545 146.064C313.395 152.261 295.51 107.098 261.545 118.064C208.819 135.086 302.642 222.604 358.045 222.064C399.637 221.659 446.54 203.655 446.045 162.064C445.739 136.38 436.157 113.416 411.545 106.064C383.621 97.7225 377.245 141.004 348.545 146.064Z" fill="#EE75A7"/>
        <path d="M333 186H374" stroke="#932050" stroke-width="7" stroke-linecap="round"/>
        <circle cx="322" cy="163" r="4" fill="#932050"/>
        <circle cx="370" cy="163" r="4" fill="#932050"/>
        <circle cx="556" cy="4" r="4" fill="#053638"/>
        <circle cx="638" cy="4" r="4" fill="#053638"/>
        <path d="M578 20.5008C592.155 2.91117 600.394 3.91863 615.5 20.5008" stroke="#053638" stroke-width="7" stroke-linecap="round"/>
        <path d="M802 325.17C802 325.17 809.002 319.206 814.5 318.17C824.713 316.245 828.243 331.345 838.5 329.67C846.252 328.404 855 318.17 855 318.17" stroke="#906804" stroke-width="7" stroke-linecap="round"/>
        <circle cx="809" cy="292" r="4" fill="#906804"/>
        <circle cx="842" cy="292" r="4" fill="#906804"/>
        <path d="M836 584C836 610 870 614.5 870 584" stroke="#022F50" stroke-width="7" stroke-linecap="round"/>
        <circle cx="838" cy="564" r="4" fill="#022F50"/>
        <circle cx="867" cy="564" r="4" fill="#022F50"/>
        <circle cx="427" cy="55" r="7" fill="#EE75A7"/>
        <circle cx="769" cy="31" r="7" fill="#00A265"/>
        <circle cx="781" cy="128" r="7" fill="#F9BB0D"/>
        <circle cx="934" cy="317" r="7" fill="#E30140"/>
        <circle cx="987" cy="536" r="7" fill="#0469B1"/>
        <circle cx="96.7418" cy="644.443" r="7" transform="rotate(-34.7594 96.7418 644.443)" fill="#EE75A7"/>
        <circle cx="61.7418" cy="476.443" r="7" transform="rotate(-34.7594 61.7418 476.443)" fill="#9C9B9B"/>
        <circle cx="61.7418" cy="355.443" r="7" transform="rotate(-34.7594 61.7418 355.443)" fill="#9C9B9B"/>
        <circle cx="139.742" cy="54.4431" r="7" transform="rotate(-34.7594 139.742 54.4431)" fill="#E30140"/>
        <circle cx="987" cy="598" r="7" fill="#0469B1"/>
        <rect x="363" y="85" width="274" height="470" rx="12" fill="white"/>
        <rect x="380" y="102" width="240" height="33" rx="7" fill="#F7F7F7"/>
        <rect x="380" y="102" width="240" height="33" rx="7" stroke="#E6E6E6" stroke-width="2"/>
        <rect x="380" y="147" width="240" height="33" rx="7" fill="#F7F7F7"/>
        <rect x="380" y="147" width="240" height="33" rx="7" stroke="#E6E6E6" stroke-width="2"/>
        <rect x="380" y="192" width="240" height="33" rx="7" fill="#F7F7F7"/>
        <rect x="380" y="192" width="240" height="33" rx="7" stroke="#E6E6E6" stroke-width="2"/>
        <rect x="380" y="237" width="240" height="33" rx="7" fill="#F7F7F7"/>
        <rect x="380" y="237" width="240" height="33" rx="7" stroke="#E6E6E6" stroke-width="2"/>
        <rect x="380" y="282" width="240" height="33" rx="7" fill="#F7F7F7"/>
        <rect x="380" y="282" width="240" height="33" rx="7" stroke="#E6E6E6" stroke-width="2"/>
        <rect x="380" y="327" width="240" height="33" rx="7" fill="#F7F7F7"/>
        <rect x="380" y="327" width="240" height="33" rx="7" stroke="#E6E6E6" stroke-width="2"/>
        <rect x="380" y="372" width="240" height="33" rx="7" fill="#F7F7F7"/>
        <rect x="380" y="372" width="240" height="33" rx="7" stroke="#E6E6E6" stroke-width="2"/>
        <rect x="380" y="417" width="240" height="33" rx="7" fill="#F7F7F7"/>
        <rect x="380" y="417" width="240" height="33" rx="7" stroke="#E6E6E6" stroke-width="2"/>
        <rect x="380" y="462" width="240" height="33" rx="7" fill="#F7F7F7"/>
        <rect x="380" y="462" width="240" height="33" rx="7" stroke="#E6E6E6" stroke-width="2"/>
        <path d="M456.148 523.227H458.484C458.438 523.992 458.227 524.672 457.852 525.266C457.482 525.859 456.964 526.323 456.297 526.656C455.635 526.99 454.839 527.156 453.906 527.156C453.177 527.156 452.523 527.031 451.945 526.781C451.367 526.526 450.872 526.161 450.461 525.688C450.055 525.214 449.745 524.641 449.531 523.969C449.318 523.297 449.211 522.544 449.211 521.711V520.922C449.211 520.089 449.32 519.336 449.539 518.664C449.763 517.987 450.081 517.411 450.492 516.938C450.909 516.464 451.406 516.099 451.984 515.844C452.562 515.589 453.208 515.461 453.922 515.461C454.87 515.461 455.669 515.633 456.32 515.977C456.977 516.32 457.484 516.794 457.844 517.398C458.208 518.003 458.427 518.69 458.5 519.461H456.156C456.13 519.003 456.039 518.615 455.883 518.297C455.727 517.974 455.49 517.732 455.172 517.57C454.859 517.404 454.443 517.32 453.922 517.32C453.531 517.32 453.19 517.393 452.898 517.539C452.607 517.685 452.362 517.906 452.164 518.203C451.966 518.5 451.818 518.875 451.719 519.328C451.625 519.776 451.578 520.302 451.578 520.906V521.711C451.578 522.299 451.622 522.818 451.711 523.266C451.799 523.708 451.935 524.083 452.117 524.391C452.305 524.693 452.544 524.922 452.836 525.078C453.133 525.229 453.49 525.305 453.906 525.305C454.396 525.305 454.799 525.227 455.117 525.07C455.435 524.914 455.677 524.682 455.844 524.375C456.016 524.068 456.117 523.685 456.148 523.227ZM460.023 515.625H464.266C465.135 515.625 465.883 515.755 466.508 516.016C467.138 516.276 467.622 516.661 467.961 517.172C468.299 517.682 468.469 518.31 468.469 519.055C468.469 519.664 468.365 520.188 468.156 520.625C467.953 521.057 467.664 521.419 467.289 521.711C466.919 521.997 466.484 522.227 465.984 522.398L465.242 522.789H461.555L461.539 520.961H464.281C464.693 520.961 465.034 520.888 465.305 520.742C465.576 520.596 465.779 520.393 465.914 520.133C466.055 519.872 466.125 519.57 466.125 519.227C466.125 518.862 466.057 518.547 465.922 518.281C465.786 518.016 465.581 517.812 465.305 517.672C465.029 517.531 464.682 517.461 464.266 517.461H462.367V527H460.023V515.625ZM466.383 527L463.789 521.93L466.266 521.914L468.891 526.891V527H466.383ZM472.766 515.625V527H470.43V515.625H472.766ZM479.727 517.57L476.633 527H474.141L478.367 515.625H479.953L479.727 517.57ZM482.297 527L479.195 517.57L478.945 515.625H480.547L484.797 527H482.297ZM482.156 522.766V524.602H476.148V522.766H482.156ZM485.852 515.625H490.094C490.964 515.625 491.711 515.755 492.336 516.016C492.966 516.276 493.451 516.661 493.789 517.172C494.128 517.682 494.297 518.31 494.297 519.055C494.297 519.664 494.193 520.188 493.984 520.625C493.781 521.057 493.492 521.419 493.117 521.711C492.747 521.997 492.312 522.227 491.812 522.398L491.07 522.789H487.383L487.367 520.961H490.109C490.521 520.961 490.862 520.888 491.133 520.742C491.404 520.596 491.607 520.393 491.742 520.133C491.883 519.872 491.953 519.57 491.953 519.227C491.953 518.862 491.885 518.547 491.75 518.281C491.615 518.016 491.409 517.812 491.133 517.672C490.857 517.531 490.51 517.461 490.094 517.461H488.195V527H485.852V515.625ZM492.211 527L489.617 521.93L492.094 521.914L494.719 526.891V527H492.211ZM506.68 523.227H509.016C508.969 523.992 508.758 524.672 508.383 525.266C508.013 525.859 507.495 526.323 506.828 526.656C506.167 526.99 505.37 527.156 504.438 527.156C503.708 527.156 503.055 527.031 502.477 526.781C501.898 526.526 501.404 526.161 500.992 525.688C500.586 525.214 500.276 524.641 500.062 523.969C499.849 523.297 499.742 522.544 499.742 521.711V520.922C499.742 520.089 499.852 519.336 500.07 518.664C500.294 517.987 500.612 517.411 501.023 516.938C501.44 516.464 501.938 516.099 502.516 515.844C503.094 515.589 503.74 515.461 504.453 515.461C505.401 515.461 506.201 515.633 506.852 515.977C507.508 516.32 508.016 516.794 508.375 517.398C508.74 518.003 508.958 518.69 509.031 519.461H506.688C506.661 519.003 506.57 518.615 506.414 518.297C506.258 517.974 506.021 517.732 505.703 517.57C505.391 517.404 504.974 517.32 504.453 517.32C504.062 517.32 503.721 517.393 503.43 517.539C503.138 517.685 502.893 517.906 502.695 518.203C502.497 518.5 502.349 518.875 502.25 519.328C502.156 519.776 502.109 520.302 502.109 520.906V521.711C502.109 522.299 502.154 522.818 502.242 523.266C502.331 523.708 502.466 524.083 502.648 524.391C502.836 524.693 503.076 524.922 503.367 525.078C503.664 525.229 504.021 525.305 504.438 525.305C504.927 525.305 505.331 525.227 505.648 525.07C505.966 524.914 506.208 524.682 506.375 524.375C506.547 524.068 506.648 523.685 506.68 523.227ZM519.898 521.047V521.586C519.898 522.451 519.781 523.227 519.547 523.914C519.312 524.602 518.982 525.188 518.555 525.672C518.128 526.151 517.617 526.518 517.023 526.773C516.435 527.029 515.781 527.156 515.062 527.156C514.349 527.156 513.695 527.029 513.102 526.773C512.513 526.518 512.003 526.151 511.57 525.672C511.138 525.188 510.802 524.602 510.562 523.914C510.328 523.227 510.211 522.451 510.211 521.586V521.047C510.211 520.177 510.328 519.401 510.562 518.719C510.797 518.031 511.128 517.445 511.555 516.961C511.987 516.477 512.497 516.107 513.086 515.852C513.68 515.596 514.333 515.469 515.047 515.469C515.766 515.469 516.419 515.596 517.008 515.852C517.602 516.107 518.112 516.477 518.539 516.961C518.971 517.445 519.305 518.031 519.539 518.719C519.779 519.401 519.898 520.177 519.898 521.047ZM517.531 521.586V521.031C517.531 520.427 517.477 519.896 517.367 519.438C517.258 518.979 517.096 518.594 516.883 518.281C516.669 517.969 516.409 517.734 516.102 517.578C515.794 517.417 515.443 517.336 515.047 517.336C514.651 517.336 514.299 517.417 513.992 517.578C513.69 517.734 513.432 517.969 513.219 518.281C513.01 518.594 512.852 518.979 512.742 519.438C512.633 519.896 512.578 520.427 512.578 521.031V521.586C512.578 522.185 512.633 522.716 512.742 523.18C512.852 523.638 513.013 524.026 513.227 524.344C513.44 524.656 513.701 524.893 514.008 525.055C514.315 525.216 514.667 525.297 515.062 525.297C515.458 525.297 515.81 525.216 516.117 525.055C516.424 524.893 516.682 524.656 516.891 524.344C517.099 524.026 517.258 523.638 517.367 523.18C517.477 522.716 517.531 522.185 517.531 521.586ZM530.844 515.625V527H528.5L523.93 519.375V527H521.586V515.625H523.93L528.508 523.258V515.625H530.844ZM537.734 515.625V527H535.398V515.625H537.734ZM541.234 515.625V517.461H531.953V515.625H541.234ZM546.352 517.57L543.258 527H540.766L544.992 515.625H546.578L546.352 517.57ZM548.922 527L545.82 517.57L545.57 515.625H547.172L551.422 527H548.922ZM548.781 522.766V524.602H542.773V522.766H548.781Z" fill="white"/>
    </g>
    <defs>
        <clipPath id="clip0_288_516">
            <rect width="1000" height="640" fill="white"/>
        </clipPath>
    </defs>
</svg>
