<svg width="83" height="30" viewBox="0 0 83 30" fill="none" xmlns="http://www.w3.org/2000/svg">
<rect width="83" height="30" rx="12" fill="white"/>
<path d="M9.14206 18.888H12.7261V21H6.40606V9.768H9.14206V18.888ZM18.0951 21.128C17.2204 21.128 16.4311 20.9413 15.7271 20.568C15.0337 20.1947 14.4844 19.6613 14.0791 18.968C13.6844 18.2747 13.4871 17.464 13.4871 16.536C13.4871 15.6187 13.6897 14.8133 14.0951 14.12C14.5004 13.416 15.0551 12.8773 15.7591 12.504C16.4631 12.1307 17.2524 11.944 18.1271 11.944C19.0017 11.944 19.7911 12.1307 20.4951 12.504C21.1991 12.8773 21.7537 13.416 22.1591 14.12C22.5644 14.8133 22.7671 15.6187 22.7671 16.536C22.7671 17.4533 22.5591 18.264 22.1431 18.968C21.7377 19.6613 21.1777 20.1947 20.4631 20.568C19.7591 20.9413 18.9697 21.128 18.0951 21.128ZM18.0951 18.76C18.6177 18.76 19.0604 18.568 19.4231 18.184C19.7964 17.8 19.9831 17.2507 19.9831 16.536C19.9831 15.8213 19.8017 15.272 19.4391 14.888C19.0871 14.504 18.6497 14.312 18.1271 14.312C17.5937 14.312 17.1511 14.504 16.7991 14.888C16.4471 15.2613 16.2711 15.8107 16.2711 16.536C16.2711 17.2507 16.4417 17.8 16.7831 18.184C17.1351 18.568 17.5724 18.76 18.0951 18.76ZM27.6106 11.944C28.2399 11.944 28.7892 12.072 29.2586 12.328C29.7386 12.584 30.1066 12.92 30.3626 13.336V12.072H33.0986V20.984C33.0986 21.8053 32.9332 22.5467 32.6026 23.208C32.2826 23.88 31.7866 24.4133 31.1146 24.808C30.4532 25.2027 29.6266 25.4 28.6346 25.4C27.3119 25.4 26.2399 25.0853 25.4186 24.456C24.5972 23.8373 24.1279 22.9947 24.0106 21.928H26.7146C26.7999 22.2693 27.0026 22.536 27.3226 22.728C27.6426 22.9307 28.0372 23.032 28.5066 23.032C29.0719 23.032 29.5199 22.8667 29.8506 22.536C30.1919 22.216 30.3626 21.6987 30.3626 20.984V19.72C30.0959 20.136 29.7279 20.4773 29.2586 20.744C28.7892 21 28.2399 21.128 27.6106 21.128C26.8746 21.128 26.2079 20.9413 25.6106 20.568C25.0132 20.184 24.5386 19.6453 24.1866 18.952C23.8452 18.248 23.6746 17.4373 23.6746 16.52C23.6746 15.6027 23.8452 14.7973 24.1866 14.104C24.5386 13.4107 25.0132 12.8773 25.6106 12.504C26.2079 12.1307 26.8746 11.944 27.6106 11.944ZM30.3626 16.536C30.3626 15.8533 30.1706 15.3147 29.7866 14.92C29.4132 14.5253 28.9546 14.328 28.4106 14.328C27.8666 14.328 27.4026 14.5253 27.0186 14.92C26.6452 15.304 26.4586 15.8373 26.4586 16.52C26.4586 17.2027 26.6452 17.7467 27.0186 18.152C27.4026 18.5467 27.8666 18.744 28.4106 18.744C28.9546 18.744 29.4132 18.5467 29.7866 18.152C30.1706 17.7573 30.3626 17.2187 30.3626 16.536ZM36.4539 11.144C35.9739 11.144 35.5793 11.0053 35.2699 10.728C34.9713 10.44 34.8219 10.088 34.8219 9.672C34.8219 9.24533 34.9713 8.89333 35.2699 8.616C35.5793 8.328 35.9739 8.184 36.4539 8.184C36.9233 8.184 37.3073 8.328 37.6059 8.616C37.9153 8.89333 38.0699 9.24533 38.0699 9.672C38.0699 10.088 37.9153 10.44 37.6059 10.728C37.3073 11.0053 36.9233 11.144 36.4539 11.144ZM37.8139 12.072V21H35.0779V12.072H37.8139ZM45.2367 11.976C46.282 11.976 47.114 12.3173 47.7327 13C48.362 13.672 48.6767 14.6 48.6767 15.784V21H45.9567V16.152C45.9567 15.5547 45.802 15.0907 45.4927 14.76C45.1834 14.4293 44.7674 14.264 44.2447 14.264C43.722 14.264 43.306 14.4293 42.9967 14.76C42.6874 15.0907 42.5327 15.5547 42.5327 16.152V21H39.7967V12.072H42.5327V13.256C42.81 12.8613 43.1834 12.552 43.6527 12.328C44.122 12.0933 44.65 11.976 45.2367 11.976Z" fill="#E30140"/>
<path d="M57.3529 11.9504C58.0044 9.17301 60.173 7.00437 62.9504 6.35288C64.9563 5.88237 67.0437 5.88237 69.0496 6.35288C71.827 7.00437 73.9956 9.17301 74.6471 11.9504C75.1176 13.9563 75.1176 16.0437 74.6471 18.0496C73.9956 20.827 71.827 22.9956 69.0496 23.6471C67.0437 24.1176 64.9563 24.1176 62.9504 23.6471C60.173 22.9956 58.0044 20.827 57.3529 18.0496C56.8824 16.0437 56.8824 13.9563 57.3529 11.9504Z" stroke="#E30140" stroke-width="1.5"/>
<path d="M65 12.5L67.5 15L65 17.5" stroke="#E30140" stroke-width="1.5" stroke-linecap="round" stroke-linejoin="round"/>
</svg>
