<svg width="1920" height="640" viewBox="0 0 1920 640" fill="none" xmlns="http://www.w3.org/2000/svg">
<g clip-path="url(#clip0_524_99)">
<path d="M839.293 149.14C838.005 151.004 836.861 152.796 835.86 154.516C835.002 156.092 834.215 157.669 833.5 159.246C830.925 163.689 828.494 168.276 826.205 173.006C823.917 177.593 821.628 182.323 819.339 187.197C817.48 190.924 815.692 194.722 813.976 198.592C812.259 202.462 810.471 206.404 808.612 210.418C807.181 214.001 804.392 215.936 800.244 216.223C798.385 216.366 796.668 216.008 795.095 215.148C793.665 214.288 792.377 213.069 791.233 211.493C789.803 209.199 788.73 206.619 788.015 203.752C786.298 197.732 784.439 191.784 782.437 185.907C780.577 180.03 779.004 174.153 777.716 168.276C777.573 166.986 776.93 165.696 775.785 164.406C775.785 166.699 775.571 168.849 775.142 170.856C774.856 178.023 774.498 185.262 774.069 192.572C773.783 199.882 773.497 207.121 773.211 214.288C772.925 219.591 772.424 224.895 771.709 230.198C771.137 235.502 770.493 240.877 769.778 246.324C769.635 248.044 769.42 249.764 769.134 251.484C768.991 253.061 768.777 254.781 768.491 256.644C768.348 257.648 767.99 258.651 767.418 259.654C766.846 260.514 765.916 261.088 764.629 261.375C763.484 261.948 762.269 262.02 760.981 261.59C759.837 261.016 758.907 260.084 758.192 258.794C757.62 258.078 757.191 257.289 756.905 256.429C756.762 255.426 756.547 254.423 756.261 253.419C755.26 247.256 754.402 241.02 753.687 234.714C753.114 228.407 752.9 222.171 753.043 216.008C753.329 202.104 753.973 188.415 754.974 174.941C755.403 170.355 755.761 165.768 756.047 161.181C756.333 156.594 756.619 151.935 756.905 147.205C757.191 143.479 757.548 139.752 757.978 136.025C758.55 132.155 759.336 128.356 760.338 124.629C760.624 123.483 760.91 122.408 761.196 121.404C761.625 120.258 762.126 119.183 762.698 118.179C765.415 113.879 769.134 112.374 773.854 113.664C777.144 114.524 779.647 115.958 781.364 117.964C783.08 119.971 784.439 122.408 785.44 125.275C788.301 133.015 790.804 140.898 792.95 148.925C795.238 156.809 797.598 164.764 800.03 172.791C800.459 174.511 800.959 176.303 801.532 178.166C802.104 180.03 802.676 181.893 803.248 183.757C804.249 183.47 804.821 182.968 804.964 182.252C805.25 181.392 805.537 180.675 805.823 180.102C809.112 174.798 812.045 169.351 814.619 163.761C817.194 158.171 820.055 152.652 823.201 147.205C825.204 143.479 827.349 139.823 829.638 136.24C831.926 132.513 834.287 128.858 836.718 125.275C837.147 124.558 837.576 123.769 838.005 122.909C838.578 121.906 839.007 120.974 839.293 120.114C839.722 118.108 840.723 116.459 842.296 115.169C844.013 113.879 845.801 113.162 847.66 113.019C849.663 112.876 851.522 113.306 853.239 114.309C855.098 115.312 856.457 116.746 857.315 118.609C858.03 119.613 858.459 120.831 858.602 122.264C858.888 123.698 859.103 125.06 859.246 126.35C859.532 129.933 859.675 133.66 859.675 137.53C859.818 141.4 859.961 145.27 860.104 149.14C860.104 158.457 859.89 167.774 859.461 177.091C859.175 186.408 858.674 195.725 857.959 205.042C857.673 208.196 857.53 211.493 857.53 214.933C857.53 218.23 857.458 221.598 857.315 225.038C857.029 231.918 856.814 238.87 856.671 245.894C856.671 252.774 856.671 259.654 856.671 266.535C856.671 269.688 855.384 271.623 852.809 272.34C849.949 272.913 847.875 271.838 846.587 269.115C845.443 266.678 844.728 264.026 844.442 261.16C843.87 257.863 843.512 254.566 843.369 251.269C843.226 247.829 843.012 244.532 842.726 241.379C842.296 235.502 842.01 229.553 841.867 223.533C841.724 217.513 841.367 211.564 840.795 205.687C840.079 196.8 839.65 187.913 839.507 179.026C839.364 170.14 839.364 161.253 839.507 152.366C839.507 152.079 839.507 151.72 839.507 151.29C839.507 150.86 839.436 150.144 839.293 149.14Z" fill="url(#paint0_radial_524_99)"/>
<path d="M876.452 238.584C876.452 231.847 877.382 225.397 879.241 219.233C881.244 212.926 883.818 206.763 886.965 200.742C888.538 197.876 890.398 195.152 892.543 192.572C894.689 189.992 897.121 187.77 899.838 185.907C903.557 183.327 907.419 181.822 911.424 181.392C915.715 181.105 919.577 182.037 923.01 184.187C926.443 186.337 929.089 189.275 930.948 193.002C932.808 196.585 933.38 200.671 932.665 205.257C932.522 206.548 932.236 207.909 931.806 209.343C931.377 210.776 930.805 212.138 930.09 213.428C928.231 217.011 926.014 220.451 923.439 223.748C921.007 226.902 918.004 229.697 914.428 232.133C912.139 233.71 909.708 235.072 907.133 236.219C904.701 237.222 902.055 237.652 899.195 237.509C898.193 237.509 897.55 237.652 897.264 237.939C897.121 238.225 897.049 238.87 897.049 239.874C896.906 242.167 897.049 244.461 897.478 246.754C897.907 249.047 898.479 251.341 899.195 253.634C900.053 255.498 900.839 256.573 901.555 256.859C902.27 257.146 903.557 256.716 905.417 255.569C908.134 254.136 910.566 252.201 912.711 249.764C913.999 248.617 915.286 247.614 916.573 246.754C917.861 245.751 919.148 244.747 920.435 243.744C921.007 243.171 921.866 242.597 923.01 242.024C925.155 241.307 926.943 241.522 928.374 242.669C929.947 243.672 930.734 245.321 930.734 247.614C930.734 248.617 930.662 249.621 930.519 250.624C930.376 251.627 930.162 252.631 929.875 253.634C928.016 259.081 925.37 263.811 921.937 267.825C918.504 271.838 913.856 274.777 907.991 276.64C899.838 278.79 892.758 276.855 886.751 270.835C883.604 267.681 881.387 264.17 880.099 260.299C878.812 256.429 877.811 252.416 877.096 248.259C876.953 246.682 876.81 245.106 876.667 243.529C876.667 241.809 876.595 240.16 876.452 238.584ZM916.573 203.107C916.573 202.104 916.502 201.244 916.359 200.527C916.216 199.667 915.787 199.094 915.071 198.807C914.07 198.234 912.783 198.592 911.209 199.882C910.637 200.169 910.137 200.527 909.708 200.957C909.278 201.387 908.778 201.889 908.206 202.462C906.346 204.756 904.773 207.264 903.486 209.988C902.341 212.711 901.269 215.434 900.267 218.158C899.552 219.161 899.624 219.95 900.482 220.523C900.768 220.81 901.126 220.953 901.555 220.953C902.127 220.81 902.556 220.666 902.842 220.523C909.278 216.94 913.784 211.636 916.359 204.612C916.502 204.326 916.573 204.039 916.573 203.752C916.573 203.322 916.573 203.107 916.573 203.107Z" fill="url(#paint1_radial_524_99)"/>
<path d="M991.638 220.093C989.063 222.386 987.204 224.752 986.06 227.188C983.056 232.492 980.624 238.082 978.765 243.959C976.905 249.836 975.475 255.856 974.474 262.02C974.331 263.453 974.045 264.886 973.616 266.32C973.186 267.753 972.614 269.043 971.899 270.19C969.754 273.773 966.893 275.35 963.317 274.92C961.458 274.92 959.884 274.418 958.597 273.415C957.31 272.412 956.165 271.122 955.164 269.545C954.592 268.255 954.163 266.893 953.877 265.46C953.734 264.026 953.519 262.593 953.233 261.16C952.518 255.426 951.731 249.692 950.873 243.959C950.158 238.082 949.657 232.277 949.371 226.543C949.085 222.673 949.085 218.803 949.371 214.933C949.657 211.063 950.086 207.193 950.658 203.322C950.658 202.606 950.802 201.961 951.088 201.387C951.374 200.671 951.588 200.026 951.731 199.452C953.019 195.869 955.379 194.292 958.811 194.722C960.242 194.865 961.529 195.51 962.673 196.657C963.818 197.804 964.461 199.166 964.604 200.742C965.033 204.182 965.391 207.551 965.677 210.848C966.106 214.144 966.607 217.441 967.179 220.738C967.322 221.311 967.394 222.028 967.394 222.888C967.394 223.605 967.608 224.321 968.037 225.038C968.752 224.752 969.181 224.393 969.324 223.963C969.468 223.39 969.611 222.888 969.754 222.458C971.184 219.591 972.614 216.796 974.045 214.073C975.475 211.206 977.12 208.626 978.979 206.332C979.838 205.186 980.696 204.111 981.554 203.107C982.412 201.961 983.413 200.957 984.558 200.097C988.277 197.087 992.282 195.94 996.573 196.657C1000.86 197.23 1004.37 199.596 1007.09 203.752C1008.37 206.046 1009.37 208.483 1010.09 211.063C1010.8 213.499 1011.31 216.008 1011.59 218.588C1012.31 222.888 1012.88 227.26 1013.31 231.703C1013.88 236.004 1014.45 240.304 1015.02 244.604C1015.31 247.184 1015.67 249.764 1016.1 252.344C1016.67 254.781 1017.1 257.289 1017.38 259.869C1017.67 260.873 1018.03 261.733 1018.46 262.45C1018.89 263.166 1019.6 263.883 1020.6 264.6C1023.61 266.176 1024.54 268.685 1023.39 272.125C1022.1 275.708 1019.89 277.93 1016.74 278.79C1013.59 279.65 1010.59 278.933 1007.73 276.64C1006.44 275.493 1005.37 274.275 1004.51 272.985C1003.65 271.695 1002.87 270.333 1002.15 268.9C999.862 264.743 998.146 260.514 997.002 256.214C995.857 251.914 994.999 247.399 994.427 242.669C993.998 239.372 993.64 236.004 993.354 232.563C993.068 229.123 992.568 225.755 991.852 222.458C991.852 222.171 991.781 221.885 991.638 221.598C991.638 221.168 991.638 220.666 991.638 220.093Z" fill="url(#paint2_radial_524_99)"/>
<path d="M1057.26 267.61C1060.55 265.173 1063.12 262.593 1064.98 259.869C1067.56 256.286 1070.06 252.631 1072.49 248.904C1075.07 245.177 1077.28 241.307 1079.14 237.294C1079.29 236.72 1079.43 236.29 1079.57 236.004C1079.72 235.574 1079.79 235.144 1079.79 234.714C1079.93 231.703 1081.65 229.84 1084.94 229.123C1088.23 228.837 1090.66 230.055 1092.23 232.778C1093.09 233.782 1093.59 234.857 1093.73 236.004C1094.02 237.007 1094.16 238.154 1094.16 239.444C1093.59 247.041 1091.59 254.351 1088.15 261.375C1083.86 269.831 1078.14 276.855 1070.99 282.445C1069.42 283.735 1067.77 284.81 1066.06 285.67C1064.48 286.674 1062.69 287.39 1060.69 287.82C1057.12 288.681 1053.54 288.322 1049.96 286.745C1046.39 285.312 1043.53 283.019 1041.38 279.865C1040.09 277.715 1038.95 275.493 1037.95 273.2C1036.95 270.763 1036.09 268.326 1035.37 265.89C1033.52 260.586 1032.16 255.139 1031.3 249.549C1030.44 243.959 1029.65 238.369 1028.94 232.778C1027.79 224.752 1026.94 216.581 1026.36 208.268C1025.65 199.954 1025.29 191.64 1025.29 183.327C1025.29 181.75 1025.15 180.818 1024.86 180.532C1024.58 180.245 1023.57 180.245 1021.86 180.532C1020 180.962 1018.14 181.463 1016.28 182.037C1014.28 182.467 1012.27 182.825 1010.27 183.112C1007.84 183.685 1005.27 183.327 1002.55 182.037C999.974 180.46 998.543 178.31 998.257 175.586C997.971 172.72 998.829 170.283 1000.83 168.276C1002.83 166.556 1004.98 165.338 1007.27 164.621C1009.84 163.904 1012.42 163.188 1014.99 162.471C1017.42 161.754 1019.93 161.109 1022.5 160.536C1024.22 160.249 1025.29 159.962 1025.72 159.676C1026.01 159.246 1026.22 158.099 1026.36 156.236C1026.51 151.362 1026.94 146.56 1027.65 141.83C1028.22 136.957 1029.15 132.083 1030.44 127.21C1031.01 125.49 1031.51 123.769 1031.94 122.049C1032.51 120.186 1033.3 118.466 1034.3 116.889C1035.16 115.743 1036.02 114.739 1036.88 113.879C1037.73 112.876 1038.74 112.087 1039.88 111.514C1042.6 109.651 1045.6 109.507 1048.89 111.084C1050.32 112.087 1051.18 113.306 1051.47 114.739C1051.9 116.173 1051.97 117.678 1051.68 119.254C1051.39 122.408 1050.82 125.561 1049.96 128.715C1049.11 131.725 1048.53 134.878 1048.25 138.175C1047.96 140.898 1047.6 143.622 1047.17 146.345C1046.89 149.069 1046.6 151.864 1046.32 154.731C1046.32 156.021 1046.39 156.809 1046.53 157.096C1046.82 157.239 1047.68 157.311 1049.11 157.311C1051.97 157.311 1054.68 157.239 1057.26 157.096C1059.83 156.952 1062.48 156.881 1065.2 156.881C1070.06 156.881 1074.14 158.744 1077.43 162.471C1078.28 163.188 1078.93 164.048 1079.36 165.051C1079.93 165.911 1080.29 166.843 1080.43 167.846C1080.72 170.283 1079.93 172.433 1078.07 174.296C1076.21 176.016 1074.28 176.446 1072.28 175.586C1071.99 175.586 1071.63 175.586 1071.2 175.586C1070.92 175.443 1070.56 175.443 1070.13 175.586C1066.99 176.733 1063.77 177.235 1060.48 177.091C1057.33 176.948 1054.11 177.091 1050.82 177.521H1047.82C1046.1 177.521 1045.24 178.381 1045.24 180.102C1045.53 182.825 1045.67 185.548 1045.67 188.272C1045.67 190.852 1045.74 193.504 1045.89 196.227C1046.17 203.251 1046.67 210.274 1047.39 217.298C1048.1 224.321 1049.03 231.273 1050.18 238.154C1050.61 241.737 1051.11 245.321 1051.68 248.904C1052.4 252.344 1053.25 255.856 1054.26 259.439C1054.54 260.729 1054.97 262.02 1055.54 263.31C1056.11 264.6 1056.69 266.033 1057.26 267.61Z" fill="url(#paint3_radial_524_99)"/>
<path d="M1110.49 238.584C1110.49 231.847 1111.42 225.397 1113.28 219.233C1115.28 212.926 1117.86 206.763 1121 200.742C1122.58 197.876 1124.44 195.152 1126.58 192.572C1128.73 189.992 1131.16 187.77 1133.88 185.907C1137.59 183.327 1141.46 181.822 1145.46 181.392C1149.75 181.105 1153.61 182.037 1157.05 184.187C1160.48 186.337 1163.13 189.275 1164.99 193.002C1166.85 196.585 1167.42 200.671 1166.7 205.257C1166.56 206.548 1166.27 207.909 1165.84 209.343C1165.41 210.776 1164.84 212.138 1164.13 213.428C1162.27 217.011 1160.05 220.451 1157.48 223.748C1155.04 226.902 1152.04 229.697 1148.47 232.133C1146.18 233.71 1143.74 235.072 1141.17 236.219C1138.74 237.222 1136.09 237.652 1133.23 237.509C1132.23 237.509 1131.59 237.652 1131.3 237.939C1131.16 238.225 1131.09 238.87 1131.09 239.874C1130.94 242.167 1131.09 244.461 1131.52 246.754C1131.94 249.047 1132.52 251.341 1133.23 253.634C1134.09 255.498 1134.88 256.573 1135.59 256.859C1136.31 257.146 1137.59 256.716 1139.45 255.569C1142.17 254.136 1144.6 252.201 1146.75 249.764C1148.04 248.617 1149.32 247.614 1150.61 246.754C1151.9 245.751 1153.19 244.747 1154.47 243.744C1155.04 243.171 1155.9 242.597 1157.05 242.024C1159.19 241.307 1160.98 241.522 1162.41 242.669C1163.98 243.672 1164.77 245.321 1164.77 247.614C1164.77 248.617 1164.7 249.621 1164.56 250.624C1164.41 251.627 1164.2 252.631 1163.91 253.634C1162.05 259.081 1159.41 263.811 1155.97 267.825C1152.54 271.838 1147.89 274.777 1142.03 276.64C1133.88 278.79 1126.8 276.855 1120.79 270.835C1117.64 267.681 1115.42 264.17 1114.14 260.299C1112.85 256.429 1111.85 252.416 1111.13 248.259C1110.99 246.682 1110.85 245.106 1110.7 243.529C1110.7 241.809 1110.63 240.16 1110.49 238.584ZM1150.61 203.107C1150.61 202.104 1150.54 201.244 1150.4 200.527C1150.25 199.667 1149.82 199.094 1149.11 198.807C1148.11 198.234 1146.82 198.592 1145.25 199.882C1144.67 200.169 1144.17 200.527 1143.74 200.957C1143.32 201.387 1142.82 201.889 1142.24 202.462C1140.38 204.756 1138.81 207.264 1137.52 209.988C1136.38 212.711 1135.31 215.434 1134.3 218.158C1133.59 219.161 1133.66 219.95 1134.52 220.523C1134.81 220.81 1135.16 220.953 1135.59 220.953C1136.16 220.81 1136.59 220.666 1136.88 220.523C1143.32 216.94 1147.82 211.636 1150.4 204.612C1150.54 204.326 1150.61 204.039 1150.61 203.752C1150.61 203.322 1150.61 203.107 1150.61 203.107Z" fill="url(#paint4_radial_524_99)"/>
<path d="M812.563 403.403C812.42 397.239 812.277 390.717 812.133 383.837C811.99 376.957 811.919 370.076 811.919 363.196C811.919 356.173 811.847 349.292 811.704 342.555C811.704 335.675 811.776 328.795 811.919 321.915C811.919 318.331 811.919 314.819 811.919 311.379C812.062 307.939 812.277 304.427 812.563 300.844C812.849 298.407 813.278 296.257 813.85 294.394C814.136 293.39 814.494 292.53 814.923 291.813C815.352 290.953 815.924 290.093 816.639 289.233C818.642 287.227 820.93 286.438 823.505 286.868C826.079 287.298 828.082 288.732 829.512 291.168C830.37 292.315 830.943 293.605 831.229 295.039C831.515 296.329 831.729 297.762 831.872 299.339C832.158 307.366 832.23 315.393 832.087 323.42C831.944 331.303 831.658 339.259 831.229 347.286C831.229 348.146 831.157 349.006 831.014 349.866C830.871 350.582 830.799 351.371 830.799 352.231C830.513 366.565 830.084 380.827 829.512 395.017C829.369 405.624 829.369 416.375 829.512 427.268C829.512 429.992 829.798 431.569 830.37 431.999C830.943 432.429 832.516 432.357 835.091 431.784C839.382 430.78 843.601 429.777 847.749 428.774C852.04 427.77 856.403 426.982 860.837 426.408C865.128 425.692 869.419 425.118 873.71 424.688C878.144 424.258 882.435 424.187 886.583 424.473H900.958C902.245 424.473 903.461 424.545 904.605 424.688C905.893 424.832 907.037 425.262 908.038 425.978C909.611 426.552 910.684 427.555 911.256 428.989C911.829 430.422 911.972 431.784 911.685 433.074C911.542 434.22 910.97 435.224 909.969 436.084C909.111 436.8 908.253 436.872 907.394 436.299C905.106 435.152 902.96 434.865 900.958 435.439C898.955 436.012 896.953 436.442 894.95 436.729C892.805 437.015 890.659 437.517 888.514 438.234C886.511 438.951 884.437 439.739 882.292 440.599C875.855 442.892 869.276 444.827 862.553 446.404C855.831 447.838 849.108 449.343 842.385 450.919C839.811 451.349 837.308 451.851 834.876 452.424C832.444 452.998 829.941 453.643 827.367 454.359C825.364 454.789 823.648 454.933 822.217 454.789C818.785 454.503 816.138 453.284 814.279 451.134C812.563 448.984 811.776 446.333 811.919 443.179C812.062 439.452 812.205 435.797 812.348 432.214C812.634 428.487 812.706 424.832 812.563 421.248V403.403Z" fill="url(#paint5_radial_524_99)"/>
<path d="M934.582 349.006C930.434 350.869 926.858 350.296 923.855 347.286C922.853 346.139 922.21 344.634 921.924 342.77C921.638 340.907 921.852 339.115 922.567 337.395C923.425 335.532 924.856 334.027 926.858 332.88C928.861 331.59 930.863 330.945 932.866 330.945C937.014 330.945 939.803 332.88 941.233 336.75C941.948 338.47 942.02 340.262 941.448 342.125C941.019 343.845 940.017 345.35 938.444 346.641C937.872 347.214 937.228 347.716 936.513 348.146C935.941 348.432 935.297 348.719 934.582 349.006ZM943.164 438.234C943.736 441.244 942.807 443.394 940.375 444.684C937.8 445.974 935.226 445.687 932.651 443.824C931.507 442.821 930.649 441.674 930.077 440.384C929.504 439.094 928.932 437.732 928.36 436.299C927.931 434.292 927.502 432.214 927.073 430.064C926.787 427.913 926.501 425.835 926.215 423.828C925.356 416.661 924.641 409.494 924.069 402.328C923.64 395.017 923.712 387.779 924.284 380.612C924.427 379.035 924.641 377.458 924.927 375.882C925.213 374.162 925.857 372.585 926.858 371.151C927.573 369.718 928.503 368.571 929.647 367.711C930.935 366.851 932.437 366.421 934.153 366.421C937.443 366.565 939.803 368.285 941.233 371.581C942.521 374.161 943.164 376.957 943.164 379.967V409.638C943.021 411.358 942.878 413.436 942.735 415.873C942.592 418.31 942.521 420.962 942.521 423.828C942.521 426.122 942.521 428.487 942.521 430.924C942.664 433.36 942.878 435.797 943.164 438.234Z" fill="url(#paint6_radial_524_99)"/>
<path d="M985.379 425.118C986.094 423.255 986.666 421.607 987.095 420.173C987.524 418.596 987.882 417.091 988.168 415.658C989.742 410.355 991.172 404.979 992.459 399.532C993.746 394.086 995.105 388.639 996.536 383.192C997.108 380.468 998.109 377.673 999.539 374.807C1000.54 372.226 1001.97 370.005 1003.83 368.141C1005.83 366.278 1008.05 364.701 1010.48 363.411C1013.49 361.978 1016.06 362.336 1018.21 364.486C1020.21 366.493 1020.28 368.715 1018.42 371.151C1017.85 372.298 1017.49 373.516 1017.35 374.807C1017.2 375.953 1017.06 377.1 1016.92 378.247C1015.92 383.263 1014.7 388.209 1013.27 393.082C1011.98 397.956 1010.84 402.901 1009.84 407.918C1008.84 412.791 1007.84 417.593 1006.83 422.323C1005.83 427.053 1004.55 431.855 1002.97 436.729C1002.4 439.022 1001.76 441.244 1001.04 443.394C1000.33 445.401 999.468 447.551 998.467 449.844C998.038 450.848 997.537 451.851 996.965 452.854C996.393 453.714 995.749 454.574 995.034 455.434C992.316 458.588 989.098 460.165 985.379 460.165C981.66 460.165 978.442 458.588 975.724 455.434C974.294 453.858 973.15 452.138 972.291 450.274C971.433 448.268 970.646 446.189 969.931 444.039C967.5 437.302 965.64 430.422 964.353 423.398C963.066 416.231 961.993 409.136 961.135 402.113C960.706 399.102 960.348 396.092 960.062 393.082C959.919 389.929 959.776 386.847 959.633 383.837C959.633 381.83 959.704 379.895 959.847 378.032C960.133 376.025 960.562 374.09 961.135 372.226C961.564 370.793 962.207 369.36 963.066 367.926C965.068 365.49 967.285 364.343 969.717 364.486C972.291 364.629 974.294 366.135 975.724 369.001C976.439 370.578 977.011 372.226 977.441 373.946C977.87 375.667 978.156 377.458 978.299 379.322C979.014 386.059 979.801 392.867 980.659 399.747C981.66 406.484 982.804 413.221 984.092 419.958C984.235 420.675 984.378 421.463 984.521 422.323C984.807 423.04 985.093 423.972 985.379 425.118Z" fill="url(#paint7_radial_524_99)"/>
<path d="M1050.39 385.127C1051.39 384.41 1052.03 383.694 1052.32 382.977C1052.61 382.117 1052.89 381.4 1053.18 380.827C1054.47 378.39 1055.97 376.097 1057.68 373.946C1059.4 371.653 1061.48 369.79 1063.91 368.356C1067.2 366.35 1070.41 365.203 1073.56 364.916C1076.85 364.486 1080.14 365.275 1083.43 367.281C1085.86 368.571 1087.65 370.506 1088.79 373.086C1090.08 375.667 1090.44 378.247 1089.87 380.827C1089.44 383.55 1088.29 385.342 1086.43 386.202C1084.58 387.062 1082.43 386.775 1080 385.342C1078.71 384.625 1077.64 384.267 1076.78 384.267C1075.92 384.267 1074.92 384.84 1073.78 385.987C1073.2 386.56 1072.63 387.277 1072.06 388.137C1071.63 388.997 1071.13 389.785 1070.56 390.502C1069.56 392.796 1068.7 395.089 1067.98 397.382C1067.27 399.532 1066.55 401.754 1065.84 404.048C1064.55 408.491 1063.33 413.006 1062.19 417.593C1061.19 422.037 1060.33 426.552 1059.62 431.139C1059.33 434.005 1059.04 436.872 1058.76 439.739C1058.47 442.606 1058.33 445.472 1058.33 448.339C1058.33 449.343 1058.26 450.418 1058.11 451.564C1058.11 452.711 1057.9 453.858 1057.47 455.004C1056.04 459.305 1053.11 461.455 1048.67 461.455C1044.24 461.885 1041.02 460.093 1039.02 456.08C1038.45 454.933 1038.02 453.714 1037.73 452.424C1037.59 451.134 1037.37 449.988 1037.09 448.984C1036.09 442.964 1035.23 437.015 1034.51 431.139C1033.8 425.118 1033.08 419.098 1032.37 413.078C1031.8 407.201 1031.44 401.253 1031.29 395.232C1031.15 389.069 1031.15 382.905 1031.29 376.742C1031.29 372.728 1032.8 369.79 1035.8 367.926C1038.37 366.35 1041.02 366.135 1043.74 367.281C1046.46 368.285 1048.24 370.22 1049.1 373.086C1049.96 375.38 1050.39 377.673 1050.39 379.967C1050.25 380.683 1050.18 381.472 1050.18 382.332C1050.32 383.192 1050.39 384.124 1050.39 385.127Z" fill="url(#paint8_radial_524_99)"/>
<path d="M1099.8 416.733C1099.8 409.996 1100.73 403.546 1102.59 397.382C1104.6 391.075 1107.17 384.912 1110.32 378.892C1111.89 376.025 1113.75 373.301 1115.9 370.721C1118.04 368.141 1120.47 365.92 1123.19 364.056C1126.91 361.476 1130.77 359.971 1134.78 359.541C1139.07 359.254 1142.93 360.186 1146.36 362.336C1149.79 364.486 1152.44 367.425 1154.3 371.151C1156.16 374.735 1156.73 378.82 1156.02 383.407C1155.87 384.697 1155.59 386.059 1155.16 387.492C1154.73 388.925 1154.16 390.287 1153.44 391.577C1151.58 395.161 1149.37 398.601 1146.79 401.898C1144.36 405.051 1141.36 407.846 1137.78 410.283C1135.49 411.86 1133.06 413.221 1130.48 414.368C1128.05 415.371 1125.41 415.801 1122.55 415.658C1121.55 415.658 1120.9 415.801 1120.62 416.088C1120.47 416.375 1120.4 417.02 1120.4 418.023C1120.26 420.317 1120.4 422.61 1120.83 424.903C1121.26 427.197 1121.83 429.49 1122.55 431.784C1123.4 433.647 1124.19 434.722 1124.91 435.009C1125.62 435.295 1126.91 434.865 1128.77 433.719C1131.49 432.285 1133.92 430.35 1136.06 427.913C1137.35 426.767 1138.64 425.763 1139.92 424.903C1141.21 423.9 1142.5 422.897 1143.79 421.893C1144.36 421.32 1145.22 420.747 1146.36 420.173C1148.51 419.456 1150.29 419.672 1151.73 420.818C1153.3 421.822 1154.09 423.47 1154.09 425.763C1154.09 426.767 1154.01 427.77 1153.87 428.774C1153.73 429.777 1153.51 430.78 1153.23 431.784C1151.37 437.23 1148.72 441.961 1145.29 445.974C1141.86 449.988 1137.21 452.926 1131.34 454.789C1123.19 456.94 1116.11 455.004 1110.1 448.984C1106.96 445.831 1104.74 442.319 1103.45 438.449C1102.16 434.579 1101.16 430.565 1100.45 426.408C1100.3 424.832 1100.16 423.255 1100.02 421.678C1100.02 419.958 1099.95 418.31 1099.8 416.733ZM1139.92 381.257C1139.92 380.253 1139.85 379.393 1139.71 378.677C1139.57 377.817 1139.14 377.243 1138.42 376.957C1137.42 376.383 1136.13 376.742 1134.56 378.032C1133.99 378.318 1133.49 378.677 1133.06 379.107C1132.63 379.537 1132.13 380.038 1131.56 380.612C1129.7 382.905 1128.12 385.414 1126.84 388.137C1125.69 390.86 1124.62 393.584 1123.62 396.307C1122.9 397.311 1122.98 398.099 1123.83 398.672C1124.12 398.959 1124.48 399.102 1124.91 399.102C1125.48 398.959 1125.91 398.816 1126.19 398.672C1132.63 395.089 1137.14 389.785 1139.71 382.762C1139.85 382.475 1139.92 382.188 1139.92 381.902C1139.92 381.472 1139.92 381.257 1139.92 381.257Z" fill="url(#paint9_radial_524_99)"/>
<path d="M947.516 503.151C948.16 503.258 948.767 503.366 949.34 503.473C949.912 503.545 950.484 503.67 951.056 503.85C951.771 504.1 952.468 504.387 953.148 504.71C953.863 505.032 954.507 505.48 955.079 506.053C956.831 508.024 957.493 510.3 957.063 512.88C956.563 515.962 955.258 518.596 953.148 520.782C951.181 522.86 948.982 524.383 946.55 525.35C944.119 526.318 941.491 526.873 938.666 527.017C937.521 527.017 936.574 526.658 935.823 525.942C935.143 525.297 934.857 524.49 934.965 523.523C935.036 522.914 935.322 522.502 935.823 522.287C936.323 522.072 936.806 522.161 937.271 522.555C937.736 522.914 938.165 523.039 938.558 522.932C938.987 522.824 939.417 522.699 939.846 522.555C939.989 522.52 940.042 522.448 940.007 522.34C940.007 522.233 939.989 522.143 939.953 522.072C939.81 520.208 939.488 518.399 938.987 516.643C938.523 514.887 938.165 513.095 937.915 511.267C937.664 509.404 937.396 507.559 937.11 505.731C936.86 503.868 936.681 502.004 936.574 500.141C936.502 499.137 936.431 498.152 936.359 497.184C936.288 496.217 936.216 495.249 936.145 494.282C936.145 493.995 936.163 493.726 936.198 493.476C936.234 493.225 936.252 492.974 936.252 492.723C936.288 492.221 936.341 491.755 936.413 491.325C936.484 490.895 936.449 490.448 936.306 489.982C936.234 489.48 936.288 488.996 936.466 488.53C936.645 488.064 936.896 487.67 937.217 487.348C938.576 485.914 940.06 484.911 941.669 484.338C943.314 483.728 945.12 483.675 947.087 484.176C948.446 484.535 949.608 485.287 950.573 486.434C951.539 487.545 952.093 488.817 952.236 490.25C952.379 491.146 952.361 492.024 952.182 492.884C952.039 493.708 951.825 494.551 951.539 495.411C951.181 496.521 950.716 497.614 950.144 498.689C949.572 499.729 948.982 500.75 948.374 501.753C948.231 501.968 948.088 502.201 947.945 502.452C947.838 502.667 947.695 502.9 947.516 503.151ZM941.884 502.076C942.134 501.968 942.295 501.825 942.367 501.646C942.438 501.431 942.545 501.252 942.688 501.108C943.404 500.177 944.065 499.209 944.673 498.206C945.281 497.166 945.817 496.091 946.282 494.981C946.533 494.407 946.747 493.834 946.926 493.261C947.14 492.651 947.248 492.042 947.248 491.433C947.248 489.82 946.479 488.96 944.941 488.853C944.333 488.853 943.743 488.942 943.171 489.122C942.599 489.301 942.063 489.534 941.562 489.82C941.526 489.856 941.455 489.91 941.348 489.982C941.276 490.017 941.258 490.107 941.294 490.25C941.58 490.752 941.473 491.236 940.972 491.702C940.901 491.773 940.865 491.899 940.865 492.078C940.901 492.221 940.936 492.365 940.972 492.508C941.044 493.296 941.115 494.103 941.187 494.927C941.258 495.715 941.33 496.486 941.401 497.238C941.437 498.027 941.491 498.833 941.562 499.657C941.634 500.445 941.741 501.252 941.884 502.076ZM943.064 521.427C943.457 521.247 943.815 521.086 944.137 520.943C944.494 520.764 944.834 520.602 945.156 520.459C946.407 519.85 947.534 519.133 948.535 518.309C949.572 517.449 950.412 516.392 951.056 515.138C951.449 514.421 951.753 513.668 951.968 512.88C952.182 512.056 952.254 511.232 952.182 510.407C952.147 509.762 951.986 509.279 951.7 508.956C951.414 508.598 950.949 508.329 950.305 508.15C949.733 507.971 949.143 507.899 948.535 507.935C947.927 507.935 947.337 507.971 946.765 508.042C946.05 508.078 945.335 508.204 944.619 508.419C943.94 508.634 943.243 508.777 942.528 508.849C942.313 508.849 942.206 508.92 942.206 509.064C942.206 509.171 942.206 509.314 942.206 509.494C942.313 510.604 942.385 511.733 942.42 512.88C942.492 513.991 942.545 515.12 942.581 516.266C942.653 517.055 942.706 517.879 942.742 518.739C942.814 519.599 942.921 520.495 943.064 521.427Z" fill="url(#paint10_radial_524_99)"/>
<path d="M966.035 508.956C966.285 508.777 966.446 508.598 966.518 508.419C966.589 508.204 966.661 508.024 966.732 507.881C967.054 507.272 967.429 506.699 967.859 506.161C968.288 505.588 968.806 505.122 969.414 504.763C970.236 504.262 971.041 503.975 971.828 503.903C972.65 503.796 973.473 503.993 974.295 504.495C974.903 504.817 975.35 505.301 975.636 505.946C975.958 506.591 976.047 507.236 975.904 507.881C975.797 508.562 975.511 509.01 975.046 509.225C974.581 509.44 974.045 509.368 973.437 509.01C973.115 508.831 972.847 508.741 972.632 508.741C972.418 508.741 972.167 508.884 971.881 509.171C971.738 509.314 971.595 509.494 971.452 509.709C971.345 509.924 971.22 510.121 971.077 510.3C970.826 510.873 970.612 511.447 970.433 512.02C970.254 512.557 970.076 513.113 969.897 513.686C969.575 514.797 969.271 515.926 968.985 517.073C968.735 518.184 968.52 519.312 968.341 520.459C968.27 521.176 968.198 521.892 968.127 522.609C968.055 523.326 968.019 524.042 968.019 524.759C968.019 525.01 968.002 525.279 967.966 525.565C967.966 525.852 967.912 526.139 967.805 526.425C967.447 527.501 966.714 528.038 965.606 528.038C964.497 528.146 963.693 527.698 963.192 526.694C963.049 526.408 962.942 526.103 962.87 525.78C962.834 525.458 962.781 525.171 962.709 524.92C962.459 523.415 962.244 521.928 962.066 520.459C961.887 518.954 961.708 517.449 961.529 515.944C961.386 514.475 961.297 512.988 961.261 511.482C961.225 509.942 961.225 508.401 961.261 506.86C961.261 505.856 961.636 505.122 962.387 504.656C963.031 504.262 963.693 504.208 964.372 504.495C965.051 504.746 965.498 505.229 965.713 505.946C965.928 506.519 966.035 507.093 966.035 507.666C965.999 507.845 965.981 508.042 965.981 508.257C966.017 508.472 966.035 508.705 966.035 508.956Z" fill="url(#paint11_radial_524_99)"/>
<path d="M990.35 522.34C990.099 522.52 989.903 522.752 989.76 523.039C989.652 523.29 989.509 523.505 989.33 523.684C988.973 524.222 988.58 524.723 988.15 525.189C987.721 525.619 987.203 525.96 986.595 526.21C985.594 526.676 984.575 526.712 983.538 526.318C982.536 525.888 981.839 525.153 981.446 524.114C980.659 522.107 980.427 520.19 980.748 518.363C981.106 516.535 981.928 514.797 983.216 513.149C983.931 512.253 984.771 511.626 985.737 511.267C986.738 510.873 987.829 510.802 989.009 511.052C989.08 511.052 989.134 511.07 989.17 511.106C989.241 511.106 989.313 511.106 989.384 511.106C989.527 510.819 989.563 510.569 989.491 510.354C989.42 510.103 989.366 509.852 989.33 509.601C989.187 508.813 989.009 508.06 988.794 507.344C988.615 506.627 988.383 505.928 988.097 505.247C987.668 504.316 987.274 503.814 986.917 503.742C986.595 503.67 986.059 503.957 985.308 504.602C984.128 505.606 983.108 506.806 982.25 508.204C981.964 508.562 981.821 508.92 981.821 509.279C981.821 510.067 981.446 510.569 980.695 510.784C980.444 510.855 980.14 510.82 979.783 510.676C979.425 510.533 979.139 510.336 978.925 510.085C978.46 509.368 978.299 508.58 978.442 507.72C978.585 506.896 978.817 506.125 979.139 505.408C979.461 504.656 979.854 503.957 980.319 503.312C980.82 502.595 981.356 501.95 981.928 501.377C982.501 500.768 983.144 500.23 983.859 499.765C985.004 499.048 986.237 498.743 987.56 498.851C988.919 498.922 990.117 499.55 991.154 500.732C991.619 501.198 991.977 501.717 992.227 502.291C992.513 502.828 992.781 503.402 993.031 504.011C993.425 505.122 993.747 506.251 993.997 507.397C994.283 508.544 994.498 509.709 994.641 510.891C994.819 512.504 994.98 514.098 995.123 515.675C995.266 517.252 995.392 518.846 995.499 520.459C995.606 521.391 995.606 522.34 995.499 523.308C995.427 524.383 994.98 525.153 994.158 525.619C993.335 526.049 992.477 525.978 991.583 525.404C991.226 525.153 990.975 524.849 990.832 524.49C990.689 524.132 990.582 523.756 990.51 523.362C990.475 523.182 990.457 523.021 990.457 522.878C990.457 522.699 990.421 522.52 990.35 522.34ZM985.79 521.104C986.362 520.495 986.917 519.904 987.453 519.33C987.989 518.721 988.454 518.058 988.848 517.341C988.955 517.126 988.937 516.876 988.794 516.589C988.687 516.266 988.508 516.033 988.258 515.89C988.007 515.711 987.811 515.693 987.668 515.836C987.56 515.944 987.417 516.033 987.239 516.105C987.203 516.177 987.149 516.248 987.078 516.32C987.006 516.392 986.952 516.463 986.917 516.535C986.452 517.216 986.112 517.933 985.898 518.685C985.683 519.402 985.647 520.208 985.79 521.104Z" fill="url(#paint12_radial_524_99)"/>
<path d="M1008.99 522.394C1008.74 522.322 1008.49 522.251 1008.24 522.179C1008.02 522.072 1007.79 521.982 1007.54 521.91C1002.68 520.047 1000.05 516.553 999.655 511.429C999.512 509.78 999.762 508.257 1000.41 506.86C1001.05 505.462 1002.05 504.28 1003.41 503.312C1004.27 502.703 1005.16 502.309 1006.09 502.13C1007.02 501.95 1007.99 502.13 1008.99 502.667C1009.31 502.81 1009.61 503.008 1009.9 503.258C1010.22 503.509 1010.47 503.796 1010.65 504.118C1012.55 506.985 1012.87 510.013 1011.62 513.203C1011.51 513.597 1011.26 513.901 1010.87 514.116C1010.51 514.331 1010.15 514.403 1009.79 514.331C1008.97 514.26 1008.51 513.704 1008.4 512.665C1008.4 512.163 1008.4 511.68 1008.4 511.214C1008.43 510.712 1008.42 510.228 1008.34 509.762C1008.31 509.368 1008.22 508.992 1008.08 508.634C1007.97 508.239 1007.79 507.881 1007.54 507.559C1007.15 507.129 1006.74 507.075 1006.31 507.397C1005.88 507.756 1005.54 508.186 1005.29 508.687C1005.04 509.153 1004.84 509.673 1004.7 510.246C1004.52 511.465 1004.77 512.683 1005.45 513.901C1006.16 515.12 1007.02 515.998 1008.02 516.535C1008.63 516.858 1009.24 517.126 1009.85 517.341C1010.45 517.521 1011.1 517.682 1011.78 517.825C1012.1 517.897 1012.4 517.986 1012.69 518.094C1013.01 518.201 1013.33 518.291 1013.65 518.363C1014.48 518.685 1015.07 519.223 1015.42 519.975C1015.78 520.692 1015.85 521.48 1015.64 522.34C1015.5 523.129 1015.1 523.845 1014.46 524.49C1013.67 525.386 1012.78 526.139 1011.78 526.748C1010.78 527.357 1009.76 527.948 1008.72 528.522C1008.08 528.844 1007.43 529.131 1006.79 529.382C1006.18 529.669 1005.52 529.866 1004.8 529.973C1004.48 530.009 1004.16 530.009 1003.84 529.973C1003.55 529.937 1003.25 529.884 1002.93 529.812C1002.03 529.525 1001.5 529.006 1001.32 528.253C1001.14 527.536 1001.17 526.873 1001.42 526.264C1001.6 525.763 1001.87 525.333 1002.23 524.974C1002.52 524.723 1002.8 524.562 1003.09 524.49C1003.41 524.419 1003.71 524.473 1004 524.652C1004.25 524.795 1004.46 524.849 1004.64 524.813C1004.82 524.777 1005 524.723 1005.18 524.652C1005.68 524.365 1006.18 524.096 1006.68 523.845C1007.22 523.595 1007.74 523.326 1008.24 523.039C1008.38 522.967 1008.52 522.878 1008.67 522.77C1008.81 522.663 1008.92 522.537 1008.99 522.394Z" fill="url(#paint13_radial_524_99)"/>
<path d="M1020.58 499.926C1019.54 500.392 1018.65 500.248 1017.9 499.496C1017.65 499.209 1017.48 498.833 1017.41 498.367C1017.34 497.901 1017.4 497.453 1017.57 497.023C1017.79 496.557 1018.15 496.181 1018.65 495.894C1019.15 495.572 1019.65 495.411 1020.15 495.411C1021.19 495.411 1021.88 495.894 1022.24 496.862C1022.42 497.292 1022.44 497.74 1022.29 498.206C1022.19 498.636 1021.94 499.012 1021.54 499.334C1021.4 499.478 1021.24 499.603 1021.06 499.711C1020.92 499.782 1020.76 499.854 1020.58 499.926ZM1022.72 522.233C1022.87 522.985 1022.63 523.523 1022.03 523.845C1021.38 524.168 1020.74 524.096 1020.1 523.63C1019.81 523.38 1019.59 523.093 1019.45 522.77C1019.31 522.448 1019.17 522.107 1019.02 521.749C1018.92 521.247 1018.81 520.728 1018.7 520.19C1018.63 519.653 1018.56 519.133 1018.49 518.631C1018.27 516.84 1018.09 515.048 1017.95 513.256C1017.84 511.429 1017.86 509.619 1018 507.827C1018.04 507.433 1018.09 507.039 1018.16 506.645C1018.24 506.215 1018.4 505.821 1018.65 505.462C1018.83 505.104 1019.06 504.817 1019.34 504.602C1019.67 504.387 1020.04 504.28 1020.47 504.28C1021.29 504.316 1021.88 504.746 1022.24 505.57C1022.56 506.215 1022.72 506.914 1022.72 507.666V515.084C1022.69 515.514 1022.65 516.033 1022.62 516.643C1022.58 517.252 1022.56 517.915 1022.56 518.631C1022.56 519.205 1022.56 519.796 1022.56 520.405C1022.6 521.014 1022.65 521.624 1022.72 522.233Z" fill="url(#paint14_radial_524_99)"/>
<path d="M1031.88 521.373C1031.88 521.874 1031.9 522.394 1031.94 522.932C1031.97 523.469 1031.95 524.025 1031.88 524.598C1031.88 524.741 1031.88 524.92 1031.88 525.135C1031.88 525.315 1031.86 525.512 1031.83 525.727C1031.72 526.443 1031.35 526.873 1030.7 527.017C1029.99 527.053 1029.42 526.838 1028.99 526.372C1028.74 526.085 1028.54 525.763 1028.4 525.404C1028.29 525.046 1028.16 524.688 1028.02 524.329C1027.88 523.684 1027.75 523.039 1027.65 522.394C1027.57 521.749 1027.52 521.104 1027.48 520.459C1027.27 518.488 1027.13 516.517 1027.06 514.546C1027.02 512.575 1026.97 510.604 1026.89 508.634C1026.86 505.803 1026.82 502.99 1026.79 500.195C1026.79 497.399 1026.8 494.586 1026.84 491.755C1026.84 491.505 1026.84 491.272 1026.84 491.057C1026.88 490.806 1026.93 490.555 1027 490.304C1027.18 489.802 1027.47 489.39 1027.86 489.068C1028.25 488.71 1028.72 488.53 1029.25 488.53C1030.36 488.53 1031.08 489.122 1031.4 490.304C1031.51 490.627 1031.56 490.949 1031.56 491.272C1031.7 493.601 1031.79 495.93 1031.83 498.259C1031.9 500.589 1031.95 502.918 1031.99 505.247C1031.99 505.498 1031.99 506.089 1031.99 507.021C1031.99 507.953 1031.99 509.064 1031.99 510.354C1031.99 511.608 1031.97 512.934 1031.94 514.331C1031.94 515.729 1031.94 517.055 1031.94 518.309C1031.94 519.527 1031.92 520.549 1031.88 521.373Z" fill="url(#paint15_radial_524_99)"/>
<path d="M30.5794 603.023C-0.850083 517.415 -7.72765 351.202 80.343 374.867C113.712 383.834 119.586 413.523 150.744 428.458C198.23 451.219 260.514 399.482 284.384 446.42C304.565 486.104 261.723 512.202 250.79 555.359C232.355 628.127 283.709 705.721 219.776 745.06C141.089 793.478 62.4208 689.753 30.5794 603.023Z" fill="#EE75A7"/>
<path d="M726.882 640.899C678.849 629.841 603.369 657.341 605.027 608.009C605.682 588.508 611.657 576.021 625.768 562.569C655.673 534.06 689.173 581.312 730.338 578.148C783.333 574.075 810.22 504.693 857.378 529.246C879.971 541.009 894.924 553.285 900.589 578.148C910.07 619.753 870.134 647.703 829.723 661.239C790.899 674.243 766.779 650.084 726.882 640.899Z" fill="#00A265"/>
<path d="M1617.07 601.382C1671.59 523.011 1595.99 377.069 1691.07 368.382C1791.67 359.191 1801.12 517.935 1771.07 614.382C1730.59 744.268 1391.85 866.719 1447.07 742.382C1482.07 663.553 1567.81 672.186 1617.07 601.382Z" fill="#0469B1"/>
<path d="M1460 297.187C1471.21 254.91 1444.76 207.98 1483.5 187.687C1533.23 161.643 1563.88 280.608 1528.5 324.187C1506.36 351.468 1458 385.692 1443.5 353.687C1434.02 332.749 1454.12 319.406 1460 297.187Z" fill="#F9BB0D"/>
<path d="M1796.67 -12.2261C1756.12 -32.1373 1746.16 -86.0723 1701.67 -78.2261C1641.79 -67.6645 1663.44 16.904 1678.67 75.7739C1697.97 150.37 1739.14 215.388 1816.17 217.274C1876.67 218.755 1947.33 195.793 1947.67 135.274C1947.81 110.568 1926.35 100.48 1926.17 75.7739C1926.02 55.7374 1941.02 46.2651 1939.67 26.2739C1935.76 -31.4275 1848.58 13.2647 1796.67 -12.2261Z" fill="#E30140"/>
<circle cx="1764" cy="73" r="4" fill="#51001A"/>
<circle cx="1846" cy="73" r="4" fill="#51001A"/>
<path d="M1786 89.5008C1800.15 71.9112 1808.39 72.9186 1823.5 89.5008" stroke="#51001A" stroke-width="7" stroke-linecap="round"/>
<path d="M178.668 57.7197C198.549 17.1551 252.476 7.15194 244.597 -37.3299C233.99 -97.2055 149.438 -75.4874 90.5795 -60.214C15.998 -40.8605 -48.9892 0.362508 -50.817 77.3925C-52.2526 137.896 -29.2375 208.533 31.282 208.831C55.9883 208.952 66.06 187.483 90.7658 187.286C110.802 187.126 120.286 202.117 140.276 200.749C197.974 196.798 153.217 109.652 178.668 57.7197Z" fill="#E30140"/>
<path d="M1137.66 113.483C1112.33 108.736 1089.11 124.89 1072.16 105.483C1059.11 90.5423 1061.87 75.2819 1063.16 55.4834C1066.95 -3.08219 1119.43 -56.0125 1176.66 -43.0166C1227.12 -31.5584 1252.8 18.1044 1246.66 69.4834C1243.31 97.49 1239.45 121.498 1214.16 133.983C1186.42 147.675 1168.06 119.181 1137.66 113.483Z" fill="#00A265"/>
<path d="M246.835 254.003C215.211 259.582 194.659 275.35 182.335 305.003C158.637 362.018 237.059 400.115 297.335 413.503C352.74 425.808 432.957 431.089 437.335 374.503C441.206 324.456 379.583 320.482 336.335 295.003C303.211 275.488 284.695 247.323 246.835 254.003Z" fill="#9C9B9B"/>
<circle cx="36" cy="50" r="4" fill="#51001A"/>
<circle cx="118" cy="50" r="4" fill="#51001A"/>
<path d="M27 99L36.9298 89.543C37.2643 89.2245 37.7735 89.1764 38.1616 89.4269L52.4293 98.6318C52.7738 98.8541 53.2191 98.8435 53.5527 98.6052L66.2963 89.5027C66.7004 89.214 67.255 89.2656 67.5989 89.6239L78.3408 100.813C78.71 101.198 79.316 101.225 79.7183 100.875L89.6831 92.2103C90.1234 91.8275 90.7966 91.9013 91.1435 92.3706L98.2017 101.92C98.5997 102.458 99.4041 102.461 99.8059 101.926L108.752 89.9973C109.136 89.4855 109.895 89.4608 110.311 89.9465L121.5 103" stroke="#51001A" stroke-width="7" stroke-linecap="round"/>
<circle cx="79" cy="520" r="4" fill="#932050"/>
<circle cx="220" cy="516" r="4" fill="#932050"/>
<path d="M146 575.5C151.679 575.5 155.5 570.099 155.5 564.5C155.5 558.901 151.679 553.5 146 553.5C140.321 553.5 136.5 558.901 136.5 564.5C136.5 570.099 140.321 575.5 146 575.5Z" stroke="#932050" stroke-width="5"/>
<circle cx="267" cy="345" r="4" fill="#303636"/>
<circle cx="349" cy="345" r="4" fill="#303636"/>
<path d="M289 361.501C303.155 343.911 311.394 344.919 326.5 361.501" stroke="#303636" stroke-width="7" stroke-linecap="round"/>
<circle cx="713" cy="606" r="4" fill="#004D32"/>
<circle cx="795" cy="606" r="4" fill="#004D32"/>
<path d="M772.5 609.684C758.345 627.273 750.106 626.266 735 609.684" stroke="#004D32" stroke-width="7" stroke-linecap="round"/>
<circle cx="1117" cy="36" r="4" fill="#004D32"/>
<circle cx="1199" cy="36" r="4" fill="#004D32"/>
<path d="M1139 52.5008C1153.15 34.9112 1161.39 35.9186 1176.5 52.5008" stroke="#004D32" stroke-width="7" stroke-linecap="round"/>
<path d="M1476 290.17C1476 290.17 1483 284.206 1488.5 283.17C1498.71 281.245 1502.24 296.345 1512.5 294.67C1520.25 293.404 1529 283.17 1529 283.17" stroke="#906804" stroke-width="7" stroke-linecap="round"/>
<circle cx="1483" cy="257" r="4" fill="#906804"/>
<circle cx="1516" cy="257" r="4" fill="#906804"/>
<path d="M1683 550C1683 576 1717 580.5 1717 550" stroke="#022F50" stroke-width="7" stroke-linecap="round"/>
<circle cx="1685" cy="530" r="4" fill="#022F50"/>
<circle cx="1714" cy="530" r="4" fill="#022F50"/>
<path d="M638.545 13.0641C603.395 19.2609 585.51 -25.9016 551.545 -14.9359C498.819 2.08645 592.642 89.6038 648.045 89.0641C689.637 88.659 736.54 70.6552 736.045 29.0641C735.739 3.37952 726.157 -19.5837 701.545 -26.9359C673.621 -35.2775 667.245 8.00439 638.545 13.0641Z" fill="#EE75A7"/>
<path d="M623 54H664" stroke="#932050" stroke-width="7" stroke-linecap="round"/>
<circle cx="612" cy="31" r="4" fill="#932050"/>
<circle cx="660" cy="31" r="4" fill="#932050"/>
</g>
<defs>
<radialGradient id="paint0_radial_524_99" cx="0" cy="0" r="1" gradientUnits="userSpaceOnUse" gradientTransform="translate(960 320) rotate(90) scale(210 207)">
<stop stop-color="#00A265"/>
<stop offset="0.26875" stop-color="#2997FF"/>
<stop offset="0.503125" stop-color="#E30140"/>
<stop offset="0.7375" stop-color="#EE75A7"/>
<stop offset="1" stop-color="#F9BB0D"/>
</radialGradient>
<radialGradient id="paint1_radial_524_99" cx="0" cy="0" r="1" gradientUnits="userSpaceOnUse" gradientTransform="translate(960 320) rotate(90) scale(210 207)">
<stop stop-color="#00A265"/>
<stop offset="0.26875" stop-color="#2997FF"/>
<stop offset="0.503125" stop-color="#E30140"/>
<stop offset="0.7375" stop-color="#EE75A7"/>
<stop offset="1" stop-color="#F9BB0D"/>
</radialGradient>
<radialGradient id="paint2_radial_524_99" cx="0" cy="0" r="1" gradientUnits="userSpaceOnUse" gradientTransform="translate(960 320) rotate(90) scale(210 207)">
<stop stop-color="#00A265"/>
<stop offset="0.26875" stop-color="#2997FF"/>
<stop offset="0.503125" stop-color="#E30140"/>
<stop offset="0.7375" stop-color="#EE75A7"/>
<stop offset="1" stop-color="#F9BB0D"/>
</radialGradient>
<radialGradient id="paint3_radial_524_99" cx="0" cy="0" r="1" gradientUnits="userSpaceOnUse" gradientTransform="translate(960 320) rotate(90) scale(210 207)">
<stop stop-color="#00A265"/>
<stop offset="0.26875" stop-color="#2997FF"/>
<stop offset="0.503125" stop-color="#E30140"/>
<stop offset="0.7375" stop-color="#EE75A7"/>
<stop offset="1" stop-color="#F9BB0D"/>
</radialGradient>
<radialGradient id="paint4_radial_524_99" cx="0" cy="0" r="1" gradientUnits="userSpaceOnUse" gradientTransform="translate(960 320) rotate(90) scale(210 207)">
<stop stop-color="#00A265"/>
<stop offset="0.26875" stop-color="#2997FF"/>
<stop offset="0.503125" stop-color="#E30140"/>
<stop offset="0.7375" stop-color="#EE75A7"/>
<stop offset="1" stop-color="#F9BB0D"/>
</radialGradient>
<radialGradient id="paint5_radial_524_99" cx="0" cy="0" r="1" gradientUnits="userSpaceOnUse" gradientTransform="translate(960 320) rotate(90) scale(210 207)">
<stop stop-color="#00A265"/>
<stop offset="0.26875" stop-color="#2997FF"/>
<stop offset="0.503125" stop-color="#E30140"/>
<stop offset="0.7375" stop-color="#EE75A7"/>
<stop offset="1" stop-color="#F9BB0D"/>
</radialGradient>
<radialGradient id="paint6_radial_524_99" cx="0" cy="0" r="1" gradientUnits="userSpaceOnUse" gradientTransform="translate(960 320) rotate(90) scale(210 207)">
<stop stop-color="#00A265"/>
<stop offset="0.26875" stop-color="#2997FF"/>
<stop offset="0.503125" stop-color="#E30140"/>
<stop offset="0.7375" stop-color="#EE75A7"/>
<stop offset="1" stop-color="#F9BB0D"/>
</radialGradient>
<radialGradient id="paint7_radial_524_99" cx="0" cy="0" r="1" gradientUnits="userSpaceOnUse" gradientTransform="translate(960 320) rotate(90) scale(210 207)">
<stop stop-color="#00A265"/>
<stop offset="0.26875" stop-color="#2997FF"/>
<stop offset="0.503125" stop-color="#E30140"/>
<stop offset="0.7375" stop-color="#EE75A7"/>
<stop offset="1" stop-color="#F9BB0D"/>
</radialGradient>
<radialGradient id="paint8_radial_524_99" cx="0" cy="0" r="1" gradientUnits="userSpaceOnUse" gradientTransform="translate(960 320) rotate(90) scale(210 207)">
<stop stop-color="#00A265"/>
<stop offset="0.26875" stop-color="#2997FF"/>
<stop offset="0.503125" stop-color="#E30140"/>
<stop offset="0.7375" stop-color="#EE75A7"/>
<stop offset="1" stop-color="#F9BB0D"/>
</radialGradient>
<radialGradient id="paint9_radial_524_99" cx="0" cy="0" r="1" gradientUnits="userSpaceOnUse" gradientTransform="translate(960 320) rotate(90) scale(210 207)">
<stop stop-color="#00A265"/>
<stop offset="0.26875" stop-color="#2997FF"/>
<stop offset="0.503125" stop-color="#E30140"/>
<stop offset="0.7375" stop-color="#EE75A7"/>
<stop offset="1" stop-color="#F9BB0D"/>
</radialGradient>
<radialGradient id="paint10_radial_524_99" cx="0" cy="0" r="1" gradientUnits="userSpaceOnUse" gradientTransform="translate(960 320) rotate(90) scale(210 207)">
<stop stop-color="#00A265"/>
<stop offset="0.26875" stop-color="#2997FF"/>
<stop offset="0.503125" stop-color="#E30140"/>
<stop offset="0.7375" stop-color="#EE75A7"/>
<stop offset="1" stop-color="#F9BB0D"/>
</radialGradient>
<radialGradient id="paint11_radial_524_99" cx="0" cy="0" r="1" gradientUnits="userSpaceOnUse" gradientTransform="translate(960 320) rotate(90) scale(210 207)">
<stop stop-color="#00A265"/>
<stop offset="0.26875" stop-color="#2997FF"/>
<stop offset="0.503125" stop-color="#E30140"/>
<stop offset="0.7375" stop-color="#EE75A7"/>
<stop offset="1" stop-color="#F9BB0D"/>
</radialGradient>
<radialGradient id="paint12_radial_524_99" cx="0" cy="0" r="1" gradientUnits="userSpaceOnUse" gradientTransform="translate(960 320) rotate(90) scale(210 207)">
<stop stop-color="#00A265"/>
<stop offset="0.26875" stop-color="#2997FF"/>
<stop offset="0.503125" stop-color="#E30140"/>
<stop offset="0.7375" stop-color="#EE75A7"/>
<stop offset="1" stop-color="#F9BB0D"/>
</radialGradient>
<radialGradient id="paint13_radial_524_99" cx="0" cy="0" r="1" gradientUnits="userSpaceOnUse" gradientTransform="translate(960 320) rotate(90) scale(210 207)">
<stop stop-color="#00A265"/>
<stop offset="0.26875" stop-color="#2997FF"/>
<stop offset="0.503125" stop-color="#E30140"/>
<stop offset="0.7375" stop-color="#EE75A7"/>
<stop offset="1" stop-color="#F9BB0D"/>
</radialGradient>
<radialGradient id="paint14_radial_524_99" cx="0" cy="0" r="1" gradientUnits="userSpaceOnUse" gradientTransform="translate(960 320) rotate(90) scale(210 207)">
<stop stop-color="#00A265"/>
<stop offset="0.26875" stop-color="#2997FF"/>
<stop offset="0.503125" stop-color="#E30140"/>
<stop offset="0.7375" stop-color="#EE75A7"/>
<stop offset="1" stop-color="#F9BB0D"/>
</radialGradient>
<radialGradient id="paint15_radial_524_99" cx="0" cy="0" r="1" gradientUnits="userSpaceOnUse" gradientTransform="translate(960 320) rotate(90) scale(210 207)">
<stop stop-color="#00A265"/>
<stop offset="0.26875" stop-color="#2997FF"/>
<stop offset="0.503125" stop-color="#E30140"/>
<stop offset="0.7375" stop-color="#EE75A7"/>
<stop offset="1" stop-color="#F9BB0D"/>
</radialGradient>
<clipPath id="clip0_524_99">
<rect width="1920" height="640" rx="24" fill="white"/>
</clipPath>
</defs>
</svg>
