<svg width="1000" height="640" viewBox="0 0 1000 640" fill="none" xmlns="http://www.w3.org/2000/svg">
<g clip-path="url(#clip0_386_479)">
<rect width="1000" height="640" fill="white"/>
<path d="M222.882 687.899C174.849 676.841 99.3686 704.341 101.027 655.009C101.682 635.508 107.657 623.021 121.768 609.569C151.673 581.06 185.173 628.312 226.338 625.148C279.333 621.075 306.22 551.693 353.378 576.246C375.971 588.009 390.924 600.285 396.589 625.148C406.07 666.753 366.134 694.703 325.723 708.239C286.899 721.243 262.779 697.084 222.882 687.899Z" fill="#0C7D81"/>
<path d="M791.067 549.382C845.59 471.011 769.992 325.069 865.067 316.382C965.67 307.191 975.121 465.935 945.067 562.382C904.594 692.268 565.852 814.719 621.067 690.382C656.074 611.553 741.809 620.186 791.067 549.382Z" fill="#0469B1"/>
<path d="M807.004 246.187C818.209 203.91 791.761 156.98 830.504 136.687C880.225 110.643 910.878 229.608 875.504 273.187C853.36 300.468 805.004 334.692 790.504 302.687C781.019 281.749 801.115 268.406 807.004 246.187Z" fill="#F9BB0D"/>
<path d="M1016.67 -5.2261C976.12 -25.1373 966.157 -79.0723 921.669 -71.2261C861.786 -60.6645 883.44 23.904 898.669 82.7739C917.967 157.37 959.141 222.388 1036.17 224.274C1096.67 225.755 1167.33 202.793 1167.67 142.274C1167.81 117.568 1146.35 107.48 1146.17 82.7739C1146.02 62.7374 1161.02 53.2651 1159.67 33.2739C1155.76 -24.4275 1068.58 20.2647 1016.67 -5.2261Z" fill="#E30140"/>
<circle cx="984" cy="80" r="4" fill="#51001A"/>
<path d="M597.658 -4.51659C572.33 -9.26401 549.113 6.88986 532.158 -12.5166C519.105 -27.4577 521.875 -42.7181 523.158 -62.5166C526.955 -121.082 579.427 -174.012 636.658 -161.017C687.118 -149.558 712.797 -99.8956 706.658 -48.5166C703.312 -20.51 699.45 3.49782 674.158 15.9834C646.424 29.6746 628.058 1.1814 597.658 -4.51659Z" fill="#0C7D81"/>
<path d="M103.151 75.0096C137.218 61.8936 174.67 85.5929 194.438 54.9045C221.048 13.5958 159.011 -19.9861 115.742 -43.2712C60.9131 -72.7765 -0.244823 -84.0513 -43.6471 -39.4085C-77.7374 -4.34369 -102.906 50.159 -67.2065 83.5842C-52.6327 97.2296 -34.8695 90.0404 -20.1207 103.497C-8.15956 114.409 -10.7758 128.503 1.82214 138.675C38.184 168.032 59.5379 91.801 103.151 75.0096Z" fill="#E30140"/>
<circle cx="71.4408" cy="37.1047" r="3.2323" transform="rotate(42.8335 71.4408 37.1047)" fill="#51001A"/>
<path d="M-9.4045 16.1474L1.52423 16.0007C1.9861 15.9945 2.39212 16.3054 2.50651 16.7529L5.83459 29.7734C5.93612 30.1706 6.2698 30.4656 6.67645 30.5177L18.9351 32.0871C19.4276 32.1502 19.7993 32.5652 19.8079 33.0616L20.02 45.2452C20.0293 45.7782 20.4552 46.2103 20.988 46.2272L31.2632 46.5545C31.8464 46.5731 32.2899 47.085 32.2252 47.6649L31.2131 56.7387C31.1389 57.4042 31.7269 57.9531 32.3857 57.8335L43.7513 55.7687C44.3807 55.6543 44.9542 56.1523 44.9293 56.7915L44.3975 70.4347" stroke="#51001A" stroke-width="7" stroke-linecap="round"/>
<path d="M6.56781 640.207C-46.4493 566.007 -97.1813 407.576 -5.98798 407.026C28.564 406.818 42.1049 433.884 76.1089 440.016C127.932 449.362 174.257 382.954 209.725 421.876C239.711 454.783 205.33 491.313 206.239 535.824C207.772 610.875 277.873 672.063 226.67 726.955C163.649 794.515 60.2798 715.38 6.56781 640.207Z" fill="#EE75A7"/>
<circle cx="36" cy="523" r="4" fill="#932050"/>
<circle cx="177" cy="519" r="4" fill="#932050"/>
<path d="M103 578.5C108.679 578.5 112.5 573.099 112.5 567.5C112.5 561.901 108.679 556.5 103 556.5C97.3211 556.5 93.5 561.901 93.5 567.5C93.5 573.099 97.3211 578.5 103 578.5Z" stroke="#932050" stroke-width="5"/>
<path d="M-5.16542 203.003C-36.7886 208.582 -57.341 224.35 -69.6654 254.003C-93.3628 311.018 -14.9406 349.115 45.3346 362.503C100.74 374.808 180.957 380.089 185.335 323.503C189.206 273.456 127.583 269.482 84.3346 244.003C51.211 224.488 32.6947 196.323 -5.16542 203.003Z" fill="#9C9B9B"/>
<circle cx="15" cy="294" r="4" fill="#303636"/>
<circle cx="97" cy="294" r="4" fill="#303636"/>
<path d="M37 310.501C51.1548 292.911 59.3936 293.919 74.5 310.501" stroke="#303636" stroke-width="7" stroke-linecap="round"/>
<path d="M369.545 60.0641C334.395 66.2609 316.51 21.0984 282.545 32.0641C229.819 49.0865 323.642 136.604 379.045 136.064C420.637 135.659 467.54 117.655 467.045 76.0641C466.739 50.3795 457.157 27.4163 432.545 20.0641C404.621 11.7225 398.245 55.0044 369.545 60.0641Z" fill="#EE75A7"/>
<path d="M354 100H395" stroke="#932050" stroke-width="7" stroke-linecap="round"/>
<circle cx="343" cy="77" r="4" fill="#932050"/>
<circle cx="391" cy="77" r="4" fill="#932050"/>
<path d="M823 239.17C823 239.17 830.002 233.206 835.5 232.17C845.713 230.245 849.243 245.345 859.5 243.67C867.252 242.404 876 232.17 876 232.17" stroke="#906804" stroke-width="7" stroke-linecap="round"/>
<circle cx="830" cy="206" r="4" fill="#906804"/>
<circle cx="863" cy="206" r="4" fill="#906804"/>
<path d="M857 498C857 524 891 528.5 891 498" stroke="#022F50" stroke-width="7" stroke-linecap="round"/>
<circle cx="859" cy="478" r="4" fill="#022F50"/>
<circle cx="888" cy="478" r="4" fill="#022F50"/>
<circle cx="802" cy="42" r="7" fill="#F9BB0D"/>
<circle cx="955" cy="231" r="7" fill="#E30140"/>
<circle cx="117.742" cy="558.443" r="7" transform="rotate(-34.7594 117.742 558.443)" fill="#EE75A7"/>
<circle cx="82.7418" cy="390.443" r="7" transform="rotate(-34.7594 82.7418 390.443)" fill="#9C9B9B"/>
<circle cx="82.7418" cy="269.443" r="7" transform="rotate(-34.7594 82.7418 269.443)" fill="#9C9B9B"/>
<rect x="363" y="175.5" width="274" height="290" rx="12" fill="white"/>
<rect x="380" y="192.5" width="239" height="33" rx="7" fill="#F7F7F7"/>
<rect x="380" y="192.5" width="239" height="33" rx="7" stroke="#E6E6E6" stroke-width="2"/>
<rect x="380" y="237.5" width="240" height="33" rx="7" fill="#F7F7F7"/>
<rect x="380" y="237.5" width="240" height="33" rx="7" stroke="#E6E6E6" stroke-width="2"/>
<rect x="380" y="282.5" width="240" height="33" rx="7" fill="#F7F7F7"/>
<rect x="380" y="282.5" width="240" height="33" rx="7" stroke="#E6E6E6" stroke-width="2"/>
<rect x="380" y="327.5" width="240" height="33" rx="7" fill="#F7F7F7"/>
<rect x="380" y="327.5" width="240" height="33" rx="7" stroke="#E6E6E6" stroke-width="2"/>
<rect x="380" y="372.5" width="240" height="33" rx="7" fill="#F7F7F7"/>
<rect x="380" y="372.5" width="240" height="33" rx="7" stroke="#E6E6E6" stroke-width="2"/>
<rect x="379" y="414.5" width="242" height="35" rx="5" fill="#E30140"/>
<path d="M460.239 160V147.396H468.088V150.367H464.036V152.204H467.842V155.175H464.036V157.029H468.378V160H460.239ZM475.664 160V155.087C475.664 154.53 475.579 154.132 475.409 153.892C475.245 153.646 474.976 153.522 474.601 153.522C474.278 153.522 474.026 153.648 473.845 153.9C473.663 154.152 473.572 154.475 473.572 154.867V160H469.828V151H473.572V152.406H473.607C473.906 151.891 474.308 151.492 474.812 151.211C475.315 150.924 475.863 150.78 476.455 150.78C478.424 150.78 479.408 152.022 479.408 154.507V160H475.664ZM487.107 160V158.954H487.072C486.773 159.347 486.384 159.657 485.903 159.886C485.423 160.108 484.948 160.22 484.479 160.22C483.712 160.22 483.035 160.032 482.449 159.657C481.863 159.276 481.424 158.746 481.131 158.066C480.844 157.387 480.7 156.584 480.7 155.658C480.7 154.703 480.873 153.856 481.219 153.118C481.564 152.38 482.051 151.806 482.678 151.396C483.305 150.985 484.008 150.78 484.787 150.78C485.156 150.78 485.496 150.833 485.807 150.938C486.123 151.044 486.396 151.188 486.624 151.369C486.858 151.545 487.008 151.721 487.072 151.896H487.107V146.676H490.852V160H487.107ZM487.187 155.228C487.187 154.688 487.066 154.27 486.826 153.971C486.592 153.672 486.272 153.522 485.868 153.522C485.464 153.522 485.133 153.71 484.875 154.085C484.623 154.454 484.497 154.949 484.497 155.57C484.497 156.842 484.937 157.478 485.815 157.478C486.231 157.478 486.562 157.308 486.809 156.968C487.061 156.622 487.187 156.121 487.187 155.465V155.228ZM495.888 156.563C495.952 156.95 496.175 157.255 496.556 157.478C496.937 157.694 497.44 157.803 498.067 157.803C498.94 157.803 499.767 157.636 500.546 157.302V159.675C499.638 160.038 498.536 160.22 497.241 160.22C495.671 160.22 494.449 159.818 493.576 159.016C492.703 158.213 492.267 157.108 492.267 155.702C492.267 154.735 492.457 153.883 492.838 153.145C493.225 152.406 493.793 151.829 494.543 151.413C495.299 150.991 496.131 150.78 497.039 150.78C497.971 150.78 498.768 150.962 499.43 151.325C500.092 151.688 500.593 152.198 500.933 152.854C501.278 153.511 501.451 154.278 501.451 155.157V156.563H495.888ZM498.138 154.604C498.138 153.566 497.766 153.048 497.021 153.048C496.711 153.048 496.45 153.191 496.239 153.479C496.028 153.76 495.905 154.135 495.87 154.604H498.138ZM509.52 154.208C509.379 154.144 509.188 154.085 508.948 154.032C508.708 153.979 508.509 153.953 508.351 153.953C507.114 153.953 506.496 154.668 506.496 156.098V160H502.752V151H506.496V152.582H506.531C506.76 152.014 507.085 151.583 507.507 151.29C507.929 150.991 508.421 150.842 508.983 150.842C509.188 150.842 509.367 150.877 509.52 150.947V154.208ZM513.835 156.563C513.899 156.95 514.122 157.255 514.503 157.478C514.884 157.694 515.388 157.803 516.015 157.803C516.888 157.803 517.714 157.636 518.493 157.302V159.675C517.585 160.038 516.483 160.22 515.188 160.22C513.618 160.22 512.396 159.818 511.523 159.016C510.65 158.213 510.214 157.108 510.214 155.702C510.214 154.735 510.404 153.883 510.785 153.145C511.172 152.406 511.74 151.829 512.49 151.413C513.246 150.991 514.078 150.78 514.986 150.78C515.918 150.78 516.715 150.962 517.377 151.325C518.039 151.688 518.54 152.198 518.88 152.854C519.226 153.511 519.398 154.278 519.398 155.157V156.563H513.835ZM516.085 154.604C516.085 153.566 515.713 153.048 514.969 153.048C514.658 153.048 514.397 153.191 514.187 153.479C513.976 153.76 513.853 154.135 513.817 154.604H516.085ZM528.117 159.745C527.625 160.038 526.699 160.196 525.34 160.22V160.58C526.482 160.662 527.054 161.184 527.054 162.145C527.054 162.795 526.787 163.293 526.254 163.639C525.727 163.984 524.974 164.157 523.995 164.157C523.679 164.157 523.342 164.14 522.984 164.104V162.593C523.201 162.64 523.441 162.663 523.705 162.663C524.039 162.663 524.291 162.613 524.461 162.514C524.631 162.42 524.716 162.297 524.716 162.145C524.716 161.963 524.648 161.828 524.514 161.74C524.379 161.658 524.145 161.617 523.811 161.617H523.652L523.468 161.635V159.974C522.478 159.669 521.701 159.136 521.139 158.374C520.582 157.612 520.304 156.722 520.304 155.702C520.304 154.671 520.521 153.789 520.954 153.057C521.394 152.318 522.018 151.756 522.826 151.369C523.635 150.977 524.572 150.78 525.639 150.78C526.225 150.78 526.749 150.818 527.212 150.895C527.681 150.971 527.982 151.059 528.117 151.158V154.076C527.93 153.93 527.66 153.801 527.309 153.689C526.957 153.578 526.632 153.522 526.333 153.522C525.595 153.522 525.038 153.695 524.663 154.041C524.288 154.387 524.101 154.879 524.101 155.518C524.101 156.139 524.285 156.622 524.654 156.968C525.023 157.308 525.536 157.478 526.192 157.478C526.89 157.478 527.531 157.311 528.117 156.977V159.745ZM539.622 155.342C539.622 156.859 539.162 158.052 538.242 158.919C537.328 159.786 536.048 160.22 534.401 160.22C532.767 160.22 531.492 159.798 530.578 158.954C529.67 158.104 529.216 156.936 529.216 155.447C529.216 154.492 529.43 153.663 529.857 152.96C530.285 152.257 530.895 151.718 531.686 151.343C532.477 150.968 533.388 150.78 534.419 150.78C535.485 150.78 536.408 150.977 537.188 151.369C537.973 151.762 538.573 152.307 538.989 153.004C539.411 153.701 539.622 154.48 539.622 155.342ZM535.825 155.359C535.825 154.135 535.356 153.522 534.419 153.522C533.481 153.522 533.013 154.164 533.013 155.447C533.013 156.801 533.487 157.478 534.437 157.478C535.362 157.478 535.825 156.771 535.825 155.359Z" fill="#1D1D1D" fill-opacity="0.5"/>
<path d="M408.878 178H407.203V168.197H408.878V178ZM417.354 178H415.769V174.056C415.769 172.748 415.306 172.094 414.381 172.094C413.898 172.094 413.499 172.276 413.185 172.641C412.87 173.001 412.713 173.456 412.713 174.008V178H411.12V171H412.713V172.162H412.74C413.264 171.278 414.021 170.836 415.01 170.836C415.771 170.836 416.352 171.084 416.753 171.581C417.154 172.073 417.354 172.786 417.354 173.721V178ZM418.858 177.781V176.312C419.451 176.763 420.105 176.988 420.82 176.988C421.777 176.988 422.256 176.706 422.256 176.141C422.256 175.981 422.215 175.847 422.133 175.737C422.051 175.623 421.939 175.523 421.798 175.437C421.661 175.35 421.497 175.272 421.306 175.204C421.119 175.136 420.909 175.058 420.677 174.972C420.39 174.858 420.13 174.737 419.897 174.609C419.67 174.482 419.478 174.338 419.323 174.179C419.173 174.015 419.059 173.83 418.981 173.625C418.904 173.42 418.865 173.181 418.865 172.907C418.865 172.57 418.945 172.274 419.104 172.019C419.264 171.759 419.478 171.542 419.747 171.369C420.016 171.191 420.321 171.059 420.663 170.973C421.005 170.882 421.358 170.836 421.723 170.836C422.37 170.836 422.949 170.934 423.459 171.13V172.518C422.967 172.18 422.402 172.012 421.764 172.012C421.563 172.012 421.381 172.032 421.217 172.073C421.057 172.114 420.921 172.171 420.807 172.244C420.693 172.317 420.604 172.406 420.54 172.511C420.476 172.611 420.444 172.723 420.444 172.846C420.444 172.996 420.476 173.124 420.54 173.229C420.604 173.333 420.697 173.427 420.82 173.509C420.948 173.586 421.098 173.659 421.271 173.728C421.449 173.791 421.652 173.862 421.88 173.939C422.181 174.062 422.45 174.188 422.687 174.315C422.928 174.443 423.133 174.589 423.302 174.753C423.47 174.912 423.6 175.099 423.691 175.313C423.783 175.523 423.828 175.774 423.828 176.065C423.828 176.421 423.746 176.731 423.582 176.995C423.418 177.259 423.199 177.478 422.926 177.651C422.652 177.825 422.336 177.952 421.976 178.034C421.62 178.121 421.244 178.164 420.848 178.164C420.082 178.164 419.419 178.036 418.858 177.781ZM426.139 169.53C425.879 169.53 425.656 169.446 425.469 169.277C425.286 169.109 425.195 168.895 425.195 168.635C425.195 168.375 425.286 168.159 425.469 167.985C425.656 167.812 425.879 167.726 426.139 167.726C426.408 167.726 426.635 167.812 426.822 167.985C427.009 168.159 427.103 168.375 427.103 168.635C427.103 168.881 427.009 169.093 426.822 169.271C426.635 169.444 426.408 169.53 426.139 169.53ZM426.925 178H425.339V171H426.925V178ZM433.063 172.511C432.872 172.36 432.596 172.285 432.236 172.285C431.767 172.285 431.375 172.497 431.061 172.921C430.746 173.345 430.589 173.921 430.589 174.65V178H429.003V171H430.589V172.442H430.616C430.771 171.95 431.008 171.567 431.327 171.294C431.651 171.016 432.011 170.877 432.407 170.877C432.694 170.877 432.913 170.92 433.063 171.007V172.511ZM439.558 178H438.02V176.906H437.992C437.509 177.745 436.8 178.164 435.866 178.164C435.178 178.164 434.638 177.977 434.246 177.604C433.859 177.23 433.665 176.735 433.665 176.12C433.665 174.799 434.426 174.028 435.948 173.81L438.026 173.516C438.026 172.518 437.552 172.019 436.604 172.019C435.771 172.019 435.019 172.306 434.349 172.88V171.492C435.087 171.055 435.939 170.836 436.905 170.836C438.674 170.836 439.558 171.706 439.558 173.447V178ZM438.026 174.562L436.557 174.767C436.101 174.826 435.757 174.938 435.524 175.102C435.297 175.261 435.183 175.544 435.183 175.949C435.183 176.245 435.287 176.489 435.497 176.681C435.711 176.868 435.996 176.961 436.352 176.961C436.835 176.961 437.233 176.792 437.548 176.455C437.867 176.113 438.026 175.685 438.026 175.17V174.562ZM444.917 177.781V176.312C445.509 176.763 446.163 176.988 446.879 176.988C447.836 176.988 448.314 176.706 448.314 176.141C448.314 175.981 448.273 175.847 448.191 175.737C448.109 175.623 447.998 175.523 447.856 175.437C447.72 175.35 447.556 175.272 447.364 175.204C447.177 175.136 446.968 175.058 446.735 174.972C446.448 174.858 446.188 174.737 445.956 174.609C445.728 174.482 445.537 174.338 445.382 174.179C445.231 174.015 445.118 173.83 445.04 173.625C444.963 173.42 444.924 173.181 444.924 172.907C444.924 172.57 445.004 172.274 445.163 172.019C445.323 171.759 445.537 171.542 445.806 171.369C446.075 171.191 446.38 171.059 446.722 170.973C447.063 170.882 447.417 170.836 447.781 170.836C448.428 170.836 449.007 170.934 449.518 171.13V172.518C449.025 172.18 448.46 172.012 447.822 172.012C447.622 172.012 447.439 172.032 447.275 172.073C447.116 172.114 446.979 172.171 446.865 172.244C446.751 172.317 446.662 172.406 446.599 172.511C446.535 172.611 446.503 172.723 446.503 172.846C446.503 172.996 446.535 173.124 446.599 173.229C446.662 173.333 446.756 173.427 446.879 173.509C447.007 173.586 447.157 173.659 447.33 173.728C447.508 173.791 447.711 173.862 447.938 173.939C448.239 174.062 448.508 174.188 448.745 174.315C448.987 174.443 449.192 174.589 449.36 174.753C449.529 174.912 449.659 175.099 449.75 175.313C449.841 175.523 449.887 175.774 449.887 176.065C449.887 176.421 449.805 176.731 449.641 176.995C449.477 177.259 449.258 177.478 448.984 177.651C448.711 177.825 448.394 177.952 448.034 178.034C447.679 178.121 447.303 178.164 446.906 178.164C446.141 178.164 445.478 178.036 444.917 177.781ZM457.324 174.931H452.553C452.571 175.578 452.769 176.077 453.147 176.428C453.53 176.779 454.054 176.954 454.72 176.954C455.467 176.954 456.153 176.731 456.777 176.284V177.562C456.139 177.964 455.296 178.164 454.248 178.164C453.218 178.164 452.409 177.847 451.821 177.214C451.238 176.576 450.946 175.68 450.946 174.527C450.946 173.438 451.268 172.552 451.91 171.868C452.557 171.18 453.359 170.836 454.316 170.836C455.273 170.836 456.014 171.144 456.538 171.759C457.062 172.374 457.324 173.229 457.324 174.322V174.931ZM455.793 173.81C455.788 173.24 455.654 172.798 455.39 172.483C455.125 172.164 454.761 172.005 454.296 172.005C453.84 172.005 453.453 172.171 453.134 172.504C452.819 172.837 452.626 173.272 452.553 173.81H455.793ZM464.939 178H463.354V176.893H463.326C462.866 177.74 462.15 178.164 461.18 178.164C459.525 178.164 458.698 177.171 458.698 175.184V171H460.284V175.02C460.284 176.277 460.77 176.906 461.74 176.906C462.21 176.906 462.595 176.733 462.896 176.387C463.201 176.04 463.354 175.587 463.354 175.026V171H464.939V178ZM476.793 174.931H472.021C472.04 175.578 472.238 176.077 472.616 176.428C472.999 176.779 473.523 176.954 474.188 176.954C474.936 176.954 475.622 176.731 476.246 176.284V177.562C475.608 177.964 474.765 178.164 473.717 178.164C472.687 178.164 471.878 177.847 471.29 177.214C470.707 176.576 470.415 175.68 470.415 174.527C470.415 173.438 470.736 172.552 471.379 171.868C472.026 171.18 472.828 170.836 473.785 170.836C474.742 170.836 475.483 171.144 476.007 171.759C476.531 172.374 476.793 173.229 476.793 174.322V174.931ZM475.262 173.81C475.257 173.24 475.123 172.798 474.858 172.483C474.594 172.164 474.229 172.005 473.765 172.005C473.309 172.005 472.922 172.171 472.603 172.504C472.288 172.837 472.094 173.272 472.021 173.81H475.262ZM484.538 178H482.952V174.056C482.952 172.748 482.49 172.094 481.564 172.094C481.081 172.094 480.683 172.276 480.368 172.641C480.054 173.001 479.896 173.456 479.896 174.008V178H478.304V171H479.896V172.162H479.924C480.448 171.278 481.204 170.836 482.193 170.836C482.954 170.836 483.535 171.084 483.937 171.581C484.338 172.073 484.538 172.786 484.538 173.721V178ZM492.844 178H491.258V176.811H491.23C490.72 177.713 489.934 178.164 488.872 178.164C488.011 178.164 487.32 177.852 486.801 177.228C486.286 176.599 486.028 175.744 486.028 174.664C486.028 173.507 486.313 172.579 486.883 171.882C487.457 171.185 488.22 170.836 489.173 170.836C490.116 170.836 490.802 171.214 491.23 171.971H491.258V167.637H492.844V178ZM491.278 174.801V173.885C491.278 173.388 491.117 172.966 490.793 172.62C490.469 172.274 490.057 172.101 489.556 172.101C488.963 172.101 488.496 172.322 488.154 172.764C487.817 173.206 487.648 173.819 487.648 174.603C487.648 175.313 487.81 175.876 488.134 176.291C488.462 176.701 488.902 176.906 489.453 176.906C489.995 176.906 490.435 176.708 490.772 176.312C491.11 175.91 491.278 175.407 491.278 174.801ZM500.842 174.931H496.07C496.089 175.578 496.287 176.077 496.665 176.428C497.048 176.779 497.572 176.954 498.237 176.954C498.985 176.954 499.671 176.731 500.295 176.284V177.562C499.657 177.964 498.814 178.164 497.766 178.164C496.736 178.164 495.927 177.847 495.339 177.214C494.756 176.576 494.464 175.68 494.464 174.527C494.464 173.438 494.785 172.552 495.428 171.868C496.075 171.18 496.877 170.836 497.834 170.836C498.791 170.836 499.532 171.144 500.056 171.759C500.58 172.374 500.842 173.229 500.842 174.322V174.931ZM499.311 173.81C499.306 173.24 499.172 172.798 498.907 172.483C498.643 172.164 498.278 172.005 497.813 172.005C497.358 172.005 496.97 172.171 496.651 172.504C496.337 172.837 496.143 173.272 496.07 173.81H499.311ZM506.413 172.511C506.222 172.36 505.946 172.285 505.586 172.285C505.117 172.285 504.725 172.497 504.41 172.921C504.096 173.345 503.938 173.921 503.938 174.65V178H502.353V171H503.938V172.442H503.966C504.121 171.95 504.358 171.567 504.677 171.294C505 171.016 505.36 170.877 505.757 170.877C506.044 170.877 506.263 170.92 506.413 171.007V172.511ZM513.338 174.931H508.566C508.585 175.578 508.783 176.077 509.161 176.428C509.544 176.779 510.068 176.954 510.733 176.954C511.481 176.954 512.167 176.731 512.791 176.284V177.562C512.153 177.964 511.31 178.164 510.262 178.164C509.232 178.164 508.423 177.847 507.835 177.214C507.252 176.576 506.96 175.68 506.96 174.527C506.96 173.438 507.281 172.552 507.924 171.868C508.571 171.18 509.373 170.836 510.33 170.836C511.287 170.836 512.028 171.144 512.552 171.759C513.076 172.374 513.338 173.229 513.338 174.322V174.931ZM511.807 173.81C511.802 173.24 511.668 172.798 511.403 172.483C511.139 172.164 510.774 172.005 510.31 172.005C509.854 172.005 509.466 172.171 509.147 172.504C508.833 172.837 508.639 173.272 508.566 173.81H511.807ZM519.859 177.679C519.299 178.002 518.636 178.164 517.87 178.164C516.831 178.164 515.993 177.84 515.354 177.193C514.716 176.542 514.397 175.699 514.397 174.664C514.397 173.511 514.739 172.586 515.423 171.889C516.111 171.187 517.029 170.836 518.178 170.836C518.816 170.836 519.379 170.948 519.866 171.171V172.647C519.379 172.283 518.859 172.101 518.308 172.101C517.638 172.101 517.089 172.328 516.66 172.784C516.232 173.235 516.018 173.828 516.018 174.562C516.018 175.286 516.218 175.858 516.619 176.277C517.025 176.697 517.567 176.906 518.246 176.906C518.816 176.906 519.354 176.703 519.859 176.298V177.679ZM519.292 179.695C519.292 180.579 518.636 181.021 517.323 181.021C517.109 181.021 516.924 181.015 516.77 181.001V180.242C516.97 180.27 517.132 180.283 517.255 180.283C517.861 180.283 518.164 180.096 518.164 179.723C518.164 179.385 517.888 179.217 517.337 179.217C517.291 179.217 517.202 179.226 517.07 179.244V178H518V178.643C518.396 178.643 518.711 178.734 518.943 178.916C519.176 179.103 519.292 179.363 519.292 179.695ZM524.542 178.164C523.462 178.164 522.598 177.838 521.951 177.187C521.309 176.53 520.987 175.662 520.987 174.582C520.987 173.406 521.322 172.488 521.992 171.827C522.667 171.166 523.574 170.836 524.713 170.836C525.807 170.836 526.659 171.157 527.27 171.8C527.88 172.442 528.186 173.333 528.186 174.473C528.186 175.589 527.855 176.485 527.194 177.159C526.538 177.829 525.654 178.164 524.542 178.164ZM524.617 172.101C523.997 172.101 523.507 172.317 523.147 172.75C522.787 173.183 522.607 173.78 522.607 174.541C522.607 175.275 522.79 175.854 523.154 176.277C523.519 176.697 524.007 176.906 524.617 176.906C525.242 176.906 525.72 176.699 526.053 176.284C526.39 175.869 526.559 175.279 526.559 174.514C526.559 173.743 526.39 173.149 526.053 172.729C525.72 172.31 525.242 172.101 524.617 172.101ZM538.672 177.679C538.111 178.002 537.448 178.164 536.683 178.164C535.644 178.164 534.805 177.84 534.167 177.193C533.529 176.542 533.21 175.699 533.21 174.664C533.21 173.511 533.552 172.586 534.235 171.889C534.924 171.187 535.842 170.836 536.99 170.836C537.628 170.836 538.191 170.948 538.679 171.171V172.647C538.191 172.283 537.672 172.101 537.12 172.101C536.45 172.101 535.901 172.328 535.473 172.784C535.044 173.235 534.83 173.828 534.83 174.562C534.83 175.286 535.031 175.858 535.432 176.277C535.837 176.697 536.38 176.906 537.059 176.906C537.628 176.906 538.166 176.703 538.672 176.298V177.679ZM543.354 178.164C542.274 178.164 541.411 177.838 540.764 177.187C540.121 176.53 539.8 175.662 539.8 174.582C539.8 173.406 540.135 172.488 540.805 171.827C541.479 171.166 542.386 170.836 543.525 170.836C544.619 170.836 545.471 171.157 546.082 171.8C546.693 172.442 546.998 173.333 546.998 174.473C546.998 175.589 546.668 176.485 546.007 177.159C545.351 177.829 544.466 178.164 543.354 178.164ZM543.43 172.101C542.81 172.101 542.32 172.317 541.96 172.75C541.6 173.183 541.42 173.78 541.42 174.541C541.42 175.275 541.602 175.854 541.967 176.277C542.331 176.697 542.819 176.906 543.43 176.906C544.054 176.906 544.533 176.699 544.865 176.284C545.202 175.869 545.371 175.279 545.371 174.514C545.371 173.743 545.202 173.149 544.865 172.729C544.533 172.31 544.054 172.101 543.43 172.101ZM559.084 178H557.498V174.186C557.498 173.452 557.393 172.921 557.184 172.593C556.979 172.265 556.63 172.101 556.138 172.101C555.723 172.101 555.37 172.308 555.078 172.723C554.791 173.137 554.647 173.634 554.647 174.213V178H553.055V174.056C553.055 172.752 552.594 172.101 551.674 172.101C551.245 172.101 550.892 172.297 550.614 172.688C550.341 173.08 550.204 173.589 550.204 174.213V178H548.618V171H550.204V172.107H550.231C550.737 171.26 551.473 170.836 552.439 170.836C552.923 170.836 553.344 170.97 553.704 171.239C554.069 171.504 554.317 171.852 554.449 172.285C554.969 171.319 555.743 170.836 556.773 170.836C558.314 170.836 559.084 171.786 559.084 173.687V178ZM566.945 174.931H562.174C562.192 175.578 562.39 176.077 562.769 176.428C563.151 176.779 563.675 176.954 564.341 176.954C565.088 176.954 565.774 176.731 566.398 176.284V177.562C565.76 177.964 564.917 178.164 563.869 178.164C562.839 178.164 562.03 177.847 561.442 177.214C560.859 176.576 560.567 175.68 560.567 174.527C560.567 173.438 560.889 172.552 561.531 171.868C562.178 171.18 562.98 170.836 563.938 170.836C564.895 170.836 565.635 171.144 566.159 171.759C566.683 172.374 566.945 173.229 566.945 174.322V174.931ZM565.414 173.81C565.41 173.24 565.275 172.798 565.011 172.483C564.746 172.164 564.382 172.005 563.917 172.005C563.461 172.005 563.074 172.171 562.755 172.504C562.44 172.837 562.247 173.272 562.174 173.81H565.414ZM572.517 172.511C572.325 172.36 572.049 172.285 571.689 172.285C571.22 172.285 570.828 172.497 570.514 172.921C570.199 173.345 570.042 173.921 570.042 174.65V178H568.456V171H570.042V172.442H570.069C570.224 171.95 570.461 171.567 570.78 171.294C571.104 171.016 571.464 170.877 571.86 170.877C572.147 170.877 572.366 170.92 572.517 171.007V172.511ZM578.525 177.679C577.965 178.002 577.302 178.164 576.536 178.164C575.497 178.164 574.659 177.84 574.021 177.193C573.382 176.542 573.063 175.699 573.063 174.664C573.063 173.511 573.405 172.586 574.089 171.889C574.777 171.187 575.695 170.836 576.844 170.836C577.482 170.836 578.045 170.948 578.532 171.171V172.647C578.045 172.283 577.525 172.101 576.974 172.101C576.304 172.101 575.755 172.328 575.326 172.784C574.898 173.235 574.684 173.828 574.684 174.562C574.684 175.286 574.884 175.858 575.285 176.277C575.691 176.697 576.233 176.906 576.912 176.906C577.482 176.906 578.02 176.703 578.525 176.298V177.679ZM580.904 169.53C580.645 169.53 580.421 169.446 580.234 169.277C580.052 169.109 579.961 168.895 579.961 168.635C579.961 168.375 580.052 168.159 580.234 167.985C580.421 167.812 580.645 167.726 580.904 167.726C581.173 167.726 581.401 167.812 581.588 167.985C581.775 168.159 581.868 168.375 581.868 168.635C581.868 168.881 581.775 169.093 581.588 169.271C581.401 169.444 581.173 169.53 580.904 169.53ZM581.69 178H580.104V171H581.69V178ZM589.142 178H587.604V176.906H587.576C587.093 177.745 586.384 178.164 585.45 178.164C584.762 178.164 584.222 177.977 583.83 177.604C583.443 177.23 583.249 176.735 583.249 176.12C583.249 174.799 584.01 174.028 585.532 173.81L587.61 173.516C587.61 172.518 587.136 172.019 586.188 172.019C585.354 172.019 584.603 172.306 583.933 172.88V171.492C584.671 171.055 585.523 170.836 586.489 170.836C588.257 170.836 589.142 171.706 589.142 173.447V178ZM587.61 174.562L586.141 174.767C585.685 174.826 585.341 174.938 585.108 175.102C584.881 175.261 584.767 175.544 584.767 175.949C584.767 176.245 584.871 176.489 585.081 176.681C585.295 176.868 585.58 176.961 585.936 176.961C586.419 176.961 586.817 176.792 587.132 176.455C587.451 176.113 587.61 175.685 587.61 175.17V174.562ZM592.676 178H591.083V167.637H592.676V178Z" fill="#1D1D1D" fill-opacity="0.5"/>
</g>
<defs>
<clipPath id="clip0_386_479">
<rect width="1000" height="640" fill="white"/>
</clipPath>
</defs>
</svg>
