<svg width="1000" height="640" viewBox="0 0 1000 640" fill="none" xmlns="http://www.w3.org/2000/svg">
<g clip-path="url(#clip0_386_293)">
<rect width="1000" height="640" fill="white"/>
<path d="M222.882 687.899C174.849 676.841 99.3686 704.341 101.027 655.009C101.682 635.508 107.657 623.021 121.768 609.569C151.673 581.06 185.173 628.312 226.338 625.148C279.333 621.075 306.22 551.693 353.378 576.246C375.971 588.009 390.924 600.285 396.589 625.148C406.07 666.753 366.134 694.703 325.723 708.239C286.899 721.243 262.779 697.084 222.882 687.899Z" fill="#0C7D81"/>
<path d="M791.067 549.382C845.59 471.011 769.992 325.069 865.067 316.382C965.67 307.191 975.121 465.935 945.067 562.382C904.594 692.268 565.852 814.719 621.067 690.382C656.074 611.553 741.809 620.186 791.067 549.382Z" fill="#0469B1"/>
<path d="M807.004 246.187C818.209 203.91 791.761 156.98 830.504 136.687C880.225 110.643 910.878 229.608 875.504 273.187C853.36 300.468 805.004 334.692 790.504 302.687C781.019 281.749 801.115 268.406 807.004 246.187Z" fill="#F9BB0D"/>
<path d="M1016.67 -5.2261C976.12 -25.1373 966.157 -79.0723 921.669 -71.2261C861.786 -60.6645 883.44 23.904 898.669 82.7739C917.967 157.37 959.141 222.388 1036.17 224.274C1096.67 225.755 1167.33 202.793 1167.67 142.274C1167.81 117.568 1146.35 107.48 1146.17 82.7739C1146.02 62.7374 1161.02 53.2651 1159.67 33.2739C1155.76 -24.4275 1068.58 20.2647 1016.67 -5.2261Z" fill="#E30140"/>
<circle cx="984" cy="80" r="4" fill="#51001A"/>
<path d="M597.658 -4.51659C572.33 -9.26401 549.113 6.88986 532.158 -12.5166C519.105 -27.4577 521.875 -42.7181 523.158 -62.5166C526.955 -121.082 579.427 -174.012 636.658 -161.017C687.118 -149.558 712.797 -99.8956 706.658 -48.5166C703.312 -20.51 699.45 3.49782 674.158 15.9834C646.424 29.6746 628.058 1.1814 597.658 -4.51659Z" fill="#0C7D81"/>
<path d="M103.151 75.0096C137.218 61.8936 174.67 85.5929 194.438 54.9045C221.048 13.5958 159.011 -19.9861 115.742 -43.2712C60.9131 -72.7765 -0.244823 -84.0513 -43.6471 -39.4085C-77.7374 -4.34369 -102.906 50.159 -67.2065 83.5842C-52.6327 97.2296 -34.8695 90.0404 -20.1207 103.497C-8.15956 114.409 -10.7758 128.503 1.82214 138.675C38.184 168.032 59.5379 91.801 103.151 75.0096Z" fill="#E30140"/>
<circle cx="71.4408" cy="37.1047" r="3.2323" transform="rotate(42.8335 71.4408 37.1047)" fill="#51001A"/>
<path d="M-9.40447 16.1474L1.52426 16.0007C1.98613 15.9945 2.39215 16.3054 2.50654 16.7529L5.83462 29.7734C5.93615 30.1706 6.26983 30.4656 6.67648 30.5177L18.9351 32.0871C19.4276 32.1502 19.7993 32.5652 19.8079 33.0616L20.0201 45.2452C20.0293 45.7782 20.4552 46.2103 20.9881 46.2272L31.2632 46.5545C31.8464 46.5731 32.2899 47.085 32.2252 47.6649L31.2132 56.7387C31.139 57.4042 31.727 57.9531 32.3858 57.8335L43.7513 55.7687C44.3808 55.6543 44.9542 56.1523 44.9293 56.7915L44.3975 70.4347" stroke="#51001A" stroke-width="7" stroke-linecap="round"/>
<path d="M6.56778 640.207C-46.4493 566.007 -97.1813 407.576 -5.98801 407.026C28.5639 406.818 42.1048 433.884 76.1089 440.016C127.932 449.362 174.256 382.954 209.725 421.876C239.711 454.783 205.33 491.313 206.239 535.824C207.772 610.875 277.873 672.063 226.67 726.955C163.649 794.515 60.2797 715.38 6.56778 640.207Z" fill="#EE75A7"/>
<circle cx="36" cy="523" r="4" fill="#932050"/>
<circle cx="177" cy="519" r="4" fill="#932050"/>
<path d="M103 578.5C108.679 578.5 112.5 573.099 112.5 567.5C112.5 561.901 108.679 556.5 103 556.5C97.3211 556.5 93.5 561.901 93.5 567.5C93.5 573.099 97.3211 578.5 103 578.5Z" stroke="#932050" stroke-width="5"/>
<path d="M-5.16542 203.003C-36.7886 208.582 -57.341 224.35 -69.6654 254.003C-93.3628 311.018 -14.9406 349.115 45.3346 362.503C100.74 374.808 180.957 380.089 185.335 323.503C189.206 273.456 127.583 269.482 84.3346 244.003C51.211 224.488 32.6947 196.323 -5.16542 203.003Z" fill="#9C9B9B"/>
<circle cx="15" cy="294" r="4" fill="#303636"/>
<circle cx="97" cy="294" r="4" fill="#303636"/>
<path d="M37 310.501C51.1548 292.911 59.3936 293.919 74.5 310.501" stroke="#303636" stroke-width="7" stroke-linecap="round"/>
<path d="M369.545 60.0641C334.395 66.2609 316.51 21.0984 282.545 32.0641C229.819 49.0865 323.642 136.604 379.045 136.064C420.637 135.659 467.54 117.655 467.045 76.0641C466.739 50.3795 457.157 27.4163 432.545 20.0641C404.621 11.7225 398.245 55.0044 369.545 60.0641Z" fill="#EE75A7"/>
<path d="M354 100H395" stroke="#932050" stroke-width="7" stroke-linecap="round"/>
<circle cx="343" cy="77" r="4" fill="#932050"/>
<circle cx="391" cy="77" r="4" fill="#932050"/>
<path d="M823 239.17C823 239.17 830.002 233.206 835.5 232.17C845.713 230.245 849.243 245.345 859.5 243.67C867.252 242.404 876 232.17 876 232.17" stroke="#906804" stroke-width="7" stroke-linecap="round"/>
<circle cx="830" cy="206" r="4" fill="#906804"/>
<circle cx="863" cy="206" r="4" fill="#906804"/>
<path d="M857 498C857 524 891 528.5 891 498" stroke="#022F50" stroke-width="7" stroke-linecap="round"/>
<circle cx="859" cy="478" r="4" fill="#022F50"/>
<circle cx="888" cy="478" r="4" fill="#022F50"/>
<circle cx="802" cy="42" r="7" fill="#F9BB0D"/>
<circle cx="955" cy="231" r="7" fill="#E30140"/>
<circle cx="117.742" cy="558.443" r="7" transform="rotate(-34.7594 117.742 558.443)" fill="#EE75A7"/>
<circle cx="82.7418" cy="390.443" r="7" transform="rotate(-34.7594 82.7418 390.443)" fill="#9C9B9B"/>
<circle cx="82.7418" cy="269.443" r="7" transform="rotate(-34.7594 82.7418 269.443)" fill="#9C9B9B"/>
<rect x="363" y="175.5" width="274" height="290" rx="12" fill="white"/>
<rect x="380" y="192.5" width="240" height="33" rx="7" fill="#F7F7F7"/>
<rect x="380" y="192.5" width="240" height="33" rx="7" stroke="#E6E6E6" stroke-width="2"/>
<rect x="380" y="237.5" width="240" height="33" rx="7" fill="#F7F7F7"/>
<rect x="380" y="237.5" width="240" height="33" rx="7" stroke="#E6E6E6" stroke-width="2"/>
<rect x="380" y="282.5" width="240" height="33" rx="7" fill="#F7F7F7"/>
<rect x="380" y="282.5" width="240" height="33" rx="7" stroke="#E6E6E6" stroke-width="2"/>
<rect x="380" y="327.5" width="240" height="33" rx="7" fill="#F7F7F7"/>
<rect x="380" y="327.5" width="240" height="33" rx="7" stroke="#E6E6E6" stroke-width="2"/>
<rect x="380" y="372.5" width="240" height="33" rx="7" fill="#F7F7F7"/>
<rect x="380" y="372.5" width="240" height="33" rx="7" stroke="#E6E6E6" stroke-width="2"/>
<rect x="379" y="414.5" width="242" height="35" rx="5" fill="#E30140"/>
<path d="M326.595 348.781V347.312C327.187 347.763 327.841 347.988 328.557 347.988C329.514 347.988 329.992 347.706 329.992 347.141C329.992 346.981 329.951 346.847 329.869 346.737C329.787 346.623 329.675 346.523 329.534 346.437C329.397 346.35 329.233 346.272 329.042 346.204C328.855 346.136 328.646 346.058 328.413 345.972C328.126 345.858 327.866 345.737 327.634 345.609C327.406 345.482 327.215 345.338 327.06 345.179C326.909 345.015 326.795 344.83 326.718 344.625C326.64 344.42 326.602 344.181 326.602 343.907C326.602 343.57 326.681 343.274 326.841 343.019C327 342.759 327.215 342.542 327.483 342.369C327.752 342.191 328.058 342.059 328.399 341.973C328.741 341.882 329.094 341.836 329.459 341.836C330.106 341.836 330.685 341.934 331.195 342.13V343.518C330.703 343.18 330.138 343.012 329.5 343.012C329.299 343.012 329.117 343.032 328.953 343.073C328.794 343.114 328.657 343.171 328.543 343.244C328.429 343.317 328.34 343.406 328.276 343.511C328.213 343.611 328.181 343.723 328.181 343.846C328.181 343.996 328.213 344.124 328.276 344.229C328.34 344.333 328.434 344.427 328.557 344.509C328.684 344.586 328.835 344.659 329.008 344.728C329.186 344.791 329.388 344.862 329.616 344.939C329.917 345.062 330.186 345.188 330.423 345.315C330.664 345.443 330.869 345.589 331.038 345.753C331.207 345.912 331.337 346.099 331.428 346.313C331.519 346.523 331.564 346.774 331.564 347.065C331.564 347.421 331.482 347.731 331.318 347.995C331.154 348.259 330.936 348.478 330.662 348.651C330.389 348.825 330.072 348.952 329.712 349.034C329.356 349.121 328.98 349.164 328.584 349.164C327.818 349.164 327.155 349.036 326.595 348.781ZM339.002 345.931H334.23C334.249 346.578 334.447 347.077 334.825 347.428C335.208 347.779 335.732 347.954 336.397 347.954C337.145 347.954 337.831 347.731 338.455 347.284V348.562C337.817 348.964 336.974 349.164 335.926 349.164C334.896 349.164 334.087 348.847 333.499 348.214C332.916 347.576 332.624 346.68 332.624 345.527C332.624 344.438 332.945 343.552 333.588 342.868C334.235 342.18 335.037 341.836 335.994 341.836C336.951 341.836 337.692 342.144 338.216 342.759C338.74 343.374 339.002 344.229 339.002 345.322V345.931ZM337.471 344.81C337.466 344.24 337.332 343.798 337.067 343.483C336.803 343.164 336.438 343.005 335.974 343.005C335.518 343.005 335.131 343.171 334.812 343.504C334.497 343.837 334.303 344.272 334.23 344.81H337.471ZM346.747 349H345.161V345.056C345.161 343.748 344.699 343.094 343.773 343.094C343.29 343.094 342.892 343.276 342.577 343.641C342.263 344.001 342.105 344.456 342.105 345.008V349H340.513V342H342.105V343.162H342.133C342.657 342.278 343.413 341.836 344.402 341.836C345.163 341.836 345.744 342.084 346.146 342.581C346.547 343.073 346.747 343.786 346.747 344.721V349ZM354.909 349H353.323V345.172C353.323 343.786 352.861 343.094 351.936 343.094C351.471 343.094 351.079 343.294 350.76 343.695C350.441 344.096 350.281 344.609 350.281 345.233V349H348.688V338.637H350.281V343.162H350.309C350.837 342.278 351.594 341.836 352.578 341.836C354.132 341.836 354.909 342.786 354.909 344.687V349ZM362.21 349H360.672V347.906H360.645C360.161 348.745 359.453 349.164 358.519 349.164C357.83 349.164 357.29 348.977 356.898 348.604C356.511 348.23 356.317 347.735 356.317 347.12C356.317 345.799 357.078 345.028 358.601 344.81L360.679 344.516C360.679 343.518 360.205 343.019 359.257 343.019C358.423 343.019 357.671 343.306 357.001 343.88V342.492C357.739 342.055 358.591 341.836 359.558 341.836C361.326 341.836 362.21 342.706 362.21 344.447V349ZM360.679 345.562L359.209 345.767C358.753 345.826 358.409 345.938 358.177 346.102C357.949 346.261 357.835 346.544 357.835 346.949C357.835 347.245 357.94 347.489 358.149 347.681C358.364 347.868 358.648 347.961 359.004 347.961C359.487 347.961 359.886 347.792 360.2 347.455C360.519 347.113 360.679 346.685 360.679 346.17V345.562Z" fill="#1D1D1D" fill-opacity="0.5"/>
<path d="M326.595 393.781V392.312C327.187 392.763 327.841 392.988 328.557 392.988C329.514 392.988 329.992 392.706 329.992 392.141C329.992 391.981 329.951 391.847 329.869 391.737C329.787 391.623 329.675 391.523 329.534 391.437C329.397 391.35 329.233 391.272 329.042 391.204C328.855 391.136 328.646 391.058 328.413 390.972C328.126 390.858 327.866 390.737 327.634 390.609C327.406 390.482 327.215 390.338 327.06 390.179C326.909 390.015 326.795 389.83 326.718 389.625C326.64 389.42 326.602 389.181 326.602 388.907C326.602 388.57 326.681 388.274 326.841 388.019C327 387.759 327.215 387.542 327.483 387.369C327.752 387.191 328.058 387.059 328.399 386.973C328.741 386.882 329.094 386.836 329.459 386.836C330.106 386.836 330.685 386.934 331.195 387.13V388.518C330.703 388.18 330.138 388.012 329.5 388.012C329.299 388.012 329.117 388.032 328.953 388.073C328.794 388.114 328.657 388.171 328.543 388.244C328.429 388.317 328.34 388.406 328.276 388.511C328.213 388.611 328.181 388.723 328.181 388.846C328.181 388.996 328.213 389.124 328.276 389.229C328.34 389.333 328.434 389.427 328.557 389.509C328.684 389.586 328.835 389.659 329.008 389.728C329.186 389.791 329.388 389.862 329.616 389.939C329.917 390.062 330.186 390.188 330.423 390.315C330.664 390.443 330.869 390.589 331.038 390.753C331.207 390.912 331.337 391.099 331.428 391.313C331.519 391.523 331.564 391.774 331.564 392.065C331.564 392.421 331.482 392.731 331.318 392.995C331.154 393.259 330.936 393.478 330.662 393.651C330.389 393.825 330.072 393.952 329.712 394.034C329.356 394.121 328.98 394.164 328.584 394.164C327.818 394.164 327.155 394.036 326.595 393.781ZM339.002 390.931H334.23C334.249 391.578 334.447 392.077 334.825 392.428C335.208 392.779 335.732 392.954 336.397 392.954C337.145 392.954 337.831 392.731 338.455 392.284V393.562C337.817 393.964 336.974 394.164 335.926 394.164C334.896 394.164 334.087 393.847 333.499 393.214C332.916 392.576 332.624 391.68 332.624 390.527C332.624 389.438 332.945 388.552 333.588 387.868C334.235 387.18 335.037 386.836 335.994 386.836C336.951 386.836 337.692 387.144 338.216 387.759C338.74 388.374 339.002 389.229 339.002 390.322V390.931ZM337.471 389.81C337.466 389.24 337.332 388.798 337.067 388.483C336.803 388.164 336.438 388.005 335.974 388.005C335.518 388.005 335.131 388.171 334.812 388.504C334.497 388.837 334.303 389.272 334.23 389.81H337.471ZM346.747 394H345.161V390.056C345.161 388.748 344.699 388.094 343.773 388.094C343.29 388.094 342.892 388.276 342.577 388.641C342.263 389.001 342.105 389.456 342.105 390.008V394H340.513V387H342.105V388.162H342.133C342.657 387.278 343.413 386.836 344.402 386.836C345.163 386.836 345.744 387.084 346.146 387.581C346.547 388.073 346.747 388.786 346.747 389.721V394ZM354.909 394H353.323V390.172C353.323 388.786 352.861 388.094 351.936 388.094C351.471 388.094 351.079 388.294 350.76 388.695C350.441 389.096 350.281 389.609 350.281 390.233V394H348.688V383.637H350.281V388.162H350.309C350.837 387.278 351.594 386.836 352.578 386.836C354.132 386.836 354.909 387.786 354.909 389.687V394ZM362.21 394H360.672V392.906H360.645C360.161 393.745 359.453 394.164 358.519 394.164C357.83 394.164 357.29 393.977 356.898 393.604C356.511 393.23 356.317 392.735 356.317 392.12C356.317 390.799 357.078 390.028 358.601 389.81L360.679 389.516C360.679 388.518 360.205 388.019 359.257 388.019C358.423 388.019 357.671 388.306 357.001 388.88V387.492C357.739 387.055 358.591 386.836 359.558 386.836C361.326 386.836 362.21 387.706 362.21 389.447V394ZM360.679 390.562L359.209 390.767C358.753 390.826 358.409 390.938 358.177 391.102C357.949 391.261 357.835 391.544 357.835 391.949C357.835 392.245 357.94 392.489 358.149 392.681C358.364 392.868 358.648 392.961 359.004 392.961C359.487 392.961 359.886 392.792 360.2 392.455C360.519 392.113 360.679 391.685 360.679 391.17V390.562Z" fill="#1D1D1D" fill-opacity="0.5"/>
<path d="M445.122 162.54C445.122 163.817 444.853 164.948 444.313 165.933C443.78 166.911 443.016 167.667 442.02 168.2C441.023 168.733 439.875 169 438.574 169H433.239V156.396H438.46C442.901 156.396 445.122 158.444 445.122 162.54ZM441.088 162.575C441.088 161.96 440.962 161.406 440.71 160.914C440.464 160.422 440.109 160.041 439.646 159.771C439.184 159.502 438.639 159.367 438.012 159.367H437.036V166.029H438.1C439.008 166.029 439.731 165.719 440.271 165.098C440.815 164.471 441.088 163.63 441.088 162.575ZM451.547 169V167.629H451.512C450.914 168.689 450 169.22 448.77 169.22C447.92 169.22 447.255 168.968 446.774 168.464C446.294 167.96 446.054 167.286 446.054 166.442C446.054 164.673 447.141 163.647 449.314 163.366L451.547 163.076C451.547 162.783 451.415 162.543 451.151 162.355C450.888 162.168 450.533 162.074 450.088 162.074C449.08 162.074 448.017 162.361 446.897 162.936V160.501C447.384 160.29 447.993 160.117 448.726 159.982C449.458 159.848 450.085 159.78 450.606 159.78C452.136 159.78 453.243 160.108 453.929 160.765C454.62 161.415 454.966 162.505 454.966 164.034V169H451.547ZM449.332 165.941C449.332 166.188 449.408 166.39 449.561 166.548C449.719 166.706 449.941 166.785 450.229 166.785C450.621 166.785 450.938 166.639 451.178 166.346C451.424 166.053 451.547 165.678 451.547 165.221V164.878L450.281 165.054C449.648 165.159 449.332 165.455 449.332 165.941ZM462.674 169V167.954H462.639C462.34 168.347 461.95 168.657 461.47 168.886C460.989 169.108 460.515 169.22 460.046 169.22C459.278 169.22 458.602 169.032 458.016 168.657C457.43 168.276 456.99 167.746 456.697 167.066C456.41 166.387 456.267 165.584 456.267 164.658C456.267 163.703 456.439 162.856 456.785 162.118C457.131 161.38 457.617 160.806 458.244 160.396C458.871 159.985 459.574 159.78 460.354 159.78C460.723 159.78 461.062 159.833 461.373 159.938C461.689 160.044 461.962 160.188 462.19 160.369C462.425 160.545 462.574 160.721 462.639 160.896H462.674V155.676H466.418V169H462.674ZM462.753 164.228C462.753 163.688 462.633 163.27 462.393 162.971C462.158 162.672 461.839 162.522 461.435 162.522C461.03 162.522 460.699 162.71 460.441 163.085C460.189 163.454 460.063 163.949 460.063 164.57C460.063 165.842 460.503 166.478 461.382 166.478C461.798 166.478 462.129 166.308 462.375 165.968C462.627 165.622 462.753 165.121 462.753 164.465V164.228ZM478.239 164.342C478.239 165.859 477.779 167.052 476.859 167.919C475.945 168.786 474.665 169.22 473.019 169.22C471.384 169.22 470.109 168.798 469.195 167.954C468.287 167.104 467.833 165.936 467.833 164.447C467.833 163.492 468.047 162.663 468.475 161.96C468.902 161.257 469.512 160.718 470.303 160.343C471.094 159.968 472.005 159.78 473.036 159.78C474.103 159.78 475.025 159.977 475.805 160.369C476.59 160.762 477.19 161.307 477.606 162.004C478.028 162.701 478.239 163.48 478.239 164.342ZM474.442 164.359C474.442 163.135 473.974 162.522 473.036 162.522C472.099 162.522 471.63 163.164 471.63 164.447C471.63 165.801 472.104 166.478 473.054 166.478C473.979 166.478 474.442 165.771 474.442 164.359ZM486.949 166.012C486.949 167.031 486.56 167.822 485.78 168.385C485.007 168.941 483.926 169.22 482.537 169.22C482.133 169.22 481.632 169.179 481.034 169.097C480.442 169.015 479.959 168.915 479.584 168.798V166.17C480.691 166.662 481.617 166.908 482.361 166.908C483.094 166.908 483.46 166.718 483.46 166.337C483.46 166.179 483.375 166.05 483.205 165.95C483.035 165.845 482.59 165.672 481.869 165.432C481.072 165.18 480.492 164.846 480.129 164.43C479.766 164.014 479.584 163.472 479.584 162.804C479.584 161.872 479.953 161.137 480.691 160.598C481.436 160.053 482.479 159.78 483.82 159.78C484.605 159.78 485.438 159.895 486.316 160.123V162.646C485.947 162.487 485.543 162.355 485.104 162.25C484.664 162.145 484.295 162.092 483.996 162.092C483.75 162.092 483.554 162.133 483.407 162.215C483.261 162.297 483.188 162.411 483.188 162.558C483.188 162.728 483.267 162.865 483.425 162.971C483.583 163.076 483.899 163.202 484.374 163.349C485.294 163.618 485.953 163.964 486.352 164.386C486.75 164.808 486.949 165.35 486.949 166.012ZM503.991 160.554C503.991 161.415 503.771 162.18 503.332 162.848C502.898 163.516 502.277 164.034 501.469 164.403C500.66 164.767 499.72 164.948 498.647 164.948H497.487V169H493.69V156.396H498.858C500.634 156.396 501.932 156.733 502.752 157.407C503.578 158.081 503.991 159.13 503.991 160.554ZM499.975 160.686C499.975 160.17 499.825 159.78 499.526 159.517C499.228 159.253 498.788 159.121 498.208 159.121H497.487V162.232H498.34C499.43 162.232 499.975 161.717 499.975 160.686ZM508.386 165.563C508.45 165.95 508.673 166.255 509.054 166.478C509.435 166.694 509.938 166.803 510.565 166.803C511.438 166.803 512.265 166.636 513.044 166.302V168.675C512.136 169.038 511.034 169.22 509.739 169.22C508.169 169.22 506.947 168.818 506.074 168.016C505.201 167.213 504.765 166.108 504.765 164.702C504.765 163.735 504.955 162.883 505.336 162.145C505.723 161.406 506.291 160.829 507.041 160.413C507.797 159.991 508.629 159.78 509.537 159.78C510.469 159.78 511.266 159.962 511.928 160.325C512.59 160.688 513.091 161.198 513.431 161.854C513.776 162.511 513.949 163.278 513.949 164.157V165.563H508.386ZM510.636 163.604C510.636 162.566 510.264 162.048 509.52 162.048C509.209 162.048 508.948 162.191 508.737 162.479C508.526 162.76 508.403 163.135 508.368 163.604H510.636ZM522.562 166.012C522.562 167.031 522.173 167.822 521.394 168.385C520.62 168.941 519.539 169.22 518.15 169.22C517.746 169.22 517.245 169.179 516.647 169.097C516.056 169.015 515.572 168.915 515.197 168.798V166.17C516.305 166.662 517.23 166.908 517.975 166.908C518.707 166.908 519.073 166.718 519.073 166.337C519.073 166.179 518.988 166.05 518.818 165.95C518.648 165.845 518.203 165.672 517.482 165.432C516.686 165.18 516.105 164.846 515.742 164.43C515.379 164.014 515.197 163.472 515.197 162.804C515.197 161.872 515.566 161.137 516.305 160.598C517.049 160.053 518.092 159.78 519.434 159.78C520.219 159.78 521.051 159.895 521.93 160.123V162.646C521.561 162.487 521.156 162.355 520.717 162.25C520.277 162.145 519.908 162.092 519.609 162.092C519.363 162.092 519.167 162.133 519.021 162.215C518.874 162.297 518.801 162.411 518.801 162.558C518.801 162.728 518.88 162.865 519.038 162.971C519.196 163.076 519.513 163.202 519.987 163.349C520.907 163.618 521.566 163.964 521.965 164.386C522.363 164.808 522.562 165.35 522.562 166.012ZM531.264 166.012C531.264 167.031 530.874 167.822 530.095 168.385C529.321 168.941 528.24 169.22 526.852 169.22C526.447 169.22 525.946 169.179 525.349 169.097C524.757 169.015 524.273 168.915 523.898 168.798V166.17C525.006 166.662 525.932 166.908 526.676 166.908C527.408 166.908 527.774 166.718 527.774 166.337C527.774 166.179 527.689 166.05 527.52 165.95C527.35 165.845 526.904 165.672 526.184 165.432C525.387 165.18 524.807 164.846 524.443 164.43C524.08 164.014 523.898 163.472 523.898 162.804C523.898 161.872 524.268 161.137 525.006 160.598C525.75 160.053 526.793 159.78 528.135 159.78C528.92 159.78 529.752 159.895 530.631 160.123V162.646C530.262 162.487 529.857 162.355 529.418 162.25C528.979 162.145 528.609 162.092 528.311 162.092C528.064 162.092 527.868 162.133 527.722 162.215C527.575 162.297 527.502 162.411 527.502 162.558C527.502 162.728 527.581 162.865 527.739 162.971C527.897 163.076 528.214 163.202 528.688 163.349C529.608 163.618 530.268 163.964 530.666 164.386C531.064 164.808 531.264 165.35 531.264 166.012ZM542.663 164.342C542.663 165.859 542.203 167.052 541.283 167.919C540.369 168.786 539.089 169.22 537.442 169.22C535.808 169.22 534.533 168.798 533.619 167.954C532.711 167.104 532.257 165.936 532.257 164.447C532.257 163.492 532.471 162.663 532.898 161.96C533.326 161.257 533.936 160.718 534.727 160.343C535.518 159.968 536.429 159.78 537.46 159.78C538.526 159.78 539.449 159.977 540.229 160.369C541.014 160.762 541.614 161.307 542.03 162.004C542.452 162.701 542.663 163.48 542.663 164.342ZM538.866 164.359C538.866 163.135 538.397 162.522 537.46 162.522C536.522 162.522 536.054 163.164 536.054 164.447C536.054 165.801 536.528 166.478 537.478 166.478C538.403 166.478 538.866 165.771 538.866 164.359ZM549.053 169V167.629H549.018C548.42 168.689 547.506 169.22 546.275 169.22C545.426 169.22 544.761 168.968 544.28 168.464C543.8 167.96 543.56 167.286 543.56 166.442C543.56 164.673 544.646 163.647 546.82 163.366L549.053 163.076C549.053 162.783 548.921 162.543 548.657 162.355C548.394 162.168 548.039 162.074 547.594 162.074C546.586 162.074 545.522 162.361 544.403 162.936V160.501C544.89 160.29 545.499 160.117 546.231 159.982C546.964 159.848 547.591 159.78 548.112 159.78C549.642 159.78 550.749 160.108 551.435 160.765C552.126 161.415 552.472 162.505 552.472 164.034V169H549.053ZM546.838 165.941C546.838 166.188 546.914 166.39 547.066 166.548C547.225 166.706 547.447 166.785 547.734 166.785C548.127 166.785 548.443 166.639 548.684 166.346C548.93 166.053 549.053 165.678 549.053 165.221V164.878L547.787 165.054C547.154 165.159 546.838 165.455 546.838 165.941ZM558.132 157.574C558.132 158.102 557.938 158.529 557.552 158.857C557.171 159.186 556.667 159.35 556.04 159.35C555.431 159.35 554.93 159.18 554.537 158.84C554.15 158.5 553.957 158.078 553.957 157.574C553.957 157.059 554.145 156.643 554.52 156.326C554.9 156.004 555.407 155.843 556.04 155.843C556.667 155.843 557.171 156.004 557.552 156.326C557.938 156.643 558.132 157.059 558.132 157.574ZM554.168 169V160H557.912V169H554.168ZM567.035 166.012C567.035 167.031 566.646 167.822 565.866 168.385C565.093 168.941 564.012 169.22 562.623 169.22C562.219 169.22 561.718 169.179 561.12 169.097C560.528 169.015 560.045 168.915 559.67 168.798V166.17C560.777 166.662 561.703 166.908 562.447 166.908C563.18 166.908 563.546 166.718 563.546 166.337C563.546 166.179 563.461 166.05 563.291 165.95C563.121 165.845 562.676 165.672 561.955 165.432C561.158 165.18 560.578 164.846 560.215 164.43C559.852 164.014 559.67 163.472 559.67 162.804C559.67 161.872 560.039 161.137 560.777 160.598C561.521 160.053 562.564 159.78 563.906 159.78C564.691 159.78 565.523 159.895 566.402 160.123V162.646C566.033 162.487 565.629 162.355 565.189 162.25C564.75 162.145 564.381 162.092 564.082 162.092C563.836 162.092 563.64 162.133 563.493 162.215C563.347 162.297 563.273 162.411 563.273 162.558C563.273 162.728 563.353 162.865 563.511 162.971C563.669 163.076 563.985 163.202 564.46 163.349C565.38 163.618 566.039 163.964 566.438 164.386C566.836 164.808 567.035 165.35 567.035 166.012Z" fill="#1D1D1D" fill-opacity="0.5"/>
</g>
<defs>
<clipPath id="clip0_386_293">
<rect width="1000" height="640" fill="white"/>
</clipPath>
</defs>
</svg>
