<svg width="1000" height="640" viewBox="0 0 1000 640" fill="none" xmlns="http://www.w3.org/2000/svg">
<g clip-path="url(#clip0_432_126)">
<rect width="1000" height="640" fill="white"/>
<path d="M222.882 687.899C174.849 676.841 99.3686 704.341 101.027 655.009C101.682 635.508 107.657 623.021 121.768 609.569C151.673 581.06 185.173 628.312 226.338 625.148C279.333 621.075 306.22 551.693 353.378 576.246C375.971 588.009 390.924 600.285 396.589 625.148C406.07 666.753 366.134 694.703 325.723 708.239C286.899 721.243 262.779 697.084 222.882 687.899Z" fill="#0C7D81"/>
<path d="M791.068 549.382C845.59 471.011 769.992 325.069 865.068 316.382C965.67 307.191 975.121 465.935 945.068 562.382C904.594 692.268 565.852 814.719 621.068 690.382C656.074 611.553 741.809 620.186 791.068 549.382Z" fill="#0469B1"/>
<path d="M807.004 246.187C818.209 203.91 791.762 156.98 830.504 136.687C880.225 110.643 910.878 229.608 875.504 273.187C853.36 300.468 805.004 334.692 790.504 302.687C781.019 281.749 801.116 268.406 807.004 246.187Z" fill="#F9BB0D"/>
<path d="M1016.67 -5.2261C976.12 -25.1373 966.157 -79.0723 921.67 -71.2261C861.786 -60.6645 883.44 23.904 898.67 82.7739C917.967 157.37 959.141 222.388 1036.17 224.274C1096.67 225.755 1167.33 202.793 1167.67 142.274C1167.81 117.568 1146.35 107.48 1146.17 82.7739C1146.02 62.7374 1161.02 53.2651 1159.67 33.2739C1155.76 -24.4275 1068.58 20.2647 1016.67 -5.2261Z" fill="#E30140"/>
<circle cx="984" cy="80" r="4" fill="#51001A"/>
<path d="M597.658 -4.51659C572.33 -9.26401 549.113 6.88986 532.158 -12.5166C519.105 -27.4577 521.875 -42.7181 523.158 -62.5166C526.955 -121.082 579.427 -174.012 636.658 -161.017C687.118 -149.558 712.797 -99.8956 706.658 -48.5166C703.312 -20.51 699.45 3.49782 674.158 15.9834C646.424 29.6746 628.058 1.1814 597.658 -4.51659Z" fill="#0C7D81"/>
<path d="M103.151 75.0096C137.218 61.8936 174.67 85.5929 194.438 54.9045C221.048 13.5958 159.011 -19.9861 115.742 -43.2712C60.9131 -72.7765 -0.244823 -84.0513 -43.6471 -39.4085C-77.7374 -4.34369 -102.906 50.159 -67.2065 83.5842C-52.6327 97.2296 -34.8695 90.0404 -20.1207 103.497C-8.15956 114.409 -10.7758 128.503 1.82214 138.675C38.184 168.032 59.5379 91.801 103.151 75.0096Z" fill="#E30140"/>
<circle cx="71.4409" cy="37.1047" r="3.2323" transform="rotate(42.8335 71.4409 37.1047)" fill="#51001A"/>
<path d="M-9.4045 16.1474L1.52423 16.0007C1.9861 15.9945 2.39212 16.3054 2.50651 16.7529L5.83459 29.7734C5.93612 30.1706 6.2698 30.4656 6.67645 30.5177L18.9351 32.0871C19.4276 32.1502 19.7993 32.5652 19.8079 33.0616L20.02 45.2452C20.0293 45.7782 20.4552 46.2103 20.988 46.2272L31.2632 46.5545C31.8464 46.5731 32.2899 47.085 32.2252 47.6649L31.2131 56.7387C31.1389 57.4042 31.7269 57.9531 32.3857 57.8335L43.7513 55.7687C44.3807 55.6543 44.9542 56.1523 44.9293 56.7915L44.3975 70.4347" stroke="#51001A" stroke-width="7" stroke-linecap="round"/>
<path d="M6.56784 640.207C-46.4492 566.007 -97.1812 407.576 -5.98795 407.026C28.564 406.818 42.1049 433.884 76.1089 440.016C127.932 449.362 174.257 382.954 209.725 421.876C239.711 454.783 205.33 491.313 206.239 535.824C207.772 610.875 277.873 672.063 226.67 726.955C163.649 794.515 60.2798 715.38 6.56784 640.207Z" fill="#EE75A7"/>
<circle cx="36" cy="523" r="4" fill="#932050"/>
<circle cx="177" cy="519" r="4" fill="#932050"/>
<path d="M103 578.5C108.679 578.5 112.5 573.099 112.5 567.5C112.5 561.901 108.679 556.5 103 556.5C97.3211 556.5 93.5 561.901 93.5 567.5C93.5 573.099 97.3211 578.5 103 578.5Z" stroke="#932050" stroke-width="5"/>
<path d="M-5.16542 203.003C-36.7886 208.582 -57.341 224.35 -69.6654 254.003C-93.3628 311.018 -14.9406 349.115 45.3346 362.503C100.74 374.808 180.957 380.089 185.335 323.503C189.206 273.456 127.583 269.482 84.3346 244.003C51.211 224.488 32.6947 196.323 -5.16542 203.003Z" fill="#9C9B9B"/>
<circle cx="15" cy="294" r="4" fill="#303636"/>
<circle cx="97" cy="294" r="4" fill="#303636"/>
<path d="M37 310.501C51.1548 292.911 59.3936 293.919 74.5 310.501" stroke="#303636" stroke-width="7" stroke-linecap="round"/>
<path d="M369.545 60.0641C334.395 66.2609 316.51 21.0984 282.545 32.0641C229.819 49.0865 323.642 136.604 379.045 136.064C420.637 135.659 467.54 117.655 467.045 76.0641C466.739 50.3795 457.157 27.4163 432.545 20.0641C404.621 11.7225 398.245 55.0044 369.545 60.0641Z" fill="#EE75A7"/>
<path d="M354 100H395" stroke="#932050" stroke-width="7" stroke-linecap="round"/>
<circle cx="343" cy="77" r="4" fill="#932050"/>
<circle cx="391" cy="77" r="4" fill="#932050"/>
<path d="M823 239.17C823 239.17 830.002 233.206 835.5 232.17C845.713 230.245 849.243 245.345 859.5 243.67C867.252 242.404 876 232.17 876 232.17" stroke="#906804" stroke-width="7" stroke-linecap="round"/>
<circle cx="830" cy="206" r="4" fill="#906804"/>
<circle cx="863" cy="206" r="4" fill="#906804"/>
<path d="M857 498C857 524 891 528.5 891 498" stroke="#022F50" stroke-width="7" stroke-linecap="round"/>
<circle cx="859" cy="478" r="4" fill="#022F50"/>
<circle cx="888" cy="478" r="4" fill="#022F50"/>
<circle cx="802" cy="42" r="7" fill="#F9BB0D"/>
<circle cx="955" cy="231" r="7" fill="#E30140"/>
<circle cx="117.742" cy="558.443" r="7" transform="rotate(-34.7594 117.742 558.443)" fill="#EE75A7"/>
<circle cx="82.7418" cy="390.443" r="7" transform="rotate(-34.7594 82.7418 390.443)" fill="#9C9B9B"/>
<circle cx="82.7418" cy="269.443" r="7" transform="rotate(-34.7594 82.7418 269.443)" fill="#9C9B9B"/>
<rect x="363" y="243" width="274" height="155" rx="12" fill="white"/>
<rect x="380" y="260" width="240" height="33" rx="7" fill="#F7F7F7"/>
<rect x="380" y="260" width="240" height="33" rx="7" stroke="#E6E6E6" stroke-width="2"/>
<rect x="380" y="305" width="240" height="33" rx="7" fill="#F7F7F7"/>
<rect x="380" y="305" width="240" height="33" rx="7" stroke="#E6E6E6" stroke-width="2"/>
<path d="M475.617 220.657C474.574 221.032 473.37 221.22 472.005 221.22C470.663 221.22 469.506 220.965 468.533 220.455C467.561 219.939 466.816 219.21 466.301 218.267C465.791 217.317 465.536 216.225 465.536 214.988C465.536 213.658 465.823 212.475 466.397 211.438C466.972 210.4 467.783 209.601 468.832 209.038C469.881 208.47 471.088 208.186 472.453 208.186C473.543 208.186 474.598 208.317 475.617 208.581V212.088C475.266 211.877 474.847 211.713 474.36 211.596C473.874 211.479 473.382 211.42 472.884 211.42C471.853 211.42 471.038 211.716 470.44 212.308C469.849 212.899 469.553 213.702 469.553 214.716C469.553 215.724 469.849 216.521 470.44 217.106C471.038 217.687 471.835 217.977 472.831 217.977C473.751 217.977 474.68 217.742 475.617 217.273V220.657ZM487.245 216.342C487.245 217.859 486.785 219.052 485.865 219.919C484.951 220.786 483.671 221.22 482.024 221.22C480.39 221.22 479.115 220.798 478.201 219.954C477.293 219.104 476.839 217.936 476.839 216.447C476.839 215.492 477.053 214.663 477.48 213.96C477.908 213.257 478.518 212.718 479.309 212.343C480.1 211.968 481.011 211.78 482.042 211.78C483.108 211.78 484.031 211.977 484.811 212.369C485.596 212.762 486.196 213.307 486.612 214.004C487.034 214.701 487.245 215.48 487.245 216.342ZM483.448 216.359C483.448 215.135 482.979 214.522 482.042 214.522C481.104 214.522 480.636 215.164 480.636 216.447C480.636 217.801 481.11 218.478 482.06 218.478C482.985 218.478 483.448 217.771 483.448 216.359ZM494.479 221V216.087C494.479 215.53 494.394 215.132 494.224 214.892C494.06 214.646 493.79 214.522 493.415 214.522C493.093 214.522 492.841 214.648 492.659 214.9C492.478 215.152 492.387 215.475 492.387 215.867V221H488.643V212H492.387V213.406H492.422C492.721 212.891 493.122 212.492 493.626 212.211C494.13 211.924 494.678 211.78 495.27 211.78C497.238 211.78 498.223 213.022 498.223 215.507V221H494.479ZM506.247 220.877C506.077 220.959 505.799 221.035 505.412 221.105C505.025 221.182 504.56 221.22 504.015 221.22C502.972 221.22 502.154 220.933 501.562 220.358C500.977 219.784 500.684 218.967 500.684 217.906V214.593H499.269V212H500.684V210.233L504.375 209.214V212H506.247V214.593H504.375V217.291C504.375 218.082 504.688 218.478 505.315 218.478C505.608 218.478 505.919 218.413 506.247 218.284V220.877ZM512.408 221V219.629H512.373C511.775 220.689 510.861 221.22 509.631 221.22C508.781 221.22 508.116 220.968 507.636 220.464C507.155 219.96 506.915 219.286 506.915 218.442C506.915 216.673 508.002 215.647 510.176 215.366L512.408 215.076C512.408 214.783 512.276 214.543 512.013 214.355C511.749 214.168 511.395 214.074 510.949 214.074C509.941 214.074 508.878 214.361 507.759 214.936V212.501C508.245 212.29 508.854 212.117 509.587 211.982C510.319 211.848 510.946 211.78 511.468 211.78C512.997 211.78 514.104 212.108 514.79 212.765C515.481 213.415 515.827 214.505 515.827 216.034V221H512.408ZM510.193 217.941C510.193 218.188 510.27 218.39 510.422 218.548C510.58 218.706 510.803 218.785 511.09 218.785C511.482 218.785 511.799 218.639 512.039 218.346C512.285 218.053 512.408 217.678 512.408 217.221V216.878L511.143 217.054C510.51 217.159 510.193 217.455 510.193 217.941ZM523.86 220.877C523.69 220.959 523.412 221.035 523.025 221.105C522.639 221.182 522.173 221.22 521.628 221.22C520.585 221.22 519.768 220.933 519.176 220.358C518.59 219.784 518.297 218.967 518.297 217.906V214.593H516.882V212H518.297V210.233L521.988 209.214V212H523.86V214.593H521.988V217.291C521.988 218.082 522.302 218.478 522.929 218.478C523.222 218.478 523.532 218.413 523.86 218.284V220.877ZM535.04 216.342C535.04 217.859 534.58 219.052 533.66 219.919C532.746 220.786 531.466 221.22 529.819 221.22C528.185 221.22 526.91 220.798 525.996 219.954C525.088 219.104 524.634 217.936 524.634 216.447C524.634 215.492 524.848 214.663 525.275 213.96C525.703 213.257 526.312 212.718 527.104 212.343C527.895 211.968 528.806 211.78 529.837 211.78C530.903 211.78 531.826 211.977 532.605 212.369C533.391 212.762 533.991 213.307 534.407 214.004C534.829 214.701 535.04 215.48 535.04 216.342ZM531.243 216.359C531.243 215.135 530.774 214.522 529.837 214.522C528.899 214.522 528.431 215.164 528.431 216.447C528.431 217.801 528.905 218.478 529.854 218.478C530.78 218.478 531.243 217.771 531.243 216.359Z" fill="#1D1D1D" fill-opacity="0.5"/>
<path d="M444.878 240H443.203V230.197H444.878V240ZM453.354 240H451.769V236.056C451.769 234.748 451.306 234.094 450.381 234.094C449.898 234.094 449.499 234.276 449.185 234.641C448.87 235.001 448.713 235.456 448.713 236.008V240H447.12V233H448.713V234.162H448.74C449.264 233.278 450.021 232.836 451.01 232.836C451.771 232.836 452.352 233.084 452.753 233.581C453.154 234.073 453.354 234.786 453.354 235.721V240ZM454.858 239.781V238.312C455.451 238.763 456.105 238.988 456.82 238.988C457.777 238.988 458.256 238.706 458.256 238.141C458.256 237.981 458.215 237.847 458.133 237.737C458.051 237.623 457.939 237.523 457.798 237.437C457.661 237.35 457.497 237.272 457.306 237.204C457.119 237.136 456.909 237.058 456.677 236.972C456.39 236.858 456.13 236.737 455.897 236.609C455.67 236.482 455.478 236.338 455.323 236.179C455.173 236.015 455.059 235.83 454.981 235.625C454.904 235.42 454.865 235.181 454.865 234.907C454.865 234.57 454.945 234.274 455.104 234.019C455.264 233.759 455.478 233.542 455.747 233.369C456.016 233.191 456.321 233.059 456.663 232.973C457.005 232.882 457.358 232.836 457.723 232.836C458.37 232.836 458.949 232.934 459.459 233.13V234.518C458.967 234.18 458.402 234.012 457.764 234.012C457.563 234.012 457.381 234.032 457.217 234.073C457.057 234.114 456.921 234.171 456.807 234.244C456.693 234.317 456.604 234.406 456.54 234.511C456.476 234.611 456.444 234.723 456.444 234.846C456.444 234.996 456.476 235.124 456.54 235.229C456.604 235.333 456.697 235.427 456.82 235.509C456.948 235.586 457.098 235.659 457.271 235.728C457.449 235.791 457.652 235.862 457.88 235.939C458.181 236.062 458.45 236.188 458.687 236.315C458.928 236.443 459.133 236.589 459.302 236.753C459.47 236.912 459.6 237.099 459.691 237.313C459.783 237.523 459.828 237.774 459.828 238.065C459.828 238.421 459.746 238.731 459.582 238.995C459.418 239.259 459.199 239.478 458.926 239.651C458.652 239.825 458.336 239.952 457.976 240.034C457.62 240.121 457.244 240.164 456.848 240.164C456.082 240.164 455.419 240.036 454.858 239.781ZM462.139 231.53C461.879 231.53 461.656 231.446 461.469 231.277C461.286 231.109 461.195 230.895 461.195 230.635C461.195 230.375 461.286 230.159 461.469 229.985C461.656 229.812 461.879 229.726 462.139 229.726C462.408 229.726 462.635 229.812 462.822 229.985C463.009 230.159 463.103 230.375 463.103 230.635C463.103 230.881 463.009 231.093 462.822 231.271C462.635 231.444 462.408 231.53 462.139 231.53ZM462.925 240H461.339V233H462.925V240ZM469.063 234.511C468.872 234.36 468.596 234.285 468.236 234.285C467.767 234.285 467.375 234.497 467.061 234.921C466.746 235.345 466.589 235.921 466.589 236.65V240H465.003V233H466.589V234.442H466.616C466.771 233.95 467.008 233.567 467.327 233.294C467.651 233.016 468.011 232.877 468.407 232.877C468.694 232.877 468.913 232.92 469.063 233.007V234.511ZM475.558 240H474.02V238.906H473.992C473.509 239.745 472.8 240.164 471.866 240.164C471.178 240.164 470.638 239.977 470.246 239.604C469.859 239.23 469.665 238.735 469.665 238.12C469.665 236.799 470.426 236.028 471.948 235.81L474.026 235.516C474.026 234.518 473.552 234.019 472.604 234.019C471.771 234.019 471.019 234.306 470.349 234.88V233.492C471.087 233.055 471.939 232.836 472.905 232.836C474.674 232.836 475.558 233.706 475.558 235.447V240ZM474.026 236.562L472.557 236.767C472.101 236.826 471.757 236.938 471.524 237.102C471.297 237.261 471.183 237.544 471.183 237.949C471.183 238.245 471.287 238.489 471.497 238.681C471.711 238.868 471.996 238.961 472.352 238.961C472.835 238.961 473.233 238.792 473.548 238.455C473.867 238.113 474.026 237.685 474.026 237.17V236.562ZM480.917 239.781V238.312C481.509 238.763 482.163 238.988 482.879 238.988C483.836 238.988 484.314 238.706 484.314 238.141C484.314 237.981 484.273 237.847 484.191 237.737C484.109 237.623 483.998 237.523 483.856 237.437C483.72 237.35 483.556 237.272 483.364 237.204C483.177 237.136 482.968 237.058 482.735 236.972C482.448 236.858 482.188 236.737 481.956 236.609C481.728 236.482 481.537 236.338 481.382 236.179C481.231 236.015 481.118 235.83 481.04 235.625C480.963 235.42 480.924 235.181 480.924 234.907C480.924 234.57 481.004 234.274 481.163 234.019C481.323 233.759 481.537 233.542 481.806 233.369C482.075 233.191 482.38 233.059 482.722 232.973C483.063 232.882 483.417 232.836 483.781 232.836C484.428 232.836 485.007 232.934 485.518 233.13V234.518C485.025 234.18 484.46 234.012 483.822 234.012C483.622 234.012 483.439 234.032 483.275 234.073C483.116 234.114 482.979 234.171 482.865 234.244C482.751 234.317 482.662 234.406 482.599 234.511C482.535 234.611 482.503 234.723 482.503 234.846C482.503 234.996 482.535 235.124 482.599 235.229C482.662 235.333 482.756 235.427 482.879 235.509C483.007 235.586 483.157 235.659 483.33 235.728C483.508 235.791 483.711 235.862 483.938 235.939C484.239 236.062 484.508 236.188 484.745 236.315C484.987 236.443 485.192 236.589 485.36 236.753C485.529 236.912 485.659 237.099 485.75 237.313C485.841 237.523 485.887 237.774 485.887 238.065C485.887 238.421 485.805 238.731 485.641 238.995C485.477 239.259 485.258 239.478 484.984 239.651C484.711 239.825 484.394 239.952 484.034 240.034C483.679 240.121 483.303 240.164 482.906 240.164C482.141 240.164 481.478 240.036 480.917 239.781ZM493.324 236.931H488.553C488.571 237.578 488.769 238.077 489.147 238.428C489.53 238.779 490.054 238.954 490.72 238.954C491.467 238.954 492.153 238.731 492.777 238.284V239.562C492.139 239.964 491.296 240.164 490.248 240.164C489.218 240.164 488.409 239.847 487.821 239.214C487.238 238.576 486.946 237.68 486.946 236.527C486.946 235.438 487.268 234.552 487.91 233.868C488.557 233.18 489.359 232.836 490.316 232.836C491.273 232.836 492.014 233.144 492.538 233.759C493.062 234.374 493.324 235.229 493.324 236.322V236.931ZM491.793 235.81C491.788 235.24 491.654 234.798 491.39 234.483C491.125 234.164 490.761 234.005 490.296 234.005C489.84 234.005 489.453 234.171 489.134 234.504C488.819 234.837 488.626 235.272 488.553 235.81H491.793ZM500.939 240H499.354V238.893H499.326C498.866 239.74 498.15 240.164 497.18 240.164C495.525 240.164 494.698 239.171 494.698 237.184V233H496.284V237.02C496.284 238.277 496.77 238.906 497.74 238.906C498.21 238.906 498.595 238.733 498.896 238.387C499.201 238.04 499.354 237.587 499.354 237.026V233H500.939V240ZM510.558 239.925C510.248 240.08 509.84 240.157 509.334 240.157C507.976 240.157 507.297 239.506 507.297 238.202V234.244H506.128V233H507.297V231.38L508.883 230.929V233H510.558V234.244H508.883V237.744C508.883 238.159 508.958 238.455 509.108 238.633C509.259 238.811 509.509 238.899 509.86 238.899C510.129 238.899 510.362 238.822 510.558 238.667V239.925ZM517.77 236.931H512.998C513.016 237.578 513.215 238.077 513.593 238.428C513.976 238.779 514.5 238.954 515.165 238.954C515.912 238.954 516.598 238.731 517.223 238.284V239.562C516.585 239.964 515.742 240.164 514.693 240.164C513.663 240.164 512.854 239.847 512.267 239.214C511.683 238.576 511.392 237.68 511.392 236.527C511.392 235.438 511.713 234.552 512.355 233.868C513.003 233.18 513.805 232.836 514.762 232.836C515.719 232.836 516.459 233.144 516.983 233.759C517.507 234.374 517.77 235.229 517.77 236.322V236.931ZM516.238 235.81C516.234 235.24 516.099 234.798 515.835 234.483C515.571 234.164 515.206 234.005 514.741 234.005C514.285 234.005 513.898 234.171 513.579 234.504C513.265 234.837 513.071 235.272 512.998 235.81H516.238ZM520.873 240H519.28V229.637H520.873V240ZM528.871 236.931H524.1C524.118 237.578 524.316 238.077 524.694 238.428C525.077 238.779 525.601 238.954 526.267 238.954C527.014 238.954 527.7 238.731 528.324 238.284V239.562C527.686 239.964 526.843 240.164 525.795 240.164C524.765 240.164 523.956 239.847 523.368 239.214C522.785 238.576 522.493 237.68 522.493 236.527C522.493 235.438 522.814 234.552 523.457 233.868C524.104 233.18 524.906 232.836 525.863 232.836C526.82 232.836 527.561 233.144 528.085 233.759C528.609 234.374 528.871 235.229 528.871 236.322V236.931ZM527.34 235.81C527.335 235.24 527.201 234.798 526.937 234.483C526.672 234.164 526.308 234.005 525.843 234.005C525.387 234.005 525 234.171 524.681 234.504C524.366 234.837 524.173 235.272 524.1 235.81H527.34ZM534.34 230.929C534.126 230.806 533.882 230.744 533.608 230.744C532.838 230.744 532.453 231.179 532.453 232.05V233H534.08V234.244H532.46V240H530.874V234.244H529.678V233H530.874V231.865C530.874 231.127 531.116 230.546 531.599 230.122C532.082 229.694 532.686 229.479 533.41 229.479C533.802 229.479 534.112 229.523 534.34 229.609V230.929ZM538.312 240.164C537.231 240.164 536.368 239.838 535.721 239.187C535.078 238.53 534.757 237.662 534.757 236.582C534.757 235.406 535.092 234.488 535.762 233.827C536.436 233.166 537.343 232.836 538.482 232.836C539.576 232.836 540.428 233.157 541.039 233.8C541.65 234.442 541.955 235.333 541.955 236.473C541.955 237.589 541.625 238.485 540.964 239.159C540.308 239.829 539.424 240.164 538.312 240.164ZM538.387 234.101C537.767 234.101 537.277 234.317 536.917 234.75C536.557 235.183 536.377 235.78 536.377 236.541C536.377 237.275 536.559 237.854 536.924 238.277C537.288 238.697 537.776 238.906 538.387 238.906C539.011 238.906 539.49 238.699 539.822 238.284C540.16 237.869 540.328 237.279 540.328 236.514C540.328 235.743 540.16 235.149 539.822 234.729C539.49 234.31 539.011 234.101 538.387 234.101ZM549.81 240H548.224V236.056C548.224 234.748 547.761 234.094 546.836 234.094C546.353 234.094 545.954 234.276 545.64 234.641C545.325 235.001 545.168 235.456 545.168 236.008V240H543.575V233H545.168V234.162H545.195C545.719 233.278 546.476 232.836 547.465 232.836C548.226 232.836 548.807 233.084 549.208 233.581C549.609 234.073 549.81 234.786 549.81 235.721V240ZM557.678 236.931H552.906C552.924 237.578 553.123 238.077 553.501 238.428C553.884 238.779 554.408 238.954 555.073 238.954C555.821 238.954 556.507 238.731 557.131 238.284V239.562C556.493 239.964 555.65 240.164 554.602 240.164C553.572 240.164 552.763 239.847 552.175 239.214C551.591 238.576 551.3 237.68 551.3 236.527C551.3 235.438 551.621 234.552 552.264 233.868C552.911 233.18 553.713 232.836 554.67 232.836C555.627 232.836 556.368 233.144 556.892 233.759C557.416 234.374 557.678 235.229 557.678 236.322V236.931ZM556.146 235.81C556.142 235.24 556.007 234.798 555.743 234.483C555.479 234.164 555.114 234.005 554.649 234.005C554.194 234.005 553.806 234.171 553.487 234.504C553.173 234.837 552.979 235.272 552.906 235.81H556.146Z" fill="#1D1D1D" fill-opacity="0.5"/>
</g>
<defs>
<clipPath id="clip0_432_126">
<rect width="1000" height="640" fill="white"/>
</clipPath>
</defs>
</svg>
