<svg width="1000" height="640" viewBox="0 0 1000 640" fill="none" xmlns="http://www.w3.org/2000/svg">
<g clip-path="url(#clip0_405_140)">
<rect width="1000" height="640" fill="white"/>
<path d="M222.882 687.899C174.849 676.841 99.3686 704.341 101.027 655.009C101.682 635.508 107.657 623.021 121.768 609.569C151.673 581.06 185.173 628.312 226.338 625.148C279.333 621.075 306.22 551.693 353.378 576.246C375.971 588.009 390.924 600.285 396.589 625.148C406.07 666.753 366.134 694.703 325.723 708.239C286.899 721.243 262.779 697.084 222.882 687.899Z" fill="#0C7D81"/>
<path d="M791.067 549.382C845.59 471.011 769.992 325.069 865.067 316.382C965.67 307.191 975.121 465.935 945.067 562.382C904.594 692.268 565.852 814.719 621.067 690.382C656.074 611.553 741.809 620.186 791.067 549.382Z" fill="#0469B1"/>
<path d="M807.004 246.187C818.209 203.91 791.761 156.98 830.504 136.687C880.225 110.643 910.878 229.608 875.504 273.187C853.36 300.468 805.004 334.692 790.504 302.687C781.019 281.749 801.115 268.406 807.004 246.187Z" fill="#F9BB0D"/>
<path d="M1016.67 -5.2261C976.12 -25.1373 966.157 -79.0723 921.669 -71.2261C861.786 -60.6645 883.44 23.904 898.669 82.7739C917.967 157.37 959.141 222.388 1036.17 224.274C1096.67 225.755 1167.33 202.793 1167.67 142.274C1167.81 117.568 1146.35 107.48 1146.17 82.7739C1146.02 62.7374 1161.02 53.2651 1159.67 33.2739C1155.76 -24.4275 1068.58 20.2647 1016.67 -5.2261Z" fill="#E30140"/>
<circle cx="984" cy="80" r="4" fill="#51001A"/>
<path d="M597.658 -4.51659C572.33 -9.26401 549.113 6.88986 532.158 -12.5166C519.105 -27.4577 521.875 -42.7181 523.158 -62.5166C526.955 -121.082 579.427 -174.012 636.658 -161.017C687.118 -149.558 712.797 -99.8956 706.658 -48.5166C703.312 -20.51 699.45 3.49782 674.158 15.9834C646.424 29.6746 628.058 1.1814 597.658 -4.51659Z" fill="#0C7D81"/>
<path d="M103.151 75.0096C137.218 61.8937 174.67 85.5929 194.438 54.9045C221.048 13.5959 159.011 -19.986 115.742 -43.2711C60.9131 -72.7765 -0.244823 -84.0512 -43.6471 -39.4084C-77.7374 -4.34363 -102.906 50.1591 -67.2065 83.5843C-52.6327 97.2297 -34.8695 90.0405 -20.1207 103.497C-8.15956 114.41 -10.7758 128.503 1.82214 138.675C38.184 168.032 59.5379 91.8011 103.151 75.0096Z" fill="#E30140"/>
<circle cx="71.4408" cy="37.1046" r="3.2323" transform="rotate(42.8335 71.4408 37.1046)" fill="#51001A"/>
<path d="M-9.40447 16.1474L1.52426 16.0007C1.98613 15.9945 2.39215 16.3054 2.50654 16.7529L5.83462 29.7734C5.93615 30.1706 6.26983 30.4656 6.67648 30.5177L18.9351 32.0871C19.4276 32.1502 19.7993 32.5652 19.8079 33.0616L20.0201 45.2452C20.0293 45.7782 20.4552 46.2103 20.9881 46.2272L31.2632 46.5545C31.8464 46.5731 32.2899 47.085 32.2252 47.6649L31.2132 56.7387C31.139 57.4042 31.727 57.9531 32.3858 57.8335L43.7513 55.7687C44.3808 55.6543 44.9542 56.1523 44.9293 56.7915L44.3975 70.4347" stroke="#51001A" stroke-width="7" stroke-linecap="round"/>
<path d="M6.56778 640.207C-46.4493 566.007 -97.1813 407.576 -5.98801 407.026C28.5639 406.818 42.1048 433.884 76.1089 440.016C127.932 449.362 174.256 382.954 209.725 421.876C239.711 454.783 205.33 491.313 206.239 535.824C207.772 610.875 277.873 672.063 226.67 726.955C163.649 794.515 60.2797 715.38 6.56778 640.207Z" fill="#EE75A7"/>
<circle cx="36" cy="523" r="4" fill="#932050"/>
<circle cx="177" cy="519" r="4" fill="#932050"/>
<path d="M103 578.5C108.679 578.5 112.5 573.099 112.5 567.5C112.5 561.901 108.679 556.5 103 556.5C97.3211 556.5 93.5 561.901 93.5 567.5C93.5 573.099 97.3211 578.5 103 578.5Z" stroke="#932050" stroke-width="5"/>
<path d="M-5.16542 203.003C-36.7886 208.582 -57.341 224.35 -69.6654 254.003C-93.3628 311.018 -14.9406 349.115 45.3346 362.503C100.74 374.808 180.957 380.089 185.335 323.503C189.206 273.456 127.583 269.482 84.3346 244.003C51.211 224.488 32.6947 196.323 -5.16542 203.003Z" fill="#9C9B9B"/>
<circle cx="15" cy="294" r="4" fill="#303636"/>
<circle cx="97" cy="294" r="4" fill="#303636"/>
<path d="M37 310.501C51.1548 292.911 59.3936 293.919 74.5 310.501" stroke="#303636" stroke-width="7" stroke-linecap="round"/>
<path d="M369.545 60.0641C334.395 66.2609 316.51 21.0984 282.545 32.0641C229.819 49.0865 323.642 136.604 379.045 136.064C420.637 135.659 467.54 117.655 467.045 76.0641C466.739 50.3795 457.157 27.4163 432.545 20.0641C404.621 11.7225 398.245 55.0044 369.545 60.0641Z" fill="#EE75A7"/>
<path d="M354 100H395" stroke="#932050" stroke-width="7" stroke-linecap="round"/>
<circle cx="343" cy="77" r="4" fill="#932050"/>
<circle cx="391" cy="77" r="4" fill="#932050"/>
<path d="M823 239.17C823 239.17 830.002 233.206 835.5 232.17C845.713 230.245 849.243 245.345 859.5 243.67C867.252 242.404 876 232.17 876 232.17" stroke="#906804" stroke-width="7" stroke-linecap="round"/>
<circle cx="830" cy="206" r="4" fill="#906804"/>
<circle cx="863" cy="206" r="4" fill="#906804"/>
<path d="M857 498C857 524 891 528.5 891 498" stroke="#022F50" stroke-width="7" stroke-linecap="round"/>
<circle cx="859" cy="478" r="4" fill="#022F50"/>
<circle cx="888" cy="478" r="4" fill="#022F50"/>
<circle cx="802" cy="42" r="7" fill="#F9BB0D"/>
<circle cx="955" cy="231" r="7" fill="#E30140"/>
<circle cx="117.742" cy="558.443" r="7" transform="rotate(-34.7594 117.742 558.443)" fill="#EE75A7"/>
<circle cx="82.7418" cy="390.443" r="7" transform="rotate(-34.7594 82.7418 390.443)" fill="#9C9B9B"/>
<circle cx="82.7418" cy="269.443" r="7" transform="rotate(-34.7594 82.7418 269.443)" fill="#9C9B9B"/>
<rect x="363" y="154" width="274" height="332" rx="12" fill="white"/>
<rect x="380" y="206" width="240" height="33" rx="7" fill="#F7F7F7"/>
<rect x="380" y="206" width="240" height="33" rx="7" stroke="#E6E6E6" stroke-width="2"/>
<rect x="380" y="251" width="240" height="33" rx="7" fill="#F7F7F7"/>
<rect x="380" y="251" width="240" height="33" rx="7" stroke="#E6E6E6" stroke-width="2"/>
<rect x="380" y="296" width="240" height="33" rx="7" fill="#F7F7F7"/>
<rect x="380" y="296" width="240" height="33" rx="7" stroke="#E6E6E6" stroke-width="2"/>
<rect x="380" y="341" width="240" height="33" rx="7" fill="#F7F7F7"/>
<rect x="380" y="341" width="240" height="33" rx="7" stroke="#E6E6E6" stroke-width="2"/>
<path d="M384.523 388.625V400H383.039V388.625H384.523ZM388.18 388.625V389.859H379.391V388.625H388.18ZM391.219 391.547V400H389.766V391.547H391.219ZM389.656 389.305C389.656 389.07 389.727 388.872 389.867 388.711C390.013 388.549 390.227 388.469 390.508 388.469C390.784 388.469 390.995 388.549 391.141 388.711C391.292 388.872 391.367 389.07 391.367 389.305C391.367 389.529 391.292 389.721 391.141 389.883C390.995 390.039 390.784 390.117 390.508 390.117C390.227 390.117 390.013 390.039 389.867 389.883C389.727 389.721 389.656 389.529 389.656 389.305ZM394.984 393.172V403.25H393.531V391.547H394.859L394.984 393.172ZM400.68 395.703V395.867C400.68 396.482 400.607 397.052 400.461 397.578C400.315 398.099 400.102 398.552 399.82 398.938C399.544 399.323 399.203 399.622 398.797 399.836C398.391 400.049 397.924 400.156 397.398 400.156C396.862 400.156 396.388 400.068 395.977 399.891C395.565 399.714 395.216 399.456 394.93 399.117C394.643 398.779 394.414 398.372 394.242 397.898C394.076 397.424 393.961 396.891 393.898 396.297V395.422C393.961 394.797 394.078 394.237 394.25 393.742C394.422 393.247 394.648 392.826 394.93 392.477C395.216 392.122 395.562 391.854 395.969 391.672C396.375 391.484 396.844 391.391 397.375 391.391C397.906 391.391 398.378 391.495 398.789 391.703C399.201 391.906 399.547 392.198 399.828 392.578C400.109 392.958 400.32 393.414 400.461 393.945C400.607 394.471 400.68 395.057 400.68 395.703ZM399.227 395.867V395.703C399.227 395.281 399.182 394.885 399.094 394.516C399.005 394.141 398.867 393.812 398.68 393.531C398.497 393.245 398.263 393.021 397.977 392.859C397.69 392.693 397.349 392.609 396.953 392.609C396.589 392.609 396.271 392.672 396 392.797C395.734 392.922 395.508 393.091 395.32 393.305C395.133 393.513 394.979 393.753 394.859 394.023C394.745 394.289 394.659 394.565 394.602 394.852V396.875C394.706 397.24 394.852 397.583 395.039 397.906C395.227 398.224 395.477 398.482 395.789 398.68C396.102 398.872 396.495 398.969 396.969 398.969C397.359 398.969 397.695 398.888 397.977 398.727C398.263 398.56 398.497 398.333 398.68 398.047C398.867 397.76 399.005 397.432 399.094 397.062C399.182 396.688 399.227 396.289 399.227 395.867ZM402.141 395.867V395.688C402.141 395.078 402.229 394.513 402.406 393.992C402.583 393.466 402.839 393.01 403.172 392.625C403.505 392.234 403.909 391.932 404.383 391.719C404.857 391.5 405.388 391.391 405.977 391.391C406.57 391.391 407.104 391.5 407.578 391.719C408.057 391.932 408.464 392.234 408.797 392.625C409.135 393.01 409.393 393.466 409.57 393.992C409.747 394.513 409.836 395.078 409.836 395.688V395.867C409.836 396.477 409.747 397.042 409.57 397.562C409.393 398.083 409.135 398.539 408.797 398.93C408.464 399.315 408.06 399.617 407.586 399.836C407.117 400.049 406.586 400.156 405.992 400.156C405.398 400.156 404.865 400.049 404.391 399.836C403.917 399.617 403.51 399.315 403.172 398.93C402.839 398.539 402.583 398.083 402.406 397.562C402.229 397.042 402.141 396.477 402.141 395.867ZM403.586 395.688V395.867C403.586 396.289 403.635 396.688 403.734 397.062C403.833 397.432 403.982 397.76 404.18 398.047C404.383 398.333 404.635 398.56 404.938 398.727C405.24 398.888 405.591 398.969 405.992 398.969C406.388 398.969 406.734 398.888 407.031 398.727C407.333 398.56 407.583 398.333 407.781 398.047C407.979 397.76 408.128 397.432 408.227 397.062C408.331 396.688 408.383 396.289 408.383 395.867V395.688C408.383 395.271 408.331 394.878 408.227 394.508C408.128 394.133 407.977 393.802 407.773 393.516C407.576 393.224 407.326 392.995 407.023 392.828C406.727 392.661 406.378 392.578 405.977 392.578C405.581 392.578 405.232 392.661 404.93 392.828C404.633 392.995 404.383 393.224 404.18 393.516C403.982 393.802 403.833 394.133 403.734 394.508C403.635 394.878 403.586 395.271 403.586 395.688ZM420.945 398.359V388H422.398V400H421.07L420.945 398.359ZM415.258 395.867V395.703C415.258 395.057 415.336 394.471 415.492 393.945C415.654 393.414 415.88 392.958 416.172 392.578C416.469 392.198 416.82 391.906 417.227 391.703C417.638 391.495 418.096 391.391 418.602 391.391C419.133 391.391 419.596 391.484 419.992 391.672C420.393 391.854 420.732 392.122 421.008 392.477C421.289 392.826 421.51 393.247 421.672 393.742C421.833 394.237 421.945 394.797 422.008 395.422V396.141C421.951 396.76 421.839 397.318 421.672 397.812C421.51 398.307 421.289 398.729 421.008 399.078C420.732 399.427 420.393 399.695 419.992 399.883C419.591 400.065 419.122 400.156 418.586 400.156C418.091 400.156 417.638 400.049 417.227 399.836C416.82 399.622 416.469 399.323 416.172 398.938C415.88 398.552 415.654 398.099 415.492 397.578C415.336 397.052 415.258 396.482 415.258 395.867ZM416.711 395.703V395.867C416.711 396.289 416.753 396.685 416.836 397.055C416.924 397.424 417.06 397.75 417.242 398.031C417.424 398.312 417.656 398.534 417.938 398.695C418.219 398.852 418.555 398.93 418.945 398.93C419.424 398.93 419.818 398.828 420.125 398.625C420.438 398.422 420.688 398.154 420.875 397.82C421.062 397.487 421.208 397.125 421.312 396.734V394.852C421.25 394.565 421.159 394.289 421.039 394.023C420.924 393.753 420.773 393.513 420.586 393.305C420.404 393.091 420.177 392.922 419.906 392.797C419.641 392.672 419.326 392.609 418.961 392.609C418.565 392.609 418.224 392.693 417.938 392.859C417.656 393.021 417.424 393.245 417.242 393.531C417.06 393.812 416.924 394.141 416.836 394.516C416.753 394.885 416.711 395.281 416.711 395.703ZM428.156 400.156C427.568 400.156 427.034 400.057 426.555 399.859C426.081 399.656 425.672 399.372 425.328 399.008C424.99 398.643 424.729 398.211 424.547 397.711C424.365 397.211 424.273 396.664 424.273 396.07V395.742C424.273 395.055 424.375 394.443 424.578 393.906C424.781 393.365 425.057 392.906 425.406 392.531C425.755 392.156 426.151 391.872 426.594 391.68C427.036 391.487 427.495 391.391 427.969 391.391C428.573 391.391 429.094 391.495 429.531 391.703C429.974 391.911 430.336 392.203 430.617 392.578C430.898 392.948 431.107 393.385 431.242 393.891C431.378 394.391 431.445 394.938 431.445 395.531V396.18H425.133V395H430V394.891C429.979 394.516 429.901 394.151 429.766 393.797C429.635 393.443 429.427 393.151 429.141 392.922C428.854 392.693 428.464 392.578 427.969 392.578C427.641 392.578 427.339 392.648 427.062 392.789C426.786 392.924 426.549 393.128 426.352 393.398C426.154 393.669 426 394 425.891 394.391C425.781 394.781 425.727 395.232 425.727 395.742V396.07C425.727 396.471 425.781 396.849 425.891 397.203C426.005 397.552 426.169 397.859 426.383 398.125C426.602 398.391 426.865 398.599 427.172 398.75C427.484 398.901 427.839 398.977 428.234 398.977C428.745 398.977 429.177 398.872 429.531 398.664C429.885 398.456 430.195 398.177 430.461 397.828L431.336 398.523C431.154 398.799 430.922 399.062 430.641 399.312C430.359 399.562 430.013 399.766 429.602 399.922C429.195 400.078 428.714 400.156 428.156 400.156ZM444.188 396.383H445.688C445.609 397.102 445.404 397.745 445.07 398.312C444.737 398.88 444.266 399.331 443.656 399.664C443.047 399.992 442.286 400.156 441.375 400.156C440.708 400.156 440.102 400.031 439.555 399.781C439.013 399.531 438.547 399.177 438.156 398.719C437.766 398.255 437.464 397.701 437.25 397.055C437.042 396.404 436.938 395.68 436.938 394.883V393.75C436.938 392.953 437.042 392.232 437.25 391.586C437.464 390.935 437.768 390.378 438.164 389.914C438.565 389.451 439.047 389.094 439.609 388.844C440.172 388.594 440.805 388.469 441.508 388.469C442.367 388.469 443.094 388.63 443.688 388.953C444.281 389.276 444.742 389.724 445.07 390.297C445.404 390.865 445.609 391.523 445.688 392.273H444.188C444.115 391.742 443.979 391.286 443.781 390.906C443.583 390.521 443.302 390.224 442.938 390.016C442.573 389.807 442.096 389.703 441.508 389.703C441.003 389.703 440.557 389.799 440.172 389.992C439.792 390.185 439.471 390.458 439.211 390.812C438.956 391.167 438.763 391.591 438.633 392.086C438.503 392.581 438.438 393.13 438.438 393.734V394.883C438.438 395.44 438.495 395.964 438.609 396.453C438.729 396.943 438.909 397.372 439.148 397.742C439.388 398.112 439.693 398.404 440.062 398.617C440.432 398.826 440.87 398.93 441.375 398.93C442.016 398.93 442.526 398.828 442.906 398.625C443.286 398.422 443.573 398.13 443.766 397.75C443.964 397.37 444.104 396.914 444.188 396.383ZM447.141 395.867V395.688C447.141 395.078 447.229 394.513 447.406 393.992C447.583 393.466 447.839 393.01 448.172 392.625C448.505 392.234 448.909 391.932 449.383 391.719C449.857 391.5 450.388 391.391 450.977 391.391C451.57 391.391 452.104 391.5 452.578 391.719C453.057 391.932 453.464 392.234 453.797 392.625C454.135 393.01 454.393 393.466 454.57 393.992C454.747 394.513 454.836 395.078 454.836 395.688V395.867C454.836 396.477 454.747 397.042 454.57 397.562C454.393 398.083 454.135 398.539 453.797 398.93C453.464 399.315 453.06 399.617 452.586 399.836C452.117 400.049 451.586 400.156 450.992 400.156C450.398 400.156 449.865 400.049 449.391 399.836C448.917 399.617 448.51 399.315 448.172 398.93C447.839 398.539 447.583 398.083 447.406 397.562C447.229 397.042 447.141 396.477 447.141 395.867ZM448.586 395.688V395.867C448.586 396.289 448.635 396.688 448.734 397.062C448.833 397.432 448.982 397.76 449.18 398.047C449.383 398.333 449.635 398.56 449.938 398.727C450.24 398.888 450.591 398.969 450.992 398.969C451.388 398.969 451.734 398.888 452.031 398.727C452.333 398.56 452.583 398.333 452.781 398.047C452.979 397.76 453.128 397.432 453.227 397.062C453.331 396.688 453.383 396.289 453.383 395.867V395.688C453.383 395.271 453.331 394.878 453.227 394.508C453.128 394.133 452.977 393.802 452.773 393.516C452.576 393.224 452.326 392.995 452.023 392.828C451.727 392.661 451.378 392.578 450.977 392.578C450.581 392.578 450.232 392.661 449.93 392.828C449.633 392.995 449.383 393.224 449.18 393.516C448.982 393.802 448.833 394.133 448.734 394.508C448.635 394.878 448.586 395.271 448.586 395.688ZM458.094 393.352V400H456.648V391.547H458.016L458.094 393.352ZM457.75 395.453L457.148 395.43C457.154 394.852 457.24 394.318 457.406 393.828C457.573 393.333 457.807 392.904 458.109 392.539C458.411 392.174 458.771 391.893 459.188 391.695C459.609 391.492 460.076 391.391 460.586 391.391C461.003 391.391 461.378 391.448 461.711 391.562C462.044 391.672 462.328 391.849 462.562 392.094C462.802 392.339 462.984 392.656 463.109 393.047C463.234 393.432 463.297 393.904 463.297 394.461V400H461.844V394.445C461.844 394.003 461.779 393.648 461.648 393.383C461.518 393.112 461.328 392.917 461.078 392.797C460.828 392.672 460.521 392.609 460.156 392.609C459.797 392.609 459.469 392.685 459.172 392.836C458.88 392.987 458.628 393.195 458.414 393.461C458.206 393.727 458.042 394.031 457.922 394.375C457.807 394.714 457.75 395.073 457.75 395.453ZM470.414 397.758C470.414 397.549 470.367 397.357 470.273 397.18C470.185 396.997 470 396.833 469.719 396.688C469.443 396.536 469.026 396.406 468.469 396.297C468 396.198 467.576 396.081 467.195 395.945C466.82 395.81 466.5 395.646 466.234 395.453C465.974 395.26 465.773 395.034 465.633 394.773C465.492 394.513 465.422 394.208 465.422 393.859C465.422 393.526 465.495 393.211 465.641 392.914C465.792 392.617 466.003 392.354 466.273 392.125C466.549 391.896 466.88 391.716 467.266 391.586C467.651 391.456 468.081 391.391 468.555 391.391C469.232 391.391 469.81 391.51 470.289 391.75C470.768 391.99 471.135 392.31 471.391 392.711C471.646 393.107 471.773 393.547 471.773 394.031H470.328C470.328 393.797 470.258 393.57 470.117 393.352C469.982 393.128 469.781 392.943 469.516 392.797C469.255 392.651 468.935 392.578 468.555 392.578C468.154 392.578 467.828 392.641 467.578 392.766C467.333 392.885 467.154 393.039 467.039 393.227C466.93 393.414 466.875 393.612 466.875 393.82C466.875 393.977 466.901 394.117 466.953 394.242C467.01 394.362 467.109 394.474 467.25 394.578C467.391 394.677 467.589 394.771 467.844 394.859C468.099 394.948 468.424 395.036 468.82 395.125C469.513 395.281 470.083 395.469 470.531 395.688C470.979 395.906 471.312 396.174 471.531 396.492C471.75 396.81 471.859 397.195 471.859 397.648C471.859 398.018 471.781 398.357 471.625 398.664C471.474 398.971 471.253 399.237 470.961 399.461C470.674 399.68 470.331 399.852 469.93 399.977C469.534 400.096 469.089 400.156 468.594 400.156C467.849 400.156 467.219 400.023 466.703 399.758C466.188 399.492 465.797 399.148 465.531 398.727C465.266 398.305 465.133 397.859 465.133 397.391H466.586C466.607 397.786 466.721 398.102 466.93 398.336C467.138 398.565 467.393 398.729 467.695 398.828C467.997 398.922 468.297 398.969 468.594 398.969C468.99 398.969 469.32 398.917 469.586 398.812C469.857 398.708 470.062 398.565 470.203 398.383C470.344 398.201 470.414 397.992 470.414 397.758ZM478.93 398.047V391.547H480.383V400H479L478.93 398.047ZM479.203 396.266L479.805 396.25C479.805 396.812 479.745 397.333 479.625 397.812C479.51 398.286 479.323 398.698 479.062 399.047C478.802 399.396 478.461 399.669 478.039 399.867C477.617 400.06 477.104 400.156 476.5 400.156C476.089 400.156 475.711 400.096 475.367 399.977C475.029 399.857 474.737 399.672 474.492 399.422C474.247 399.172 474.057 398.846 473.922 398.445C473.792 398.044 473.727 397.562 473.727 397V391.547H475.172V397.016C475.172 397.396 475.214 397.711 475.297 397.961C475.385 398.206 475.503 398.401 475.648 398.547C475.799 398.688 475.966 398.786 476.148 398.844C476.336 398.901 476.529 398.93 476.727 398.93C477.341 398.93 477.828 398.812 478.188 398.578C478.547 398.339 478.805 398.018 478.961 397.617C479.122 397.211 479.203 396.76 479.203 396.266ZM484.156 388V400H482.703V388H484.156ZM490.016 391.547V392.656H485.445V391.547H490.016ZM486.992 389.492H488.438V397.906C488.438 398.193 488.482 398.409 488.57 398.555C488.659 398.701 488.773 398.797 488.914 398.844C489.055 398.891 489.206 398.914 489.367 398.914C489.487 398.914 489.612 398.904 489.742 398.883C489.878 398.857 489.979 398.836 490.047 398.82L490.055 400C489.94 400.036 489.789 400.07 489.602 400.102C489.419 400.138 489.198 400.156 488.938 400.156C488.583 400.156 488.258 400.086 487.961 399.945C487.664 399.805 487.427 399.57 487.25 399.242C487.078 398.909 486.992 398.461 486.992 397.898V389.492ZM496.695 398.555V394.203C496.695 393.87 496.628 393.581 496.492 393.336C496.362 393.086 496.164 392.893 495.898 392.758C495.633 392.622 495.305 392.555 494.914 392.555C494.549 392.555 494.229 392.617 493.953 392.742C493.682 392.867 493.469 393.031 493.312 393.234C493.161 393.438 493.086 393.656 493.086 393.891H491.641C491.641 393.589 491.719 393.289 491.875 392.992C492.031 392.695 492.255 392.427 492.547 392.188C492.844 391.943 493.198 391.75 493.609 391.609C494.026 391.464 494.49 391.391 495 391.391C495.615 391.391 496.156 391.495 496.625 391.703C497.099 391.911 497.469 392.227 497.734 392.648C498.005 393.065 498.141 393.589 498.141 394.219V398.156C498.141 398.438 498.164 398.737 498.211 399.055C498.263 399.372 498.339 399.646 498.438 399.875V400H496.93C496.857 399.833 496.799 399.612 496.758 399.336C496.716 399.055 496.695 398.794 496.695 398.555ZM496.945 394.875L496.961 395.891H495.5C495.089 395.891 494.721 395.924 494.398 395.992C494.076 396.055 493.805 396.151 493.586 396.281C493.367 396.411 493.201 396.576 493.086 396.773C492.971 396.966 492.914 397.193 492.914 397.453C492.914 397.719 492.974 397.961 493.094 398.18C493.214 398.398 493.393 398.573 493.633 398.703C493.878 398.828 494.177 398.891 494.531 398.891C494.974 398.891 495.365 398.797 495.703 398.609C496.042 398.422 496.31 398.193 496.508 397.922C496.711 397.651 496.82 397.388 496.836 397.133L497.453 397.828C497.417 398.047 497.318 398.289 497.156 398.555C496.995 398.82 496.779 399.076 496.508 399.32C496.242 399.56 495.924 399.76 495.555 399.922C495.19 400.078 494.779 400.156 494.32 400.156C493.747 400.156 493.245 400.044 492.812 399.82C492.385 399.596 492.052 399.297 491.812 398.922C491.578 398.542 491.461 398.117 491.461 397.648C491.461 397.195 491.549 396.797 491.727 396.453C491.904 396.104 492.159 395.815 492.492 395.586C492.826 395.352 493.227 395.174 493.695 395.055C494.164 394.935 494.688 394.875 495.266 394.875H496.945Z" fill="#A0A0A0"/>
</g>
<defs>
<clipPath id="clip0_405_140">
<rect width="1000" height="640" fill="white"/>
</clipPath>
</defs>
</svg>
