<svg width="1000" height="640" viewBox="0 0 1000 640" fill="none" xmlns="http://www.w3.org/2000/svg">
<g clip-path="url(#clip0_386_479)">
<rect width="1000" height="640" fill="white"/>
<path d="M222.882 687.899C174.849 676.841 99.3686 704.341 101.027 655.009C101.682 635.508 107.657 623.021 121.768 609.569C151.673 581.06 185.173 628.312 226.338 625.148C279.333 621.075 306.22 551.693 353.378 576.246C375.971 588.009 390.924 600.285 396.589 625.148C406.07 666.753 366.134 694.703 325.723 708.239C286.899 721.243 262.779 697.084 222.882 687.899Z" fill="#0C7D81"/>
<path d="M791.067 549.382C845.59 471.011 769.992 325.069 865.067 316.382C965.67 307.191 975.121 465.935 945.067 562.382C904.594 692.268 565.852 814.719 621.067 690.382C656.074 611.553 741.809 620.186 791.067 549.382Z" fill="#0469B1"/>
<path d="M807.004 246.187C818.209 203.91 791.761 156.98 830.504 136.687C880.225 110.643 910.878 229.608 875.504 273.187C853.36 300.468 805.004 334.692 790.504 302.687C781.019 281.749 801.115 268.406 807.004 246.187Z" fill="#F9BB0D"/>
<path d="M1016.67 -5.2261C976.12 -25.1373 966.157 -79.0723 921.669 -71.2261C861.786 -60.6645 883.44 23.904 898.669 82.7739C917.967 157.37 959.141 222.388 1036.17 224.274C1096.67 225.755 1167.33 202.793 1167.67 142.274C1167.81 117.568 1146.35 107.48 1146.17 82.7739C1146.02 62.7374 1161.02 53.2651 1159.67 33.2739C1155.76 -24.4275 1068.58 20.2647 1016.67 -5.2261Z" fill="#E30140"/>
<circle cx="984" cy="80" r="4" fill="#51001A"/>
<path d="M597.658 -4.51659C572.33 -9.26401 549.113 6.88986 532.158 -12.5166C519.105 -27.4577 521.875 -42.7181 523.158 -62.5166C526.955 -121.082 579.427 -174.012 636.658 -161.017C687.118 -149.558 712.797 -99.8956 706.658 -48.5166C703.312 -20.51 699.45 3.49782 674.158 15.9834C646.424 29.6746 628.058 1.1814 597.658 -4.51659Z" fill="#0C7D81"/>
<path d="M103.151 75.0096C137.218 61.8936 174.67 85.5929 194.438 54.9045C221.048 13.5958 159.011 -19.9861 115.742 -43.2712C60.9131 -72.7765 -0.244823 -84.0513 -43.6471 -39.4085C-77.7374 -4.34369 -102.906 50.159 -67.2065 83.5842C-52.6327 97.2296 -34.8695 90.0404 -20.1207 103.497C-8.15956 114.409 -10.7758 128.503 1.82214 138.675C38.184 168.032 59.5379 91.801 103.151 75.0096Z" fill="#E30140"/>
<circle cx="71.4408" cy="37.1047" r="3.2323" transform="rotate(42.8335 71.4408 37.1047)" fill="#51001A"/>
<path d="M-9.4045 16.1474L1.52423 16.0007C1.9861 15.9945 2.39212 16.3054 2.50651 16.7529L5.83459 29.7734C5.93612 30.1706 6.2698 30.4656 6.67645 30.5177L18.9351 32.0871C19.4276 32.1502 19.7993 32.5652 19.8079 33.0616L20.02 45.2452C20.0293 45.7782 20.4552 46.2103 20.988 46.2272L31.2632 46.5545C31.8464 46.5731 32.2899 47.085 32.2252 47.6649L31.2131 56.7387C31.1389 57.4042 31.7269 57.9531 32.3857 57.8335L43.7513 55.7687C44.3807 55.6543 44.9542 56.1523 44.9293 56.7915L44.3975 70.4347" stroke="#51001A" stroke-width="7" stroke-linecap="round"/>
<path d="M6.56781 640.207C-46.4493 566.007 -97.1813 407.576 -5.98798 407.026C28.564 406.818 42.1049 433.884 76.1089 440.016C127.932 449.362 174.257 382.954 209.725 421.876C239.711 454.783 205.33 491.313 206.239 535.824C207.772 610.875 277.873 672.063 226.67 726.955C163.649 794.515 60.2798 715.38 6.56781 640.207Z" fill="#EE75A7"/>
<circle cx="36" cy="523" r="4" fill="#932050"/>
<circle cx="177" cy="519" r="4" fill="#932050"/>
<path d="M103 578.5C108.679 578.5 112.5 573.099 112.5 567.5C112.5 561.901 108.679 556.5 103 556.5C97.3211 556.5 93.5 561.901 93.5 567.5C93.5 573.099 97.3211 578.5 103 578.5Z" stroke="#932050" stroke-width="5"/>
<path d="M-5.16542 203.003C-36.7886 208.582 -57.341 224.35 -69.6654 254.003C-93.3628 311.018 -14.9406 349.115 45.3346 362.503C100.74 374.808 180.957 380.089 185.335 323.503C189.206 273.456 127.583 269.482 84.3346 244.003C51.211 224.488 32.6947 196.323 -5.16542 203.003Z" fill="#9C9B9B"/>
<circle cx="15" cy="294" r="4" fill="#303636"/>
<circle cx="97" cy="294" r="4" fill="#303636"/>
<path d="M37 310.501C51.1548 292.911 59.3936 293.919 74.5 310.501" stroke="#303636" stroke-width="7" stroke-linecap="round"/>
<path d="M369.545 60.0641C334.395 66.2609 316.51 21.0984 282.545 32.0641C229.819 49.0865 323.642 136.604 379.045 136.064C420.637 135.659 467.54 117.655 467.045 76.0641C466.739 50.3795 457.157 27.4163 432.545 20.0641C404.621 11.7225 398.245 55.0044 369.545 60.0641Z" fill="#EE75A7"/>
<path d="M354 100H395" stroke="#932050" stroke-width="7" stroke-linecap="round"/>
<circle cx="343" cy="77" r="4" fill="#932050"/>
<circle cx="391" cy="77" r="4" fill="#932050"/>
<path d="M823 239.17C823 239.17 830.002 233.206 835.5 232.17C845.713 230.245 849.243 245.345 859.5 243.67C867.252 242.404 876 232.17 876 232.17" stroke="#906804" stroke-width="7" stroke-linecap="round"/>
<circle cx="830" cy="206" r="4" fill="#906804"/>
<circle cx="863" cy="206" r="4" fill="#906804"/>
<path d="M857 498C857 524 891 528.5 891 498" stroke="#022F50" stroke-width="7" stroke-linecap="round"/>
<circle cx="859" cy="478" r="4" fill="#022F50"/>
<circle cx="888" cy="478" r="4" fill="#022F50"/>
<circle cx="802" cy="42" r="7" fill="#F9BB0D"/>
<circle cx="955" cy="231" r="7" fill="#E30140"/>
<circle cx="117.742" cy="558.443" r="7" transform="rotate(-34.7594 117.742 558.443)" fill="#EE75A7"/>
<circle cx="82.7418" cy="390.443" r="7" transform="rotate(-34.7594 82.7418 390.443)" fill="#9C9B9B"/>
<circle cx="82.7418" cy="269.443" r="7" transform="rotate(-34.7594 82.7418 269.443)" fill="#9C9B9B"/>
<rect x="363" y="175.5" width="274" height="290" rx="12" fill="white"/>
<rect x="380" y="192.5" width="239" height="33" rx="7" fill="#F7F7F7"/>
<rect x="380" y="192.5" width="239" height="33" rx="7" stroke="#E6E6E6" stroke-width="2"/>
<rect x="380" y="237.5" width="240" height="33" rx="7" fill="#F7F7F7"/>
<rect x="380" y="237.5" width="240" height="33" rx="7" stroke="#E6E6E6" stroke-width="2"/>
<rect x="380" y="282.5" width="240" height="33" rx="7" fill="#F7F7F7"/>
<rect x="380" y="282.5" width="240" height="33" rx="7" stroke="#E6E6E6" stroke-width="2"/>
<rect x="380" y="327.5" width="240" height="33" rx="7" fill="#F7F7F7"/>
<rect x="380" y="327.5" width="240" height="33" rx="7" stroke="#E6E6E6" stroke-width="2"/>
<rect x="380" y="372.5" width="240" height="33" rx="7" fill="#F7F7F7"/>
<rect x="380" y="372.5" width="240" height="33" rx="7" stroke="#E6E6E6" stroke-width="2"/>
<rect x="379" y="414.5" width="242" height="35" rx="5" fill="#E30140"/>
<path d="M460.239 169V156.396H468.088V159.367H464.036V161.204H467.842V164.175H464.036V166.029H468.378V169H460.239ZM475.664 169V164.087C475.664 163.53 475.579 163.132 475.409 162.892C475.245 162.646 474.976 162.522 474.601 162.522C474.278 162.522 474.026 162.648 473.845 162.9C473.663 163.152 473.572 163.475 473.572 163.867V169H469.828V160H473.572V161.406H473.607C473.906 160.891 474.308 160.492 474.812 160.211C475.315 159.924 475.863 159.78 476.455 159.78C478.424 159.78 479.408 161.022 479.408 163.507V169H475.664ZM487.107 169V167.954H487.072C486.773 168.347 486.384 168.657 485.903 168.886C485.423 169.108 484.948 169.22 484.479 169.22C483.712 169.22 483.035 169.032 482.449 168.657C481.863 168.276 481.424 167.746 481.131 167.066C480.844 166.387 480.7 165.584 480.7 164.658C480.7 163.703 480.873 162.856 481.219 162.118C481.564 161.38 482.051 160.806 482.678 160.396C483.305 159.985 484.008 159.78 484.787 159.78C485.156 159.78 485.496 159.833 485.807 159.938C486.123 160.044 486.396 160.188 486.624 160.369C486.858 160.545 487.008 160.721 487.072 160.896H487.107V155.676H490.852V169H487.107ZM487.187 164.228C487.187 163.688 487.066 163.27 486.826 162.971C486.592 162.672 486.272 162.522 485.868 162.522C485.464 162.522 485.133 162.71 484.875 163.085C484.623 163.454 484.497 163.949 484.497 164.57C484.497 165.842 484.937 166.478 485.815 166.478C486.231 166.478 486.562 166.308 486.809 165.968C487.061 165.622 487.187 165.121 487.187 164.465V164.228ZM495.888 165.563C495.952 165.95 496.175 166.255 496.556 166.478C496.937 166.694 497.44 166.803 498.067 166.803C498.94 166.803 499.767 166.636 500.546 166.302V168.675C499.638 169.038 498.536 169.22 497.241 169.22C495.671 169.22 494.449 168.818 493.576 168.016C492.703 167.213 492.267 166.108 492.267 164.702C492.267 163.735 492.457 162.883 492.838 162.145C493.225 161.406 493.793 160.829 494.543 160.413C495.299 159.991 496.131 159.78 497.039 159.78C497.971 159.78 498.768 159.962 499.43 160.325C500.092 160.688 500.593 161.198 500.933 161.854C501.278 162.511 501.451 163.278 501.451 164.157V165.563H495.888ZM498.138 163.604C498.138 162.566 497.766 162.048 497.021 162.048C496.711 162.048 496.45 162.191 496.239 162.479C496.028 162.76 495.905 163.135 495.87 163.604H498.138ZM509.52 163.208C509.379 163.144 509.188 163.085 508.948 163.032C508.708 162.979 508.509 162.953 508.351 162.953C507.114 162.953 506.496 163.668 506.496 165.098V169H502.752V160H506.496V161.582H506.531C506.76 161.014 507.085 160.583 507.507 160.29C507.929 159.991 508.421 159.842 508.983 159.842C509.188 159.842 509.367 159.877 509.52 159.947V163.208ZM513.835 165.563C513.899 165.95 514.122 166.255 514.503 166.478C514.884 166.694 515.388 166.803 516.015 166.803C516.888 166.803 517.714 166.636 518.493 166.302V168.675C517.585 169.038 516.483 169.22 515.188 169.22C513.618 169.22 512.396 168.818 511.523 168.016C510.65 167.213 510.214 166.108 510.214 164.702C510.214 163.735 510.404 162.883 510.785 162.145C511.172 161.406 511.74 160.829 512.49 160.413C513.246 159.991 514.078 159.78 514.986 159.78C515.918 159.78 516.715 159.962 517.377 160.325C518.039 160.688 518.54 161.198 518.88 161.854C519.226 162.511 519.398 163.278 519.398 164.157V165.563H513.835ZM516.085 163.604C516.085 162.566 515.713 162.048 514.969 162.048C514.658 162.048 514.397 162.191 514.187 162.479C513.976 162.76 513.853 163.135 513.817 163.604H516.085ZM528.117 168.745C527.625 169.038 526.699 169.196 525.34 169.22V169.58C526.482 169.662 527.054 170.184 527.054 171.145C527.054 171.795 526.787 172.293 526.254 172.639C525.727 172.984 524.974 173.157 523.995 173.157C523.679 173.157 523.342 173.14 522.984 173.104V171.593C523.201 171.64 523.441 171.663 523.705 171.663C524.039 171.663 524.291 171.613 524.461 171.514C524.631 171.42 524.716 171.297 524.716 171.145C524.716 170.963 524.648 170.828 524.514 170.74C524.379 170.658 524.145 170.617 523.811 170.617H523.652L523.468 170.635V168.974C522.478 168.669 521.701 168.136 521.139 167.374C520.582 166.612 520.304 165.722 520.304 164.702C520.304 163.671 520.521 162.789 520.954 162.057C521.394 161.318 522.018 160.756 522.826 160.369C523.635 159.977 524.572 159.78 525.639 159.78C526.225 159.78 526.749 159.818 527.212 159.895C527.681 159.971 527.982 160.059 528.117 160.158V163.076C527.93 162.93 527.66 162.801 527.309 162.689C526.957 162.578 526.632 162.522 526.333 162.522C525.595 162.522 525.038 162.695 524.663 163.041C524.288 163.387 524.101 163.879 524.101 164.518C524.101 165.139 524.285 165.622 524.654 165.968C525.023 166.308 525.536 166.478 526.192 166.478C526.89 166.478 527.531 166.311 528.117 165.977V168.745ZM539.622 164.342C539.622 165.859 539.162 167.052 538.242 167.919C537.328 168.786 536.048 169.22 534.401 169.22C532.767 169.22 531.492 168.798 530.578 167.954C529.67 167.104 529.216 165.936 529.216 164.447C529.216 163.492 529.43 162.663 529.857 161.96C530.285 161.257 530.895 160.718 531.686 160.343C532.477 159.968 533.388 159.78 534.419 159.78C535.485 159.78 536.408 159.977 537.188 160.369C537.973 160.762 538.573 161.307 538.989 162.004C539.411 162.701 539.622 163.48 539.622 164.342ZM535.825 164.359C535.825 163.135 535.356 162.522 534.419 162.522C533.481 162.522 533.013 163.164 533.013 164.447C533.013 165.801 533.487 166.478 534.437 166.478C535.362 166.478 535.825 165.771 535.825 164.359Z" fill="#1D1D1D" fill-opacity="0.5"/>
</g>
<defs>
<clipPath id="clip0_386_479">
<rect width="1000" height="640" fill="white"/>
</clipPath>
</defs>
</svg>
