<svg width="618" height="640" viewBox="0 0 618 640" fill="none" xmlns="http://www.w3.org/2000/svg">
<rect width="618" height="640" fill="white"/>
<g clip-path="url(#clip0_259_24)">
<path d="M192.826 228.495C192.052 229.609 191.364 230.681 190.762 231.709C190.246 232.652 189.773 233.595 189.343 234.538C187.795 237.194 186.333 239.937 184.957 242.766C183.581 245.508 182.205 248.337 180.829 251.251C179.711 253.479 178.636 255.751 177.604 258.065C176.572 260.379 175.497 262.736 174.379 265.136C173.519 267.278 171.842 268.435 169.348 268.607C168.23 268.693 167.198 268.478 166.252 267.964C165.392 267.45 164.618 266.722 163.93 265.779C163.07 264.407 162.425 262.865 161.995 261.15C160.963 257.551 159.846 253.994 158.641 250.48C157.524 246.965 156.577 243.451 155.803 239.937C155.718 239.166 155.331 238.394 154.642 237.623C154.642 238.994 154.513 240.28 154.255 241.48C154.083 245.766 153.868 250.094 153.61 254.465C153.438 258.836 153.267 263.164 153.094 267.45C152.922 270.621 152.622 273.793 152.191 276.964C151.848 280.135 151.461 283.349 151.03 286.606C150.945 287.634 150.816 288.663 150.644 289.692C150.558 290.634 150.429 291.663 150.257 292.777C150.171 293.377 149.955 293.977 149.612 294.577C149.268 295.091 148.709 295.434 147.935 295.605C147.246 295.948 146.516 295.991 145.742 295.734C145.053 295.391 144.495 294.834 144.065 294.063C143.721 293.634 143.463 293.163 143.291 292.648C143.205 292.049 143.076 291.448 142.904 290.849C142.302 287.163 141.786 283.435 141.356 279.664C141.012 275.892 140.883 272.164 140.969 268.478C141.141 260.165 141.528 251.979 142.13 243.923C142.388 241.18 142.602 238.437 142.775 235.695C142.947 232.952 143.118 230.166 143.291 227.338C143.463 225.109 143.678 222.881 143.936 220.653C144.279 218.339 144.753 216.067 145.355 213.839C145.527 213.153 145.698 212.51 145.871 211.91C146.129 211.225 146.43 210.582 146.774 209.982C148.407 207.411 150.644 206.511 153.481 207.282C155.46 207.796 156.964 208.653 157.996 209.853C159.028 211.053 159.846 212.51 160.447 214.224C162.168 218.853 163.672 223.567 164.962 228.366C166.338 233.08 167.757 237.837 169.219 242.637C169.477 243.666 169.778 244.737 170.122 245.851C170.466 246.965 170.81 248.08 171.154 249.194C171.756 249.022 172.1 248.723 172.186 248.294C172.358 247.78 172.53 247.351 172.702 247.008C174.68 243.837 176.443 240.58 177.991 237.237C179.539 233.895 181.259 230.595 183.151 227.338C184.355 225.109 185.645 222.924 187.021 220.781C188.397 218.553 189.816 216.367 191.278 214.224C191.536 213.796 191.794 213.325 192.052 212.81C192.396 212.21 192.654 211.653 192.826 211.139C193.084 209.939 193.686 208.953 194.632 208.182C195.664 207.411 196.739 206.982 197.857 206.896C199.061 206.811 200.179 207.068 201.211 207.668C202.329 208.268 203.146 209.125 203.662 210.239C204.092 210.839 204.35 211.568 204.436 212.425C204.608 213.282 204.737 214.096 204.823 214.867C204.995 217.01 205.081 219.238 205.081 221.553C205.167 223.867 205.253 226.181 205.339 228.495C205.339 234.066 205.21 239.637 204.952 245.208C204.78 250.78 204.479 256.35 204.049 261.922C203.877 263.807 203.791 265.779 203.791 267.836C203.791 269.807 203.748 271.821 203.662 273.878C203.49 277.992 203.361 282.149 203.275 286.349C203.275 290.463 203.275 294.577 203.275 298.691C203.275 300.576 202.501 301.734 200.953 302.162C199.233 302.505 197.986 301.862 197.212 300.234C196.524 298.777 196.094 297.191 195.922 295.477C195.578 293.505 195.363 291.534 195.277 289.563C195.191 287.506 195.062 285.534 194.89 283.649C194.632 280.135 194.46 276.578 194.374 272.978C194.288 269.378 194.073 265.822 193.729 262.307C193.299 256.993 193.041 251.68 192.955 246.365C192.869 241.051 192.869 235.738 192.955 230.424C192.955 230.252 192.955 230.038 192.955 229.781C192.955 229.524 192.912 229.095 192.826 228.495ZM215.168 281.978C215.168 277.949 215.727 274.092 216.845 270.407C218.049 266.636 219.597 262.95 221.489 259.35C222.435 257.636 223.553 256.008 224.843 254.465C226.133 252.922 227.595 251.594 229.229 250.48C231.465 248.937 233.787 248.037 236.195 247.78C238.775 247.608 241.097 248.165 243.161 249.451C245.225 250.737 246.816 252.494 247.934 254.722C249.052 256.865 249.396 259.307 248.966 262.05C248.88 262.822 248.708 263.636 248.45 264.493C248.192 265.35 247.848 266.164 247.418 266.936C246.3 269.078 244.967 271.135 243.419 273.107C241.957 274.992 240.151 276.664 238.001 278.121C236.625 279.064 235.163 279.878 233.615 280.563C232.153 281.163 230.562 281.42 228.842 281.335C228.24 281.335 227.853 281.42 227.681 281.592C227.595 281.764 227.552 282.149 227.552 282.749C227.466 284.12 227.552 285.492 227.81 286.863C228.068 288.234 228.412 289.606 228.842 290.977C229.358 292.091 229.831 292.734 230.261 292.906C230.691 293.077 231.465 292.82 232.583 292.134C234.217 291.277 235.679 290.12 236.969 288.663C237.743 287.977 238.517 287.377 239.291 286.863C240.065 286.263 240.839 285.663 241.613 285.063C241.957 284.721 242.473 284.377 243.161 284.035C244.451 283.606 245.526 283.735 246.386 284.42C247.332 285.02 247.805 286.006 247.805 287.377C247.805 287.977 247.762 288.577 247.676 289.177C247.59 289.777 247.461 290.377 247.289 290.977C246.171 294.234 244.58 297.063 242.516 299.462C240.452 301.862 237.657 303.619 234.131 304.734C229.229 306.019 224.972 304.862 221.36 301.262C219.468 299.377 218.135 297.277 217.361 294.963C216.587 292.648 215.985 290.249 215.555 287.763C215.469 286.82 215.383 285.878 215.297 284.935C215.297 283.906 215.254 282.921 215.168 281.978ZM239.291 260.765C239.291 260.165 239.248 259.651 239.162 259.222C239.076 258.708 238.818 258.365 238.388 258.193C237.786 257.851 237.012 258.065 236.066 258.836C235.722 259.008 235.421 259.222 235.163 259.479C234.905 259.736 234.604 260.036 234.26 260.379C233.142 261.75 232.196 263.25 231.422 264.879C230.734 266.507 230.089 268.136 229.487 269.764C229.057 270.364 229.1 270.836 229.616 271.178C229.788 271.35 230.003 271.435 230.261 271.435C230.605 271.35 230.863 271.264 231.035 271.178C234.905 269.036 237.614 265.864 239.162 261.665C239.248 261.493 239.291 261.322 239.291 261.15C239.291 260.893 239.291 260.765 239.291 260.765ZM284.423 270.921C282.875 272.292 281.757 273.707 281.069 275.164C279.263 278.335 277.801 281.678 276.683 285.192C275.565 288.706 274.705 292.306 274.103 295.991C274.017 296.848 273.845 297.705 273.587 298.562C273.329 299.419 272.985 300.191 272.555 300.877C271.265 303.019 269.545 303.962 267.395 303.705C266.277 303.705 265.331 303.405 264.557 302.805C263.783 302.205 263.095 301.434 262.493 300.491C262.149 299.72 261.891 298.905 261.719 298.048C261.633 297.191 261.504 296.334 261.332 295.477C260.902 292.049 260.429 288.62 259.913 285.192C259.483 281.678 259.182 278.206 259.01 274.778C258.838 272.464 258.838 270.15 259.01 267.836C259.182 265.521 259.44 263.207 259.784 260.893C259.784 260.465 259.87 260.079 260.042 259.736C260.214 259.307 260.343 258.922 260.429 258.579C261.203 256.436 262.622 255.494 264.686 255.751C265.546 255.836 266.32 256.222 267.008 256.908C267.696 257.594 268.083 258.407 268.169 259.35C268.427 261.407 268.642 263.421 268.814 265.393C269.072 267.364 269.373 269.335 269.717 271.307C269.803 271.65 269.846 272.078 269.846 272.593C269.846 273.021 269.975 273.449 270.233 273.878C270.663 273.707 270.921 273.492 271.007 273.235C271.093 272.893 271.179 272.593 271.265 272.335C272.125 270.621 272.985 268.95 273.845 267.321C274.705 265.607 275.694 264.064 276.812 262.693C277.328 262.007 277.844 261.364 278.36 260.765C278.876 260.079 279.478 259.479 280.166 258.965C282.402 257.165 284.81 256.479 287.39 256.908C289.97 257.25 292.077 258.665 293.711 261.15C294.485 262.522 295.087 263.979 295.517 265.521C295.947 266.979 296.248 268.478 296.42 270.021C296.85 272.593 297.194 275.207 297.452 277.864C297.796 280.435 298.14 283.006 298.484 285.577C298.656 287.12 298.871 288.663 299.129 290.206C299.473 291.663 299.731 293.163 299.903 294.706C300.075 295.305 300.29 295.82 300.548 296.248C300.806 296.677 301.236 297.105 301.838 297.534C303.644 298.477 304.203 299.977 303.515 302.034C302.741 304.176 301.408 305.505 299.516 306.019C297.624 306.533 295.818 306.105 294.098 304.734C293.324 304.048 292.679 303.319 292.163 302.548C291.647 301.777 291.174 300.962 290.744 300.105C289.368 297.62 288.336 295.091 287.648 292.52C286.96 289.949 286.444 287.249 286.1 284.42C285.842 282.449 285.627 280.435 285.455 278.378C285.283 276.321 284.982 274.307 284.552 272.335C284.552 272.164 284.509 271.993 284.423 271.821C284.423 271.564 284.423 271.264 284.423 270.921ZM323.878 299.334C325.855 297.877 327.403 296.334 328.522 294.706C330.069 292.563 331.574 290.377 333.036 288.149C334.584 285.92 335.917 283.606 337.035 281.206C337.121 280.864 337.207 280.606 337.293 280.435C337.379 280.178 337.422 279.921 337.422 279.664C337.508 277.864 338.54 276.75 340.518 276.321C342.496 276.149 343.958 276.878 344.904 278.506C345.42 279.106 345.721 279.749 345.807 280.435C345.979 281.035 346.065 281.721 346.065 282.492C345.721 287.035 344.517 291.406 342.453 295.605C339.873 300.662 336.433 304.862 332.133 308.205C331.187 308.976 330.198 309.619 329.167 310.133C328.22 310.733 327.145 311.162 325.942 311.419C323.791 311.933 321.641 311.719 319.492 310.776C317.341 309.919 315.622 308.547 314.332 306.662C313.558 305.376 312.87 304.048 312.268 302.676C311.665 301.219 311.149 299.762 310.72 298.305C309.601 295.134 308.785 291.877 308.269 288.534C307.753 285.192 307.28 281.849 306.85 278.506C306.162 273.707 305.646 268.821 305.302 263.85C304.872 258.879 304.657 253.908 304.657 248.937C304.657 247.994 304.571 247.437 304.399 247.265C304.227 247.094 303.625 247.094 302.593 247.265C301.475 247.523 300.357 247.823 299.239 248.165C298.035 248.422 296.831 248.637 295.627 248.808C294.165 249.151 292.617 248.937 290.983 248.165C289.435 247.222 288.575 245.937 288.403 244.308C288.231 242.594 288.747 241.137 289.951 239.937C291.155 238.909 292.445 238.18 293.821 237.752C295.369 237.323 296.917 236.895 298.465 236.466C299.927 236.037 301.432 235.652 302.98 235.309C304.012 235.137 304.657 234.966 304.915 234.795C305.087 234.538 305.216 233.852 305.302 232.738C305.388 229.824 305.646 226.952 306.076 224.124C306.42 221.21 306.979 218.296 307.753 215.382C308.097 214.353 308.398 213.325 308.656 212.296C309 211.182 309.472 210.153 310.075 209.21C310.591 208.525 311.107 207.925 311.623 207.411C312.139 206.811 312.741 206.339 313.429 205.996C315.063 204.882 316.869 204.796 318.847 205.739C319.706 206.339 320.222 207.068 320.395 207.925C320.653 208.782 320.695 209.682 320.524 210.625C320.351 212.51 320.008 214.396 319.492 216.281C318.976 218.081 318.631 219.967 318.46 221.938C318.288 223.567 318.073 225.195 317.815 226.824C317.643 228.452 317.47 230.123 317.299 231.838C317.299 232.609 317.341 233.08 317.428 233.252C317.599 233.338 318.115 233.38 318.976 233.38C320.695 233.38 322.33 233.338 323.878 233.252C325.426 233.166 327.016 233.123 328.651 233.123C331.574 233.123 334.025 234.237 336.003 236.466C336.519 236.895 336.906 237.409 337.164 238.009C337.508 238.523 337.723 239.08 337.809 239.68C337.981 241.137 337.508 242.423 336.39 243.537C335.272 244.566 334.111 244.823 332.907 244.308C332.735 244.308 332.52 244.308 332.262 244.308C332.09 244.223 331.875 244.223 331.617 244.308C329.725 244.994 327.79 245.294 325.813 245.208C323.92 245.123 321.985 245.208 320.008 245.466H318.202C317.17 245.466 316.654 245.98 316.654 247.008C316.825 248.637 316.912 250.265 316.912 251.894C316.912 253.436 316.954 255.022 317.041 256.651C317.212 260.85 317.514 265.05 317.944 269.25C318.373 273.449 318.933 277.607 319.621 281.721C319.879 283.863 320.179 286.006 320.524 288.149C320.953 290.206 321.469 292.306 322.072 294.448C322.243 295.22 322.501 295.991 322.846 296.763C323.189 297.534 323.533 298.391 323.878 299.334ZM355.882 281.978C355.882 277.949 356.441 274.092 357.559 270.407C358.763 266.636 360.311 262.95 362.203 259.35C363.149 257.636 364.267 256.008 365.557 254.465C366.847 252.922 368.309 251.594 369.943 250.48C372.179 248.937 374.501 248.037 376.909 247.78C379.489 247.608 381.811 248.165 383.875 249.451C385.939 250.737 387.53 252.494 388.646 254.722C389.767 256.865 390.11 259.307 389.678 262.05C389.594 262.822 389.42 263.636 389.162 264.493C388.904 265.35 388.562 266.164 388.13 266.936C387.014 269.078 385.681 271.135 384.133 273.107C382.671 274.992 380.865 276.664 378.715 278.121C377.339 279.064 375.877 279.878 374.329 280.563C372.867 281.163 371.276 281.42 369.556 281.335C368.954 281.335 368.567 281.42 368.395 281.592C368.309 281.764 368.266 282.149 368.266 282.749C368.18 284.12 368.266 285.492 368.524 286.863C368.782 288.234 369.126 289.606 369.556 290.977C370.072 292.091 370.545 292.734 370.975 292.906C371.405 293.077 372.179 292.82 373.297 292.134C374.931 291.277 376.393 290.12 377.683 288.663C378.457 287.977 379.231 287.377 380.005 286.863C380.779 286.263 381.553 285.663 382.327 285.063C382.671 284.721 383.187 284.377 383.875 284.035C385.165 283.606 386.24 283.735 387.098 284.42C388.046 285.02 388.517 286.006 388.517 287.377C388.517 287.977 388.477 288.577 388.388 289.177C388.304 289.777 388.175 290.377 388.001 290.977C386.885 294.234 385.294 297.063 383.23 299.462C381.166 301.862 378.371 303.619 374.845 304.734C369.943 306.019 365.686 304.862 362.074 301.262C360.182 299.377 358.849 297.277 358.075 294.963C357.301 292.648 356.699 290.249 356.269 287.763C356.183 286.82 356.097 285.878 356.011 284.935C356.011 283.906 355.968 282.921 355.882 281.978ZM380.005 260.765C380.005 260.165 379.962 259.651 379.876 259.222C379.79 258.708 379.532 258.365 379.102 258.193C378.5 257.851 377.726 258.065 376.78 258.836C376.436 259.008 376.135 259.222 375.877 259.479C375.619 259.736 375.318 260.036 374.974 260.379C373.856 261.75 372.91 263.25 372.136 264.879C371.448 266.507 370.803 268.136 370.201 269.764C369.771 270.364 369.814 270.836 370.33 271.178C370.502 271.35 370.717 271.435 370.975 271.435C371.319 271.35 371.577 271.264 371.749 271.178C375.619 269.036 378.328 265.864 379.876 261.665C379.962 261.493 380.005 261.322 380.005 261.15C380.005 260.893 380.005 260.765 380.005 260.765ZM176.755 380.531C176.668 376.846 176.583 372.946 176.497 368.832C176.41 364.718 176.368 360.604 176.368 356.49C176.368 352.29 176.325 348.176 176.239 344.148C176.239 340.033 176.281 335.919 176.368 331.805C176.368 329.663 176.368 327.563 176.368 325.506C176.454 323.449 176.583 321.349 176.755 319.206C176.926 317.749 177.184 316.463 177.529 315.349C177.7 314.749 177.916 314.235 178.174 313.806C178.432 313.292 178.776 312.778 179.206 312.264C180.409 311.064 181.786 310.592 183.334 310.849C184.882 311.107 186.085 311.964 186.946 313.421C187.462 314.107 187.805 314.878 187.978 315.735C188.149 316.506 188.278 317.363 188.365 318.306C188.536 323.106 188.579 327.906 188.494 332.705C188.407 337.419 188.236 342.176 187.978 346.976C187.978 347.49 187.934 348.004 187.849 348.519C187.762 348.947 187.72 349.419 187.72 349.933C187.547 358.504 187.289 367.032 186.946 375.517C186.859 381.86 186.859 388.288 186.946 394.802C186.946 396.43 187.117 397.373 187.462 397.63C187.805 397.887 188.752 397.844 190.3 397.502C192.879 396.902 195.416 396.302 197.91 395.702C200.49 395.102 203.113 394.63 205.779 394.288C208.359 393.859 210.939 393.516 213.519 393.259C216.185 393.002 218.765 392.959 221.259 393.13H229.902C230.676 393.13 231.407 393.173 232.095 393.259C232.869 393.345 233.557 393.602 234.159 394.03C235.105 394.373 235.75 394.973 236.094 395.83C236.438 396.687 236.524 397.502 236.352 398.273C236.266 398.959 235.922 399.559 235.32 400.073C234.804 400.502 234.288 400.544 233.772 400.201C232.396 399.516 231.106 399.344 229.902 399.687C228.698 400.03 227.494 400.287 226.29 400.459C225 400.63 223.71 400.93 222.42 401.359C221.216 401.787 219.969 402.258 218.679 402.773C214.809 404.144 210.853 405.301 206.811 406.244C202.769 407.101 198.727 408.001 194.685 408.944C193.137 409.201 191.632 409.501 190.171 409.844C188.708 410.186 187.204 410.572 185.656 411.001C184.451 411.258 183.419 411.344 182.56 411.258C180.496 411.086 178.905 410.358 177.787 409.072C176.755 407.787 176.281 406.201 176.368 404.316C176.454 402.087 176.539 399.901 176.626 397.759C176.797 395.53 176.841 393.345 176.755 391.202V380.531ZM250.118 348.004C247.625 349.119 245.474 348.776 243.668 346.976C243.067 346.29 242.68 345.39 242.507 344.276C242.336 343.162 242.465 342.091 242.894 341.062C243.41 339.948 244.271 339.048 245.474 338.362C246.679 337.591 247.883 337.205 249.086 337.205C251.58 337.205 253.257 338.362 254.117 340.676C254.547 341.705 254.591 342.776 254.246 343.89C253.988 344.919 253.386 345.819 252.44 346.59C252.096 346.933 251.709 347.233 251.279 347.49C250.935 347.662 250.548 347.833 250.118 348.004ZM255.278 401.359C255.623 403.158 255.063 404.444 253.601 405.215C252.053 405.987 250.505 405.815 248.957 404.701C248.27 404.101 247.754 403.416 247.409 402.644C247.066 401.873 246.722 401.058 246.377 400.201C246.119 399.001 245.861 397.759 245.603 396.473C245.432 395.187 245.26 393.945 245.087 392.745C244.571 388.459 244.142 384.174 243.797 379.888C243.539 375.517 243.583 371.189 243.926 366.903C244.013 365.96 244.142 365.018 244.313 364.075C244.486 363.046 244.873 362.104 245.474 361.247C245.905 360.39 246.464 359.704 247.151 359.19C247.925 358.675 248.828 358.418 249.86 358.418C251.838 358.504 253.257 359.532 254.117 361.504C254.891 363.046 255.278 364.718 255.278 366.518V384.26C255.192 385.288 255.107 386.531 255.02 387.988C254.934 389.445 254.891 391.03 254.891 392.745C254.891 394.116 254.891 395.53 254.891 396.987C254.978 398.445 255.107 399.901 255.278 401.359ZM280.66 393.516C281.09 392.402 281.434 391.416 281.692 390.559C281.95 389.616 282.165 388.716 282.337 387.859C283.283 384.688 284.143 381.474 284.917 378.217C285.691 374.96 286.508 371.703 287.368 368.446C287.712 366.818 288.314 365.146 289.174 363.432C289.776 361.889 290.636 360.561 291.754 359.447C292.958 358.333 294.291 357.39 295.753 356.618C297.559 355.761 299.107 355.975 300.397 357.261C301.601 358.461 301.644 359.789 300.526 361.247C300.182 361.932 299.967 362.661 299.881 363.432C299.795 364.118 299.709 364.803 299.623 365.489C299.021 368.489 298.29 371.446 297.43 374.36C296.656 377.274 295.968 380.231 295.366 383.231C294.764 386.145 294.162 389.016 293.56 391.845C292.958 394.673 292.184 397.545 291.238 400.459C290.894 401.83 290.507 403.158 290.077 404.444C289.647 405.644 289.131 406.93 288.529 408.301C288.271 408.901 287.97 409.501 287.626 410.101C287.282 410.615 286.895 411.129 286.465 411.644C284.831 413.529 282.896 414.472 280.66 414.472C278.424 414.472 276.489 413.529 274.855 411.644C273.995 410.701 273.307 409.672 272.791 408.558C272.275 407.358 271.802 406.115 271.372 404.83C269.91 400.801 268.792 396.687 268.018 392.488C267.244 388.202 266.599 383.959 266.083 379.76C265.825 377.96 265.61 376.16 265.438 374.36C265.352 372.475 265.266 370.632 265.18 368.832C265.18 367.632 265.223 366.475 265.309 365.361C265.481 364.161 265.739 363.003 266.083 361.889C266.341 361.032 266.728 360.175 267.244 359.318C268.448 357.861 269.781 357.175 271.243 357.261C272.791 357.347 273.995 358.247 274.855 359.961C275.285 360.904 275.629 361.889 275.887 362.918C276.145 363.946 276.317 365.018 276.403 366.132C276.833 370.16 277.306 374.232 277.822 378.346C278.424 382.374 279.112 386.402 279.886 390.431C279.972 390.859 280.058 391.331 280.144 391.845C280.316 392.273 280.488 392.83 280.66 393.516ZM319.747 369.603C320.35 369.175 320.737 368.746 320.908 368.318C321.081 367.803 321.253 367.375 321.424 367.032C322.198 365.575 323.101 364.204 324.133 362.918C325.165 361.547 326.413 360.432 327.874 359.575C329.852 358.375 331.787 357.69 333.679 357.518C335.657 357.261 337.635 357.732 339.613 358.932C341.075 359.704 342.15 360.861 342.838 362.404C343.612 363.946 343.827 365.489 343.483 367.032C343.225 368.66 342.537 369.732 341.419 370.246C340.301 370.76 339.011 370.589 337.549 369.732C336.775 369.303 336.13 369.089 335.614 369.089C335.098 369.089 334.496 369.432 333.808 370.117C333.464 370.46 333.121 370.889 332.776 371.403C332.518 371.917 332.218 372.389 331.873 372.817C331.271 374.189 330.755 375.56 330.325 376.931C329.896 378.217 329.465 379.546 329.035 380.917C328.261 383.574 327.53 386.274 326.842 389.016C326.24 391.673 325.724 394.373 325.294 397.116C325.123 398.83 324.95 400.544 324.778 402.258C324.607 403.973 324.52 405.687 324.52 407.401C324.52 408.001 324.478 408.644 324.391 409.329C324.391 410.015 324.262 410.701 324.004 411.387C323.144 413.958 321.382 415.243 318.715 415.243C316.05 415.501 314.115 414.429 312.91 412.029C312.567 411.344 312.309 410.615 312.136 409.844C312.051 409.072 311.922 408.387 311.749 407.787C311.148 404.187 310.632 400.63 310.202 397.116C309.772 393.516 309.342 389.916 308.912 386.317C308.568 382.802 308.353 379.246 308.267 375.646C308.181 371.96 308.181 368.275 308.267 364.589C308.267 362.189 309.17 360.432 310.976 359.318C312.523 358.375 314.115 358.247 315.748 358.932C317.383 359.532 318.457 360.689 318.973 362.404C319.489 363.775 319.747 365.146 319.747 366.518C319.662 366.946 319.618 367.418 319.618 367.932C319.705 368.446 319.747 369.003 319.747 369.603ZM349.458 388.502C349.458 384.474 350.016 380.617 351.135 376.931C352.338 373.16 353.886 369.475 355.779 365.875C356.724 364.161 357.843 362.532 359.133 360.989C360.423 359.447 361.884 358.118 363.518 357.004C365.754 355.461 368.076 354.561 370.484 354.304C373.064 354.133 375.386 354.69 377.45 355.975C379.514 357.261 381.105 359.018 382.223 361.247C383.341 363.389 383.685 365.832 383.255 368.575C383.169 369.346 382.997 370.16 382.739 371.017C382.481 371.874 382.137 372.689 381.707 373.46C380.589 375.603 379.256 377.66 377.708 379.631C376.246 381.517 374.44 383.188 372.29 384.645C370.914 385.588 369.452 386.402 367.904 387.088C366.442 387.688 364.851 387.945 363.131 387.859C362.529 387.859 362.142 387.945 361.97 388.116C361.884 388.288 361.842 388.674 361.842 389.274C361.755 390.645 361.841 392.016 362.099 393.388C362.357 394.759 362.701 396.13 363.131 397.502C363.647 398.616 364.12 399.259 364.55 399.43C364.98 399.602 365.754 399.344 366.872 398.659C368.506 397.802 369.968 396.645 371.258 395.187C372.032 394.502 372.806 393.902 373.58 393.388C374.354 392.788 375.128 392.188 375.902 391.588C376.246 391.245 376.762 390.902 377.45 390.559C378.74 390.13 379.815 390.259 380.675 390.945C381.621 391.545 382.094 392.531 382.094 393.902C382.094 394.502 382.051 395.102 381.965 395.702C381.879 396.302 381.75 396.902 381.578 397.502C380.46 400.759 378.869 403.587 376.805 405.987C374.741 408.387 371.946 410.144 368.42 411.258C363.518 412.544 359.262 411.387 355.65 407.787C353.757 405.901 352.425 403.801 351.651 401.487C350.877 399.173 350.274 396.773 349.845 394.288C349.758 393.345 349.673 392.402 349.587 391.459C349.587 390.431 349.544 389.445 349.458 388.502ZM373.58 367.289C373.58 366.689 373.537 366.175 373.451 365.746C373.365 365.232 373.107 364.889 372.677 364.718C372.075 364.375 371.301 364.589 370.355 365.361C370.011 365.532 369.71 365.746 369.452 366.003C369.194 366.261 368.893 366.561 368.549 366.903C367.431 368.275 366.485 369.775 365.711 371.403C365.023 373.031 364.378 374.66 363.776 376.289C363.346 376.888 363.389 377.36 363.905 377.703C364.077 377.874 364.292 377.96 364.55 377.96C364.894 377.874 365.152 377.788 365.324 377.703C369.194 375.56 371.903 372.389 373.451 368.189C373.537 368.017 373.58 367.846 373.58 367.675C373.58 367.418 373.58 367.289 373.58 367.289Z" fill="#0E2234"/>
<path d="M257.895 440.176C258.282 440.24 258.647 440.304 258.991 440.369C259.335 440.411 259.679 440.486 260.023 440.593C260.453 440.744 260.872 440.915 261.281 441.108C261.711 441.3 262.098 441.569 262.442 441.911C263.495 443.09 263.893 444.45 263.635 445.993C263.334 447.836 262.549 449.411 261.281 450.718C260.098 451.961 258.776 452.871 257.314 453.45C255.852 454.028 254.272 454.361 252.574 454.446C251.885 454.446 251.316 454.232 250.864 453.803C250.456 453.418 250.284 452.935 250.348 452.357C250.391 451.993 250.563 451.746 250.864 451.618C251.165 451.489 251.455 451.543 251.735 451.778C252.014 451.993 252.272 452.068 252.509 452.004C252.767 451.939 253.025 451.864 253.283 451.778C253.369 451.757 253.401 451.714 253.38 451.65C253.38 451.586 253.369 451.532 253.348 451.489C253.261 450.375 253.068 449.293 252.767 448.243C252.487 447.193 252.272 446.122 252.122 445.029C251.971 443.915 251.81 442.811 251.638 441.718C251.488 440.604 251.38 439.49 251.316 438.376C251.273 437.776 251.23 437.186 251.187 436.608C251.144 436.029 251.101 435.451 251.058 434.872C251.058 434.701 251.068 434.54 251.09 434.39C251.111 434.24 251.122 434.09 251.122 433.94C251.144 433.64 251.176 433.362 251.219 433.105C251.262 432.848 251.24 432.58 251.155 432.301C251.111 432.001 251.144 431.712 251.251 431.433C251.359 431.155 251.509 430.919 251.703 430.726C252.52 429.869 253.412 429.269 254.38 428.926C255.368 428.562 256.454 428.53 257.637 428.83C258.454 429.044 259.152 429.494 259.733 430.18C260.313 430.844 260.647 431.605 260.733 432.462C260.819 432.997 260.808 433.522 260.7 434.037C260.614 434.53 260.485 435.033 260.313 435.547C260.098 436.211 259.819 436.865 259.475 437.508C259.131 438.129 258.776 438.74 258.411 439.34C258.325 439.469 258.239 439.608 258.153 439.758C258.088 439.886 258.002 440.026 257.895 440.176ZM254.509 439.533C254.659 439.469 254.756 439.383 254.799 439.276C254.842 439.147 254.906 439.04 254.992 438.954C255.422 438.397 255.82 437.819 256.186 437.219C256.551 436.597 256.873 435.954 257.153 435.29C257.303 434.948 257.432 434.604 257.54 434.262C257.669 433.897 257.734 433.533 257.734 433.169C257.734 432.205 257.271 431.69 256.347 431.626C255.981 431.626 255.626 431.68 255.283 431.787C254.938 431.894 254.616 432.033 254.315 432.205C254.293 432.226 254.251 432.258 254.186 432.301C254.143 432.323 254.132 432.376 254.154 432.462C254.326 432.762 254.261 433.051 253.96 433.329C253.917 433.372 253.896 433.447 253.896 433.555C253.917 433.64 253.939 433.726 253.96 433.812C254.003 434.283 254.046 434.765 254.089 435.258C254.132 435.73 254.175 436.19 254.218 436.64C254.24 437.111 254.272 437.594 254.315 438.086C254.358 438.558 254.422 439.04 254.509 439.533ZM255.218 451.104C255.454 450.996 255.67 450.9 255.863 450.814C256.078 450.707 256.282 450.611 256.476 450.525C257.228 450.161 257.905 449.732 258.507 449.239C259.131 448.725 259.636 448.093 260.023 447.343C260.26 446.915 260.442 446.465 260.571 445.993C260.7 445.5 260.743 445.007 260.7 444.515C260.679 444.129 260.582 443.84 260.41 443.647C260.238 443.433 259.959 443.272 259.572 443.165C259.228 443.058 258.873 443.015 258.507 443.036C258.142 443.036 257.787 443.058 257.443 443.1C257.013 443.122 256.583 443.197 256.153 443.325C255.745 443.454 255.325 443.54 254.896 443.583C254.767 443.583 254.702 443.626 254.702 443.711C254.702 443.775 254.702 443.861 254.702 443.968C254.767 444.632 254.809 445.308 254.831 445.993C254.874 446.658 254.906 447.332 254.928 448.018C254.971 448.489 255.003 448.982 255.025 449.497C255.067 450.011 255.132 450.546 255.218 451.104ZM269.029 443.647C269.18 443.54 269.276 443.433 269.319 443.325C269.362 443.197 269.405 443.09 269.448 443.004C269.642 442.64 269.867 442.297 270.125 441.976C270.383 441.633 270.695 441.354 271.061 441.14C271.555 440.84 272.039 440.669 272.512 440.626C273.007 440.561 273.501 440.679 273.995 440.979C274.361 441.172 274.63 441.461 274.802 441.847C274.995 442.233 275.049 442.618 274.963 443.004C274.898 443.411 274.727 443.679 274.447 443.807C274.168 443.936 273.845 443.893 273.479 443.679C273.286 443.572 273.125 443.518 272.996 443.518C272.867 443.518 272.716 443.604 272.544 443.775C272.458 443.861 272.372 443.968 272.286 444.097C272.222 444.225 272.147 444.343 272.06 444.45C271.91 444.793 271.781 445.136 271.673 445.479C271.566 445.8 271.459 446.133 271.351 446.475C271.157 447.139 270.975 447.815 270.803 448.5C270.652 449.165 270.523 449.839 270.416 450.525C270.373 450.954 270.33 451.382 270.287 451.811C270.244 452.239 270.222 452.668 270.222 453.096C270.222 453.246 270.212 453.407 270.19 453.578C270.19 453.75 270.158 453.921 270.093 454.093C269.878 454.736 269.438 455.057 268.771 455.057C268.105 455.121 267.621 454.853 267.32 454.253C267.234 454.082 267.169 453.9 267.126 453.707C267.105 453.514 267.073 453.343 267.03 453.193C266.879 452.293 266.75 451.404 266.643 450.525C266.535 449.625 266.428 448.725 266.32 447.825C266.234 446.947 266.18 446.057 266.159 445.157C266.137 444.236 266.137 443.315 266.159 442.393C266.159 441.793 266.385 441.354 266.836 441.076C267.223 440.84 267.621 440.808 268.029 440.979C268.438 441.129 268.706 441.418 268.835 441.847C268.964 442.19 269.029 442.533 269.029 442.876C269.008 442.983 268.997 443.1 268.997 443.229C269.018 443.357 269.029 443.497 269.029 443.647ZM283.648 451.65C283.498 451.757 283.38 451.896 283.294 452.068C283.229 452.218 283.143 452.346 283.036 452.454C282.82 452.775 282.584 453.075 282.326 453.353C282.068 453.611 281.756 453.814 281.391 453.964C280.789 454.243 280.176 454.264 279.553 454.028C278.95 453.771 278.531 453.332 278.295 452.711C277.822 451.511 277.682 450.364 277.876 449.271C278.091 448.179 278.585 447.139 279.359 446.154C279.789 445.618 280.294 445.243 280.875 445.029C281.477 444.793 282.133 444.75 282.842 444.9C282.885 444.9 282.917 444.911 282.939 444.933C282.982 444.933 283.025 444.933 283.068 444.933C283.154 444.761 283.175 444.611 283.132 444.483C283.089 444.333 283.057 444.182 283.036 444.033C282.949 443.561 282.842 443.111 282.713 442.683C282.606 442.254 282.466 441.836 282.294 441.429C282.036 440.872 281.799 440.572 281.584 440.529C281.391 440.486 281.068 440.658 280.617 441.043C279.907 441.644 279.295 442.361 278.779 443.197C278.607 443.411 278.521 443.626 278.521 443.84C278.521 444.311 278.295 444.611 277.843 444.74C277.693 444.783 277.51 444.761 277.295 444.675C277.08 444.59 276.908 444.472 276.779 444.322C276.499 443.893 276.403 443.422 276.489 442.907C276.575 442.415 276.715 441.954 276.908 441.526C277.102 441.076 277.338 440.658 277.618 440.272C277.918 439.844 278.241 439.458 278.585 439.115C278.929 438.751 279.316 438.429 279.746 438.151C280.434 437.722 281.176 437.54 281.971 437.604C282.788 437.647 283.509 438.022 284.132 438.729C284.412 439.008 284.626 439.319 284.777 439.661C284.949 439.983 285.11 440.326 285.261 440.69C285.497 441.354 285.691 442.029 285.841 442.715C286.013 443.4 286.142 444.097 286.228 444.804C286.336 445.768 286.432 446.722 286.519 447.664C286.604 448.607 286.68 449.561 286.744 450.525C286.809 451.082 286.809 451.65 286.744 452.228C286.701 452.871 286.432 453.332 285.938 453.611C285.444 453.868 284.928 453.825 284.39 453.482C284.175 453.332 284.025 453.15 283.939 452.935C283.852 452.721 283.788 452.497 283.745 452.261C283.723 452.153 283.713 452.057 283.713 451.971C283.713 451.864 283.691 451.757 283.648 451.65ZM280.907 450.911C281.251 450.546 281.584 450.193 281.907 449.85C282.229 449.486 282.509 449.09 282.745 448.661C282.81 448.532 282.799 448.382 282.713 448.211C282.649 448.018 282.541 447.879 282.391 447.793C282.24 447.686 282.122 447.675 282.036 447.761C281.971 447.825 281.885 447.879 281.778 447.921C281.756 447.964 281.724 448.007 281.681 448.05C281.638 448.093 281.606 448.136 281.584 448.179C281.305 448.586 281.101 449.014 280.972 449.464C280.843 449.893 280.821 450.375 280.907 450.911ZM294.855 451.682C294.704 451.639 294.553 451.597 294.403 451.554C294.274 451.489 294.134 451.436 293.984 451.393C291.06 450.279 289.48 448.19 289.243 445.125C289.157 444.14 289.308 443.229 289.695 442.393C290.082 441.558 290.683 440.85 291.501 440.272C292.017 439.908 292.554 439.672 293.113 439.565C293.672 439.458 294.253 439.565 294.855 439.886C295.048 439.972 295.231 440.09 295.403 440.24C295.596 440.39 295.747 440.561 295.854 440.754C296.994 442.469 297.187 444.279 296.435 446.186C296.37 446.422 296.22 446.604 295.983 446.732C295.768 446.861 295.553 446.904 295.338 446.861C294.844 446.818 294.564 446.486 294.5 445.865C294.5 445.565 294.5 445.275 294.5 444.997C294.521 444.697 294.511 444.408 294.468 444.129C294.446 443.893 294.392 443.668 294.306 443.454C294.242 443.218 294.134 443.004 293.984 442.811C293.747 442.554 293.5 442.522 293.242 442.715C292.984 442.929 292.78 443.186 292.629 443.486C292.479 443.765 292.36 444.076 292.275 444.418C292.167 445.147 292.318 445.875 292.726 446.604C293.156 447.332 293.672 447.857 294.274 448.179C294.64 448.371 295.005 448.532 295.371 448.661C295.736 448.768 296.123 448.864 296.531 448.95C296.725 448.993 296.908 449.047 297.08 449.111C297.273 449.175 297.467 449.229 297.66 449.271C298.155 449.464 298.51 449.786 298.724 450.236C298.939 450.664 298.982 451.136 298.853 451.65C298.768 452.121 298.531 452.55 298.144 452.935C297.671 453.471 297.133 453.921 296.531 454.286C295.93 454.65 295.317 455.004 294.693 455.346C294.306 455.539 293.919 455.711 293.532 455.86C293.167 456.032 292.769 456.15 292.339 456.214C292.146 456.236 291.952 456.236 291.759 456.214C291.586 456.193 291.404 456.161 291.21 456.118C290.673 455.946 290.35 455.636 290.243 455.185C290.135 454.757 290.157 454.361 290.308 453.996C290.415 453.696 290.576 453.439 290.791 453.225C290.963 453.075 291.135 452.978 291.307 452.935C291.501 452.893 291.683 452.925 291.855 453.032C292.006 453.118 292.135 453.15 292.242 453.128C292.35 453.107 292.457 453.075 292.565 453.032C292.866 452.861 293.167 452.7 293.468 452.55C293.79 452.4 294.102 452.239 294.403 452.068C294.489 452.025 294.575 451.971 294.661 451.907C294.747 451.843 294.811 451.768 294.855 451.682ZM301.823 438.247C301.199 438.526 300.662 438.44 300.211 437.99C300.06 437.819 299.963 437.594 299.92 437.315C299.877 437.037 299.909 436.769 300.017 436.512C300.146 436.233 300.361 436.008 300.662 435.836C300.963 435.644 301.264 435.547 301.565 435.547C302.189 435.547 302.608 435.836 302.823 436.415C302.93 436.672 302.941 436.94 302.855 437.219C302.79 437.476 302.64 437.701 302.404 437.894C302.318 437.979 302.221 438.054 302.113 438.119C302.027 438.162 301.931 438.204 301.823 438.247ZM303.113 451.586C303.199 452.036 303.059 452.357 302.694 452.55C302.307 452.743 301.92 452.7 301.533 452.421C301.361 452.271 301.232 452.1 301.146 451.907C301.06 451.714 300.974 451.511 300.888 451.296C300.823 450.996 300.759 450.686 300.694 450.364C300.651 450.043 300.608 449.732 300.565 449.432C300.436 448.361 300.329 447.29 300.243 446.218C300.178 445.125 300.189 444.043 300.275 442.972C300.296 442.736 300.329 442.5 300.372 442.265C300.415 442.008 300.512 441.772 300.662 441.558C300.77 441.343 300.909 441.172 301.081 441.043C301.275 440.915 301.501 440.85 301.759 440.85C302.253 440.872 302.608 441.129 302.823 441.622C303.016 442.008 303.113 442.426 303.113 442.876V447.311C303.092 447.568 303.07 447.879 303.049 448.243C303.027 448.607 303.016 449.004 303.016 449.432C303.016 449.775 303.016 450.129 303.016 450.493C303.038 450.857 303.07 451.222 303.113 451.586ZM308.62 451.071C308.62 451.371 308.63 451.682 308.652 452.004C308.674 452.325 308.663 452.657 308.62 453C308.62 453.086 308.62 453.193 308.62 453.321C308.62 453.428 308.609 453.546 308.588 453.675C308.523 454.104 308.297 454.361 307.91 454.446C307.48 454.468 307.136 454.339 306.878 454.061C306.728 453.889 306.61 453.696 306.524 453.482C306.459 453.268 306.384 453.053 306.298 452.839C306.212 452.454 306.137 452.068 306.072 451.682C306.029 451.296 305.997 450.911 305.975 450.525C305.846 449.347 305.76 448.168 305.717 446.99C305.696 445.811 305.663 444.632 305.621 443.454C305.599 441.761 305.578 440.079 305.556 438.408C305.556 436.736 305.567 435.054 305.588 433.362C305.588 433.212 305.588 433.072 305.588 432.944C305.61 432.794 305.642 432.644 305.685 432.494C305.792 432.194 305.965 431.948 306.201 431.755C306.437 431.541 306.717 431.433 307.04 431.433C307.706 431.433 308.136 431.787 308.33 432.494C308.394 432.687 308.426 432.879 308.426 433.072C308.512 434.465 308.566 435.858 308.588 437.251C308.63 438.644 308.663 440.036 308.684 441.429C308.684 441.579 308.684 441.933 308.684 442.49C308.684 443.047 308.684 443.711 308.684 444.483C308.684 445.233 308.674 446.025 308.652 446.861C308.652 447.697 308.652 448.489 308.652 449.239C308.652 449.968 308.641 450.579 308.62 451.071Z" fill="#0E2234"/>
<path d="M45.4874 426.951C33.9035 395.505 31.3686 334.451 63.8286 343.144C76.1274 346.437 78.2923 357.343 89.7762 362.829C107.278 371.19 130.234 352.185 139.032 369.427C146.47 384.004 130.679 393.59 126.65 409.443C119.855 436.173 138.783 464.675 115.219 479.125C86.2176 496.91 57.2232 458.809 45.4874 426.951Z" fill="#EE75A7"/>
<path d="M180.863 455.557C163.16 451.495 135.34 461.597 135.951 443.476C136.193 436.312 138.395 431.726 143.596 426.784C154.618 416.312 166.965 433.669 182.137 432.507C201.669 431.011 211.579 405.525 228.96 414.544C237.287 418.865 242.798 423.374 244.886 432.507C248.38 447.79 233.661 458.056 218.767 463.028C204.458 467.805 195.568 458.931 180.863 455.557Z" fill="#0C7D81"/>
<path d="M390.279 404.676C410.373 375.889 382.51 322.28 417.553 319.089C454.631 315.713 458.114 374.024 447.038 409.451C432.119 457.162 307.271 502.141 327.622 456.469C340.524 427.513 372.123 430.684 390.279 404.676Z" fill="#0469B1"/>
<path d="M396.15 293.305C400.282 277.775 390.533 260.537 404.812 253.083C423.141 243.516 434.437 287.215 421.397 303.223C413.237 313.244 395.413 325.815 390.069 314.059C386.575 306.368 393.983 301.467 396.15 293.305Z" fill="#F9BB0D"/>
<path d="M473.428 200.954C458.482 193.641 454.812 173.829 438.414 176.711C416.344 180.59 424.324 211.655 429.937 233.279C437.05 260.68 452.224 284.563 480.615 285.256C502.913 285.8 528.956 277.365 529.082 255.135C529.133 246.06 521.224 242.354 521.157 233.279C521.102 225.919 526.631 222.44 526.133 215.096C524.692 193.901 492.56 210.318 473.428 200.954Z" fill="#E30140"/>
<path d="M461.387 233.729C462.201 233.729 462.861 233.072 462.861 232.26C462.861 231.449 462.201 230.791 461.387 230.791C460.573 230.791 459.913 231.449 459.913 232.26C459.913 233.072 460.573 233.729 461.387 233.729Z" fill="#51001A"/>
<path d="M491.609 233.729C492.423 233.729 493.083 233.072 493.083 232.26C493.083 231.449 492.423 230.791 491.609 230.791C490.795 230.791 490.135 231.449 490.135 232.26C490.135 233.072 490.795 233.729 491.609 233.729Z" fill="#51001A"/>
<path d="M469.495 238.321C474.71 231.86 477.747 232.23 483.316 238.321" stroke="#51001A" stroke-width="7" stroke-linecap="round"/>
<path d="M125.868 219.301C133.196 204.4 153.071 200.726 150.167 184.387C146.258 162.393 115.095 170.37 93.4017 175.981C65.9132 183.09 41.961 198.232 41.2873 226.527C40.7582 248.752 49.2408 274.698 71.5464 274.808C80.6522 274.852 84.3644 266.966 93.4702 266.894C100.855 266.835 104.35 272.342 111.718 271.839C132.984 270.388 116.488 238.377 125.868 219.301Z" fill="#E30140"/>
<path d="M318.994 201.215C309.658 199.471 301.101 205.405 294.852 198.276C290.041 192.788 291.062 187.183 291.535 179.91C292.935 158.397 312.274 138.955 333.368 143.729C351.966 147.937 361.43 166.18 359.167 185.053C357.934 195.34 356.511 204.159 347.189 208.745C336.967 213.774 330.198 203.308 318.994 201.215Z" fill="#0C7D81"/>
<path d="M204.327 169.838C191.372 172.115 184.781 155.525 172.262 159.553C152.829 165.806 187.409 197.953 207.829 197.755C223.158 197.606 240.445 190.993 240.263 175.716C240.15 166.281 236.618 157.846 227.547 155.145C217.255 152.081 214.905 167.98 204.327 169.838Z" fill="#EE75A7"/>
<path d="M62.5359 284.054C50.8804 286.103 43.3055 291.895 38.7631 302.788C30.029 323.731 58.9328 337.725 81.1485 342.643C101.569 347.163 131.134 349.102 132.748 328.317C134.175 309.933 111.462 308.474 95.5227 299.115C83.3142 291.946 76.4898 281.6 62.5359 284.054Z" fill="#9C9B9B"/>
<path d="M73.2853 217.934C74.0995 217.934 74.7596 217.277 74.7596 216.465C74.7596 215.654 74.0995 214.996 73.2853 214.996C72.4711 214.996 71.811 215.654 71.811 216.465C71.811 217.277 72.4711 217.934 73.2853 217.934Z" fill="#51001A"/>
<path d="M103.507 217.934C104.322 217.934 104.982 217.277 104.982 216.465C104.982 215.654 104.322 214.996 103.507 214.996C102.693 214.996 102.033 215.654 102.033 216.465C102.033 217.277 102.693 217.934 103.507 217.934Z" fill="#51001A"/>
<path d="M69.9678 234.464L73.6276 230.99C73.7507 230.873 73.9384 230.855 74.0817 230.948L79.3401 234.329C79.4672 234.41 79.6312 234.407 79.7543 234.319L84.451 230.976C84.5999 230.869 84.8045 230.889 84.9312 231.02L88.8904 235.13C89.0264 235.271 89.2497 235.281 89.3979 235.153L93.0707 231.97C93.2329 231.829 93.4813 231.856 93.6088 232.029L96.2105 235.537C96.3572 235.734 96.6535 235.735 96.8017 235.539L100.099 231.157C100.24 230.969 100.52 230.96 100.673 231.139L104.797 235.933" stroke="#51001A" stroke-width="7" stroke-linecap="round"/>
<path d="M63.3336 397.924C64.1479 397.924 64.8079 397.266 64.8079 396.455C64.8079 395.643 64.1479 394.985 63.3336 394.985C62.5194 394.985 61.8594 395.643 61.8594 396.455C61.8594 397.266 62.5194 397.924 63.3336 397.924Z" fill="#932050"/>
<path d="M115.302 396.455C116.116 396.455 116.776 395.797 116.776 394.985C116.776 394.174 116.116 393.516 115.302 393.516C114.488 393.516 113.828 394.174 113.828 394.985C113.828 395.797 114.488 396.455 115.302 396.455Z" fill="#932050"/>
<path d="M88.0278 416.841C90.1209 416.841 91.5291 414.857 91.5291 412.801C91.5291 410.744 90.1209 408.76 88.0278 408.76C85.9347 408.76 84.5264 410.744 84.5264 412.801C84.5264 414.857 85.9347 416.841 88.0278 416.841Z" stroke="#932050" stroke-width="5"/>
<path d="M69.9679 318.949C70.7821 318.949 71.4422 318.291 71.4422 317.48C71.4422 316.668 70.7821 316.01 69.9679 316.01C69.1537 316.01 68.4937 316.668 68.4937 317.48C68.4937 318.291 69.1537 318.949 69.9679 318.949Z" fill="#303636"/>
<path d="M100.191 318.949C101.005 318.949 101.665 318.291 101.665 317.48C101.665 316.668 101.005 316.01 100.191 316.01C99.3764 316.01 98.7163 316.668 98.7163 317.48C98.7163 318.291 99.3764 318.949 100.191 318.949Z" fill="#303636"/>
<path d="M78.0767 323.541C83.2937 317.08 86.3304 317.45 91.8979 323.541" stroke="#303636" stroke-width="7" stroke-linecap="round"/>
<path d="M175.747 444.207C176.561 444.207 177.221 443.549 177.221 442.738C177.221 441.926 176.561 441.268 175.747 441.268C174.933 441.268 174.272 441.926 174.272 442.738C174.272 443.549 174.933 444.207 175.747 444.207Z" fill="#053638"/>
<path d="M205.969 444.207C206.784 444.207 207.444 443.549 207.444 442.738C207.444 441.926 206.784 441.268 205.969 441.268C205.155 441.268 204.495 441.926 204.495 442.738C204.495 443.549 205.155 444.207 205.969 444.207Z" fill="#053638"/>
<path d="M197.677 444.091C192.46 450.552 189.423 450.182 183.855 444.091" stroke="#053638" stroke-width="7" stroke-linecap="round"/>
<path d="M198.598 184.875H213.709" stroke="#932050" stroke-width="7" stroke-linecap="round"/>
<path d="M194.544 177.896C195.358 177.896 196.018 177.238 196.018 176.427C196.018 175.615 195.358 174.957 194.544 174.957C193.729 174.957 193.069 175.615 193.069 176.427C193.069 177.238 193.729 177.896 194.544 177.896Z" fill="#932050"/>
<path d="M212.235 177.896C213.049 177.896 213.709 177.238 213.709 176.427C213.709 175.615 213.049 174.957 212.235 174.957C211.421 174.957 210.761 175.615 210.761 176.427C210.761 177.238 211.421 177.896 212.235 177.896Z" fill="#932050"/>
<path d="M311.38 174.223C312.194 174.223 312.854 173.565 312.854 172.753C312.854 171.942 312.194 171.284 311.38 171.284C310.565 171.284 309.905 171.942 309.905 172.753C309.905 173.565 310.565 174.223 311.38 174.223Z" fill="#053638"/>
<path d="M341.602 174.223C342.416 174.223 343.076 173.565 343.076 172.753C343.076 171.942 342.416 171.284 341.602 171.284C340.788 171.284 340.128 171.942 340.128 172.753C340.128 173.565 340.788 174.223 341.602 174.223Z" fill="#053638"/>
<path d="M319.488 178.815C324.705 172.353 327.742 172.723 333.31 178.815" stroke="#053638" stroke-width="7" stroke-linecap="round"/>
<path d="M402.047 290.727C402.047 290.727 404.627 288.537 406.654 288.156C410.418 287.449 411.719 292.996 415.5 292.38C418.356 291.915 421.581 288.156 421.581 288.156" stroke="#906804" stroke-width="7" stroke-linecap="round"/>
<path d="M404.627 280.012C405.441 280.012 406.101 279.355 406.101 278.543C406.101 277.732 405.441 277.074 404.627 277.074C403.813 277.074 403.153 277.732 403.153 278.543C403.153 279.355 403.813 280.012 404.627 280.012Z" fill="#906804"/>
<path d="M416.79 280.012C417.604 280.012 418.264 279.355 418.264 278.543C418.264 277.732 417.604 277.074 416.79 277.074C415.976 277.074 415.316 277.732 415.316 278.543C415.316 279.355 415.976 280.012 416.79 280.012Z" fill="#906804"/>
<path d="M414.579 385.802C414.579 395.353 427.11 397.006 427.11 385.802" stroke="#022F50" stroke-width="7" stroke-linecap="round"/>
<path d="M415.316 379.925C416.13 379.925 416.79 379.267 416.79 378.456C416.79 377.644 416.13 376.986 415.316 376.986C414.501 376.986 413.841 377.644 413.841 378.456C413.841 379.267 414.501 379.925 415.316 379.925Z" fill="#022F50"/>
<path d="M426.004 379.925C426.818 379.925 427.478 379.267 427.478 378.456C427.478 377.644 426.818 376.986 426.004 376.986C425.19 376.986 424.53 377.644 424.53 378.456C424.53 379.267 425.19 379.925 426.004 379.925Z" fill="#022F50"/>
<path d="M197.124 151.081C198.549 151.081 199.704 149.93 199.704 148.51C199.704 147.09 198.549 145.939 197.124 145.939C195.699 145.939 194.544 147.09 194.544 148.51C194.544 149.93 195.699 151.081 197.124 151.081Z" fill="#EE75A7"/>
<path d="M263.834 194.058C265.259 194.058 266.414 192.907 266.414 191.487C266.414 190.067 265.259 188.916 263.834 188.916C262.409 188.916 261.254 190.067 261.254 191.487C261.254 192.907 262.409 194.058 263.834 194.058Z" fill="#EE75A7"/>
<path d="M389.885 185.242C391.31 185.242 392.465 184.091 392.465 182.671C392.465 181.251 391.31 180.1 389.885 180.1C388.46 180.1 387.305 181.251 387.305 182.671C387.305 184.091 388.46 185.242 389.885 185.242Z" fill="#00A265"/>
<path d="M394.308 220.873C395.732 220.873 396.887 219.722 396.887 218.302C396.887 216.882 395.732 215.73 394.308 215.73C392.883 215.73 391.728 216.882 391.728 218.302C391.728 219.722 392.883 220.873 394.308 220.873Z" fill="#F9BB0D"/>
<path d="M450.698 290.298C452.123 290.298 453.278 289.146 453.278 287.726C453.278 286.306 452.123 285.155 450.698 285.155C449.273 285.155 448.118 286.306 448.118 287.726C448.118 289.146 449.273 290.298 450.698 290.298Z" fill="#E30140"/>
<path d="M470.232 370.742C471.657 370.742 472.812 369.591 472.812 368.171C472.812 366.751 471.657 365.599 470.232 365.599C468.807 365.599 467.652 366.751 467.652 368.171C467.652 369.591 468.807 370.742 470.232 370.742Z" fill="#0469B1"/>
<path d="M317.915 461.91C319.086 461.1 319.376 459.498 318.564 458.332C317.752 457.165 316.144 456.875 314.974 457.685C313.803 458.495 313.513 460.097 314.325 461.263C315.137 462.43 316.745 462.72 317.915 461.91Z" fill="#F9BB0D"/>
<path d="M143.583 410.117C144.754 409.307 145.044 407.705 144.232 406.539C143.419 405.372 141.812 405.082 140.641 405.892C139.47 406.702 139.18 408.304 139.992 409.471C140.805 410.637 142.412 410.927 143.583 410.117Z" fill="#EE75A7"/>
<path d="M130.683 348.406C131.854 347.597 132.144 345.995 131.332 344.828C130.519 343.661 128.912 343.372 127.741 344.181C126.571 344.991 126.28 346.593 127.093 347.76C127.905 348.926 129.512 349.216 130.683 348.406Z" fill="#9C9B9B"/>
<path d="M130.683 303.96C131.854 303.15 132.144 301.548 131.332 300.381C130.519 299.215 128.912 298.925 127.741 299.735C126.571 300.545 126.28 302.147 127.093 303.313C127.905 304.48 129.512 304.769 130.683 303.96Z" fill="#9C9B9B"/>
<path d="M159.432 193.395C160.602 192.585 160.893 190.983 160.08 189.816C159.268 188.65 157.66 188.36 156.49 189.17C155.319 189.98 155.029 191.582 155.841 192.748C156.653 193.915 158.261 194.204 159.432 193.395Z" fill="#E30140"/>
<path d="M23.0614 415.26C24.232 414.45 24.5225 412.848 23.7101 411.681C22.8977 410.514 21.2902 410.225 20.1196 411.035C18.949 411.844 18.6586 413.446 19.4709 414.613C20.2833 415.78 21.8908 416.069 23.0614 415.26Z" fill="#EE75A7"/>
<path d="M470.232 393.516C471.657 393.516 472.812 392.365 472.812 390.945C472.812 389.525 471.657 388.374 470.232 388.374C468.807 388.374 467.652 389.525 467.652 390.945C467.652 392.365 468.807 393.516 470.232 393.516Z" fill="#0469B1"/>
<path d="M540.997 225.281C542.422 225.281 543.577 224.13 543.577 222.71C543.577 221.29 542.422 220.138 540.997 220.138C539.572 220.138 538.417 221.29 538.417 222.71C538.417 224.13 539.572 225.281 540.997 225.281Z" fill="#E30140"/>
<path d="M545.42 252.463C546.845 252.463 548 251.312 548 249.892C548 248.472 546.845 247.32 545.42 247.32C543.995 247.32 542.84 248.472 542.84 249.892C542.84 251.312 543.995 252.463 545.42 252.463Z" fill="#E30140"/>
</g>
<defs>
<clipPath id="clip0_259_24">
<rect width="530" height="353" fill="white" transform="translate(18 143)"/>
</clipPath>
</defs>
</svg>
