<svg width="600" height="400" viewBox="0 0 600 400" fill="none" xmlns="http://www.w3.org/2000/svg">
<rect width="600" height="400" fill="#E30140"/>
<path d="M60.8184 176.104C60.8184 172.776 61.5384 169.816 62.9784 167.224C64.4184 164.6 66.4184 162.568 68.9784 161.128C71.5704 159.656 74.4984 158.92 77.7624 158.92C81.7624 158.92 85.1864 159.976 88.0344 162.088C90.8824 164.2 92.7864 167.08 93.7464 170.728H84.7224C84.0504 169.32 83.0904 168.248 81.8424 167.512C80.6264 166.776 79.2344 166.408 77.6664 166.408C75.1384 166.408 73.0904 167.288 71.5224 169.048C69.9544 170.808 69.1704 173.16 69.1704 176.104C69.1704 179.048 69.9544 181.4 71.5224 183.16C73.0904 184.92 75.1384 185.8 77.6664 185.8C79.2344 185.8 80.6264 185.432 81.8424 184.696C83.0904 183.96 84.0504 182.888 84.7224 181.48H93.7464C92.7864 185.128 90.8824 188.008 88.0344 190.12C85.1864 192.2 81.7624 193.24 77.7624 193.24C74.4984 193.24 71.5704 192.52 68.9784 191.08C66.4184 189.608 64.4184 187.576 62.9784 184.984C61.5384 182.392 60.8184 179.432 60.8184 176.104ZM97.1409 179.56C97.1409 176.808 97.6529 174.392 98.6769 172.312C99.7329 170.232 101.157 168.632 102.949 167.512C104.741 166.392 106.741 165.832 108.949 165.832C110.837 165.832 112.485 166.216 113.893 166.984C115.333 167.752 116.437 168.76 117.205 170.008V166.216H125.413V193H117.205V189.208C116.405 190.456 115.285 191.464 113.845 192.232C112.437 193 110.789 193.384 108.901 193.384C106.725 193.384 104.741 192.824 102.949 191.704C101.157 190.552 99.7329 188.936 98.6769 186.856C97.6529 184.744 97.1409 182.312 97.1409 179.56ZM117.205 179.608C117.205 177.56 116.629 175.944 115.477 174.76C114.357 173.576 112.981 172.984 111.349 172.984C109.717 172.984 108.325 173.576 107.173 174.76C106.053 175.912 105.493 177.512 105.493 179.56C105.493 181.608 106.053 183.24 107.173 184.456C108.325 185.64 109.717 186.232 111.349 186.232C112.981 186.232 114.357 185.64 115.477 184.456C116.629 183.272 117.205 181.656 117.205 179.608ZM129.719 179.56C129.719 176.808 130.231 174.392 131.255 172.312C132.311 170.232 133.735 168.632 135.527 167.512C137.319 166.392 139.319 165.832 141.527 165.832C143.287 165.832 144.887 166.2 146.327 166.936C147.799 167.672 148.951 168.664 149.783 169.912V157.48H157.991V193H149.783V189.16C149.015 190.44 147.911 191.464 146.471 192.232C145.063 193 143.415 193.384 141.527 193.384C139.319 193.384 137.319 192.824 135.527 191.704C133.735 190.552 132.311 188.936 131.255 186.856C130.231 184.744 129.719 182.312 129.719 179.56ZM149.783 179.608C149.783 177.56 149.207 175.944 148.055 174.76C146.935 173.576 145.559 172.984 143.927 172.984C142.295 172.984 140.903 173.576 139.751 174.76C138.631 175.912 138.071 177.512 138.071 179.56C138.071 181.608 138.631 183.24 139.751 184.456C140.903 185.64 142.295 186.232 143.927 186.232C145.559 186.232 146.935 185.64 148.055 184.456C149.207 183.272 149.783 181.656 149.783 179.608ZM162.297 179.56C162.297 176.808 162.809 174.392 163.833 172.312C164.889 170.232 166.313 168.632 168.105 167.512C169.897 166.392 171.897 165.832 174.105 165.832C175.993 165.832 177.641 166.216 179.049 166.984C180.489 167.752 181.593 168.76 182.361 170.008V166.216H190.569V193H182.361V189.208C181.561 190.456 180.441 191.464 179.001 192.232C177.593 193 175.945 193.384 174.057 193.384C171.881 193.384 169.897 192.824 168.105 191.704C166.313 190.552 164.889 188.936 163.833 186.856C162.809 184.744 162.297 182.312 162.297 179.56ZM182.361 179.608C182.361 177.56 181.785 175.944 180.633 174.76C179.513 173.576 178.137 172.984 176.505 172.984C174.873 172.984 173.481 173.576 172.329 174.76C171.209 175.912 170.649 177.512 170.649 179.56C170.649 181.608 171.209 183.24 172.329 184.456C173.481 185.64 174.873 186.232 176.505 186.232C178.137 186.232 179.513 185.64 180.633 184.456C181.785 183.272 182.361 181.656 182.361 179.608ZM207.403 193.384C205.067 193.384 202.987 192.984 201.163 192.184C199.339 191.384 197.899 190.296 196.843 188.92C195.787 187.512 195.195 185.944 195.067 184.216H203.179C203.275 185.144 203.707 185.896 204.475 186.472C205.243 187.048 206.187 187.336 207.307 187.336C208.331 187.336 209.115 187.144 209.659 186.76C210.235 186.344 210.523 185.816 210.523 185.176C210.523 184.408 210.123 183.848 209.323 183.496C208.523 183.112 207.227 182.696 205.435 182.248C203.515 181.8 201.915 181.336 200.635 180.856C199.355 180.344 198.251 179.56 197.323 178.504C196.395 177.416 195.931 175.96 195.931 174.136C195.931 172.6 196.347 171.208 197.179 169.96C198.043 168.68 199.291 167.672 200.923 166.936C202.587 166.2 204.555 165.832 206.827 165.832C210.187 165.832 212.827 166.664 214.747 168.328C216.699 169.992 217.819 172.2 218.107 174.952H210.523C210.395 174.024 209.979 173.288 209.275 172.744C208.603 172.2 207.707 171.928 206.587 171.928C205.627 171.928 204.891 172.12 204.379 172.504C203.867 172.856 203.611 173.352 203.611 173.992C203.611 174.76 204.011 175.336 204.811 175.72C205.643 176.104 206.923 176.488 208.651 176.872C210.635 177.384 212.251 177.896 213.499 178.408C214.747 178.888 215.835 179.688 216.763 180.808C217.723 181.896 218.219 183.368 218.251 185.224C218.251 186.792 217.803 188.2 216.907 189.448C216.043 190.664 214.779 191.624 213.115 192.328C211.483 193.032 209.579 193.384 207.403 193.384ZM238.201 186.04V193H234.025C231.049 193 228.729 192.28 227.065 190.84C225.401 189.368 224.569 186.984 224.569 183.688V173.032H221.305V166.216H224.569V159.688H232.777V166.216H238.153V173.032H232.777V183.784C232.777 184.584 232.969 185.16 233.353 185.512C233.737 185.864 234.377 186.04 235.273 186.04H238.201ZM250.981 170.68C251.941 169.208 253.141 168.056 254.581 167.224C256.021 166.36 257.621 165.928 259.381 165.928V174.616H257.125C255.077 174.616 253.541 175.064 252.517 175.96C251.493 176.824 250.981 178.36 250.981 180.568V193H242.773V166.216H250.981V170.68ZM275.496 193.384C272.872 193.384 270.504 192.824 268.392 191.704C266.312 190.584 264.664 188.984 263.448 186.904C262.264 184.824 261.672 182.392 261.672 179.608C261.672 176.856 262.28 174.44 263.496 172.36C264.712 170.248 266.376 168.632 268.488 167.512C270.6 166.392 272.968 165.832 275.592 165.832C278.216 165.832 280.584 166.392 282.696 167.512C284.808 168.632 286.472 170.248 287.688 172.36C288.904 174.44 289.512 176.856 289.512 179.608C289.512 182.36 288.888 184.792 287.64 186.904C286.424 188.984 284.744 190.584 282.6 191.704C280.488 192.824 278.12 193.384 275.496 193.384ZM275.496 186.28C277.064 186.28 278.392 185.704 279.48 184.552C280.6 183.4 281.16 181.752 281.16 179.608C281.16 177.464 280.616 175.816 279.528 174.664C278.472 173.512 277.16 172.936 275.592 172.936C273.992 172.936 272.664 173.512 271.608 174.664C270.552 175.784 270.024 177.432 270.024 179.608C270.024 181.752 270.536 183.4 271.56 184.552C272.616 185.704 273.928 186.28 275.496 186.28ZM312.247 170.68C313.207 169.208 314.407 168.056 315.847 167.224C317.287 166.36 318.887 165.928 320.647 165.928V174.616H318.391C316.343 174.616 314.807 175.064 313.783 175.96C312.759 176.824 312.247 178.36 312.247 180.568V193H304.039V166.216H312.247V170.68ZM349.818 179.176C349.818 179.944 349.77 180.744 349.674 181.576H331.098C331.226 183.24 331.754 184.52 332.682 185.416C333.642 186.28 334.81 186.712 336.186 186.712C338.234 186.712 339.658 185.848 340.458 184.12H349.194C348.746 185.88 347.93 187.464 346.746 188.872C345.594 190.28 344.138 191.384 342.378 192.184C340.618 192.984 338.65 193.384 336.474 193.384C333.85 193.384 331.514 192.824 329.466 191.704C327.418 190.584 325.818 188.984 324.666 186.904C323.514 184.824 322.938 182.392 322.938 179.608C322.938 176.824 323.498 174.392 324.618 172.312C325.77 170.232 327.37 168.632 329.418 167.512C331.466 166.392 333.818 165.832 336.474 165.832C339.066 165.832 341.37 166.376 343.386 167.464C345.402 168.552 346.97 170.104 348.09 172.12C349.242 174.136 349.818 176.488 349.818 179.176ZM341.418 177.016C341.418 175.608 340.938 174.488 339.978 173.656C339.018 172.824 337.818 172.408 336.378 172.408C335.002 172.408 333.834 172.808 332.874 173.608C331.946 174.408 331.37 175.544 331.146 177.016H341.418ZM352.516 179.56C352.516 176.808 353.028 174.392 354.052 172.312C355.108 170.232 356.532 168.632 358.324 167.512C360.116 166.392 362.116 165.832 364.324 165.832C366.212 165.832 367.86 166.216 369.268 166.984C370.708 167.752 371.812 168.76 372.58 170.008V166.216H380.788V193H372.58V189.208C371.78 190.456 370.66 191.464 369.22 192.232C367.812 193 366.164 193.384 364.276 193.384C362.1 193.384 360.116 192.824 358.324 191.704C356.532 190.552 355.108 188.936 354.052 186.856C353.028 184.744 352.516 182.312 352.516 179.56ZM372.58 179.608C372.58 177.56 372.004 175.944 370.852 174.76C369.732 173.576 368.356 172.984 366.724 172.984C365.092 172.984 363.7 173.576 362.548 174.76C361.428 175.912 360.868 177.512 360.868 179.56C360.868 181.608 361.428 183.24 362.548 184.456C363.7 185.64 365.092 186.232 366.724 186.232C368.356 186.232 369.732 185.64 370.852 184.456C372.004 183.272 372.58 181.656 372.58 179.608ZM394.934 157.48V193H386.726V157.48H394.934ZM405.01 163.432C403.57 163.432 402.386 163.016 401.458 162.184C400.562 161.32 400.114 160.264 400.114 159.016C400.114 157.736 400.562 156.68 401.458 155.848C402.386 154.984 403.57 154.552 405.01 154.552C406.418 154.552 407.57 154.984 408.466 155.848C409.394 156.68 409.858 157.736 409.858 159.016C409.858 160.264 409.394 161.32 408.466 162.184C407.57 163.016 406.418 163.432 405.01 163.432ZM409.09 166.216V193H400.882V166.216H409.09ZM422.719 186.232H434.335V193H413.551V186.472L424.687 172.984H413.646V166.216H434.095V172.744L422.719 186.232ZM437.219 179.56C437.219 176.808 437.731 174.392 438.755 172.312C439.811 170.232 441.235 168.632 443.027 167.512C444.819 166.392 446.819 165.832 449.027 165.832C450.915 165.832 452.563 166.216 453.971 166.984C455.411 167.752 456.515 168.76 457.283 170.008V166.216H465.491V193H457.283V189.208C456.483 190.456 455.363 191.464 453.923 192.232C452.515 193 450.867 193.384 448.979 193.384C446.803 193.384 444.819 192.824 443.027 191.704C441.235 190.552 439.811 188.936 438.755 186.856C437.731 184.744 437.219 182.312 437.219 179.56ZM457.283 179.608C457.283 177.56 456.707 175.944 455.555 174.76C454.435 173.576 453.059 172.984 451.427 172.984C449.795 172.984 448.403 173.576 447.251 174.76C446.131 175.912 445.571 177.512 445.571 179.56C445.571 181.608 446.131 183.24 447.251 184.456C448.403 185.64 449.795 186.232 451.427 186.232C453.059 186.232 454.435 185.64 455.555 184.456C456.707 183.272 457.283 181.656 457.283 179.608ZM469.797 179.56C469.797 176.808 470.309 174.392 471.333 172.312C472.389 170.232 473.813 168.632 475.605 167.512C477.397 166.392 479.397 165.832 481.605 165.832C483.365 165.832 484.965 166.2 486.405 166.936C487.877 167.672 489.029 168.664 489.861 169.912V157.48H498.069V193H489.861V189.16C489.093 190.44 487.989 191.464 486.549 192.232C485.141 193 483.493 193.384 481.605 193.384C479.397 193.384 477.397 192.824 475.605 191.704C473.813 190.552 472.389 188.936 471.333 186.856C470.309 184.744 469.797 182.312 469.797 179.56ZM489.861 179.608C489.861 177.56 489.285 175.944 488.133 174.76C487.013 173.576 485.637 172.984 484.005 172.984C482.373 172.984 480.981 173.576 479.829 174.76C478.709 175.912 478.149 177.512 478.149 179.56C478.149 181.608 478.709 183.24 479.829 184.456C480.981 185.64 482.373 186.232 484.005 186.232C485.637 186.232 487.013 185.64 488.133 184.456C489.285 183.272 489.861 181.656 489.861 179.608ZM516.199 193.384C513.575 193.384 511.207 192.824 509.095 191.704C507.015 190.584 505.367 188.984 504.151 186.904C502.967 184.824 502.375 182.392 502.375 179.608C502.375 176.856 502.983 174.44 504.199 172.36C505.415 170.248 507.079 168.632 509.191 167.512C511.303 166.392 513.671 165.832 516.295 165.832C518.919 165.832 521.287 166.392 523.399 167.512C525.511 168.632 527.175 170.248 528.391 172.36C529.607 174.44 530.215 176.856 530.215 179.608C530.215 182.36 529.591 184.792 528.343 186.904C527.127 188.984 525.447 190.584 523.303 191.704C521.191 192.824 518.823 193.384 516.199 193.384ZM516.199 186.28C517.767 186.28 519.095 185.704 520.183 184.552C521.303 183.4 521.863 181.752 521.863 179.608C521.863 177.464 521.319 175.816 520.231 174.664C519.175 173.512 517.863 172.936 516.295 172.936C514.695 172.936 513.367 173.512 512.311 174.664C511.255 175.784 510.727 177.432 510.727 179.608C510.727 181.752 511.239 183.4 512.263 184.552C513.319 185.704 514.631 186.28 516.199 186.28ZM133.844 227.608C133.844 224.824 134.404 222.392 135.524 220.312C136.676 218.232 138.26 216.632 140.276 215.512C142.324 214.392 144.66 213.832 147.284 213.832C150.644 213.832 153.444 214.712 155.684 216.472C157.956 218.232 159.444 220.712 160.148 223.912H151.412C150.676 221.864 149.252 220.84 147.14 220.84C145.636 220.84 144.436 221.432 143.54 222.616C142.644 223.768 142.196 225.432 142.196 227.608C142.196 229.784 142.644 231.464 143.54 232.648C144.436 233.8 145.636 234.376 147.14 234.376C149.252 234.376 150.676 233.352 151.412 231.304H160.148C159.444 234.44 157.956 236.904 155.684 238.696C153.412 240.488 150.612 241.384 147.284 241.384C144.66 241.384 142.324 240.824 140.276 239.704C138.26 238.584 136.676 236.984 135.524 234.904C134.404 232.824 133.844 230.392 133.844 227.608ZM176.731 241.384C174.107 241.384 171.739 240.824 169.627 239.704C167.547 238.584 165.899 236.984 164.683 234.904C163.499 232.824 162.907 230.392 162.907 227.608C162.907 224.856 163.515 222.44 164.73 220.36C165.947 218.248 167.611 216.632 169.723 215.512C171.835 214.392 174.203 213.832 176.827 213.832C179.451 213.832 181.819 214.392 183.931 215.512C186.043 216.632 187.707 218.248 188.923 220.36C190.139 222.44 190.747 224.856 190.747 227.608C190.747 230.36 190.123 232.792 188.875 234.904C187.659 236.984 185.979 238.584 183.835 239.704C181.723 240.824 179.355 241.384 176.731 241.384ZM176.731 234.28C178.299 234.28 179.627 233.704 180.715 232.552C181.835 231.4 182.395 229.752 182.395 227.608C182.395 225.464 181.851 223.816 180.763 222.664C179.707 221.512 178.395 220.936 176.827 220.936C175.227 220.936 173.899 221.512 172.843 222.664C171.787 223.784 171.259 225.432 171.259 227.608C171.259 229.752 171.771 231.4 172.795 232.552C173.851 233.704 175.163 234.28 176.731 234.28ZM229.277 213.928C232.605 213.928 235.245 214.936 237.197 216.952C239.181 218.968 240.173 221.768 240.173 225.352V241H232.013V226.456C232.013 224.728 231.549 223.4 230.621 222.472C229.725 221.512 228.477 221.032 226.877 221.032C225.277 221.032 224.013 221.512 223.085 222.472C222.189 223.4 221.741 224.728 221.741 226.456V241H213.581V226.456C213.581 224.728 213.117 223.4 212.189 222.472C211.293 221.512 210.045 221.032 208.445 221.032C206.845 221.032 205.581 221.512 204.653 222.472C203.757 223.4 203.309 224.728 203.309 226.456V241H195.101V214.216H203.309V217.576C204.141 216.456 205.229 215.576 206.573 214.936C207.917 214.264 209.437 213.928 211.133 213.928C213.149 213.928 214.941 214.36 216.509 215.224C218.109 216.088 219.357 217.32 220.253 218.92C221.181 217.448 222.445 216.248 224.045 215.32C225.645 214.392 227.389 213.928 229.277 213.928ZM266.981 241.384C264.645 241.384 262.565 240.984 260.741 240.184C258.917 239.384 257.477 238.296 256.421 236.92C255.365 235.512 254.773 233.944 254.645 232.216H262.757C262.853 233.144 263.285 233.896 264.053 234.472C264.821 235.048 265.765 235.336 266.885 235.336C267.909 235.336 268.693 235.144 269.237 234.76C269.813 234.344 270.101 233.816 270.101 233.176C270.101 232.408 269.701 231.848 268.901 231.496C268.101 231.112 266.805 230.696 265.013 230.248C263.093 229.8 261.493 229.336 260.213 228.856C258.933 228.344 257.829 227.56 256.901 226.504C255.973 225.416 255.509 223.96 255.509 222.136C255.509 220.6 255.925 219.208 256.757 217.96C257.621 216.68 258.869 215.672 260.501 214.936C262.165 214.2 264.133 213.832 266.405 213.832C269.765 213.832 272.405 214.664 274.325 216.328C276.277 217.992 277.397 220.2 277.685 222.952H270.101C269.973 222.024 269.557 221.288 268.853 220.744C268.181 220.2 267.285 219.928 266.165 219.928C265.205 219.928 264.469 220.12 263.957 220.504C263.445 220.856 263.189 221.352 263.189 221.992C263.189 222.76 263.589 223.336 264.389 223.72C265.221 224.104 266.501 224.488 268.229 224.872C270.213 225.384 271.829 225.896 273.077 226.408C274.325 226.888 275.413 227.688 276.341 228.808C277.301 229.896 277.797 231.368 277.829 233.224C277.829 234.792 277.381 236.2 276.485 237.448C275.621 238.664 274.357 239.624 272.693 240.328C271.061 241.032 269.157 241.384 266.981 241.384ZM309.299 214.216V241H301.091V237.352C300.259 238.536 299.123 239.496 297.683 240.232C296.275 240.936 294.707 241.288 292.979 241.288C290.931 241.288 289.123 240.84 287.555 239.944C285.987 239.016 284.771 237.688 283.907 235.96C283.043 234.232 282.611 232.2 282.611 229.864V214.216H290.771V228.76C290.771 230.552 291.235 231.944 292.163 232.936C293.091 233.928 294.339 234.424 295.907 234.424C297.507 234.424 298.771 233.928 299.699 232.936C300.627 231.944 301.091 230.552 301.091 228.76V214.216H309.299ZM313.563 227.608C313.563 224.824 314.123 222.392 315.243 220.312C316.395 218.232 317.979 216.632 319.995 215.512C322.043 214.392 324.379 213.832 327.003 213.832C330.363 213.832 333.163 214.712 335.403 216.472C337.675 218.232 339.163 220.712 339.867 223.912H331.131C330.395 221.864 328.971 220.84 326.859 220.84C325.355 220.84 324.155 221.432 323.259 222.616C322.363 223.768 321.915 225.432 321.915 227.608C321.915 229.784 322.363 231.464 323.259 232.648C324.155 233.8 325.355 234.376 326.859 234.376C328.971 234.376 330.395 233.352 331.131 231.304H339.867C339.163 234.44 337.675 236.904 335.403 238.696C333.131 240.488 330.331 241.384 327.003 241.384C324.379 241.384 322.043 240.824 319.995 239.704C317.979 238.584 316.395 236.984 315.243 234.904C314.123 232.824 313.563 230.392 313.563 227.608ZM369.505 227.176C369.505 227.944 369.457 228.744 369.361 229.576H350.785C350.913 231.24 351.441 232.52 352.369 233.416C353.329 234.28 354.497 234.712 355.873 234.712C357.921 234.712 359.345 233.848 360.145 232.12H368.881C368.433 233.88 367.617 235.464 366.433 236.872C365.281 238.28 363.825 239.384 362.065 240.184C360.305 240.984 358.337 241.384 356.161 241.384C353.537 241.384 351.201 240.824 349.153 239.704C347.105 238.584 345.505 236.984 344.353 234.904C343.201 232.824 342.625 230.392 342.625 227.608C342.625 224.824 343.185 222.392 344.305 220.312C345.457 218.232 347.057 216.632 349.105 215.512C351.153 214.392 353.505 213.832 356.161 213.832C358.753 213.832 361.057 214.376 363.073 215.464C365.089 216.552 366.657 218.104 367.777 220.12C368.929 222.136 369.505 224.488 369.505 227.176ZM361.105 225.016C361.105 223.608 360.625 222.488 359.665 221.656C358.705 220.824 357.505 220.408 356.065 220.408C354.689 220.408 353.521 220.808 352.561 221.608C351.633 222.408 351.057 223.544 350.833 225.016H361.105ZM384.731 241.384C382.395 241.384 380.315 240.984 378.491 240.184C376.667 239.384 375.227 238.296 374.171 236.92C373.115 235.512 372.523 233.944 372.395 232.216H380.507C380.603 233.144 381.035 233.896 381.803 234.472C382.571 235.048 383.515 235.336 384.635 235.336C385.659 235.336 386.443 235.144 386.987 234.76C387.563 234.344 387.851 233.816 387.851 233.176C387.851 232.408 387.451 231.848 386.651 231.496C385.851 231.112 384.555 230.696 382.763 230.248C380.843 229.8 379.243 229.336 377.963 228.856C376.683 228.344 375.579 227.56 374.651 226.504C373.723 225.416 373.259 223.96 373.259 222.136C373.259 220.6 373.675 219.208 374.507 217.96C375.371 216.68 376.619 215.672 378.251 214.936C379.915 214.2 381.883 213.832 384.155 213.832C387.515 213.832 390.155 214.664 392.075 216.328C394.027 217.992 395.147 220.2 395.435 222.952H387.851C387.723 222.024 387.307 221.288 386.603 220.744C385.931 220.2 385.035 219.928 383.915 219.928C382.955 219.928 382.219 220.12 381.707 220.504C381.195 220.856 380.939 221.352 380.939 221.992C380.939 222.76 381.339 223.336 382.139 223.72C382.971 224.104 384.251 224.488 385.979 224.872C387.963 225.384 389.579 225.896 390.827 226.408C392.075 226.888 393.163 227.688 394.091 228.808C395.051 229.896 395.547 231.368 395.579 233.224C395.579 234.792 395.131 236.2 394.235 237.448C393.371 238.664 392.107 239.624 390.443 240.328C388.811 241.032 386.907 241.384 384.731 241.384ZM411.497 241.384C409.161 241.384 407.081 240.984 405.257 240.184C403.433 239.384 401.993 238.296 400.937 236.92C399.881 235.512 399.289 233.944 399.161 232.216H407.273C407.369 233.144 407.801 233.896 408.569 234.472C409.337 235.048 410.281 235.336 411.401 235.336C412.425 235.336 413.209 235.144 413.753 234.76C414.329 234.344 414.617 233.816 414.617 233.176C414.617 232.408 414.217 231.848 413.417 231.496C412.617 231.112 411.321 230.696 409.529 230.248C407.609 229.8 406.009 229.336 404.729 228.856C403.449 228.344 402.345 227.56 401.417 226.504C400.489 225.416 400.025 223.96 400.025 222.136C400.025 220.6 400.441 219.208 401.273 217.96C402.137 216.68 403.385 215.672 405.017 214.936C406.681 214.2 408.649 213.832 410.921 213.832C414.281 213.832 416.921 214.664 418.841 216.328C420.793 217.992 421.913 220.2 422.201 222.952H414.617C414.489 222.024 414.073 221.288 413.369 220.744C412.697 220.2 411.801 219.928 410.681 219.928C409.721 219.928 408.985 220.12 408.473 220.504C407.961 220.856 407.705 221.352 407.705 221.992C407.705 222.76 408.105 223.336 408.905 223.72C409.737 224.104 411.017 224.488 412.745 224.872C414.729 225.384 416.345 225.896 417.593 226.408C418.841 226.888 419.929 227.688 420.857 228.808C421.817 229.896 422.313 231.368 422.345 233.224C422.345 234.792 421.897 236.2 421.001 237.448C420.137 238.664 418.873 239.624 417.209 240.328C415.577 241.032 413.673 241.384 411.497 241.384ZM439.559 241.384C436.935 241.384 434.567 240.824 432.455 239.704C430.375 238.584 428.727 236.984 427.511 234.904C426.327 232.824 425.735 230.392 425.735 227.608C425.735 224.856 426.343 222.44 427.559 220.36C428.775 218.248 430.439 216.632 432.551 215.512C434.663 214.392 437.031 213.832 439.655 213.832C442.279 213.832 444.647 214.392 446.759 215.512C448.871 216.632 450.535 218.248 451.751 220.36C452.967 222.44 453.575 224.856 453.575 227.608C453.575 230.36 452.951 232.792 451.703 234.904C450.487 236.984 448.807 238.584 446.663 239.704C444.551 240.824 442.183 241.384 439.559 241.384ZM439.559 234.28C441.127 234.28 442.455 233.704 443.543 232.552C444.663 231.4 445.223 229.752 445.223 227.608C445.223 225.464 444.679 223.816 443.591 222.664C442.535 221.512 441.223 220.936 439.655 220.936C438.055 220.936 436.727 221.512 435.671 222.664C434.615 223.784 434.087 225.432 434.087 227.608C434.087 229.752 434.599 231.4 435.623 232.552C436.679 233.704 437.991 234.28 439.559 234.28ZM461.769 241.384C460.329 241.384 459.145 240.968 458.217 240.136C457.321 239.272 456.873 238.216 456.873 236.968C456.873 235.688 457.321 234.616 458.217 233.752C459.145 232.888 460.329 232.456 461.769 232.456C463.177 232.456 464.329 232.888 465.225 233.752C466.153 234.616 466.617 235.688 466.617 236.968C466.617 238.216 466.153 239.272 465.225 240.136C464.329 240.968 463.177 241.384 461.769 241.384Z" fill="url(#paint0_linear_444_5)"/>
<defs>
<linearGradient id="paint0_linear_444_5" x1="407.279" y1="152" x2="542.187" y2="247.736" gradientUnits="userSpaceOnUse">
<stop stop-color="white"/>
<stop offset="1" stop-color="white" stop-opacity="0"/>
</linearGradient>
</defs>
</svg>
