<svg width="1000" height="640" viewBox="0 0 1000 640" fill="none" xmlns="http://www.w3.org/2000/svg">
<g clip-path="url(#clip0_298_8)">
<rect width="1000" height="640" fill="white"/>
<path d="M201.882 773.899C153.849 762.841 78.3686 790.341 80.0269 741.009C80.6824 721.508 86.6567 709.021 100.768 695.569C130.673 667.06 164.173 714.312 205.338 711.148C258.333 707.075 285.22 637.693 332.378 662.246C354.971 674.009 369.924 686.285 375.589 711.148C385.07 752.753 345.134 780.703 304.723 794.239C265.899 807.243 241.779 783.084 201.882 773.899Z" fill="#0C7D81"/>
<path d="M770.068 635.382C824.59 557.011 748.992 411.069 844.068 402.382C944.67 393.191 954.121 551.935 924.068 648.382C883.594 778.268 544.852 900.719 600.068 776.382C635.074 697.553 720.809 706.186 770.068 635.382Z" fill="#0469B1"/>
<path d="M786.004 332.187C797.209 289.91 770.762 242.98 809.504 222.687C859.225 196.643 889.878 315.608 854.504 359.187C832.36 386.468 784.004 420.692 769.504 388.687C760.019 367.749 780.116 354.406 786.004 332.187Z" fill="#F9BB0D"/>
<path d="M995.67 80.7739C955.12 60.8627 945.157 6.92767 900.67 14.7739C840.786 25.3355 862.44 109.904 877.67 168.774C896.967 243.37 938.141 308.388 1015.17 310.274C1075.67 311.755 1146.33 288.793 1146.67 228.274C1146.81 203.568 1125.35 193.48 1125.17 168.774C1125.02 148.737 1140.02 139.265 1138.67 119.274C1134.76 61.5725 1047.58 106.265 995.67 80.7739Z" fill="#E30140"/>
<circle cx="963" cy="166" r="4" fill="#51001A"/>
<path d="M985 182.501C999.155 164.911 1007.39 165.919 1022.5 182.501" stroke="#51001A" stroke-width="7" stroke-linecap="round"/>
<path d="M576.658 81.4834C551.33 76.736 528.113 92.8899 511.158 73.4834C498.105 58.5423 500.875 43.2819 502.158 23.4834C505.955 -35.0822 558.427 -88.0125 615.658 -75.0166C666.118 -63.5584 691.797 -13.8956 685.658 37.4834C682.312 65.49 678.45 89.4978 653.158 101.983C625.424 115.675 607.058 87.1814 576.658 81.4834Z" fill="#0C7D81"/>
<path d="M82.151 161.01C116.218 147.894 153.67 171.593 173.438 140.905C200.048 99.5959 138.011 66.014 94.7417 42.7289C39.9131 13.2235 -21.2448 1.94875 -64.6471 46.5916C-98.7374 81.6564 -123.906 136.159 -88.2065 169.584C-73.6327 183.23 -55.8695 176.04 -41.1207 189.497C-29.1596 200.41 -31.7758 214.503 -19.1779 224.675C17.184 254.032 38.5379 177.801 82.151 161.01Z" fill="#E30140"/>
<circle cx="1.84859" cy="78.0551" r="3.2323" transform="rotate(42.8335 1.84859 78.0551)" fill="#51001A"/>
<circle cx="50.4409" cy="123.105" r="3.2323" transform="rotate(42.8335 50.4409 123.105)" fill="#51001A"/>
<path d="M-30.4045 102.147L-19.4758 102.001C-19.0139 101.994 -18.6079 102.305 -18.4935 102.753L-15.1654 115.773C-15.0639 116.171 -14.7302 116.466 -14.3235 116.518L-2.06494 118.087C-1.57239 118.15 -1.20073 118.565 -1.19209 119.062L-0.979975 131.245C-0.970694 131.778 -0.54484 132.21 -0.0119623 132.227L10.2632 132.555C10.8464 132.573 11.2899 133.085 11.2252 133.665L10.2131 142.739C10.1389 143.404 10.7269 143.953 11.3857 143.833L22.7513 141.769C23.3807 141.654 23.9542 142.152 23.9293 142.792L23.3975 156.435" stroke="#51001A" stroke-width="7" stroke-linecap="round"/>
<path d="M-14.4324 726.208C-67.4495 652.007 -118.181 493.576 -26.9882 493.026C7.56375 492.818 21.1046 519.884 55.1087 526.016C106.932 535.362 153.256 468.954 188.725 507.876C218.711 540.783 184.33 577.313 185.239 621.824C186.772 696.875 256.873 758.063 205.67 812.955C142.649 880.515 39.2795 801.38 -14.4324 726.208Z" fill="#EE75A7"/>
<circle cx="15" cy="609" r="4" fill="#932050"/>
<circle cx="156" cy="605" r="4" fill="#932050"/>
<path d="M-26.1654 289.003C-57.7886 294.582 -78.341 310.35 -90.6654 340.003C-114.363 397.018 -35.9406 435.115 24.3346 448.503C79.7396 460.808 159.957 466.089 164.335 409.503C168.206 359.456 106.583 355.482 63.3346 330.003C30.211 310.488 11.6947 282.323 -26.1654 289.003Z" fill="#9C9B9B"/>
<circle cx="76" cy="380" r="4" fill="#303636"/>
<path d="M16 396.501C30.1548 378.911 38.3936 379.919 53.5 396.501" stroke="#303636" stroke-width="7" stroke-linecap="round"/>
<path d="M348.545 146.064C313.395 152.261 295.51 107.098 261.545 118.064C208.819 135.086 302.642 222.604 358.045 222.064C399.637 221.659 446.54 203.655 446.045 162.064C445.739 136.38 436.157 113.416 411.545 106.064C383.621 97.7225 377.245 141.004 348.545 146.064Z" fill="#EE75A7"/>
<path d="M333 186H374" stroke="#932050" stroke-width="7" stroke-linecap="round"/>
<circle cx="322" cy="163" r="4" fill="#932050"/>
<circle cx="370" cy="163" r="4" fill="#932050"/>
<circle cx="556" cy="4" r="4" fill="#053638"/>
<circle cx="638" cy="4" r="4" fill="#053638"/>
<path d="M578 20.5008C592.155 2.91117 600.394 3.91863 615.5 20.5008" stroke="#053638" stroke-width="7" stroke-linecap="round"/>
<path d="M802 325.17C802 325.17 809.002 319.206 814.5 318.17C824.713 316.245 828.243 331.345 838.5 329.67C846.252 328.404 855 318.17 855 318.17" stroke="#906804" stroke-width="7" stroke-linecap="round"/>
<circle cx="809" cy="292" r="4" fill="#906804"/>
<circle cx="842" cy="292" r="4" fill="#906804"/>
<path d="M836 584C836 610 870 614.5 870 584" stroke="#022F50" stroke-width="7" stroke-linecap="round"/>
<circle cx="838" cy="564" r="4" fill="#022F50"/>
<circle cx="867" cy="564" r="4" fill="#022F50"/>
<circle cx="427" cy="55" r="7" fill="#EE75A7"/>
<circle cx="769" cy="31" r="7" fill="#00A265"/>
<circle cx="781" cy="128" r="7" fill="#F9BB0D"/>
<circle cx="934" cy="317" r="7" fill="#E30140"/>
<circle cx="987" cy="536" r="7" fill="#0469B1"/>
<circle cx="96.7418" cy="644.443" r="7" transform="rotate(-34.7594 96.7418 644.443)" fill="#EE75A7"/>
<circle cx="61.7418" cy="476.443" r="7" transform="rotate(-34.7594 61.7418 476.443)" fill="#9C9B9B"/>
<circle cx="61.7418" cy="355.443" r="7" transform="rotate(-34.7594 61.7418 355.443)" fill="#9C9B9B"/>
<circle cx="139.742" cy="54.4431" r="7" transform="rotate(-34.7594 139.742 54.4431)" fill="#E30140"/>
<circle cx="987" cy="598" r="7" fill="#0469B1"/>
<rect x="363" y="109" width="274" height="422" rx="12" fill="white"/>
<rect x="380" y="161" width="240" height="33" rx="7" fill="#F7F7F7"/>
<rect x="380" y="161" width="240" height="33" rx="7" stroke="#E6E6E6" stroke-width="2"/>
<rect x="380" y="206" width="240" height="33" rx="7" fill="#F7F7F7"/>
<rect x="380" y="206" width="240" height="33" rx="7" stroke="#E6E6E6" stroke-width="2"/>
<rect x="380" y="251" width="240" height="33" rx="7" fill="#F7F7F7"/>
<rect x="380" y="251" width="240" height="33" rx="7" stroke="#E6E6E6" stroke-width="2"/>
<rect x="380" y="296" width="240" height="33" rx="7" fill="#F7F7F7"/>
<rect x="380" y="296" width="240" height="33" rx="7" stroke="#E6E6E6" stroke-width="2"/>
<rect x="380" y="341" width="240" height="33" rx="7" fill="#F7F7F7"/>
<rect x="380" y="341" width="240" height="33" rx="7" stroke="#E6E6E6" stroke-width="2"/>
<rect x="380" y="438" width="240" height="33" rx="7" fill="#F7F7F7"/>
<rect x="380" y="438" width="240" height="33" rx="7" stroke="#E6E6E6" stroke-width="2"/>
</g>
<defs>
<clipPath id="clip0_298_8">
<rect width="1000" height="640" fill="white"/>
</clipPath>
</defs>
</svg>
