<svg width="1000" height="640" viewBox="0 0 1000 640" fill="none" xmlns="http://www.w3.org/2000/svg">
<g clip-path="url(#clip0_386_386)">
<rect width="1000" height="640" fill="white"/>
<path d="M222.882 687.899C174.849 676.841 99.3686 704.341 101.027 655.009C101.682 635.508 107.657 623.021 121.768 609.569C151.673 581.06 185.173 628.312 226.338 625.148C279.333 621.075 306.22 551.693 353.378 576.246C375.971 588.009 390.924 600.285 396.589 625.148C406.07 666.753 366.134 694.703 325.723 708.239C286.899 721.243 262.779 697.084 222.882 687.899Z" fill="#0C7D81"/>
<path d="M791.068 549.382C845.59 471.011 769.992 325.069 865.068 316.382C965.67 307.191 975.121 465.935 945.068 562.382C904.594 692.268 565.852 814.719 621.068 690.382C656.074 611.553 741.809 620.186 791.068 549.382Z" fill="#0469B1"/>
<path d="M807.004 246.187C818.209 203.91 791.762 156.98 830.504 136.687C880.225 110.643 910.878 229.608 875.504 273.187C853.36 300.468 805.004 334.692 790.504 302.687C781.019 281.749 801.116 268.406 807.004 246.187Z" fill="#F9BB0D"/>
<path d="M1016.67 -5.2261C976.12 -25.1373 966.157 -79.0723 921.67 -71.2261C861.786 -60.6645 883.44 23.904 898.67 82.7739C917.967 157.37 959.141 222.388 1036.17 224.274C1096.67 225.755 1167.33 202.793 1167.67 142.274C1167.81 117.568 1146.35 107.48 1146.17 82.7739C1146.02 62.7374 1161.02 53.2651 1159.67 33.2739C1155.76 -24.4275 1068.58 20.2647 1016.67 -5.2261Z" fill="#E30140"/>
<circle cx="984" cy="80" r="4" fill="#51001A"/>
<path d="M597.658 -4.51659C572.33 -9.26401 549.113 6.88986 532.158 -12.5166C519.105 -27.4577 521.875 -42.7181 523.158 -62.5166C526.955 -121.082 579.427 -174.012 636.658 -161.017C687.118 -149.558 712.797 -99.8956 706.658 -48.5166C703.312 -20.51 699.45 3.49782 674.158 15.9834C646.424 29.6746 628.058 1.1814 597.658 -4.51659Z" fill="#0C7D81"/>
<path d="M103.151 75.0096C137.218 61.8936 174.67 85.5929 194.438 54.9045C221.048 13.5958 159.011 -19.9861 115.742 -43.2712C60.9131 -72.7765 -0.244823 -84.0513 -43.6471 -39.4085C-77.7374 -4.34369 -102.906 50.159 -67.2065 83.5842C-52.6327 97.2296 -34.8695 90.0404 -20.1207 103.497C-8.15956 114.409 -10.7758 128.503 1.82214 138.675C38.184 168.032 59.5379 91.801 103.151 75.0096Z" fill="#E30140"/>
<circle cx="71.4409" cy="37.1047" r="3.2323" transform="rotate(42.8335 71.4409 37.1047)" fill="#51001A"/>
<path d="M-9.4045 16.1474L1.52423 16.0007C1.9861 15.9945 2.39212 16.3054 2.50651 16.7529L5.83459 29.7734C5.93612 30.1706 6.2698 30.4656 6.67645 30.5177L18.9351 32.0871C19.4276 32.1502 19.7993 32.5652 19.8079 33.0616L20.02 45.2452C20.0293 45.7782 20.4552 46.2103 20.988 46.2272L31.2632 46.5545C31.8464 46.5731 32.2899 47.085 32.2252 47.6649L31.2131 56.7387C31.1389 57.4042 31.7269 57.9531 32.3857 57.8335L43.7513 55.7687C44.3807 55.6543 44.9542 56.1523 44.9293 56.7915L44.3975 70.4347" stroke="#51001A" stroke-width="7" stroke-linecap="round"/>
<path d="M6.56784 640.207C-46.4492 566.007 -97.1812 407.576 -5.98795 407.026C28.564 406.818 42.1049 433.884 76.1089 440.016C127.932 449.362 174.257 382.954 209.725 421.876C239.711 454.783 205.33 491.313 206.239 535.824C207.772 610.875 277.873 672.063 226.67 726.955C163.649 794.515 60.2798 715.38 6.56784 640.207Z" fill="#EE75A7"/>
<circle cx="36" cy="523" r="4" fill="#932050"/>
<circle cx="177" cy="519" r="4" fill="#932050"/>
<path d="M103 578.5C108.679 578.5 112.5 573.099 112.5 567.5C112.5 561.901 108.679 556.5 103 556.5C97.3211 556.5 93.5 561.901 93.5 567.5C93.5 573.099 97.3211 578.5 103 578.5Z" stroke="#932050" stroke-width="5"/>
<path d="M-5.16542 203.003C-36.7886 208.582 -57.341 224.35 -69.6654 254.003C-93.3628 311.018 -14.9406 349.115 45.3346 362.503C100.74 374.808 180.957 380.089 185.335 323.503C189.206 273.456 127.583 269.482 84.3346 244.003C51.211 224.488 32.6947 196.323 -5.16542 203.003Z" fill="#9C9B9B"/>
<circle cx="15" cy="294" r="4" fill="#303636"/>
<circle cx="97" cy="294" r="4" fill="#303636"/>
<path d="M37 310.501C51.1548 292.911 59.3936 293.919 74.5 310.501" stroke="#303636" stroke-width="7" stroke-linecap="round"/>
<path d="M369.545 60.0641C334.395 66.2609 316.51 21.0984 282.545 32.0641C229.819 49.0865 323.642 136.604 379.045 136.064C420.637 135.659 467.54 117.655 467.045 76.0641C466.739 50.3795 457.157 27.4163 432.545 20.0641C404.621 11.7225 398.245 55.0044 369.545 60.0641Z" fill="#EE75A7"/>
<path d="M354 100H395" stroke="#932050" stroke-width="7" stroke-linecap="round"/>
<circle cx="343" cy="77" r="4" fill="#932050"/>
<circle cx="391" cy="77" r="4" fill="#932050"/>
<path d="M823 239.17C823 239.17 830.002 233.206 835.5 232.17C845.713 230.245 849.243 245.345 859.5 243.67C867.252 242.404 876 232.17 876 232.17" stroke="#906804" stroke-width="7" stroke-linecap="round"/>
<circle cx="830" cy="206" r="4" fill="#906804"/>
<circle cx="863" cy="206" r="4" fill="#906804"/>
<path d="M857 498C857 524 891 528.5 891 498" stroke="#022F50" stroke-width="7" stroke-linecap="round"/>
<circle cx="859" cy="478" r="4" fill="#022F50"/>
<circle cx="888" cy="478" r="4" fill="#022F50"/>
<circle cx="802" cy="42" r="7" fill="#F9BB0D"/>
<circle cx="955" cy="231" r="7" fill="#E30140"/>
<circle cx="117.742" cy="558.443" r="7" transform="rotate(-34.7594 117.742 558.443)" fill="#EE75A7"/>
<circle cx="82.7418" cy="390.443" r="7" transform="rotate(-34.7594 82.7418 390.443)" fill="#9C9B9B"/>
<circle cx="82.7418" cy="269.443" r="7" transform="rotate(-34.7594 82.7418 269.443)" fill="#9C9B9B"/>
<rect x="363" y="243" width="274" height="155" rx="12" fill="white"/>
<rect x="380" y="260" width="240" height="33" rx="7" fill="#F7F7F7"/>
<rect x="380" y="260" width="240" height="33" rx="7" stroke="#E6E6E6" stroke-width="2"/>
<rect x="380" y="305" width="240" height="33" rx="7" fill="#F7F7F7"/>
<rect x="380" y="305" width="240" height="33" rx="7" stroke="#E6E6E6" stroke-width="2"/>
<path d="M475.617 220.657C474.574 221.032 473.37 221.22 472.005 221.22C470.663 221.22 469.506 220.965 468.533 220.455C467.561 219.939 466.816 219.21 466.301 218.267C465.791 217.317 465.536 216.225 465.536 214.988C465.536 213.658 465.823 212.475 466.397 211.438C466.972 210.4 467.783 209.601 468.832 209.038C469.881 208.47 471.088 208.186 472.453 208.186C473.543 208.186 474.598 208.317 475.617 208.581V212.088C475.266 211.877 474.847 211.713 474.36 211.596C473.874 211.479 473.382 211.42 472.884 211.42C471.853 211.42 471.038 211.716 470.44 212.308C469.849 212.899 469.553 213.702 469.553 214.716C469.553 215.724 469.849 216.521 470.44 217.106C471.038 217.687 471.835 217.977 472.831 217.977C473.751 217.977 474.68 217.742 475.617 217.273V220.657ZM487.245 216.342C487.245 217.859 486.785 219.052 485.865 219.919C484.951 220.786 483.671 221.22 482.024 221.22C480.39 221.22 479.115 220.798 478.201 219.954C477.293 219.104 476.839 217.936 476.839 216.447C476.839 215.492 477.053 214.663 477.48 213.96C477.908 213.257 478.518 212.718 479.309 212.343C480.1 211.968 481.011 211.78 482.042 211.78C483.108 211.78 484.031 211.977 484.811 212.369C485.596 212.762 486.196 213.307 486.612 214.004C487.034 214.701 487.245 215.48 487.245 216.342ZM483.448 216.359C483.448 215.135 482.979 214.522 482.042 214.522C481.104 214.522 480.636 215.164 480.636 216.447C480.636 217.801 481.11 218.478 482.06 218.478C482.985 218.478 483.448 217.771 483.448 216.359ZM494.479 221V216.087C494.479 215.53 494.394 215.132 494.224 214.892C494.06 214.646 493.79 214.522 493.415 214.522C493.093 214.522 492.841 214.648 492.659 214.9C492.478 215.152 492.387 215.475 492.387 215.867V221H488.643V212H492.387V213.406H492.422C492.721 212.891 493.122 212.492 493.626 212.211C494.13 211.924 494.678 211.78 495.27 211.78C497.238 211.78 498.223 213.022 498.223 215.507V221H494.479ZM506.247 220.877C506.077 220.959 505.799 221.035 505.412 221.105C505.025 221.182 504.56 221.22 504.015 221.22C502.972 221.22 502.154 220.933 501.562 220.358C500.977 219.784 500.684 218.967 500.684 217.906V214.593H499.269V212H500.684V210.233L504.375 209.214V212H506.247V214.593H504.375V217.291C504.375 218.082 504.688 218.478 505.315 218.478C505.608 218.478 505.919 218.413 506.247 218.284V220.877ZM512.408 221V219.629H512.373C511.775 220.689 510.861 221.22 509.631 221.22C508.781 221.22 508.116 220.968 507.636 220.464C507.155 219.96 506.915 219.286 506.915 218.442C506.915 216.673 508.002 215.647 510.176 215.366L512.408 215.076C512.408 214.783 512.276 214.543 512.013 214.355C511.749 214.168 511.395 214.074 510.949 214.074C509.941 214.074 508.878 214.361 507.759 214.936V212.501C508.245 212.29 508.854 212.117 509.587 211.982C510.319 211.848 510.946 211.78 511.468 211.78C512.997 211.78 514.104 212.108 514.79 212.765C515.481 213.415 515.827 214.505 515.827 216.034V221H512.408ZM510.193 217.941C510.193 218.188 510.27 218.39 510.422 218.548C510.58 218.706 510.803 218.785 511.09 218.785C511.482 218.785 511.799 218.639 512.039 218.346C512.285 218.053 512.408 217.678 512.408 217.221V216.878L511.143 217.054C510.51 217.159 510.193 217.455 510.193 217.941ZM523.86 220.877C523.69 220.959 523.412 221.035 523.025 221.105C522.639 221.182 522.173 221.22 521.628 221.22C520.585 221.22 519.768 220.933 519.176 220.358C518.59 219.784 518.297 218.967 518.297 217.906V214.593H516.882V212H518.297V210.233L521.988 209.214V212H523.86V214.593H521.988V217.291C521.988 218.082 522.302 218.478 522.929 218.478C523.222 218.478 523.532 218.413 523.86 218.284V220.877ZM535.04 216.342C535.04 217.859 534.58 219.052 533.66 219.919C532.746 220.786 531.466 221.22 529.819 221.22C528.185 221.22 526.91 220.798 525.996 219.954C525.088 219.104 524.634 217.936 524.634 216.447C524.634 215.492 524.848 214.663 525.275 213.96C525.703 213.257 526.312 212.718 527.104 212.343C527.895 211.968 528.806 211.78 529.837 211.78C530.903 211.78 531.826 211.977 532.605 212.369C533.391 212.762 533.991 213.307 534.407 214.004C534.829 214.701 535.04 215.48 535.04 216.342ZM531.243 216.359C531.243 215.135 530.774 214.522 529.837 214.522C528.899 214.522 528.431 215.164 528.431 216.447C528.431 217.801 528.905 218.478 529.854 218.478C530.78 218.478 531.243 217.771 531.243 216.359Z" fill="#1D1D1D" fill-opacity="0.5"/>
<path d="M411.878 240H410.203V230.197H411.878V240ZM420.354 240H418.769V236.056C418.769 234.748 418.306 234.094 417.381 234.094C416.898 234.094 416.499 234.276 416.185 234.641C415.87 235.001 415.713 235.456 415.713 236.008V240H414.12V233H415.713V234.162H415.74C416.264 233.278 417.021 232.836 418.01 232.836C418.771 232.836 419.352 233.084 419.753 233.581C420.154 234.073 420.354 234.786 420.354 235.721V240ZM421.858 239.781V238.312C422.451 238.763 423.105 238.988 423.82 238.988C424.777 238.988 425.256 238.706 425.256 238.141C425.256 237.981 425.215 237.847 425.133 237.737C425.051 237.623 424.939 237.523 424.798 237.437C424.661 237.35 424.497 237.272 424.306 237.204C424.119 237.136 423.909 237.058 423.677 236.972C423.39 236.858 423.13 236.737 422.897 236.609C422.67 236.482 422.478 236.338 422.323 236.179C422.173 236.015 422.059 235.83 421.981 235.625C421.904 235.42 421.865 235.181 421.865 234.907C421.865 234.57 421.945 234.274 422.104 234.019C422.264 233.759 422.478 233.542 422.747 233.369C423.016 233.191 423.321 233.059 423.663 232.973C424.005 232.882 424.358 232.836 424.723 232.836C425.37 232.836 425.949 232.934 426.459 233.13V234.518C425.967 234.18 425.402 234.012 424.764 234.012C424.563 234.012 424.381 234.032 424.217 234.073C424.057 234.114 423.921 234.171 423.807 234.244C423.693 234.317 423.604 234.406 423.54 234.511C423.476 234.611 423.444 234.723 423.444 234.846C423.444 234.996 423.476 235.124 423.54 235.229C423.604 235.333 423.697 235.427 423.82 235.509C423.948 235.586 424.098 235.659 424.271 235.728C424.449 235.791 424.652 235.862 424.88 235.939C425.181 236.062 425.45 236.188 425.687 236.315C425.928 236.443 426.133 236.589 426.302 236.753C426.47 236.912 426.6 237.099 426.691 237.313C426.783 237.523 426.828 237.774 426.828 238.065C426.828 238.421 426.746 238.731 426.582 238.995C426.418 239.259 426.199 239.478 425.926 239.651C425.652 239.825 425.336 239.952 424.976 240.034C424.62 240.121 424.244 240.164 423.848 240.164C423.082 240.164 422.419 240.036 421.858 239.781ZM429.139 231.53C428.879 231.53 428.656 231.446 428.469 231.277C428.286 231.109 428.195 230.895 428.195 230.635C428.195 230.375 428.286 230.159 428.469 229.985C428.656 229.812 428.879 229.726 429.139 229.726C429.408 229.726 429.635 229.812 429.822 229.985C430.009 230.159 430.103 230.375 430.103 230.635C430.103 230.881 430.009 231.093 429.822 231.271C429.635 231.444 429.408 231.53 429.139 231.53ZM429.925 240H428.339V233H429.925V240ZM436.063 234.511C435.872 234.36 435.596 234.285 435.236 234.285C434.767 234.285 434.375 234.497 434.061 234.921C433.746 235.345 433.589 235.921 433.589 236.65V240H432.003V233H433.589V234.442H433.616C433.771 233.95 434.008 233.567 434.327 233.294C434.651 233.016 435.011 232.877 435.407 232.877C435.694 232.877 435.913 232.92 436.063 233.007V234.511ZM442.558 240H441.02V238.906H440.992C440.509 239.745 439.8 240.164 438.866 240.164C438.178 240.164 437.638 239.977 437.246 239.604C436.859 239.23 436.665 238.735 436.665 238.12C436.665 236.799 437.426 236.028 438.948 235.81L441.026 235.516C441.026 234.518 440.552 234.019 439.604 234.019C438.771 234.019 438.019 234.306 437.349 234.88V233.492C438.087 233.055 438.939 232.836 439.905 232.836C441.674 232.836 442.558 233.706 442.558 235.447V240ZM441.026 236.562L439.557 236.767C439.101 236.826 438.757 236.938 438.524 237.102C438.297 237.261 438.183 237.544 438.183 237.949C438.183 238.245 438.287 238.489 438.497 238.681C438.711 238.868 438.996 238.961 439.352 238.961C439.835 238.961 440.233 238.792 440.548 238.455C440.867 238.113 441.026 237.685 441.026 237.17V236.562ZM447.917 239.781V238.312C448.509 238.763 449.163 238.988 449.879 238.988C450.836 238.988 451.314 238.706 451.314 238.141C451.314 237.981 451.273 237.847 451.191 237.737C451.109 237.623 450.998 237.523 450.856 237.437C450.72 237.35 450.556 237.272 450.364 237.204C450.177 237.136 449.968 237.058 449.735 236.972C449.448 236.858 449.188 236.737 448.956 236.609C448.728 236.482 448.537 236.338 448.382 236.179C448.231 236.015 448.118 235.83 448.04 235.625C447.963 235.42 447.924 235.181 447.924 234.907C447.924 234.57 448.004 234.274 448.163 234.019C448.323 233.759 448.537 233.542 448.806 233.369C449.075 233.191 449.38 233.059 449.722 232.973C450.063 232.882 450.417 232.836 450.781 232.836C451.428 232.836 452.007 232.934 452.518 233.13V234.518C452.025 234.18 451.46 234.012 450.822 234.012C450.622 234.012 450.439 234.032 450.275 234.073C450.116 234.114 449.979 234.171 449.865 234.244C449.751 234.317 449.662 234.406 449.599 234.511C449.535 234.611 449.503 234.723 449.503 234.846C449.503 234.996 449.535 235.124 449.599 235.229C449.662 235.333 449.756 235.427 449.879 235.509C450.007 235.586 450.157 235.659 450.33 235.728C450.508 235.791 450.711 235.862 450.938 235.939C451.239 236.062 451.508 236.188 451.745 236.315C451.987 236.443 452.192 236.589 452.36 236.753C452.529 236.912 452.659 237.099 452.75 237.313C452.841 237.523 452.887 237.774 452.887 238.065C452.887 238.421 452.805 238.731 452.641 238.995C452.477 239.259 452.258 239.478 451.984 239.651C451.711 239.825 451.394 239.952 451.034 240.034C450.679 240.121 450.303 240.164 449.906 240.164C449.141 240.164 448.478 240.036 447.917 239.781ZM460.324 236.931H455.553C455.571 237.578 455.769 238.077 456.147 238.428C456.53 238.779 457.054 238.954 457.72 238.954C458.467 238.954 459.153 238.731 459.777 238.284V239.562C459.139 239.964 458.296 240.164 457.248 240.164C456.218 240.164 455.409 239.847 454.821 239.214C454.238 238.576 453.946 237.68 453.946 236.527C453.946 235.438 454.268 234.552 454.91 233.868C455.557 233.18 456.359 232.836 457.316 232.836C458.273 232.836 459.014 233.144 459.538 233.759C460.062 234.374 460.324 235.229 460.324 236.322V236.931ZM458.793 235.81C458.788 235.24 458.654 234.798 458.39 234.483C458.125 234.164 457.761 234.005 457.296 234.005C456.84 234.005 456.453 234.171 456.134 234.504C455.819 234.837 455.626 235.272 455.553 235.81H458.793ZM467.939 240H466.354V238.893H466.326C465.866 239.74 465.15 240.164 464.18 240.164C462.525 240.164 461.698 239.171 461.698 237.184V233H463.284V237.02C463.284 238.277 463.77 238.906 464.74 238.906C465.21 238.906 465.595 238.733 465.896 238.387C466.201 238.04 466.354 237.587 466.354 237.026V233H467.939V240ZM477.558 239.925C477.248 240.08 476.84 240.157 476.334 240.157C474.976 240.157 474.297 239.506 474.297 238.202V234.244H473.128V233H474.297V231.38L475.883 230.929V233H477.558V234.244H475.883V237.744C475.883 238.159 475.958 238.455 476.108 238.633C476.259 238.811 476.509 238.899 476.86 238.899C477.129 238.899 477.362 238.822 477.558 238.667V239.925ZM484.77 236.931H479.998C480.016 237.578 480.215 238.077 480.593 238.428C480.976 238.779 481.5 238.954 482.165 238.954C482.912 238.954 483.598 238.731 484.223 238.284V239.562C483.585 239.964 482.742 240.164 481.693 240.164C480.663 240.164 479.854 239.847 479.267 239.214C478.683 238.576 478.392 237.68 478.392 236.527C478.392 235.438 478.713 234.552 479.355 233.868C480.003 233.18 480.805 232.836 481.762 232.836C482.719 232.836 483.459 233.144 483.983 233.759C484.507 234.374 484.77 235.229 484.77 236.322V236.931ZM483.238 235.81C483.234 235.24 483.099 234.798 482.835 234.483C482.571 234.164 482.206 234.005 481.741 234.005C481.285 234.005 480.898 234.171 480.579 234.504C480.265 234.837 480.071 235.272 479.998 235.81H483.238ZM487.873 240H486.28V229.637H487.873V240ZM495.871 236.931H491.1C491.118 237.578 491.316 238.077 491.694 238.428C492.077 238.779 492.601 238.954 493.267 238.954C494.014 238.954 494.7 238.731 495.324 238.284V239.562C494.686 239.964 493.843 240.164 492.795 240.164C491.765 240.164 490.956 239.847 490.368 239.214C489.785 238.576 489.493 237.68 489.493 236.527C489.493 235.438 489.814 234.552 490.457 233.868C491.104 233.18 491.906 232.836 492.863 232.836C493.82 232.836 494.561 233.144 495.085 233.759C495.609 234.374 495.871 235.229 495.871 236.322V236.931ZM494.34 235.81C494.335 235.24 494.201 234.798 493.937 234.483C493.672 234.164 493.308 234.005 492.843 234.005C492.387 234.005 492 234.171 491.681 234.504C491.366 234.837 491.173 235.272 491.1 235.81H494.34ZM501.34 230.929C501.126 230.806 500.882 230.744 500.608 230.744C499.838 230.744 499.453 231.179 499.453 232.05V233H501.08V234.244H499.46V240H497.874V234.244H496.678V233H497.874V231.865C497.874 231.127 498.116 230.546 498.599 230.122C499.082 229.694 499.686 229.479 500.41 229.479C500.802 229.479 501.112 229.523 501.34 229.609V230.929ZM505.312 240.164C504.231 240.164 503.368 239.838 502.721 239.187C502.078 238.53 501.757 237.662 501.757 236.582C501.757 235.406 502.092 234.488 502.762 233.827C503.436 233.166 504.343 232.836 505.482 232.836C506.576 232.836 507.428 233.157 508.039 233.8C508.65 234.442 508.955 235.333 508.955 236.473C508.955 237.589 508.625 238.485 507.964 239.159C507.308 239.829 506.424 240.164 505.312 240.164ZM505.387 234.101C504.767 234.101 504.277 234.317 503.917 234.75C503.557 235.183 503.377 235.78 503.377 236.541C503.377 237.275 503.559 237.854 503.924 238.277C504.288 238.697 504.776 238.906 505.387 238.906C506.011 238.906 506.49 238.699 506.822 238.284C507.16 237.869 507.328 237.279 507.328 236.514C507.328 235.743 507.16 235.149 506.822 234.729C506.49 234.31 506.011 234.101 505.387 234.101ZM516.81 240H515.224V236.056C515.224 234.748 514.761 234.094 513.836 234.094C513.353 234.094 512.954 234.276 512.64 234.641C512.325 235.001 512.168 235.456 512.168 236.008V240H510.575V233H512.168V234.162H512.195C512.719 233.278 513.476 232.836 514.465 232.836C515.226 232.836 515.807 233.084 516.208 233.581C516.609 234.073 516.81 234.786 516.81 235.721V240ZM524.678 236.931H519.906C519.924 237.578 520.123 238.077 520.501 238.428C520.884 238.779 521.408 238.954 522.073 238.954C522.821 238.954 523.507 238.731 524.131 238.284V239.562C523.493 239.964 522.65 240.164 521.602 240.164C520.572 240.164 519.763 239.847 519.175 239.214C518.591 238.576 518.3 237.68 518.3 236.527C518.3 235.438 518.621 234.552 519.264 233.868C519.911 233.18 520.713 232.836 521.67 232.836C522.627 232.836 523.368 233.144 523.892 233.759C524.416 234.374 524.678 235.229 524.678 236.322V236.931ZM523.146 235.81C523.142 235.24 523.007 234.798 522.743 234.483C522.479 234.164 522.114 234.005 521.649 234.005C521.194 234.005 520.806 234.171 520.487 234.504C520.173 234.837 519.979 235.272 519.906 235.81H523.146ZM535.055 239.679C534.494 240.002 533.831 240.164 533.065 240.164C532.026 240.164 531.188 239.84 530.55 239.193C529.912 238.542 529.593 237.699 529.593 236.664C529.593 235.511 529.935 234.586 530.618 233.889C531.306 233.187 532.225 232.836 533.373 232.836C534.011 232.836 534.574 232.948 535.062 233.171V234.647C534.574 234.283 534.054 234.101 533.503 234.101C532.833 234.101 532.284 234.328 531.855 234.784C531.427 235.235 531.213 235.828 531.213 236.562C531.213 237.286 531.413 237.858 531.814 238.277C532.22 238.697 532.762 238.906 533.441 238.906C534.011 238.906 534.549 238.703 535.055 238.298V239.679ZM539.737 240.164C538.657 240.164 537.794 239.838 537.146 239.187C536.504 238.53 536.183 237.662 536.183 236.582C536.183 235.406 536.518 234.488 537.188 233.827C537.862 233.166 538.769 232.836 539.908 232.836C541.002 232.836 541.854 233.157 542.465 233.8C543.076 234.442 543.381 235.333 543.381 236.473C543.381 237.589 543.05 238.485 542.39 239.159C541.733 239.829 540.849 240.164 539.737 240.164ZM539.812 234.101C539.193 234.101 538.703 234.317 538.343 234.75C537.983 235.183 537.803 235.78 537.803 236.541C537.803 237.275 537.985 237.854 538.35 238.277C538.714 238.697 539.202 238.906 539.812 238.906C540.437 238.906 540.915 238.699 541.248 238.284C541.585 237.869 541.754 237.279 541.754 236.514C541.754 235.743 541.585 235.149 541.248 234.729C540.915 234.31 540.437 234.101 539.812 234.101ZM555.467 240H553.881V236.186C553.881 235.452 553.776 234.921 553.566 234.593C553.361 234.265 553.013 234.101 552.521 234.101C552.106 234.101 551.753 234.308 551.461 234.723C551.174 235.137 551.03 235.634 551.03 236.213V240H549.438V236.056C549.438 234.752 548.977 234.101 548.057 234.101C547.628 234.101 547.275 234.297 546.997 234.688C546.724 235.08 546.587 235.589 546.587 236.213V240H545.001V233H546.587V234.107H546.614C547.12 233.26 547.856 232.836 548.822 232.836C549.305 232.836 549.727 232.97 550.087 233.239C550.451 233.504 550.7 233.852 550.832 234.285C551.352 233.319 552.126 232.836 553.156 232.836C554.697 232.836 555.467 233.786 555.467 235.687V240ZM563.328 236.931H558.557C558.575 237.578 558.773 238.077 559.151 238.428C559.534 238.779 560.058 238.954 560.724 238.954C561.471 238.954 562.157 238.731 562.781 238.284V239.562C562.143 239.964 561.3 240.164 560.252 240.164C559.222 240.164 558.413 239.847 557.825 239.214C557.242 238.576 556.95 237.68 556.95 236.527C556.95 235.438 557.271 234.552 557.914 233.868C558.561 233.18 559.363 232.836 560.32 232.836C561.277 232.836 562.018 233.144 562.542 233.759C563.066 234.374 563.328 235.229 563.328 236.322V236.931ZM561.797 235.81C561.792 235.24 561.658 234.798 561.394 234.483C561.129 234.164 560.765 234.005 560.3 234.005C559.844 234.005 559.457 234.171 559.138 234.504C558.823 234.837 558.63 235.272 558.557 235.81H561.797ZM568.899 234.511C568.708 234.36 568.432 234.285 568.072 234.285C567.603 234.285 567.211 234.497 566.896 234.921C566.582 235.345 566.425 235.921 566.425 236.65V240H564.839V233H566.425V234.442H566.452C566.607 233.95 566.844 233.567 567.163 233.294C567.487 233.016 567.847 232.877 568.243 232.877C568.53 232.877 568.749 232.92 568.899 233.007V234.511ZM574.908 239.679C574.348 240.002 573.685 240.164 572.919 240.164C571.88 240.164 571.041 239.84 570.403 239.193C569.765 238.542 569.446 237.699 569.446 236.664C569.446 235.511 569.788 234.586 570.472 233.889C571.16 233.187 572.078 232.836 573.227 232.836C573.865 232.836 574.427 232.948 574.915 233.171V234.647C574.427 234.283 573.908 234.101 573.356 234.101C572.687 234.101 572.137 234.328 571.709 234.784C571.281 235.235 571.066 235.828 571.066 236.562C571.066 237.286 571.267 237.858 571.668 238.277C572.074 238.697 572.616 238.906 573.295 238.906C573.865 238.906 574.402 238.703 574.908 238.298V239.679ZM577.287 231.53C577.027 231.53 576.804 231.446 576.617 231.277C576.435 231.109 576.344 230.895 576.344 230.635C576.344 230.375 576.435 230.159 576.617 229.985C576.804 229.812 577.027 229.726 577.287 229.726C577.556 229.726 577.784 229.812 577.971 229.985C578.158 230.159 578.251 230.375 578.251 230.635C578.251 230.881 578.158 231.093 577.971 231.271C577.784 231.444 577.556 231.53 577.287 231.53ZM578.073 240H576.487V233H578.073V240ZM585.524 240H583.986V238.906H583.959C583.476 239.745 582.767 240.164 581.833 240.164C581.145 240.164 580.605 239.977 580.213 239.604C579.826 239.23 579.632 238.735 579.632 238.12C579.632 236.799 580.393 236.028 581.915 235.81L583.993 235.516C583.993 234.518 583.519 234.019 582.571 234.019C581.737 234.019 580.985 234.306 580.315 234.88V233.492C581.054 233.055 581.906 232.836 582.872 232.836C584.64 232.836 585.524 233.706 585.524 235.447V240ZM583.993 236.562L582.523 236.767C582.068 236.826 581.724 236.938 581.491 237.102C581.263 237.261 581.149 237.544 581.149 237.949C581.149 238.245 581.254 238.489 581.464 238.681C581.678 238.868 581.963 238.961 582.318 238.961C582.801 238.961 583.2 238.792 583.515 238.455C583.834 238.113 583.993 237.685 583.993 237.17V236.562ZM589.059 240H587.466V229.637H589.059V240Z" fill="#1D1D1D" fill-opacity="0.5"/>
</g>
<defs>
<clipPath id="clip0_386_386">
<rect width="1000" height="640" fill="white"/>
</clipPath>
</defs>
</svg>
