<svg width="1000" height="640" viewBox="0 0 1000 640" fill="none" xmlns="http://www.w3.org/2000/svg">
<g clip-path="url(#clip0_431_11)">
<rect width="1000" height="640" fill="white"/>
<path d="M222.882 687.899C174.849 676.841 99.3686 704.341 101.027 655.009C101.682 635.508 107.657 623.021 121.768 609.569C151.673 581.06 185.173 628.312 226.338 625.148C279.333 621.075 306.22 551.693 353.378 576.246C375.971 588.009 390.924 600.285 396.589 625.148C406.07 666.753 366.134 694.703 325.723 708.239C286.899 721.243 262.779 697.084 222.882 687.899Z" fill="#0C7D81"/>
<path d="M791.068 549.382C845.59 471.011 769.992 325.069 865.068 316.382C965.67 307.191 975.121 465.935 945.068 562.382C904.594 692.268 565.852 814.719 621.068 690.382C656.074 611.553 741.809 620.186 791.068 549.382Z" fill="#0469B1"/>
<path d="M807.004 246.187C818.209 203.91 791.762 156.98 830.504 136.687C880.225 110.643 910.878 229.608 875.504 273.187C853.36 300.468 805.004 334.692 790.504 302.687C781.019 281.749 801.116 268.406 807.004 246.187Z" fill="#F9BB0D"/>
<path d="M1016.67 -5.2261C976.12 -25.1373 966.157 -79.0723 921.67 -71.2261C861.786 -60.6645 883.44 23.904 898.67 82.7739C917.967 157.37 959.141 222.388 1036.17 224.274C1096.67 225.755 1167.33 202.793 1167.67 142.274C1167.81 117.568 1146.35 107.48 1146.17 82.7739C1146.02 62.7374 1161.02 53.2651 1159.67 33.2739C1155.76 -24.4275 1068.58 20.2647 1016.67 -5.2261Z" fill="#E30140"/>
<circle cx="984" cy="80" r="4" fill="#51001A"/>
<path d="M597.658 -4.51659C572.33 -9.26401 549.113 6.88986 532.158 -12.5166C519.105 -27.4577 521.875 -42.7181 523.158 -62.5166C526.955 -121.082 579.427 -174.012 636.658 -161.017C687.118 -149.558 712.797 -99.8956 706.658 -48.5166C703.312 -20.51 699.45 3.49782 674.158 15.9834C646.424 29.6746 628.058 1.1814 597.658 -4.51659Z" fill="#0C7D81"/>
<path d="M103.151 75.0096C137.218 61.8937 174.67 85.5929 194.438 54.9045C221.048 13.5959 159.011 -19.986 115.742 -43.2711C60.9131 -72.7765 -0.244823 -84.0512 -43.6471 -39.4084C-77.7374 -4.34363 -102.906 50.1591 -67.2065 83.5843C-52.6327 97.2297 -34.8695 90.0405 -20.1207 103.497C-8.15956 114.41 -10.7758 128.503 1.82214 138.675C38.184 168.032 59.5379 91.8011 103.151 75.0096Z" fill="#E30140"/>
<circle cx="71.4409" cy="37.1046" r="3.2323" transform="rotate(42.8335 71.4409 37.1046)" fill="#51001A"/>
<path d="M-9.4045 16.1474L1.52423 16.0007C1.9861 15.9945 2.39212 16.3054 2.50651 16.7529L5.83459 29.7734C5.93612 30.1706 6.2698 30.4656 6.67645 30.5177L18.9351 32.0871C19.4276 32.1502 19.7993 32.5652 19.8079 33.0616L20.02 45.2452C20.0293 45.7782 20.4552 46.2103 20.988 46.2272L31.2632 46.5545C31.8464 46.5731 32.2899 47.085 32.2252 47.6649L31.2131 56.7387C31.1389 57.4042 31.7269 57.9531 32.3857 57.8335L43.7513 55.7687C44.3807 55.6543 44.9542 56.1523 44.9293 56.7915L44.3975 70.4347" stroke="#51001A" stroke-width="7" stroke-linecap="round"/>
<path d="M6.56784 640.208C-46.4492 566.007 -97.1812 407.576 -5.98795 407.026C28.564 406.818 42.1049 433.884 76.1089 440.016C127.932 449.362 174.257 382.954 209.725 421.876C239.711 454.783 205.33 491.313 206.239 535.824C207.772 610.875 277.873 672.063 226.67 726.955C163.649 794.515 60.2798 715.38 6.56784 640.208Z" fill="#EE75A7"/>
<circle cx="36" cy="523" r="4" fill="#932050"/>
<circle cx="177" cy="519" r="4" fill="#932050"/>
<path d="M103 578.5C108.679 578.5 112.5 573.099 112.5 567.5C112.5 561.901 108.679 556.5 103 556.5C97.3211 556.5 93.5 561.901 93.5 567.5C93.5 573.099 97.3211 578.5 103 578.5Z" stroke="#932050" stroke-width="5"/>
<path d="M-5.16542 203.003C-36.7886 208.582 -57.341 224.35 -69.6654 254.003C-93.3628 311.018 -14.9406 349.115 45.3346 362.503C100.74 374.808 180.957 380.089 185.335 323.503C189.206 273.456 127.583 269.482 84.3346 244.003C51.211 224.488 32.6947 196.323 -5.16542 203.003Z" fill="#9C9B9B"/>
<circle cx="15" cy="294" r="4" fill="#303636"/>
<circle cx="97" cy="294" r="4" fill="#303636"/>
<path d="M37 310.501C51.1548 292.911 59.3936 293.919 74.5 310.501" stroke="#303636" stroke-width="7" stroke-linecap="round"/>
<path d="M369.545 23.0641C334.395 29.2609 316.51 -15.9016 282.545 -4.93586C229.819 12.0865 323.642 99.6038 379.045 99.0641C420.637 98.659 467.54 80.6552 467.045 39.0641C466.739 13.3795 457.157 -9.58365 432.545 -16.9359C404.621 -25.2775 398.245 18.0044 369.545 23.0641Z" fill="#EE75A7"/>
<path d="M354 63H395" stroke="#932050" stroke-width="7" stroke-linecap="round"/>
<circle cx="343" cy="40" r="4" fill="#932050"/>
<circle cx="391" cy="40" r="4" fill="#932050"/>
<path d="M823 239.17C823 239.17 830.002 233.206 835.5 232.17C845.713 230.245 849.243 245.345 859.5 243.67C867.252 242.404 876 232.17 876 232.17" stroke="#906804" stroke-width="7" stroke-linecap="round"/>
<circle cx="830" cy="206" r="4" fill="#906804"/>
<circle cx="863" cy="206" r="4" fill="#906804"/>
<path d="M857 498C857 524 891 528.5 891 498" stroke="#022F50" stroke-width="7" stroke-linecap="round"/>
<circle cx="859" cy="478" r="4" fill="#022F50"/>
<circle cx="888" cy="478" r="4" fill="#022F50"/>
<circle cx="802" cy="42" r="7" fill="#F9BB0D"/>
<circle cx="955" cy="231" r="7" fill="#E30140"/>
<circle cx="117.742" cy="558.443" r="7" transform="rotate(-34.7594 117.742 558.443)" fill="#EE75A7"/>
<circle cx="82.7418" cy="390.443" r="7" transform="rotate(-34.7594 82.7418 390.443)" fill="#9C9B9B"/>
<circle cx="82.7418" cy="269.443" r="7" transform="rotate(-34.7594 82.7418 269.443)" fill="#9C9B9B"/>
<rect x="363" y="130" width="274" height="380" rx="12" fill="white"/>
<rect x="380" y="147" width="240" height="33" rx="7" fill="#F7F7F7"/>
<rect x="380" y="147" width="240" height="33" rx="7" stroke="#E6E6E6" stroke-width="2"/>
<rect x="380" y="192" width="240" height="33" rx="7" fill="#F7F7F7"/>
<rect x="380" y="192" width="240" height="33" rx="7" stroke="#E6E6E6" stroke-width="2"/>
<rect x="380" y="237" width="240" height="33" rx="7" fill="#F7F7F7"/>
<rect x="380" y="237" width="240" height="33" rx="7" stroke="#E6E6E6" stroke-width="2"/>
<rect x="380" y="282" width="240" height="33" rx="7" fill="#F7F7F7"/>
<rect x="380" y="282" width="240" height="33" rx="7" stroke="#E6E6E6" stroke-width="2"/>
<rect x="380" y="327" width="240" height="33" rx="7" fill="#F7F7F7"/>
<rect x="380" y="327" width="240" height="33" rx="7" stroke="#E6E6E6" stroke-width="2"/>
<rect x="380" y="372" width="240" height="33" rx="7" fill="#F7F7F7"/>
<rect x="380" y="372" width="240" height="33" rx="7" stroke="#E6E6E6" stroke-width="2"/>
<rect x="380" y="417" width="240" height="33" rx="7" fill="#F7F7F7"/>
<rect x="380" y="417" width="240" height="33" rx="7" stroke="#E6E6E6" stroke-width="2"/>
<rect x="379" y="459" width="242" height="35" rx="5" fill="#E30140"/>
<path d="M325.595 393.781V392.312C326.187 392.763 326.841 392.988 327.557 392.988C328.514 392.988 328.992 392.706 328.992 392.141C328.992 391.981 328.951 391.847 328.869 391.737C328.787 391.623 328.675 391.523 328.534 391.437C328.397 391.35 328.233 391.272 328.042 391.204C327.855 391.136 327.646 391.058 327.413 390.972C327.126 390.858 326.866 390.737 326.634 390.609C326.406 390.482 326.215 390.338 326.06 390.179C325.909 390.015 325.795 389.83 325.718 389.625C325.64 389.42 325.602 389.181 325.602 388.907C325.602 388.57 325.681 388.274 325.841 388.019C326 387.759 326.215 387.542 326.483 387.369C326.752 387.191 327.058 387.059 327.399 386.973C327.741 386.882 328.094 386.836 328.459 386.836C329.106 386.836 329.685 386.934 330.195 387.13V388.518C329.703 388.18 329.138 388.012 328.5 388.012C328.299 388.012 328.117 388.032 327.953 388.073C327.794 388.114 327.657 388.171 327.543 388.244C327.429 388.317 327.34 388.406 327.276 388.511C327.213 388.611 327.181 388.723 327.181 388.846C327.181 388.996 327.213 389.124 327.276 389.229C327.34 389.333 327.434 389.427 327.557 389.509C327.684 389.586 327.835 389.659 328.008 389.728C328.186 389.791 328.388 389.862 328.616 389.939C328.917 390.062 329.186 390.188 329.423 390.315C329.664 390.443 329.869 390.589 330.038 390.753C330.207 390.912 330.337 391.099 330.428 391.313C330.519 391.523 330.564 391.774 330.564 392.065C330.564 392.421 330.482 392.731 330.318 392.995C330.154 393.259 329.936 393.478 329.662 393.651C329.389 393.825 329.072 393.952 328.712 394.034C328.356 394.121 327.98 394.164 327.584 394.164C326.818 394.164 326.155 394.036 325.595 393.781ZM338.002 390.931H333.23C333.249 391.578 333.447 392.077 333.825 392.428C334.208 392.779 334.732 392.954 335.397 392.954C336.145 392.954 336.831 392.731 337.455 392.284V393.562C336.817 393.964 335.974 394.164 334.926 394.164C333.896 394.164 333.087 393.847 332.499 393.214C331.916 392.576 331.624 391.68 331.624 390.527C331.624 389.438 331.945 388.552 332.588 387.868C333.235 387.18 334.037 386.836 334.994 386.836C335.951 386.836 336.692 387.144 337.216 387.759C337.74 388.374 338.002 389.229 338.002 390.322V390.931ZM336.471 389.81C336.466 389.24 336.332 388.798 336.067 388.483C335.803 388.164 335.438 388.005 334.974 388.005C334.518 388.005 334.131 388.171 333.812 388.504C333.497 388.837 333.303 389.272 333.23 389.81H336.471ZM345.747 394H344.161V390.056C344.161 388.748 343.699 388.094 342.773 388.094C342.29 388.094 341.892 388.276 341.577 388.641C341.263 389.001 341.105 389.456 341.105 390.008V394H339.513V387H341.105V388.162H341.133C341.657 387.278 342.413 386.836 343.402 386.836C344.163 386.836 344.744 387.084 345.146 387.581C345.547 388.073 345.747 388.786 345.747 389.721V394ZM353.909 394H352.323V390.172C352.323 388.786 351.861 388.094 350.936 388.094C350.471 388.094 350.079 388.294 349.76 388.695C349.441 389.096 349.281 389.609 349.281 390.233V394H347.688V383.637H349.281V388.162H349.309C349.837 387.278 350.594 386.836 351.578 386.836C353.132 386.836 353.909 387.786 353.909 389.687V394ZM361.21 394H359.672V392.906H359.645C359.161 393.745 358.453 394.164 357.519 394.164C356.83 394.164 356.29 393.977 355.898 393.604C355.511 393.23 355.317 392.735 355.317 392.12C355.317 390.799 356.078 390.028 357.601 389.81L359.679 389.516C359.679 388.518 359.205 388.019 358.257 388.019C357.423 388.019 356.671 388.306 356.001 388.88V387.492C356.739 387.055 357.591 386.836 358.558 386.836C360.326 386.836 361.21 387.706 361.21 389.447V394ZM359.679 390.562L358.209 390.767C357.753 390.826 357.409 390.938 357.177 391.102C356.949 391.261 356.835 391.544 356.835 391.949C356.835 392.245 356.94 392.489 357.149 392.681C357.364 392.868 357.648 392.961 358.004 392.961C358.487 392.961 358.886 392.792 359.2 392.455C359.519 392.113 359.679 391.685 359.679 391.17V390.562Z" fill="#1D1D1D" fill-opacity="0.5"/>
<path d="M288.263 349H286.479L285.597 346.505H281.741L280.894 349H279.116L282.787 339.197H284.619L288.263 349ZM285.166 345.179L283.806 341.269C283.765 341.141 283.721 340.936 283.676 340.653H283.648C283.607 340.913 283.562 341.118 283.512 341.269L282.165 345.179H285.166ZM292.897 348.925C292.588 349.08 292.18 349.157 291.674 349.157C290.316 349.157 289.637 348.506 289.637 347.202V343.244H288.468V342H289.637V340.38L291.223 339.929V342H292.897V343.244H291.223V346.744C291.223 347.159 291.298 347.455 291.448 347.633C291.599 347.811 291.849 347.899 292.2 347.899C292.469 347.899 292.701 347.822 292.897 347.667V348.925ZM300.109 345.931H295.338C295.356 346.578 295.554 347.077 295.933 347.428C296.315 347.779 296.84 347.954 297.505 347.954C298.252 347.954 298.938 347.731 299.562 347.284V348.562C298.924 348.964 298.081 349.164 297.033 349.164C296.003 349.164 295.194 348.847 294.606 348.214C294.023 347.576 293.731 346.68 293.731 345.527C293.731 344.438 294.053 343.552 294.695 342.868C295.342 342.18 296.145 341.836 297.102 341.836C298.059 341.836 298.799 342.144 299.323 342.759C299.847 343.374 300.109 344.229 300.109 345.322V345.931ZM298.578 344.81C298.574 344.24 298.439 343.798 298.175 343.483C297.91 343.164 297.546 343.005 297.081 343.005C296.625 343.005 296.238 343.171 295.919 343.504C295.604 343.837 295.411 344.272 295.338 344.81H298.578ZM307.854 349H306.269V345.056C306.269 343.748 305.806 343.094 304.881 343.094C304.398 343.094 303.999 343.276 303.685 343.641C303.37 344.001 303.213 344.456 303.213 345.008V349H301.62V342H303.213V343.162H303.24C303.764 342.278 304.521 341.836 305.51 341.836C306.271 341.836 306.852 342.084 307.253 342.581C307.654 343.073 307.854 343.786 307.854 344.721V349ZM316.16 349H314.574V347.811H314.547C314.036 348.713 313.25 349.164 312.188 349.164C311.327 349.164 310.637 348.852 310.117 348.228C309.602 347.599 309.345 346.744 309.345 345.664C309.345 344.507 309.63 343.579 310.199 342.882C310.773 342.185 311.537 341.836 312.489 341.836C313.433 341.836 314.118 342.214 314.547 342.971H314.574V338.637H316.16V349ZM314.595 345.801V344.885C314.595 344.388 314.433 343.966 314.109 343.62C313.786 343.274 313.373 343.101 312.872 343.101C312.28 343.101 311.812 343.322 311.471 343.764C311.133 344.206 310.965 344.819 310.965 345.603C310.965 346.313 311.127 346.876 311.45 347.291C311.778 347.701 312.218 347.906 312.77 347.906C313.312 347.906 313.752 347.708 314.089 347.312C314.426 346.91 314.595 346.407 314.595 345.801ZM319.031 340.53C318.771 340.53 318.548 340.446 318.361 340.277C318.179 340.109 318.088 339.895 318.088 339.635C318.088 339.375 318.179 339.159 318.361 338.985C318.548 338.812 318.771 338.726 319.031 338.726C319.3 338.726 319.528 338.812 319.715 338.985C319.902 339.159 319.995 339.375 319.995 339.635C319.995 339.881 319.902 340.093 319.715 340.271C319.528 340.444 319.3 340.53 319.031 340.53ZM319.817 349H318.231V342H319.817V349ZM332.361 349H330.775V345.186C330.775 344.452 330.671 343.921 330.461 343.593C330.256 343.265 329.907 343.101 329.415 343.101C329 343.101 328.647 343.308 328.355 343.723C328.068 344.137 327.925 344.634 327.925 345.213V349H326.332V345.056C326.332 343.752 325.872 343.101 324.951 343.101C324.523 343.101 324.17 343.297 323.892 343.688C323.618 344.08 323.481 344.589 323.481 345.213V349H321.896V342H323.481V343.107H323.509C324.015 342.26 324.751 341.836 325.717 341.836C326.2 341.836 326.621 341.97 326.981 342.239C327.346 342.504 327.594 342.852 327.727 343.285C328.246 342.319 329.021 341.836 330.051 341.836C331.591 341.836 332.361 342.786 332.361 344.687V349ZM340.223 345.931H335.451C335.469 346.578 335.668 347.077 336.046 347.428C336.429 347.779 336.953 347.954 337.618 347.954C338.366 347.954 339.051 347.731 339.676 347.284V348.562C339.038 348.964 338.195 349.164 337.146 349.164C336.117 349.164 335.308 348.847 334.72 348.214C334.136 347.576 333.845 346.68 333.845 345.527C333.845 344.438 334.166 343.552 334.809 342.868C335.456 342.18 336.258 341.836 337.215 341.836C338.172 341.836 338.912 342.144 339.437 342.759C339.961 343.374 340.223 344.229 340.223 345.322V345.931ZM338.691 344.81C338.687 344.24 338.552 343.798 338.288 343.483C338.024 343.164 337.659 343.005 337.194 343.005C336.739 343.005 336.351 343.171 336.032 343.504C335.718 343.837 335.524 344.272 335.451 344.81H338.691ZM347.968 349H346.382V345.056C346.382 343.748 345.919 343.094 344.994 343.094C344.511 343.094 344.112 343.276 343.798 343.641C343.483 344.001 343.326 344.456 343.326 345.008V349H341.733V342H343.326V343.162H343.354C343.878 342.278 344.634 341.836 345.623 341.836C346.384 341.836 346.965 342.084 347.366 342.581C347.767 343.073 347.968 343.786 347.968 344.721V349ZM353.601 348.925C353.291 349.08 352.883 349.157 352.377 349.157C351.019 349.157 350.34 348.506 350.34 347.202V343.244H349.171V342H350.34V340.38L351.926 339.929V342H353.601V343.244H351.926V346.744C351.926 347.159 352.001 347.455 352.151 347.633C352.302 347.811 352.552 347.899 352.903 347.899C353.172 347.899 353.405 347.822 353.601 347.667V348.925ZM357.989 349.164C356.909 349.164 356.046 348.838 355.398 348.187C354.756 347.53 354.435 346.662 354.435 345.582C354.435 344.406 354.77 343.488 355.439 342.827C356.114 342.166 357.021 341.836 358.16 341.836C359.254 341.836 360.106 342.157 360.717 342.8C361.327 343.442 361.633 344.333 361.633 345.473C361.633 346.589 361.302 347.485 360.642 348.159C359.985 348.829 359.101 349.164 357.989 349.164ZM358.064 343.101C357.445 343.101 356.955 343.317 356.595 343.75C356.235 344.183 356.055 344.78 356.055 345.541C356.055 346.275 356.237 346.854 356.602 347.277C356.966 347.697 357.454 347.906 358.064 347.906C358.689 347.906 359.167 347.699 359.5 347.284C359.837 346.869 360.006 346.279 360.006 345.514C360.006 344.743 359.837 344.149 359.5 343.729C359.167 343.31 358.689 343.101 358.064 343.101Z" fill="#1D1D1D" fill-opacity="0.5"/>
<path d="M445.122 99.54C445.122 100.817 444.853 101.948 444.313 102.933C443.78 103.911 443.016 104.667 442.02 105.2C441.023 105.733 439.875 106 438.574 106H433.239V93.3965H438.46C442.901 93.3965 445.122 95.4443 445.122 99.54ZM441.088 99.5752C441.088 98.96 440.962 98.4062 440.71 97.9141C440.464 97.4219 440.109 97.041 439.646 96.7715C439.184 96.502 438.639 96.3672 438.012 96.3672H437.036V103.029H438.1C439.008 103.029 439.731 102.719 440.271 102.098C440.815 101.471 441.088 100.63 441.088 99.5752ZM451.547 106V104.629H451.512C450.914 105.689 450 106.22 448.77 106.22C447.92 106.22 447.255 105.968 446.774 105.464C446.294 104.96 446.054 104.286 446.054 103.442C446.054 101.673 447.141 100.647 449.314 100.366L451.547 100.076C451.547 99.7832 451.415 99.543 451.151 99.3555C450.888 99.168 450.533 99.0742 450.088 99.0742C449.08 99.0742 448.017 99.3613 446.897 99.9355V97.501C447.384 97.29 447.993 97.1172 448.726 96.9824C449.458 96.8477 450.085 96.7803 450.606 96.7803C452.136 96.7803 453.243 97.1084 453.929 97.7646C454.62 98.415 454.966 99.5049 454.966 101.034V106H451.547ZM449.332 102.941C449.332 103.188 449.408 103.39 449.561 103.548C449.719 103.706 449.941 103.785 450.229 103.785C450.621 103.785 450.938 103.639 451.178 103.346C451.424 103.053 451.547 102.678 451.547 102.221V101.878L450.281 102.054C449.648 102.159 449.332 102.455 449.332 102.941ZM462.674 106V104.954H462.639C462.34 105.347 461.95 105.657 461.47 105.886C460.989 106.108 460.515 106.22 460.046 106.22C459.278 106.22 458.602 106.032 458.016 105.657C457.43 105.276 456.99 104.746 456.697 104.066C456.41 103.387 456.267 102.584 456.267 101.658C456.267 100.703 456.439 99.8564 456.785 99.1182C457.131 98.3799 457.617 97.8057 458.244 97.3955C458.871 96.9854 459.574 96.7803 460.354 96.7803C460.723 96.7803 461.062 96.833 461.373 96.9385C461.689 97.0439 461.962 97.1875 462.19 97.3691C462.425 97.5449 462.574 97.7207 462.639 97.8965H462.674V92.6758H466.418V106H462.674ZM462.753 101.228C462.753 100.688 462.633 100.27 462.393 99.9707C462.158 99.6719 461.839 99.5225 461.435 99.5225C461.03 99.5225 460.699 99.71 460.441 100.085C460.189 100.454 460.063 100.949 460.063 101.57C460.063 102.842 460.503 103.478 461.382 103.478C461.798 103.478 462.129 103.308 462.375 102.968C462.627 102.622 462.753 102.121 462.753 101.465V101.228ZM478.239 101.342C478.239 102.859 477.779 104.052 476.859 104.919C475.945 105.786 474.665 106.22 473.019 106.22C471.384 106.22 470.109 105.798 469.195 104.954C468.287 104.104 467.833 102.936 467.833 101.447C467.833 100.492 468.047 99.6631 468.475 98.96C468.902 98.2568 469.512 97.7178 470.303 97.3428C471.094 96.9678 472.005 96.7803 473.036 96.7803C474.103 96.7803 475.025 96.9766 475.805 97.3691C476.59 97.7617 477.19 98.3066 477.606 99.0039C478.028 99.7012 478.239 100.48 478.239 101.342ZM474.442 101.359C474.442 100.135 473.974 99.5225 473.036 99.5225C472.099 99.5225 471.63 100.164 471.63 101.447C471.63 102.801 472.104 103.478 473.054 103.478C473.979 103.478 474.442 102.771 474.442 101.359ZM486.949 103.012C486.949 104.031 486.56 104.822 485.78 105.385C485.007 105.941 483.926 106.22 482.537 106.22C482.133 106.22 481.632 106.179 481.034 106.097C480.442 106.015 479.959 105.915 479.584 105.798V103.17C480.691 103.662 481.617 103.908 482.361 103.908C483.094 103.908 483.46 103.718 483.46 103.337C483.46 103.179 483.375 103.05 483.205 102.95C483.035 102.845 482.59 102.672 481.869 102.432C481.072 102.18 480.492 101.846 480.129 101.43C479.766 101.014 479.584 100.472 479.584 99.8037C479.584 98.8721 479.953 98.1367 480.691 97.5977C481.436 97.0527 482.479 96.7803 483.82 96.7803C484.605 96.7803 485.438 96.8945 486.316 97.123V99.6455C485.947 99.4873 485.543 99.3555 485.104 99.25C484.664 99.1445 484.295 99.0918 483.996 99.0918C483.75 99.0918 483.554 99.1328 483.407 99.2148C483.261 99.2969 483.188 99.4111 483.188 99.5576C483.188 99.7275 483.267 99.8652 483.425 99.9707C483.583 100.076 483.899 100.202 484.374 100.349C485.294 100.618 485.953 100.964 486.352 101.386C486.75 101.808 486.949 102.35 486.949 103.012ZM503.991 97.5537C503.991 98.415 503.771 99.1797 503.332 99.8477C502.898 100.516 502.277 101.034 501.469 101.403C500.66 101.767 499.72 101.948 498.647 101.948H497.487V106H493.69V93.3965H498.858C500.634 93.3965 501.932 93.7334 502.752 94.4072C503.578 95.0811 503.991 96.1299 503.991 97.5537ZM499.975 97.6855C499.975 97.1699 499.825 96.7803 499.526 96.5166C499.228 96.2529 498.788 96.1211 498.208 96.1211H497.487V99.2324H498.34C499.43 99.2324 499.975 98.7168 499.975 97.6855ZM508.386 102.563C508.45 102.95 508.673 103.255 509.054 103.478C509.435 103.694 509.938 103.803 510.565 103.803C511.438 103.803 512.265 103.636 513.044 103.302V105.675C512.136 106.038 511.034 106.22 509.739 106.22C508.169 106.22 506.947 105.818 506.074 105.016C505.201 104.213 504.765 103.108 504.765 101.702C504.765 100.735 504.955 99.8828 505.336 99.1445C505.723 98.4062 506.291 97.8291 507.041 97.4131C507.797 96.9912 508.629 96.7803 509.537 96.7803C510.469 96.7803 511.266 96.9619 511.928 97.3252C512.59 97.6885 513.091 98.1982 513.431 98.8545C513.776 99.5107 513.949 100.278 513.949 101.157V102.563H508.386ZM510.636 100.604C510.636 99.5664 510.264 99.0479 509.52 99.0479C509.209 99.0479 508.948 99.1914 508.737 99.4785C508.526 99.7598 508.403 100.135 508.368 100.604H510.636ZM522.562 103.012C522.562 104.031 522.173 104.822 521.394 105.385C520.62 105.941 519.539 106.22 518.15 106.22C517.746 106.22 517.245 106.179 516.647 106.097C516.056 106.015 515.572 105.915 515.197 105.798V103.17C516.305 103.662 517.23 103.908 517.975 103.908C518.707 103.908 519.073 103.718 519.073 103.337C519.073 103.179 518.988 103.05 518.818 102.95C518.648 102.845 518.203 102.672 517.482 102.432C516.686 102.18 516.105 101.846 515.742 101.43C515.379 101.014 515.197 100.472 515.197 99.8037C515.197 98.8721 515.566 98.1367 516.305 97.5977C517.049 97.0527 518.092 96.7803 519.434 96.7803C520.219 96.7803 521.051 96.8945 521.93 97.123V99.6455C521.561 99.4873 521.156 99.3555 520.717 99.25C520.277 99.1445 519.908 99.0918 519.609 99.0918C519.363 99.0918 519.167 99.1328 519.021 99.2148C518.874 99.2969 518.801 99.4111 518.801 99.5576C518.801 99.7275 518.88 99.8652 519.038 99.9707C519.196 100.076 519.513 100.202 519.987 100.349C520.907 100.618 521.566 100.964 521.965 101.386C522.363 101.808 522.562 102.35 522.562 103.012ZM531.264 103.012C531.264 104.031 530.874 104.822 530.095 105.385C529.321 105.941 528.24 106.22 526.852 106.22C526.447 106.22 525.946 106.179 525.349 106.097C524.757 106.015 524.273 105.915 523.898 105.798V103.17C525.006 103.662 525.932 103.908 526.676 103.908C527.408 103.908 527.774 103.718 527.774 103.337C527.774 103.179 527.689 103.05 527.52 102.95C527.35 102.845 526.904 102.672 526.184 102.432C525.387 102.18 524.807 101.846 524.443 101.43C524.08 101.014 523.898 100.472 523.898 99.8037C523.898 98.8721 524.268 98.1367 525.006 97.5977C525.75 97.0527 526.793 96.7803 528.135 96.7803C528.92 96.7803 529.752 96.8945 530.631 97.123V99.6455C530.262 99.4873 529.857 99.3555 529.418 99.25C528.979 99.1445 528.609 99.0918 528.311 99.0918C528.064 99.0918 527.868 99.1328 527.722 99.2148C527.575 99.2969 527.502 99.4111 527.502 99.5576C527.502 99.7275 527.581 99.8652 527.739 99.9707C527.897 100.076 528.214 100.202 528.688 100.349C529.608 100.618 530.268 100.964 530.666 101.386C531.064 101.808 531.264 102.35 531.264 103.012ZM542.663 101.342C542.663 102.859 542.203 104.052 541.283 104.919C540.369 105.786 539.089 106.22 537.442 106.22C535.808 106.22 534.533 105.798 533.619 104.954C532.711 104.104 532.257 102.936 532.257 101.447C532.257 100.492 532.471 99.6631 532.898 98.96C533.326 98.2568 533.936 97.7178 534.727 97.3428C535.518 96.9678 536.429 96.7803 537.46 96.7803C538.526 96.7803 539.449 96.9766 540.229 97.3691C541.014 97.7617 541.614 98.3066 542.03 99.0039C542.452 99.7012 542.663 100.48 542.663 101.342ZM538.866 101.359C538.866 100.135 538.397 99.5225 537.46 99.5225C536.522 99.5225 536.054 100.164 536.054 101.447C536.054 102.801 536.528 103.478 537.478 103.478C538.403 103.478 538.866 102.771 538.866 101.359ZM549.053 106V104.629H549.018C548.42 105.689 547.506 106.22 546.275 106.22C545.426 106.22 544.761 105.968 544.28 105.464C543.8 104.96 543.56 104.286 543.56 103.442C543.56 101.673 544.646 100.647 546.82 100.366L549.053 100.076C549.053 99.7832 548.921 99.543 548.657 99.3555C548.394 99.168 548.039 99.0742 547.594 99.0742C546.586 99.0742 545.522 99.3613 544.403 99.9355V97.501C544.89 97.29 545.499 97.1172 546.231 96.9824C546.964 96.8477 547.591 96.7803 548.112 96.7803C549.642 96.7803 550.749 97.1084 551.435 97.7646C552.126 98.415 552.472 99.5049 552.472 101.034V106H549.053ZM546.838 102.941C546.838 103.188 546.914 103.39 547.066 103.548C547.225 103.706 547.447 103.785 547.734 103.785C548.127 103.785 548.443 103.639 548.684 103.346C548.93 103.053 549.053 102.678 549.053 102.221V101.878L547.787 102.054C547.154 102.159 546.838 102.455 546.838 102.941ZM558.132 94.5742C558.132 95.1016 557.938 95.5293 557.552 95.8574C557.171 96.1855 556.667 96.3496 556.04 96.3496C555.431 96.3496 554.93 96.1797 554.537 95.8398C554.15 95.5 553.957 95.0781 553.957 94.5742C553.957 94.0586 554.145 93.6426 554.52 93.3262C554.9 93.0039 555.407 92.8428 556.04 92.8428C556.667 92.8428 557.171 93.0039 557.552 93.3262C557.938 93.6426 558.132 94.0586 558.132 94.5742ZM554.168 106V97H557.912V106H554.168ZM567.035 103.012C567.035 104.031 566.646 104.822 565.866 105.385C565.093 105.941 564.012 106.22 562.623 106.22C562.219 106.22 561.718 106.179 561.12 106.097C560.528 106.015 560.045 105.915 559.67 105.798V103.17C560.777 103.662 561.703 103.908 562.447 103.908C563.18 103.908 563.546 103.718 563.546 103.337C563.546 103.179 563.461 103.05 563.291 102.95C563.121 102.845 562.676 102.672 561.955 102.432C561.158 102.18 560.578 101.846 560.215 101.43C559.852 101.014 559.67 100.472 559.67 99.8037C559.67 98.8721 560.039 98.1367 560.777 97.5977C561.521 97.0527 562.564 96.7803 563.906 96.7803C564.691 96.7803 565.523 96.8945 566.402 97.123V99.6455C566.033 99.4873 565.629 99.3555 565.189 99.25C564.75 99.1445 564.381 99.0918 564.082 99.0918C563.836 99.0918 563.64 99.1328 563.493 99.2148C563.347 99.2969 563.273 99.4111 563.273 99.5576C563.273 99.7275 563.353 99.8652 563.511 99.9707C563.669 100.076 563.985 100.202 564.46 100.349C565.38 100.618 566.039 100.964 566.438 101.386C566.836 101.808 567.035 102.35 567.035 103.012Z" fill="#1D1D1D" fill-opacity="0.5"/>
<path d="M326.595 438.781V437.312C327.187 437.763 327.841 437.988 328.557 437.988C329.514 437.988 329.992 437.706 329.992 437.141C329.992 436.981 329.951 436.847 329.869 436.737C329.787 436.623 329.675 436.523 329.534 436.437C329.397 436.35 329.233 436.272 329.042 436.204C328.855 436.136 328.646 436.058 328.413 435.972C328.126 435.858 327.866 435.737 327.634 435.609C327.406 435.482 327.215 435.338 327.06 435.179C326.909 435.015 326.795 434.83 326.718 434.625C326.64 434.42 326.602 434.181 326.602 433.907C326.602 433.57 326.681 433.274 326.841 433.019C327 432.759 327.215 432.542 327.483 432.369C327.752 432.191 328.058 432.059 328.399 431.973C328.741 431.882 329.094 431.836 329.459 431.836C330.106 431.836 330.685 431.934 331.195 432.13V433.518C330.703 433.18 330.138 433.012 329.5 433.012C329.299 433.012 329.117 433.032 328.953 433.073C328.794 433.114 328.657 433.171 328.543 433.244C328.429 433.317 328.34 433.406 328.276 433.511C328.213 433.611 328.181 433.723 328.181 433.846C328.181 433.996 328.213 434.124 328.276 434.229C328.34 434.333 328.434 434.427 328.557 434.509C328.684 434.586 328.835 434.659 329.008 434.728C329.186 434.791 329.388 434.862 329.616 434.939C329.917 435.062 330.186 435.188 330.423 435.315C330.664 435.443 330.869 435.589 331.038 435.753C331.207 435.912 331.337 436.099 331.428 436.313C331.519 436.523 331.564 436.774 331.564 437.065C331.564 437.421 331.482 437.731 331.318 437.995C331.154 438.259 330.936 438.478 330.662 438.651C330.389 438.825 330.072 438.952 329.712 439.034C329.356 439.121 328.98 439.164 328.584 439.164C327.818 439.164 327.155 439.036 326.595 438.781ZM339.002 435.931H334.23C334.249 436.578 334.447 437.077 334.825 437.428C335.208 437.779 335.732 437.954 336.397 437.954C337.145 437.954 337.831 437.731 338.455 437.284V438.562C337.817 438.964 336.974 439.164 335.926 439.164C334.896 439.164 334.087 438.847 333.499 438.214C332.916 437.576 332.624 436.68 332.624 435.527C332.624 434.438 332.945 433.552 333.588 432.868C334.235 432.18 335.037 431.836 335.994 431.836C336.951 431.836 337.692 432.144 338.216 432.759C338.74 433.374 339.002 434.229 339.002 435.322V435.931ZM337.471 434.81C337.466 434.24 337.332 433.798 337.067 433.483C336.803 433.164 336.438 433.005 335.974 433.005C335.518 433.005 335.131 433.171 334.812 433.504C334.497 433.837 334.303 434.272 334.23 434.81H337.471ZM346.747 439H345.161V435.056C345.161 433.748 344.699 433.094 343.773 433.094C343.29 433.094 342.892 433.276 342.577 433.641C342.263 434.001 342.105 434.456 342.105 435.008V439H340.513V432H342.105V433.162H342.133C342.657 432.278 343.413 431.836 344.402 431.836C345.163 431.836 345.744 432.084 346.146 432.581C346.547 433.073 346.747 433.786 346.747 434.721V439ZM354.909 439H353.323V435.172C353.323 433.786 352.861 433.094 351.936 433.094C351.471 433.094 351.079 433.294 350.76 433.695C350.441 434.096 350.281 434.609 350.281 435.233V439H348.688V428.637H350.281V433.162H350.309C350.837 432.278 351.594 431.836 352.578 431.836C354.132 431.836 354.909 432.786 354.909 434.687V439ZM362.21 439H360.672V437.906H360.645C360.161 438.745 359.453 439.164 358.519 439.164C357.83 439.164 357.29 438.977 356.898 438.604C356.511 438.23 356.317 437.735 356.317 437.12C356.317 435.799 357.078 435.028 358.601 434.81L360.679 434.516C360.679 433.518 360.205 433.019 359.257 433.019C358.423 433.019 357.671 433.306 357.001 433.88V432.492C357.739 432.055 358.591 431.836 359.558 431.836C361.326 431.836 362.21 432.706 362.21 434.447V439ZM360.679 435.562L359.209 435.767C358.753 435.826 358.409 435.938 358.177 436.102C357.949 436.261 357.835 436.544 357.835 436.949C357.835 437.245 357.94 437.489 358.149 437.681C358.364 437.868 358.648 437.961 359.004 437.961C359.487 437.961 359.886 437.792 360.2 437.455C360.519 437.113 360.679 436.685 360.679 436.17V435.562Z" fill="#1D1D1D" fill-opacity="0.5"/>
</g>
<defs>
<clipPath id="clip0_431_11">
<rect width="1000" height="640" fill="white"/>
</clipPath>
</defs>
</svg>
