<svg width="382" height="640" viewBox="0 0 382 640" fill="none" xmlns="http://www.w3.org/2000/svg">
    <rect width="382" height="640" fill="white"/>
    <rect x="104" y="265.5" width="240" height="41" rx="7" fill="#F7F7F7"/>
    <rect x="104" y="265.5" width="240" height="41" rx="7" stroke="#E6E6E6" stroke-width="2"/>
    <rect x="104" y="318.5" width="240" height="41" rx="7" fill="#F7F7F7"/>
    <rect x="104" y="318.5" width="240" height="41" rx="7" stroke="#E6E6E6" stroke-width="2"/>
    <rect x="103" y="368.5" width="242" height="35" rx="5" fill="#E30140"/>
    <path d="M132.242 434.5H130.833L125.789 426.687C125.661 426.491 125.556 426.285 125.474 426.071H125.433C125.47 426.281 125.488 426.73 125.488 427.418V434.5H124.339V424.697H125.83L130.738 432.388C130.943 432.707 131.075 432.925 131.134 433.044H131.162C131.116 432.761 131.093 432.281 131.093 431.602V424.697H132.242V434.5ZM139.672 434.5H138.551V433.406H138.524C138.036 434.245 137.319 434.664 136.371 434.664C135.673 434.664 135.126 434.479 134.73 434.11C134.338 433.741 134.142 433.251 134.142 432.641C134.142 431.333 134.912 430.572 136.453 430.357L138.551 430.063C138.551 428.874 138.07 428.279 137.109 428.279C136.266 428.279 135.505 428.566 134.826 429.141V427.992C135.514 427.555 136.307 427.336 137.205 427.336C138.85 427.336 139.672 428.206 139.672 429.947V434.5ZM138.551 430.959L136.863 431.191C136.343 431.264 135.951 431.394 135.687 431.581C135.423 431.763 135.291 432.089 135.291 432.559C135.291 432.9 135.411 433.181 135.653 433.399C135.899 433.614 136.225 433.721 136.63 433.721C137.186 433.721 137.644 433.527 138.004 433.14C138.369 432.748 138.551 432.253 138.551 431.656V430.959ZM139.296 424.533C139.296 425.012 139.187 425.404 138.968 425.709C138.75 426.01 138.453 426.16 138.08 426.16C137.756 426.16 137.387 426.042 136.972 425.805C136.621 425.609 136.35 425.511 136.159 425.511C135.758 425.511 135.557 425.768 135.557 426.283H134.915C134.915 425.796 135.024 425.406 135.243 425.114C135.461 424.818 135.767 424.67 136.159 424.67C136.455 424.67 136.794 424.788 137.177 425.025C137.514 425.226 137.806 425.326 138.052 425.326C138.435 425.326 138.626 425.062 138.626 424.533H139.296ZM144.71 434.664C143.676 434.664 142.849 434.338 142.229 433.687C141.614 433.03 141.306 432.162 141.306 431.082C141.306 429.906 141.627 428.988 142.27 428.327C142.913 427.666 143.781 427.336 144.875 427.336C145.918 427.336 146.732 427.657 147.315 428.3C147.903 428.942 148.197 429.833 148.197 430.973C148.197 432.089 147.88 432.985 147.247 433.659C146.618 434.329 145.772 434.664 144.71 434.664ZM144.792 428.279C144.072 428.279 143.503 428.525 143.083 429.018C142.664 429.505 142.455 430.18 142.455 431.041C142.455 431.87 142.667 432.524 143.09 433.003C143.514 433.481 144.082 433.721 144.792 433.721C145.517 433.721 146.073 433.486 146.46 433.017C146.852 432.547 147.048 431.88 147.048 431.014C147.048 430.139 146.852 429.464 146.46 428.99C146.073 428.516 145.517 428.279 144.792 428.279ZM157.077 434.432C156.812 434.577 156.464 434.65 156.031 434.65C154.805 434.65 154.192 433.967 154.192 432.6V428.457H152.989V427.5H154.192V425.791L155.313 425.429V427.5H157.077V428.457H155.313V432.401C155.313 432.871 155.393 433.206 155.552 433.406C155.712 433.607 155.976 433.707 156.345 433.707C156.628 433.707 156.872 433.63 157.077 433.475V434.432ZM164.2 431.28H159.257C159.276 432.06 159.485 432.661 159.886 433.085C160.287 433.509 160.839 433.721 161.541 433.721C162.329 433.721 163.054 433.461 163.714 432.941V433.994C163.099 434.441 162.286 434.664 161.274 434.664C160.285 434.664 159.508 434.347 158.943 433.714C158.378 433.076 158.095 432.18 158.095 431.027C158.095 429.938 158.403 429.052 159.018 428.368C159.638 427.68 160.406 427.336 161.322 427.336C162.238 427.336 162.946 427.632 163.448 428.225C163.949 428.817 164.2 429.64 164.2 430.692V431.28ZM163.051 430.33C163.047 429.683 162.889 429.179 162.58 428.819C162.274 428.459 161.848 428.279 161.301 428.279C160.773 428.279 160.324 428.468 159.955 428.847C159.585 429.225 159.358 429.719 159.271 430.33H163.051ZM175.841 434.5H174.72V430.48C174.72 429.706 174.599 429.145 174.358 428.799C174.121 428.452 173.72 428.279 173.155 428.279C172.676 428.279 172.268 428.498 171.931 428.936C171.598 429.373 171.432 429.897 171.432 430.508V434.5H170.311V430.344C170.311 428.967 169.78 428.279 168.718 428.279C168.226 428.279 167.82 428.487 167.501 428.901C167.182 429.312 167.023 429.847 167.023 430.508V434.5H165.902V427.5H167.023V428.607H167.05C167.547 427.76 168.272 427.336 169.224 427.336C169.703 427.336 170.12 427.47 170.475 427.739C170.831 428.004 171.074 428.352 171.207 428.785C171.726 427.819 172.501 427.336 173.531 427.336C175.071 427.336 175.841 428.286 175.841 430.187V434.5ZM187.462 434.5H186.341V433.393H186.314C185.849 434.24 185.129 434.664 184.154 434.664C182.486 434.664 181.652 433.671 181.652 431.684V427.5H182.766V431.506C182.766 432.982 183.331 433.721 184.461 433.721C185.008 433.721 185.457 433.52 185.808 433.119C186.164 432.714 186.341 432.185 186.341 431.533V427.5H187.462V434.5ZM199.671 434.5H198.55V430.48C198.55 429.706 198.43 429.145 198.188 428.799C197.951 428.452 197.55 428.279 196.985 428.279C196.506 428.279 196.098 428.498 195.761 428.936C195.429 429.373 195.262 429.897 195.262 430.508V434.5H194.141V430.344C194.141 428.967 193.61 428.279 192.548 428.279C192.056 428.279 191.651 428.487 191.332 428.901C191.013 429.312 190.853 429.847 190.853 430.508V434.5H189.732V427.5H190.853V428.607H190.88C191.377 427.76 192.102 427.336 193.054 427.336C193.533 427.336 193.95 427.47 194.305 427.739C194.661 428.004 194.904 428.352 195.037 428.785C195.556 427.819 196.331 427.336 197.361 427.336C198.901 427.336 199.671 428.286 199.671 430.187V434.5ZM206.801 434.5H205.68V433.406H205.653C205.165 434.245 204.447 434.664 203.5 434.664C202.802 434.664 202.255 434.479 201.859 434.11C201.467 433.741 201.271 433.251 201.271 432.641C201.271 431.333 202.041 430.572 203.582 430.357L205.68 430.063C205.68 428.874 205.199 428.279 204.238 428.279C203.395 428.279 202.634 428.566 201.955 429.141V427.992C202.643 427.555 203.436 427.336 204.333 427.336C205.979 427.336 206.801 428.206 206.801 429.947V434.5ZM205.68 430.959L203.992 431.191C203.472 431.264 203.08 431.394 202.816 431.581C202.552 431.763 202.419 432.089 202.419 432.559C202.419 432.9 202.54 433.181 202.782 433.399C203.028 433.614 203.354 433.721 203.759 433.721C204.315 433.721 204.773 433.527 205.133 433.14C205.498 432.748 205.68 432.253 205.68 431.656V430.959ZM217.527 434.179C216.989 434.502 216.351 434.664 215.613 434.664C214.615 434.664 213.808 434.34 213.193 433.693C212.582 433.042 212.277 432.199 212.277 431.164C212.277 430.011 212.607 429.086 213.268 428.389C213.929 427.687 214.811 427.336 215.914 427.336C216.529 427.336 217.071 427.45 217.541 427.678V428.826C217.021 428.462 216.465 428.279 215.873 428.279C215.157 428.279 214.569 428.537 214.109 429.052C213.653 429.562 213.425 430.234 213.425 431.068C213.425 431.889 213.639 432.536 214.068 433.01C214.501 433.484 215.08 433.721 215.804 433.721C216.415 433.721 216.989 433.518 217.527 433.112V434.179ZM222.148 434.664C221.113 434.664 220.286 434.338 219.667 433.687C219.051 433.03 218.744 432.162 218.744 431.082C218.744 429.906 219.065 428.988 219.708 428.327C220.35 427.666 221.218 427.336 222.312 427.336C223.356 427.336 224.169 427.657 224.752 428.3C225.34 428.942 225.634 429.833 225.634 430.973C225.634 432.089 225.318 432.985 224.684 433.659C224.055 434.329 223.21 434.664 222.148 434.664ZM222.23 428.279C221.51 428.279 220.94 428.525 220.521 429.018C220.102 429.505 219.892 430.18 219.892 431.041C219.892 431.87 220.104 432.524 220.528 433.003C220.952 433.481 221.519 433.721 222.23 433.721C222.955 433.721 223.511 433.486 223.898 433.017C224.29 432.547 224.486 431.88 224.486 431.014C224.486 430.139 224.29 429.464 223.898 428.99C223.511 428.516 222.955 428.279 222.23 428.279ZM233.236 434.5H232.115V430.508C232.115 429.022 231.572 428.279 230.488 428.279C229.927 428.279 229.462 428.491 229.093 428.915C228.729 429.334 228.546 429.865 228.546 430.508V434.5H227.425V427.5H228.546V428.662H228.574C229.102 427.778 229.868 427.336 230.871 427.336C231.636 427.336 232.222 427.584 232.627 428.081C233.033 428.573 233.236 429.286 233.236 430.221V434.5ZM238.602 434.432C238.338 434.577 237.989 434.65 237.556 434.65C236.33 434.65 235.717 433.967 235.717 432.6V428.457H234.514V427.5H235.717V425.791L236.838 425.429V427.5H238.602V428.457H236.838V432.401C236.838 432.871 236.918 433.206 237.078 433.406C237.237 433.607 237.501 433.707 237.871 433.707C238.153 433.707 238.397 433.63 238.602 433.475V434.432ZM245.11 434.5H243.989V433.406H243.961C243.474 434.245 242.756 434.664 241.808 434.664C241.111 434.664 240.564 434.479 240.167 434.11C239.776 433.741 239.58 433.251 239.58 432.641C239.58 431.333 240.35 430.572 241.89 430.357L243.989 430.063C243.989 428.874 243.508 428.279 242.546 428.279C241.703 428.279 240.942 428.566 240.263 429.141V427.992C240.951 427.555 241.744 427.336 242.642 427.336C244.287 427.336 245.11 428.206 245.11 429.947V434.5ZM243.989 430.959L242.3 431.191C241.781 431.264 241.389 431.394 241.125 431.581C240.86 431.763 240.728 432.089 240.728 432.559C240.728 432.9 240.849 433.181 241.09 433.399C241.336 433.614 241.662 433.721 242.068 433.721C242.624 433.721 243.082 433.527 243.442 433.14C243.806 432.748 243.989 432.253 243.989 431.656V430.959ZM248.377 431.779C248.336 431.661 248.3 431.508 248.268 431.321C248.236 431.13 248.22 430.941 248.22 430.754C248.22 430.462 248.277 430.2 248.391 429.968C248.51 429.731 248.655 429.51 248.829 429.305C249.002 429.1 249.191 428.904 249.396 428.717C249.601 428.525 249.79 428.334 249.963 428.143C250.137 427.947 250.28 427.744 250.394 427.534C250.513 427.32 250.572 427.085 250.572 426.83C250.572 426.611 250.528 426.418 250.442 426.249C250.36 426.08 250.246 425.939 250.1 425.825C249.954 425.711 249.786 425.627 249.594 425.572C249.403 425.513 249.2 425.483 248.986 425.483C248.216 425.483 247.548 425.786 246.983 426.393V425.189C247.68 424.752 248.403 424.533 249.15 424.533C249.496 424.533 249.822 424.579 250.127 424.67C250.433 424.761 250.699 424.898 250.927 425.08C251.16 425.258 251.342 425.481 251.474 425.75C251.606 426.019 251.672 426.331 251.672 426.687C251.672 427.024 251.613 427.325 251.495 427.589C251.376 427.853 251.226 428.097 251.043 428.32C250.866 428.539 250.672 428.744 250.462 428.936C250.253 429.127 250.057 429.318 249.875 429.51C249.697 429.697 249.549 429.893 249.43 430.098C249.312 430.303 249.252 430.528 249.252 430.774C249.252 430.984 249.278 431.175 249.328 431.349C249.378 431.517 249.428 431.661 249.478 431.779H248.377ZM248.993 434.623C248.792 434.623 248.614 434.55 248.459 434.404C248.309 434.258 248.234 434.081 248.234 433.871C248.234 433.657 248.309 433.479 248.459 433.338C248.61 433.188 248.788 433.112 248.993 433.112C249.198 433.112 249.375 433.188 249.526 433.338C249.676 433.479 249.751 433.657 249.751 433.871C249.751 434.081 249.676 434.258 249.526 434.404C249.371 434.55 249.193 434.623 248.993 434.623Z" fill="#1D1D1D" fill-opacity="0.6"/>
</svg>
