<svg width="1438" height="961" viewBox="0 0 1438 961" fill="none" xmlns="http://www.w3.org/2000/svg">
<path d="M474.339 232.75C472.239 235.783 470.372 238.7 468.739 241.5C467.339 244.067 466.056 246.633 464.889 249.2C460.689 256.433 456.722 263.9 452.989 271.6C449.256 279.067 445.522 286.767 441.789 294.7C438.756 300.767 435.839 306.95 433.039 313.25C430.239 319.55 427.322 325.967 424.289 332.5C421.956 338.333 417.406 341.483 410.639 341.95C407.606 342.183 404.806 341.6 402.239 340.2C399.906 338.8 397.806 336.817 395.939 334.25C393.606 330.517 391.856 326.317 390.689 321.65C387.889 311.85 384.856 302.167 381.589 292.6C378.556 283.033 375.989 273.467 373.889 263.9C373.656 261.8 372.606 259.7 370.739 257.6C370.739 261.333 370.389 264.833 369.689 268.1C369.222 279.767 368.639 291.55 367.939 303.45C367.472 315.35 367.006 327.133 366.539 338.8C366.072 347.433 365.256 356.067 364.089 364.7C363.156 373.333 362.106 382.083 360.939 390.95C360.706 393.75 360.356 396.55 359.889 399.35C359.656 401.917 359.306 404.717 358.839 407.75C358.606 409.383 358.022 411.017 357.089 412.65C356.156 414.05 354.639 414.983 352.539 415.45C350.672 416.383 348.689 416.5 346.589 415.8C344.722 414.867 343.206 413.35 342.039 411.25C341.106 410.083 340.406 408.8 339.939 407.4C339.706 405.767 339.356 404.133 338.889 402.5C337.256 392.467 335.856 382.317 334.689 372.05C333.756 361.783 333.406 351.633 333.639 341.6C334.106 318.967 335.156 296.683 336.789 274.75C337.489 267.283 338.072 259.817 338.539 252.35C339.006 244.883 339.472 237.3 339.939 229.6C340.406 223.533 340.989 217.467 341.689 211.4C342.622 205.1 343.906 198.917 345.539 192.85C346.006 190.983 346.472 189.233 346.939 187.6C347.639 185.733 348.456 183.983 349.389 182.35C353.822 175.35 359.889 172.9 367.589 175C372.956 176.4 377.039 178.733 379.839 182C382.639 185.267 384.856 189.233 386.489 193.9C391.156 206.5 395.239 219.333 398.739 232.4C402.472 245.233 406.322 258.183 410.289 271.25C410.989 274.05 411.806 276.967 412.739 280C413.672 283.033 414.606 286.067 415.539 289.1C417.172 288.633 418.106 287.817 418.339 286.65C418.806 285.25 419.272 284.083 419.739 283.15C425.106 274.517 429.889 265.65 434.089 256.55C438.289 247.45 442.956 238.467 448.089 229.6C451.356 223.533 454.856 217.583 458.589 211.75C462.322 205.683 466.172 199.733 470.139 193.9C470.839 192.733 471.539 191.45 472.239 190.05C473.172 188.417 473.872 186.9 474.339 185.5C475.039 182.233 476.672 179.55 479.239 177.45C482.039 175.35 484.956 174.183 487.989 173.95C491.256 173.717 494.289 174.417 497.089 176.05C500.122 177.683 502.339 180.017 503.739 183.05C504.906 184.683 505.606 186.667 505.839 189C506.306 191.333 506.656 193.55 506.889 195.65C507.356 201.483 507.589 207.55 507.589 213.85C507.822 220.15 508.056 226.45 508.289 232.75C508.289 247.917 507.939 263.083 507.239 278.25C506.772 293.417 505.956 308.583 504.789 323.75C504.322 328.883 504.089 334.25 504.089 339.85C504.089 345.217 503.972 350.7 503.739 356.3C503.272 367.5 502.922 378.817 502.689 390.25C502.689 401.45 502.689 412.65 502.689 423.85C502.689 428.983 500.589 432.133 496.389 433.3C491.722 434.233 488.339 432.483 486.239 428.05C484.372 424.083 483.206 419.767 482.739 415.1C481.806 409.733 481.222 404.367 480.989 399C480.756 393.4 480.406 388.033 479.939 382.9C479.239 373.333 478.772 363.65 478.539 353.85C478.306 344.05 477.722 334.367 476.789 324.8C475.622 310.333 474.922 295.867 474.689 281.4C474.456 266.933 474.456 252.467 474.689 238C474.689 237.533 474.689 236.95 474.689 236.25C474.689 235.55 474.572 234.383 474.339 232.75ZM534.957 378.35C534.957 367.383 536.474 356.883 539.507 346.85C542.774 336.583 546.974 326.55 552.107 316.75C554.674 312.083 557.707 307.65 561.207 303.45C564.707 299.25 568.674 295.633 573.107 292.6C579.174 288.4 585.474 285.95 592.007 285.25C599.007 284.783 605.307 286.3 610.907 289.8C616.507 293.3 620.824 298.083 623.857 304.15C626.891 309.983 627.824 316.633 626.657 324.1C626.424 326.2 625.957 328.417 625.257 330.75C624.557 333.083 623.624 335.3 622.457 337.4C619.424 343.233 615.807 348.833 611.607 354.2C607.641 359.333 602.741 363.883 596.907 367.85C593.174 370.417 589.207 372.633 585.007 374.5C581.041 376.133 576.724 376.833 572.057 376.6C570.424 376.6 569.374 376.833 568.907 377.3C568.674 377.767 568.557 378.817 568.557 380.45C568.324 384.183 568.557 387.917 569.257 391.65C569.957 395.383 570.891 399.117 572.057 402.85C573.457 405.883 574.741 407.633 575.907 408.1C577.074 408.567 579.174 407.867 582.207 406C586.641 403.667 590.607 400.517 594.107 396.55C596.207 394.683 598.307 393.05 600.407 391.65C602.507 390.017 604.607 388.383 606.707 386.75C607.641 385.817 609.041 384.883 610.907 383.95C614.407 382.783 617.324 383.133 619.657 385C622.224 386.633 623.507 389.317 623.507 393.05C623.507 394.683 623.391 396.317 623.157 397.95C622.924 399.583 622.574 401.217 622.107 402.85C619.074 411.717 614.757 419.417 609.157 425.95C603.557 432.483 595.974 437.267 586.407 440.3C573.107 443.8 561.557 440.65 551.757 430.85C546.624 425.717 543.007 420 540.907 413.7C538.807 407.4 537.174 400.867 536.007 394.1C535.774 391.533 535.541 388.967 535.307 386.4C535.307 383.6 535.191 380.917 534.957 378.35ZM600.407 320.6C600.407 318.967 600.291 317.567 600.057 316.4C599.824 315 599.124 314.067 597.957 313.6C596.324 312.667 594.224 313.25 591.657 315.35C590.724 315.817 589.907 316.4 589.207 317.1C588.507 317.8 587.691 318.617 586.757 319.55C583.724 323.283 581.157 327.367 579.057 331.8C577.191 336.233 575.441 340.667 573.807 345.1C572.641 346.733 572.757 348.017 574.157 348.95C574.624 349.417 575.207 349.65 575.907 349.65C576.841 349.417 577.541 349.183 578.007 348.95C588.507 343.117 595.857 334.483 600.057 323.05C600.291 322.583 600.407 322.117 600.407 321.65C600.407 320.95 600.407 320.6 600.407 320.6ZM722.861 348.25C718.661 351.983 715.627 355.833 713.761 359.8C708.861 368.433 704.894 377.533 701.861 387.1C698.827 396.667 696.494 406.467 694.861 416.5C694.627 418.833 694.161 421.167 693.461 423.5C692.761 425.833 691.827 427.933 690.661 429.8C687.161 435.633 682.494 438.2 676.661 437.5C673.627 437.5 671.061 436.683 668.961 435.05C666.861 433.417 664.994 431.317 663.361 428.75C662.427 426.65 661.727 424.433 661.261 422.1C661.027 419.767 660.677 417.433 660.211 415.1C659.044 405.767 657.761 396.433 656.361 387.1C655.194 377.533 654.377 368.083 653.911 358.75C653.444 352.45 653.444 346.15 653.911 339.85C654.377 333.55 655.077 327.25 656.011 320.95C656.011 319.783 656.244 318.733 656.711 317.8C657.177 316.633 657.527 315.583 657.761 314.65C659.861 308.817 663.711 306.25 669.311 306.95C671.644 307.183 673.744 308.233 675.611 310.1C677.477 311.967 678.527 314.183 678.761 316.75C679.461 322.35 680.044 327.833 680.511 333.2C681.211 338.567 682.027 343.933 682.961 349.3C683.194 350.233 683.311 351.4 683.311 352.8C683.311 353.967 683.661 355.133 684.361 356.3C685.527 355.833 686.227 355.25 686.461 354.55C686.694 353.617 686.927 352.8 687.161 352.1C689.494 347.433 691.827 342.883 694.161 338.45C696.494 333.783 699.177 329.583 702.211 325.85C703.611 323.983 705.011 322.233 706.411 320.6C707.811 318.733 709.444 317.1 711.311 315.7C717.377 310.8 723.911 308.933 730.911 310.1C737.911 311.033 743.627 314.883 748.061 321.65C750.161 325.383 751.794 329.35 752.961 333.55C754.127 337.517 754.944 341.6 755.411 345.8C756.577 352.8 757.511 359.917 758.211 367.15C759.144 374.15 760.077 381.15 761.011 388.15C761.477 392.35 762.061 396.55 762.761 400.75C763.694 404.717 764.394 408.8 764.861 413C765.327 414.633 765.911 416.033 766.611 417.2C767.311 418.367 768.477 419.533 770.111 420.7C775.011 423.267 776.527 427.35 774.661 432.95C772.561 438.783 768.944 442.4 763.811 443.8C758.677 445.2 753.777 444.033 749.111 440.3C747.011 438.433 745.261 436.45 743.861 434.35C742.461 432.25 741.177 430.033 740.011 427.7C736.277 420.933 733.477 414.05 731.611 407.05C729.744 400.05 728.344 392.7 727.411 385C726.711 379.633 726.127 374.15 725.661 368.55C725.194 362.95 724.377 357.467 723.211 352.1C723.211 351.633 723.094 351.167 722.861 350.7C722.861 350 722.861 349.183 722.861 348.25ZM829.909 425.6C835.275 421.633 839.475 417.433 842.509 413C846.709 407.167 850.792 401.217 854.759 395.15C858.959 389.083 862.575 382.783 865.609 376.25C865.842 375.317 866.075 374.617 866.309 374.15C866.542 373.45 866.659 372.75 866.659 372.05C866.892 367.15 869.692 364.117 875.059 362.95C880.425 362.483 884.392 364.467 886.959 368.9C888.359 370.533 889.175 372.283 889.409 374.15C889.875 375.783 890.109 377.65 890.109 379.75C889.175 392.117 885.909 404.017 880.309 415.45C873.309 429.217 863.975 440.65 852.309 449.75C849.742 451.85 847.059 453.6 844.259 455C841.692 456.633 838.775 457.8 835.509 458.5C829.675 459.9 823.842 459.317 818.009 456.75C812.175 454.417 807.509 450.683 804.009 445.55C801.909 442.05 800.042 438.433 798.409 434.7C796.775 430.733 795.375 426.767 794.209 422.8C791.175 414.167 788.959 405.3 787.559 396.2C786.159 387.1 784.875 378 783.709 368.9C781.842 355.833 780.442 342.533 779.509 329C778.342 315.467 777.759 301.933 777.759 288.4C777.759 285.833 777.525 284.317 777.059 283.85C776.592 283.383 774.959 283.383 772.159 283.85C769.125 284.55 766.092 285.367 763.059 286.3C759.792 287 756.525 287.583 753.259 288.05C749.292 288.983 745.092 288.4 740.659 286.3C736.459 283.733 734.125 280.233 733.659 275.8C733.192 271.133 734.592 267.167 737.859 263.9C741.125 261.1 744.625 259.117 748.359 257.95C752.559 256.783 756.759 255.617 760.959 254.45C764.925 253.283 769.009 252.233 773.209 251.3C776.009 250.833 777.759 250.367 778.459 249.9C778.925 249.2 779.275 247.333 779.509 244.3C779.742 236.367 780.442 228.55 781.609 220.85C782.542 212.917 784.059 204.983 786.159 197.05C787.092 194.25 787.909 191.45 788.609 188.65C789.542 185.617 790.825 182.817 792.459 180.25C793.859 178.383 795.259 176.75 796.659 175.35C798.059 173.717 799.692 172.433 801.559 171.5C805.992 168.467 810.892 168.233 816.259 170.8C818.592 172.433 819.992 174.417 820.459 176.75C821.159 179.083 821.275 181.533 820.809 184.1C820.342 189.233 819.409 194.367 818.009 199.5C816.609 204.4 815.675 209.533 815.209 214.9C814.742 219.333 814.159 223.767 813.459 228.2C812.992 232.633 812.525 237.183 812.059 241.85C812.059 243.95 812.175 245.233 812.409 245.7C812.875 245.933 814.275 246.05 816.609 246.05C821.275 246.05 825.709 245.933 829.909 245.7C834.109 245.467 838.425 245.35 842.859 245.35C850.792 245.35 857.442 248.383 862.809 254.45C864.209 255.617 865.259 257.017 865.959 258.65C866.892 260.05 867.475 261.567 867.709 263.2C868.175 267.167 866.892 270.667 863.859 273.7C860.825 276.5 857.675 277.2 854.409 275.8C853.942 275.8 853.359 275.8 852.659 275.8C852.192 275.567 851.609 275.567 850.909 275.8C845.775 277.667 840.525 278.483 835.159 278.25C830.025 278.017 824.775 278.25 819.409 278.95H814.509C811.709 278.95 810.309 280.35 810.309 283.15C810.775 287.583 811.009 292.017 811.009 296.45C811.009 300.65 811.125 304.967 811.359 309.4C811.825 320.833 812.642 332.267 813.809 343.7C814.975 355.133 816.492 366.45 818.359 377.65C819.059 383.483 819.875 389.317 820.809 395.15C821.975 400.75 823.375 406.467 825.009 412.3C825.475 414.4 826.175 416.5 827.109 418.6C828.042 420.7 828.975 423.033 829.909 425.6ZM916.744 378.35C916.744 367.383 918.261 356.883 921.294 346.85C924.561 336.583 928.761 326.55 933.894 316.75C936.461 312.083 939.494 307.65 942.994 303.45C946.494 299.25 950.461 295.633 954.894 292.6C960.961 288.4 967.261 285.95 973.794 285.25C980.794 284.783 987.094 286.3 992.694 289.8C998.294 293.3 1002.61 298.083 1005.64 304.15C1008.68 309.983 1009.61 316.633 1008.44 324.1C1008.21 326.2 1007.74 328.417 1007.04 330.75C1006.34 333.083 1005.41 335.3 1004.24 337.4C1001.21 343.233 997.594 348.833 993.394 354.2C989.428 359.333 984.528 363.883 978.694 367.85C974.961 370.417 970.994 372.633 966.794 374.5C962.828 376.133 958.511 376.833 953.844 376.6C952.211 376.6 951.161 376.833 950.694 377.3C950.461 377.767 950.344 378.817 950.344 380.45C950.111 384.183 950.344 387.917 951.044 391.65C951.744 395.383 952.678 399.117 953.844 402.85C955.244 405.883 956.528 407.633 957.694 408.1C958.861 408.567 960.961 407.867 963.994 406C968.428 403.667 972.394 400.517 975.894 396.55C977.994 394.683 980.094 393.05 982.194 391.65C984.294 390.017 986.394 388.383 988.494 386.75C989.428 385.817 990.828 384.883 992.694 383.95C996.194 382.783 999.111 383.133 1001.44 385C1004.01 386.633 1005.29 389.317 1005.29 393.05C1005.29 394.683 1005.18 396.317 1004.94 397.95C1004.71 399.583 1004.36 401.217 1003.89 402.85C1000.86 411.717 996.544 419.417 990.944 425.95C985.344 432.483 977.761 437.267 968.194 440.3C954.894 443.8 943.344 440.65 933.544 430.85C928.411 425.717 924.794 420 922.694 413.7C920.594 407.4 918.961 400.867 917.794 394.1C917.561 391.533 917.328 388.967 917.094 386.4C917.094 383.6 916.978 380.917 916.744 378.35ZM982.194 320.6C982.194 318.967 982.078 317.567 981.844 316.4C981.611 315 980.911 314.067 979.744 313.6C978.111 312.667 976.011 313.25 973.444 315.35C972.511 315.817 971.694 316.4 970.994 317.1C970.294 317.8 969.478 318.617 968.544 319.55C965.511 323.283 962.944 327.367 960.844 331.8C958.978 336.233 957.228 340.667 955.594 345.1C954.428 346.733 954.544 348.017 955.944 348.95C956.411 349.417 956.994 349.65 957.694 349.65C958.628 349.417 959.328 349.183 959.794 348.95C970.294 343.117 977.644 334.483 981.844 323.05C982.078 322.583 982.194 322.117 982.194 321.65C982.194 320.95 982.194 320.6 982.194 320.6ZM430.734 646.65C430.5 636.617 430.267 626 430.034 614.8C429.8 603.6 429.684 592.4 429.684 581.2C429.684 569.767 429.567 558.567 429.334 547.6C429.334 536.4 429.45 525.2 429.684 514C429.684 508.167 429.684 502.45 429.684 496.85C429.917 491.25 430.267 485.533 430.734 479.7C431.2 475.733 431.9 472.233 432.834 469.2C433.3 467.567 433.884 466.167 434.584 465C435.284 463.6 436.217 462.2 437.384 460.8C440.65 457.533 444.384 456.25 448.584 456.95C452.784 457.65 456.05 459.983 458.384 463.95C459.784 465.817 460.717 467.917 461.184 470.25C461.65 472.35 462 474.683 462.234 477.25C462.7 490.317 462.817 503.383 462.584 516.45C462.35 529.283 461.884 542.233 461.184 555.3C461.184 556.7 461.067 558.1 460.834 559.5C460.6 560.667 460.484 561.95 460.484 563.35C460.017 586.683 459.317 609.9 458.384 633C458.15 650.267 458.15 667.767 458.384 685.5C458.384 689.933 458.85 692.5 459.784 693.2C460.717 693.9 463.284 693.783 467.484 692.85C474.484 691.217 481.367 689.583 488.134 687.95C495.134 686.317 502.25 685.033 509.484 684.1C516.484 682.933 523.484 682 530.484 681.3C537.717 680.6 544.717 680.483 551.484 680.95H574.934C577.034 680.95 579.017 681.067 580.884 681.3C582.984 681.533 584.85 682.233 586.484 683.4C589.05 684.333 590.8 685.967 591.734 688.3C592.667 690.633 592.9 692.85 592.434 694.95C592.2 696.817 591.267 698.45 589.634 699.85C588.234 701.017 586.834 701.133 585.434 700.2C581.7 698.333 578.2 697.867 574.934 698.8C571.667 699.733 568.4 700.433 565.134 700.9C561.634 701.367 558.134 702.183 554.634 703.35C551.367 704.517 547.984 705.8 544.484 707.2C533.984 710.933 523.25 714.083 512.284 716.65C501.317 718.983 490.35 721.433 479.384 724C475.184 724.7 471.1 725.517 467.134 726.45C463.167 727.383 459.084 728.433 454.884 729.6C451.617 730.3 448.817 730.533 446.484 730.3C440.884 729.833 436.567 727.85 433.534 724.35C430.734 720.85 429.45 716.533 429.684 711.4C429.917 705.333 430.15 699.383 430.384 693.55C430.85 687.483 430.967 681.533 430.734 675.7V646.65ZM629.785 558.1C623.019 561.133 617.185 560.2 612.285 555.3C610.652 553.433 609.602 550.983 609.135 547.95C608.669 544.917 609.019 542 610.185 539.2C611.585 536.167 613.919 533.717 617.185 531.85C620.452 529.75 623.719 528.7 626.985 528.7C633.752 528.7 638.302 531.85 640.635 538.15C641.802 540.95 641.919 543.867 640.985 546.9C640.285 549.7 638.652 552.15 636.085 554.25C635.152 555.183 634.102 556 632.935 556.7C632.002 557.167 630.952 557.633 629.785 558.1ZM643.785 703.35C644.719 708.25 643.202 711.75 639.235 713.85C635.035 715.95 630.835 715.483 626.635 712.45C624.769 710.817 623.369 708.95 622.435 706.85C621.502 704.75 620.569 702.533 619.635 700.2C618.935 696.933 618.235 693.55 617.535 690.05C617.069 686.55 616.602 683.167 616.135 679.9C614.735 668.233 613.569 656.567 612.635 644.9C611.935 633 612.052 621.217 612.985 609.55C613.219 606.983 613.569 604.417 614.035 601.85C614.502 599.05 615.552 596.483 617.185 594.15C618.352 591.817 619.869 589.95 621.735 588.55C623.835 587.15 626.285 586.45 629.085 586.45C634.452 586.683 638.302 589.483 640.635 594.85C642.735 599.05 643.785 603.6 643.785 608.5V656.8C643.552 659.6 643.319 662.983 643.085 666.95C642.852 670.917 642.735 675.233 642.735 679.9C642.735 683.633 642.735 687.483 642.735 691.45C642.969 695.417 643.319 699.383 643.785 703.35ZM712.651 682C713.817 678.967 714.751 676.283 715.451 673.95C716.151 671.383 716.734 668.933 717.201 666.6C719.767 657.967 722.101 649.217 724.201 640.35C726.301 631.483 728.517 622.617 730.851 613.75C731.784 609.317 733.417 604.767 735.751 600.1C737.384 595.9 739.717 592.283 742.751 589.25C746.017 586.217 749.634 583.65 753.601 581.55C758.501 579.217 762.701 579.8 766.201 583.3C769.467 586.567 769.584 590.183 766.551 594.15C765.617 596.017 765.034 598 764.801 600.1C764.567 601.967 764.334 603.833 764.101 605.7C762.467 613.867 760.484 621.917 758.151 629.85C756.051 637.783 754.184 645.833 752.551 654C750.917 661.933 749.284 669.75 747.651 677.45C746.017 685.15 743.917 692.967 741.351 700.9C740.417 704.633 739.367 708.25 738.201 711.75C737.034 715.017 735.634 718.517 734.001 722.25C733.301 723.883 732.484 725.517 731.551 727.15C730.617 728.55 729.567 729.95 728.401 731.35C723.967 736.483 718.717 739.05 712.651 739.05C706.584 739.05 701.334 736.483 696.901 731.35C694.567 728.783 692.701 725.983 691.301 722.95C689.901 719.683 688.617 716.3 687.451 712.8C683.484 701.833 680.451 690.633 678.351 679.2C676.251 667.533 674.501 655.983 673.101 644.55C672.401 639.65 671.817 634.75 671.351 629.85C671.117 624.717 670.884 619.7 670.651 614.8C670.651 611.533 670.767 608.383 671.001 605.35C671.467 602.083 672.167 598.933 673.101 595.9C673.801 593.567 674.851 591.233 676.251 588.9C679.517 584.933 683.134 583.067 687.101 583.3C691.301 583.533 694.567 585.983 696.901 590.65C698.067 593.217 699.001 595.9 699.701 598.7C700.401 601.5 700.867 604.417 701.101 607.45C702.267 618.417 703.551 629.5 704.951 640.7C706.584 651.667 708.451 662.633 710.551 673.6C710.784 674.767 711.017 676.05 711.251 677.45C711.717 678.617 712.184 680.133 712.651 682ZM818.703 616.9C820.337 615.733 821.387 614.567 821.853 613.4C822.32 612 822.787 610.833 823.253 609.9C825.353 605.933 827.803 602.2 830.603 598.7C833.403 594.967 836.787 591.933 840.753 589.6C846.12 586.333 851.37 584.467 856.503 584C861.87 583.3 867.237 584.583 872.603 587.85C876.57 589.95 879.487 593.1 881.353 597.3C883.453 601.5 884.037 605.7 883.103 609.9C882.403 614.333 880.537 617.25 877.503 618.65C874.47 620.05 870.97 619.583 867.003 617.25C864.903 616.083 863.153 615.5 861.753 615.5C860.353 615.5 858.72 616.433 856.853 618.3C855.92 619.233 854.987 620.4 854.053 621.8C853.353 623.2 852.537 624.483 851.603 625.65C849.97 629.383 848.57 633.117 847.403 636.85C846.237 640.35 845.07 643.967 843.903 647.7C841.803 654.933 839.82 662.283 837.953 669.75C836.32 676.983 834.92 684.333 833.753 691.8C833.287 696.467 832.82 701.133 832.353 705.8C831.887 710.467 831.653 715.133 831.653 719.8C831.653 721.433 831.537 723.183 831.303 725.05C831.303 726.917 830.953 728.783 830.253 730.65C827.92 737.65 823.137 741.15 815.903 741.15C808.67 741.85 803.42 738.933 800.153 732.4C799.22 730.533 798.52 728.55 798.053 726.45C797.82 724.35 797.47 722.483 797.003 720.85C795.37 711.05 793.97 701.367 792.803 691.8C791.637 682 790.47 672.2 789.303 662.4C788.37 652.833 787.787 643.15 787.553 633.35C787.32 623.317 787.32 613.283 787.553 603.25C787.553 596.717 790.003 591.933 794.903 588.9C799.103 586.333 803.42 585.983 807.853 587.85C812.287 589.483 815.203 592.633 816.603 597.3C818.003 601.033 818.703 604.767 818.703 608.5C818.47 609.667 818.353 610.95 818.353 612.35C818.587 613.75 818.703 615.267 818.703 616.9ZM899.313 668.35C899.313 657.383 900.829 646.883 903.863 636.85C907.129 626.583 911.329 616.55 916.463 606.75C919.029 602.083 922.063 597.65 925.563 593.45C929.063 589.25 933.029 585.633 937.463 582.6C943.529 578.4 949.829 575.95 956.363 575.25C963.363 574.783 969.663 576.3 975.263 579.8C980.863 583.3 985.179 588.083 988.213 594.15C991.246 599.983 992.179 606.633 991.013 614.1C990.779 616.2 990.313 618.417 989.613 620.75C988.913 623.083 987.979 625.3 986.813 627.4C983.779 633.233 980.163 638.833 975.963 644.2C971.996 649.333 967.096 653.883 961.263 657.85C957.529 660.417 953.563 662.633 949.363 664.5C945.396 666.133 941.079 666.833 936.413 666.6C934.779 666.6 933.729 666.833 933.263 667.3C933.029 667.767 932.913 668.817 932.913 670.45C932.679 674.183 932.913 677.917 933.613 681.65C934.313 685.383 935.246 689.117 936.413 692.85C937.813 695.883 939.096 697.633 940.263 698.1C941.429 698.567 943.529 697.867 946.563 696C950.996 693.667 954.963 690.517 958.463 686.55C960.563 684.683 962.663 683.05 964.763 681.65C966.863 680.017 968.963 678.383 971.063 676.75C971.996 675.817 973.396 674.883 975.263 673.95C978.763 672.783 981.679 673.133 984.013 675C986.579 676.633 987.863 679.317 987.863 683.05C987.863 684.683 987.746 686.317 987.513 687.95C987.279 689.583 986.929 691.217 986.463 692.85C983.429 701.717 979.113 709.417 973.513 715.95C967.913 722.483 960.329 727.267 950.763 730.3C937.463 733.8 925.913 730.65 916.113 720.85C910.979 715.717 907.363 710 905.263 703.7C903.163 697.4 901.529 690.867 900.363 684.1C900.129 681.533 899.896 678.967 899.663 676.4C899.663 673.6 899.546 670.917 899.313 668.35ZM964.763 610.6C964.763 608.967 964.646 607.567 964.413 606.4C964.179 605 963.479 604.067 962.313 603.6C960.679 602.667 958.579 603.25 956.013 605.35C955.079 605.817 954.263 606.4 953.563 607.1C952.863 607.8 952.046 608.617 951.113 609.55C948.079 613.283 945.513 617.367 943.413 621.8C941.546 626.233 939.796 630.667 938.163 635.1C936.996 636.733 937.113 638.017 938.513 638.95C938.979 639.417 939.563 639.65 940.263 639.65C941.196 639.417 941.896 639.183 942.363 638.95C952.863 633.117 960.213 624.483 964.413 613.05C964.646 612.583 964.763 612.117 964.763 611.65C964.763 610.95 964.763 610.6 964.763 610.6Z" fill="#0E2234"/>
<path d="M650.884 809.025C651.934 809.2 652.926 809.375 653.859 809.55C654.793 809.667 655.726 809.871 656.659 810.162C657.826 810.571 658.963 811.037 660.072 811.562C661.238 812.087 662.288 812.817 663.222 813.75C666.08 816.958 667.159 820.662 666.459 824.862C665.643 829.879 663.513 834.167 660.072 837.725C656.863 841.108 653.276 843.587 649.309 845.162C645.343 846.737 641.055 847.642 636.447 847.875C634.58 847.875 633.034 847.292 631.809 846.125C630.701 845.075 630.234 843.762 630.409 842.187C630.526 841.196 630.993 840.525 631.809 840.175C632.626 839.825 633.413 839.971 634.172 840.612C634.93 841.196 635.63 841.4 636.272 841.225C636.972 841.05 637.672 840.846 638.372 840.612C638.605 840.554 638.693 840.437 638.634 840.262C638.634 840.087 638.605 839.942 638.547 839.825C638.313 836.792 637.788 833.846 636.972 830.987C636.213 828.129 635.63 825.212 635.222 822.237C634.813 819.204 634.376 816.2 633.909 813.225C633.501 810.192 633.209 807.158 633.034 804.125C632.918 802.492 632.801 800.887 632.684 799.312C632.568 797.737 632.451 796.162 632.334 794.587C632.334 794.121 632.363 793.683 632.422 793.275C632.48 792.867 632.509 792.458 632.509 792.05C632.568 791.233 632.655 790.475 632.772 789.775C632.888 789.075 632.83 788.346 632.597 787.587C632.48 786.771 632.568 785.983 632.859 785.225C633.151 784.467 633.559 783.825 634.084 783.3C636.301 780.967 638.722 779.333 641.347 778.4C644.03 777.408 646.976 777.321 650.184 778.137C652.401 778.721 654.297 779.946 655.872 781.812C657.447 783.621 658.351 785.692 658.584 788.025C658.818 789.483 658.788 790.912 658.497 792.312C658.263 793.654 657.913 795.025 657.447 796.425C656.863 798.233 656.105 800.012 655.172 801.762C654.238 803.454 653.276 805.117 652.284 806.75C652.051 807.1 651.818 807.479 651.584 807.887C651.409 808.237 651.176 808.617 650.884 809.025ZM641.697 807.275C642.105 807.1 642.368 806.867 642.484 806.575C642.601 806.225 642.776 805.933 643.009 805.7C644.176 804.183 645.255 802.608 646.247 800.975C647.238 799.283 648.113 797.533 648.872 795.725C649.28 794.792 649.63 793.858 649.922 792.925C650.272 791.933 650.447 790.942 650.447 789.95C650.447 787.325 649.193 785.925 646.684 785.75C645.693 785.75 644.73 785.896 643.797 786.187C642.863 786.479 641.988 786.858 641.172 787.325C641.113 787.383 640.997 787.471 640.822 787.587C640.705 787.646 640.676 787.792 640.734 788.025C641.201 788.842 641.026 789.629 640.209 790.387C640.093 790.504 640.034 790.708 640.034 791C640.093 791.233 640.151 791.467 640.209 791.7C640.326 792.983 640.443 794.296 640.559 795.637C640.676 796.921 640.793 798.175 640.909 799.4C640.968 800.683 641.055 801.996 641.172 803.337C641.288 804.621 641.463 805.933 641.697 807.275ZM643.622 838.775C644.263 838.483 644.847 838.221 645.372 837.987C645.955 837.696 646.509 837.433 647.034 837.2C649.076 836.208 650.913 835.042 652.547 833.7C654.238 832.3 655.609 830.579 656.659 828.537C657.301 827.371 657.797 826.146 658.147 824.862C658.497 823.521 658.613 822.179 658.497 820.837C658.438 819.787 658.176 819 657.709 818.475C657.243 817.892 656.484 817.454 655.434 817.162C654.501 816.871 653.538 816.754 652.547 816.812C651.555 816.812 650.593 816.871 649.659 816.987C648.493 817.046 647.326 817.25 646.159 817.6C645.051 817.95 643.913 818.183 642.747 818.3C642.397 818.3 642.222 818.417 642.222 818.65C642.222 818.825 642.222 819.058 642.222 819.35C642.397 821.158 642.513 822.996 642.572 824.862C642.688 826.671 642.776 828.508 642.834 830.375C642.951 831.658 643.038 833 643.097 834.4C643.213 835.8 643.388 837.258 643.622 838.775ZM681.094 818.475C681.503 818.183 681.765 817.892 681.882 817.6C681.998 817.25 682.115 816.958 682.232 816.725C682.757 815.733 683.369 814.8 684.069 813.925C684.769 812.992 685.615 812.233 686.607 811.65C687.948 810.833 689.261 810.367 690.544 810.25C691.886 810.075 693.228 810.396 694.569 811.212C695.561 811.737 696.29 812.525 696.757 813.575C697.282 814.625 697.428 815.675 697.194 816.725C697.019 817.833 696.553 818.562 695.794 818.912C695.036 819.262 694.161 819.146 693.169 818.562C692.644 818.271 692.207 818.125 691.857 818.125C691.507 818.125 691.098 818.358 690.632 818.825C690.398 819.058 690.165 819.35 689.932 819.7C689.757 820.05 689.553 820.371 689.319 820.662C688.911 821.596 688.561 822.529 688.269 823.462C687.978 824.337 687.686 825.242 687.394 826.175C686.869 827.983 686.373 829.821 685.907 831.687C685.498 833.496 685.148 835.333 684.857 837.2C684.74 838.367 684.623 839.533 684.507 840.7C684.39 841.867 684.332 843.033 684.332 844.2C684.332 844.608 684.303 845.046 684.244 845.512C684.244 845.979 684.157 846.446 683.982 846.912C683.398 848.663 682.203 849.538 680.394 849.538C678.586 849.713 677.273 848.983 676.457 847.35C676.223 846.883 676.048 846.387 675.932 845.862C675.873 845.337 675.786 844.871 675.669 844.462C675.261 842.012 674.911 839.592 674.619 837.2C674.328 834.75 674.036 832.3 673.744 829.85C673.511 827.458 673.365 825.037 673.307 822.587C673.248 820.079 673.248 817.571 673.307 815.062C673.307 813.429 673.919 812.233 675.144 811.475C676.194 810.833 677.273 810.746 678.382 811.212C679.49 811.621 680.219 812.408 680.569 813.575C680.919 814.508 681.094 815.442 681.094 816.375C681.036 816.667 681.007 816.987 681.007 817.337C681.065 817.687 681.094 818.067 681.094 818.475ZM720.759 840.262C720.351 840.554 720.03 840.933 719.797 841.4C719.622 841.808 719.388 842.158 719.097 842.45C718.513 843.325 717.872 844.142 717.172 844.9C716.472 845.6 715.626 846.154 714.634 846.562C713.001 847.321 711.338 847.379 709.647 846.737C708.013 846.037 706.876 844.842 706.234 843.15C704.951 839.883 704.572 836.762 705.097 833.787C705.68 830.812 707.022 827.983 709.122 825.3C710.288 823.842 711.659 822.821 713.234 822.237C714.867 821.596 716.647 821.479 718.572 821.887C718.688 821.887 718.776 821.917 718.834 821.975C718.951 821.975 719.067 821.975 719.184 821.975C719.417 821.508 719.476 821.1 719.359 820.75C719.242 820.342 719.155 819.933 719.097 819.525C718.863 818.242 718.572 817.017 718.222 815.85C717.93 814.683 717.551 813.546 717.084 812.437C716.384 810.921 715.742 810.104 715.159 809.987C714.634 809.871 713.759 810.337 712.534 811.387C710.609 813.021 708.947 814.975 707.547 817.25C707.08 817.833 706.847 818.417 706.847 819C706.847 820.283 706.234 821.1 705.009 821.45C704.601 821.567 704.105 821.508 703.522 821.275C702.938 821.042 702.472 820.721 702.122 820.312C701.363 819.146 701.101 817.862 701.334 816.462C701.567 815.121 701.947 813.867 702.472 812.7C702.997 811.475 703.638 810.337 704.397 809.287C705.213 808.121 706.088 807.071 707.022 806.137C707.955 805.146 709.005 804.271 710.172 803.512C712.038 802.346 714.051 801.85 716.209 802.025C718.426 802.142 720.38 803.162 722.072 805.087C722.83 805.846 723.413 806.692 723.822 807.625C724.288 808.5 724.726 809.433 725.134 810.425C725.776 812.233 726.301 814.071 726.709 815.937C727.176 817.804 727.526 819.7 727.759 821.625C728.051 824.25 728.313 826.846 728.547 829.412C728.78 831.979 728.984 834.575 729.159 837.2C729.334 838.717 729.334 840.262 729.159 841.837C729.042 843.587 728.313 844.842 726.972 845.6C725.63 846.3 724.23 846.183 722.772 845.25C722.188 844.842 721.78 844.346 721.547 843.762C721.313 843.179 721.138 842.567 721.022 841.925C720.963 841.633 720.934 841.371 720.934 841.137C720.934 840.846 720.876 840.554 720.759 840.262ZM713.322 838.25C714.255 837.258 715.159 836.296 716.034 835.362C716.909 834.371 717.667 833.292 718.309 832.125C718.484 831.775 718.455 831.367 718.222 830.9C718.047 830.375 717.755 829.996 717.347 829.762C716.938 829.471 716.617 829.442 716.384 829.675C716.209 829.85 715.976 829.996 715.684 830.112C715.626 830.229 715.538 830.346 715.422 830.462C715.305 830.579 715.217 830.696 715.159 830.812C714.401 831.921 713.847 833.087 713.497 834.312C713.147 835.479 713.088 836.792 713.322 838.25ZM751.164 840.35C750.756 840.233 750.347 840.117 749.939 840C749.589 839.825 749.21 839.679 748.802 839.562C740.868 836.529 736.581 830.842 735.939 822.5C735.706 819.817 736.114 817.337 737.164 815.062C738.214 812.787 739.847 810.862 742.064 809.287C743.464 808.296 744.922 807.654 746.439 807.362C747.956 807.071 749.531 807.362 751.164 808.237C751.689 808.471 752.185 808.792 752.652 809.2C753.177 809.608 753.585 810.075 753.877 810.6C756.968 815.267 757.493 820.196 755.452 825.387C755.277 826.029 754.868 826.525 754.227 826.875C753.643 827.225 753.06 827.342 752.477 827.225C751.135 827.108 750.377 826.204 750.202 824.513C750.202 823.696 750.202 822.908 750.202 822.15C750.26 821.333 750.231 820.546 750.114 819.787C750.056 819.146 749.91 818.533 749.677 817.95C749.502 817.308 749.21 816.725 748.802 816.2C748.16 815.5 747.489 815.412 746.789 815.937C746.089 816.521 745.535 817.221 745.127 818.037C744.718 818.796 744.397 819.642 744.164 820.575C743.872 822.558 744.281 824.542 745.389 826.525C746.556 828.508 747.956 829.937 749.589 830.812C750.581 831.337 751.572 831.775 752.564 832.125C753.556 832.417 754.606 832.679 755.714 832.912C756.239 833.029 756.735 833.175 757.202 833.35C757.727 833.525 758.252 833.671 758.777 833.787C760.118 834.312 761.081 835.187 761.664 836.412C762.247 837.579 762.364 838.862 762.014 840.262C761.781 841.546 761.139 842.712 760.089 843.762C758.806 845.221 757.347 846.446 755.714 847.438C754.081 848.429 752.418 849.392 750.727 850.325C749.677 850.85 748.627 851.317 747.577 851.725C746.585 852.192 745.506 852.513 744.339 852.688C743.814 852.746 743.289 852.746 742.764 852.688C742.297 852.629 741.802 852.542 741.277 852.425C739.818 851.958 738.943 851.113 738.652 849.887C738.36 848.721 738.418 847.642 738.827 846.65C739.118 845.833 739.556 845.133 740.139 844.55C740.606 844.142 741.072 843.879 741.539 843.762C742.064 843.646 742.56 843.733 743.027 844.025C743.435 844.258 743.785 844.346 744.077 844.287C744.368 844.229 744.66 844.142 744.952 844.025C745.768 843.558 746.585 843.121 747.402 842.712C748.277 842.304 749.122 841.867 749.939 841.4C750.172 841.283 750.406 841.137 750.639 840.962C750.872 840.787 751.047 840.583 751.164 840.35ZM770.071 803.775C768.379 804.533 766.921 804.3 765.696 803.075C765.288 802.608 765.025 801.996 764.908 801.237C764.792 800.479 764.879 799.75 765.171 799.05C765.521 798.292 766.104 797.679 766.921 797.212C767.738 796.687 768.554 796.425 769.371 796.425C771.063 796.425 772.2 797.212 772.783 798.788C773.075 799.487 773.104 800.217 772.871 800.975C772.696 801.675 772.288 802.288 771.646 802.813C771.413 803.046 771.15 803.25 770.858 803.425C770.625 803.542 770.363 803.658 770.071 803.775ZM773.571 840.087C773.804 841.312 773.425 842.187 772.433 842.712C771.383 843.237 770.333 843.121 769.283 842.362C768.817 841.954 768.467 841.487 768.233 840.962C768 840.437 767.767 839.883 767.533 839.3C767.358 838.483 767.183 837.637 767.008 836.762C766.892 835.887 766.775 835.042 766.658 834.225C766.308 831.308 766.017 828.392 765.783 825.475C765.608 822.5 765.638 819.554 765.871 816.637C765.929 815.996 766.017 815.354 766.133 814.712C766.25 814.012 766.513 813.371 766.921 812.787C767.213 812.204 767.592 811.737 768.058 811.387C768.583 811.037 769.196 810.862 769.896 810.862C771.238 810.921 772.2 811.621 772.783 812.962C773.308 814.012 773.571 815.15 773.571 816.375V828.45C773.513 829.15 773.454 829.996 773.396 830.987C773.338 831.979 773.308 833.058 773.308 834.225C773.308 835.158 773.308 836.121 773.308 837.112C773.367 838.104 773.454 839.096 773.571 840.087ZM788.512 838.687C788.512 839.504 788.541 840.35 788.6 841.225C788.658 842.1 788.629 843.004 788.512 843.937C788.512 844.171 788.512 844.462 788.512 844.812C788.512 845.104 788.483 845.425 788.425 845.775C788.25 846.942 787.637 847.642 786.587 847.875C785.42 847.933 784.487 847.583 783.787 846.825C783.379 846.358 783.058 845.833 782.825 845.25C782.65 844.667 782.445 844.083 782.212 843.5C781.979 842.45 781.775 841.4 781.6 840.35C781.483 839.3 781.395 838.25 781.337 837.2C780.987 833.992 780.754 830.783 780.637 827.575C780.579 824.367 780.491 821.158 780.375 817.95C780.316 813.342 780.258 808.762 780.2 804.212C780.2 799.662 780.229 795.083 780.287 790.475C780.287 790.067 780.287 789.687 780.287 789.337C780.345 788.929 780.433 788.521 780.55 788.112C780.841 787.296 781.308 786.625 781.95 786.1C782.591 785.517 783.35 785.225 784.225 785.225C786.033 785.225 787.2 786.187 787.725 788.112C787.9 788.637 787.987 789.162 787.987 789.687C788.22 793.479 788.366 797.271 788.425 801.062C788.541 804.854 788.629 808.646 788.687 812.437C788.687 812.846 788.687 813.808 788.687 815.325C788.687 816.842 788.687 818.65 788.687 820.75C788.687 822.792 788.658 824.95 788.6 827.225C788.6 829.5 788.6 831.658 788.6 833.7C788.6 835.683 788.57 837.346 788.512 838.687Z" fill="#0E2234"/>
<path d="M74.5794 773.023C43.1499 687.415 36.2723 521.202 124.343 544.867C157.712 553.834 163.586 583.523 194.744 598.458C242.23 621.219 304.514 569.482 328.384 616.42C348.565 656.104 305.723 682.202 294.79 725.359C276.355 798.127 327.709 875.721 263.776 915.06C185.089 963.478 106.421 859.753 74.5794 773.023Z" fill="#EE75A7"/>
<path d="M441.882 850.899C393.849 839.841 318.369 867.341 320.027 818.009C320.682 798.508 326.657 786.021 340.768 772.569C370.673 744.06 404.173 791.312 445.338 788.148C498.333 784.075 525.22 714.693 572.378 739.246C594.971 751.009 609.924 763.285 615.589 788.148C625.07 829.753 585.134 857.703 544.723 871.239C505.899 884.243 481.779 860.084 441.882 850.899Z" fill="#00A265"/>
<path d="M1010.07 712.382C1064.59 634.011 988.992 488.069 1084.07 479.382C1184.67 470.191 1194.12 628.935 1164.07 725.382C1123.59 855.268 784.852 977.719 840.068 853.382C875.074 774.553 960.809 783.186 1010.07 712.382Z" fill="#0469B1"/>
<path d="M1026 409.187C1037.21 366.91 1010.76 319.98 1049.5 299.687C1099.23 273.643 1129.88 392.608 1094.5 436.187C1072.36 463.468 1024 497.692 1009.5 465.687C1000.02 444.749 1020.12 431.406 1026 409.187Z" fill="#F9BB0D"/>
<path d="M1235.67 157.774C1195.12 137.863 1185.16 83.9277 1140.67 91.7739C1080.79 102.335 1102.44 186.904 1117.67 245.774C1136.97 320.37 1178.14 385.388 1255.17 387.274C1315.67 388.755 1386.33 365.793 1386.67 305.274C1386.81 280.568 1365.35 270.48 1365.17 245.774C1365.02 225.737 1380.02 216.265 1378.67 196.274C1374.76 138.572 1287.58 183.265 1235.67 157.774Z" fill="#E30140"/>
<circle cx="1203" cy="243" r="4" fill="#51001A"/>
<circle cx="1285" cy="243" r="4" fill="#51001A"/>
<path d="M1225 259.501C1239.15 241.911 1247.39 242.919 1262.5 259.501" stroke="#51001A" stroke-width="7" stroke-linecap="round"/>
<path d="M292.668 207.72C312.549 167.155 366.476 157.152 358.597 112.67C347.99 52.7945 263.438 74.5126 204.58 89.786C129.998 109.139 65.0108 150.363 63.183 227.392C61.7474 287.896 84.7625 358.533 145.282 358.831C169.988 358.952 180.06 337.483 204.766 337.286C224.802 337.126 234.286 352.117 254.276 350.749C311.974 346.798 267.217 259.652 292.668 207.72Z" fill="#E30140"/>
<path d="M816.658 158.483C791.33 153.736 768.113 169.89 751.158 150.483C738.105 135.542 740.875 120.282 742.158 100.483C745.955 41.9178 798.427 -11.0125 855.658 1.98342C906.118 13.4416 931.797 63.1044 925.658 114.483C922.312 142.49 918.45 166.498 893.158 178.983C865.424 192.675 847.058 164.181 816.658 158.483Z" fill="#00A265"/>
<path d="M505.545 73.0641C470.395 79.2609 452.51 34.0984 418.545 45.0641C365.819 62.0865 459.642 149.604 515.045 149.064C556.637 148.659 603.54 130.655 603.045 89.0641C602.739 63.3795 593.157 40.4163 568.545 33.0641C540.621 24.7225 534.245 68.0044 505.545 73.0641Z" fill="#EE75A7"/>
<path d="M120.835 384.003C89.2114 389.582 68.659 405.35 56.3346 435.003C32.6372 492.018 111.059 530.115 171.335 543.503C226.74 555.808 306.957 561.089 311.335 504.503C315.206 454.456 253.583 450.482 210.335 425.003C177.211 405.488 158.695 377.323 120.835 384.003Z" fill="#9C9B9B"/>
<circle cx="150" cy="200" r="4" fill="#51001A"/>
<circle cx="232" cy="200" r="4" fill="#51001A"/>
<path d="M141 249L150.93 239.543C151.264 239.224 151.773 239.176 152.162 239.427L166.429 248.632C166.774 248.854 167.219 248.844 167.553 248.605L180.296 239.503C180.7 239.214 181.255 239.266 181.599 239.624L192.341 250.813C192.71 251.198 193.316 251.225 193.718 250.875L203.683 242.21C204.123 241.827 204.797 241.901 205.143 242.371L212.202 251.92C212.6 252.458 213.404 252.461 213.806 251.926L222.752 239.997C223.136 239.485 223.895 239.461 224.311 239.947L235.5 253" stroke="#51001A" stroke-width="7" stroke-linecap="round"/>
<circle cx="123" cy="690" r="4" fill="#932050"/>
<circle cx="264" cy="686" r="4" fill="#932050"/>
<path d="M190 745.5C195.679 745.5 199.5 740.099 199.5 734.5C199.5 728.901 195.679 723.5 190 723.5C184.321 723.5 180.5 728.901 180.5 734.5C180.5 740.099 184.321 745.5 190 745.5Z" stroke="#932050" stroke-width="5"/>
<circle cx="141" cy="475" r="4" fill="#303636"/>
<circle cx="223" cy="475" r="4" fill="#303636"/>
<path d="M163 491.501C177.155 473.911 185.394 474.919 200.5 491.501" stroke="#303636" stroke-width="7" stroke-linecap="round"/>
<circle cx="428" cy="816" r="4" fill="#004D32"/>
<circle cx="510" cy="816" r="4" fill="#004D32"/>
<path d="M487.5 819.684C473.345 837.273 465.106 836.266 450 819.684" stroke="#004D32" stroke-width="7" stroke-linecap="round"/>
<path d="M490 114H531" stroke="#932050" stroke-width="7" stroke-linecap="round"/>
<circle cx="479" cy="91" r="4" fill="#932050"/>
<circle cx="527" cy="91" r="4" fill="#932050"/>
<circle cx="796" cy="81" r="4" fill="#004D32"/>
<circle cx="878" cy="81" r="4" fill="#004D32"/>
<path d="M818 97.5008C832.155 79.9112 840.394 80.9186 855.5 97.5008" stroke="#004D32" stroke-width="7" stroke-linecap="round"/>
<path d="M1042 402.17C1042 402.17 1049 396.206 1054.5 395.17C1064.71 393.245 1068.24 408.345 1078.5 406.67C1086.25 405.404 1095 395.17 1095 395.17" stroke="#906804" stroke-width="7" stroke-linecap="round"/>
<circle cx="1049" cy="369" r="4" fill="#906804"/>
<circle cx="1082" cy="369" r="4" fill="#906804"/>
<path d="M1076 661C1076 687 1110 691.5 1110 661" stroke="#022F50" stroke-width="7" stroke-linecap="round"/>
<circle cx="1078" cy="641" r="4" fill="#022F50"/>
<circle cx="1107" cy="641" r="4" fill="#022F50"/>
<circle cx="486" cy="15" r="7" fill="#EE75A7"/>
<circle cx="667" cy="132" r="7" fill="#EE75A7"/>
<circle cx="1009" cy="108" r="7" fill="#00A265"/>
<circle cx="1021" cy="205" r="7" fill="#F9BB0D"/>
<circle cx="1174" cy="394" r="7" fill="#E30140"/>
<circle cx="1227" cy="613" r="7" fill="#0469B1"/>
<circle cx="809.742" cy="862.443" r="7" transform="rotate(-34.7594 809.742 862.443)" fill="#F9BB0D"/>
<circle cx="336.742" cy="721.443" r="7" transform="rotate(-34.7594 336.742 721.443)" fill="#EE75A7"/>
<circle cx="301.742" cy="553.443" r="7" transform="rotate(-34.7594 301.742 553.443)" fill="#9C9B9B"/>
<circle cx="301.742" cy="432.443" r="7" transform="rotate(-34.7594 301.742 432.443)" fill="#9C9B9B"/>
<circle cx="379.742" cy="131.443" r="7" transform="rotate(-34.7594 379.742 131.443)" fill="#E30140"/>
<circle cx="9.74179" cy="735.443" r="7" transform="rotate(-34.7594 9.74179 735.443)" fill="#EE75A7"/>
<circle cx="1227" cy="675" r="7" fill="#0469B1"/>
<circle cx="1419" cy="217" r="7" fill="#E30140"/>
<circle cx="1431" cy="291" r="7" fill="#E30140"/>
</svg>
