<svg width="488" height="53" viewBox="0 0 488 53" fill="none" xmlns="http://www.w3.org/2000/svg">
<rect width="487.828" height="53" rx="26.5" fill="black"/>
<path d="M33.4857 9.71277C33.3566 9.89912 33.2419 10.0783 33.1415 10.2503C33.0555 10.408 32.9766 10.5657 32.9049 10.7234C32.6467 11.1677 32.4029 11.6265 32.1735 12.0995C31.9441 12.5583 31.7146 13.0313 31.4852 13.5187C31.2988 13.8914 31.1195 14.2713 30.9474 14.6583C30.7753 15.0453 30.596 15.4396 30.4096 15.8409C30.2662 16.1993 29.9866 16.3928 29.5707 16.4215C29.3843 16.4358 29.2122 16.4 29.0544 16.314C28.911 16.228 28.7819 16.1061 28.6672 15.9484C28.5238 15.7191 28.4163 15.4611 28.3446 15.1743C28.1725 14.5723 27.986 13.9774 27.7853 13.3897C27.5988 12.8019 27.4411 12.2142 27.312 11.6265C27.2977 11.4975 27.2332 11.3684 27.1184 11.2394C27.1184 11.4688 27.0969 11.6838 27.0539 11.8845C27.0252 12.6013 26.9894 13.3252 26.9464 14.0562C26.9177 14.7873 26.889 15.5112 26.8603 16.228C26.8316 16.7583 26.7814 17.2888 26.7097 17.8191C26.6524 18.3495 26.5878 18.887 26.5161 19.4318C26.5018 19.6038 26.4803 19.7758 26.4516 19.9478C26.4373 20.1056 26.4157 20.2776 26.3871 20.4639C26.3727 20.5642 26.3369 20.6646 26.2795 20.7649C26.2222 20.8509 26.1289 20.9083 25.9999 20.937C25.8851 20.9943 25.7633 21.0015 25.6342 20.9585C25.5195 20.9011 25.4262 20.8079 25.3545 20.6789C25.2972 20.6072 25.2542 20.5284 25.2255 20.4424C25.2111 20.3421 25.1896 20.2417 25.161 20.1414C25.0606 19.525 24.9745 18.9014 24.9028 18.2707C24.8455 17.6399 24.8239 17.0164 24.8383 16.4C24.867 15.0095 24.9315 13.6405 25.0319 12.293C25.0749 11.8343 25.1108 11.3756 25.1394 10.9169C25.1681 10.4582 25.1968 9.9923 25.2255 9.51925C25.2542 9.14654 25.29 8.77384 25.333 8.40113C25.3904 8.01409 25.4693 7.63422 25.5697 7.26151C25.5983 7.14683 25.627 7.03932 25.6557 6.93898C25.6987 6.8243 25.7489 6.71679 25.8063 6.61645C26.0787 6.1864 26.4516 6.03588 26.9248 6.1649C27.2547 6.25091 27.5056 6.39425 27.6777 6.59494C27.8498 6.79563 27.986 7.03932 28.0864 7.32602C28.3732 8.1001 28.6242 8.88852 28.8393 9.69127C29.0688 10.4797 29.3054 11.2752 29.5492 12.078C29.5922 12.25 29.6424 12.4292 29.6997 12.6156C29.7571 12.8019 29.8145 12.9883 29.8718 13.1746C29.9722 13.1459 30.0296 13.0958 30.0439 13.0241C30.0726 12.9381 30.1013 12.8664 30.13 12.8091C30.4598 12.2787 30.7538 11.734 31.0119 11.1749C31.27 10.6159 31.5569 10.064 31.8724 9.51925C32.0731 9.14654 32.2883 8.78101 32.5177 8.42264C32.7471 8.04993 32.9837 7.68439 33.2275 7.32602C33.2706 7.25434 33.3136 7.1755 33.3566 7.0895C33.4139 6.98915 33.457 6.89598 33.4857 6.80997C33.5287 6.60928 33.6291 6.44443 33.7868 6.31541C33.9589 6.1864 34.1382 6.11472 34.3246 6.10039C34.5254 6.08606 34.7118 6.12906 34.8839 6.22941C35.0703 6.32975 35.2065 6.47309 35.2926 6.65945C35.3643 6.75979 35.4073 6.88164 35.4217 7.02499C35.4504 7.16834 35.4719 7.30452 35.4862 7.43353C35.5149 7.7919 35.5292 8.16461 35.5292 8.55165C35.5435 8.93869 35.5579 9.32573 35.5722 9.71277C35.5722 10.6445 35.5507 11.5763 35.5077 12.5081C35.479 13.4399 35.4288 14.3716 35.3571 15.3034C35.3284 15.6187 35.3141 15.9484 35.3141 16.2925C35.3141 16.6222 35.3069 16.959 35.2926 17.3031C35.2639 17.9911 35.2424 18.6864 35.2281 19.3888C35.2281 20.0769 35.2281 20.7649 35.2281 21.453C35.2281 21.7684 35.099 21.9619 34.8409 22.0336C34.554 22.0909 34.3461 21.9834 34.217 21.711C34.1023 21.4673 34.0306 21.2022 34.0019 20.9155C33.9446 20.5857 33.9087 20.2561 33.8944 19.9263C33.8801 19.5823 33.8585 19.2526 33.8298 18.9372C33.7868 18.3495 33.7581 17.7546 33.7438 17.1526C33.7295 16.5505 33.6936 15.9556 33.6362 15.3679C33.5645 14.4791 33.5215 13.5904 33.5072 12.7016C33.4929 11.8128 33.4929 10.9241 33.5072 10.0353C33.5072 10.0066 33.5072 9.9708 33.5072 9.92779C33.5072 9.88479 33.5 9.81311 33.4857 9.71277ZM37.2112 18.6577C37.2112 17.984 37.3045 17.3389 37.4909 16.7225C37.6917 16.0918 37.9498 15.4754 38.2653 14.8733C38.423 14.5866 38.6094 14.3143 38.8245 14.0562C39.0397 13.7982 39.2835 13.576 39.5559 13.3897C39.9288 13.1316 40.316 12.9811 40.7175 12.9381C41.1477 12.9094 41.5349 13.0026 41.8791 13.2176C42.2233 13.4327 42.4886 13.7265 42.675 14.0992C42.8615 14.4576 42.9188 14.8661 42.8471 15.3249C42.8328 15.4539 42.8041 15.5901 42.761 15.7334C42.718 15.8767 42.6607 16.0129 42.589 16.1419C42.4025 16.5003 42.1802 16.8443 41.9221 17.1741C41.6784 17.4894 41.3772 17.7689 41.0187 18.0126C40.7892 18.1703 40.5454 18.3065 40.2873 18.4212C40.0435 18.5215 39.7782 18.5645 39.4914 18.5502C39.391 18.5502 39.3265 18.5645 39.2978 18.5932C39.2835 18.6219 39.2763 18.6864 39.2763 18.7867C39.262 19.0161 39.2763 19.2455 39.3193 19.4748C39.3623 19.7041 39.4197 19.9335 39.4914 20.1629C39.5774 20.3492 39.6563 20.4567 39.728 20.4854C39.7997 20.5141 39.9288 20.4711 40.1152 20.3564C40.3877 20.2131 40.6315 20.0195 40.8466 19.7758C40.9756 19.6611 41.1047 19.5608 41.2338 19.4748C41.3628 19.3745 41.4919 19.2741 41.621 19.1738C41.6784 19.1164 41.7644 19.0591 41.8791 19.0017C42.0942 18.9301 42.2735 18.9516 42.4169 19.0663C42.5746 19.1666 42.6535 19.3315 42.6535 19.5608C42.6535 19.6611 42.6464 19.7615 42.632 19.8618C42.6177 19.9622 42.5961 20.0625 42.5674 20.1629C42.381 20.7076 42.1157 21.1807 41.7715 21.582C41.4274 21.9834 40.9613 22.2773 40.3733 22.4636C39.5559 22.6786 38.8461 22.4851 38.2438 21.8831C37.9283 21.5677 37.706 21.2165 37.5769 20.8294C37.4479 20.4424 37.3475 20.041 37.2758 19.6253C37.2614 19.4676 37.2471 19.31 37.2327 19.1523C37.2327 18.9802 37.2256 18.8154 37.2112 18.6577ZM41.2338 15.1098C41.2338 15.0095 41.2266 14.9235 41.2123 14.8518C41.1979 14.7658 41.1549 14.7085 41.0832 14.6798C40.9828 14.6225 40.8538 14.6583 40.696 14.7873C40.6387 14.816 40.5884 14.8518 40.5454 14.8948C40.5024 14.9378 40.4522 14.988 40.3948 15.0453C40.2084 15.2747 40.0507 15.5256 39.9216 15.7979C39.8069 16.0703 39.6994 16.3427 39.5989 16.615C39.5273 16.7153 39.5344 16.7942 39.6205 16.8515C39.6492 16.8802 39.685 16.8945 39.728 16.8945C39.7854 16.8802 39.8284 16.8658 39.8571 16.8515C40.5024 16.4932 40.9541 15.9627 41.2123 15.2604C41.2266 15.2317 41.2338 15.203 41.2338 15.1743C41.2338 15.1313 41.2338 15.1098 41.2338 15.1098ZM48.7597 16.8085C48.5016 17.0379 48.3152 17.2744 48.2005 17.5181C47.8993 18.0485 47.6555 18.6075 47.4691 19.1953C47.2826 19.783 47.1392 20.3851 47.0389 21.0015C47.0245 21.1448 46.9959 21.2882 46.9528 21.4315C46.9098 21.5748 46.8524 21.7038 46.7807 21.8185C46.5656 22.1769 46.2788 22.3346 45.9203 22.2916C45.7338 22.2916 45.5761 22.2414 45.4471 22.1411C45.318 22.0408 45.2033 21.9117 45.1029 21.754C45.0455 21.625 45.0025 21.4888 44.9738 21.3455C44.9595 21.2022 44.9379 21.0588 44.9093 20.9155C44.8376 20.3421 44.7587 19.7686 44.6727 19.1953C44.601 18.6075 44.5507 18.027 44.5221 17.4536C44.4934 17.0665 44.4934 16.6795 44.5221 16.2925C44.5507 15.9054 44.5938 15.5184 44.6512 15.1313C44.6512 15.0596 44.6655 14.9951 44.6942 14.9378C44.7228 14.8661 44.7443 14.8016 44.7587 14.7443C44.8878 14.386 45.1244 14.2282 45.4686 14.2713C45.612 14.2856 45.741 14.3501 45.8558 14.4648C45.9705 14.5795 46.035 14.7156 46.0494 14.8733C46.0924 15.2174 46.1282 15.5542 46.1569 15.8839C46.2 16.2136 46.2501 16.5433 46.3075 16.873C46.3218 16.9303 46.329 17.002 46.329 17.088C46.329 17.1597 46.3505 17.2314 46.3936 17.3031C46.4652 17.2744 46.5082 17.2386 46.5226 17.1956C46.5369 17.1382 46.5513 17.088 46.5656 17.045C46.709 16.7583 46.8524 16.4788 46.9959 16.2065C47.1392 15.9197 47.3041 15.6617 47.4906 15.4324C47.5767 15.3177 47.6627 15.2102 47.7487 15.1098C47.8348 14.9951 47.9351 14.8948 48.0499 14.8088C48.4227 14.5078 48.8243 14.3931 49.2545 14.4648C49.6847 14.5221 50.036 14.7586 50.3085 15.1743C50.4376 15.4037 50.538 15.6474 50.6097 15.9054C50.6813 16.1491 50.7316 16.4 50.7603 16.658C50.8319 17.088 50.8893 17.5253 50.9323 17.9696C50.9897 18.3997 51.047 18.8297 51.1044 19.2598C51.1331 19.5178 51.169 19.7758 51.212 20.0339C51.2693 20.2776 51.3124 20.5284 51.3411 20.7864C51.3697 20.8868 51.4056 20.9728 51.4486 21.0445C51.4916 21.1162 51.5633 21.1878 51.6637 21.2595C51.9649 21.4172 52.058 21.668 51.9434 22.0121C51.8143 22.3704 51.592 22.5926 51.2765 22.6786C50.961 22.7646 50.6598 22.693 50.3731 22.4636C50.244 22.3489 50.1364 22.2271 50.0504 22.0981C49.9644 21.9691 49.8854 21.8329 49.8138 21.6895C49.5843 21.2738 49.4122 20.8509 49.2975 20.4209C49.1828 19.9909 49.0967 19.5393 49.0394 19.0663C48.9964 18.7365 48.9605 18.3997 48.9318 18.0556C48.9031 17.7116 48.8529 17.3748 48.7813 17.045C48.7813 17.0164 48.7741 16.9877 48.7597 16.959C48.7597 16.916 48.7597 16.8658 48.7597 16.8085ZM55.3389 21.5605C55.6687 21.3168 55.9268 21.0588 56.1133 20.7864C56.3714 20.4281 56.6223 20.0625 56.8662 19.6898C57.1243 19.3171 57.3465 18.9301 57.533 18.5287C57.5473 18.4714 57.5616 18.4284 57.576 18.3997C57.5903 18.3567 57.5975 18.3137 57.5975 18.2707C57.6119 17.9696 57.7839 17.7833 58.1138 17.7116C58.4436 17.6829 58.6874 17.8048 58.8452 18.0772C58.9312 18.1775 58.9814 18.285 58.9957 18.3997C59.0244 18.5 59.0388 18.6147 59.0388 18.7437C58.9814 19.5035 58.7806 20.2346 58.4365 20.937C58.0062 21.7827 57.4326 22.4851 56.7156 23.0442C56.5578 23.1732 56.3929 23.2807 56.2208 23.3667C56.0631 23.467 55.8838 23.5387 55.6831 23.5817C55.3245 23.6677 54.966 23.6319 54.6075 23.4742C54.249 23.3309 53.9622 23.1015 53.7471 22.7861C53.618 22.5711 53.5033 22.3489 53.4029 22.1196C53.3025 21.8759 53.2164 21.6322 53.1448 21.3885C52.9583 20.8581 52.8221 20.3134 52.7361 19.7543C52.65 19.1953 52.5711 18.6362 52.4994 18.0772C52.3847 17.2744 52.2987 16.4573 52.2413 15.6259C52.1696 14.7945 52.1338 13.963 52.1338 13.1316C52.1338 12.9739 52.1194 12.8808 52.0907 12.8521C52.062 12.8234 51.9617 12.8234 51.7896 12.8521C51.6031 12.8951 51.4167 12.9453 51.2303 13.0026C51.0295 13.0456 50.8287 13.0814 50.628 13.1101C50.3842 13.1674 50.1261 13.1316 49.8536 13.0026C49.5955 12.8449 49.452 12.6299 49.4234 12.3576C49.3947 12.0708 49.4807 11.8272 49.6815 11.6265C49.8823 11.4545 50.0974 11.3326 50.3268 11.2609C50.585 11.1892 50.8431 11.1176 51.1012 11.0459C51.345 10.9742 51.596 10.9097 51.8541 10.8524C52.0262 10.8237 52.1338 10.7951 52.1768 10.7664C52.2054 10.7234 52.2269 10.6087 52.2413 10.4223C52.2556 9.93496 52.2987 9.45474 52.3704 8.98169C52.4277 8.49431 52.521 8.00692 52.65 7.51954C52.7074 7.34752 52.7576 7.1755 52.8006 7.00349C52.8579 6.81714 52.9368 6.64512 53.0372 6.48743C53.1233 6.37275 53.2093 6.27241 53.2954 6.1864C53.3814 6.08606 53.4818 6.00721 53.5965 5.94988C53.869 5.76352 54.1701 5.74919 54.5 5.90687C54.6433 6.00721 54.7294 6.12906 54.7581 6.27241C54.8011 6.41576 54.8082 6.56627 54.7796 6.72396C54.7509 7.03932 54.6936 7.35469 54.6075 7.67006C54.5215 7.97109 54.4641 8.28645 54.4354 8.61616C54.4067 8.88852 54.3709 9.16088 54.3279 9.43324C54.2992 9.7056 54.2705 9.98513 54.2418 10.2718C54.2418 10.4008 54.249 10.4797 54.2633 10.5084C54.292 10.5227 54.378 10.5299 54.5215 10.5299C54.8082 10.5299 55.0808 10.5227 55.3389 10.5084C55.597 10.494 55.8623 10.4869 56.1348 10.4869C56.6223 10.4869 57.0311 10.6732 57.3609 11.0459C57.447 11.1176 57.5115 11.2036 57.5545 11.3039C57.6118 11.3899 57.6477 11.4831 57.6621 11.5835C57.6907 11.8272 57.6119 12.0422 57.4254 12.2285C57.239 12.4006 57.0454 12.4436 56.8446 12.3576C56.8159 12.3576 56.7801 12.3576 56.7371 12.3576C56.7084 12.3432 56.6726 12.3432 56.6295 12.3576C56.314 12.4722 55.9913 12.5224 55.6615 12.5081C55.346 12.4938 55.0234 12.5081 54.6936 12.5511H54.3924C54.2203 12.5511 54.1343 12.6371 54.1343 12.8091C54.1629 13.0814 54.1773 13.3538 54.1773 13.6262C54.1773 13.8842 54.1844 14.1494 54.1988 14.4218C54.2274 15.1242 54.2777 15.8266 54.3494 16.529C54.421 17.2314 54.5143 17.9266 54.629 18.6147C54.672 18.9731 54.7222 19.3315 54.7796 19.6898C54.8513 20.0339 54.9373 20.3851 55.0377 20.7434C55.0664 20.8724 55.1094 21.0015 55.1668 21.1305C55.2241 21.2595 55.2815 21.4028 55.3389 21.5605ZM60.6757 18.6577C60.6757 17.984 60.769 17.3389 60.9554 16.7225C61.1562 16.0918 61.4143 15.4754 61.7298 14.8733C61.8875 14.5866 62.0739 14.3143 62.2891 14.0562C62.5042 13.7982 62.748 13.576 63.0204 13.3897C63.3933 13.1316 63.7805 12.9811 64.182 12.9381C64.6122 12.9094 64.9994 13.0026 65.3436 13.2176C65.6878 13.4327 65.9531 13.7265 66.1395 14.0992C66.326 14.4576 66.3833 14.8661 66.3116 15.3249C66.2973 15.4539 66.2686 15.5901 66.2255 15.7334C66.1825 15.8767 66.1252 16.0129 66.0535 16.1419C65.8671 16.5003 65.6448 16.8443 65.3866 17.1741C65.1429 17.4894 64.8417 17.7689 64.4832 18.0126C64.2537 18.1703 64.0099 18.3065 63.7518 18.4212C63.508 18.5215 63.2427 18.5645 62.9559 18.5502C62.8555 18.5502 62.791 18.5645 62.7623 18.5932C62.748 18.6219 62.7408 18.6864 62.7408 18.7867C62.7265 19.0161 62.7408 19.2455 62.7838 19.4748C62.8268 19.7041 62.8842 19.9335 62.9559 20.1629C63.0419 20.3492 63.1208 20.4567 63.1925 20.4854C63.2642 20.5141 63.3933 20.4711 63.5797 20.3564C63.8522 20.2131 64.096 20.0195 64.3111 19.7758C64.4401 19.6611 64.5692 19.5608 64.6983 19.4748C64.8273 19.3745 64.9564 19.2741 65.0855 19.1738C65.1429 19.1164 65.2289 19.0591 65.3436 19.0017C65.5587 18.9301 65.738 18.9516 65.8814 19.0663C66.0391 19.1666 66.118 19.3315 66.118 19.5608C66.118 19.6611 66.1109 19.7615 66.0965 19.8618C66.0822 19.9622 66.0606 20.0625 66.0319 20.1629C65.8455 20.7076 65.5802 21.1807 65.236 21.582C64.8919 21.9834 64.4258 22.2773 63.8378 22.4636C63.0204 22.6786 62.3106 22.4851 61.7083 21.8831C61.3928 21.5677 61.1705 21.2165 61.0414 20.8294C60.9124 20.4424 60.812 20.041 60.7403 19.6253C60.726 19.4676 60.7116 19.31 60.6972 19.1523C60.6972 18.9802 60.6901 18.8154 60.6757 18.6577ZM64.6983 15.1098C64.6983 15.0095 64.6911 14.9235 64.6768 14.8518C64.6624 14.7658 64.6194 14.7085 64.5477 14.6798C64.4473 14.6225 64.3183 14.6583 64.1605 14.7873C64.1032 14.816 64.0529 14.8518 64.0099 14.8948C63.9669 14.9378 63.9168 14.988 63.8593 15.0453C63.6729 15.2747 63.5152 15.5256 63.3861 15.7979C63.2714 16.0703 63.1639 16.3427 63.0634 16.615C62.9918 16.7153 62.9989 16.7942 63.085 16.8515C63.1137 16.8802 63.1495 16.8945 63.1925 16.8945C63.2499 16.8802 63.2929 16.8658 63.3216 16.8515C63.9669 16.4932 64.4186 15.9627 64.6768 15.2604C64.6911 15.2317 64.6983 15.203 64.6983 15.1743C64.6983 15.1313 64.6983 15.1098 64.6983 15.1098ZM30.8057 35.1407C30.7913 34.5244 30.777 33.8721 30.7627 33.184C30.7483 32.496 30.7412 31.8079 30.7412 31.1198C30.7412 30.4174 30.734 29.7294 30.7197 29.0556C30.7197 28.3675 30.7268 27.6794 30.7412 26.9914C30.7412 26.633 30.7412 26.2818 30.7412 25.9378C30.7555 25.5937 30.777 25.2425 30.8057 24.8842C30.8344 24.6404 30.8774 24.4254 30.9348 24.2391C30.9634 24.1388 30.9993 24.0528 31.0423 23.9811C31.0854 23.8951 31.1427 23.809 31.2144 23.723C31.4152 23.5223 31.6446 23.4435 31.9028 23.4865C32.1609 23.5295 32.3616 23.6728 32.5051 23.9166C32.5911 24.0313 32.6485 24.1603 32.6772 24.3036C32.7058 24.4326 32.7273 24.5759 32.7417 24.7336C32.7703 25.5364 32.7775 26.3391 32.7632 27.1419C32.7488 27.9303 32.7202 28.7259 32.6772 29.5286C32.6772 29.6147 32.67 29.7007 32.6557 29.7867C32.6413 29.8584 32.6341 29.9372 32.6341 30.0232C32.6054 31.4567 32.5624 32.883 32.5051 34.3021C32.4907 35.3629 32.4907 36.4381 32.5051 37.5275C32.5051 37.7998 32.5337 37.9575 32.5911 38.0005C32.6485 38.0435 32.8062 38.0363 33.0644 37.979C33.4946 37.8787 33.9176 37.7783 34.3335 37.678C34.7637 37.5777 35.2011 37.4988 35.6457 37.4415C36.0759 37.3698 36.5061 37.3125 36.9363 37.2695C37.3809 37.2265 37.8111 37.2193 38.227 37.248H39.6682C39.7973 37.248 39.9191 37.2551 40.0339 37.2695C40.163 37.2838 40.2776 37.3268 40.3781 37.3985C40.5358 37.4558 40.6433 37.5562 40.7007 37.6995C40.7581 37.8428 40.7724 37.979 40.7437 38.108C40.7294 38.2227 40.672 38.3231 40.5717 38.4091C40.4856 38.4808 40.3996 38.4879 40.3135 38.4306C40.084 38.3159 39.8689 38.2872 39.6682 38.3446C39.4674 38.4019 39.2666 38.4449 39.0659 38.4736C38.8508 38.5023 38.6357 38.5524 38.4206 38.6241C38.2198 38.6958 38.0119 38.7746 37.7968 38.8606C37.1514 39.09 36.4917 39.2835 35.8178 39.4412C35.1437 39.5845 34.4697 39.735 33.7957 39.8927C33.5376 39.9357 33.2866 39.9859 33.0429 40.0432C32.799 40.1006 32.5481 40.1651 32.29 40.2368C32.0892 40.2798 31.9171 40.2941 31.7737 40.2798C31.4295 40.2511 31.1642 40.1293 30.9778 39.9142C30.8057 39.6992 30.7268 39.434 30.7412 39.1187C30.7555 38.7459 30.7698 38.3804 30.7842 38.022C30.8129 37.6493 30.82 37.2838 30.8057 36.9254V35.1407ZM43.0393 29.7007C42.6235 29.887 42.2649 29.8297 41.9638 29.5286C41.8634 29.4139 41.7989 29.2634 41.7702 29.0771C41.7415 28.8908 41.7631 28.7116 41.8347 28.5395C41.9208 28.3532 42.0642 28.2027 42.2649 28.088C42.4657 27.959 42.6665 27.8945 42.8672 27.8945C43.2831 27.8945 43.5628 28.088 43.7062 28.475C43.7779 28.6471 43.7851 28.8263 43.7277 29.0126C43.6847 29.1846 43.5843 29.3351 43.4265 29.4641C43.3692 29.5215 43.3047 29.5716 43.2329 29.6147C43.1756 29.6433 43.1111 29.672 43.0393 29.7007ZM43.8998 38.6241C43.9572 38.9251 43.8639 39.1402 43.6201 39.2692C43.362 39.3982 43.1039 39.3695 42.8457 39.1832C42.731 39.0828 42.645 38.9681 42.5876 38.8391C42.5303 38.7101 42.4729 38.5739 42.4155 38.4306C42.3725 38.2299 42.3295 38.022 42.2864 37.807C42.2578 37.592 42.2291 37.3842 42.2004 37.1835C42.1144 36.4667 42.0427 35.75 41.9853 35.0332C41.9423 34.3021 41.9495 33.5783 42.0068 32.8615C42.0212 32.7038 42.0427 32.5461 42.0713 32.3884C42.1 32.2164 42.1646 32.0587 42.2649 31.9154C42.3367 31.7721 42.4299 31.6574 42.5446 31.5714C42.6736 31.4853 42.8242 31.4423 42.9963 31.4423C43.3262 31.4567 43.5628 31.6287 43.7062 31.9584C43.8352 32.2164 43.8998 32.496 43.8998 32.797V35.7643C43.8854 35.9363 43.8711 36.1442 43.8567 36.3879C43.8424 36.6316 43.8352 36.8967 43.8352 37.1835C43.8352 37.4128 43.8352 37.6493 43.8352 37.893C43.8496 38.1367 43.8711 38.3804 43.8998 38.6241ZM48.1322 37.3125C48.2039 37.1261 48.2613 36.9612 48.3043 36.8179C48.3474 36.6602 48.3832 36.5097 48.4119 36.3664C48.5696 35.836 48.713 35.2984 48.8421 34.7537C48.9712 34.2089 49.1074 33.6643 49.2508 33.1195C49.3082 32.8472 49.4085 32.5677 49.552 32.2809C49.6523 32.0229 49.7957 31.8007 49.9822 31.6144C50.1829 31.428 50.4052 31.2703 50.649 31.1413C50.9502 30.998 51.2083 31.0338 51.4234 31.2488C51.6241 31.4495 51.6313 31.6717 51.4449 31.9154C51.3875 32.0301 51.3517 32.1519 51.3374 32.2809C51.323 32.3956 51.3087 32.5103 51.2943 32.625C51.1939 33.1267 51.072 33.6213 50.9287 34.1086C50.7996 34.596 50.6849 35.0905 50.5845 35.5923C50.4841 36.0796 50.3837 36.5599 50.2833 37.0329C50.1829 37.506 50.0538 37.9862 49.8961 38.4736C49.8387 38.7029 49.7742 38.9251 49.7025 39.1402C49.6308 39.3409 49.5448 39.5559 49.4444 39.7852C49.4014 39.8855 49.3512 39.9859 49.2938 40.0863C49.2364 40.1723 49.1719 40.2583 49.1002 40.3443C48.8277 40.6596 48.5051 40.8173 48.1322 40.8173C47.7594 40.8173 47.4367 40.6596 47.1643 40.3443C47.0208 40.1866 46.9061 40.0146 46.8201 39.8282C46.734 39.6275 46.6551 39.4197 46.5835 39.2047C46.3397 38.5309 46.1532 37.8428 46.0242 37.1404C45.8951 36.4237 45.7876 35.7141 45.7015 35.0117C45.6585 34.7107 45.6226 34.4097 45.594 34.1086C45.5796 33.7933 45.5653 33.4851 45.5509 33.184C45.5509 32.9833 45.5581 32.7898 45.5725 32.6035C45.6011 32.4028 45.6441 32.2092 45.7015 32.0229C45.7445 31.8796 45.8091 31.7362 45.8951 31.5929C46.0958 31.3491 46.3181 31.2345 46.562 31.2488C46.8201 31.2631 47.0208 31.4137 47.1643 31.7004C47.2359 31.8581 47.2933 32.0229 47.3363 32.1949C47.3794 32.3669 47.408 32.5461 47.4224 32.7325C47.4941 33.4062 47.573 34.0871 47.659 34.7752C47.7594 35.449 47.8741 36.1226 48.0032 36.7964C48.0175 36.8681 48.0318 36.9469 48.0462 37.0329C48.0748 37.1046 48.1035 37.1978 48.1322 37.3125ZM54.6502 33.313C54.7506 33.2413 54.8151 33.1697 54.8438 33.098C54.8725 33.012 54.9012 32.9403 54.9298 32.883C55.0589 32.6393 55.2095 32.4099 55.3815 32.1949C55.5536 31.9656 55.7616 31.7792 56.0054 31.6359C56.3352 31.4352 56.6579 31.3205 56.9733 31.2918C57.3032 31.2488 57.6331 31.3276 57.9628 31.5284C58.2067 31.6574 58.3859 31.8509 58.5006 32.1089C58.6297 32.3669 58.6656 32.625 58.6082 32.883C58.5652 33.1553 58.4505 33.3345 58.264 33.4206C58.0776 33.5066 57.8625 33.4779 57.6187 33.3345C57.4896 33.2628 57.3821 33.227 57.296 33.227C57.21 33.227 57.1096 33.2844 56.9949 33.3991C56.9375 33.4564 56.8802 33.5281 56.8228 33.6141C56.7797 33.7001 56.7296 33.7789 56.6722 33.8506C56.5718 34.0799 56.4858 34.3093 56.4141 34.5387C56.3424 34.7537 56.2707 34.9759 56.199 35.2052C56.0699 35.6496 55.948 36.1011 55.8333 36.5599C55.7329 37.0042 55.6469 37.4558 55.5751 37.9145C55.5465 38.2012 55.5178 38.4879 55.4891 38.7746C55.4605 39.0613 55.4461 39.348 55.4461 39.6347C55.4461 39.735 55.4389 39.8425 55.4246 39.9572C55.4246 40.0719 55.403 40.1866 55.36 40.3013C55.2166 40.7313 54.9227 40.9463 54.4781 40.9463C54.0335 40.9893 53.7109 40.8101 53.5101 40.4088C53.4528 40.2941 53.4097 40.1723 53.381 40.0432C53.3667 39.9142 53.3452 39.7995 53.3165 39.6992C53.2161 39.0971 53.1301 38.5023 53.0584 37.9145C52.9867 37.3125 52.915 36.7104 52.8433 36.1083C52.7859 35.5206 52.7501 34.9257 52.7357 34.3236C52.7214 33.7073 52.7214 33.0908 52.7357 32.4745C52.7357 32.0731 52.8863 31.7792 53.1874 31.5929C53.4456 31.4352 53.7109 31.4137 53.9833 31.5284C54.2558 31.6287 54.4351 31.8222 54.5211 32.1089C54.6071 32.3383 54.6502 32.5677 54.6502 32.797C54.6358 32.8687 54.6287 32.9475 54.6287 33.0335C54.643 33.1195 54.6502 33.2127 54.6502 33.313ZM59.6044 36.4739C59.6044 35.8001 59.6976 35.155 59.8841 34.5387C60.0848 33.9079 60.3429 33.2915 60.6585 32.6895C60.8162 32.4028 61.0026 32.1304 61.2177 31.8724C61.4329 31.6144 61.6766 31.3922 61.9491 31.2058C62.3219 30.9478 62.7091 30.7973 63.1107 30.7543C63.5409 30.7256 63.9281 30.8188 64.2723 31.0338C64.6165 31.2488 64.8817 31.5427 65.0682 31.9154C65.2546 32.2737 65.3119 32.6823 65.2403 33.141C65.2259 33.27 65.1973 33.4062 65.1542 33.5496C65.1112 33.6929 65.0538 33.8291 64.9822 33.9581C64.7957 34.3165 64.5734 34.6605 64.3153 34.9902C64.0715 35.3056 63.7704 35.5851 63.4119 35.8288C63.1824 35.9865 62.9386 36.1227 62.6805 36.2373C62.4367 36.3377 62.1714 36.3807 61.8846 36.3664C61.7842 36.3664 61.7196 36.3807 61.691 36.4094C61.6766 36.4381 61.6695 36.5026 61.6695 36.6029C61.6551 36.8322 61.6695 37.0616 61.7125 37.291C61.7555 37.5203 61.8129 37.7497 61.8846 37.979C61.9706 38.1654 62.0495 38.2729 62.1212 38.3016C62.1929 38.3303 62.3219 38.2873 62.5084 38.1726C62.7809 38.0292 63.0247 37.8357 63.2398 37.592C63.3688 37.4773 63.4979 37.377 63.627 37.291C63.756 37.1906 63.8851 37.0903 64.0142 36.9899C64.0715 36.9326 64.1576 36.8752 64.2723 36.8179C64.4874 36.7462 64.6666 36.7677 64.8101 36.8824C64.9678 36.9827 65.0467 37.1476 65.0467 37.377C65.0467 37.4773 65.0395 37.5777 65.0252 37.678C65.0108 37.7783 64.9893 37.8787 64.9606 37.979C64.7742 38.5238 64.5089 38.9968 64.1647 39.3982C63.8206 39.7995 63.3545 40.0934 62.7665 40.2798C61.9491 40.4948 61.2393 40.3013 60.637 39.6992C60.3214 39.3839 60.0992 39.0326 59.9701 38.6456C59.8411 38.2586 59.7406 37.8572 59.669 37.4415C59.6546 37.2838 59.6403 37.1261 59.6259 36.9684C59.6259 36.7964 59.6188 36.6316 59.6044 36.4739ZM63.627 32.926C63.627 32.8257 63.6198 32.7397 63.6055 32.668C63.5911 32.582 63.5481 32.5246 63.4764 32.496C63.376 32.4386 63.2469 32.4745 63.0892 32.6035C63.0318 32.6322 62.9816 32.668 62.9386 32.711C62.8956 32.754 62.8454 32.8042 62.788 32.8615C62.6016 33.0908 62.4439 33.3417 62.3148 33.6141C62.2001 33.8864 62.0925 34.1588 61.9921 34.4312C61.9204 34.5315 61.9276 34.6104 62.0137 34.6677C62.0423 34.6964 62.0782 34.7107 62.1212 34.7107C62.1785 34.6964 62.2216 34.682 62.2503 34.6677C62.8956 34.3093 63.3473 33.7789 63.6055 33.0765C63.6198 33.0478 63.627 33.0192 63.627 32.9905C63.627 32.9475 63.627 32.926 63.627 32.926Z" fill="white"/>
<path d="M44.336 45.1163C44.4006 45.127 44.4615 45.1378 44.5189 45.1485C44.5763 45.1557 44.6336 45.1682 44.691 45.1861C44.7627 45.2112 44.8326 45.2399 44.9007 45.2721C44.9724 45.3044 45.0369 45.3492 45.0943 45.4065C45.27 45.6036 45.3363 45.8312 45.2933 46.0892C45.2431 46.3974 45.1122 46.6609 44.9007 46.8794C44.7035 47.0873 44.483 47.2396 44.2392 47.3363C43.9955 47.4331 43.7319 47.4887 43.4487 47.503C43.334 47.503 43.239 47.4672 43.1637 47.3955C43.0956 47.331 43.0669 47.2503 43.0776 47.1536C43.0848 47.0927 43.1135 47.0515 43.1637 47.03C43.2139 47.0085 43.2623 47.0174 43.3089 47.0568C43.3555 47.0927 43.3985 47.1052 43.438 47.0945C43.481 47.0837 43.524 47.0712 43.567 47.0568C43.5814 47.0532 43.5868 47.0461 43.5831 47.0353C43.5831 47.0246 43.5814 47.0156 43.5778 47.0085C43.5634 46.8221 43.5311 46.6411 43.481 46.4655C43.4343 46.2899 43.3985 46.1107 43.3734 45.9279C43.3483 45.7416 43.3214 45.5571 43.2927 45.3743C43.2677 45.188 43.2497 45.0016 43.239 44.8152C43.2318 44.7149 43.2246 44.6163 43.2175 44.5195C43.2103 44.4228 43.2031 44.326 43.1959 44.2293C43.1959 44.2006 43.1977 44.1737 43.2014 44.1487C43.2049 44.1236 43.2067 44.0985 43.2067 44.0734C43.2103 44.0232 43.2157 43.9766 43.2229 43.9336C43.23 43.8906 43.2264 43.8458 43.2121 43.7992C43.2049 43.7491 43.2103 43.7007 43.2282 43.6541C43.2462 43.6075 43.2712 43.5681 43.3035 43.5358C43.4398 43.3925 43.5886 43.2921 43.7499 43.2348C43.9148 43.1739 44.0958 43.1685 44.293 43.2187C44.4293 43.2545 44.5458 43.3298 44.6426 43.4444C44.7394 43.5556 44.7949 43.6828 44.8093 43.8261C44.8236 43.9157 44.8218 44.0035 44.8039 44.0895C44.7895 44.1719 44.768 44.2562 44.7394 44.3422C44.7035 44.4533 44.6569 44.5625 44.5996 44.6701C44.5422 44.774 44.483 44.8762 44.4221 44.9765C44.4077 44.998 44.3934 45.0213 44.379 45.0463C44.3683 45.0679 44.354 45.0912 44.336 45.1163ZM43.7714 45.0088C43.7965 44.998 43.8126 44.9837 43.8198 44.9657C43.827 44.9442 43.8377 44.9263 43.852 44.912C43.9238 44.8188 43.9901 44.722 44.051 44.6217C44.1119 44.5178 44.1657 44.4102 44.2124 44.2992C44.2374 44.2419 44.259 44.1845 44.2769 44.1272C44.2984 44.0662 44.3092 44.0053 44.3092 43.9444C44.3092 43.7831 44.2321 43.6971 44.0779 43.6864C44.017 43.6864 43.9578 43.6953 43.9005 43.7132C43.8431 43.7311 43.7893 43.7544 43.7391 43.7831C43.7355 43.7867 43.7284 43.7921 43.7176 43.7992C43.7104 43.8028 43.7086 43.8118 43.7122 43.8261C43.7409 43.8763 43.7302 43.9247 43.6799 43.9712C43.6728 43.9784 43.6692 43.991 43.6692 44.0089C43.6728 44.0232 43.6764 44.0376 43.6799 44.0519C43.6871 44.1307 43.6943 44.2114 43.7015 44.2938C43.7086 44.3727 43.7158 44.4497 43.723 44.525C43.7266 44.6038 43.7319 44.6844 43.7391 44.7668C43.7463 44.8457 43.757 44.9263 43.7714 45.0088ZM43.8897 46.944C43.9291 46.926 43.965 46.9099 43.9973 46.8955C44.0331 46.8777 44.0671 46.8615 44.0994 46.8472C44.2249 46.7862 44.3378 46.7146 44.4382 46.6322C44.5422 46.5462 44.6264 46.4404 44.691 46.315C44.7304 46.2433 44.7609 46.1681 44.7824 46.0892C44.8039 46.0068 44.811 45.9244 44.8039 45.8419C44.8003 45.7774 44.7842 45.7291 44.7555 45.6968C44.7268 45.661 44.6802 45.6341 44.6157 45.6162C44.5583 45.5983 44.4991 45.5911 44.4382 45.5947C44.3773 45.5947 44.3181 45.5983 44.2607 45.6054C44.1891 45.609 44.1174 45.6216 44.0456 45.6431C43.9775 45.6646 43.9076 45.6789 43.8359 45.6861C43.8144 45.6861 43.8037 45.6933 43.8037 45.7076C43.8037 45.7183 43.8037 45.7326 43.8037 45.7506C43.8144 45.8617 43.8215 45.9746 43.8252 46.0892C43.8323 46.2003 43.8377 46.3132 43.8413 46.4279C43.8485 46.5067 43.8538 46.5892 43.8574 46.6752C43.8646 46.7612 43.8753 46.8508 43.8897 46.944ZM46.1927 45.6968C46.2179 45.6789 46.234 45.661 46.2412 45.6431C46.2483 45.6216 46.2555 45.6036 46.2627 45.5893C46.2949 45.5284 46.3325 45.471 46.3756 45.4173C46.4186 45.36 46.4706 45.3133 46.5315 45.2775C46.614 45.2273 46.6947 45.1987 46.7735 45.1915C46.856 45.1808 46.9385 45.2005 47.0209 45.2506C47.0819 45.2829 47.1267 45.3313 47.1554 45.3958C47.1876 45.4603 47.1966 45.5248 47.1822 45.5893C47.1715 45.6574 47.1428 45.7022 47.0962 45.7237C47.0496 45.7452 46.9958 45.738 46.9348 45.7022C46.9026 45.6843 46.8757 45.6753 46.8542 45.6753C46.8327 45.6753 46.8076 45.6896 46.7789 45.7183C46.7645 45.7326 46.7502 45.7506 46.7359 45.7721C46.7251 45.7936 46.7126 45.8133 46.6982 45.8312C46.6732 45.8886 46.6516 45.9459 46.6337 46.0032C46.6158 46.057 46.5979 46.1126 46.5799 46.1699C46.5477 46.2809 46.5172 46.3939 46.4885 46.5085C46.4634 46.6196 46.4419 46.7325 46.424 46.8472C46.4168 46.9189 46.4096 46.9905 46.4025 47.0622C46.3953 47.1339 46.3917 47.2055 46.3917 47.2772C46.3917 47.3023 46.3899 47.3292 46.3863 47.3578C46.3863 47.3865 46.381 47.4152 46.3702 47.4438C46.3343 47.5514 46.2609 47.6052 46.1497 47.6052C46.0386 47.6159 45.9579 47.5711 45.9077 47.4708C45.8934 47.4421 45.8826 47.4116 45.8755 47.3793C45.8718 47.3471 45.8665 47.3185 45.8593 47.2933C45.8342 47.1428 45.8127 46.9941 45.7948 46.8472C45.7769 46.6967 45.7589 46.5462 45.741 46.3956C45.7267 46.2487 45.7177 46.1 45.7141 45.9494C45.7105 45.7954 45.7105 45.6413 45.7141 45.4871C45.7141 45.3868 45.7517 45.3133 45.827 45.2668C45.8916 45.2273 45.9579 45.222 46.026 45.2506C46.0941 45.2757 46.1389 45.3241 46.1605 45.3958C46.182 45.4531 46.1927 45.5105 46.1927 45.5678C46.1892 45.5857 46.1874 45.6054 46.1874 45.6269C46.1909 45.6484 46.1927 45.6718 46.1927 45.6968ZM48.6305 47.0353C48.6054 47.0532 48.5857 47.0765 48.5714 47.1052C48.5606 47.1303 48.5463 47.1518 48.5284 47.1697C48.4925 47.2235 48.4531 47.2737 48.4101 47.3202C48.367 47.3632 48.315 47.3973 48.2541 47.4223C48.1537 47.469 48.0515 47.4725 47.9476 47.4331C47.8472 47.3901 47.7773 47.3167 47.7378 47.2127C47.659 47.012 47.6357 46.8203 47.6679 46.6375C47.7038 46.4547 47.7862 46.2809 47.9153 46.1161C47.987 46.0265 48.0712 45.9638 48.168 45.9279C48.2684 45.8886 48.3778 45.8814 48.4961 45.9064C48.5032 45.9064 48.5086 45.9083 48.5122 45.9118C48.5194 45.9118 48.5265 45.9118 48.5337 45.9118C48.548 45.8832 48.5517 45.8581 48.5445 45.8366C48.5373 45.8115 48.5319 45.7864 48.5284 45.7613C48.514 45.6825 48.4961 45.6072 48.4746 45.5356C48.4566 45.4639 48.4334 45.394 48.4047 45.3259C48.3616 45.2327 48.3222 45.1825 48.2863 45.1754C48.2541 45.1682 48.2003 45.1969 48.125 45.2614C48.0067 45.3618 47.9046 45.4818 47.8185 45.6216C47.7898 45.6574 47.7755 45.6933 47.7755 45.7291C47.7755 45.8079 47.7378 45.8581 47.6625 45.8796C47.6375 45.8868 47.607 45.8832 47.5711 45.8688C47.5352 45.8545 47.5066 45.8348 47.4851 45.8097C47.4384 45.738 47.4223 45.6592 47.4367 45.5732C47.451 45.4908 47.4743 45.4137 47.5066 45.342C47.5389 45.2668 47.5783 45.1969 47.6249 45.1324C47.6751 45.0607 47.7288 44.9962 47.7862 44.9388C47.8436 44.878 47.9081 44.8242 47.9798 44.7776C48.0945 44.7059 48.2182 44.6755 48.3509 44.6862C48.4871 44.6934 48.6072 44.7561 48.7112 44.8743C48.7578 44.921 48.7936 44.9729 48.8188 45.0303C48.8474 45.084 48.8743 45.1413 48.8994 45.2023C48.9389 45.3133 48.9711 45.4263 48.9962 45.5409C49.0249 45.6556 49.0464 45.7721 49.0607 45.8903C49.0787 46.0516 49.0948 46.2111 49.1092 46.3687C49.1235 46.5264 49.136 46.6859 49.1468 46.8472C49.1575 46.9404 49.1575 47.0353 49.1468 47.1321C49.1396 47.2396 49.0948 47.3167 49.0124 47.3632C48.9299 47.4062 48.8438 47.3991 48.7542 47.3417C48.7183 47.3167 48.6933 47.2862 48.6789 47.2503C48.6646 47.2145 48.6538 47.1769 48.6467 47.1375C48.6431 47.1195 48.6413 47.1034 48.6413 47.0891C48.6413 47.0712 48.6377 47.0532 48.6305 47.0353ZM48.1734 46.9117C48.2308 46.8508 48.2863 46.7917 48.3401 46.7343C48.3939 46.6734 48.4405 46.6071 48.4799 46.5354C48.4907 46.5139 48.4889 46.4888 48.4746 46.4602C48.4638 46.4279 48.4459 46.4046 48.4208 46.3902C48.3957 46.3724 48.376 46.3706 48.3616 46.3849C48.3509 46.3956 48.3366 46.4046 48.3186 46.4117C48.315 46.4189 48.3096 46.4261 48.3025 46.4332C48.2953 46.4404 48.2899 46.4476 48.2863 46.4547C48.2398 46.5229 48.2057 46.5945 48.1842 46.6698C48.1627 46.7415 48.1591 46.8221 48.1734 46.9117ZM50.4992 47.0407C50.4741 47.0335 50.449 47.0264 50.4239 47.0192C50.4024 47.0085 50.3791 46.9995 50.354 46.9923C49.8664 46.806 49.6029 46.4566 49.5635 45.9441C49.5492 45.7793 49.5742 45.6269 49.6388 45.4871C49.7033 45.3474 49.8037 45.2291 49.9399 45.1324C50.026 45.0715 50.1156 45.032 50.2088 45.0141C50.302 44.9962 50.3988 45.0141 50.4992 45.0678C50.5315 45.0822 50.562 45.1019 50.5907 45.127C50.6229 45.1521 50.648 45.1808 50.6659 45.213C50.8559 45.4997 50.8882 45.8026 50.7627 46.1215C50.752 46.1609 50.7268 46.1914 50.6875 46.2129C50.6516 46.2344 50.6157 46.2416 50.5799 46.2344C50.4974 46.2272 50.4508 46.1717 50.4401 46.0678C50.4401 46.0176 50.4401 45.9692 50.4401 45.9226C50.4436 45.8724 50.4419 45.8241 50.4347 45.7774C50.4311 45.738 50.4221 45.7004 50.4078 45.6646C50.3971 45.6251 50.3791 45.5893 50.354 45.5571C50.3146 45.5141 50.2733 45.5086 50.2303 45.5409C50.1873 45.5768 50.1532 45.6198 50.1282 45.6699C50.103 45.7165 50.0833 45.7685 50.069 45.8258C50.051 45.9477 50.0762 46.0695 50.1443 46.1914C50.216 46.3132 50.302 46.401 50.4024 46.4547C50.4634 46.487 50.5243 46.5139 50.5852 46.5354C50.6462 46.5533 50.7107 46.5694 50.7788 46.5838C50.8111 46.5909 50.8416 46.5999 50.8703 46.6107C50.9026 46.6214 50.9348 46.6304 50.9671 46.6375C51.0495 46.6698 51.1087 46.7235 51.1445 46.7988C51.1804 46.8705 51.1875 46.9493 51.166 47.0353C51.1517 47.1142 51.1123 47.1858 51.0477 47.2503C50.9689 47.34 50.8792 47.4152 50.7788 47.4762C50.6785 47.537 50.5763 47.5962 50.4723 47.6535C50.4078 47.6858 50.3433 47.7145 50.2787 47.7395C50.2178 47.7682 50.1515 47.7879 50.0797 47.7987C50.0475 47.8023 50.0152 47.8023 49.9829 47.7987C49.9542 47.7951 49.9238 47.7897 49.8915 47.7825C49.8019 47.7538 49.7481 47.7019 49.7302 47.6266C49.7123 47.555 49.7158 47.4887 49.741 47.4278C49.7589 47.3776 49.7858 47.3346 49.8216 47.2987C49.8503 47.2737 49.8789 47.2575 49.9077 47.2503C49.9399 47.2432 49.9704 47.2485 49.9991 47.2665C50.0242 47.2808 50.0457 47.2862 50.0636 47.2826C50.0815 47.279 50.0995 47.2737 50.1174 47.2665C50.1676 47.2378 50.2178 47.2109 50.268 47.1858C50.3218 47.1608 50.3737 47.1339 50.4239 47.1052C50.4382 47.098 50.4526 47.0891 50.4669 47.0783C50.4813 47.0676 50.492 47.055 50.4992 47.0407ZM51.6612 44.7937C51.5572 44.8403 51.4676 44.826 51.3923 44.7507C51.3673 44.722 51.3511 44.6844 51.3439 44.6378C51.3368 44.5912 51.3421 44.5465 51.3601 44.5034C51.3816 44.4569 51.4174 44.4192 51.4676 44.3905C51.5178 44.3583 51.568 44.3422 51.6182 44.3422C51.7222 44.3422 51.7921 44.3905 51.8279 44.4874C51.8458 44.5303 51.8476 44.5751 51.8333 44.6217C51.8226 44.6647 51.7975 44.7024 51.758 44.7346C51.7437 44.7489 51.7275 44.7615 51.7096 44.7722C51.6953 44.7794 51.6792 44.7865 51.6612 44.7937ZM51.8763 47.0246C51.8906 47.0998 51.8674 47.1536 51.8064 47.1858C51.7419 47.2181 51.6773 47.2109 51.6128 47.1643C51.5841 47.1393 51.5626 47.1106 51.5483 47.0783C51.5339 47.0461 51.5196 47.012 51.5052 46.9762C51.4945 46.926 51.4837 46.874 51.473 46.8203C51.4658 46.7665 51.4586 46.7146 51.4515 46.6644C51.4299 46.4852 51.4121 46.3061 51.3977 46.1269C51.3869 45.9441 51.3888 45.7631 51.4031 45.5839C51.4067 45.5445 51.4121 45.5051 51.4192 45.4656C51.4264 45.4226 51.4425 45.3833 51.4676 45.3474C51.4856 45.3116 51.5089 45.2829 51.5375 45.2614C51.5698 45.2399 51.6074 45.2291 51.6505 45.2291C51.7329 45.2327 51.7921 45.2757 51.8279 45.3581C51.8602 45.4226 51.8763 45.4926 51.8763 45.5678V46.3096C51.8728 46.3526 51.8691 46.4046 51.8656 46.4655C51.862 46.5264 51.8602 46.5927 51.8602 46.6644C51.8602 46.7217 51.8602 46.7809 51.8602 46.8418C51.8638 46.9027 51.8691 46.9637 51.8763 47.0246ZM52.7946 46.9385C52.7946 46.9887 52.7964 47.0407 52.8 47.0945C52.8036 47.1482 52.8018 47.2038 52.7946 47.2611C52.7946 47.2755 52.7946 47.2933 52.7946 47.3148C52.7946 47.3328 52.7928 47.3525 52.7892 47.374C52.7785 47.4457 52.7408 47.4887 52.6763 47.503C52.6046 47.5066 52.5472 47.4851 52.5042 47.4385C52.4791 47.4098 52.4594 47.3776 52.4451 47.3417C52.4343 47.3059 52.4217 47.27 52.4074 47.2342C52.3931 47.1697 52.3805 47.1052 52.3698 47.0407C52.3626 46.9762 52.3572 46.9117 52.3536 46.8472C52.3321 46.6501 52.3178 46.453 52.3106 46.2559C52.307 46.0588 52.3016 45.8617 52.2945 45.6646C52.2909 45.3815 52.2873 45.1001 52.2837 44.8206C52.2837 44.541 52.2855 44.2597 52.2891 43.9766C52.2891 43.9516 52.2891 43.9282 52.2891 43.9067C52.2927 43.8817 52.2981 43.8566 52.3053 43.8315C52.3231 43.7813 52.3518 43.7401 52.3913 43.7079C52.4307 43.672 52.4773 43.6541 52.5311 43.6541C52.6422 43.6541 52.714 43.7132 52.7462 43.8315C52.757 43.8637 52.7623 43.896 52.7623 43.9282C52.7766 44.1612 52.7856 44.3942 52.7892 44.6271C52.7964 44.86 52.8018 45.093 52.8054 45.3259C52.8054 45.351 52.8054 45.4101 52.8054 45.5033C52.8054 45.5965 52.8054 45.7076 52.8054 45.8366C52.8054 45.962 52.8036 46.0946 52.8 46.2344C52.8 46.3741 52.8 46.5067 52.8 46.6322C52.8 46.754 52.7982 46.8562 52.7946 46.9385Z" fill="white"/>
</svg>
