<svg width="1310" height="740" viewBox="0 0 1310 740" fill="none" xmlns="http://www.w3.org/2000/svg">
<rect width="1310" height="740" fill="white"/>
<rect x="418" y="239" width="474" height="262" rx="32" fill="white"/>
<path d="M563.904 303H557.716V285.545H563.955C565.711 285.545 567.222 285.895 568.489 286.594C569.756 287.287 570.73 288.284 571.412 289.585C572.1 290.886 572.444 292.443 572.444 294.256C572.444 296.074 572.1 297.636 571.412 298.943C570.73 300.25 569.75 301.253 568.472 301.952C567.199 302.651 565.676 303 563.904 303ZM561.407 299.838H563.75C564.841 299.838 565.759 299.645 566.503 299.259C567.253 298.866 567.816 298.261 568.191 297.443C568.571 296.619 568.762 295.557 568.762 294.256C568.762 292.966 568.571 291.912 568.191 291.094C567.816 290.276 567.256 289.673 566.512 289.287C565.767 288.901 564.85 288.707 563.759 288.707H561.407V299.838ZM575.109 303V289.909H578.74V303H575.109ZM576.933 288.222C576.393 288.222 575.93 288.043 575.544 287.685C575.163 287.321 574.973 286.886 574.973 286.381C574.973 285.881 575.163 285.452 575.544 285.094C575.93 284.73 576.393 284.548 576.933 284.548C577.473 284.548 577.933 284.73 578.314 285.094C578.7 285.452 578.893 285.881 578.893 286.381C578.893 286.886 578.7 287.321 578.314 287.685C577.933 288.043 577.473 288.222 576.933 288.222ZM587.546 308.182C586.37 308.182 585.361 308.02 584.52 307.696C583.685 307.378 583.02 306.943 582.526 306.392C582.032 305.841 581.711 305.222 581.563 304.534L584.921 304.082C585.023 304.344 585.185 304.588 585.407 304.815C585.628 305.043 585.921 305.224 586.284 305.361C586.654 305.503 587.103 305.574 587.631 305.574C588.421 305.574 589.071 305.381 589.583 304.994C590.1 304.614 590.358 303.974 590.358 303.077V300.682H590.205C590.046 301.045 589.807 301.389 589.489 301.713C589.171 302.037 588.762 302.301 588.262 302.506C587.762 302.71 587.165 302.812 586.472 302.812C585.489 302.812 584.594 302.585 583.787 302.131C582.986 301.67 582.347 300.969 581.87 300.026C581.398 299.077 581.162 297.878 581.162 296.429C581.162 294.946 581.404 293.707 581.887 292.713C582.37 291.719 583.012 290.974 583.813 290.48C584.62 289.986 585.503 289.739 586.463 289.739C587.196 289.739 587.81 289.864 588.304 290.114C588.799 290.358 589.196 290.665 589.498 291.034C589.804 291.398 590.04 291.756 590.205 292.108H590.341V289.909H593.946V303.128C593.946 304.241 593.674 305.173 593.128 305.923C592.583 306.673 591.827 307.236 590.861 307.611C589.901 307.991 588.796 308.182 587.546 308.182ZM587.623 300.085C588.208 300.085 588.702 299.94 589.105 299.651C589.515 299.355 589.827 298.935 590.043 298.389C590.265 297.838 590.375 297.179 590.375 296.412C590.375 295.645 590.267 294.98 590.051 294.418C589.836 293.849 589.523 293.409 589.114 293.097C588.705 292.784 588.208 292.628 587.623 292.628C587.026 292.628 586.523 292.79 586.114 293.114C585.705 293.432 585.395 293.875 585.185 294.443C584.975 295.011 584.87 295.668 584.87 296.412C584.87 297.168 584.975 297.821 585.185 298.372C585.401 298.918 585.711 299.341 586.114 299.642C586.523 299.937 587.026 300.085 587.623 300.085ZM596.836 303V289.909H600.466V303H596.836ZM598.659 288.222C598.12 288.222 597.657 288.043 597.27 287.685C596.89 287.321 596.699 286.886 596.699 286.381C596.699 285.881 596.89 285.452 597.27 285.094C597.657 284.73 598.12 284.548 598.659 284.548C599.199 284.548 599.659 284.73 600.04 285.094C600.426 285.452 600.62 285.881 600.62 286.381C600.62 286.886 600.426 287.321 600.04 287.685C599.659 288.043 599.199 288.222 598.659 288.222ZM610.338 289.909V292.636H602.454V289.909H610.338ZM604.244 286.773H607.875V298.977C607.875 299.312 607.926 299.574 608.028 299.761C608.13 299.943 608.272 300.071 608.454 300.145C608.642 300.219 608.858 300.256 609.102 300.256C609.272 300.256 609.443 300.241 609.613 300.213C609.784 300.179 609.914 300.153 610.005 300.136L610.576 302.838C610.395 302.895 610.139 302.96 609.809 303.034C609.48 303.114 609.079 303.162 608.608 303.179C607.733 303.213 606.966 303.097 606.306 302.83C605.653 302.562 605.145 302.148 604.781 301.585C604.417 301.023 604.238 300.312 604.244 299.455V286.773ZM618.528 303.256C617.181 303.256 616.022 302.983 615.051 302.438C614.085 301.886 613.341 301.108 612.818 300.102C612.295 299.091 612.034 297.895 612.034 296.514C612.034 295.168 612.295 293.986 612.818 292.969C613.341 291.952 614.076 291.159 615.025 290.591C615.98 290.023 617.099 289.739 618.383 289.739C619.247 289.739 620.051 289.878 620.795 290.156C621.545 290.429 622.199 290.841 622.755 291.392C623.318 291.943 623.755 292.636 624.068 293.472C624.38 294.301 624.537 295.273 624.537 296.386V297.384H613.483V295.134H621.119C621.119 294.611 621.005 294.148 620.778 293.744C620.551 293.341 620.235 293.026 619.832 292.798C619.434 292.565 618.971 292.449 618.443 292.449C617.892 292.449 617.403 292.577 616.977 292.832C616.556 293.082 616.227 293.42 615.988 293.847C615.75 294.267 615.627 294.736 615.622 295.253V297.392C615.622 298.04 615.741 298.599 615.98 299.071C616.224 299.543 616.568 299.906 617.011 300.162C617.454 300.418 617.98 300.545 618.588 300.545C618.991 300.545 619.36 300.489 619.696 300.375C620.031 300.261 620.318 300.091 620.556 299.864C620.795 299.636 620.977 299.358 621.102 299.028L624.46 299.25C624.289 300.057 623.94 300.761 623.412 301.364C622.889 301.96 622.213 302.426 621.383 302.761C620.559 303.091 619.608 303.256 618.528 303.256ZM643.353 293.642L640.029 293.847C639.972 293.562 639.85 293.307 639.662 293.08C639.475 292.847 639.228 292.662 638.921 292.526C638.62 292.384 638.259 292.312 637.838 292.312C637.276 292.312 636.801 292.432 636.415 292.67C636.029 292.903 635.836 293.216 635.836 293.608C635.836 293.92 635.961 294.185 636.211 294.401C636.461 294.616 636.89 294.79 637.498 294.92L639.867 295.398C641.14 295.659 642.088 296.08 642.713 296.659C643.338 297.239 643.651 298 643.651 298.943C643.651 299.801 643.398 300.554 642.892 301.202C642.392 301.849 641.705 302.355 640.83 302.719C639.961 303.077 638.958 303.256 637.821 303.256C636.088 303.256 634.708 302.895 633.679 302.173C632.657 301.446 632.057 300.457 631.881 299.207L635.452 299.02C635.56 299.548 635.821 299.952 636.236 300.23C636.651 300.503 637.182 300.639 637.83 300.639C638.466 300.639 638.978 300.517 639.364 300.273C639.756 300.023 639.955 299.702 639.961 299.31C639.955 298.98 639.816 298.71 639.543 298.5C639.27 298.284 638.85 298.119 638.282 298.006L636.015 297.554C634.736 297.298 633.784 296.855 633.159 296.224C632.54 295.594 632.23 294.79 632.23 293.812C632.23 292.972 632.458 292.247 632.912 291.639C633.373 291.031 634.017 290.562 634.847 290.233C635.682 289.903 636.659 289.739 637.779 289.739C639.432 289.739 640.733 290.088 641.682 290.787C642.637 291.486 643.194 292.437 643.353 293.642ZM651.903 303.256C650.556 303.256 649.397 302.983 648.426 302.438C647.46 301.886 646.716 301.108 646.193 300.102C645.67 299.091 645.409 297.895 645.409 296.514C645.409 295.168 645.67 293.986 646.193 292.969C646.716 291.952 647.451 291.159 648.4 290.591C649.355 290.023 650.474 289.739 651.758 289.739C652.622 289.739 653.426 289.878 654.17 290.156C654.92 290.429 655.574 290.841 656.13 291.392C656.693 291.943 657.13 292.636 657.443 293.472C657.755 294.301 657.912 295.273 657.912 296.386V297.384H646.858V295.134H654.494C654.494 294.611 654.38 294.148 654.153 293.744C653.926 293.341 653.61 293.026 653.207 292.798C652.809 292.565 652.346 292.449 651.818 292.449C651.267 292.449 650.778 292.577 650.352 292.832C649.931 293.082 649.602 293.42 649.363 293.847C649.125 294.267 649.002 294.736 648.997 295.253V297.392C648.997 298.04 649.116 298.599 649.355 299.071C649.599 299.543 649.943 299.906 650.386 300.162C650.829 300.418 651.355 300.545 651.963 300.545C652.366 300.545 652.735 300.489 653.071 300.375C653.406 300.261 653.693 300.091 653.931 299.864C654.17 299.636 654.352 299.358 654.477 299.028L657.835 299.25C657.664 300.057 657.315 300.761 656.787 301.364C656.264 301.96 655.588 302.426 654.758 302.761C653.934 303.091 652.983 303.256 651.903 303.256ZM668.676 297.426V289.909H672.306V303H668.821V300.622H668.684C668.389 301.389 667.897 302.006 667.21 302.472C666.528 302.937 665.696 303.17 664.713 303.17C663.838 303.17 663.068 302.972 662.403 302.574C661.738 302.176 661.218 301.611 660.843 300.878C660.474 300.145 660.287 299.267 660.281 298.244V289.909H663.912V297.597C663.917 298.369 664.125 298.98 664.534 299.429C664.943 299.878 665.491 300.102 666.179 300.102C666.616 300.102 667.025 300.003 667.406 299.804C667.787 299.599 668.093 299.298 668.326 298.901C668.565 298.503 668.681 298.011 668.676 297.426ZM686.731 303.256C685.385 303.256 684.225 302.983 683.254 302.438C682.288 301.886 681.544 301.108 681.021 300.102C680.498 299.091 680.237 297.895 680.237 296.514C680.237 295.168 680.498 293.986 681.021 292.969C681.544 291.952 682.279 291.159 683.228 290.591C684.183 290.023 685.302 289.739 686.586 289.739C687.45 289.739 688.254 289.878 688.998 290.156C689.748 290.429 690.402 290.841 690.958 291.392C691.521 291.943 691.958 292.636 692.271 293.472C692.583 294.301 692.74 295.273 692.74 296.386V297.384H681.686V295.134H689.322C689.322 294.611 689.208 294.148 688.981 293.744C688.754 293.341 688.439 293.026 688.035 292.798C687.637 292.565 687.174 292.449 686.646 292.449C686.095 292.449 685.606 292.577 685.18 292.832C684.76 293.082 684.43 293.42 684.191 293.847C683.953 294.267 683.831 294.736 683.825 295.253V297.392C683.825 298.04 683.944 298.599 684.183 299.071C684.427 299.543 684.771 299.906 685.214 300.162C685.657 300.418 686.183 300.545 686.791 300.545C687.194 300.545 687.564 300.489 687.899 300.375C688.234 300.261 688.521 300.091 688.76 299.864C688.998 299.636 689.18 299.358 689.305 299.028L692.663 299.25C692.493 300.057 692.143 300.761 691.615 301.364C691.092 301.96 690.416 302.426 689.586 302.761C688.762 303.091 687.811 303.256 686.731 303.256ZM703.265 294.392V297.273H695.305V294.392H703.265ZM706.359 303V289.909H709.819V292.219H709.973C710.245 291.452 710.7 290.847 711.336 290.403C711.973 289.96 712.734 289.739 713.62 289.739C714.518 289.739 715.282 289.963 715.913 290.412C716.544 290.855 716.964 291.457 717.174 292.219H717.311C717.578 291.469 718.061 290.869 718.76 290.42C719.464 289.966 720.297 289.739 721.257 289.739C722.478 289.739 723.47 290.128 724.231 290.906C724.998 291.679 725.382 292.776 725.382 294.196V303H721.76V294.912C721.76 294.185 721.566 293.639 721.18 293.276C720.794 292.912 720.311 292.73 719.731 292.73C719.072 292.73 718.558 292.94 718.189 293.361C717.819 293.776 717.635 294.324 717.635 295.006V303H714.115V294.835C714.115 294.193 713.93 293.682 713.561 293.301C713.197 292.92 712.717 292.73 712.12 292.73C711.717 292.73 711.353 292.832 711.029 293.037C710.711 293.236 710.458 293.517 710.271 293.881C710.083 294.239 709.99 294.659 709.99 295.142V303H706.359ZM731.983 303.247C731.147 303.247 730.403 303.102 729.75 302.812C729.096 302.517 728.579 302.082 728.199 301.509C727.824 300.929 727.636 300.207 727.636 299.344C727.636 298.616 727.77 298.006 728.037 297.511C728.304 297.017 728.667 296.619 729.127 296.318C729.588 296.017 730.11 295.79 730.696 295.636C731.287 295.483 731.906 295.375 732.554 295.312C733.315 295.233 733.929 295.159 734.395 295.091C734.86 295.017 735.199 294.909 735.409 294.767C735.619 294.625 735.724 294.415 735.724 294.136V294.085C735.724 293.545 735.554 293.128 735.213 292.832C734.877 292.537 734.4 292.389 733.781 292.389C733.127 292.389 732.608 292.534 732.221 292.824C731.835 293.108 731.579 293.466 731.454 293.898L728.096 293.625C728.267 292.83 728.602 292.142 729.102 291.562C729.602 290.977 730.247 290.528 731.037 290.216C731.832 289.898 732.752 289.739 733.798 289.739C734.525 289.739 735.221 289.824 735.886 289.994C736.556 290.165 737.15 290.429 737.667 290.787C738.19 291.145 738.602 291.605 738.903 292.168C739.204 292.724 739.355 293.392 739.355 294.17V303H735.912V301.185H735.809C735.599 301.594 735.318 301.955 734.966 302.267C734.613 302.574 734.19 302.815 733.696 302.991C733.201 303.162 732.63 303.247 731.983 303.247ZM733.022 300.741C733.556 300.741 734.028 300.636 734.437 300.426C734.846 300.21 735.167 299.92 735.4 299.557C735.633 299.193 735.75 298.781 735.75 298.321V296.932C735.636 297.006 735.48 297.074 735.281 297.136C735.088 297.193 734.869 297.247 734.625 297.298C734.38 297.344 734.136 297.386 733.892 297.426C733.647 297.46 733.426 297.491 733.227 297.52C732.801 297.582 732.429 297.682 732.11 297.818C731.792 297.955 731.545 298.139 731.369 298.372C731.193 298.599 731.105 298.884 731.105 299.224C731.105 299.719 731.284 300.097 731.642 300.358C732.005 300.614 732.466 300.741 733.022 300.741ZM742.172 303V289.909H745.802V303H742.172ZM743.995 288.222C743.456 288.222 742.993 288.043 742.606 287.685C742.225 287.321 742.035 286.886 742.035 286.381C742.035 285.881 742.225 285.452 742.606 285.094C742.993 284.73 743.456 284.548 743.995 284.548C744.535 284.548 744.995 284.73 745.376 285.094C745.762 285.452 745.956 285.881 745.956 286.381C745.956 286.886 745.762 287.321 745.376 287.685C744.995 288.043 744.535 288.222 743.995 288.222ZM752.341 285.545V303H748.711V285.545H752.341ZM503.083 324.432V332H499.453V318.909H502.913V321.219H503.066C503.356 320.457 503.842 319.855 504.524 319.412C505.206 318.963 506.032 318.739 507.004 318.739C507.913 318.739 508.706 318.938 509.382 319.335C510.058 319.733 510.583 320.301 510.958 321.04C511.333 321.773 511.521 322.648 511.521 323.665V332H507.89V324.312C507.896 323.511 507.691 322.886 507.277 322.438C506.862 321.983 506.291 321.756 505.564 321.756C505.075 321.756 504.643 321.861 504.268 322.071C503.899 322.281 503.609 322.588 503.399 322.991C503.194 323.389 503.089 323.869 503.083 324.432ZM520.297 332.256C518.973 332.256 517.828 331.974 516.863 331.412C515.902 330.844 515.161 330.054 514.638 329.043C514.115 328.026 513.854 326.847 513.854 325.506C513.854 324.153 514.115 322.972 514.638 321.96C515.161 320.943 515.902 320.153 516.863 319.591C517.828 319.023 518.973 318.739 520.297 318.739C521.621 318.739 522.763 319.023 523.723 319.591C524.689 320.153 525.434 320.943 525.956 321.96C526.479 322.972 526.74 324.153 526.74 325.506C526.74 326.847 526.479 328.026 525.956 329.043C525.434 330.054 524.689 330.844 523.723 331.412C522.763 331.974 521.621 332.256 520.297 332.256ZM520.314 329.443C520.917 329.443 521.419 329.273 521.823 328.932C522.226 328.585 522.53 328.114 522.735 327.517C522.945 326.92 523.05 326.241 523.05 325.48C523.05 324.719 522.945 324.04 522.735 323.443C522.53 322.847 522.226 322.375 521.823 322.028C521.419 321.682 520.917 321.509 520.314 321.509C519.706 321.509 519.195 321.682 518.78 322.028C518.371 322.375 518.061 322.847 517.851 323.443C517.647 324.04 517.544 324.719 517.544 325.48C517.544 326.241 517.647 326.92 517.851 327.517C518.061 328.114 518.371 328.585 518.78 328.932C519.195 329.273 519.706 329.443 520.314 329.443ZM540.884 318.909L536.307 332H532.216L527.64 318.909H531.475L534.194 328.276H534.33L537.04 318.909H540.884ZM546.123 332.247C545.288 332.247 544.544 332.102 543.89 331.812C543.237 331.517 542.72 331.082 542.339 330.509C541.964 329.929 541.777 329.207 541.777 328.344C541.777 327.616 541.91 327.006 542.177 326.511C542.444 326.017 542.808 325.619 543.268 325.318C543.728 325.017 544.251 324.79 544.836 324.636C545.427 324.483 546.047 324.375 546.694 324.312C547.456 324.233 548.069 324.159 548.535 324.091C549.001 324.017 549.339 323.909 549.549 323.767C549.76 323.625 549.865 323.415 549.865 323.136V323.085C549.865 322.545 549.694 322.128 549.353 321.832C549.018 321.537 548.541 321.389 547.922 321.389C547.268 321.389 546.748 321.534 546.362 321.824C545.975 322.108 545.72 322.466 545.595 322.898L542.237 322.625C542.407 321.83 542.743 321.142 543.243 320.562C543.743 319.977 544.387 319.528 545.177 319.216C545.973 318.898 546.893 318.739 547.939 318.739C548.666 318.739 549.362 318.824 550.027 318.994C550.697 319.165 551.291 319.429 551.808 319.787C552.331 320.145 552.743 320.605 553.044 321.168C553.345 321.724 553.495 322.392 553.495 323.17V332H550.052V330.185H549.95C549.74 330.594 549.458 330.955 549.106 331.267C548.754 331.574 548.331 331.815 547.836 331.991C547.342 332.162 546.771 332.247 546.123 332.247ZM547.163 329.741C547.697 329.741 548.169 329.636 548.578 329.426C548.987 329.21 549.308 328.92 549.541 328.557C549.774 328.193 549.89 327.781 549.89 327.321V325.932C549.777 326.006 549.62 326.074 549.422 326.136C549.228 326.193 549.01 326.247 548.765 326.298C548.521 326.344 548.277 326.386 548.032 326.426C547.788 326.46 547.566 326.491 547.368 326.52C546.941 326.582 546.569 326.682 546.251 326.818C545.933 326.955 545.686 327.139 545.51 327.372C545.333 327.599 545.245 327.884 545.245 328.224C545.245 328.719 545.424 329.097 545.782 329.358C546.146 329.614 546.606 329.741 547.163 329.741ZM556.312 332V318.909H559.772V321.219H559.926C560.199 320.452 560.653 319.847 561.289 319.403C561.926 318.96 562.687 318.739 563.574 318.739C564.471 318.739 565.235 318.963 565.866 319.412C566.497 319.855 566.917 320.457 567.127 321.219H567.264C567.531 320.469 568.014 319.869 568.713 319.42C569.417 318.966 570.25 318.739 571.21 318.739C572.431 318.739 573.423 319.128 574.184 319.906C574.951 320.679 575.335 321.776 575.335 323.196V332H571.713V323.912C571.713 323.185 571.52 322.639 571.133 322.276C570.747 321.912 570.264 321.73 569.684 321.73C569.025 321.73 568.511 321.94 568.142 322.361C567.772 322.776 567.588 323.324 567.588 324.006V332H564.068V323.835C564.068 323.193 563.883 322.682 563.514 322.301C563.15 321.92 562.67 321.73 562.074 321.73C561.67 321.73 561.306 321.832 560.983 322.037C560.664 322.236 560.412 322.517 560.224 322.881C560.037 323.239 559.943 323.659 559.943 324.142V332H556.312ZM584.169 332.256C582.822 332.256 581.663 331.983 580.691 331.438C579.725 330.886 578.981 330.108 578.458 329.102C577.936 328.091 577.674 326.895 577.674 325.514C577.674 324.168 577.936 322.986 578.458 321.969C578.981 320.952 579.717 320.159 580.666 319.591C581.62 319.023 582.74 318.739 584.024 318.739C584.887 318.739 585.691 318.878 586.436 319.156C587.186 319.429 587.839 319.841 588.396 320.392C588.958 320.943 589.396 321.636 589.708 322.472C590.021 323.301 590.177 324.273 590.177 325.386V326.384H579.123V324.134H586.76C586.76 323.611 586.646 323.148 586.419 322.744C586.191 322.341 585.876 322.026 585.473 321.798C585.075 321.565 584.612 321.449 584.083 321.449C583.532 321.449 583.044 321.577 582.618 321.832C582.197 322.082 581.868 322.42 581.629 322.847C581.39 323.267 581.268 323.736 581.262 324.253V326.392C581.262 327.04 581.382 327.599 581.62 328.071C581.865 328.543 582.208 328.906 582.652 329.162C583.095 329.418 583.62 329.545 584.228 329.545C584.632 329.545 585.001 329.489 585.336 329.375C585.672 329.261 585.958 329.091 586.197 328.864C586.436 328.636 586.618 328.358 586.743 328.028L590.1 328.25C589.93 329.057 589.581 329.761 589.052 330.364C588.529 330.96 587.853 331.426 587.024 331.761C586.2 332.091 585.248 332.256 584.169 332.256ZM596.177 324.432V332H592.547V318.909H596.007V321.219H596.16C596.45 320.457 596.936 319.855 597.618 319.412C598.299 318.963 599.126 318.739 600.098 318.739C601.007 318.739 601.799 318.938 602.475 319.335C603.152 319.733 603.677 320.301 604.052 321.04C604.427 321.773 604.615 322.648 604.615 323.665V332H600.984V324.312C600.99 323.511 600.785 322.886 600.37 322.438C599.956 321.983 599.385 321.756 598.657 321.756C598.169 321.756 597.737 321.861 597.362 322.071C596.993 322.281 596.703 322.588 596.493 322.991C596.288 323.389 596.183 323.869 596.177 324.432ZM614.439 318.909V321.636H606.556V318.909H614.439ZM608.346 315.773H611.976V327.977C611.976 328.312 612.027 328.574 612.13 328.761C612.232 328.943 612.374 329.071 612.556 329.145C612.743 329.219 612.959 329.256 613.203 329.256C613.374 329.256 613.544 329.241 613.715 329.213C613.885 329.179 614.016 329.153 614.107 329.136L614.678 331.838C614.496 331.895 614.24 331.96 613.911 332.034C613.581 332.114 613.181 332.162 612.709 332.179C611.834 332.213 611.067 332.097 610.408 331.83C609.755 331.562 609.246 331.148 608.882 330.585C608.519 330.023 608.34 329.312 608.346 328.455V315.773ZM622.63 332.256C621.283 332.256 620.124 331.983 619.152 331.438C618.186 330.886 617.442 330.108 616.919 329.102C616.397 328.091 616.135 326.895 616.135 325.514C616.135 324.168 616.397 322.986 616.919 321.969C617.442 320.952 618.178 320.159 619.127 319.591C620.081 319.023 621.201 318.739 622.485 318.739C623.348 318.739 624.152 318.878 624.897 319.156C625.647 319.429 626.3 319.841 626.857 320.392C627.419 320.943 627.857 321.636 628.169 322.472C628.482 323.301 628.638 324.273 628.638 325.386V326.384H617.584V324.134H625.221C625.221 323.611 625.107 323.148 624.88 322.744C624.652 322.341 624.337 322.026 623.934 321.798C623.536 321.565 623.073 321.449 622.544 321.449C621.993 321.449 621.505 321.577 621.078 321.832C620.658 322.082 620.328 322.42 620.09 322.847C619.851 323.267 619.729 323.736 619.723 324.253V326.392C619.723 327.04 619.843 327.599 620.081 328.071C620.326 328.543 620.669 328.906 621.113 329.162C621.556 329.418 622.081 329.545 622.689 329.545C623.093 329.545 623.462 329.489 623.797 329.375C624.132 329.261 624.419 329.091 624.658 328.864C624.897 328.636 625.078 328.358 625.203 328.028L628.561 328.25C628.391 329.057 628.042 329.761 627.513 330.364C626.99 330.96 626.314 331.426 625.485 331.761C624.661 332.091 623.709 332.256 622.63 332.256ZM636.562 336.909V318.909H640.142V321.108H640.304C640.463 320.756 640.693 320.398 640.994 320.034C641.301 319.665 641.699 319.358 642.187 319.114C642.681 318.864 643.295 318.739 644.028 318.739C644.983 318.739 645.863 318.989 646.67 319.489C647.477 319.983 648.122 320.73 648.605 321.73C649.088 322.724 649.329 323.972 649.329 325.472C649.329 326.932 649.093 328.165 648.622 329.17C648.156 330.17 647.52 330.929 646.713 331.446C645.912 331.957 645.014 332.213 644.02 332.213C643.315 332.213 642.716 332.097 642.221 331.864C641.733 331.631 641.332 331.338 641.02 330.986C640.707 330.628 640.468 330.267 640.304 329.903H640.193V336.909H636.562ZM640.116 325.455C640.116 326.233 640.224 326.912 640.44 327.491C640.656 328.071 640.968 328.523 641.377 328.847C641.787 329.165 642.284 329.324 642.869 329.324C643.46 329.324 643.96 329.162 644.369 328.838C644.778 328.509 645.088 328.054 645.298 327.474C645.514 326.889 645.622 326.216 645.622 325.455C645.622 324.699 645.517 324.034 645.306 323.46C645.096 322.886 644.787 322.437 644.377 322.114C643.968 321.79 643.466 321.628 642.869 321.628C642.278 321.628 641.778 321.784 641.369 322.097C640.966 322.409 640.656 322.852 640.44 323.426C640.224 324 640.116 324.676 640.116 325.455ZM655.483 332.247C654.647 332.247 653.903 332.102 653.25 331.812C652.596 331.517 652.079 331.082 651.699 330.509C651.324 329.929 651.136 329.207 651.136 328.344C651.136 327.616 651.27 327.006 651.537 326.511C651.804 326.017 652.167 325.619 652.627 325.318C653.088 325.017 653.61 324.79 654.196 324.636C654.787 324.483 655.406 324.375 656.054 324.312C656.815 324.233 657.429 324.159 657.895 324.091C658.36 324.017 658.699 323.909 658.909 323.767C659.119 323.625 659.224 323.415 659.224 323.136V323.085C659.224 322.545 659.054 322.128 658.713 321.832C658.377 321.537 657.9 321.389 657.281 321.389C656.627 321.389 656.108 321.534 655.721 321.824C655.335 322.108 655.079 322.466 654.954 322.898L651.596 322.625C651.767 321.83 652.102 321.142 652.602 320.562C653.102 319.977 653.747 319.528 654.537 319.216C655.332 318.898 656.252 318.739 657.298 318.739C658.025 318.739 658.721 318.824 659.386 318.994C660.056 319.165 660.65 319.429 661.167 319.787C661.69 320.145 662.102 320.605 662.403 321.168C662.704 321.724 662.855 322.392 662.855 323.17V332H659.412V330.185H659.309C659.099 330.594 658.818 330.955 658.466 331.267C658.113 331.574 657.69 331.815 657.196 331.991C656.701 332.162 656.13 332.247 655.483 332.247ZM656.522 329.741C657.056 329.741 657.528 329.636 657.937 329.426C658.346 329.21 658.667 328.92 658.9 328.557C659.133 328.193 659.25 327.781 659.25 327.321V325.932C659.136 326.006 658.98 326.074 658.781 326.136C658.588 326.193 658.369 326.247 658.125 326.298C657.88 326.344 657.636 326.386 657.392 326.426C657.147 326.46 656.926 326.491 656.727 326.52C656.301 326.582 655.929 326.682 655.61 326.818C655.292 326.955 655.045 327.139 654.869 327.372C654.693 327.599 654.605 327.884 654.605 328.224C654.605 328.719 654.784 329.097 655.142 329.358C655.505 329.614 655.966 329.741 656.522 329.741ZM665.672 332V318.909H669.191V321.193H669.328C669.566 320.381 669.967 319.767 670.529 319.352C671.092 318.932 671.74 318.722 672.473 318.722C672.654 318.722 672.85 318.733 673.061 318.756C673.271 318.778 673.456 318.81 673.615 318.849V322.071C673.444 322.02 673.208 321.974 672.907 321.935C672.606 321.895 672.331 321.875 672.081 321.875C671.547 321.875 671.069 321.991 670.649 322.224C670.234 322.452 669.904 322.77 669.66 323.179C669.422 323.588 669.302 324.06 669.302 324.594V332H665.672ZM678.85 332.247C678.015 332.247 677.27 332.102 676.617 331.812C675.963 331.517 675.446 331.082 675.066 330.509C674.691 329.929 674.503 329.207 674.503 328.344C674.503 327.616 674.637 327.006 674.904 326.511C675.171 326.017 675.534 325.619 675.995 325.318C676.455 325.017 676.978 324.79 677.563 324.636C678.154 324.483 678.773 324.375 679.421 324.312C680.182 324.233 680.796 324.159 681.262 324.091C681.728 324.017 682.066 323.909 682.276 323.767C682.486 323.625 682.591 323.415 682.591 323.136V323.085C682.591 322.545 682.421 322.128 682.08 321.832C681.745 321.537 681.267 321.389 680.648 321.389C679.995 321.389 679.475 321.534 679.088 321.824C678.702 322.108 678.446 322.466 678.321 322.898L674.963 322.625C675.134 321.83 675.469 321.142 675.969 320.562C676.469 319.977 677.114 319.528 677.904 319.216C678.699 318.898 679.62 318.739 680.665 318.739C681.392 318.739 682.088 318.824 682.753 318.994C683.424 319.165 684.017 319.429 684.534 319.787C685.057 320.145 685.469 320.605 685.77 321.168C686.071 321.724 686.222 322.392 686.222 323.17V332H682.779V330.185H682.676C682.466 330.594 682.185 330.955 681.833 331.267C681.48 331.574 681.057 331.815 680.563 331.991C680.069 332.162 679.498 332.247 678.85 332.247ZM679.89 329.741C680.424 329.741 680.895 329.636 681.304 329.426C681.713 329.21 682.034 328.92 682.267 328.557C682.5 328.193 682.617 327.781 682.617 327.321V325.932C682.503 326.006 682.347 326.074 682.148 326.136C681.955 326.193 681.736 326.247 681.492 326.298C681.248 326.344 681.003 326.386 680.759 326.426C680.515 326.46 680.293 326.491 680.094 326.52C679.668 326.582 679.296 326.682 678.978 326.818C678.659 326.955 678.412 327.139 678.236 327.372C678.06 327.599 677.972 327.884 677.972 328.224C677.972 328.719 678.151 329.097 678.509 329.358C678.873 329.614 679.333 329.741 679.89 329.741ZM700.508 332.256C699.167 332.256 698.014 331.972 697.048 331.403C696.088 330.83 695.349 330.034 694.832 329.017C694.321 328 694.065 326.83 694.065 325.506C694.065 324.165 694.324 322.989 694.841 321.977C695.363 320.96 696.105 320.168 697.065 319.599C698.025 319.026 699.167 318.739 700.491 318.739C701.633 318.739 702.633 318.946 703.491 319.361C704.349 319.776 705.028 320.358 705.528 321.108C706.028 321.858 706.304 322.739 706.355 323.75H702.929C702.832 323.097 702.576 322.571 702.162 322.173C701.752 321.77 701.216 321.568 700.551 321.568C699.988 321.568 699.497 321.722 699.076 322.028C698.662 322.33 698.338 322.77 698.105 323.349C697.872 323.929 697.755 324.631 697.755 325.455C697.755 326.29 697.869 327 698.096 327.585C698.329 328.17 698.656 328.616 699.076 328.923C699.497 329.23 699.988 329.384 700.551 329.384C700.966 329.384 701.338 329.298 701.667 329.128C702.002 328.957 702.278 328.71 702.494 328.386C702.716 328.057 702.86 327.662 702.929 327.202H706.355C706.298 328.202 706.025 329.082 705.537 329.844C705.054 330.599 704.386 331.19 703.534 331.616C702.681 332.043 701.673 332.256 700.508 332.256ZM714.594 332.256C713.27 332.256 712.125 331.974 711.159 331.412C710.199 330.844 709.458 330.054 708.935 329.043C708.412 328.026 708.151 326.847 708.151 325.506C708.151 324.153 708.412 322.972 708.935 321.96C709.458 320.943 710.199 320.153 711.159 319.591C712.125 319.023 713.27 318.739 714.594 318.739C715.918 318.739 717.06 319.023 718.02 319.591C718.986 320.153 719.73 320.943 720.253 321.96C720.776 322.972 721.037 324.153 721.037 325.506C721.037 326.847 720.776 328.026 720.253 329.043C719.73 330.054 718.986 330.844 718.02 331.412C717.06 331.974 715.918 332.256 714.594 332.256ZM714.611 329.443C715.213 329.443 715.716 329.273 716.12 328.932C716.523 328.585 716.827 328.114 717.032 327.517C717.242 326.92 717.347 326.241 717.347 325.48C717.347 324.719 717.242 324.04 717.032 323.443C716.827 322.847 716.523 322.375 716.12 322.028C715.716 321.682 715.213 321.509 714.611 321.509C714.003 321.509 713.492 321.682 713.077 322.028C712.668 322.375 712.358 322.847 712.148 323.443C711.944 324.04 711.841 324.719 711.841 325.48C711.841 326.241 711.944 326.92 712.148 327.517C712.358 328.114 712.668 328.585 713.077 328.932C713.492 329.273 714.003 329.443 714.611 329.443ZM727.029 324.432V332H723.398V318.909H726.858V321.219H727.012C727.301 320.457 727.787 319.855 728.469 319.412C729.151 318.963 729.978 318.739 730.949 318.739C731.858 318.739 732.651 318.938 733.327 319.335C734.003 319.733 734.529 320.301 734.904 321.04C735.279 321.773 735.466 322.648 735.466 323.665V332H731.836V324.312C731.841 323.511 731.637 322.886 731.222 322.438C730.807 321.983 730.236 321.756 729.509 321.756C729.02 321.756 728.588 321.861 728.213 322.071C727.844 322.281 727.554 322.588 727.344 322.991C727.14 323.389 727.034 323.869 727.029 324.432ZM745.291 318.909V321.636H737.407V318.909H745.291ZM739.197 315.773H742.828V327.977C742.828 328.312 742.879 328.574 742.981 328.761C743.083 328.943 743.225 329.071 743.407 329.145C743.595 329.219 743.811 329.256 744.055 329.256C744.225 329.256 744.396 329.241 744.566 329.213C744.737 329.179 744.868 329.153 744.958 329.136L745.529 331.838C745.348 331.895 745.092 331.96 744.762 332.034C744.433 332.114 744.032 332.162 743.561 332.179C742.686 332.213 741.919 332.097 741.26 331.83C740.606 331.562 740.098 331.148 739.734 330.585C739.37 330.023 739.191 329.312 739.197 328.455V315.773ZM747.656 332V318.909H751.287V332H747.656ZM749.48 317.222C748.94 317.222 748.477 317.043 748.091 316.685C747.71 316.321 747.52 315.886 747.52 315.381C747.52 314.881 747.71 314.452 748.091 314.094C748.477 313.73 748.94 313.548 749.48 313.548C750.02 313.548 750.48 313.73 750.86 314.094C751.247 314.452 751.44 314.881 751.44 315.381C751.44 315.886 751.247 316.321 750.86 316.685C750.48 317.043 750.02 317.222 749.48 317.222ZM757.826 324.432V332H754.195V318.909H757.655V321.219H757.809C758.098 320.457 758.584 319.855 759.266 319.412C759.948 318.963 760.775 318.739 761.746 318.739C762.655 318.739 763.448 318.938 764.124 319.335C764.8 319.733 765.326 320.301 765.701 321.04C766.076 321.773 766.263 322.648 766.263 323.665V332H762.632V324.312C762.638 323.511 762.434 322.886 762.019 322.438C761.604 321.983 761.033 321.756 760.306 321.756C759.817 321.756 759.385 321.861 759.01 322.071C758.641 322.281 758.351 322.588 758.141 322.991C757.936 323.389 757.831 323.869 757.826 324.432ZM777.52 326.426V318.909H781.15V332H777.664V329.622H777.528C777.233 330.389 776.741 331.006 776.054 331.472C775.372 331.937 774.539 332.17 773.556 332.17C772.681 332.17 771.912 331.972 771.247 331.574C770.582 331.176 770.062 330.611 769.687 329.878C769.318 329.145 769.13 328.267 769.125 327.244V318.909H772.755V326.597C772.761 327.369 772.968 327.98 773.377 328.429C773.787 328.878 774.335 329.102 775.022 329.102C775.46 329.102 775.869 329.003 776.25 328.804C776.63 328.599 776.937 328.298 777.17 327.901C777.409 327.503 777.525 327.011 777.52 326.426ZM787.787 332.247C786.952 332.247 786.208 332.102 785.554 331.812C784.901 331.517 784.384 331.082 784.003 330.509C783.628 329.929 783.441 329.207 783.441 328.344C783.441 327.616 783.574 327.006 783.841 326.511C784.108 326.017 784.472 325.619 784.932 325.318C785.392 325.017 785.915 324.79 786.5 324.636C787.091 324.483 787.711 324.375 788.358 324.312C789.12 324.233 789.733 324.159 790.199 324.091C790.665 324.017 791.003 323.909 791.213 323.767C791.424 323.625 791.529 323.415 791.529 323.136V323.085C791.529 322.545 791.358 322.128 791.017 321.832C790.682 321.537 790.205 321.389 789.586 321.389C788.932 321.389 788.412 321.534 788.026 321.824C787.64 322.108 787.384 322.466 787.259 322.898L783.901 322.625C784.071 321.83 784.407 321.142 784.907 320.562C785.407 319.977 786.051 319.528 786.841 319.216C787.637 318.898 788.557 318.739 789.603 318.739C790.33 318.739 791.026 318.824 791.691 318.994C792.361 319.165 792.955 319.429 793.472 319.787C793.995 320.145 794.407 320.605 794.708 321.168C795.009 321.724 795.159 322.392 795.159 323.17V332H791.716V330.185H791.614C791.404 330.594 791.123 330.955 790.77 331.267C790.418 331.574 789.995 331.815 789.5 331.991C789.006 332.162 788.435 332.247 787.787 332.247ZM788.827 329.741C789.361 329.741 789.833 329.636 790.242 329.426C790.651 329.21 790.972 328.92 791.205 328.557C791.438 328.193 791.554 327.781 791.554 327.321V325.932C791.441 326.006 791.284 326.074 791.086 326.136C790.892 326.193 790.674 326.247 790.429 326.298C790.185 326.344 789.941 326.386 789.696 326.426C789.452 326.46 789.23 326.491 789.032 326.52C788.605 326.582 788.233 326.682 787.915 326.818C787.597 326.955 787.35 327.139 787.174 327.372C786.998 327.599 786.909 327.884 786.909 328.224C786.909 328.719 787.088 329.097 787.446 329.358C787.81 329.614 788.27 329.741 788.827 329.741ZM797.976 332V318.909H801.496V321.193H801.632C801.871 320.381 802.272 319.767 802.834 319.352C803.397 318.932 804.044 318.722 804.777 318.722C804.959 318.722 805.155 318.733 805.365 318.756C805.576 318.778 805.76 318.81 805.919 318.849V322.071C805.749 322.02 805.513 321.974 805.212 321.935C804.911 321.895 804.635 321.875 804.385 321.875C803.851 321.875 803.374 321.991 802.953 322.224C802.539 322.452 802.209 322.77 801.965 323.179C801.726 323.588 801.607 324.06 801.607 324.594V332H797.976ZM808.419 332.222C807.856 332.222 807.373 332.023 806.97 331.625C806.572 331.222 806.373 330.739 806.373 330.176C806.373 329.619 806.572 329.142 806.97 328.744C807.373 328.347 807.856 328.148 808.419 328.148C808.964 328.148 809.441 328.347 809.85 328.744C810.26 329.142 810.464 329.619 810.464 330.176C810.464 330.551 810.368 330.895 810.174 331.207C809.987 331.514 809.74 331.761 809.433 331.949C809.126 332.131 808.788 332.222 808.419 332.222Z" fill="black"/>
<rect x="503" y="363" width="304" height="33" rx="7" fill="#F7F7F7"/>
<rect x="503" y="363" width="304" height="33" rx="7" stroke="#E6E6E6" stroke-width="2"/>
</svg>
