<svg width="95" height="39" viewBox="0 0 95 39" fill="none" xmlns="http://www.w3.org/2000/svg">
<rect width="95" height="39" rx="16" fill="black"/>
<path d="M11.0114 25V13.3636H18.8523V15.392H13.4716V18.1648H18.4489V20.1932H13.4716V22.9716H18.875V25H11.0114ZM23.1832 19.9545V25H20.7628V16.2727H23.0696V17.8125H23.1719C23.3651 17.3049 23.6889 16.9034 24.1435 16.608C24.598 16.3087 25.1491 16.1591 25.7969 16.1591C26.4029 16.1591 26.9313 16.2917 27.3821 16.5568C27.8329 16.822 28.1832 17.2008 28.4332 17.6932C28.6832 18.1818 28.8082 18.7652 28.8082 19.4432V25H26.3878V19.875C26.3916 19.3409 26.2552 18.9242 25.9787 18.625C25.7022 18.322 25.3215 18.1705 24.8366 18.1705C24.5109 18.1705 24.223 18.2405 23.973 18.3807C23.7268 18.5208 23.5336 18.7254 23.3935 18.9943C23.2571 19.2595 23.187 19.5795 23.1832 19.9545ZM33.9318 25.142C33.2689 25.142 32.6686 24.9716 32.1307 24.6307C31.5966 24.286 31.1723 23.7803 30.858 23.1136C30.5473 22.4432 30.392 21.6212 30.392 20.6477C30.392 19.6477 30.553 18.8163 30.875 18.1534C31.197 17.4867 31.625 16.9886 32.1591 16.6591C32.697 16.3258 33.286 16.1591 33.9261 16.1591C34.4148 16.1591 34.822 16.2424 35.1477 16.4091C35.4773 16.572 35.7424 16.7765 35.9432 17.0227C36.1477 17.2652 36.303 17.5038 36.4091 17.7386H36.483V13.3636H38.8977V25H36.5114V23.6023H36.4091C36.2955 23.8447 36.1345 24.0852 35.9261 24.3239C35.7216 24.5587 35.4545 24.7538 35.125 24.9091C34.7992 25.0644 34.4015 25.142 33.9318 25.142ZM34.6989 23.2159C35.089 23.2159 35.4186 23.1098 35.6875 22.8977C35.9602 22.6818 36.1686 22.3807 36.3125 21.9943C36.4602 21.608 36.5341 21.1553 36.5341 20.6364C36.5341 20.1174 36.4621 19.6667 36.3182 19.2841C36.1742 18.9015 35.9659 18.6061 35.6932 18.3977C35.4205 18.1894 35.089 18.0852 34.6989 18.0852C34.3011 18.0852 33.9659 18.1932 33.6932 18.4091C33.4205 18.625 33.214 18.9242 33.0739 19.3068C32.9337 19.6894 32.8636 20.1326 32.8636 20.6364C32.8636 21.1439 32.9337 21.5928 33.0739 21.983C33.2178 22.3693 33.4242 22.6723 33.6932 22.892C33.9659 23.108 34.3011 23.2159 34.6989 23.2159ZM44.8651 25.1705C43.9673 25.1705 43.1946 24.9886 42.5469 24.625C41.9029 24.2576 41.4067 23.7386 41.0582 23.0682C40.7098 22.3939 40.5355 21.5966 40.5355 20.6761C40.5355 19.7784 40.7098 18.9905 41.0582 18.3125C41.4067 17.6345 41.8973 17.1061 42.5298 16.7273C43.1662 16.3485 43.9124 16.1591 44.7685 16.1591C45.3442 16.1591 45.8802 16.2519 46.3764 16.4375C46.8764 16.6193 47.312 16.8939 47.6832 17.2614C48.0582 17.6288 48.3499 18.0909 48.5582 18.6477C48.7666 19.2008 48.8707 19.8485 48.8707 20.5909V21.2557H41.5014V19.7557H46.5923C46.5923 19.4072 46.5166 19.0985 46.3651 18.8295C46.2135 18.5606 46.0033 18.3504 45.7344 18.1989C45.4692 18.0436 45.1605 17.9659 44.8082 17.9659C44.4408 17.9659 44.1151 18.0511 43.831 18.2216C43.5507 18.3883 43.331 18.6136 43.1719 18.8977C43.0128 19.178 42.9313 19.4905 42.9276 19.8352V21.2614C42.9276 21.6932 43.0071 22.0663 43.1662 22.3807C43.3291 22.6951 43.5582 22.9375 43.8537 23.108C44.1491 23.2784 44.4995 23.3636 44.9048 23.3636C45.1738 23.3636 45.42 23.3258 45.6435 23.25C45.867 23.1742 46.0582 23.0606 46.2173 22.9091C46.3764 22.7576 46.4976 22.572 46.581 22.3523L48.8196 22.5C48.706 23.0379 48.473 23.5076 48.1207 23.9091C47.7723 24.3068 47.3215 24.6174 46.7685 24.8409C46.2192 25.0606 45.5848 25.1705 44.8651 25.1705ZM50.4503 25V16.2727H52.7969V17.7955H52.8878C53.0469 17.2538 53.3139 16.8447 53.6889 16.5682C54.0639 16.2879 54.4957 16.1477 54.9844 16.1477C55.1056 16.1477 55.2363 16.1553 55.3764 16.1705C55.5166 16.1856 55.6397 16.2064 55.7457 16.233V18.3807C55.6321 18.3466 55.4749 18.3163 55.2741 18.2898C55.0734 18.2633 54.8897 18.25 54.723 18.25C54.367 18.25 54.0488 18.3277 53.7685 18.483C53.492 18.6345 53.2723 18.8466 53.1094 19.1193C52.9503 19.392 52.8707 19.7064 52.8707 20.0625V25H50.4503ZM60.5682 25.1705C59.6705 25.1705 58.8977 24.9886 58.25 24.625C57.6061 24.2576 57.1098 23.7386 56.7614 23.0682C56.4129 22.3939 56.2386 21.5966 56.2386 20.6761C56.2386 19.7784 56.4129 18.9905 56.7614 18.3125C57.1098 17.6345 57.6004 17.1061 58.233 16.7273C58.8693 16.3485 59.6155 16.1591 60.4716 16.1591C61.0473 16.1591 61.5833 16.2519 62.0795 16.4375C62.5795 16.6193 63.0152 16.8939 63.3864 17.2614C63.7614 17.6288 64.053 18.0909 64.2614 18.6477C64.4697 19.2008 64.5739 19.8485 64.5739 20.5909V21.2557H57.2045V19.7557H62.2955C62.2955 19.4072 62.2197 19.0985 62.0682 18.8295C61.9167 18.5606 61.7064 18.3504 61.4375 18.1989C61.1723 18.0436 60.8636 17.9659 60.5114 17.9659C60.1439 17.9659 59.8182 18.0511 59.5341 18.2216C59.2538 18.3883 59.0341 18.6136 58.875 18.8977C58.7159 19.178 58.6345 19.4905 58.6307 19.8352V21.2614C58.6307 21.6932 58.7102 22.0663 58.8693 22.3807C59.0322 22.6951 59.2614 22.9375 59.5568 23.108C59.8523 23.2784 60.2027 23.3636 60.608 23.3636C60.8769 23.3636 61.1231 23.3258 61.3466 23.25C61.5701 23.1742 61.7614 23.0606 61.9205 22.9091C62.0795 22.7576 62.2008 22.572 62.2841 22.3523L64.5227 22.5C64.4091 23.0379 64.1761 23.5076 63.8239 23.9091C63.4754 24.3068 63.0246 24.6174 62.4716 24.8409C61.9223 25.0606 61.2879 25.1705 60.5682 25.1705ZM70.0966 25.1705C69.2027 25.1705 68.4337 24.9811 67.7898 24.6023C67.1496 24.2197 66.6572 23.6894 66.3125 23.0114C65.9716 22.3333 65.8011 21.553 65.8011 20.6705C65.8011 19.7765 65.9735 18.9924 66.3182 18.3182C66.6667 17.6402 67.161 17.1117 67.8011 16.733C68.4413 16.3504 69.2027 16.1591 70.0852 16.1591C70.8466 16.1591 71.5133 16.2973 72.0852 16.5739C72.6572 16.8504 73.1098 17.2386 73.4432 17.7386C73.7765 18.2386 73.9602 18.8258 73.9943 19.5H71.7102C71.6458 19.0644 71.4754 18.714 71.1989 18.4489C70.9261 18.1799 70.5682 18.0455 70.125 18.0455C69.75 18.0455 69.4223 18.1477 69.142 18.3523C68.8655 18.553 68.6496 18.8466 68.4943 19.233C68.339 19.6193 68.2614 20.0871 68.2614 20.6364C68.2614 21.1932 68.3371 21.6667 68.4886 22.0568C68.6439 22.447 68.8617 22.7443 69.142 22.9489C69.4223 23.1534 69.75 23.2557 70.125 23.2557C70.4015 23.2557 70.6496 23.1989 70.8693 23.0852C71.0928 22.9716 71.2765 22.8068 71.4205 22.5909C71.5682 22.3712 71.6648 22.108 71.7102 21.8011H73.9943C73.9564 22.4678 73.7746 23.0549 73.4489 23.5625C73.1269 24.0663 72.6818 24.4602 72.1136 24.7443C71.5455 25.0284 70.8731 25.1705 70.0966 25.1705ZM69.5284 24.9545H70.642L70.5511 25.4489C70.9413 25.5095 71.2595 25.6553 71.5057 25.8864C71.7557 26.1174 71.8826 26.4318 71.8864 26.8295C71.8902 27.3939 71.6288 27.8428 71.1023 28.1761C70.5758 28.5133 69.8371 28.6818 68.8864 28.6818L68.8636 27.6023C69.3409 27.6023 69.714 27.5436 69.983 27.4261C70.2557 27.3125 70.3977 27.1345 70.4091 26.892C70.4167 26.661 70.3277 26.4848 70.142 26.3636C69.9564 26.2424 69.6667 26.1572 69.2727 26.108L69.5284 24.9545ZM79.4872 25.1705C78.6046 25.1705 77.8414 24.983 77.1974 24.608C76.5573 24.2292 76.063 23.7027 75.7145 23.0284C75.366 22.3504 75.1918 21.5644 75.1918 20.6705C75.1918 19.7689 75.366 18.9811 75.7145 18.3068C76.063 17.6288 76.5573 17.1023 77.1974 16.7273C77.8414 16.3485 78.6046 16.1591 79.4872 16.1591C80.3698 16.1591 81.1312 16.3485 81.7713 16.7273C82.4152 17.1023 82.9115 17.6288 83.2599 18.3068C83.6084 18.9811 83.7827 19.7689 83.7827 20.6705C83.7827 21.5644 83.6084 22.3504 83.2599 23.0284C82.9115 23.7027 82.4152 24.2292 81.7713 24.608C81.1312 24.983 80.3698 25.1705 79.4872 25.1705ZM79.4986 23.2955C79.9001 23.2955 80.2353 23.1818 80.5043 22.9545C80.7732 22.7235 80.9759 22.4091 81.1122 22.0114C81.2524 21.6136 81.3224 21.161 81.3224 20.6534C81.3224 20.1458 81.2524 19.6932 81.1122 19.2955C80.9759 18.8977 80.7732 18.5833 80.5043 18.3523C80.2353 18.1212 79.9001 18.0057 79.4986 18.0057C79.0933 18.0057 78.7524 18.1212 78.4759 18.3523C78.2031 18.5833 77.9967 18.8977 77.8565 19.2955C77.7202 19.6932 77.652 20.1458 77.652 20.6534C77.652 21.161 77.7202 21.6136 77.8565 22.0114C77.9967 22.4091 78.2031 22.7235 78.4759 22.9545C78.7524 23.1818 79.0933 23.2955 79.4986 23.2955Z" fill="white"/>
</svg>
