<svg width="125" height="39" viewBox="0 0 125 39" fill="none" xmlns="http://www.w3.org/2000/svg">
<rect width="125" height="39" rx="16" fill="#E30140"/>
<path d="M11.0114 25V13.3636H18.8523V15.392H13.4716V18.1648H18.4489V20.1932H13.4716V22.9716H18.875V25H11.0114ZM22.7855 16.2727L24.3878 19.3239L26.0298 16.2727H28.5128L25.9844 20.6364L28.581 25H26.1094L24.3878 21.983L22.6946 25H20.1946L22.7855 20.6364L20.2855 16.2727H22.7855ZM33.581 25.1705C32.687 25.1705 31.9181 24.9811 31.2741 24.6023C30.634 24.2197 30.1416 23.6894 29.7969 23.0114C29.456 22.3333 29.2855 21.553 29.2855 20.6705C29.2855 19.7765 29.4579 18.9924 29.8026 18.3182C30.151 17.6402 30.6454 17.1117 31.2855 16.733C31.9257 16.3504 32.687 16.1591 33.5696 16.1591C34.331 16.1591 34.9976 16.2973 35.5696 16.5739C36.1416 16.8504 36.5942 17.2386 36.9276 17.7386C37.2609 18.2386 37.4446 18.8258 37.4787 19.5H35.1946C35.1302 19.0644 34.9598 18.714 34.6832 18.4489C34.4105 18.1799 34.0526 18.0455 33.6094 18.0455C33.2344 18.0455 32.9067 18.1477 32.6264 18.3523C32.3499 18.553 32.134 18.8466 31.9787 19.233C31.8234 19.6193 31.7457 20.0871 31.7457 20.6364C31.7457 21.1932 31.8215 21.6667 31.973 22.0568C32.1283 22.447 32.3461 22.7443 32.6264 22.9489C32.9067 23.1534 33.2344 23.2557 33.6094 23.2557C33.8859 23.2557 34.134 23.1989 34.3537 23.0852C34.5772 22.9716 34.7609 22.8068 34.9048 22.5909C35.0526 22.3712 35.1491 22.108 35.1946 21.8011H37.4787C37.4408 22.4678 37.259 23.0549 36.9332 23.5625C36.6113 24.0663 36.1662 24.4602 35.598 24.7443C35.0298 25.0284 34.3575 25.1705 33.581 25.1705ZM41.4489 13.3636V25H39.0284V13.3636H41.4489ZM48.9844 21.2841V16.2727H51.4048V25H49.081V23.4148H48.9901C48.7931 23.9261 48.4654 24.3371 48.0071 24.6477C47.5526 24.9583 46.9976 25.1136 46.3423 25.1136C45.759 25.1136 45.2457 24.9811 44.8026 24.7159C44.3594 24.4508 44.0128 24.0739 43.7628 23.5852C43.5166 23.0966 43.3916 22.5114 43.3878 21.8295V16.2727H45.8082V21.3977C45.812 21.9129 45.9503 22.3201 46.223 22.6193C46.4957 22.9186 46.8613 23.0682 47.3196 23.0682C47.6113 23.0682 47.884 23.0019 48.1378 22.8693C48.3916 22.733 48.5961 22.5322 48.7514 22.267C48.9105 22.0019 48.9882 21.6742 48.9844 21.2841ZM53.3409 25V16.2727H55.7614V25H53.3409ZM54.5568 15.1477C54.197 15.1477 53.8883 15.0284 53.6307 14.7898C53.3769 14.5473 53.25 14.2576 53.25 13.9205C53.25 13.5871 53.3769 13.3011 53.6307 13.0625C53.8883 12.8201 54.197 12.6989 54.5568 12.6989C54.9167 12.6989 55.2235 12.8201 55.4773 13.0625C55.7348 13.3011 55.8636 13.5871 55.8636 13.9205C55.8636 14.2576 55.7348 14.5473 55.4773 14.7898C55.2235 15.0284 54.9167 15.1477 54.5568 15.1477ZM57.7003 25V16.2727H60.0469V17.7955H60.1378C60.2969 17.2538 60.5639 16.8447 60.9389 16.5682C61.3139 16.2879 61.7457 16.1477 62.2344 16.1477C62.3556 16.1477 62.4863 16.1553 62.6264 16.1705C62.7666 16.1856 62.8897 16.2064 62.9957 16.233V18.3807C62.8821 18.3466 62.7249 18.3163 62.5241 18.2898C62.3234 18.2633 62.1397 18.25 61.973 18.25C61.617 18.25 61.2988 18.3277 61.0185 18.483C60.742 18.6345 60.5223 18.8466 60.3594 19.1193C60.2003 19.392 60.1207 19.7064 60.1207 20.0625V25H57.7003ZM78.2628 17.4375H75.7741C75.7287 17.1155 75.6359 16.8295 75.4957 16.5795C75.3556 16.3258 75.1757 16.1098 74.956 15.9318C74.7363 15.7538 74.4825 15.6174 74.1946 15.5227C73.9105 15.428 73.6018 15.3807 73.2685 15.3807C72.6662 15.3807 72.1416 15.5303 71.6946 15.8295C71.2476 16.125 70.901 16.5568 70.6548 17.125C70.4086 17.6894 70.2855 18.375 70.2855 19.1818C70.2855 20.0114 70.4086 20.7083 70.6548 21.2727C70.9048 21.8371 71.2533 22.2633 71.7003 22.5511C72.1473 22.839 72.6643 22.983 73.2514 22.983C73.581 22.983 73.8859 22.9394 74.1662 22.8523C74.4503 22.7652 74.7022 22.6383 74.9219 22.4716C75.1416 22.3011 75.3234 22.0947 75.4673 21.8523C75.6151 21.6098 75.7173 21.3333 75.7741 21.0227L78.2628 21.0341C78.1984 21.5682 78.0374 22.0833 77.7798 22.5795C77.526 23.072 77.1832 23.5133 76.7514 23.9034C76.3234 24.2898 75.812 24.5966 75.2173 24.8239C74.6264 25.0473 73.9579 25.1591 73.2116 25.1591C72.1738 25.1591 71.2457 24.9242 70.4276 24.4545C69.6132 23.9848 68.9692 23.3049 68.4957 22.4148C68.026 21.5246 67.7912 20.447 67.7912 19.1818C67.7912 17.9129 68.0298 16.8333 68.5071 15.9432C68.9844 15.053 69.6321 14.375 70.4503 13.9091C71.2685 13.4394 72.1889 13.2045 73.2116 13.2045C73.8859 13.2045 74.5109 13.2992 75.0866 13.4886C75.6662 13.678 76.1795 13.9545 76.6264 14.3182C77.0734 14.678 77.437 15.1193 77.7173 15.642C78.0014 16.1648 78.1832 16.7633 78.2628 17.4375ZM83.9247 25.1705C83.0421 25.1705 82.2789 24.983 81.6349 24.608C80.9948 24.2292 80.5005 23.7027 80.152 23.0284C79.8035 22.3504 79.6293 21.5644 79.6293 20.6705C79.6293 19.7689 79.8035 18.9811 80.152 18.3068C80.5005 17.6288 80.9948 17.1023 81.6349 16.7273C82.2789 16.3485 83.0421 16.1591 83.9247 16.1591C84.8073 16.1591 85.5687 16.3485 86.2088 16.7273C86.8527 17.1023 87.349 17.6288 87.6974 18.3068C88.0459 18.9811 88.2202 19.7689 88.2202 20.6705C88.2202 21.5644 88.0459 22.3504 87.6974 23.0284C87.349 23.7027 86.8527 24.2292 86.2088 24.608C85.5687 24.983 84.8073 25.1705 83.9247 25.1705ZM83.9361 23.2955C84.3376 23.2955 84.6728 23.1818 84.9418 22.9545C85.2107 22.7235 85.4134 22.4091 85.5497 22.0114C85.6899 21.6136 85.7599 21.161 85.7599 20.6534C85.7599 20.1458 85.6899 19.6932 85.5497 19.2955C85.4134 18.8977 85.2107 18.5833 84.9418 18.3523C84.6728 18.1212 84.3376 18.0057 83.9361 18.0057C83.5308 18.0057 83.1899 18.1212 82.9134 18.3523C82.6406 18.5833 82.4342 18.8977 82.294 19.2955C82.1577 19.6932 82.0895 20.1458 82.0895 20.6534C82.0895 21.161 82.1577 21.6136 82.294 22.0114C82.4342 22.4091 82.6406 22.7235 82.9134 22.9545C83.1899 23.1818 83.5308 23.2955 83.9361 23.2955ZM92.2145 19.9545V25H89.794V16.2727H92.1009V17.8125H92.2031C92.3963 17.3049 92.7202 16.9034 93.1747 16.608C93.6293 16.3087 94.1804 16.1591 94.8281 16.1591C95.4342 16.1591 95.9626 16.2917 96.4134 16.5568C96.8641 16.822 97.2145 17.2008 97.4645 17.6932C97.7145 18.1818 97.8395 18.7652 97.8395 19.4432V25H95.419V19.875C95.4228 19.3409 95.2865 18.9242 95.0099 18.625C94.7334 18.322 94.3527 18.1705 93.8679 18.1705C93.5421 18.1705 93.2543 18.2405 93.0043 18.3807C92.758 18.5208 92.5649 18.7254 92.4247 18.9943C92.2884 19.2595 92.2183 19.5795 92.2145 19.9545ZM104.389 16.2727V18.0909H99.1335V16.2727H104.389ZM100.327 14.1818H102.747V22.3182C102.747 22.5417 102.781 22.7159 102.849 22.8409C102.918 22.9621 103.012 23.0473 103.134 23.0966C103.259 23.1458 103.402 23.1705 103.565 23.1705C103.679 23.1705 103.793 23.161 103.906 23.142C104.02 23.1193 104.107 23.1023 104.168 23.0909L104.548 24.892C104.427 24.9299 104.257 24.9735 104.037 25.0227C103.817 25.0758 103.55 25.108 103.236 25.1193C102.652 25.142 102.141 25.0644 101.702 24.8864C101.266 24.7083 100.927 24.4318 100.685 24.0568C100.442 23.6818 100.323 23.2083 100.327 22.6364V14.1818ZM108.455 25.1648C107.898 25.1648 107.402 25.0682 106.966 24.875C106.53 24.678 106.186 24.3883 105.932 24.0057C105.682 23.6193 105.557 23.1383 105.557 22.5625C105.557 22.0777 105.646 21.6705 105.824 21.3409C106.002 21.0114 106.244 20.7462 106.551 20.5455C106.858 20.3447 107.206 20.1932 107.597 20.0909C107.991 19.9886 108.403 19.9167 108.835 19.875C109.343 19.822 109.752 19.7727 110.062 19.7273C110.373 19.678 110.598 19.6061 110.739 19.5114C110.879 19.4167 110.949 19.2765 110.949 19.0909V19.0568C110.949 18.697 110.835 18.4186 110.608 18.2216C110.384 18.0246 110.066 17.9261 109.653 17.9261C109.218 17.9261 108.871 18.0227 108.614 18.2159C108.356 18.4053 108.186 18.6439 108.102 18.9318L105.864 18.75C105.977 18.2197 106.201 17.7614 106.534 17.375C106.867 16.9848 107.297 16.6856 107.824 16.4773C108.354 16.2652 108.968 16.1591 109.665 16.1591C110.15 16.1591 110.614 16.2159 111.057 16.3295C111.504 16.4432 111.9 16.6193 112.244 16.858C112.593 17.0966 112.867 17.4034 113.068 17.7784C113.269 18.1496 113.369 18.5947 113.369 19.1136V25H111.074V23.7898H111.006C110.866 24.0625 110.678 24.303 110.443 24.5114C110.208 24.7159 109.926 24.8769 109.597 24.9943C109.267 25.108 108.886 25.1648 108.455 25.1648ZM109.148 23.4943C109.504 23.4943 109.818 23.4242 110.091 23.2841C110.364 23.1402 110.578 22.947 110.733 22.7045C110.888 22.4621 110.966 22.1875 110.966 21.8807V20.9545C110.89 21.0038 110.786 21.0492 110.653 21.0909C110.525 21.1288 110.379 21.1648 110.216 21.1989C110.053 21.2292 109.89 21.2576 109.727 21.2841C109.564 21.3068 109.417 21.3277 109.284 21.3466C109 21.3883 108.752 21.4545 108.54 21.5455C108.328 21.6364 108.163 21.7595 108.045 21.9148C107.928 22.0663 107.869 22.2557 107.869 22.483C107.869 22.8125 107.989 23.0644 108.227 23.2386C108.47 23.4091 108.777 23.4943 109.148 23.4943Z" fill="white"/>
</svg>
