<svg width="144" height="39" viewBox="0 0 144 39" fill="none" xmlns="http://www.w3.org/2000/svg">
<rect width="144" height="39" rx="16" fill="black"/>
<path d="M15.1364 25H11.0114V13.3636H15.1705C16.3409 13.3636 17.3485 13.5966 18.1932 14.0625C19.0379 14.5246 19.6875 15.1894 20.142 16.0568C20.6004 16.9242 20.8295 17.9621 20.8295 19.1705C20.8295 20.3826 20.6004 21.4242 20.142 22.2955C19.6875 23.1667 19.0341 23.8352 18.1818 24.3011C17.3333 24.767 16.3182 25 15.1364 25ZM13.4716 22.892H15.0341C15.7614 22.892 16.3731 22.7633 16.8693 22.5057C17.3693 22.2443 17.7443 21.8409 17.9943 21.2955C18.2481 20.7462 18.375 20.0379 18.375 19.1705C18.375 18.3106 18.2481 17.608 17.9943 17.0625C17.7443 16.517 17.3712 16.1155 16.875 15.858C16.3788 15.6004 15.767 15.4716 15.0398 15.4716H13.4716V22.892ZM25.0952 25.1648C24.5384 25.1648 24.0421 25.0682 23.6065 24.875C23.1709 24.678 22.8262 24.3883 22.5724 24.0057C22.3224 23.6193 22.1974 23.1383 22.1974 22.5625C22.1974 22.0777 22.2865 21.6705 22.4645 21.3409C22.6425 21.0114 22.8849 20.7462 23.1918 20.5455C23.4986 20.3447 23.8471 20.1932 24.2372 20.0909C24.6312 19.9886 25.044 19.9167 25.4759 19.875C25.9834 19.822 26.3925 19.7727 26.7031 19.7273C27.0137 19.678 27.2391 19.6061 27.3793 19.5114C27.5194 19.4167 27.5895 19.2765 27.5895 19.0909V19.0568C27.5895 18.697 27.4759 18.4186 27.2486 18.2216C27.0251 18.0246 26.7069 17.9261 26.294 17.9261C25.8584 17.9261 25.5118 18.0227 25.2543 18.2159C24.9967 18.4053 24.8262 18.6439 24.7429 18.9318L22.5043 18.75C22.6179 18.2197 22.8414 17.7614 23.1747 17.375C23.508 16.9848 23.938 16.6856 24.4645 16.4773C24.9948 16.2652 25.6084 16.1591 26.3054 16.1591C26.7902 16.1591 27.2543 16.2159 27.6974 16.3295C28.1444 16.4432 28.5402 16.6193 28.8849 16.858C29.2334 17.0966 29.508 17.4034 29.7088 17.7784C29.9096 18.1496 30.0099 18.5947 30.0099 19.1136V25H27.7145V23.7898H27.6463C27.5062 24.0625 27.3187 24.303 27.0838 24.5114C26.849 24.7159 26.5668 24.8769 26.2372 24.9943C25.9077 25.108 25.527 25.1648 25.0952 25.1648ZM25.7884 23.4943C26.1444 23.4943 26.4588 23.4242 26.7315 23.2841C27.0043 23.1402 27.2183 22.947 27.3736 22.7045C27.5289 22.4621 27.6065 22.1875 27.6065 21.8807V20.9545C27.5308 21.0038 27.4266 21.0492 27.294 21.0909C27.1652 21.1288 27.0194 21.1648 26.8565 21.1989C26.6937 21.2292 26.5308 21.2576 26.3679 21.2841C26.205 21.3068 26.0573 21.3277 25.9247 21.3466C25.6406 21.3883 25.3925 21.4545 25.1804 21.5455C24.9683 21.6364 24.8035 21.7595 24.6861 21.9148C24.5687 22.0663 24.5099 22.2557 24.5099 22.483C24.5099 22.8125 24.6293 23.0644 24.8679 23.2386C25.1103 23.4091 25.4171 23.4943 25.7884 23.4943ZM35.1037 25.142C34.4408 25.142 33.8404 24.9716 33.3026 24.6307C32.7685 24.286 32.3442 23.7803 32.0298 23.1136C31.7192 22.4432 31.5639 21.6212 31.5639 20.6477C31.5639 19.6477 31.7249 18.8163 32.0469 18.1534C32.3688 17.4867 32.7969 16.9886 33.331 16.6591C33.8688 16.3258 34.4579 16.1591 35.098 16.1591C35.5866 16.1591 35.9938 16.2424 36.3196 16.4091C36.6491 16.572 36.9143 16.7765 37.1151 17.0227C37.3196 17.2652 37.4749 17.5038 37.581 17.7386H37.6548V13.3636H40.0696V25H37.6832V23.6023H37.581C37.4673 23.8447 37.3063 24.0852 37.098 24.3239C36.8935 24.5587 36.6264 24.7538 36.2969 24.9091C35.9711 25.0644 35.5734 25.142 35.1037 25.142ZM35.8707 23.2159C36.2609 23.2159 36.5904 23.1098 36.8594 22.8977C37.1321 22.6818 37.3404 22.3807 37.4844 21.9943C37.6321 21.608 37.706 21.1553 37.706 20.6364C37.706 20.1174 37.634 19.6667 37.4901 19.2841C37.3461 18.9015 37.1378 18.6061 36.8651 18.3977C36.5923 18.1894 36.2609 18.0852 35.8707 18.0852C35.473 18.0852 35.1378 18.1932 34.8651 18.4091C34.5923 18.625 34.3859 18.9242 34.2457 19.3068C34.1056 19.6894 34.0355 20.1326 34.0355 20.6364C34.0355 21.1439 34.1056 21.5928 34.2457 21.983C34.3897 22.3693 34.5961 22.6723 34.8651 22.892C35.1378 23.108 35.473 23.2159 35.8707 23.2159ZM46.0028 25.1705C45.1203 25.1705 44.357 24.983 43.7131 24.608C43.0729 24.2292 42.5786 23.7027 42.2301 23.0284C41.8816 22.3504 41.7074 21.5644 41.7074 20.6705C41.7074 19.7689 41.8816 18.9811 42.2301 18.3068C42.5786 17.6288 43.0729 17.1023 43.7131 16.7273C44.357 16.3485 45.1203 16.1591 46.0028 16.1591C46.8854 16.1591 47.6468 16.3485 48.2869 16.7273C48.9309 17.1023 49.4271 17.6288 49.7756 18.3068C50.1241 18.9811 50.2983 19.7689 50.2983 20.6705C50.2983 21.5644 50.1241 22.3504 49.7756 23.0284C49.4271 23.7027 48.9309 24.2292 48.2869 24.608C47.6468 24.983 46.8854 25.1705 46.0028 25.1705ZM46.0142 23.2955C46.4157 23.2955 46.7509 23.1818 47.0199 22.9545C47.2888 22.7235 47.4915 22.4091 47.6278 22.0114C47.768 21.6136 47.8381 21.161 47.8381 20.6534C47.8381 20.1458 47.768 19.6932 47.6278 19.2955C47.4915 18.8977 47.2888 18.5833 47.0199 18.3523C46.7509 18.1212 46.4157 18.0057 46.0142 18.0057C45.6089 18.0057 45.268 18.1212 44.9915 18.3523C44.7188 18.5833 44.5123 18.8977 44.3722 19.2955C44.2358 19.6932 44.1676 20.1458 44.1676 20.6534C44.1676 21.161 44.2358 21.6136 44.3722 22.0114C44.5123 22.4091 44.7188 22.7235 44.9915 22.9545C45.268 23.1818 45.6089 23.2955 46.0142 23.2955ZM59.1335 18.7614L56.9176 18.8977C56.8797 18.7083 56.7983 18.5379 56.6733 18.3864C56.5483 18.2311 56.3835 18.108 56.179 18.017C55.9782 17.9223 55.7377 17.875 55.4574 17.875C55.0824 17.875 54.7661 17.9545 54.5085 18.1136C54.2509 18.2689 54.1222 18.4773 54.1222 18.7386C54.1222 18.947 54.2055 19.1231 54.3722 19.267C54.5388 19.411 54.8248 19.5265 55.2301 19.6136L56.8097 19.9318C57.6581 20.1061 58.2907 20.3864 58.7074 20.7727C59.1241 21.1591 59.3324 21.6667 59.3324 22.2955C59.3324 22.8674 59.1638 23.3693 58.8267 23.8011C58.4934 24.233 58.035 24.5701 57.4517 24.8125C56.8722 25.0511 56.2036 25.1705 55.446 25.1705C54.2907 25.1705 53.3703 24.9299 52.6847 24.4489C52.0028 23.964 51.6032 23.3049 51.4858 22.4716L53.8665 22.3466C53.9384 22.6989 54.1127 22.9678 54.3892 23.1534C54.6657 23.3352 55.0199 23.4261 55.4517 23.4261C55.8759 23.4261 56.2169 23.3447 56.4744 23.1818C56.7358 23.0152 56.8684 22.8011 56.8722 22.5398C56.8684 22.3201 56.7756 22.1402 56.5938 22C56.4119 21.8561 56.1316 21.7462 55.7528 21.6705L54.2415 21.3693C53.3892 21.1989 52.7547 20.9034 52.3381 20.483C51.9252 20.0625 51.7188 19.5265 51.7188 18.875C51.7188 18.3144 51.8703 17.8314 52.1733 17.4261C52.4801 17.0208 52.91 16.7083 53.4631 16.4886C54.0199 16.2689 54.6714 16.1591 55.4176 16.1591C56.5199 16.1591 57.3873 16.392 58.0199 16.858C58.6563 17.3239 59.0275 17.9583 59.1335 18.7614ZM64.6051 25V13.3636H69.196C70.0786 13.3636 70.8305 13.5322 71.4517 13.8693C72.0729 14.2027 72.5464 14.6667 72.8722 15.2614C73.2017 15.8523 73.3665 16.5341 73.3665 17.3068C73.3665 18.0795 73.1998 18.7614 72.8665 19.3523C72.5331 19.9432 72.0502 20.4034 71.4176 20.733C70.7888 21.0625 70.0275 21.2273 69.1335 21.2273H66.2074V19.2557H68.7358C69.2093 19.2557 69.5994 19.1742 69.9062 19.0114C70.2169 18.8447 70.4479 18.6155 70.5994 18.3239C70.7547 18.0284 70.8324 17.6894 70.8324 17.3068C70.8324 16.9205 70.7547 16.5833 70.5994 16.2955C70.4479 16.0038 70.2169 15.7784 69.9062 15.6193C69.5956 15.4564 69.2017 15.375 68.7244 15.375H67.0653V25H64.6051ZM78.7557 25.1705C77.858 25.1705 77.0852 24.9886 76.4375 24.625C75.7936 24.2576 75.2973 23.7386 74.9489 23.0682C74.6004 22.3939 74.4261 21.5966 74.4261 20.6761C74.4261 19.7784 74.6004 18.9905 74.9489 18.3125C75.2973 17.6345 75.7879 17.1061 76.4205 16.7273C77.0568 16.3485 77.803 16.1591 78.6591 16.1591C79.2348 16.1591 79.7708 16.2519 80.267 16.4375C80.767 16.6193 81.2027 16.8939 81.5739 17.2614C81.9489 17.6288 82.2405 18.0909 82.4489 18.6477C82.6572 19.2008 82.7614 19.8485 82.7614 20.5909V21.2557H75.392V19.7557H80.483C80.483 19.4072 80.4072 19.0985 80.2557 18.8295C80.1042 18.5606 79.8939 18.3504 79.625 18.1989C79.3598 18.0436 79.0511 17.9659 78.6989 17.9659C78.3314 17.9659 78.0057 18.0511 77.7216 18.2216C77.4413 18.3883 77.2216 18.6136 77.0625 18.8977C76.9034 19.178 76.822 19.4905 76.8182 19.8352V21.2614C76.8182 21.6932 76.8977 22.0663 77.0568 22.3807C77.2197 22.6951 77.4489 22.9375 77.7443 23.108C78.0398 23.2784 78.3902 23.3636 78.7955 23.3636C79.0644 23.3636 79.3106 23.3258 79.5341 23.25C79.7576 23.1742 79.9489 23.0606 80.108 22.9091C80.267 22.7576 80.3883 22.572 80.4716 22.3523L82.7102 22.5C82.5966 23.0379 82.3636 23.5076 82.0114 23.9091C81.6629 24.3068 81.2121 24.6174 80.6591 24.8409C80.1098 25.0606 79.4754 25.1705 78.7557 25.1705ZM91.6023 18.7614L89.3864 18.8977C89.3485 18.7083 89.267 18.5379 89.142 18.3864C89.017 18.2311 88.8523 18.108 88.6477 18.017C88.447 17.9223 88.2064 17.875 87.9261 17.875C87.5511 17.875 87.2348 17.9545 86.9773 18.1136C86.7197 18.2689 86.5909 18.4773 86.5909 18.7386C86.5909 18.947 86.6742 19.1231 86.8409 19.267C87.0076 19.411 87.2936 19.5265 87.6989 19.6136L89.2784 19.9318C90.1269 20.1061 90.7595 20.3864 91.1761 20.7727C91.5928 21.1591 91.8011 21.6667 91.8011 22.2955C91.8011 22.8674 91.6326 23.3693 91.2955 23.8011C90.9621 24.233 90.5038 24.5701 89.9205 24.8125C89.3409 25.0511 88.6723 25.1705 87.9148 25.1705C86.7595 25.1705 85.839 24.9299 85.1534 24.4489C84.4716 23.964 84.072 23.3049 83.9545 22.4716L86.3352 22.3466C86.4072 22.6989 86.5814 22.9678 86.858 23.1534C87.1345 23.3352 87.4886 23.4261 87.9205 23.4261C88.3447 23.4261 88.6856 23.3447 88.9432 23.1818C89.2045 23.0152 89.3371 22.8011 89.3409 22.5398C89.3371 22.3201 89.2443 22.1402 89.0625 22C88.8807 21.8561 88.6004 21.7462 88.2216 21.6705L86.7102 21.3693C85.858 21.1989 85.2235 20.9034 84.8068 20.483C84.3939 20.0625 84.1875 19.5265 84.1875 18.875C84.1875 18.3144 84.339 17.8314 84.642 17.4261C84.9489 17.0208 85.3788 16.7083 85.9318 16.4886C86.4886 16.2689 87.1402 16.1591 87.8864 16.1591C88.9886 16.1591 89.8561 16.392 90.4886 16.858C91.125 17.3239 91.4962 17.9583 91.6023 18.7614ZM100.587 18.7614L98.3707 18.8977C98.3329 18.7083 98.2514 18.5379 98.1264 18.3864C98.0014 18.2311 97.8366 18.108 97.6321 18.017C97.4313 17.9223 97.1908 17.875 96.9105 17.875C96.5355 17.875 96.2192 17.9545 95.9616 18.1136C95.7041 18.2689 95.5753 18.4773 95.5753 18.7386C95.5753 18.947 95.6586 19.1231 95.8253 19.267C95.992 19.411 96.2779 19.5265 96.6832 19.6136L98.2628 19.9318C99.1113 20.1061 99.7438 20.3864 100.161 20.7727C100.577 21.1591 100.786 21.6667 100.786 22.2955C100.786 22.8674 100.617 23.3693 100.28 23.8011C99.9465 24.233 99.4882 24.5701 98.9048 24.8125C98.3253 25.0511 97.6567 25.1705 96.8991 25.1705C95.7438 25.1705 94.8234 24.9299 94.1378 24.4489C93.456 23.964 93.0563 23.3049 92.9389 22.4716L95.3196 22.3466C95.3916 22.6989 95.5658 22.9678 95.8423 23.1534C96.1188 23.3352 96.473 23.4261 96.9048 23.4261C97.3291 23.4261 97.67 23.3447 97.9276 23.1818C98.1889 23.0152 98.3215 22.8011 98.3253 22.5398C98.3215 22.3201 98.2287 22.1402 98.0469 22C97.8651 21.8561 97.5848 21.7462 97.206 21.6705L95.6946 21.3693C94.8423 21.1989 94.2079 20.9034 93.7912 20.483C93.3783 20.0625 93.1719 19.5265 93.1719 18.875C93.1719 18.3144 93.3234 17.8314 93.6264 17.4261C93.9332 17.0208 94.3632 16.7083 94.9162 16.4886C95.473 16.2689 96.1245 16.1591 96.8707 16.1591C97.973 16.1591 98.8404 16.392 99.473 16.858C100.109 17.3239 100.481 17.9583 100.587 18.7614ZM106.253 25.1705C105.37 25.1705 104.607 24.983 103.963 24.608C103.323 24.2292 102.829 23.7027 102.48 23.0284C102.132 22.3504 101.957 21.5644 101.957 20.6705C101.957 19.7689 102.132 18.9811 102.48 18.3068C102.829 17.6288 103.323 17.1023 103.963 16.7273C104.607 16.3485 105.37 16.1591 106.253 16.1591C107.135 16.1591 107.897 16.3485 108.537 16.7273C109.181 17.1023 109.677 17.6288 110.026 18.3068C110.374 18.9811 110.548 19.7689 110.548 20.6705C110.548 21.5644 110.374 22.3504 110.026 23.0284C109.677 23.7027 109.181 24.2292 108.537 24.608C107.897 24.983 107.135 25.1705 106.253 25.1705ZM106.264 23.2955C106.666 23.2955 107.001 23.1818 107.27 22.9545C107.539 22.7235 107.741 22.4091 107.878 22.0114C108.018 21.6136 108.088 21.161 108.088 20.6534C108.088 20.1458 108.018 19.6932 107.878 19.2955C107.741 18.8977 107.539 18.5833 107.27 18.3523C107.001 18.1212 106.666 18.0057 106.264 18.0057C105.859 18.0057 105.518 18.1212 105.241 18.3523C104.969 18.5833 104.762 18.8977 104.622 19.2955C104.486 19.6932 104.418 20.1458 104.418 20.6534C104.418 21.161 104.486 21.6136 104.622 22.0114C104.762 22.4091 104.969 22.7235 105.241 22.9545C105.518 23.1818 105.859 23.2955 106.264 23.2955ZM114.611 25.1648C114.054 25.1648 113.558 25.0682 113.122 24.875C112.687 24.678 112.342 24.3883 112.088 24.0057C111.838 23.6193 111.713 23.1383 111.713 22.5625C111.713 22.0777 111.802 21.6705 111.98 21.3409C112.158 21.0114 112.401 20.7462 112.707 20.5455C113.014 20.3447 113.363 20.1932 113.753 20.0909C114.147 19.9886 114.56 19.9167 114.991 19.875C115.499 19.822 115.908 19.7727 116.219 19.7273C116.529 19.678 116.755 19.6061 116.895 19.5114C117.035 19.4167 117.105 19.2765 117.105 19.0909V19.0568C117.105 18.697 116.991 18.4186 116.764 18.2216C116.541 18.0246 116.223 17.9261 115.81 17.9261C115.374 17.9261 115.027 18.0227 114.77 18.2159C114.512 18.4053 114.342 18.6439 114.259 18.9318L112.02 18.75C112.134 18.2197 112.357 17.7614 112.69 17.375C113.024 16.9848 113.454 16.6856 113.98 16.4773C114.51 16.2652 115.124 16.1591 115.821 16.1591C116.306 16.1591 116.77 16.2159 117.213 16.3295C117.66 16.4432 118.056 16.6193 118.401 16.858C118.749 17.0966 119.024 17.4034 119.224 17.7784C119.425 18.1496 119.526 18.5947 119.526 19.1136V25H117.23V23.7898H117.162C117.022 24.0625 116.834 24.303 116.599 24.5114C116.365 24.7159 116.082 24.8769 115.753 24.9943C115.423 25.108 115.043 25.1648 114.611 25.1648ZM115.304 23.4943C115.66 23.4943 115.974 23.4242 116.247 23.2841C116.52 23.1402 116.734 22.947 116.889 22.7045C117.045 22.4621 117.122 22.1875 117.122 21.8807V20.9545C117.046 21.0038 116.942 21.0492 116.81 21.0909C116.681 21.1288 116.535 21.1648 116.372 21.1989C116.209 21.2292 116.046 21.2576 115.884 21.2841C115.721 21.3068 115.573 21.3277 115.44 21.3466C115.156 21.3883 114.908 21.4545 114.696 21.5455C114.484 21.6364 114.319 21.7595 114.202 21.9148C114.084 22.0663 114.026 22.2557 114.026 22.483C114.026 22.8125 114.145 23.0644 114.384 23.2386C114.626 23.4091 114.933 23.4943 115.304 23.4943ZM121.403 25V16.2727H123.824V25H121.403ZM122.619 15.1477C122.259 15.1477 121.951 15.0284 121.693 14.7898C121.439 14.5473 121.312 14.2576 121.312 13.9205C121.312 13.5871 121.439 13.3011 121.693 13.0625C121.951 12.8201 122.259 12.6989 122.619 12.6989C122.979 12.6989 123.286 12.8201 123.54 13.0625C123.797 13.3011 123.926 13.5871 123.926 13.9205C123.926 14.2576 123.797 14.5473 123.54 14.7898C123.286 15.0284 122.979 15.1477 122.619 15.1477ZM133.024 18.7614L130.808 18.8977C130.77 18.7083 130.689 18.5379 130.564 18.3864C130.439 18.2311 130.274 18.108 130.07 18.017C129.869 17.9223 129.628 17.875 129.348 17.875C128.973 17.875 128.657 17.9545 128.399 18.1136C128.142 18.2689 128.013 18.4773 128.013 18.7386C128.013 18.947 128.096 19.1231 128.263 19.267C128.429 19.411 128.715 19.5265 129.121 19.6136L130.7 19.9318C131.549 20.1061 132.181 20.3864 132.598 20.7727C133.015 21.1591 133.223 21.6667 133.223 22.2955C133.223 22.8674 133.054 23.3693 132.717 23.8011C132.384 24.233 131.926 24.5701 131.342 24.8125C130.763 25.0511 130.094 25.1705 129.337 25.1705C128.181 25.1705 127.261 24.9299 126.575 24.4489C125.893 23.964 125.494 23.3049 125.376 22.4716L127.757 22.3466C127.829 22.6989 128.003 22.9678 128.28 23.1534C128.556 23.3352 128.911 23.4261 129.342 23.4261C129.767 23.4261 130.107 23.3447 130.365 23.1818C130.626 23.0152 130.759 22.8011 130.763 22.5398C130.759 22.3201 130.666 22.1402 130.484 22C130.303 21.8561 130.022 21.7462 129.643 21.6705L128.132 21.3693C127.28 21.1989 126.645 20.9034 126.229 20.483C125.816 20.0625 125.609 19.5265 125.609 18.875C125.609 18.3144 125.761 17.8314 126.064 17.4261C126.371 17.0208 126.801 16.7083 127.354 16.4886C127.911 16.2689 128.562 16.1591 129.308 16.1591C130.411 16.1591 131.278 16.392 131.911 16.858C132.547 17.3239 132.918 17.9583 133.024 18.7614Z" fill="white"/>
</svg>
