<svg width="84" height="39" viewBox="0 0 84 39" fill="none" xmlns="http://www.w3.org/2000/svg">
<rect width="84" height="39" rx="16" fill="black"/>
<path d="M21.2784 17.4375H18.7898C18.7443 17.1155 18.6515 16.8295 18.5114 16.5795C18.3712 16.3258 18.1913 16.1098 17.9716 15.9318C17.7519 15.7538 17.4981 15.6174 17.2102 15.5227C16.9261 15.428 16.6174 15.3807 16.2841 15.3807C15.6818 15.3807 15.1572 15.5303 14.7102 15.8295C14.2633 16.125 13.9167 16.5568 13.6705 17.125C13.4242 17.6894 13.3011 18.375 13.3011 19.1818C13.3011 20.0114 13.4242 20.7083 13.6705 21.2727C13.9205 21.8371 14.2689 22.2633 14.7159 22.5511C15.1629 22.839 15.6799 22.983 16.267 22.983C16.5966 22.983 16.9015 22.9394 17.1818 22.8523C17.4659 22.7652 17.7178 22.6383 17.9375 22.4716C18.1572 22.3011 18.339 22.0947 18.483 21.8523C18.6307 21.6098 18.733 21.3333 18.7898 21.0227L21.2784 21.0341C21.214 21.5682 21.053 22.0833 20.7955 22.5795C20.5417 23.072 20.1989 23.5133 19.767 23.9034C19.339 24.2898 18.8277 24.5966 18.233 24.8239C17.642 25.0473 16.9735 25.1591 16.2273 25.1591C15.1894 25.1591 14.2614 24.9242 13.4432 24.4545C12.6288 23.9848 11.9848 23.3049 11.5114 22.4148C11.0417 21.5246 10.8068 20.447 10.8068 19.1818C10.8068 17.9129 11.0455 16.8333 11.5227 15.9432C12 15.053 12.6477 14.375 13.4659 13.9091C14.2841 13.4394 15.2045 13.2045 16.2273 13.2045C16.9015 13.2045 17.5265 13.2992 18.1023 13.4886C18.6818 13.678 19.1951 13.9545 19.642 14.3182C20.089 14.678 20.4527 15.1193 20.733 15.642C21.017 16.1648 21.1989 16.7633 21.2784 17.4375ZM26.9403 25.1705C26.0578 25.1705 25.2945 24.983 24.6506 24.608C24.0104 24.2292 23.5161 23.7027 23.1676 23.0284C22.8191 22.3504 22.6449 21.5644 22.6449 20.6705C22.6449 19.7689 22.8191 18.9811 23.1676 18.3068C23.5161 17.6288 24.0104 17.1023 24.6506 16.7273C25.2945 16.3485 26.0578 16.1591 26.9403 16.1591C27.8229 16.1591 28.5843 16.3485 29.2244 16.7273C29.8684 17.1023 30.3646 17.6288 30.7131 18.3068C31.0616 18.9811 31.2358 19.7689 31.2358 20.6705C31.2358 21.5644 31.0616 22.3504 30.7131 23.0284C30.3646 23.7027 29.8684 24.2292 29.2244 24.608C28.5843 24.983 27.8229 25.1705 26.9403 25.1705ZM26.9517 23.2955C27.3532 23.2955 27.6884 23.1818 27.9574 22.9545C28.2263 22.7235 28.429 22.4091 28.5653 22.0114C28.7055 21.6136 28.7756 21.161 28.7756 20.6534C28.7756 20.1458 28.7055 19.6932 28.5653 19.2955C28.429 18.8977 28.2263 18.5833 27.9574 18.3523C27.6884 18.1212 27.3532 18.0057 26.9517 18.0057C26.5464 18.0057 26.2055 18.1212 25.929 18.3523C25.6563 18.5833 25.4498 18.8977 25.3097 19.2955C25.1733 19.6932 25.1051 20.1458 25.1051 20.6534C25.1051 21.161 25.1733 21.6136 25.3097 22.0114C25.4498 22.4091 25.6563 22.7235 25.929 22.9545C26.2055 23.1818 26.5464 23.2955 26.9517 23.2955ZM35.2301 19.9545V25H32.8097V16.2727H35.1165V17.8125H35.2188C35.4119 17.3049 35.7358 16.9034 36.1903 16.608C36.6449 16.3087 37.196 16.1591 37.8438 16.1591C38.4498 16.1591 38.9782 16.2917 39.429 16.5568C39.8797 16.822 40.2301 17.2008 40.4801 17.6932C40.7301 18.1818 40.8551 18.7652 40.8551 19.4432V25H38.4347V19.875C38.4384 19.3409 38.3021 18.9242 38.0256 18.625C37.7491 18.322 37.3684 18.1705 36.8835 18.1705C36.5578 18.1705 36.2699 18.2405 36.0199 18.3807C35.7737 18.5208 35.5805 18.7254 35.4403 18.9943C35.304 19.2595 35.2339 19.5795 35.2301 19.9545ZM47.4048 16.2727V18.0909H42.1491V16.2727H47.4048ZM43.3423 14.1818H45.7628V22.3182C45.7628 22.5417 45.7969 22.7159 45.8651 22.8409C45.9332 22.9621 46.0279 23.0473 46.1491 23.0966C46.2741 23.1458 46.4181 23.1705 46.581 23.1705C46.6946 23.1705 46.8082 23.161 46.9219 23.142C47.0355 23.1193 47.1226 23.1023 47.1832 23.0909L47.5639 24.892C47.4427 24.9299 47.2723 24.9735 47.0526 25.0227C46.8329 25.0758 46.5658 25.108 46.2514 25.1193C45.6681 25.142 45.1567 25.0644 44.7173 24.8864C44.2817 24.7083 43.9427 24.4318 43.7003 24.0568C43.4579 23.6818 43.3385 23.2083 43.3423 22.6364V14.1818ZM51.4702 25.1648C50.9134 25.1648 50.4171 25.0682 49.9815 24.875C49.5459 24.678 49.2012 24.3883 48.9474 24.0057C48.6974 23.6193 48.5724 23.1383 48.5724 22.5625C48.5724 22.0777 48.6615 21.6705 48.8395 21.3409C49.0175 21.0114 49.2599 20.7462 49.5668 20.5455C49.8736 20.3447 50.2221 20.1932 50.6122 20.0909C51.0062 19.9886 51.419 19.9167 51.8509 19.875C52.3584 19.822 52.7675 19.7727 53.0781 19.7273C53.3887 19.678 53.6141 19.6061 53.7543 19.5114C53.8944 19.4167 53.9645 19.2765 53.9645 19.0909V19.0568C53.9645 18.697 53.8509 18.4186 53.6236 18.2216C53.4001 18.0246 53.0819 17.9261 52.669 17.9261C52.2334 17.9261 51.8868 18.0227 51.6293 18.2159C51.3717 18.4053 51.2012 18.6439 51.1179 18.9318L48.8793 18.75C48.9929 18.2197 49.2164 17.7614 49.5497 17.375C49.883 16.9848 50.313 16.6856 50.8395 16.4773C51.3698 16.2652 51.9834 16.1591 52.6804 16.1591C53.1652 16.1591 53.6293 16.2159 54.0724 16.3295C54.5194 16.4432 54.9152 16.6193 55.2599 16.858C55.6084 17.0966 55.883 17.4034 56.0838 17.7784C56.2846 18.1496 56.3849 18.5947 56.3849 19.1136V25H54.0895V23.7898H54.0213C53.8812 24.0625 53.6937 24.303 53.4588 24.5114C53.224 24.7159 52.9418 24.8769 52.6122 24.9943C52.2827 25.108 51.902 25.1648 51.4702 25.1648ZM52.1634 23.4943C52.5194 23.4943 52.8338 23.4242 53.1065 23.2841C53.3793 23.1402 53.5933 22.947 53.7486 22.7045C53.9039 22.4621 53.9815 22.1875 53.9815 21.8807V20.9545C53.9058 21.0038 53.8016 21.0492 53.669 21.0909C53.5402 21.1288 53.3944 21.1648 53.2315 21.1989C53.0687 21.2292 52.9058 21.2576 52.7429 21.2841C52.58 21.3068 52.4323 21.3277 52.2997 21.3466C52.0156 21.3883 51.7675 21.4545 51.5554 21.5455C51.3433 21.6364 51.1785 21.7595 51.0611 21.9148C50.9437 22.0663 50.8849 22.2557 50.8849 22.483C50.8849 22.8125 51.0043 23.0644 51.2429 23.2386C51.4853 23.4091 51.7921 23.4943 52.1634 23.4943ZM62.9048 16.2727V18.0909H57.6491V16.2727H62.9048ZM58.8423 14.1818H61.2628V22.3182C61.2628 22.5417 61.2969 22.7159 61.3651 22.8409C61.4332 22.9621 61.5279 23.0473 61.6491 23.0966C61.7741 23.1458 61.9181 23.1705 62.081 23.1705C62.1946 23.1705 62.3082 23.161 62.4219 23.142C62.5355 23.1193 62.6226 23.1023 62.6832 23.0909L63.0639 24.892C62.9427 24.9299 62.7723 24.9735 62.5526 25.0227C62.3329 25.0758 62.0658 25.108 61.7514 25.1193C61.1681 25.142 60.6567 25.0644 60.2173 24.8864C59.7817 24.7083 59.4427 24.4318 59.2003 24.0568C58.9579 23.6818 58.8385 23.2083 58.8423 22.6364V14.1818ZM68.331 25.1705C67.4484 25.1705 66.6851 24.983 66.0412 24.608C65.401 24.2292 64.9067 23.7027 64.5582 23.0284C64.2098 22.3504 64.0355 21.5644 64.0355 20.6705C64.0355 19.7689 64.2098 18.9811 64.5582 18.3068C64.9067 17.6288 65.401 17.1023 66.0412 16.7273C66.6851 16.3485 67.4484 16.1591 68.331 16.1591C69.2135 16.1591 69.9749 16.3485 70.6151 16.7273C71.259 17.1023 71.7552 17.6288 72.1037 18.3068C72.4522 18.9811 72.6264 19.7689 72.6264 20.6705C72.6264 21.5644 72.4522 22.3504 72.1037 23.0284C71.7552 23.7027 71.259 24.2292 70.6151 24.608C69.9749 24.983 69.2135 25.1705 68.331 25.1705ZM68.3423 23.2955C68.7438 23.2955 69.0791 23.1818 69.348 22.9545C69.617 22.7235 69.8196 22.4091 69.956 22.0114C70.0961 21.6136 70.1662 21.161 70.1662 20.6534C70.1662 20.1458 70.0961 19.6932 69.956 19.2955C69.8196 18.8977 69.617 18.5833 69.348 18.3523C69.0791 18.1212 68.7438 18.0057 68.3423 18.0057C67.937 18.0057 67.5961 18.1212 67.3196 18.3523C67.0469 18.5833 66.8404 18.8977 66.7003 19.2955C66.5639 19.6932 66.4957 20.1458 66.4957 20.6534C66.4957 21.161 66.5639 21.6136 66.7003 22.0114C66.8404 22.4091 67.0469 22.7235 67.3196 22.9545C67.5961 23.1818 67.937 23.2955 68.3423 23.2955Z" fill="white"/>
</svg>
