<svg width="74" height="39" viewBox="0 0 74 39" fill="none" xmlns="http://www.w3.org/2000/svg">
<rect width="74" height="39" rx="19.5" fill="#E30140"/>
<path d="M7.86719 25.5547V23.6406C8.03906 23.7969 8.24219 23.9375 8.47656 24.0625C8.71615 24.1875 8.96875 24.2943 9.23438 24.3828C9.5 24.4661 9.76562 24.5312 10.0312 24.5781C10.2969 24.625 10.5417 24.6484 10.7656 24.6484C11.5469 24.6484 12.1276 24.5182 12.5078 24.2578C12.8932 23.9974 13.0859 23.6198 13.0859 23.125C13.0859 22.8594 13.0208 22.6302 12.8906 22.4375C12.7656 22.2396 12.5885 22.0599 12.3594 21.8984C12.1302 21.737 11.8594 21.5833 11.5469 21.4375C11.2396 21.2865 10.9089 21.1302 10.5547 20.9688C10.1745 20.7656 9.82031 20.5599 9.49219 20.3516C9.16406 20.1432 8.8776 19.9141 8.63281 19.6641C8.39323 19.4089 8.20312 19.1224 8.0625 18.8047C7.92708 18.487 7.85938 18.1146 7.85938 17.6875C7.85938 17.1615 7.97656 16.7057 8.21094 16.3203C8.45052 15.9297 8.76302 15.6094 9.14844 15.3594C9.53906 15.1042 9.98177 14.9167 10.4766 14.7969C10.9714 14.6719 11.4766 14.6094 11.9922 14.6094C13.1641 14.6094 14.0182 14.7422 14.5547 15.0078V16.8438C13.9193 16.3854 13.1016 16.1562 12.1016 16.1562C11.8255 16.1562 11.5495 16.1823 11.2734 16.2344C11.0026 16.2865 10.7578 16.3724 10.5391 16.4922C10.3255 16.612 10.151 16.7656 10.0156 16.9531C9.88021 17.1406 9.8125 17.3672 9.8125 17.6328C9.8125 17.8828 9.86458 18.099 9.96875 18.2812C10.0729 18.4635 10.224 18.6302 10.4219 18.7812C10.625 18.9323 10.8698 19.0807 11.1562 19.2266C11.4479 19.3672 11.7839 19.5208 12.1641 19.6875C12.5547 19.8906 12.9219 20.1042 13.2656 20.3281C13.6146 20.5521 13.9193 20.7995 14.1797 21.0703C14.4453 21.3411 14.6536 21.6432 14.8047 21.9766C14.9609 22.3047 15.0391 22.6797 15.0391 23.1016C15.0391 23.6693 14.9245 24.1484 14.6953 24.5391C14.4661 24.9297 14.1562 25.2474 13.7656 25.4922C13.3802 25.737 12.9349 25.9141 12.4297 26.0234C11.9245 26.1328 11.3906 26.1875 10.8281 26.1875C10.6406 26.1875 10.4089 26.1719 10.1328 26.1406C9.86198 26.1146 9.58333 26.0729 9.29688 26.0156C9.01042 25.9635 8.73958 25.8984 8.48438 25.8203C8.22917 25.7422 8.02344 25.6536 7.86719 25.5547ZM23.0391 26H21.2812V24.75H21.25C20.6979 25.7083 19.888 26.1875 18.8203 26.1875C18.0339 26.1875 17.4167 25.974 16.9688 25.5469C16.526 25.1198 16.3047 24.5547 16.3047 23.8516C16.3047 22.3411 17.1745 21.4609 18.9141 21.2109L21.2891 20.875C21.2891 19.7344 20.7474 19.1641 19.6641 19.1641C18.7109 19.1641 17.8516 19.4922 17.0859 20.1484V18.5625C17.9297 18.0625 18.9036 17.8125 20.0078 17.8125C22.0286 17.8125 23.0391 18.8073 23.0391 20.7969V26ZM21.2891 22.0703L19.6094 22.3047C19.0885 22.3724 18.6953 22.5 18.4297 22.6875C18.1693 22.8698 18.0391 23.1927 18.0391 23.6562C18.0391 23.9948 18.1589 24.2734 18.3984 24.4922C18.6432 24.7057 18.9688 24.8125 19.375 24.8125C19.9271 24.8125 20.3828 24.6198 20.7422 24.2344C21.1068 23.8438 21.2891 23.3542 21.2891 22.7656V22.0703ZM26.1719 16.3203C25.875 16.3203 25.6198 16.224 25.4062 16.0312C25.1979 15.8385 25.0938 15.5938 25.0938 15.2969C25.0938 15 25.1979 14.7526 25.4062 14.5547C25.6198 14.3568 25.875 14.2578 26.1719 14.2578C26.4792 14.2578 26.7396 14.3568 26.9531 14.5547C27.1667 14.7526 27.2734 15 27.2734 15.2969C27.2734 15.5781 27.1667 15.8203 26.9531 16.0234C26.7396 16.2214 26.4792 16.3203 26.1719 16.3203ZM27.0703 26H25.2578V18H27.0703V26ZM34.0859 19.7266C33.8672 19.5547 33.5521 19.4688 33.1406 19.4688C32.6042 19.4688 32.1562 19.7109 31.7969 20.1953C31.4375 20.6797 31.2578 21.3385 31.2578 22.1719V26H29.4453V18H31.2578V19.6484H31.2891C31.4661 19.0859 31.737 18.6484 32.1016 18.3359C32.4714 18.0182 32.8828 17.8594 33.3359 17.8594C33.6641 17.8594 33.9141 17.9089 34.0859 18.0078V19.7266Z" fill="white"/>
<path d="M62.4936 16.4932C62.7833 16.1395 63.3051 16.0873 63.6592 16.3768L66.6962 18.8595C66.8885 19.0167 67 19.2518 67 19.5C67 19.7483 66.8885 19.9834 66.6962 20.1405L63.6592 22.6233C63.3051 22.9127 62.7833 22.8606 62.4936 22.5068C62.2039 22.1531 62.2561 21.6317 62.6102 21.3423L63.8514 20.3276H62.0508C61.5933 20.3276 61.2225 19.9571 61.2225 19.5C61.2225 19.043 61.5933 18.6724 62.0508 18.6724H63.8514L62.6102 17.6578C62.2561 17.3684 62.2039 16.847 62.4936 16.4932Z" fill="white"/>
<path opacity="0.3" d="M55.7741 8.81179C54.9116 8.74138 53.8398 8.74139 52.4793 8.74139H51.7431C50.3826 8.74139 49.3108 8.74138 48.4483 8.81179C47.5684 8.88363 46.8336 9.03285 46.1658 9.3728C45.0748 9.92821 44.1878 10.8144 43.6319 11.9045C43.2917 12.5717 43.1424 13.3059 43.0705 14.1851C43 15.0468 43 16.1177 43 17.477V21.523C43 22.8823 43 23.9532 43.0705 24.8149C43.1424 25.6941 43.2917 26.4283 43.6319 27.0955C44.1878 28.1856 45.0748 29.0718 46.1658 29.6272C46.8336 29.9672 47.5684 30.1164 48.4483 30.1882C49.3108 30.2586 50.3826 30.2586 51.7431 30.2586H52.4793C53.8398 30.2586 54.9116 30.2586 55.7741 30.1882C56.654 30.1164 57.3889 29.9672 58.0566 29.6272C59.1476 29.0718 60.0346 28.1856 60.5905 27.0955C60.9568 26.3772 61.1086 25.7219 61.1731 24.8071C61.2429 23.9467 61.2429 22.8783 61.2429 21.5231V20.3276H56.2527C55.7952 20.3276 55.4244 19.9571 55.4244 19.5C55.4244 19.0429 55.7952 18.6724 56.2527 18.6724H61.2429V17.4771C61.2429 16.1226 61.2429 15.0545 61.1732 14.1943C61.1087 13.2788 60.957 12.6232 60.5905 11.9045C60.0346 10.8144 59.1476 9.92821 58.0566 9.3728C57.3889 9.03285 56.654 8.88363 55.7741 8.81179Z" fill="white"/>
</svg>
