<svg width="89" height="24" viewBox="0 0 89 24" fill="none" xmlns="http://www.w3.org/2000/svg">
<path opacity="0.3" d="M16.1034 0.0724062C15.0421 -6.00402e-06 13.7257 -3.3645e-06 12.0347 4.67167e-08H11.9653C10.2743 -3.3645e-06 8.95794 -6.00402e-06 7.89663 0.0724062C6.8198 0.145878 5.93824 0.296971 5.12848 0.632386C3.09286 1.47557 1.47557 3.09286 0.632386 5.12848C0.296971 5.93824 0.145878 6.8198 0.0724062 7.89663C-6.00402e-06 8.95794 -3.3645e-06 10.2743 4.67166e-08 11.9653V12.0347C-3.3645e-06 13.7257 -6.00402e-06 15.0421 0.0724062 16.1034C0.145878 17.1802 0.296971 18.0618 0.632386 18.8715C1.47557 20.9071 3.09286 22.5244 5.12848 23.3676C5.38405 23.4735 5.64678 23.561 5.92055 23.6335C6.51417 23.7907 7.15967 23.8773 7.89663 23.9276C8.30193 23.9552 8.74442 23.9723 9.23077 23.9829C10.018 24 10.9201 24 11.9653 24H12.0347C13.0799 24 13.982 24 14.7692 23.9829C15.2556 23.9723 15.6981 23.9552 16.1034 23.9276C16.8397 23.8774 17.4847 23.7908 18.0779 23.6339C18.3522 23.5613 18.6155 23.4737 18.8715 23.3676C20.9071 22.5244 22.5244 20.9071 23.3676 18.8715C23.703 18.0618 23.8541 17.1802 23.9276 16.1034C24 15.0421 24 13.7257 24 12.0347V11.9653C24 10.2743 24 8.95793 23.9276 7.89663C23.8541 6.8198 23.703 5.93824 23.3676 5.12848C22.5244 3.09286 20.9071 1.47557 18.8715 0.632386C18.0618 0.296971 17.1802 0.145878 16.1034 0.0724062Z" fill="#E30140"/>
<path d="M11.9653 24H12.0347C13.0799 24 13.982 24 14.7692 23.9829C15.2556 23.9723 15.6981 23.9552 16.1034 23.9276C16.8397 23.8773 17.4847 23.7908 18.0779 23.6339C18.3242 23.4457 18.4719 23.1355 18.4603 22.7999C18.4442 22.3367 18.4148 21.8971 18.3613 21.4787C18.2496 20.6055 18.0404 19.9006 17.6818 19.3356C17.0152 18.2851 15.579 17.3505 11.9876 17.267C8.4093 17.269 6.98449 18.2055 6.32087 19.266C5.96049 19.8419 5.75015 20.5639 5.63795 21.4529C5.58395 21.8807 5.5545 22.3292 5.53846 22.7999C5.52703 23.1353 5.67454 23.4453 5.92054 23.6335C6.51416 23.7907 7.15967 23.8773 7.89663 23.9276C8.30193 23.9552 8.74442 23.9723 9.23077 23.9829C10.018 24 10.9201 24 11.9653 24Z" fill="#E30140"/>
<path d="M16.543 10.3167C16.543 12.9847 14.4806 15.095 11.9995 15.095C9.51838 15.095 7.456 12.9847 7.456 10.3167C7.456 7.64872 9.51838 5.53845 11.9995 5.53845C14.4806 5.53845 16.543 7.64872 16.543 10.3167Z" fill="#E30140"/>
<path d="M43.1328 18.5H40.3828L39.5859 16.0078H35.6016L34.8125 18.5H32.0781L36.1562 7.29688H39.1484L43.1328 18.5ZM39.0078 14.0703L37.8047 10.3047C37.7161 10.0234 37.6536 9.6875 37.6172 9.29688H37.5547C37.5286 9.625 37.4635 9.95052 37.3594 10.2734L36.1406 14.0703H39.0078ZM44.5312 18.5V7.29688H48.5C52.4792 7.29688 54.4688 9.11719 54.4688 12.7578C54.4688 14.5026 53.9245 15.8958 52.8359 16.9375C51.7526 17.9792 50.3073 18.5 48.5 18.5H44.5312ZM47.0547 9.35156V16.4531H48.3047C49.3984 16.4531 50.2552 16.125 50.875 15.4688C51.5 14.8125 51.8125 13.9193 51.8125 12.7891C51.8125 11.7214 51.5026 10.8828 50.8828 10.2734C50.2682 9.65885 49.4036 9.35156 48.2891 9.35156H47.0547ZM69.0938 18.5H66.6016V11.7969C66.6016 11.0729 66.6328 10.2734 66.6953 9.39844H66.6328C66.5026 10.0859 66.3854 10.5807 66.2812 10.8828L63.6562 18.5H61.5938L58.9219 10.9609C58.849 10.7578 58.7318 10.237 58.5703 9.39844H58.5C58.5677 10.5026 58.6016 11.4714 58.6016 12.3047V18.5H56.3281V7.29688H60.0234L62.3125 13.9375C62.4948 14.4688 62.6276 15.0026 62.7109 15.5391H62.7578C62.8984 14.9193 63.0469 14.3802 63.2031 13.9219L65.4922 7.29688H69.0938V18.5ZM74.1641 18.5H71.6406V7.29688H74.1641V18.5ZM86.7969 18.5H84.25L79.6328 11.4609C79.362 11.0495 79.1745 10.7396 79.0703 10.5312H79.0391C79.0807 10.9271 79.1016 11.5312 79.1016 12.3438V18.5H76.7188V7.29688H79.4375L83.8828 14.1172C84.0859 14.4245 84.2734 14.7292 84.4453 15.0312H84.4766C84.4349 14.7708 84.4141 14.2578 84.4141 13.4922V7.29688H86.7969V18.5Z" fill="#E30140"/>
</svg>
