<svg width="165" height="32" viewBox="0 0 165 32" fill="none" xmlns="http://www.w3.org/2000/svg">
<path opacity="0.3" fill-rule="evenodd" clip-rule="evenodd" d="M14.6667 0C6.57456 0 0 6.52032 0 14.5815C0 22.6427 6.57456 29.163 14.6667 29.163C18.1871 29.163 21.4206 27.9284 23.9491 25.8716L29.7269 31.6125C30.2492 32.1315 31.0935 32.1288 31.6125 31.6065C32.1315 31.0841 32.1288 30.2399 31.6065 29.7208L25.8568 24.0079C28.0237 21.4676 29.3333 18.1762 29.3333 14.5815C29.3333 6.52032 22.7588 0 14.6667 0Z" fill="#2997FF"/>
<path d="M14.6667 5.33334C13.9303 5.33334 13.3333 5.9303 13.3333 6.66668C13.3333 7.40306 13.9303 8.00001 14.6667 8.00001C18.3486 8.00001 21.3333 10.9848 21.3333 14.6667C21.3333 15.4031 21.9303 16 22.6667 16C23.403 16 24 15.4031 24 14.6667C24 9.51202 19.8213 5.33334 14.6667 5.33334Z" fill="#2997FF"/>
<path d="M52.8516 19.9062V26H50.0742V9.19531H55.1719C57.1016 9.19531 58.5977 9.64453 59.6602 10.543C60.7227 11.4414 61.2539 12.707 61.2539 14.3398C61.2539 15.9727 60.6992 17.3086 59.5898 18.3477C58.4805 19.3867 56.9805 19.9062 55.0898 19.9062H52.8516ZM52.8516 11.4922V17.6328H54.6562C55.8516 17.6328 56.7617 17.3555 57.3867 16.8008C58.0117 16.2461 58.3242 15.4648 58.3242 14.457C58.3242 12.4805 57.1758 11.4922 54.8789 11.4922H52.8516ZM63.0586 25.625V23.1055C64.0742 23.8789 65.1953 24.2656 66.4219 24.2656C68.0625 24.2656 68.8828 23.7812 68.8828 22.8125C68.8828 22.5391 68.8125 22.3086 68.6719 22.1211C68.5312 21.9258 68.3398 21.7539 68.0977 21.6055C67.8633 21.457 67.582 21.3242 67.2539 21.207C66.9336 21.0898 66.5742 20.957 66.1758 20.8086C65.6836 20.6133 65.2383 20.4062 64.8398 20.1875C64.4492 19.9688 64.1211 19.7227 63.8555 19.4492C63.5977 19.168 63.4023 18.8516 63.2695 18.5C63.1367 18.1484 63.0703 17.7383 63.0703 17.2695C63.0703 16.6914 63.207 16.1836 63.4805 15.7461C63.7539 15.3008 64.1211 14.9297 64.582 14.6328C65.043 14.3281 65.5664 14.1016 66.1523 13.9531C66.7383 13.7969 67.3438 13.7188 67.9688 13.7188C69.0781 13.7188 70.0703 13.8867 70.9453 14.2227V16.6016C70.1016 16.0234 69.1328 15.7344 68.0391 15.7344C67.6953 15.7344 67.3828 15.7695 67.1016 15.8398C66.8281 15.9102 66.5938 16.0078 66.3984 16.1328C66.2031 16.2578 66.0508 16.4102 65.9414 16.5898C65.832 16.7617 65.7773 16.9531 65.7773 17.1641C65.7773 17.4219 65.832 17.6406 65.9414 17.8203C66.0508 18 66.2109 18.1602 66.4219 18.3008C66.6406 18.4336 66.8984 18.5586 67.1953 18.6758C67.5 18.7852 67.8477 18.9062 68.2383 19.0391C68.7539 19.25 69.2148 19.4648 69.6211 19.6836C70.0352 19.9023 70.3867 20.1523 70.6758 20.4336C70.9648 20.707 71.1875 21.0273 71.3438 21.3945C71.5 21.7539 71.5781 22.1836 71.5781 22.6836C71.5781 23.293 71.4375 23.8242 71.1562 24.2773C70.875 24.7305 70.5 25.1055 70.0312 25.4023C69.5625 25.6992 69.0195 25.918 68.4023 26.0586C67.793 26.207 67.1484 26.2812 66.4688 26.2812C65.1562 26.2812 64.0195 26.0625 63.0586 25.625ZM75.5391 11.4805C75.0938 11.4805 74.7109 11.3359 74.3906 11.0469C74.0781 10.7578 73.9219 10.3906 73.9219 9.94531C73.9219 9.5 74.0781 9.12891 74.3906 8.83203C74.7109 8.53516 75.0938 8.38672 75.5391 8.38672C76 8.38672 76.3906 8.53516 76.7109 8.83203C77.0312 9.12891 77.1914 9.5 77.1914 9.94531C77.1914 10.3672 77.0312 10.7305 76.7109 11.0352C76.3906 11.332 76 11.4805 75.5391 11.4805ZM76.8867 26H74.168V14H76.8867V26ZM89.0391 25.4492C88.0781 26.0039 86.9414 26.2812 85.6289 26.2812C83.8477 26.2812 82.4102 25.7266 81.3164 24.6172C80.2227 23.5 79.6758 22.0547 79.6758 20.2812C79.6758 18.3047 80.2617 16.7188 81.4336 15.5234C82.6133 14.3203 84.1875 13.7188 86.1562 13.7188C87.25 13.7188 88.2148 13.9102 89.0508 14.293V16.8242C88.2148 16.1992 87.3242 15.8867 86.3789 15.8867C85.2305 15.8867 84.2891 16.2773 83.5547 17.0586C82.8203 17.832 82.4531 18.8477 82.4531 20.1055C82.4531 21.3477 82.7969 22.3281 83.4844 23.0469C84.1797 23.7656 85.1094 24.125 86.2734 24.125C87.25 24.125 88.1719 23.7773 89.0391 23.082V25.4492ZM97.0664 26.2812C95.2148 26.2812 93.7344 25.7227 92.625 24.6055C91.5234 23.4805 90.9727 21.9922 90.9727 20.1406C90.9727 18.125 91.5469 16.5508 92.6953 15.418C93.8516 14.2852 95.4062 13.7188 97.3594 13.7188C99.2344 13.7188 100.695 14.2695 101.742 15.3711C102.789 16.4727 103.312 18 103.312 19.9531C103.312 21.8672 102.746 23.4023 101.613 24.5586C100.488 25.707 98.9727 26.2812 97.0664 26.2812ZM97.1953 15.8867C96.1328 15.8867 95.293 16.2578 94.6758 17C94.0586 17.7422 93.75 18.7656 93.75 20.0703C93.75 21.3281 94.0625 22.3203 94.6875 23.0469C95.3125 23.7656 96.1484 24.125 97.1953 24.125C98.2656 24.125 99.0859 23.7695 99.6562 23.0586C100.234 22.3477 100.523 21.3359 100.523 20.0234C100.523 18.7031 100.234 17.6836 99.6562 16.9648C99.0859 16.2461 98.2656 15.8867 97.1953 15.8867ZM100.664 7.88281L97.3125 11.7266H95.2969L98.1328 7.88281H100.664ZM108.82 26H106.09V8.23438H108.82V26ZM117.691 26.2812C115.84 26.2812 114.359 25.7227 113.25 24.6055C112.148 23.4805 111.598 21.9922 111.598 20.1406C111.598 18.125 112.172 16.5508 113.32 15.418C114.477 14.2852 116.031 13.7188 117.984 13.7188C119.859 13.7188 121.32 14.2695 122.367 15.3711C123.414 16.4727 123.938 18 123.938 19.9531C123.938 21.8672 123.371 23.4023 122.238 24.5586C121.113 25.707 119.598 26.2812 117.691 26.2812ZM117.82 15.8867C116.758 15.8867 115.918 16.2578 115.301 17C114.684 17.7422 114.375 18.7656 114.375 20.0703C114.375 21.3281 114.688 22.3203 115.312 23.0469C115.938 23.7656 116.773 24.125 117.82 24.125C118.891 24.125 119.711 23.7695 120.281 23.0586C120.859 22.3477 121.148 21.3359 121.148 20.0234C121.148 18.7031 120.859 17.6836 120.281 16.9648C119.711 16.2461 118.891 15.8867 117.82 15.8867ZM137.637 25.0391C137.637 29.4453 135.422 31.6484 130.992 31.6484C129.43 31.6484 128.066 31.3867 126.902 30.8633V28.3789C128.215 29.1289 129.461 29.5039 130.641 29.5039C133.492 29.5039 134.918 28.1016 134.918 25.2969V23.9844H134.871C133.973 25.5156 132.621 26.2812 130.816 26.2812C129.355 26.2812 128.176 25.75 127.277 24.6875C126.387 23.6172 125.941 22.1836 125.941 20.3867C125.941 18.3477 126.422 16.7266 127.383 15.5234C128.344 14.3203 129.664 13.7188 131.344 13.7188C132.93 13.7188 134.105 14.3672 134.871 15.6641H134.918V14H137.637V25.0391ZM134.941 20.5039V18.9453C134.941 18.1016 134.66 17.3828 134.098 16.7891C133.543 16.1875 132.848 15.8867 132.012 15.8867C130.98 15.8867 130.172 16.2695 129.586 17.0352C129.008 17.793 128.719 18.8555 128.719 20.2227C128.719 21.4023 128.996 22.3477 129.551 23.0586C130.113 23.7617 130.855 24.1133 131.777 24.1133C132.715 24.1133 133.477 23.7773 134.062 23.1055C134.648 22.4258 134.941 21.5586 134.941 20.5039ZM146.496 26.2812C144.645 26.2812 143.164 25.7227 142.055 24.6055C140.953 23.4805 140.402 21.9922 140.402 20.1406C140.402 18.125 140.977 16.5508 142.125 15.418C143.281 14.2852 144.836 13.7188 146.789 13.7188C148.664 13.7188 150.125 14.2695 151.172 15.3711C152.219 16.4727 152.742 18 152.742 19.9531C152.742 21.8672 152.176 23.4023 151.043 24.5586C149.918 25.707 148.402 26.2812 146.496 26.2812ZM146.625 15.8867C145.562 15.8867 144.723 16.2578 144.105 17C143.488 17.7422 143.18 18.7656 143.18 20.0703C143.18 21.3281 143.492 22.3203 144.117 23.0469C144.742 23.7656 145.578 24.125 146.625 24.125C147.695 24.125 148.516 23.7695 149.086 23.0586C149.664 22.3477 149.953 21.3359 149.953 20.0234C149.953 18.7031 149.664 17.6836 149.086 16.9648C148.516 16.2461 147.695 15.8867 146.625 15.8867ZM154.77 25.625V23.1055C155.785 23.8789 156.906 24.2656 158.133 24.2656C159.773 24.2656 160.594 23.7812 160.594 22.8125C160.594 22.5391 160.523 22.3086 160.383 22.1211C160.242 21.9258 160.051 21.7539 159.809 21.6055C159.574 21.457 159.293 21.3242 158.965 21.207C158.645 21.0898 158.285 20.957 157.887 20.8086C157.395 20.6133 156.949 20.4062 156.551 20.1875C156.16 19.9688 155.832 19.7227 155.566 19.4492C155.309 19.168 155.113 18.8516 154.98 18.5C154.848 18.1484 154.781 17.7383 154.781 17.2695C154.781 16.6914 154.918 16.1836 155.191 15.7461C155.465 15.3008 155.832 14.9297 156.293 14.6328C156.754 14.3281 157.277 14.1016 157.863 13.9531C158.449 13.7969 159.055 13.7188 159.68 13.7188C160.789 13.7188 161.781 13.8867 162.656 14.2227V16.6016C161.812 16.0234 160.844 15.7344 159.75 15.7344C159.406 15.7344 159.094 15.7695 158.812 15.8398C158.539 15.9102 158.305 16.0078 158.109 16.1328C157.914 16.2578 157.762 16.4102 157.652 16.5898C157.543 16.7617 157.488 16.9531 157.488 17.1641C157.488 17.4219 157.543 17.6406 157.652 17.8203C157.762 18 157.922 18.1602 158.133 18.3008C158.352 18.4336 158.609 18.5586 158.906 18.6758C159.211 18.7852 159.559 18.9062 159.949 19.0391C160.465 19.25 160.926 19.4648 161.332 19.6836C161.746 19.9023 162.098 20.1523 162.387 20.4336C162.676 20.707 162.898 21.0273 163.055 21.3945C163.211 21.7539 163.289 22.1836 163.289 22.6836C163.289 23.293 163.148 23.8242 162.867 24.2773C162.586 24.7305 162.211 25.1055 161.742 25.4023C161.273 25.6992 160.73 25.918 160.113 26.0586C159.504 26.207 158.859 26.2812 158.18 26.2812C156.867 26.2812 155.73 26.0625 154.77 25.625Z" fill="#2997FF"/>
</svg>
