<svg width="167" height="32" viewBox="0 0 167 32" fill="none" xmlns="http://www.w3.org/2000/svg">
<path opacity="0.3" fill-rule="evenodd" clip-rule="evenodd" d="M14.6667 0C6.57456 0 0 6.52032 0 14.5815C0 22.6427 6.57456 29.163 14.6667 29.163C18.1871 29.163 21.4206 27.9284 23.9491 25.8716L29.7269 31.6125C30.2492 32.1315 31.0935 32.1288 31.6125 31.6065C32.1315 31.0841 32.1288 30.2399 31.6065 29.7208L25.8568 24.0079C28.0237 21.4676 29.3333 18.1762 29.3333 14.5815C29.3333 6.52032 22.7588 0 14.6667 0Z" fill="#00A265"/>
<path d="M14.6667 5.33334C13.9303 5.33334 13.3333 5.9303 13.3333 6.66668C13.3333 7.40306 13.9303 8.00001 14.6667 8.00001C18.3486 8.00001 21.3333 10.9848 21.3333 14.6667C21.3333 15.4031 21.9303 16 22.6667 16C23.4031 16 24 15.4031 24 14.6667C24 9.51202 19.8213 5.33334 14.6667 5.33334Z" fill="#00A265"/>
<path d="M52.8516 19.9062V26H50.0742V9.19531H55.1719C57.1016 9.19531 58.5977 9.64453 59.6602 10.543C60.7227 11.4414 61.2539 12.707 61.2539 14.3398C61.2539 15.9727 60.6992 17.3086 59.5898 18.3477C58.4805 19.3867 56.9805 19.9062 55.0898 19.9062H52.8516ZM52.8516 11.4922V17.6328H54.6562C55.8516 17.6328 56.7617 17.3555 57.3867 16.8008C58.0117 16.2461 58.3242 15.4648 58.3242 14.457C58.3242 12.4805 57.1758 11.4922 54.8789 11.4922H52.8516ZM63.0586 25.625V23.1055C64.0742 23.8789 65.1953 24.2656 66.4219 24.2656C68.0625 24.2656 68.8828 23.7812 68.8828 22.8125C68.8828 22.5391 68.8125 22.3086 68.6719 22.1211C68.5312 21.9258 68.3398 21.7539 68.0977 21.6055C67.8633 21.457 67.582 21.3242 67.2539 21.207C66.9336 21.0898 66.5742 20.957 66.1758 20.8086C65.6836 20.6133 65.2383 20.4062 64.8398 20.1875C64.4492 19.9688 64.1211 19.7227 63.8555 19.4492C63.5977 19.168 63.4023 18.8516 63.2695 18.5C63.1367 18.1484 63.0703 17.7383 63.0703 17.2695C63.0703 16.6914 63.207 16.1836 63.4805 15.7461C63.7539 15.3008 64.1211 14.9297 64.582 14.6328C65.043 14.3281 65.5664 14.1016 66.1523 13.9531C66.7383 13.7969 67.3438 13.7188 67.9688 13.7188C69.0781 13.7188 70.0703 13.8867 70.9453 14.2227V16.6016C70.1016 16.0234 69.1328 15.7344 68.0391 15.7344C67.6953 15.7344 67.3828 15.7695 67.1016 15.8398C66.8281 15.9102 66.5938 16.0078 66.3984 16.1328C66.2031 16.2578 66.0508 16.4102 65.9414 16.5898C65.832 16.7617 65.7773 16.9531 65.7773 17.1641C65.7773 17.4219 65.832 17.6406 65.9414 17.8203C66.0508 18 66.2109 18.1602 66.4219 18.3008C66.6406 18.4336 66.8984 18.5586 67.1953 18.6758C67.5 18.7852 67.8477 18.9062 68.2383 19.0391C68.7539 19.25 69.2148 19.4648 69.6211 19.6836C70.0352 19.9023 70.3867 20.1523 70.6758 20.4336C70.9648 20.707 71.1875 21.0273 71.3438 21.3945C71.5 21.7539 71.5781 22.1836 71.5781 22.6836C71.5781 23.293 71.4375 23.8242 71.1562 24.2773C70.875 24.7305 70.5 25.1055 70.0312 25.4023C69.5625 25.6992 69.0195 25.918 68.4023 26.0586C67.793 26.207 67.1484 26.2812 66.4688 26.2812C65.1562 26.2812 64.0195 26.0625 63.0586 25.625ZM75.5391 11.4805C75.0938 11.4805 74.7109 11.3359 74.3906 11.0469C74.0781 10.7578 73.9219 10.3906 73.9219 9.94531C73.9219 9.5 74.0781 9.12891 74.3906 8.83203C74.7109 8.53516 75.0938 8.38672 75.5391 8.38672C76 8.38672 76.3906 8.53516 76.7109 8.83203C77.0312 9.12891 77.1914 9.5 77.1914 9.94531C77.1914 10.3672 77.0312 10.7305 76.7109 11.0352C76.3906 11.332 76 11.4805 75.5391 11.4805ZM76.8867 26H74.168V14H76.8867V26ZM91.3594 31.5195H88.6406V23.9375H88.5938C87.7734 25.5 86.4336 26.2812 84.5742 26.2812C83.0977 26.2812 81.9102 25.7461 81.0117 24.6758C80.1211 23.5977 79.6758 22.1328 79.6758 20.2812C79.6758 18.2891 80.1641 16.6992 81.1406 15.5117C82.125 14.3164 83.4453 13.7188 85.1016 13.7188C86.7109 13.7188 87.875 14.3672 88.5938 15.6641H88.6406V14H91.3594V31.5195ZM88.6758 20.5391V18.9922C88.6758 18.125 88.3945 17.3906 87.832 16.7891C87.2773 16.1875 86.5703 15.8867 85.7109 15.8867C84.7031 15.8867 83.9062 16.2656 83.3203 17.0234C82.7422 17.7734 82.4531 18.8359 82.4531 20.2109C82.4531 21.4297 82.7344 22.3867 83.2969 23.082C83.8594 23.7773 84.5859 24.125 85.4766 24.125C86.4531 24.125 87.2305 23.7852 87.8086 23.1055C88.3867 22.4258 88.6758 21.5703 88.6758 20.5391ZM105.375 26H102.656V24.1016H102.609C101.82 25.5547 100.594 26.2812 98.9297 26.2812C96.0938 26.2812 94.6758 24.5781 94.6758 21.1719V14H97.3945V20.8906C97.3945 23.0469 98.2266 24.125 99.8906 24.125C100.695 24.125 101.355 23.8281 101.871 23.2344C102.395 22.6406 102.656 21.8633 102.656 20.9023V14H105.375V26ZM110.297 11.4805C109.852 11.4805 109.469 11.3359 109.148 11.0469C108.836 10.7578 108.68 10.3906 108.68 9.94531C108.68 9.5 108.836 9.12891 109.148 8.83203C109.469 8.53516 109.852 8.38672 110.297 8.38672C110.758 8.38672 111.148 8.53516 111.469 8.83203C111.789 9.12891 111.949 9.5 111.949 9.94531C111.949 10.3672 111.789 10.7305 111.469 11.0352C111.148 11.332 110.758 11.4805 110.297 11.4805ZM111.645 26H108.926V14H111.645V26ZM124.418 26H121.781V24.125H121.734C120.906 25.5625 119.691 26.2812 118.09 26.2812C116.91 26.2812 115.984 25.9609 115.312 25.3203C114.648 24.6797 114.316 23.832 114.316 22.7773C114.316 20.5117 115.621 19.1914 118.23 18.8164L121.793 18.3125C121.793 16.6016 120.98 15.7461 119.355 15.7461C117.926 15.7461 116.637 16.2383 115.488 17.2227V14.8438C116.754 14.0938 118.215 13.7188 119.871 13.7188C122.902 13.7188 124.418 15.2109 124.418 18.1953V26ZM121.793 20.1055L119.273 20.457C118.492 20.5586 117.902 20.75 117.504 21.0312C117.113 21.3047 116.918 21.7891 116.918 22.4844C116.918 22.9922 117.098 23.4102 117.457 23.7383C117.824 24.0586 118.312 24.2188 118.922 24.2188C119.75 24.2188 120.434 23.9297 120.973 23.3516C121.52 22.7656 121.793 22.0312 121.793 21.1484V20.1055ZM134.074 25.8711C133.543 26.1367 132.844 26.2695 131.977 26.2695C129.648 26.2695 128.484 25.1523 128.484 22.918V16.1328H126.48V14H128.484V11.2227L131.203 10.4492V14H134.074V16.1328H131.203V22.1328C131.203 22.8438 131.332 23.3516 131.59 23.6562C131.848 23.9609 132.277 24.1133 132.879 24.1133C133.34 24.1133 133.738 23.9805 134.074 23.7148V25.8711ZM143.379 16.5898C143.051 16.332 142.578 16.2031 141.961 16.2031C141.156 16.2031 140.484 16.5664 139.945 17.293C139.406 18.0195 139.137 19.0078 139.137 20.2578V26H136.418V14H139.137V16.4727H139.184C139.449 15.6289 139.855 14.9727 140.402 14.5039C140.957 14.0273 141.574 13.7891 142.254 13.7891C142.746 13.7891 143.121 13.8633 143.379 14.0117V16.5898ZM154.512 26H151.875V24.125H151.828C151 25.5625 149.785 26.2812 148.184 26.2812C147.004 26.2812 146.078 25.9609 145.406 25.3203C144.742 24.6797 144.41 23.832 144.41 22.7773C144.41 20.5117 145.715 19.1914 148.324 18.8164L151.887 18.3125C151.887 16.6016 151.074 15.7461 149.449 15.7461C148.02 15.7461 146.73 16.2383 145.582 17.2227V14.8438C146.848 14.0938 148.309 13.7188 149.965 13.7188C152.996 13.7188 154.512 15.2109 154.512 18.1953V26ZM151.887 20.1055L149.367 20.457C148.586 20.5586 147.996 20.75 147.598 21.0312C147.207 21.3047 147.012 21.7891 147.012 22.4844C147.012 22.9922 147.191 23.4102 147.551 23.7383C147.918 24.0586 148.406 24.2188 149.016 24.2188C149.844 24.2188 150.527 23.9297 151.066 23.3516C151.613 22.7656 151.887 22.0312 151.887 21.1484V20.1055ZM157.09 25.625V23.1055C158.105 23.8789 159.227 24.2656 160.453 24.2656C162.094 24.2656 162.914 23.7812 162.914 22.8125C162.914 22.5391 162.844 22.3086 162.703 22.1211C162.562 21.9258 162.371 21.7539 162.129 21.6055C161.895 21.457 161.613 21.3242 161.285 21.207C160.965 21.0898 160.605 20.957 160.207 20.8086C159.715 20.6133 159.27 20.4062 158.871 20.1875C158.48 19.9688 158.152 19.7227 157.887 19.4492C157.629 19.168 157.434 18.8516 157.301 18.5C157.168 18.1484 157.102 17.7383 157.102 17.2695C157.102 16.6914 157.238 16.1836 157.512 15.7461C157.785 15.3008 158.152 14.9297 158.613 14.6328C159.074 14.3281 159.598 14.1016 160.184 13.9531C160.77 13.7969 161.375 13.7188 162 13.7188C163.109 13.7188 164.102 13.8867 164.977 14.2227V16.6016C164.133 16.0234 163.164 15.7344 162.07 15.7344C161.727 15.7344 161.414 15.7695 161.133 15.8398C160.859 15.9102 160.625 16.0078 160.43 16.1328C160.234 16.2578 160.082 16.4102 159.973 16.5898C159.863 16.7617 159.809 16.9531 159.809 17.1641C159.809 17.4219 159.863 17.6406 159.973 17.8203C160.082 18 160.242 18.1602 160.453 18.3008C160.672 18.4336 160.93 18.5586 161.227 18.6758C161.531 18.7852 161.879 18.9062 162.27 19.0391C162.785 19.25 163.246 19.4648 163.652 19.6836C164.066 19.9023 164.418 20.1523 164.707 20.4336C164.996 20.707 165.219 21.0273 165.375 21.3945C165.531 21.7539 165.609 22.1836 165.609 22.6836C165.609 23.293 165.469 23.8242 165.188 24.2773C164.906 24.7305 164.531 25.1055 164.062 25.4023C163.594 25.6992 163.051 25.918 162.434 26.0586C161.824 26.207 161.18 26.2812 160.5 26.2812C159.188 26.2812 158.051 26.0625 157.09 25.625Z" fill="#00A265"/>
</svg>
