<svg width="68" height="39" viewBox="0 0 68 39" fill="none" xmlns="http://www.w3.org/2000/svg">
<rect width="68" height="39" rx="16" fill="#E30140"/>
<path d="M13.1136 13.3636L15.9261 22.2045H16.0341L18.8523 13.3636H21.5795L17.5682 25H14.3977L10.3807 13.3636H13.1136ZM25.8935 25.1705C25.0109 25.1705 24.2476 24.983 23.6037 24.608C22.9635 24.2292 22.4692 23.7027 22.1207 23.0284C21.7723 22.3504 21.598 21.5644 21.598 20.6705C21.598 19.7689 21.7723 18.9811 22.1207 18.3068C22.4692 17.6288 22.9635 17.1023 23.6037 16.7273C24.2476 16.3485 25.0109 16.1591 25.8935 16.1591C26.776 16.1591 27.5374 16.3485 28.1776 16.7273C28.8215 17.1023 29.3177 17.6288 29.6662 18.3068C30.0147 18.9811 30.1889 19.7689 30.1889 20.6705C30.1889 21.5644 30.0147 22.3504 29.6662 23.0284C29.3177 23.7027 28.8215 24.2292 28.1776 24.608C27.5374 24.983 26.776 25.1705 25.8935 25.1705ZM25.9048 23.2955C26.3063 23.2955 26.6416 23.1818 26.9105 22.9545C27.1795 22.7235 27.3821 22.4091 27.5185 22.0114C27.6586 21.6136 27.7287 21.161 27.7287 20.6534C27.7287 20.1458 27.6586 19.6932 27.5185 19.2955C27.3821 18.8977 27.1795 18.5833 26.9105 18.3523C26.6416 18.1212 26.3063 18.0057 25.9048 18.0057C25.4995 18.0057 25.1586 18.1212 24.8821 18.3523C24.6094 18.5833 24.4029 18.8977 24.2628 19.2955C24.1264 19.6932 24.0582 20.1458 24.0582 20.6534C24.0582 21.161 24.1264 21.6136 24.2628 22.0114C24.4029 22.4091 24.6094 22.7235 24.8821 22.9545C25.1586 23.1818 25.4995 23.2955 25.9048 23.2955ZM34.1832 13.3636V25H31.7628V13.3636H34.1832ZM40.7642 16.2727V18.0909H35.5085V16.2727H40.7642ZM36.7017 14.1818H39.1222V22.3182C39.1222 22.5417 39.1563 22.7159 39.2244 22.8409C39.2926 22.9621 39.3873 23.0473 39.5085 23.0966C39.6335 23.1458 39.7775 23.1705 39.9403 23.1705C40.054 23.1705 40.1676 23.161 40.2812 23.142C40.3949 23.1193 40.482 23.1023 40.5426 23.0909L40.9233 24.892C40.8021 24.9299 40.6316 24.9735 40.4119 25.0227C40.1922 25.0758 39.9252 25.108 39.6108 25.1193C39.0275 25.142 38.5161 25.0644 38.0767 24.8864C37.6411 24.7083 37.3021 24.4318 37.0597 24.0568C36.8172 23.6818 36.6979 23.2083 36.7017 22.6364V14.1818ZM44.8295 25.1648C44.2727 25.1648 43.7765 25.0682 43.3409 24.875C42.9053 24.678 42.5606 24.3883 42.3068 24.0057C42.0568 23.6193 41.9318 23.1383 41.9318 22.5625C41.9318 22.0777 42.0208 21.6705 42.1989 21.3409C42.3769 21.0114 42.6193 20.7462 42.9261 20.5455C43.233 20.3447 43.5814 20.1932 43.9716 20.0909C44.3655 19.9886 44.7784 19.9167 45.2102 19.875C45.7178 19.822 46.1269 19.7727 46.4375 19.7273C46.7481 19.678 46.9735 19.6061 47.1136 19.5114C47.2538 19.4167 47.3239 19.2765 47.3239 19.0909V19.0568C47.3239 18.697 47.2102 18.4186 46.983 18.2216C46.7595 18.0246 46.4413 17.9261 46.0284 17.9261C45.5928 17.9261 45.2462 18.0227 44.9886 18.2159C44.7311 18.4053 44.5606 18.6439 44.4773 18.9318L42.2386 18.75C42.3523 18.2197 42.5758 17.7614 42.9091 17.375C43.2424 16.9848 43.6723 16.6856 44.1989 16.4773C44.7292 16.2652 45.3428 16.1591 46.0398 16.1591C46.5246 16.1591 46.9886 16.2159 47.4318 16.3295C47.8788 16.4432 48.2746 16.6193 48.6193 16.858C48.9678 17.0966 49.2424 17.4034 49.4432 17.7784C49.6439 18.1496 49.7443 18.5947 49.7443 19.1136V25H47.4489V23.7898H47.3807C47.2405 24.0625 47.053 24.303 46.8182 24.5114C46.5833 24.7159 46.3011 24.8769 45.9716 24.9943C45.642 25.108 45.2614 25.1648 44.8295 25.1648ZM45.5227 23.4943C45.8788 23.4943 46.1932 23.4242 46.4659 23.2841C46.7386 23.1402 46.9527 22.947 47.108 22.7045C47.2633 22.4621 47.3409 22.1875 47.3409 21.8807V20.9545C47.2652 21.0038 47.161 21.0492 47.0284 21.0909C46.8996 21.1288 46.7538 21.1648 46.5909 21.1989C46.428 21.2292 46.2652 21.2576 46.1023 21.2841C45.9394 21.3068 45.7917 21.3277 45.6591 21.3466C45.375 21.3883 45.1269 21.4545 44.9148 21.5455C44.7027 21.6364 44.5379 21.7595 44.4205 21.9148C44.303 22.0663 44.2443 22.2557 44.2443 22.483C44.2443 22.8125 44.3636 23.0644 44.6023 23.2386C44.8447 23.4091 45.1515 23.4943 45.5227 23.4943ZM51.6222 25V16.2727H53.9688V17.7955H54.0597C54.2188 17.2538 54.4858 16.8447 54.8608 16.5682C55.2358 16.2879 55.6676 16.1477 56.1562 16.1477C56.2775 16.1477 56.4081 16.1553 56.5483 16.1705C56.6884 16.1856 56.8116 16.2064 56.9176 16.233V18.3807C56.804 18.3466 56.6468 18.3163 56.446 18.2898C56.2453 18.2633 56.0616 18.25 55.8949 18.25C55.5388 18.25 55.2206 18.3277 54.9403 18.483C54.6638 18.6345 54.4441 18.8466 54.2812 19.1193C54.1222 19.392 54.0426 19.7064 54.0426 20.0625V25H51.6222Z" fill="white"/>
</svg>
