<svg width="99" height="39" viewBox="0 0 99 39" fill="none" xmlns="http://www.w3.org/2000/svg">
<rect width="99" height="39" rx="16" fill="#2997FF"/>
<path d="M21.2784 17.4375H18.7898C18.7443 17.1155 18.6515 16.8295 18.5114 16.5795C18.3712 16.3258 18.1913 16.1098 17.9716 15.9318C17.7519 15.7538 17.4981 15.6174 17.2102 15.5227C16.9261 15.428 16.6174 15.3807 16.2841 15.3807C15.6818 15.3807 15.1572 15.5303 14.7102 15.8295C14.2633 16.125 13.9167 16.5568 13.6705 17.125C13.4242 17.6894 13.3011 18.375 13.3011 19.1818C13.3011 20.0114 13.4242 20.7083 13.6705 21.2727C13.9205 21.8371 14.2689 22.2633 14.7159 22.5511C15.1629 22.839 15.6799 22.983 16.267 22.983C16.5966 22.983 16.9015 22.9394 17.1818 22.8523C17.4659 22.7652 17.7178 22.6383 17.9375 22.4716C18.1572 22.3011 18.339 22.0947 18.483 21.8523C18.6307 21.6098 18.733 21.3333 18.7898 21.0227L21.2784 21.0341C21.214 21.5682 21.053 22.0833 20.7955 22.5795C20.5417 23.072 20.1989 23.5133 19.767 23.9034C19.339 24.2898 18.8277 24.5966 18.233 24.8239C17.642 25.0473 16.9735 25.1591 16.2273 25.1591C15.1894 25.1591 14.2614 24.9242 13.4432 24.4545C12.6288 23.9848 11.9848 23.3049 11.5114 22.4148C11.0417 21.5246 10.8068 20.447 10.8068 19.1818C10.8068 17.9129 11.0455 16.8333 11.5227 15.9432C12 15.053 12.6477 14.375 13.4659 13.9091C14.2841 13.4394 15.2045 13.2045 16.2273 13.2045C16.9015 13.2045 17.5265 13.2992 18.1023 13.4886C18.6818 13.678 19.1951 13.9545 19.642 14.3182C20.089 14.678 20.4527 15.1193 20.733 15.642C21.017 16.1648 21.1989 16.7633 21.2784 17.4375ZM26.9403 25.1705C26.0578 25.1705 25.2945 24.983 24.6506 24.608C24.0104 24.2292 23.5161 23.7027 23.1676 23.0284C22.8191 22.3504 22.6449 21.5644 22.6449 20.6705C22.6449 19.7689 22.8191 18.9811 23.1676 18.3068C23.5161 17.6288 24.0104 17.1023 24.6506 16.7273C25.2945 16.3485 26.0578 16.1591 26.9403 16.1591C27.8229 16.1591 28.5843 16.3485 29.2244 16.7273C29.8684 17.1023 30.3646 17.6288 30.7131 18.3068C31.0616 18.9811 31.2358 19.7689 31.2358 20.6705C31.2358 21.5644 31.0616 22.3504 30.7131 23.0284C30.3646 23.7027 29.8684 24.2292 29.2244 24.608C28.5843 24.983 27.8229 25.1705 26.9403 25.1705ZM26.9517 23.2955C27.3532 23.2955 27.6884 23.1818 27.9574 22.9545C28.2263 22.7235 28.429 22.4091 28.5653 22.0114C28.7055 21.6136 28.7756 21.161 28.7756 20.6534C28.7756 20.1458 28.7055 19.6932 28.5653 19.2955C28.429 18.8977 28.2263 18.5833 27.9574 18.3523C27.6884 18.1212 27.3532 18.0057 26.9517 18.0057C26.5464 18.0057 26.2055 18.1212 25.929 18.3523C25.6563 18.5833 25.4498 18.8977 25.3097 19.2955C25.1733 19.6932 25.1051 20.1458 25.1051 20.6534C25.1051 21.161 25.1733 21.6136 25.3097 22.0114C25.4498 22.4091 25.6563 22.7235 25.929 22.9545C26.2055 23.1818 26.5464 23.2955 26.9517 23.2955ZM35.2301 19.9545V25H32.8097V16.2727H35.1165V17.8125H35.2188C35.4119 17.3049 35.7358 16.9034 36.1903 16.608C36.6449 16.3087 37.196 16.1591 37.8438 16.1591C38.4498 16.1591 38.9782 16.2917 39.429 16.5568C39.8797 16.822 40.2301 17.2008 40.4801 17.6932C40.7301 18.1818 40.8551 18.7652 40.8551 19.4432V25H38.4347V19.875C38.4384 19.3409 38.3021 18.9242 38.0256 18.625C37.7491 18.322 37.3684 18.1705 36.8835 18.1705C36.5578 18.1705 36.2699 18.2405 36.0199 18.3807C35.7737 18.5208 35.5805 18.7254 35.4403 18.9943C35.304 19.2595 35.2339 19.5795 35.2301 19.9545ZM47.4048 16.2727V18.0909H42.1491V16.2727H47.4048ZM43.3423 14.1818H45.7628V22.3182C45.7628 22.5417 45.7969 22.7159 45.8651 22.8409C45.9332 22.9621 46.0279 23.0473 46.1491 23.0966C46.2741 23.1458 46.4181 23.1705 46.581 23.1705C46.6946 23.1705 46.8082 23.161 46.9219 23.142C47.0355 23.1193 47.1226 23.1023 47.1832 23.0909L47.5639 24.892C47.4427 24.9299 47.2723 24.9735 47.0526 25.0227C46.8329 25.0758 46.5658 25.108 46.2514 25.1193C45.6681 25.142 45.1567 25.0644 44.7173 24.8864C44.2817 24.7083 43.9427 24.4318 43.7003 24.0568C43.4579 23.6818 43.3385 23.2083 43.3423 22.6364V14.1818ZM48.9815 25V16.2727H51.402V25H48.9815ZM50.1974 15.1477C49.8376 15.1477 49.5289 15.0284 49.2713 14.7898C49.0175 14.5473 48.8906 14.2576 48.8906 13.9205C48.8906 13.5871 49.0175 13.3011 49.2713 13.0625C49.5289 12.8201 49.8376 12.6989 50.1974 12.6989C50.5573 12.6989 50.8641 12.8201 51.1179 13.0625C51.3755 13.3011 51.5043 13.5871 51.5043 13.9205C51.5043 14.2576 51.3755 14.5473 51.1179 14.7898C50.8641 15.0284 50.5573 15.1477 50.1974 15.1477ZM55.7614 19.9545V25H53.3409V16.2727H55.6477V17.8125H55.75C55.9432 17.3049 56.267 16.9034 56.7216 16.608C57.1761 16.3087 57.7273 16.1591 58.375 16.1591C58.9811 16.1591 59.5095 16.2917 59.9602 16.5568C60.411 16.822 60.7614 17.2008 61.0114 17.6932C61.2614 18.1818 61.3864 18.7652 61.3864 19.4432V25H58.9659V19.875C58.9697 19.3409 58.8333 18.9242 58.5568 18.625C58.2803 18.322 57.8996 18.1705 57.4148 18.1705C57.089 18.1705 56.8011 18.2405 56.5511 18.3807C56.3049 18.5208 56.1117 18.7254 55.9716 18.9943C55.8352 19.2595 55.7652 19.5795 55.7614 19.9545ZM68.8906 21.2841V16.2727H71.3111V25H68.9872V23.4148H68.8963C68.6993 23.9261 68.3717 24.3371 67.9134 24.6477C67.4588 24.9583 66.9039 25.1136 66.2486 25.1136C65.6652 25.1136 65.152 24.9811 64.7088 24.7159C64.2656 24.4508 63.919 24.0739 63.669 23.5852C63.4228 23.0966 63.2978 22.5114 63.294 21.8295V16.2727H65.7145V21.3977C65.7183 21.9129 65.8565 22.3201 66.1293 22.6193C66.402 22.9186 66.7675 23.0682 67.2259 23.0682C67.5175 23.0682 67.7902 23.0019 68.044 22.8693C68.2978 22.733 68.5024 22.5322 68.6577 22.267C68.8168 22.0019 68.8944 21.6742 68.8906 21.2841ZM75.7358 25.1648C75.179 25.1648 74.6828 25.0682 74.2472 24.875C73.8116 24.678 73.4669 24.3883 73.2131 24.0057C72.9631 23.6193 72.8381 23.1383 72.8381 22.5625C72.8381 22.0777 72.9271 21.6705 73.1051 21.3409C73.2831 21.0114 73.5256 20.7462 73.8324 20.5455C74.1392 20.3447 74.4877 20.1932 74.8778 20.0909C75.2718 19.9886 75.6847 19.9167 76.1165 19.875C76.6241 19.822 77.0331 19.7727 77.3438 19.7273C77.6544 19.678 77.8797 19.6061 78.0199 19.5114C78.16 19.4167 78.2301 19.2765 78.2301 19.0909V19.0568C78.2301 18.697 78.1165 18.4186 77.8892 18.2216C77.6657 18.0246 77.3475 17.9261 76.9347 17.9261C76.4991 17.9261 76.1525 18.0227 75.8949 18.2159C75.6373 18.4053 75.4669 18.6439 75.3835 18.9318L73.1449 18.75C73.2585 18.2197 73.482 17.7614 73.8153 17.375C74.1487 16.9848 74.5786 16.6856 75.1051 16.4773C75.6354 16.2652 76.2491 16.1591 76.946 16.1591C77.4309 16.1591 77.8949 16.2159 78.3381 16.3295C78.785 16.4432 79.1809 16.6193 79.5256 16.858C79.8741 17.0966 80.1487 17.4034 80.3494 17.7784C80.5502 18.1496 80.6506 18.5947 80.6506 19.1136V25H78.3551V23.7898H78.2869C78.1468 24.0625 77.9593 24.303 77.7244 24.5114C77.4896 24.7159 77.2074 24.8769 76.8778 24.9943C76.5483 25.108 76.1676 25.1648 75.7358 25.1648ZM76.429 23.4943C76.785 23.4943 77.0994 23.4242 77.3722 23.2841C77.6449 23.1402 77.8589 22.947 78.0142 22.7045C78.1695 22.4621 78.2472 22.1875 78.2472 21.8807V20.9545C78.1714 21.0038 78.0672 21.0492 77.9347 21.0909C77.8059 21.1288 77.66 21.1648 77.4972 21.1989C77.3343 21.2292 77.1714 21.2576 77.0085 21.2841C76.8456 21.3068 76.6979 21.3277 76.5653 21.3466C76.2813 21.3883 76.0331 21.4545 75.821 21.5455C75.6089 21.6364 75.4441 21.7595 75.3267 21.9148C75.2093 22.0663 75.1506 22.2557 75.1506 22.483C75.1506 22.8125 75.2699 23.0644 75.5085 23.2386C75.7509 23.4091 76.0578 23.4943 76.429 23.4943ZM82.5284 25V16.2727H84.875V17.7955H84.9659C85.125 17.2538 85.392 16.8447 85.767 16.5682C86.142 16.2879 86.5739 16.1477 87.0625 16.1477C87.1837 16.1477 87.3144 16.1553 87.4545 16.1705C87.5947 16.1856 87.7178 16.2064 87.8239 16.233V18.3807C87.7102 18.3466 87.553 18.3163 87.3523 18.2898C87.1515 18.2633 86.9678 18.25 86.8011 18.25C86.4451 18.25 86.1269 18.3277 85.8466 18.483C85.5701 18.6345 85.3504 18.8466 85.1875 19.1193C85.0284 19.392 84.9489 19.7064 84.9489 20.0625V25H82.5284Z" fill="white"/>
</svg>
