<svg width="97" height="48" viewBox="0 0 97 48" fill="none" xmlns="http://www.w3.org/2000/svg">
<rect width="97" height="48" rx="16" fill="#E30140"/>
<path d="M9.30078 33.332V30.4609C9.55859 30.6953 9.86328 30.9062 10.2148 31.0938C10.5742 31.2812 10.9531 31.4414 11.3516 31.5742C11.75 31.6992 12.1484 31.7969 12.5469 31.8672C12.9453 31.9375 13.3125 31.9727 13.6484 31.9727C14.8203 31.9727 15.6914 31.7773 16.2617 31.3867C16.8398 30.9961 17.1289 30.4297 17.1289 29.6875C17.1289 29.2891 17.0312 28.9453 16.8359 28.6562C16.6484 28.3594 16.3828 28.0898 16.0391 27.8477C15.6953 27.6055 15.2891 27.375 14.8203 27.1562C14.3594 26.9297 13.8633 26.6953 13.332 26.4531C12.7617 26.1484 12.2305 25.8398 11.7383 25.5273C11.2461 25.2148 10.8164 24.8711 10.4492 24.4961C10.0898 24.1133 9.80469 23.6836 9.59375 23.207C9.39062 22.7305 9.28906 22.1719 9.28906 21.5312C9.28906 20.7422 9.46484 20.0586 9.81641 19.4805C10.1758 18.8945 10.6445 18.4141 11.2227 18.0391C11.8086 17.6562 12.4727 17.375 13.2148 17.1953C13.957 17.0078 14.7148 16.9141 15.4883 16.9141C17.2461 16.9141 18.5273 17.1133 19.332 17.5117V20.2656C18.3789 19.5781 17.1523 19.2344 15.6523 19.2344C15.2383 19.2344 14.8242 19.2734 14.4102 19.3516C14.0039 19.4297 13.6367 19.5586 13.3086 19.7383C12.9883 19.918 12.7266 20.1484 12.5234 20.4297C12.3203 20.7109 12.2188 21.0508 12.2188 21.4492C12.2188 21.8242 12.2969 22.1484 12.4531 22.4219C12.6094 22.6953 12.8359 22.9453 13.1328 23.1719C13.4375 23.3984 13.8047 23.6211 14.2344 23.8398C14.6719 24.0508 15.1758 24.2812 15.7461 24.5312C16.332 24.8359 16.8828 25.1562 17.3984 25.4922C17.9219 25.8281 18.3789 26.1992 18.7695 26.6055C19.168 27.0117 19.4805 27.4648 19.707 27.9648C19.9414 28.457 20.0586 29.0195 20.0586 29.6523C20.0586 30.5039 19.8867 31.2227 19.543 31.8086C19.1992 32.3945 18.7344 32.8711 18.1484 33.2383C17.5703 33.6055 16.9023 33.8711 16.1445 34.0352C15.3867 34.1992 14.5859 34.2812 13.7422 34.2812C13.4609 34.2812 13.1133 34.2578 12.6992 34.2109C12.293 34.1719 11.875 34.1094 11.4453 34.0234C11.0156 33.9453 10.6094 33.8477 10.2266 33.7305C9.84375 33.6133 9.53516 33.4805 9.30078 33.332ZM32.0586 34H29.4219V32.125H29.375C28.5469 33.5625 27.332 34.2812 25.7305 34.2812C24.5508 34.2812 23.625 33.9609 22.9531 33.3203C22.2891 32.6797 21.957 31.832 21.957 30.7773C21.957 28.5117 23.2617 27.1914 25.8711 26.8164L29.4336 26.3125C29.4336 24.6016 28.6211 23.7461 26.9961 23.7461C25.5664 23.7461 24.2773 24.2383 23.1289 25.2227V22.8438C24.3945 22.0938 25.8555 21.7188 27.5117 21.7188C30.543 21.7188 32.0586 23.2109 32.0586 26.1953V34ZM29.4336 28.1055L26.9141 28.457C26.1328 28.5586 25.543 28.75 25.1445 29.0312C24.7539 29.3047 24.5586 29.7891 24.5586 30.4844C24.5586 30.9922 24.7383 31.4102 25.0977 31.7383C25.4648 32.0586 25.9531 32.2188 26.5625 32.2188C27.3906 32.2188 28.0742 31.9297 28.6133 31.3516C29.1602 30.7656 29.4336 30.0312 29.4336 29.1484V28.1055ZM36.7578 19.4805C36.3125 19.4805 35.9297 19.3359 35.6094 19.0469C35.2969 18.7578 35.1406 18.3906 35.1406 17.9453C35.1406 17.5 35.2969 17.1289 35.6094 16.832C35.9297 16.5352 36.3125 16.3867 36.7578 16.3867C37.2188 16.3867 37.6094 16.5352 37.9297 16.832C38.25 17.1289 38.4102 17.5 38.4102 17.9453C38.4102 18.3672 38.25 18.7305 37.9297 19.0352C37.6094 19.332 37.2188 19.4805 36.7578 19.4805ZM38.1055 34H35.3867V22H38.1055V34ZM48.6289 24.5898C48.3008 24.332 47.8281 24.2031 47.2109 24.2031C46.4062 24.2031 45.7344 24.5664 45.1953 25.293C44.6562 26.0195 44.3867 27.0078 44.3867 28.2578V34H41.668V22H44.3867V24.4727H44.4336C44.6992 23.6289 45.1055 22.9727 45.6523 22.5039C46.207 22.0273 46.8242 21.7891 47.5039 21.7891C47.9961 21.7891 48.3711 21.8633 48.6289 22.0117V24.5898Z" fill="white"/>
<path d="M82.9914 19.9909C83.3777 19.5193 84.0735 19.4498 84.5455 19.8357L88.595 23.146C88.8513 23.3556 89 23.6691 89 24C89 24.331 88.8513 24.6445 88.595 24.8541L84.5455 28.1644C84.0735 28.5503 83.3777 28.4808 82.9914 28.0091C82.6052 27.5375 82.6748 26.8423 83.1469 26.4564L84.8018 25.1035H82.401C81.7911 25.1035 81.2966 24.6095 81.2966 24C81.2966 23.3906 81.7911 22.8966 82.401 22.8966H84.8018L83.1469 21.5437C82.6748 21.1578 82.6052 20.4626 82.9914 19.9909Z" fill="white"/>
<path opacity="0.3" d="M74.0321 9.74905C72.8821 9.65517 71.4531 9.65517 69.6391 9.65518H68.6575C66.8435 9.65517 65.4144 9.65517 64.2644 9.74905C63.0912 9.84483 62.1114 10.0438 61.2211 10.4971C59.7664 11.2376 58.5838 12.4192 57.8426 13.8726C57.3889 14.7622 57.1898 15.7412 57.0939 16.9134C57 18.0625 57 19.4903 57 21.3027V26.6973C57 28.5097 57 29.9375 57.0939 31.0866C57.1898 32.2588 57.3889 33.2378 57.8426 34.1274C58.5838 35.5808 59.7664 36.7624 61.221 37.5029C62.1114 37.9562 63.0912 38.1552 64.2644 38.251C65.4144 38.3448 66.8435 38.3448 68.6575 38.3448H69.6391C71.4531 38.3448 72.8821 38.3448 74.0321 38.251C75.2054 38.1552 76.1852 37.9562 77.0755 37.5029C78.5302 36.7624 79.7128 35.5808 80.454 34.1274C80.9424 33.1695 81.1447 32.2958 81.2308 31.0762C81.3239 29.929 81.3239 28.5043 81.3239 26.6974V25.1034H74.6702C74.0603 25.1034 73.5658 24.6094 73.5658 24C73.5658 23.3906 74.0603 22.8966 74.6702 22.8966H81.3239V21.3028C81.3239 19.4968 81.3239 18.0727 81.2309 16.9258C81.145 15.7051 80.9427 14.831 80.454 13.8726C79.7128 12.4192 78.5302 11.2376 77.0755 10.4971C76.1852 10.0438 75.2054 9.84483 74.0321 9.74905Z" fill="white"/>
</svg>
