<svg width="38" height="37" viewBox="0 0 38 37" fill="none" xmlns="http://www.w3.org/2000/svg">
<rect width="38" height="37" rx="16" fill="#E30140"/>
<path d="M6 19C6 22.3137 8.68629 25 12 25H18V21C18 20.4477 18.4477 20 19 20C19.5523 20 20 20.4477 20 21V25H26C29.3137 25 32 22.3137 32 19C32 16.0934 29.9342 13.6715 27.1913 13.1185C27.0328 13.0865 26.9332 12.9577 26.9195 12.8618C26.3663 8.9823 23.0323 6 19 6C14.9677 6 11.6337 8.9823 11.0805 12.8618C11.0668 12.9577 10.9672 13.0865 10.8087 13.1185C8.0658 13.6715 6 16.0934 6 19Z" fill="white"/>
<path d="M21.2929 26.2929L20 27.5858V26C20 25.4477 19.5523 25 19 25C18.4477 25 18 25.4477 18 26V27.5858L16.7071 26.2929C16.3166 25.9024 15.6834 25.9024 15.2929 26.2929C14.9024 26.6834 14.9024 27.3166 15.2929 27.7071L18.2929 30.7071C18.6834 31.0976 19.3166 31.0976 19.7071 30.7071L22.7071 27.7071C23.0976 27.3166 23.0976 26.6834 22.7071 26.2929C22.3166 25.9024 21.6834 25.9024 21.2929 26.2929Z" fill="white"/>
</svg>
