<svg width="36" height="40" viewBox="0 0 36 40" fill="none" xmlns="http://www.w3.org/2000/svg">
<rect width="36" height="39.1304" rx="16" fill="#E30140"/>
<path fill-rule="evenodd" clip-rule="evenodd" d="M18 6.00011L17.859 6.00005C17.071 5.99958 16.4757 5.99923 15.9591 6.13845C14.5657 6.51393 13.481 7.60726 13.1093 9.00235C12.9715 9.51971 12.9718 10.1161 12.9723 10.9099L12.9723 11.0505V11.5097H7.04348C6.46718 11.5097 6 11.9768 6 12.5531C6 13.1294 6.46718 13.5966 7.04348 13.5966H8.14051L9.4194 26.4586C9.51728 27.4431 9.59668 28.2417 9.71208 28.888C9.83132 29.5559 10.0014 30.1415 10.3223 30.6787C10.8331 31.5338 11.585 32.2185 12.4837 32.6455C13.0489 32.9141 13.6472 33.0263 14.3211 33.0792C14.9727 33.1305 15.7713 33.1304 16.7546 33.1304H19.2454C20.2287 33.1304 21.0273 33.1305 21.6789 33.0792C22.3528 33.0263 22.9511 32.9141 23.5163 32.6455C24.415 32.2185 25.1669 31.5338 25.6777 30.6787C25.9986 30.1415 26.1687 29.5559 26.2879 28.888C26.4033 28.2417 26.4827 27.4431 26.5806 26.4585L27.8595 13.5966H28.9565C29.5328 13.5966 30 13.1294 30 12.5531C30 11.9768 29.5328 11.5097 28.9565 11.5097H23.0277V11.0505L23.0277 10.9099C23.0282 10.1161 23.0285 9.51971 22.8907 9.00234C22.519 7.60726 21.4343 6.51393 20.0409 6.13845C19.5243 5.99923 18.929 5.99958 18.141 6.00005L18 6.00011ZM15.0593 11.5097H20.9407V11.0505C20.9407 10.0521 20.9318 9.75648 20.8741 9.53962C20.6931 8.86056 20.1669 8.3338 19.4979 8.15351C19.2849 8.09612 18.9938 8.08706 18 8.08706C17.0062 8.08706 16.7151 8.09612 16.5021 8.15351C15.8331 8.3338 15.3069 8.86056 15.1259 9.53962C15.0682 9.75648 15.0593 10.0521 15.0593 11.0505V11.5097ZM14.4106 16.0226C14.9841 15.9656 15.4952 16.3842 15.5522 16.9577L16.5482 26.975C16.6053 27.5485 16.1866 28.0596 15.6131 28.1166C15.0397 28.1737 14.5285 27.755 14.4715 27.1815L13.4755 17.1642C13.4185 16.5907 13.8371 16.0796 14.4106 16.0226ZM21.5894 16.0226C22.1629 16.0796 22.5815 16.5907 22.5245 17.1642L21.5285 27.1815C21.4715 27.755 20.9603 28.1737 20.3869 28.1166C19.8134 28.0596 19.3947 27.5485 19.4518 26.975L20.4478 16.9577C20.5048 16.3842 21.0159 15.9656 21.5894 16.0226Z" fill="white"/>
</svg>
