<svg width="108" height="32" viewBox="0 0 108 32" fill="none" xmlns="http://www.w3.org/2000/svg">
<path opacity="0.3" d="M28.1152 30.5808C27.2779 31.0201 26.3643 31.2078 25.3002 31.2973C24.4373 31.3699 23.4032 31.3821 22.1538 31.3841L9.84617 31.3845C8.59676 31.3825 7.56275 31.3699 6.69979 31.2973C5.63567 31.2078 4.72215 31.0201 3.88476 30.5808C2.53885 29.8749 1.45118 28.752 0.771657 27.3791C0.351099 26.5294 0.170695 25.6024 0.0843861 24.5149C2.38052e-05 23.452 3.11339e-05 22.1342 4.03771e-05 20.4756L4.06706e-05 17.763L1.99832e-05 17.6042C-0.000264798 16.1606 -0.000450244 15.2201 0.222342 14.3271C0.419416 13.5372 0.744301 12.7856 1.18437 12.104C1.68269 11.3321 2.36616 10.6992 3.40686 9.73537L3.40687 9.73536L3.52338 9.62745L8.87765 4.66673C9.96345 3.66072 10.831 2.85692 11.5857 2.26017C12.3604 1.64753 13.0924 1.1897 13.9278 0.93013C15.2789 0.51035 16.7211 0.51035 18.0722 0.93013C18.9076 1.1897 19.6396 1.64753 20.4143 2.26017C21.169 2.85691 22.0365 3.66069 23.1223 4.66667L23.1224 4.66674L28.4766 9.62744L28.5931 9.73535C29.6338 10.6992 30.3173 11.3321 30.8156 12.104C31.2557 12.7856 31.5806 13.5372 31.7777 14.3271C32.0005 15.2201 32.0003 16.1606 32 17.6042L32 17.763V20.4756C32 22.1342 32 23.452 31.9156 24.5149C31.8293 25.6024 31.6489 26.5294 31.2283 27.3791C30.5488 28.752 29.4612 29.8749 28.1152 30.5808Z" fill="#F9BB0D"/>
<path d="M9.84619 24.0004V28.9225V31.3845C10.0979 31.385 10.3584 31.3845 10.628 31.3845H10.6831H21.3184H21.372C21.6416 31.3845 21.9021 31.3845 22.1538 31.3841V28.9225V24.0004L22.1539 23.8311C22.1544 22.8521 22.1548 22.1252 21.9861 21.4954C21.5309 19.7965 20.2039 18.4695 18.505 18.0143C17.8752 17.8456 17.1483 17.846 16.1694 17.8465L16 17.8466L15.8307 17.8465C14.8518 17.846 14.1248 17.8456 13.4951 18.0143C11.7962 18.4695 10.4692 19.7965 10.0139 21.4954C9.8452 22.1252 9.8456 22.8521 9.84613 23.8311L9.84619 24.0004Z" fill="#F9BB0D"/>
<path d="M52.9336 26H50.0625V9.19531H52.9336V26ZM67.4648 26H64.7461V19.2383C64.7461 16.9961 63.9531 15.875 62.3672 15.875C61.5391 15.875 60.8555 16.1875 60.3164 16.8125C59.7773 17.4297 59.5078 18.2109 59.5078 19.1562V26H56.7773V14H59.5078V15.9922H59.5547C60.4531 14.4766 61.75 13.7188 63.4453 13.7188C64.75 13.7188 65.7461 14.1445 66.4336 14.9961C67.1211 15.8398 67.4648 17.0625 67.4648 18.6641V26ZM73.5234 26H70.793V14H73.5234V26ZM75.4805 7.88281L72.1289 11.7266H70.1133L72.9492 7.88281H75.4805ZM85.6641 25.4492C84.7031 26.0039 83.5664 26.2812 82.2539 26.2812C80.4727 26.2812 79.0352 25.7266 77.9414 24.6172C76.8477 23.5 76.3008 22.0547 76.3008 20.2812C76.3008 18.3047 76.8867 16.7188 78.0586 15.5234C79.2383 14.3203 80.8125 13.7188 82.7812 13.7188C83.875 13.7188 84.8398 13.9102 85.6758 14.293V16.8242C84.8398 16.1992 83.9492 15.8867 83.0039 15.8867C81.8555 15.8867 80.9141 16.2773 80.1797 17.0586C79.4453 17.832 79.0781 18.8477 79.0781 20.1055C79.0781 21.3477 79.4219 22.3281 80.1094 23.0469C80.8047 23.7656 81.7344 24.125 82.8984 24.125C83.875 24.125 84.7969 23.7773 85.6641 23.082V25.4492ZM89.7422 11.4805C89.2969 11.4805 88.9141 11.3359 88.5938 11.0469C88.2812 10.7578 88.125 10.3906 88.125 9.94531C88.125 9.5 88.2812 9.12891 88.5938 8.83203C88.9141 8.53516 89.2969 8.38672 89.7422 8.38672C90.2031 8.38672 90.5938 8.53516 90.9141 8.83203C91.2344 9.12891 91.3945 9.5 91.3945 9.94531C91.3945 10.3672 91.2344 10.7305 90.9141 11.0352C90.5938 11.332 90.2031 11.4805 89.7422 11.4805ZM91.0898 26H88.3711V14H91.0898V26ZM99.9727 26.2812C98.1211 26.2812 96.6406 25.7227 95.5312 24.6055C94.4297 23.4805 93.8789 21.9922 93.8789 20.1406C93.8789 18.125 94.4531 16.5508 95.6016 15.418C96.7578 14.2852 98.3125 13.7188 100.266 13.7188C102.141 13.7188 103.602 14.2695 104.648 15.3711C105.695 16.4727 106.219 18 106.219 19.9531C106.219 21.8672 105.652 23.4023 104.52 24.5586C103.395 25.707 101.879 26.2812 99.9727 26.2812ZM100.102 15.8867C99.0391 15.8867 98.1992 16.2578 97.582 17C96.9648 17.7422 96.6562 18.7656 96.6562 20.0703C96.6562 21.3281 96.9688 22.3203 97.5938 23.0469C98.2188 23.7656 99.0547 24.125 100.102 24.125C101.172 24.125 101.992 23.7695 102.562 23.0586C103.141 22.3477 103.43 21.3359 103.43 20.0234C103.43 18.7031 103.141 17.6836 102.562 16.9648C101.992 16.2461 101.172 15.8867 100.102 15.8867Z" fill="#F9BB0D"/>
</svg>
