<svg width="160" height="32" viewBox="0 0 160 32" fill="none" xmlns="http://www.w3.org/2000/svg">
<path opacity="0.3" d="M21.4712 0.0965416C20.0561 -8.00536e-06 18.301 -4.486e-06 16.0462 6.22889e-08H15.9538C13.699 -4.486e-06 11.9439 -8.00536e-06 10.5288 0.0965416C9.09306 0.194504 7.91765 0.395962 6.83797 0.843181C4.12381 1.96742 1.96742 4.12381 0.843181 6.83797C0.395962 7.91765 0.194504 9.09306 0.0965416 10.5288C-8.00536e-06 11.9439 -4.486e-06 13.699 6.22888e-08 15.9538V16.0462C-4.486e-06 18.301 -8.00536e-06 20.0561 0.0965416 21.4712C0.194504 22.9069 0.395962 24.0824 0.843181 25.162C1.96742 27.8762 4.12381 30.0326 6.83797 31.1568C7.17874 31.298 7.52905 31.4146 7.89406 31.5113C8.68556 31.7209 9.54623 31.8364 10.5288 31.9035C11.0692 31.9403 11.6592 31.9631 12.3077 31.9772C13.3573 32 14.5601 32 15.9538 32H16.0462C17.4399 32 18.6427 32 19.6923 31.9772C20.3408 31.9631 20.9308 31.9403 21.4712 31.9035C22.4529 31.8365 23.3129 31.7211 24.1038 31.5119C24.4696 31.4151 24.8206 31.2982 25.162 31.1568C27.8762 30.0326 30.0326 27.8762 31.1568 25.162C31.604 24.0824 31.8055 22.9069 31.9035 21.4712C32 20.0561 32 18.301 32 16.0462V15.9538C32 13.699 32 11.9439 31.9035 10.5288C31.8055 9.09306 31.604 7.91765 31.1568 6.83797C30.0326 4.12381 27.8762 1.96742 25.162 0.843181C24.0824 0.395962 22.9069 0.194504 21.4712 0.0965416Z" fill="#E30140"/>
<path d="M15.9538 32H16.0462C17.4399 32 18.6427 32 19.6923 31.9772C20.3408 31.9631 20.9308 31.9403 21.4712 31.9035C22.4529 31.8365 23.3129 31.7211 24.1038 31.5119C24.4323 31.261 24.6292 30.8474 24.6137 30.3999C24.5923 29.7823 24.5531 29.1962 24.4817 28.6382C24.3328 27.474 24.0538 26.5342 23.5758 25.7808C22.6869 24.3802 20.772 23.1341 15.9834 23.0226C11.2124 23.0254 9.31266 24.274 8.42782 25.688C7.94732 26.4559 7.66687 27.4185 7.51726 28.6039C7.44527 29.1743 7.406 29.7722 7.38461 30.3999C7.36938 30.8471 7.56606 31.2604 7.89406 31.5113C8.68555 31.7209 9.54622 31.8364 10.5288 31.9035C11.0692 31.9403 11.6592 31.9631 12.3077 31.9772C13.3573 32 14.5601 32 15.9538 32Z" fill="#E30140"/>
<path d="M22.0573 13.7557C22.0573 17.313 19.3075 20.1267 15.9993 20.1267C12.6912 20.1267 9.94133 17.313 9.94133 13.7557C9.94133 10.1983 12.6912 7.38461 15.9993 7.38461C19.3075 7.38461 22.0573 10.1983 22.0573 13.7557Z" fill="#E30140"/>
<path d="M68.1211 26H65.3555V15.125C65.3555 14.2344 65.4102 13.1445 65.5195 11.8555H65.4727C65.3008 12.5898 65.1484 13.1172 65.0156 13.4375L60 26H58.0781L53.0508 13.5312C52.9102 13.1641 52.7617 12.6055 52.6055 11.8555H52.5586C52.6211 12.5273 52.6523 13.625 52.6523 15.1484V26H50.0742V9.19531H54L58.418 20.3867C58.7539 21.2461 58.9727 21.8867 59.0742 22.3086H59.1328C59.4219 21.4258 59.6562 20.7695 59.8359 20.3398L64.3359 9.19531H68.1211V26ZM82.125 20.7383H73.9453C73.9766 21.8477 74.3164 22.7031 74.9648 23.3047C75.6211 23.9062 76.5195 24.207 77.6602 24.207C78.9414 24.207 80.1172 23.8242 81.1875 23.0586V25.25C80.0938 25.9375 78.6484 26.2812 76.8516 26.2812C75.0859 26.2812 73.6992 25.7383 72.6914 24.6523C71.6914 23.5586 71.1914 22.0234 71.1914 20.0469C71.1914 18.1797 71.7422 16.6602 72.8438 15.4883C73.9531 14.3086 75.3281 13.7188 76.9688 13.7188C78.6094 13.7188 79.8789 14.2461 80.7773 15.3008C81.6758 16.3555 82.125 17.8203 82.125 19.6953V20.7383ZM79.5 18.8164C79.4922 17.8398 79.2617 17.082 78.8086 16.543C78.3555 15.9961 77.7305 15.7227 76.9336 15.7227C76.1523 15.7227 75.4883 16.0078 74.9414 16.5781C74.4023 17.1484 74.0703 17.8945 73.9453 18.8164H79.5ZM95.1797 26H92.4609V24.1016H92.4141C91.625 25.5547 90.3984 26.2812 88.7344 26.2812C85.8984 26.2812 84.4805 24.5781 84.4805 21.1719V14H87.1992V20.8906C87.1992 23.0469 88.0312 24.125 89.6953 24.125C90.5 24.125 91.1602 23.8281 91.6758 23.2344C92.1992 22.6406 92.4609 21.8633 92.4609 20.9023V14H95.1797V26ZM108.422 19.9062V26H105.645V9.19531H110.742C112.672 9.19531 114.168 9.64453 115.23 10.543C116.293 11.4414 116.824 12.707 116.824 14.3398C116.824 15.9727 116.27 17.3086 115.16 18.3477C114.051 19.3867 112.551 19.9062 110.66 19.9062H108.422ZM108.422 11.4922V17.6328H110.227C111.422 17.6328 112.332 17.3555 112.957 16.8008C113.582 16.2461 113.895 15.4648 113.895 14.457C113.895 12.4805 112.746 11.4922 110.449 11.4922H108.422ZM128.719 20.7383H120.539C120.57 21.8477 120.91 22.7031 121.559 23.3047C122.215 23.9062 123.113 24.207 124.254 24.207C125.535 24.207 126.711 23.8242 127.781 23.0586V25.25C126.688 25.9375 125.242 26.2812 123.445 26.2812C121.68 26.2812 120.293 25.7383 119.285 24.6523C118.285 23.5586 117.785 22.0234 117.785 20.0469C117.785 18.1797 118.336 16.6602 119.438 15.4883C120.547 14.3086 121.922 13.7188 123.562 13.7188C125.203 13.7188 126.473 14.2461 127.371 15.3008C128.27 16.3555 128.719 17.8203 128.719 19.6953V20.7383ZM126.094 18.8164C126.086 17.8398 125.855 17.082 125.402 16.543C124.949 15.9961 124.324 15.7227 123.527 15.7227C122.746 15.7227 122.082 16.0078 121.535 16.5781C120.996 17.1484 120.664 17.8945 120.539 18.8164H126.094ZM138.27 16.5898C137.941 16.332 137.469 16.2031 136.852 16.2031C136.047 16.2031 135.375 16.5664 134.836 17.293C134.297 18.0195 134.027 19.0078 134.027 20.2578V26H131.309V14H134.027V16.4727H134.074C134.34 15.6289 134.746 14.9727 135.293 14.5039C135.848 14.0273 136.465 13.7891 137.145 13.7891C137.637 13.7891 138.012 13.8633 138.27 14.0117V16.5898ZM147.492 10.4492C147.125 10.2383 146.707 10.1328 146.238 10.1328C144.918 10.1328 144.258 10.8789 144.258 12.3711V14H147.047V16.1328H144.27V26H141.551V16.1328H139.5V14H141.551V12.0547C141.551 10.7891 141.965 9.79297 142.793 9.06641C143.621 8.33203 144.656 7.96484 145.898 7.96484C146.57 7.96484 147.102 8.03906 147.492 8.1875V10.4492ZM150.352 11.4805C149.906 11.4805 149.523 11.3359 149.203 11.0469C148.891 10.7578 148.734 10.3906 148.734 9.94531C148.734 9.5 148.891 9.12891 149.203 8.83203C149.523 8.53516 149.906 8.38672 150.352 8.38672C150.812 8.38672 151.203 8.53516 151.523 8.83203C151.844 9.12891 152.004 9.5 152.004 9.94531C152.004 10.3672 151.844 10.7305 151.523 11.0352C151.203 11.332 150.812 11.4805 150.352 11.4805ZM151.699 26H148.98V14H151.699V26ZM157.992 26H155.262V8.23438H157.992V26Z" fill="#E30140"/>
</svg>
