<svg width="1000" height="640" viewBox="0 0 1000 640" fill="none" xmlns="http://www.w3.org/2000/svg">
<g clip-path="url(#clip0_516_54)">
<rect width="1000" height="640" fill="white"/>
<path d="M222.882 687.899C174.849 676.841 99.3686 704.341 101.027 655.009C101.682 635.508 107.657 623.021 121.768 609.569C151.673 581.06 185.173 628.312 226.338 625.148C279.333 621.075 306.22 551.693 353.378 576.246C375.971 588.009 390.924 600.285 396.589 625.148C406.07 666.753 366.134 694.703 325.723 708.239C286.899 721.243 262.779 697.084 222.882 687.899Z" fill="#0C7D81"/>
<path d="M791.067 549.382C845.59 471.011 769.992 325.069 865.067 316.382C965.67 307.191 975.121 465.935 945.067 562.382C904.594 692.268 565.852 814.719 621.067 690.382C656.074 611.553 741.809 620.186 791.067 549.382Z" fill="#0469B1"/>
<path d="M807.004 246.187C818.209 203.91 791.761 156.98 830.504 136.687C880.225 110.643 910.878 229.608 875.504 273.187C853.36 300.468 805.004 334.692 790.504 302.687C781.019 281.749 801.115 268.406 807.004 246.187Z" fill="#F9BB0D"/>
<path d="M1016.67 -5.2261C976.12 -25.1373 966.157 -79.0723 921.669 -71.2261C861.786 -60.6645 883.44 23.904 898.669 82.7739C917.967 157.37 959.141 222.388 1036.17 224.274C1096.67 225.755 1167.33 202.793 1167.67 142.274C1167.81 117.568 1146.35 107.48 1146.17 82.7739C1146.02 62.7374 1161.02 53.2651 1159.67 33.2739C1155.76 -24.4275 1068.58 20.2647 1016.67 -5.2261Z" fill="#E30140"/>
<circle cx="984" cy="80" r="4" fill="#51001A"/>
<path d="M597.658 -4.51659C572.33 -9.26401 549.113 6.88986 532.158 -12.5166C519.105 -27.4577 521.875 -42.7181 523.158 -62.5166C526.955 -121.082 579.427 -174.012 636.658 -161.017C687.118 -149.558 712.797 -99.8956 706.658 -48.5166C703.312 -20.51 699.45 3.49782 674.158 15.9834C646.424 29.6746 628.058 1.1814 597.658 -4.51659Z" fill="#0C7D81"/>
<path d="M103.151 75.0096C137.218 61.8936 174.67 85.5929 194.438 54.9045C221.048 13.5958 159.011 -19.9861 115.742 -43.2712C60.9131 -72.7765 -0.244823 -84.0513 -43.6471 -39.4085C-77.7374 -4.34369 -102.906 50.159 -67.2065 83.5842C-52.6327 97.2296 -34.8695 90.0404 -20.1207 103.497C-8.15956 114.409 -10.7758 128.503 1.82214 138.675C38.184 168.032 59.5379 91.801 103.151 75.0096Z" fill="#E30140"/>
<circle cx="71.4408" cy="37.1047" r="3.2323" transform="rotate(42.8335 71.4408 37.1047)" fill="#51001A"/>
<path d="M-9.4045 16.1474L1.52423 16.0007C1.9861 15.9945 2.39212 16.3054 2.50651 16.7529L5.83459 29.7734C5.93612 30.1706 6.2698 30.4656 6.67645 30.5177L18.9351 32.0871C19.4276 32.1502 19.7993 32.5652 19.8079 33.0616L20.02 45.2452C20.0293 45.7782 20.4552 46.2103 20.988 46.2272L31.2632 46.5545C31.8464 46.5731 32.2899 47.085 32.2252 47.6649L31.2131 56.7387C31.1389 57.4042 31.7269 57.9531 32.3857 57.8335L43.7513 55.7687C44.3807 55.6543 44.9542 56.1523 44.9293 56.7915L44.3975 70.4347" stroke="#51001A" stroke-width="7" stroke-linecap="round"/>
<path d="M6.56778 640.207C-46.4493 566.007 -97.1813 407.576 -5.98801 407.026C28.5639 406.818 42.1048 433.884 76.1089 440.016C127.932 449.362 174.256 382.954 209.725 421.876C239.711 454.783 205.33 491.313 206.239 535.824C207.772 610.875 277.873 672.063 226.67 726.955C163.649 794.515 60.2797 715.38 6.56778 640.207Z" fill="#EE75A7"/>
<circle cx="36" cy="523" r="4" fill="#932050"/>
<circle cx="177" cy="519" r="4" fill="#932050"/>
<path d="M103 578.5C108.679 578.5 112.5 573.099 112.5 567.5C112.5 561.901 108.679 556.5 103 556.5C97.3211 556.5 93.5 561.901 93.5 567.5C93.5 573.099 97.3211 578.5 103 578.5Z" stroke="#932050" stroke-width="5"/>
<path d="M-5.16542 203.003C-36.7886 208.582 -57.341 224.35 -69.6654 254.003C-93.3628 311.018 -14.9406 349.115 45.3346 362.503C100.74 374.808 180.957 380.089 185.335 323.503C189.206 273.456 127.583 269.482 84.3346 244.003C51.211 224.488 32.6947 196.323 -5.16542 203.003Z" fill="#9C9B9B"/>
<circle cx="15" cy="294" r="4" fill="#303636"/>
<circle cx="97" cy="294" r="4" fill="#303636"/>
<path d="M37 310.501C51.1548 292.911 59.3936 293.919 74.5 310.501" stroke="#303636" stroke-width="7" stroke-linecap="round"/>
<path d="M369.545 60.0641C334.395 66.2609 316.51 21.0984 282.545 32.0641C229.819 49.0865 323.642 136.604 379.045 136.064C420.637 135.659 467.54 117.655 467.045 76.0641C466.739 50.3795 457.157 27.4163 432.545 20.0641C404.621 11.7225 398.245 55.0044 369.545 60.0641Z" fill="#EE75A7"/>
<path d="M354 100H395" stroke="#932050" stroke-width="7" stroke-linecap="round"/>
<circle cx="343" cy="77" r="4" fill="#932050"/>
<circle cx="391" cy="77" r="4" fill="#932050"/>
<path d="M823 239.17C823 239.17 830.002 233.206 835.5 232.17C845.713 230.245 849.243 245.345 859.5 243.67C867.252 242.404 876 232.17 876 232.17" stroke="#906804" stroke-width="7" stroke-linecap="round"/>
<circle cx="830" cy="206" r="4" fill="#906804"/>
<circle cx="863" cy="206" r="4" fill="#906804"/>
<path d="M857 498C857 524 891 528.5 891 498" stroke="#022F50" stroke-width="7" stroke-linecap="round"/>
<circle cx="859" cy="478" r="4" fill="#022F50"/>
<circle cx="888" cy="478" r="4" fill="#022F50"/>
<circle cx="802" cy="42" r="7" fill="#F9BB0D"/>
<circle cx="955" cy="231" r="7" fill="#E30140"/>
<circle cx="117.742" cy="558.443" r="7" transform="rotate(-34.7594 117.742 558.443)" fill="#EE75A7"/>
<circle cx="82.7418" cy="390.443" r="7" transform="rotate(-34.7594 82.7418 390.443)" fill="#9C9B9B"/>
<circle cx="82.7418" cy="269.443" r="7" transform="rotate(-34.7594 82.7418 269.443)" fill="#9C9B9B"/>
<rect x="380" y="192.5" width="240" height="33" rx="7" fill="#F7F7F7"/>
<rect x="380" y="192.5" width="240" height="33" rx="7" stroke="#E6E6E6" stroke-width="2"/>
<rect x="380" y="237.5" width="240" height="33" rx="7" fill="#F7F7F7"/>
<rect x="380" y="237.5" width="240" height="33" rx="7" stroke="#E6E6E6" stroke-width="2"/>
<rect x="380" y="282.5" width="240" height="33" rx="7" fill="#F7F7F7"/>
<rect x="380" y="282.5" width="240" height="33" rx="7" stroke="#E6E6E6" stroke-width="2"/>
<rect x="380" y="327.5" width="240" height="33" rx="7" fill="#F7F7F7"/>
<rect x="380" y="327.5" width="240" height="33" rx="7" stroke="#E6E6E6" stroke-width="2"/>
<rect x="380" y="372.5" width="240" height="33" rx="7" fill="#F7F7F7"/>
<rect x="380" y="372.5" width="240" height="33" rx="7" stroke="#E6E6E6" stroke-width="2"/>
<path d="M456.148 433.727H458.484C458.438 434.492 458.227 435.172 457.852 435.766C457.482 436.359 456.964 436.823 456.297 437.156C455.635 437.49 454.839 437.656 453.906 437.656C453.177 437.656 452.523 437.531 451.945 437.281C451.367 437.026 450.872 436.661 450.461 436.188C450.055 435.714 449.745 435.141 449.531 434.469C449.318 433.797 449.211 433.044 449.211 432.211V431.422C449.211 430.589 449.32 429.836 449.539 429.164C449.763 428.487 450.081 427.911 450.492 427.438C450.909 426.964 451.406 426.599 451.984 426.344C452.562 426.089 453.208 425.961 453.922 425.961C454.87 425.961 455.669 426.133 456.32 426.477C456.977 426.82 457.484 427.294 457.844 427.898C458.208 428.503 458.427 429.19 458.5 429.961H456.156C456.13 429.503 456.039 429.115 455.883 428.797C455.727 428.474 455.49 428.232 455.172 428.07C454.859 427.904 454.443 427.82 453.922 427.82C453.531 427.82 453.19 427.893 452.898 428.039C452.607 428.185 452.362 428.406 452.164 428.703C451.966 429 451.818 429.375 451.719 429.828C451.625 430.276 451.578 430.802 451.578 431.406V432.211C451.578 432.799 451.622 433.318 451.711 433.766C451.799 434.208 451.935 434.583 452.117 434.891C452.305 435.193 452.544 435.422 452.836 435.578C453.133 435.729 453.49 435.805 453.906 435.805C454.396 435.805 454.799 435.727 455.117 435.57C455.435 435.414 455.677 435.182 455.844 434.875C456.016 434.568 456.117 434.185 456.148 433.727ZM460.023 426.125H464.266C465.135 426.125 465.883 426.255 466.508 426.516C467.138 426.776 467.622 427.161 467.961 427.672C468.299 428.182 468.469 428.81 468.469 429.555C468.469 430.164 468.365 430.688 468.156 431.125C467.953 431.557 467.664 431.919 467.289 432.211C466.919 432.497 466.484 432.727 465.984 432.898L465.242 433.289H461.555L461.539 431.461H464.281C464.693 431.461 465.034 431.388 465.305 431.242C465.576 431.096 465.779 430.893 465.914 430.633C466.055 430.372 466.125 430.07 466.125 429.727C466.125 429.362 466.057 429.047 465.922 428.781C465.786 428.516 465.581 428.312 465.305 428.172C465.029 428.031 464.682 427.961 464.266 427.961H462.367V437.5H460.023V426.125ZM466.383 437.5L463.789 432.43L466.266 432.414L468.891 437.391V437.5H466.383ZM472.766 426.125V437.5H470.43V426.125H472.766ZM479.727 428.07L476.633 437.5H474.141L478.367 426.125H479.953L479.727 428.07ZM482.297 437.5L479.195 428.07L478.945 426.125H480.547L484.797 437.5H482.297ZM482.156 433.266V435.102H476.148V433.266H482.156ZM485.852 426.125H490.094C490.964 426.125 491.711 426.255 492.336 426.516C492.966 426.776 493.451 427.161 493.789 427.672C494.128 428.182 494.297 428.81 494.297 429.555C494.297 430.164 494.193 430.688 493.984 431.125C493.781 431.557 493.492 431.919 493.117 432.211C492.747 432.497 492.312 432.727 491.812 432.898L491.07 433.289H487.383L487.367 431.461H490.109C490.521 431.461 490.862 431.388 491.133 431.242C491.404 431.096 491.607 430.893 491.742 430.633C491.883 430.372 491.953 430.07 491.953 429.727C491.953 429.362 491.885 429.047 491.75 428.781C491.615 428.516 491.409 428.312 491.133 428.172C490.857 428.031 490.51 427.961 490.094 427.961H488.195V437.5H485.852V426.125ZM492.211 437.5L489.617 432.43L492.094 432.414L494.719 437.391V437.5H492.211ZM506.68 433.727H509.016C508.969 434.492 508.758 435.172 508.383 435.766C508.013 436.359 507.495 436.823 506.828 437.156C506.167 437.49 505.37 437.656 504.438 437.656C503.708 437.656 503.055 437.531 502.477 437.281C501.898 437.026 501.404 436.661 500.992 436.188C500.586 435.714 500.276 435.141 500.062 434.469C499.849 433.797 499.742 433.044 499.742 432.211V431.422C499.742 430.589 499.852 429.836 500.07 429.164C500.294 428.487 500.612 427.911 501.023 427.438C501.44 426.964 501.938 426.599 502.516 426.344C503.094 426.089 503.74 425.961 504.453 425.961C505.401 425.961 506.201 426.133 506.852 426.477C507.508 426.82 508.016 427.294 508.375 427.898C508.74 428.503 508.958 429.19 509.031 429.961H506.688C506.661 429.503 506.57 429.115 506.414 428.797C506.258 428.474 506.021 428.232 505.703 428.07C505.391 427.904 504.974 427.82 504.453 427.82C504.062 427.82 503.721 427.893 503.43 428.039C503.138 428.185 502.893 428.406 502.695 428.703C502.497 429 502.349 429.375 502.25 429.828C502.156 430.276 502.109 430.802 502.109 431.406V432.211C502.109 432.799 502.154 433.318 502.242 433.766C502.331 434.208 502.466 434.583 502.648 434.891C502.836 435.193 503.076 435.422 503.367 435.578C503.664 435.729 504.021 435.805 504.438 435.805C504.927 435.805 505.331 435.727 505.648 435.57C505.966 435.414 506.208 435.182 506.375 434.875C506.547 434.568 506.648 434.185 506.68 433.727ZM519.898 431.547V432.086C519.898 432.951 519.781 433.727 519.547 434.414C519.312 435.102 518.982 435.688 518.555 436.172C518.128 436.651 517.617 437.018 517.023 437.273C516.435 437.529 515.781 437.656 515.062 437.656C514.349 437.656 513.695 437.529 513.102 437.273C512.513 437.018 512.003 436.651 511.57 436.172C511.138 435.688 510.802 435.102 510.562 434.414C510.328 433.727 510.211 432.951 510.211 432.086V431.547C510.211 430.677 510.328 429.901 510.562 429.219C510.797 428.531 511.128 427.945 511.555 427.461C511.987 426.977 512.497 426.607 513.086 426.352C513.68 426.096 514.333 425.969 515.047 425.969C515.766 425.969 516.419 426.096 517.008 426.352C517.602 426.607 518.112 426.977 518.539 427.461C518.971 427.945 519.305 428.531 519.539 429.219C519.779 429.901 519.898 430.677 519.898 431.547ZM517.531 432.086V431.531C517.531 430.927 517.477 430.396 517.367 429.938C517.258 429.479 517.096 429.094 516.883 428.781C516.669 428.469 516.409 428.234 516.102 428.078C515.794 427.917 515.443 427.836 515.047 427.836C514.651 427.836 514.299 427.917 513.992 428.078C513.69 428.234 513.432 428.469 513.219 428.781C513.01 429.094 512.852 429.479 512.742 429.938C512.633 430.396 512.578 430.927 512.578 431.531V432.086C512.578 432.685 512.633 433.216 512.742 433.68C512.852 434.138 513.013 434.526 513.227 434.844C513.44 435.156 513.701 435.393 514.008 435.555C514.315 435.716 514.667 435.797 515.062 435.797C515.458 435.797 515.81 435.716 516.117 435.555C516.424 435.393 516.682 435.156 516.891 434.844C517.099 434.526 517.258 434.138 517.367 433.68C517.477 433.216 517.531 432.685 517.531 432.086ZM530.844 426.125V437.5H528.5L523.93 429.875V437.5H521.586V426.125H523.93L528.508 433.758V426.125H530.844ZM537.734 426.125V437.5H535.398V426.125H537.734ZM541.234 426.125V427.961H531.953V426.125H541.234ZM546.352 428.07L543.258 437.5H540.766L544.992 426.125H546.578L546.352 428.07ZM548.922 437.5L545.82 428.07L545.57 426.125H547.172L551.422 437.5H548.922ZM548.781 433.266V435.102H542.773V433.266H548.781Z" fill="white"/>
<path d="M445.122 165.54C445.122 166.817 444.853 167.948 444.313 168.933C443.78 169.911 443.016 170.667 442.02 171.2C441.023 171.733 439.875 172 438.574 172H433.239V159.396H438.46C442.901 159.396 445.122 161.444 445.122 165.54ZM441.088 165.575C441.088 164.96 440.962 164.406 440.71 163.914C440.464 163.422 440.109 163.041 439.646 162.771C439.184 162.502 438.639 162.367 438.012 162.367H437.036V169.029H438.1C439.008 169.029 439.731 168.719 440.271 168.098C440.815 167.471 441.088 166.63 441.088 165.575ZM451.547 172V170.629H451.512C450.914 171.689 450 172.22 448.77 172.22C447.92 172.22 447.255 171.968 446.774 171.464C446.294 170.96 446.054 170.286 446.054 169.442C446.054 167.673 447.141 166.647 449.314 166.366L451.547 166.076C451.547 165.783 451.415 165.543 451.151 165.355C450.888 165.168 450.533 165.074 450.088 165.074C449.08 165.074 448.017 165.361 446.897 165.936V163.501C447.384 163.29 447.993 163.117 448.726 162.982C449.458 162.848 450.085 162.78 450.606 162.78C452.136 162.78 453.243 163.108 453.929 163.765C454.62 164.415 454.966 165.505 454.966 167.034V172H451.547ZM449.332 168.941C449.332 169.188 449.408 169.39 449.561 169.548C449.719 169.706 449.941 169.785 450.229 169.785C450.621 169.785 450.938 169.639 451.178 169.346C451.424 169.053 451.547 168.678 451.547 168.221V167.878L450.281 168.054C449.648 168.159 449.332 168.455 449.332 168.941ZM462.674 172V170.954H462.639C462.34 171.347 461.95 171.657 461.47 171.886C460.989 172.108 460.515 172.22 460.046 172.22C459.278 172.22 458.602 172.032 458.016 171.657C457.43 171.276 456.99 170.746 456.697 170.066C456.41 169.387 456.267 168.584 456.267 167.658C456.267 166.703 456.439 165.856 456.785 165.118C457.131 164.38 457.617 163.806 458.244 163.396C458.871 162.985 459.574 162.78 460.354 162.78C460.723 162.78 461.062 162.833 461.373 162.938C461.689 163.044 461.962 163.188 462.19 163.369C462.425 163.545 462.574 163.721 462.639 163.896H462.674V158.676H466.418V172H462.674ZM462.753 167.228C462.753 166.688 462.633 166.27 462.393 165.971C462.158 165.672 461.839 165.522 461.435 165.522C461.03 165.522 460.699 165.71 460.441 166.085C460.189 166.454 460.063 166.949 460.063 167.57C460.063 168.842 460.503 169.478 461.382 169.478C461.798 169.478 462.129 169.308 462.375 168.968C462.627 168.622 462.753 168.121 462.753 167.465V167.228ZM478.239 167.342C478.239 168.859 477.779 170.052 476.859 170.919C475.945 171.786 474.665 172.22 473.019 172.22C471.384 172.22 470.109 171.798 469.195 170.954C468.287 170.104 467.833 168.936 467.833 167.447C467.833 166.492 468.047 165.663 468.475 164.96C468.902 164.257 469.512 163.718 470.303 163.343C471.094 162.968 472.005 162.78 473.036 162.78C474.103 162.78 475.025 162.977 475.805 163.369C476.59 163.762 477.19 164.307 477.606 165.004C478.028 165.701 478.239 166.48 478.239 167.342ZM474.442 167.359C474.442 166.135 473.974 165.522 473.036 165.522C472.099 165.522 471.63 166.164 471.63 167.447C471.63 168.801 472.104 169.478 473.054 169.478C473.979 169.478 474.442 168.771 474.442 167.359ZM486.949 169.012C486.949 170.031 486.56 170.822 485.78 171.385C485.007 171.941 483.926 172.22 482.537 172.22C482.133 172.22 481.632 172.179 481.034 172.097C480.442 172.015 479.959 171.915 479.584 171.798V169.17C480.691 169.662 481.617 169.908 482.361 169.908C483.094 169.908 483.46 169.718 483.46 169.337C483.46 169.179 483.375 169.05 483.205 168.95C483.035 168.845 482.59 168.672 481.869 168.432C481.072 168.18 480.492 167.846 480.129 167.43C479.766 167.014 479.584 166.472 479.584 165.804C479.584 164.872 479.953 164.137 480.691 163.598C481.436 163.053 482.479 162.78 483.82 162.78C484.605 162.78 485.438 162.895 486.316 163.123V165.646C485.947 165.487 485.543 165.355 485.104 165.25C484.664 165.145 484.295 165.092 483.996 165.092C483.75 165.092 483.554 165.133 483.407 165.215C483.261 165.297 483.188 165.411 483.188 165.558C483.188 165.728 483.267 165.865 483.425 165.971C483.583 166.076 483.899 166.202 484.374 166.349C485.294 166.618 485.953 166.964 486.352 167.386C486.75 167.808 486.949 168.35 486.949 169.012ZM503.991 163.554C503.991 164.415 503.771 165.18 503.332 165.848C502.898 166.516 502.277 167.034 501.469 167.403C500.66 167.767 499.72 167.948 498.647 167.948H497.487V172H493.69V159.396H498.858C500.634 159.396 501.932 159.733 502.752 160.407C503.578 161.081 503.991 162.13 503.991 163.554ZM499.975 163.686C499.975 163.17 499.825 162.78 499.526 162.517C499.228 162.253 498.788 162.121 498.208 162.121H497.487V165.232H498.34C499.43 165.232 499.975 164.717 499.975 163.686ZM508.386 168.563C508.45 168.95 508.673 169.255 509.054 169.478C509.435 169.694 509.938 169.803 510.565 169.803C511.438 169.803 512.265 169.636 513.044 169.302V171.675C512.136 172.038 511.034 172.22 509.739 172.22C508.169 172.22 506.947 171.818 506.074 171.016C505.201 170.213 504.765 169.108 504.765 167.702C504.765 166.735 504.955 165.883 505.336 165.145C505.723 164.406 506.291 163.829 507.041 163.413C507.797 162.991 508.629 162.78 509.537 162.78C510.469 162.78 511.266 162.962 511.928 163.325C512.59 163.688 513.091 164.198 513.431 164.854C513.776 165.511 513.949 166.278 513.949 167.157V168.563H508.386ZM510.636 166.604C510.636 165.566 510.264 165.048 509.52 165.048C509.209 165.048 508.948 165.191 508.737 165.479C508.526 165.76 508.403 166.135 508.368 166.604H510.636ZM522.562 169.012C522.562 170.031 522.173 170.822 521.394 171.385C520.62 171.941 519.539 172.22 518.15 172.22C517.746 172.22 517.245 172.179 516.647 172.097C516.056 172.015 515.572 171.915 515.197 171.798V169.17C516.305 169.662 517.23 169.908 517.975 169.908C518.707 169.908 519.073 169.718 519.073 169.337C519.073 169.179 518.988 169.05 518.818 168.95C518.648 168.845 518.203 168.672 517.482 168.432C516.686 168.18 516.105 167.846 515.742 167.43C515.379 167.014 515.197 166.472 515.197 165.804C515.197 164.872 515.566 164.137 516.305 163.598C517.049 163.053 518.092 162.78 519.434 162.78C520.219 162.78 521.051 162.895 521.93 163.123V165.646C521.561 165.487 521.156 165.355 520.717 165.25C520.277 165.145 519.908 165.092 519.609 165.092C519.363 165.092 519.167 165.133 519.021 165.215C518.874 165.297 518.801 165.411 518.801 165.558C518.801 165.728 518.88 165.865 519.038 165.971C519.196 166.076 519.513 166.202 519.987 166.349C520.907 166.618 521.566 166.964 521.965 167.386C522.363 167.808 522.562 168.35 522.562 169.012ZM531.264 169.012C531.264 170.031 530.874 170.822 530.095 171.385C529.321 171.941 528.24 172.22 526.852 172.22C526.447 172.22 525.946 172.179 525.349 172.097C524.757 172.015 524.273 171.915 523.898 171.798V169.17C525.006 169.662 525.932 169.908 526.676 169.908C527.408 169.908 527.774 169.718 527.774 169.337C527.774 169.179 527.689 169.05 527.52 168.95C527.35 168.845 526.904 168.672 526.184 168.432C525.387 168.18 524.807 167.846 524.443 167.43C524.08 167.014 523.898 166.472 523.898 165.804C523.898 164.872 524.268 164.137 525.006 163.598C525.75 163.053 526.793 162.78 528.135 162.78C528.92 162.78 529.752 162.895 530.631 163.123V165.646C530.262 165.487 529.857 165.355 529.418 165.25C528.979 165.145 528.609 165.092 528.311 165.092C528.064 165.092 527.868 165.133 527.722 165.215C527.575 165.297 527.502 165.411 527.502 165.558C527.502 165.728 527.581 165.865 527.739 165.971C527.897 166.076 528.214 166.202 528.688 166.349C529.608 166.618 530.268 166.964 530.666 167.386C531.064 167.808 531.264 168.35 531.264 169.012ZM542.663 167.342C542.663 168.859 542.203 170.052 541.283 170.919C540.369 171.786 539.089 172.22 537.442 172.22C535.808 172.22 534.533 171.798 533.619 170.954C532.711 170.104 532.257 168.936 532.257 167.447C532.257 166.492 532.471 165.663 532.898 164.96C533.326 164.257 533.936 163.718 534.727 163.343C535.518 162.968 536.429 162.78 537.46 162.78C538.526 162.78 539.449 162.977 540.229 163.369C541.014 163.762 541.614 164.307 542.03 165.004C542.452 165.701 542.663 166.48 542.663 167.342ZM538.866 167.359C538.866 166.135 538.397 165.522 537.46 165.522C536.522 165.522 536.054 166.164 536.054 167.447C536.054 168.801 536.528 169.478 537.478 169.478C538.403 169.478 538.866 168.771 538.866 167.359ZM549.053 172V170.629H549.018C548.42 171.689 547.506 172.22 546.275 172.22C545.426 172.22 544.761 171.968 544.28 171.464C543.8 170.96 543.56 170.286 543.56 169.442C543.56 167.673 544.646 166.647 546.82 166.366L549.053 166.076C549.053 165.783 548.921 165.543 548.657 165.355C548.394 165.168 548.039 165.074 547.594 165.074C546.586 165.074 545.522 165.361 544.403 165.936V163.501C544.89 163.29 545.499 163.117 546.231 162.982C546.964 162.848 547.591 162.78 548.112 162.78C549.642 162.78 550.749 163.108 551.435 163.765C552.126 164.415 552.472 165.505 552.472 167.034V172H549.053ZM546.838 168.941C546.838 169.188 546.914 169.39 547.066 169.548C547.225 169.706 547.447 169.785 547.734 169.785C548.127 169.785 548.443 169.639 548.684 169.346C548.93 169.053 549.053 168.678 549.053 168.221V167.878L547.787 168.054C547.154 168.159 546.838 168.455 546.838 168.941ZM558.132 160.574C558.132 161.102 557.938 161.529 557.552 161.857C557.171 162.186 556.667 162.35 556.04 162.35C555.431 162.35 554.93 162.18 554.537 161.84C554.15 161.5 553.957 161.078 553.957 160.574C553.957 160.059 554.145 159.643 554.52 159.326C554.9 159.004 555.407 158.843 556.04 158.843C556.667 158.843 557.171 159.004 557.552 159.326C557.938 159.643 558.132 160.059 558.132 160.574ZM554.168 172V163H557.912V172H554.168ZM567.035 169.012C567.035 170.031 566.646 170.822 565.866 171.385C565.093 171.941 564.012 172.22 562.623 172.22C562.219 172.22 561.718 172.179 561.12 172.097C560.528 172.015 560.045 171.915 559.67 171.798V169.17C560.777 169.662 561.703 169.908 562.447 169.908C563.18 169.908 563.546 169.718 563.546 169.337C563.546 169.179 563.461 169.05 563.291 168.95C563.121 168.845 562.676 168.672 561.955 168.432C561.158 168.18 560.578 167.846 560.215 167.43C559.852 167.014 559.67 166.472 559.67 165.804C559.67 164.872 560.039 164.137 560.777 163.598C561.521 163.053 562.564 162.78 563.906 162.78C564.691 162.78 565.523 162.895 566.402 163.123V165.646C566.033 165.487 565.629 165.355 565.189 165.25C564.75 165.145 564.381 165.092 564.082 165.092C563.836 165.092 563.64 165.133 563.493 165.215C563.347 165.297 563.273 165.411 563.273 165.558C563.273 165.728 563.353 165.865 563.511 165.971C563.669 166.076 563.985 166.202 564.46 166.349C565.38 166.618 566.039 166.964 566.438 167.386C566.836 167.808 567.035 168.35 567.035 169.012Z" fill="#1D1D1D" fill-opacity="0.5"/>
<path d="M339.522 215H337.745L333.062 207.795C332.944 207.613 332.846 207.424 332.769 207.228H332.728C332.764 207.437 332.782 207.886 332.782 208.574V215H331.21V205.197H333.104L337.629 212.231C337.82 212.523 337.943 212.724 337.998 212.833H338.025C337.98 212.573 337.957 212.133 337.957 211.514V205.197H339.522V215ZM344.882 215.164C343.802 215.164 342.938 214.838 342.291 214.187C341.648 213.53 341.327 212.662 341.327 211.582C341.327 210.406 341.662 209.488 342.332 208.827C343.007 208.166 343.913 207.836 345.053 207.836C346.146 207.836 346.999 208.157 347.609 208.8C348.22 209.442 348.525 210.333 348.525 211.473C348.525 212.589 348.195 213.485 347.534 214.159C346.878 214.829 345.994 215.164 344.882 215.164ZM344.957 209.101C344.337 209.101 343.847 209.317 343.487 209.75C343.127 210.183 342.947 210.78 342.947 211.541C342.947 212.275 343.13 212.854 343.494 213.277C343.859 213.697 344.346 213.906 344.957 213.906C345.581 213.906 346.06 213.699 346.393 213.284C346.73 212.869 346.898 212.279 346.898 211.514C346.898 210.743 346.73 210.149 346.393 209.729C346.06 209.31 345.581 209.101 344.957 209.101ZM360.611 215H359.025V211.186C359.025 210.452 358.921 209.921 358.711 209.593C358.506 209.265 358.157 209.101 357.665 209.101C357.25 209.101 356.897 209.308 356.605 209.723C356.318 210.137 356.175 210.634 356.175 211.213V215H354.582V211.056C354.582 209.752 354.122 209.101 353.201 209.101C352.773 209.101 352.42 209.297 352.142 209.688C351.868 210.08 351.731 210.589 351.731 211.213V215H350.146V208H351.731V209.107H351.759C352.265 208.26 353.001 207.836 353.967 207.836C354.45 207.836 354.871 207.97 355.231 208.239C355.596 208.504 355.844 208.852 355.977 209.285C356.496 208.319 357.271 207.836 358.301 207.836C359.841 207.836 360.611 208.786 360.611 210.687V215ZM368.473 211.931H363.701C363.719 212.578 363.918 213.077 364.296 213.428C364.679 213.779 365.203 213.954 365.868 213.954C366.616 213.954 367.301 213.731 367.926 213.284V214.562C367.288 214.964 366.445 215.164 365.396 215.164C364.367 215.164 363.558 214.847 362.97 214.214C362.386 213.576 362.095 212.68 362.095 211.527C362.095 210.438 362.416 209.552 363.059 208.868C363.706 208.18 364.508 207.836 365.465 207.836C366.422 207.836 367.162 208.144 367.687 208.759C368.211 209.374 368.473 210.229 368.473 211.322V211.931ZM366.941 210.81C366.937 210.24 366.802 209.798 366.538 209.483C366.274 209.164 365.909 209.005 365.444 209.005C364.989 209.005 364.601 209.171 364.282 209.504C363.968 209.837 363.774 210.272 363.701 210.81H366.941Z" fill="#1D1D1D" fill-opacity="0.5"/>
<path d="M336.713 260H331.21V250.197H336.494V251.578H332.837V254.354H336.207V255.728H332.837V258.626H336.713V260ZM341.963 256.76H338.23V255.591H341.963V256.76ZM354.377 260H352.791V256.186C352.791 255.452 352.686 254.921 352.477 254.593C352.271 254.265 351.923 254.101 351.431 254.101C351.016 254.101 350.663 254.308 350.371 254.723C350.084 255.137 349.94 255.634 349.94 256.213V260H348.348V256.056C348.348 254.752 347.887 254.101 346.967 254.101C346.538 254.101 346.185 254.297 345.907 254.688C345.634 255.08 345.497 255.589 345.497 256.213V260H343.911V253H345.497V254.107H345.524C346.03 253.26 346.766 252.836 347.732 252.836C348.215 252.836 348.637 252.97 348.997 253.239C349.362 253.504 349.61 253.852 349.742 254.285C350.262 253.319 351.036 252.836 352.066 252.836C353.607 252.836 354.377 253.786 354.377 255.687V260ZM361.685 260H360.146V258.906H360.119C359.636 259.745 358.927 260.164 357.993 260.164C357.305 260.164 356.765 259.977 356.373 259.604C355.986 259.23 355.792 258.735 355.792 258.12C355.792 256.799 356.553 256.028 358.075 255.81L360.153 255.516C360.153 254.518 359.679 254.019 358.731 254.019C357.897 254.019 357.146 254.306 356.476 254.88V253.492C357.214 253.055 358.066 252.836 359.032 252.836C360.8 252.836 361.685 253.706 361.685 255.447V260ZM360.153 256.562L358.684 256.767C358.228 256.826 357.884 256.938 357.651 257.102C357.424 257.261 357.31 257.544 357.31 257.949C357.31 258.245 357.414 258.489 357.624 258.681C357.838 258.868 358.123 258.961 358.479 258.961C358.962 258.961 359.36 258.792 359.675 258.455C359.994 258.113 360.153 257.685 360.153 257.17V256.562ZM364.426 251.53C364.166 251.53 363.943 251.446 363.756 251.277C363.574 251.109 363.482 250.895 363.482 250.635C363.482 250.375 363.574 250.159 363.756 249.985C363.943 249.812 364.166 249.726 364.426 249.726C364.695 249.726 364.923 249.812 365.109 249.985C365.296 250.159 365.39 250.375 365.39 250.635C365.39 250.881 365.296 251.093 365.109 251.271C364.923 251.444 364.695 251.53 364.426 251.53ZM365.212 260H363.626V253H365.212V260ZM368.883 260H367.29V249.637H368.883V260Z" fill="#1D1D1D" fill-opacity="0.5"/>
<path d="M353.046 304.59C352.308 304.973 351.389 305.164 350.291 305.164C348.869 305.164 347.73 304.715 346.873 303.817C346.016 302.92 345.588 301.742 345.588 300.283C345.588 298.715 346.069 297.449 347.03 296.482C347.996 295.516 349.215 295.033 350.688 295.033C351.635 295.033 352.422 295.168 353.046 295.437V297.05C352.385 296.658 351.656 296.462 350.858 296.462C349.797 296.462 348.935 296.801 348.274 297.48C347.618 298.16 347.29 299.066 347.29 300.201C347.29 301.281 347.598 302.143 348.213 302.785C348.828 303.423 349.637 303.742 350.64 303.742C351.565 303.742 352.367 303.523 353.046 303.086V304.59ZM356.525 301.445V305H354.905V295.197H357.879C359.005 295.197 359.877 295.459 360.497 295.983C361.117 296.507 361.427 297.246 361.427 298.198C361.427 299.151 361.103 299.93 360.456 300.536C359.809 301.142 358.934 301.445 357.831 301.445H356.525ZM356.525 296.537V300.119H357.578C358.275 300.119 358.806 299.957 359.171 299.634C359.535 299.31 359.718 298.854 359.718 298.267C359.718 297.114 359.048 296.537 357.708 296.537H356.525ZM368.386 296.578H364.722V299.524H368.099V300.898H364.722V305H363.095V295.197H368.386V296.578Z" fill="#1D1D1D" fill-opacity="0.5"/>
<path d="M330.759 348.61V346.936C330.909 347.072 331.087 347.195 331.292 347.305C331.502 347.414 331.723 347.507 331.955 347.585C332.188 347.658 332.42 347.715 332.652 347.756C332.885 347.797 333.099 347.817 333.295 347.817C333.979 347.817 334.487 347.703 334.819 347.476C335.157 347.248 335.325 346.917 335.325 346.484C335.325 346.252 335.268 346.051 335.154 345.883C335.045 345.71 334.89 345.552 334.689 345.411C334.489 345.27 334.252 345.135 333.979 345.008C333.71 344.876 333.42 344.739 333.11 344.598C332.778 344.42 332.468 344.24 332.181 344.058C331.894 343.875 331.643 343.675 331.429 343.456C331.219 343.233 331.053 342.982 330.93 342.704C330.811 342.426 330.752 342.1 330.752 341.727C330.752 341.266 330.854 340.868 331.06 340.53C331.269 340.188 331.543 339.908 331.88 339.689C332.222 339.466 332.609 339.302 333.042 339.197C333.475 339.088 333.917 339.033 334.368 339.033C335.394 339.033 336.141 339.149 336.61 339.382V340.988C336.054 340.587 335.339 340.387 334.464 340.387C334.222 340.387 333.981 340.41 333.739 340.455C333.502 340.501 333.288 340.576 333.097 340.681C332.91 340.785 332.757 340.92 332.639 341.084C332.52 341.248 332.461 341.446 332.461 341.679C332.461 341.897 332.507 342.087 332.598 342.246C332.689 342.406 332.821 342.551 332.994 342.684C333.172 342.816 333.386 342.946 333.637 343.073C333.892 343.196 334.186 343.331 334.519 343.477C334.86 343.654 335.182 343.841 335.482 344.037C335.788 344.233 336.054 344.45 336.282 344.687C336.515 344.924 336.697 345.188 336.829 345.479C336.966 345.767 337.034 346.095 337.034 346.464C337.034 346.961 336.934 347.38 336.733 347.722C336.533 348.063 336.262 348.341 335.92 348.556C335.583 348.77 335.193 348.925 334.751 349.021C334.309 349.116 333.842 349.164 333.35 349.164C333.186 349.164 332.983 349.15 332.741 349.123C332.504 349.1 332.26 349.064 332.01 349.014C331.759 348.968 331.522 348.911 331.299 348.843C331.076 348.774 330.896 348.697 330.759 348.61ZM344.588 345.931H339.816C339.835 346.578 340.033 347.077 340.411 347.428C340.794 347.779 341.318 347.954 341.983 347.954C342.731 347.954 343.417 347.731 344.041 347.284V348.562C343.403 348.964 342.56 349.164 341.512 349.164C340.482 349.164 339.673 348.847 339.085 348.214C338.502 347.576 338.21 346.68 338.21 345.527C338.21 344.438 338.531 343.552 339.174 342.868C339.821 342.18 340.623 341.836 341.58 341.836C342.537 341.836 343.278 342.144 343.802 342.759C344.326 343.374 344.588 344.229 344.588 345.322V345.931ZM343.057 344.81C343.052 344.24 342.918 343.798 342.653 343.483C342.389 343.164 342.024 343.005 341.56 343.005C341.104 343.005 340.716 343.171 340.397 343.504C340.083 343.837 339.889 344.272 339.816 344.81H343.057ZM352.333 349H350.747V345.056C350.747 343.748 350.285 343.094 349.359 343.094C348.876 343.094 348.478 343.276 348.163 343.641C347.849 344.001 347.691 344.456 347.691 345.008V349H346.099V342H347.691V343.162H347.719C348.243 342.278 348.999 341.836 349.988 341.836C350.749 341.836 351.33 342.084 351.731 342.581C352.132 343.073 352.333 343.786 352.333 344.721V349ZM360.495 349H358.909V345.172C358.909 343.786 358.447 343.094 357.521 343.094C357.057 343.094 356.665 343.294 356.346 343.695C356.027 344.096 355.867 344.609 355.867 345.233V349H354.274V338.637H355.867V343.162H355.895C356.423 342.278 357.18 341.836 358.164 341.836C359.718 341.836 360.495 342.786 360.495 344.687V349ZM367.796 349H366.258V347.906H366.23C365.747 348.745 365.039 349.164 364.104 349.164C363.416 349.164 362.876 348.977 362.484 348.604C362.097 348.23 361.903 347.735 361.903 347.12C361.903 345.799 362.664 345.028 364.187 344.81L366.265 344.516C366.265 343.518 365.791 343.019 364.843 343.019C364.009 343.019 363.257 343.306 362.587 343.88V342.492C363.325 342.055 364.177 341.836 365.144 341.836C366.912 341.836 367.796 342.706 367.796 344.447V349ZM366.265 345.562L364.795 345.767C364.339 345.826 363.995 345.938 363.763 346.102C363.535 346.261 363.421 346.544 363.421 346.949C363.421 347.245 363.526 347.489 363.735 347.681C363.95 347.868 364.234 347.961 364.59 347.961C365.073 347.961 365.472 347.792 365.786 347.455C366.105 347.113 366.265 346.685 366.265 346.17V345.562Z" fill="#1D1D1D" fill-opacity="0.5"/>
<path d="M330.759 394.61V392.936C330.909 393.072 331.087 393.195 331.292 393.305C331.502 393.414 331.723 393.507 331.955 393.585C332.188 393.658 332.42 393.715 332.652 393.756C332.885 393.797 333.099 393.817 333.295 393.817C333.979 393.817 334.487 393.703 334.819 393.476C335.157 393.248 335.325 392.917 335.325 392.484C335.325 392.252 335.268 392.051 335.154 391.883C335.045 391.71 334.89 391.552 334.689 391.411C334.489 391.27 334.252 391.135 333.979 391.008C333.71 390.876 333.42 390.739 333.11 390.598C332.778 390.42 332.468 390.24 332.181 390.058C331.894 389.875 331.643 389.675 331.429 389.456C331.219 389.233 331.053 388.982 330.93 388.704C330.811 388.426 330.752 388.1 330.752 387.727C330.752 387.266 330.854 386.868 331.06 386.53C331.269 386.188 331.543 385.908 331.88 385.689C332.222 385.466 332.609 385.302 333.042 385.197C333.475 385.088 333.917 385.033 334.368 385.033C335.394 385.033 336.141 385.149 336.61 385.382V386.988C336.054 386.587 335.339 386.387 334.464 386.387C334.222 386.387 333.981 386.41 333.739 386.455C333.502 386.501 333.288 386.576 333.097 386.681C332.91 386.785 332.757 386.92 332.639 387.084C332.52 387.248 332.461 387.446 332.461 387.679C332.461 387.897 332.507 388.087 332.598 388.246C332.689 388.406 332.821 388.551 332.994 388.684C333.172 388.816 333.386 388.946 333.637 389.073C333.892 389.196 334.186 389.331 334.519 389.477C334.86 389.654 335.182 389.841 335.482 390.037C335.788 390.233 336.054 390.45 336.282 390.687C336.515 390.924 336.697 391.188 336.829 391.479C336.966 391.767 337.034 392.095 337.034 392.464C337.034 392.961 336.934 393.38 336.733 393.722C336.533 394.063 336.262 394.341 335.92 394.556C335.583 394.77 335.193 394.925 334.751 395.021C334.309 395.116 333.842 395.164 333.35 395.164C333.186 395.164 332.983 395.15 332.741 395.123C332.504 395.1 332.26 395.064 332.01 395.014C331.759 394.968 331.522 394.911 331.299 394.843C331.076 394.774 330.896 394.697 330.759 394.61ZM344.588 391.931H339.816C339.835 392.578 340.033 393.077 340.411 393.428C340.794 393.779 341.318 393.954 341.983 393.954C342.731 393.954 343.417 393.731 344.041 393.284V394.562C343.403 394.964 342.56 395.164 341.512 395.164C340.482 395.164 339.673 394.847 339.085 394.214C338.502 393.576 338.21 392.68 338.21 391.527C338.21 390.438 338.531 389.552 339.174 388.868C339.821 388.18 340.623 387.836 341.58 387.836C342.537 387.836 343.278 388.144 343.802 388.759C344.326 389.374 344.588 390.229 344.588 391.322V391.931ZM343.057 390.81C343.052 390.24 342.918 389.798 342.653 389.483C342.389 389.164 342.024 389.005 341.56 389.005C341.104 389.005 340.716 389.171 340.397 389.504C340.083 389.837 339.889 390.272 339.816 390.81H343.057ZM352.333 395H350.747V391.056C350.747 389.748 350.285 389.094 349.359 389.094C348.876 389.094 348.478 389.276 348.163 389.641C347.849 390.001 347.691 390.456 347.691 391.008V395H346.099V388H347.691V389.162H347.719C348.243 388.278 348.999 387.836 349.988 387.836C350.749 387.836 351.33 388.084 351.731 388.581C352.132 389.073 352.333 389.786 352.333 390.721V395ZM360.495 395H358.909V391.172C358.909 389.786 358.447 389.094 357.521 389.094C357.057 389.094 356.665 389.294 356.346 389.695C356.027 390.096 355.867 390.609 355.867 391.233V395H354.274V384.637H355.867V389.162H355.895C356.423 388.278 357.18 387.836 358.164 387.836C359.718 387.836 360.495 388.786 360.495 390.687V395ZM367.796 395H366.258V393.906H366.23C365.747 394.745 365.039 395.164 364.104 395.164C363.416 395.164 362.876 394.977 362.484 394.604C362.097 394.23 361.903 393.735 361.903 393.12C361.903 391.799 362.664 391.028 364.187 390.81L366.265 390.516C366.265 389.518 365.791 389.019 364.843 389.019C364.009 389.019 363.257 389.306 362.587 389.88V388.492C363.325 388.055 364.177 387.836 365.144 387.836C366.912 387.836 367.796 388.706 367.796 390.447V395ZM366.265 391.562L364.795 391.767C364.339 391.826 363.995 391.938 363.763 392.102C363.535 392.261 363.421 392.544 363.421 392.949C363.421 393.245 363.526 393.489 363.735 393.681C363.95 393.868 364.234 393.961 364.59 393.961C365.073 393.961 365.472 393.792 365.786 393.455C366.105 393.113 366.265 392.685 366.265 392.17V391.562Z" fill="#1D1D1D" fill-opacity="0.5"/>
</g>
<defs>
<clipPath id="clip0_516_54">
<rect width="1000" height="640" fill="white"/>
</clipPath>
</defs>
</svg>
