<svg width="1000" height="640" viewBox="0 0 1000 640" fill="none" xmlns="http://www.w3.org/2000/svg">
<g clip-path="url(#clip0_518_138)">
<mask id="mask0_518_138" style="mask-type:luminance" maskUnits="userSpaceOnUse" x="0" y="0" width="1000" height="640">
<path d="M1000 0H0V640H1000V0Z" fill="white"/>
</mask>
<g mask="url(#mask0_518_138)">
<path d="M1000 0H0V640H1000V0Z" fill="white"/>
<path d="M222.882 687.899C174.849 676.841 99.3685 704.341 101.027 655.009C101.682 635.508 107.657 623.021 121.768 609.569C151.673 581.06 185.173 628.312 226.338 625.148C279.333 621.075 306.22 551.693 353.378 576.246C375.971 588.009 390.924 600.285 396.589 625.148C406.07 666.753 366.134 694.703 325.723 708.239C286.899 721.243 262.779 697.084 222.882 687.899Z" fill="#0C7D81"/>
<path d="M791.068 549.382C845.59 471.011 769.992 325.069 865.068 316.382C965.67 307.191 975.121 465.935 945.068 562.382C904.594 692.268 565.852 814.719 621.068 690.382C656.074 611.553 741.809 620.186 791.068 549.382Z" fill="#0469B1"/>
<path d="M807.004 246.187C818.209 203.91 791.762 156.98 830.504 136.687C880.225 110.643 910.878 229.608 875.504 273.187C853.36 300.468 805.004 334.692 790.504 302.687C781.019 281.749 801.116 268.406 807.004 246.187Z" fill="#F9BB0D"/>
<path d="M1016.67 -5.22611C976.12 -25.1373 966.157 -79.0723 921.67 -71.2261C861.786 -60.6645 883.44 23.904 898.67 82.7739C917.967 157.37 959.141 222.388 1036.17 224.274C1096.67 225.755 1167.33 202.793 1167.67 142.274C1167.81 117.568 1146.35 107.48 1146.17 82.7739C1146.02 62.7374 1161.02 53.2651 1159.67 33.2739C1155.76 -24.4275 1068.58 20.2647 1016.67 -5.22611Z" fill="#E30140"/>
<path d="M984 84C986.209 84 988 82.2091 988 80C988 77.7908 986.209 76 984 76C981.791 76 980 77.7908 980 80C980 82.2091 981.791 84 984 84Z" fill="#51001A"/>
<path d="M597.658 -4.5166C572.33 -9.26402 549.113 6.88986 532.158 -12.5166C519.105 -27.4577 521.875 -42.7181 523.158 -62.5166C526.955 -121.082 579.427 -174.012 636.658 -161.017C687.118 -149.558 712.797 -99.8956 706.658 -48.5166C703.312 -20.51 699.45 3.49782 674.158 15.9834C646.424 29.6746 628.058 1.18139 597.658 -4.5166Z" fill="#0C7D81"/>
<path d="M103.151 75.0096C137.218 61.8936 174.67 85.5929 194.438 54.9045C221.048 13.5958 159.011 -19.9861 115.742 -43.2712C60.913 -72.7765 -0.244915 -84.0513 -43.6472 -39.4085C-77.7375 -4.34371 -102.906 50.159 -67.2066 83.5842C-52.6328 97.2296 -34.8696 90.0404 -20.1208 103.497C-8.15966 114.409 -10.7759 128.503 1.82204 138.675C38.1839 168.032 59.5378 91.801 103.151 75.0096Z" fill="#E30140"/>
<path d="M69.2433 39.4751C70.5524 40.6887 72.5976 40.6114 73.8112 39.3022C75.0249 37.9931 74.9475 35.948 73.6384 34.7343C72.3293 33.5207 70.2842 33.598 69.0705 34.9072C67.8569 36.2163 67.9342 38.2614 69.2433 39.4751Z" fill="#51001A"/>
<path d="M-9.40454 16.1474L1.52419 16.0007C1.98606 15.9945 2.39208 16.3054 2.50647 16.7529L5.83455 29.7734C5.93608 30.1706 6.26976 30.4656 6.67641 30.5177L18.9351 32.0871C19.4276 32.1502 19.7993 32.5652 19.8079 33.0616L20.02 45.2452C20.0293 45.7782 20.4552 46.2103 20.988 46.2272L31.2632 46.5545C31.8464 46.5731 32.2899 47.085 32.2252 47.6649L31.2131 56.7387C31.1389 57.4042 31.7269 57.9531 32.3857 57.8335L43.7513 55.7687C44.3807 55.6543 44.9542 56.1523 44.9293 56.7915L44.3975 70.4347" stroke="#51001A" stroke-width="7" stroke-linecap="round"/>
<path d="M6.56763 640.207C-46.4494 566.007 -97.1814 407.576 -5.98816 407.026C28.5638 406.818 42.1047 433.884 76.1087 440.016C127.932 449.362 174.257 382.954 209.725 421.876C239.711 454.783 205.33 491.313 206.239 535.824C207.772 610.875 277.873 672.063 226.67 726.955C163.649 794.515 60.2796 715.38 6.56763 640.207Z" fill="#EE75A7"/>
<path d="M36 527C38.2091 527 40 525.209 40 523C40 520.791 38.2091 519 36 519C33.7909 519 32 520.791 32 523C32 525.209 33.7909 527 36 527Z" fill="#932050"/>
<path d="M177 523C179.209 523 181 521.209 181 519C181 516.791 179.209 515 177 515C174.791 515 173 516.791 173 519C173 521.209 174.791 523 177 523Z" fill="#932050"/>
<path d="M103 578.5C108.679 578.5 112.5 573.099 112.5 567.5C112.5 561.901 108.679 556.5 103 556.5C97.3211 556.5 93.5 561.901 93.5 567.5C93.5 573.099 97.3211 578.5 103 578.5Z" stroke="#932050" stroke-width="5"/>
<path d="M-5.16544 203.003C-36.7886 208.582 -57.341 224.35 -69.6654 254.003C-93.3628 311.018 -14.9406 349.115 45.3346 362.503C100.74 374.808 180.957 380.089 185.335 323.503C189.206 273.456 127.583 269.482 84.3346 244.003C51.211 224.488 32.6947 196.323 -5.16544 203.003Z" fill="#9C9B9B"/>
<path d="M15 298C17.2091 298 19 296.209 19 294C19 291.791 17.2091 290 15 290C12.7909 290 11 291.791 11 294C11 296.209 12.7909 298 15 298Z" fill="#303636"/>
<path d="M97 298C99.2091 298 101 296.209 101 294C101 291.791 99.2091 290 97 290C94.7909 290 93 291.791 93 294C93 296.209 94.7909 298 97 298Z" fill="#303636"/>
<path d="M37 310.501C51.1548 292.911 59.3936 293.919 74.5 310.501" stroke="#303636" stroke-width="7" stroke-linecap="round"/>
<path d="M369.545 60.0641C334.395 66.2609 316.51 21.0984 282.545 32.0641C229.819 49.0865 323.642 136.604 379.045 136.064C420.637 135.659 467.54 117.655 467.045 76.0641C466.739 50.3795 457.157 27.4163 432.545 20.0641C404.621 11.7225 398.245 55.0044 369.545 60.0641Z" fill="#EE75A7"/>
<path d="M354 100H395" stroke="#932050" stroke-width="7" stroke-linecap="round"/>
<path d="M343 81C345.209 81 347 79.2091 347 77C347 74.7908 345.209 73 343 73C340.791 73 339 74.7908 339 77C339 79.2091 340.791 81 343 81Z" fill="#932050"/>
<path d="M391 81C393.209 81 395 79.2091 395 77C395 74.7908 393.209 73 391 73C388.791 73 387 74.7908 387 77C387 79.2091 388.791 81 391 81Z" fill="#932050"/>
<path d="M823 239.17C823 239.17 830.002 233.206 835.5 232.17C845.713 230.245 849.243 245.345 859.5 243.67C867.252 242.404 876 232.17 876 232.17" stroke="#906804" stroke-width="7" stroke-linecap="round"/>
<path d="M830 210C832.209 210 834 208.209 834 206C834 203.791 832.209 202 830 202C827.791 202 826 203.791 826 206C826 208.209 827.791 210 830 210Z" fill="#906804"/>
<path d="M863 210C865.209 210 867 208.209 867 206C867 203.791 865.209 202 863 202C860.791 202 859 203.791 859 206C859 208.209 860.791 210 863 210Z" fill="#906804"/>
<path d="M857 498C857 524 891 528.5 891 498" stroke="#022F50" stroke-width="7" stroke-linecap="round"/>
<path d="M859 482C861.209 482 863 480.209 863 478C863 475.791 861.209 474 859 474C856.791 474 855 475.791 855 478C855 480.209 856.791 482 859 482Z" fill="#022F50"/>
<path d="M888 482C890.209 482 892 480.209 892 478C892 475.791 890.209 474 888 474C885.791 474 884 475.791 884 478C884 480.209 885.791 482 888 482Z" fill="#022F50"/>
<path d="M802 49C805.866 49 809 45.866 809 42C809 38.134 805.866 35 802 35C798.134 35 795 38.134 795 42C795 45.866 798.134 49 802 49Z" fill="#F9BB0D"/>
<path d="M955 238C958.866 238 962 234.866 962 231C962 227.134 958.866 224 955 224C951.134 224 948 227.134 948 231C948 234.866 951.134 238 955 238Z" fill="#E30140"/>
<path d="M121.733 564.194C124.909 561.99 125.697 557.628 123.493 554.452C121.289 551.276 116.927 550.488 113.751 552.692C110.575 554.896 109.787 559.258 111.991 562.434C114.195 565.61 118.557 566.398 121.733 564.194Z" fill="#EE75A7"/>
<path d="M86.7327 396.194C89.9088 393.99 90.6968 389.628 88.4927 386.452C86.2885 383.276 81.927 382.488 78.7509 384.692C75.5748 386.896 74.7868 391.258 76.9909 394.434C79.195 397.61 83.5566 398.398 86.7327 396.194Z" fill="#9C9B9B"/>
<path d="M86.7327 275.194C89.9088 272.99 90.6968 268.628 88.4927 265.452C86.2885 262.276 81.927 261.488 78.7509 263.692C75.5748 265.896 74.7868 270.258 76.9909 273.434C79.195 276.61 83.5566 277.398 86.7327 275.194Z" fill="#9C9B9B"/>
<path d="M625 243H375C368.373 243 363 248.373 363 255V386C363 392.627 368.373 398 375 398H625C631.627 398 637 392.627 637 386V255C637 248.373 631.627 243 625 243Z" fill="white"/>
<path d="M613 260H387C383.134 260 380 263.134 380 267V286C380 289.866 383.134 293 387 293H613C616.866 293 620 289.866 620 286V267C620 263.134 616.866 260 613 260Z" fill="#F7F7F7"/>
<path d="M613 260H387C383.134 260 380 263.134 380 267V286C380 289.866 383.134 293 387 293H613C616.866 293 620 289.866 620 286V267C620 263.134 616.866 260 613 260Z" stroke="#E6E6E6" stroke-width="2"/>
<path d="M613 305H387C383.134 305 380 308.134 380 312V331C380 334.866 383.134 338 387 338H613C616.866 338 620 334.866 620 331V312C620 308.134 616.866 305 613 305Z" fill="#F7F7F7"/>
<path d="M613 305H387C383.134 305 380 308.134 380 312V331C380 334.866 383.134 338 387 338H613C616.866 338 620 334.866 620 331V312C620 308.134 616.866 305 613 305Z" stroke="#E6E6E6" stroke-width="2"/>
<path d="M475.617 236.657C474.574 237.032 473.37 237.22 472.005 237.22C470.663 237.22 469.506 236.965 468.533 236.455C467.561 235.939 466.816 235.21 466.301 234.267C465.791 233.317 465.536 232.225 465.536 230.988C465.536 229.658 465.823 228.475 466.397 227.438C466.972 226.4 467.783 225.601 468.832 225.038C469.881 224.47 471.088 224.186 472.453 224.186C473.543 224.186 474.598 224.317 475.617 224.581V228.088C475.266 227.877 474.847 227.713 474.36 227.596C473.874 227.479 473.382 227.42 472.884 227.42C471.853 227.42 471.038 227.716 470.44 228.308C469.849 228.899 469.553 229.702 469.553 230.716C469.553 231.724 469.849 232.521 470.44 233.106C471.038 233.687 471.835 233.977 472.831 233.977C473.751 233.977 474.68 233.742 475.617 233.273V236.657ZM487.245 232.342C487.245 233.859 486.785 235.052 485.865 235.919C484.951 236.786 483.671 237.22 482.024 237.22C480.39 237.22 479.115 236.798 478.201 235.954C477.293 235.104 476.839 233.936 476.839 232.447C476.839 231.492 477.053 230.663 477.48 229.96C477.908 229.257 478.518 228.718 479.309 228.343C480.1 227.968 481.011 227.78 482.042 227.78C483.108 227.78 484.031 227.977 484.811 228.369C485.596 228.762 486.196 229.307 486.612 230.004C487.034 230.701 487.245 231.48 487.245 232.342ZM483.448 232.359C483.448 231.135 482.979 230.522 482.042 230.522C481.104 230.522 480.636 231.164 480.636 232.447C480.636 233.801 481.11 234.478 482.06 234.478C482.985 234.478 483.448 233.771 483.448 232.359ZM494.479 237V232.087C494.479 231.53 494.394 231.132 494.224 230.892C494.06 230.646 493.79 230.522 493.415 230.522C493.093 230.522 492.841 230.648 492.659 230.9C492.478 231.152 492.387 231.475 492.387 231.867V237H488.643V228H492.387V229.406H492.422C492.721 228.891 493.122 228.492 493.626 228.211C494.13 227.924 494.678 227.78 495.27 227.78C497.238 227.78 498.223 229.022 498.223 231.507V237H494.479ZM506.247 236.877C506.077 236.959 505.799 237.035 505.412 237.105C505.025 237.182 504.56 237.22 504.015 237.22C502.972 237.22 502.154 236.933 501.562 236.358C500.977 235.784 500.684 234.967 500.684 233.906V230.593H499.269V228H500.684V226.233L504.375 225.214V228H506.247V230.593H504.375V233.291C504.375 234.082 504.688 234.478 505.315 234.478C505.608 234.478 505.919 234.413 506.247 234.284V236.877ZM512.408 237V235.629H512.373C511.775 236.689 510.861 237.22 509.631 237.22C508.781 237.22 508.116 236.968 507.636 236.464C507.155 235.96 506.915 235.286 506.915 234.442C506.915 232.673 508.002 231.647 510.176 231.366L512.408 231.076C512.408 230.783 512.276 230.543 512.013 230.355C511.749 230.168 511.395 230.074 510.949 230.074C509.941 230.074 508.878 230.361 507.759 230.936V228.501C508.245 228.29 508.854 228.117 509.587 227.982C510.319 227.848 510.946 227.78 511.468 227.78C512.997 227.78 514.104 228.108 514.79 228.765C515.481 229.415 515.827 230.505 515.827 232.034V237H512.408ZM510.193 233.941C510.193 234.188 510.27 234.39 510.422 234.548C510.58 234.706 510.803 234.785 511.09 234.785C511.482 234.785 511.799 234.639 512.039 234.346C512.285 234.053 512.408 233.678 512.408 233.221V232.878L511.143 233.054C510.51 233.159 510.193 233.455 510.193 233.941ZM523.86 236.877C523.69 236.959 523.412 237.035 523.025 237.105C522.639 237.182 522.173 237.22 521.628 237.22C520.585 237.22 519.768 236.933 519.176 236.358C518.59 235.784 518.297 234.967 518.297 233.906V230.593H516.882V228H518.297V226.233L521.988 225.214V228H523.86V230.593H521.988V233.291C521.988 234.082 522.302 234.478 522.929 234.478C523.222 234.478 523.532 234.413 523.86 234.284V236.877ZM535.04 232.342C535.04 233.859 534.58 235.052 533.66 235.919C532.746 236.786 531.466 237.22 529.819 237.22C528.185 237.22 526.91 236.798 525.996 235.954C525.088 235.104 524.634 233.936 524.634 232.447C524.634 231.492 524.848 230.663 525.275 229.96C525.703 229.257 526.312 228.718 527.104 228.343C527.895 227.968 528.806 227.78 529.837 227.78C530.903 227.78 531.826 227.977 532.605 228.369C533.391 228.762 533.991 229.307 534.407 230.004C534.829 230.701 535.04 231.48 535.04 232.342ZM531.243 232.359C531.243 231.135 530.774 230.522 529.837 230.522C528.899 230.522 528.431 231.164 528.431 232.447C528.431 233.801 528.905 234.478 529.854 234.478C530.78 234.478 531.243 233.771 531.243 232.359Z" fill="#1D1D1D" fill-opacity="0.5"/>
</g>
<path d="M332.046 281.59C331.308 281.973 330.389 282.164 329.291 282.164C327.869 282.164 326.73 281.715 325.873 280.817C325.016 279.92 324.588 278.742 324.588 277.283C324.588 275.715 325.069 274.449 326.03 273.482C326.996 272.516 328.215 272.033 329.688 272.033C330.635 272.033 331.422 272.168 332.046 272.437V274.05C331.385 273.658 330.656 273.462 329.858 273.462C328.797 273.462 327.935 273.801 327.274 274.48C326.618 275.16 326.29 276.066 326.29 277.201C326.29 278.281 326.598 279.143 327.213 279.785C327.828 280.423 328.637 280.742 329.64 280.742C330.565 280.742 331.367 280.523 332.046 280.086V281.59ZM339.654 278.931H334.883C334.901 279.578 335.099 280.077 335.478 280.428C335.86 280.779 336.384 280.954 337.05 280.954C337.797 280.954 338.483 280.731 339.107 280.284V281.562C338.469 281.964 337.626 282.164 336.578 282.164C335.548 282.164 334.739 281.847 334.151 281.214C333.568 280.576 333.276 279.68 333.276 278.527C333.276 277.438 333.598 276.552 334.24 275.868C334.887 275.18 335.689 274.836 336.646 274.836C337.604 274.836 338.344 275.144 338.868 275.759C339.392 276.374 339.654 277.229 339.654 278.322V278.931ZM338.123 277.81C338.118 277.24 337.984 276.798 337.72 276.483C337.455 276.164 337.091 276.005 336.626 276.005C336.17 276.005 335.783 276.171 335.464 276.504C335.149 276.837 334.956 277.272 334.883 277.81H338.123ZM342.758 282H341.165V271.637H342.758V282ZM350.934 282H349.348V280.893H349.32C348.86 281.74 348.145 282.164 347.174 282.164C345.52 282.164 344.692 281.171 344.692 279.184V275H346.278V279.02C346.278 280.277 346.764 280.906 347.734 280.906C348.204 280.906 348.589 280.733 348.89 280.387C349.195 280.04 349.348 279.587 349.348 279.026V275H350.934V282ZM354.598 282H353.005V271.637H354.598V282ZM362.042 282H360.504V280.906H360.477C359.993 281.745 359.285 282.164 358.351 282.164C357.662 282.164 357.122 281.977 356.73 281.604C356.343 281.23 356.149 280.735 356.149 280.12C356.149 278.799 356.91 278.028 358.433 277.81L360.511 277.516C360.511 276.518 360.037 276.019 359.089 276.019C358.255 276.019 357.503 276.306 356.833 276.88V275.492C357.571 275.055 358.424 274.836 359.39 274.836C361.158 274.836 362.042 275.706 362.042 277.447V282ZM360.511 278.562L359.041 278.767C358.585 278.826 358.241 278.938 358.009 279.102C357.781 279.261 357.667 279.544 357.667 279.949C357.667 280.245 357.772 280.489 357.981 280.681C358.196 280.868 358.48 280.961 358.836 280.961C359.319 280.961 359.718 280.792 360.032 280.455C360.351 280.113 360.511 279.685 360.511 279.17V278.562ZM368.044 276.511C367.853 276.36 367.577 276.285 367.217 276.285C366.747 276.285 366.355 276.497 366.041 276.921C365.727 277.345 365.569 277.921 365.569 278.65V282H363.983V275H365.569V276.442H365.597C365.752 275.95 365.989 275.567 366.308 275.294C366.631 275.016 366.991 274.877 367.388 274.877C367.675 274.877 367.894 274.92 368.044 275.007V276.511Z" fill="#1D1D1D" fill-opacity="0.5"/>
<path d="M332.046 325.59C331.308 325.973 330.389 326.164 329.291 326.164C327.869 326.164 326.73 325.715 325.873 324.817C325.016 323.92 324.588 322.742 324.588 321.283C324.588 319.715 325.069 318.449 326.03 317.482C326.996 316.516 328.215 316.033 329.688 316.033C330.635 316.033 331.422 316.168 332.046 316.437V318.05C331.385 317.658 330.656 317.462 329.858 317.462C328.797 317.462 327.935 317.801 327.274 318.48C326.618 319.16 326.29 320.066 326.29 321.201C326.29 322.281 326.598 323.143 327.213 323.785C327.828 324.423 328.637 324.742 329.64 324.742C330.565 324.742 331.367 324.523 332.046 324.086V325.59ZM339.654 322.931H334.883C334.901 323.578 335.099 324.077 335.478 324.428C335.86 324.779 336.384 324.954 337.05 324.954C337.797 324.954 338.483 324.731 339.107 324.284V325.562C338.469 325.964 337.626 326.164 336.578 326.164C335.548 326.164 334.739 325.847 334.151 325.214C333.568 324.576 333.276 323.68 333.276 322.527C333.276 321.438 333.598 320.552 334.24 319.868C334.887 319.18 335.689 318.836 336.646 318.836C337.604 318.836 338.344 319.144 338.868 319.759C339.392 320.374 339.654 321.229 339.654 322.322V322.931ZM338.123 321.81C338.118 321.24 337.984 320.798 337.72 320.483C337.455 320.164 337.091 320.005 336.626 320.005C336.17 320.005 335.783 320.171 335.464 320.504C335.149 320.837 334.956 321.272 334.883 321.81H338.123ZM342.758 326H341.165V315.637H342.758V326ZM350.934 326H349.348V324.893H349.32C348.86 325.74 348.145 326.164 347.174 326.164C345.52 326.164 344.692 325.171 344.692 323.184V319H346.278V323.02C346.278 324.277 346.764 324.906 347.734 324.906C348.204 324.906 348.589 324.733 348.89 324.387C349.195 324.04 349.348 323.587 349.348 323.026V319H350.934V326ZM354.598 326H353.005V315.637H354.598V326ZM362.042 326H360.504V324.906H360.477C359.993 325.745 359.285 326.164 358.351 326.164C357.662 326.164 357.122 325.977 356.73 325.604C356.343 325.23 356.149 324.735 356.149 324.12C356.149 322.799 356.91 322.028 358.433 321.81L360.511 321.516C360.511 320.518 360.037 320.019 359.089 320.019C358.255 320.019 357.503 320.306 356.833 320.88V319.492C357.571 319.055 358.424 318.836 359.39 318.836C361.158 318.836 362.042 319.706 362.042 321.447V326ZM360.511 322.562L359.041 322.767C358.585 322.826 358.241 322.938 358.009 323.102C357.781 323.261 357.667 323.544 357.667 323.949C357.667 324.245 357.772 324.489 357.981 324.681C358.196 324.868 358.48 324.961 358.836 324.961C359.319 324.961 359.718 324.792 360.032 324.455C360.351 324.113 360.511 323.685 360.511 323.17V322.562ZM368.044 320.511C367.853 320.36 367.577 320.285 367.217 320.285C366.747 320.285 366.355 320.497 366.041 320.921C365.727 321.345 365.569 321.921 365.569 322.65V326H363.983V319H365.569V320.442H365.597C365.752 319.95 365.989 319.567 366.308 319.294C366.631 319.016 366.991 318.877 367.388 318.877C367.675 318.877 367.894 318.92 368.044 319.007V320.511Z" fill="#1D1D1D" fill-opacity="0.5"/>
</g>
<defs>
<clipPath id="clip0_518_138">
<rect width="1000" height="640" fill="white"/>
</clipPath>
</defs>
</svg>
