<svg width="1000" height="640" viewBox="0 0 1000 640" fill="none" xmlns="http://www.w3.org/2000/svg">
<g clip-path="url(#clip0_516_294)">
<path d="M1000 0H0V640H1000V0Z" fill="white"/>
<path d="M222.882 687.899C174.849 676.841 99.3686 704.341 101.027 655.009C101.682 635.508 107.657 623.021 121.768 609.569C151.673 581.06 185.173 628.312 226.338 625.148C279.333 621.075 306.22 551.693 353.378 576.246C375.971 588.009 390.924 600.285 396.589 625.148C406.07 666.753 366.134 694.703 325.723 708.239C286.899 721.243 262.779 697.084 222.882 687.899Z" fill="#0C7D81"/>
<path d="M791.068 549.382C845.59 471.011 769.992 325.069 865.068 316.382C965.67 307.191 975.121 465.935 945.068 562.382C904.594 692.268 565.852 814.719 621.068 690.382C656.074 611.553 741.809 620.186 791.068 549.382Z" fill="#0469B1"/>
<path d="M807.004 246.187C818.209 203.91 791.762 156.98 830.504 136.687C880.225 110.643 910.878 229.608 875.504 273.187C853.36 300.468 805.004 334.692 790.504 302.687C781.019 281.749 801.116 268.406 807.004 246.187Z" fill="#F9BB0D"/>
<path d="M1016.67 -5.22611C976.12 -25.1373 966.157 -79.0723 921.67 -71.2261C861.786 -60.6645 883.44 23.904 898.67 82.7739C917.967 157.37 959.141 222.388 1036.17 224.274C1096.67 225.755 1167.33 202.793 1167.67 142.274C1167.81 117.568 1146.35 107.48 1146.17 82.7739C1146.02 62.7374 1161.02 53.2651 1159.67 33.2739C1155.76 -24.4275 1068.58 20.2647 1016.67 -5.22611Z" fill="#E30140"/>
<path d="M984 84C986.209 84 988 82.2091 988 80C988 77.7908 986.209 76 984 76C981.791 76 980 77.7908 980 80C980 82.2091 981.791 84 984 84Z" fill="#51001A"/>
<path d="M597.658 -4.5166C572.33 -9.26402 549.113 6.88986 532.158 -12.5166C519.105 -27.4577 521.875 -42.7181 523.158 -62.5166C526.955 -121.082 579.427 -174.012 636.658 -161.017C687.118 -149.558 712.797 -99.8956 706.658 -48.5166C703.312 -20.51 699.45 3.49782 674.158 15.9834C646.424 29.6746 628.058 1.18139 597.658 -4.5166Z" fill="#0C7D81"/>
<path d="M103.151 75.0096C137.218 61.8937 174.67 85.5929 194.438 54.9045C221.048 13.5959 159.011 -19.986 115.742 -43.2711C60.9131 -72.7765 -0.244793 -84.0512 -43.6471 -39.4084C-77.7374 -4.34366 -102.906 50.1591 -67.2065 83.5843C-52.6327 97.2297 -34.8695 90.0405 -20.1207 103.497C-8.15953 114.41 -10.7758 128.503 1.82217 138.675C38.184 168.032 59.5379 91.8011 103.151 75.0096Z" fill="#E30140"/>
<path d="M69.2433 39.4749C70.5524 40.6886 72.5976 40.6112 73.8112 39.3021C75.0249 37.993 74.9475 35.9479 73.6384 34.7342C72.3293 33.5206 70.2842 33.5979 69.0705 34.907C67.8569 36.2161 67.9342 38.2613 69.2433 39.4749Z" fill="#51001A"/>
<path d="M-9.40442 16.1474L1.52431 16.0007C1.98618 15.9945 2.3922 16.3054 2.50659 16.7529L5.83467 29.7734C5.9362 30.1706 6.26988 30.4656 6.67653 30.5177L18.9352 32.0871C19.4277 32.1502 19.7994 32.5652 19.808 33.0616L20.0201 45.2452C20.0294 45.7782 20.4553 46.2103 20.9881 46.2272L31.2633 46.5545C31.8465 46.5731 32.29 47.085 32.2253 47.6649L31.2132 56.7387C31.139 57.4042 31.727 57.9531 32.3858 57.8335L43.7514 55.7687C44.3808 55.6543 44.9543 56.1523 44.9294 56.7915L44.3976 70.4347" stroke="#51001A" stroke-width="7" stroke-linecap="round"/>
<path d="M6.56788 640.208C-46.4492 566.007 -97.1812 407.576 -5.98791 407.026C28.564 406.818 42.1049 433.884 76.1089 440.016C127.932 449.362 174.257 382.954 209.725 421.876C239.711 454.783 205.33 491.313 206.239 535.824C207.772 610.875 277.873 672.063 226.67 726.955C163.649 794.515 60.2798 715.38 6.56788 640.208Z" fill="#EE75A7"/>
<path d="M36 527C38.2091 527 40 525.209 40 523C40 520.791 38.2091 519 36 519C33.7909 519 32 520.791 32 523C32 525.209 33.7909 527 36 527Z" fill="#932050"/>
<path d="M177 523C179.209 523 181 521.209 181 519C181 516.791 179.209 515 177 515C174.791 515 173 516.791 173 519C173 521.209 174.791 523 177 523Z" fill="#932050"/>
<path d="M103 578.5C108.679 578.5 112.5 573.099 112.5 567.5C112.5 561.901 108.679 556.5 103 556.5C97.3211 556.5 93.5 561.901 93.5 567.5C93.5 573.099 97.3211 578.5 103 578.5Z" stroke="#932050" stroke-width="5"/>
<path d="M-5.16544 203.003C-36.7886 208.582 -57.341 224.35 -69.6654 254.003C-93.3628 311.018 -14.9406 349.115 45.3346 362.503C100.74 374.808 180.957 380.089 185.335 323.503C189.206 273.456 127.583 269.482 84.3346 244.003C51.211 224.488 32.6947 196.323 -5.16544 203.003Z" fill="#9C9B9B"/>
<path d="M15 298C17.2091 298 19 296.209 19 294C19 291.791 17.2091 290 15 290C12.7909 290 11 291.791 11 294C11 296.209 12.7909 298 15 298Z" fill="#303636"/>
<path d="M97 298C99.2091 298 101 296.209 101 294C101 291.791 99.2091 290 97 290C94.7909 290 93 291.791 93 294C93 296.209 94.7909 298 97 298Z" fill="#303636"/>
<path d="M37 310.501C51.1548 292.911 59.3936 293.919 74.5 310.501" stroke="#303636" stroke-width="7" stroke-linecap="round"/>
<path d="M369.545 23.0641C334.395 29.2609 316.51 -15.9016 282.545 -4.93589C229.819 12.0865 323.642 99.6038 379.045 99.0641C420.637 98.659 467.54 80.6552 467.045 39.0641C466.739 13.3795 457.157 -9.58368 432.545 -16.9359C404.621 -25.2775 398.245 18.0044 369.545 23.0641Z" fill="#EE75A7"/>
<path d="M354 63H395" stroke="#932050" stroke-width="7" stroke-linecap="round"/>
<path d="M343 44C345.209 44 347 42.2091 347 40C347 37.7909 345.209 36 343 36C340.791 36 339 37.7909 339 40C339 42.2091 340.791 44 343 44Z" fill="#932050"/>
<path d="M391 44C393.209 44 395 42.2091 395 40C395 37.7909 393.209 36 391 36C388.791 36 387 37.7909 387 40C387 42.2091 388.791 44 391 44Z" fill="#932050"/>
<path d="M823 239.17C823 239.17 830.002 233.206 835.5 232.17C845.713 230.245 849.243 245.345 859.5 243.67C867.252 242.404 876 232.17 876 232.17" stroke="#906804" stroke-width="7" stroke-linecap="round"/>
<path d="M830 210C832.209 210 834 208.209 834 206C834 203.791 832.209 202 830 202C827.791 202 826 203.791 826 206C826 208.209 827.791 210 830 210Z" fill="#906804"/>
<path d="M863 210C865.209 210 867 208.209 867 206C867 203.791 865.209 202 863 202C860.791 202 859 203.791 859 206C859 208.209 860.791 210 863 210Z" fill="#906804"/>
<path d="M857 498C857 524 891 528.5 891 498" stroke="#022F50" stroke-width="7" stroke-linecap="round"/>
<path d="M859 482C861.209 482 863 480.209 863 478C863 475.791 861.209 474 859 474C856.791 474 855 475.791 855 478C855 480.209 856.791 482 859 482Z" fill="#022F50"/>
<path d="M888 482C890.209 482 892 480.209 892 478C892 475.791 890.209 474 888 474C885.791 474 884 475.791 884 478C884 480.209 885.791 482 888 482Z" fill="#022F50"/>
<path d="M802 49C805.866 49 809 45.866 809 42C809 38.134 805.866 35 802 35C798.134 35 795 38.134 795 42C795 45.866 798.134 49 802 49Z" fill="#F9BB0D"/>
<path d="M955 238C958.866 238 962 234.866 962 231C962 227.134 958.866 224 955 224C951.134 224 948 227.134 948 231C948 234.866 951.134 238 955 238Z" fill="#E30140"/>
<path d="M121.733 564.194C124.909 561.99 125.697 557.628 123.493 554.452C121.289 551.276 116.927 550.488 113.751 552.692C110.575 554.896 109.787 559.258 111.991 562.434C114.195 565.61 118.557 566.398 121.733 564.194Z" fill="#EE75A7"/>
<path d="M86.7327 396.194C89.9088 393.99 90.6968 389.628 88.4927 386.452C86.2885 383.276 81.927 382.488 78.7509 384.692C75.5748 386.896 74.7868 391.258 76.9909 394.434C79.195 397.61 83.5566 398.398 86.7327 396.194Z" fill="#9C9B9B"/>
<path d="M86.7327 275.194C89.9088 272.99 90.6968 268.628 88.4927 265.452C86.2885 262.276 81.927 261.488 78.7509 263.692C75.5748 265.896 74.7868 270.258 76.9909 273.434C79.195 276.61 83.5566 277.398 86.7327 275.194Z" fill="#9C9B9B"/>
<path d="M625 130H375C368.373 130 363 135.373 363 142V498C363 504.627 368.373 510 375 510H625C631.627 510 637 504.627 637 498V142C637 135.373 631.627 130 625 130Z" fill="white"/>
<path d="M613 147H387C383.134 147 380 150.134 380 154V173C380 176.866 383.134 180 387 180H613C616.866 180 620 176.866 620 173V154C620 150.134 616.866 147 613 147Z" fill="#F7F7F7"/>
<path d="M613 192H387C383.134 192 380 195.134 380 199V218C380 221.866 383.134 225 387 225H613C616.866 225 620 221.866 620 218V199C620 195.134 616.866 192 613 192Z" fill="#F7F7F7"/>
<path d="M613 192H387C383.134 192 380 195.134 380 199V218C380 221.866 383.134 225 387 225H613C616.866 225 620 221.866 620 218V199C620 195.134 616.866 192 613 192Z" stroke="#E6E6E6" stroke-width="2"/>
<path d="M613 237H387C383.134 237 380 240.134 380 244V263C380 266.866 383.134 270 387 270H613C616.866 270 620 266.866 620 263V244C620 240.134 616.866 237 613 237Z" fill="#F7F7F7"/>
<path d="M613 237H387C383.134 237 380 240.134 380 244V263C380 266.866 383.134 270 387 270H613C616.866 270 620 266.866 620 263V244C620 240.134 616.866 237 613 237Z" stroke="#E6E6E6" stroke-width="2"/>
<path d="M613 282H387C383.134 282 380 285.134 380 289V308C380 311.866 383.134 315 387 315H613C616.866 315 620 311.866 620 308V289C620 285.134 616.866 282 613 282Z" fill="#F7F7F7"/>
<path d="M613 282H387C383.134 282 380 285.134 380 289V308C380 311.866 383.134 315 387 315H613C616.866 315 620 311.866 620 308V289C620 285.134 616.866 282 613 282Z" stroke="#E6E6E6" stroke-width="2"/>
<path d="M613 327H387C383.134 327 380 330.134 380 334V353C380 356.866 383.134 360 387 360H613C616.866 360 620 356.866 620 353V334C620 330.134 616.866 327 613 327Z" fill="#F7F7F7"/>
<path d="M613 327H387C383.134 327 380 330.134 380 334V353C380 356.866 383.134 360 387 360H613C616.866 360 620 356.866 620 353V334C620 330.134 616.866 327 613 327Z" stroke="#E6E6E6" stroke-width="2"/>
<path d="M613 372H387C383.134 372 380 375.134 380 379V398C380 401.866 383.134 405 387 405H613C616.866 405 620 401.866 620 398V379C620 375.134 616.866 372 613 372Z" fill="#F7F7F7"/>
<path d="M613 372H387C383.134 372 380 375.134 380 379V398C380 401.866 383.134 405 387 405H613C616.866 405 620 401.866 620 398V379C620 375.134 616.866 372 613 372Z" stroke="#E6E6E6" stroke-width="2"/>
<path d="M613 417H387C383.134 417 380 420.134 380 424V443C380 446.866 383.134 450 387 450H613C616.866 450 620 446.866 620 443V424C620 420.134 616.866 417 613 417Z" fill="#F7F7F7"/>
<path d="M613 417H387C383.134 417 380 420.134 380 424V443C380 446.866 383.134 450 387 450H613C616.866 450 620 446.866 620 443V424C620 420.134 616.866 417 613 417Z" stroke="#E6E6E6" stroke-width="2"/>
<path d="M445.122 120.54C445.122 121.817 444.853 122.948 444.313 123.933C443.78 124.911 443.016 125.667 442.02 126.2C441.023 126.733 439.875 127 438.574 127H433.239V114.396H438.46C442.901 114.396 445.122 116.444 445.122 120.54ZM441.088 120.575C441.088 119.96 440.962 119.406 440.71 118.914C440.464 118.422 440.109 118.041 439.646 117.771C439.184 117.502 438.639 117.367 438.012 117.367H437.036V124.029H438.1C439.008 124.029 439.731 123.719 440.271 123.098C440.815 122.471 441.088 121.63 441.088 120.575ZM451.547 127V125.629H451.512C450.914 126.689 450 127.22 448.77 127.22C447.92 127.22 447.255 126.968 446.774 126.464C446.294 125.96 446.054 125.286 446.054 124.442C446.054 122.673 447.141 121.647 449.314 121.366L451.547 121.076C451.547 120.783 451.415 120.543 451.151 120.355C450.888 120.168 450.533 120.074 450.088 120.074C449.08 120.074 448.017 120.361 446.897 120.935V118.501C447.384 118.29 447.993 118.117 448.726 117.982C449.458 117.848 450.085 117.78 450.606 117.78C452.136 117.78 453.243 118.108 453.929 118.765C454.62 119.415 454.966 120.505 454.966 122.034V127H451.547ZM449.332 123.941C449.332 124.188 449.408 124.39 449.561 124.548C449.719 124.706 449.941 124.785 450.229 124.785C450.621 124.785 450.938 124.639 451.178 124.346C451.424 124.053 451.547 123.678 451.547 123.221V122.878L450.281 123.054C449.648 123.159 449.332 123.455 449.332 123.941ZM462.674 127V125.954H462.639C462.34 126.347 461.95 126.657 461.47 126.886C460.989 127.108 460.515 127.22 460.046 127.22C459.278 127.22 458.602 127.032 458.016 126.657C457.43 126.276 456.99 125.746 456.697 125.066C456.41 124.387 456.267 123.584 456.267 122.658C456.267 121.703 456.439 120.856 456.785 120.118C457.131 119.38 457.617 118.806 458.244 118.395C458.871 117.985 459.574 117.78 460.354 117.78C460.723 117.78 461.062 117.833 461.373 117.938C461.689 118.044 461.962 118.187 462.19 118.369C462.425 118.545 462.574 118.721 462.639 118.896H462.674V113.676H466.418V127H462.674ZM462.753 122.228C462.753 121.688 462.633 121.27 462.393 120.971C462.158 120.672 461.839 120.522 461.435 120.522C461.03 120.522 460.699 120.71 460.441 121.085C460.189 121.454 460.063 121.949 460.063 122.57C460.063 123.842 460.503 124.478 461.382 124.478C461.798 124.478 462.129 124.308 462.375 123.968C462.627 123.622 462.753 123.121 462.753 122.465V122.228ZM478.239 122.342C478.239 123.859 477.779 125.052 476.859 125.919C475.945 126.786 474.665 127.22 473.019 127.22C471.384 127.22 470.109 126.798 469.195 125.954C468.287 125.104 467.833 123.936 467.833 122.447C467.833 121.492 468.047 120.663 468.475 119.96C468.902 119.257 469.512 118.718 470.303 118.343C471.094 117.968 472.005 117.78 473.036 117.78C474.103 117.78 475.025 117.977 475.805 118.369C476.59 118.762 477.19 119.307 477.606 120.004C478.028 120.701 478.239 121.48 478.239 122.342ZM474.442 122.359C474.442 121.135 473.974 120.522 473.036 120.522C472.099 120.522 471.63 121.164 471.63 122.447C471.63 123.801 472.104 124.478 473.054 124.478C473.979 124.478 474.442 123.771 474.442 122.359ZM486.949 124.012C486.949 125.031 486.56 125.822 485.78 126.385C485.007 126.941 483.926 127.22 482.537 127.22C482.133 127.22 481.632 127.179 481.034 127.097C480.442 127.015 479.959 126.915 479.584 126.798V124.17C480.691 124.662 481.617 124.908 482.361 124.908C483.094 124.908 483.46 124.718 483.46 124.337C483.46 124.179 483.375 124.05 483.205 123.95C483.035 123.845 482.59 123.672 481.869 123.432C481.072 123.18 480.492 122.846 480.129 122.43C479.766 122.014 479.584 121.472 479.584 120.804C479.584 119.872 479.953 119.137 480.691 118.598C481.436 118.053 482.479 117.78 483.82 117.78C484.605 117.78 485.438 117.894 486.316 118.123V120.645C485.947 120.487 485.543 120.355 485.104 120.25C484.664 120.144 484.295 120.092 483.996 120.092C483.75 120.092 483.554 120.133 483.407 120.215C483.261 120.297 483.188 120.411 483.188 120.558C483.188 120.727 483.267 120.865 483.425 120.971C483.583 121.076 483.899 121.202 484.374 121.349C485.294 121.618 485.953 121.964 486.352 122.386C486.75 122.808 486.949 123.35 486.949 124.012ZM503.991 118.554C503.991 119.415 503.771 120.18 503.332 120.848C502.898 121.516 502.277 122.034 501.469 122.403C500.66 122.767 499.72 122.948 498.647 122.948H497.487V127H493.69V114.396H498.858C500.634 114.396 501.932 114.733 502.752 115.407C503.578 116.081 503.991 117.13 503.991 118.554ZM499.975 118.685C499.975 118.17 499.825 117.78 499.526 117.517C499.228 117.253 498.788 117.121 498.208 117.121H497.487V120.232H498.34C499.43 120.232 499.975 119.717 499.975 118.685ZM508.386 123.563C508.45 123.95 508.673 124.255 509.054 124.478C509.435 124.694 509.938 124.803 510.565 124.803C511.438 124.803 512.265 124.636 513.044 124.302V126.675C512.136 127.038 511.034 127.22 509.739 127.22C508.169 127.22 506.947 126.818 506.074 126.016C505.201 125.213 504.765 124.108 504.765 122.702C504.765 121.735 504.955 120.883 505.336 120.144C505.723 119.406 506.291 118.829 507.041 118.413C507.797 117.991 508.629 117.78 509.537 117.78C510.469 117.78 511.266 117.962 511.928 118.325C512.59 118.688 513.091 119.198 513.431 119.854C513.776 120.511 513.949 121.278 513.949 122.157V123.563H508.386ZM510.636 121.604C510.636 120.566 510.264 120.048 509.52 120.048C509.209 120.048 508.948 120.191 508.737 120.478C508.526 120.76 508.403 121.135 508.368 121.604H510.636ZM522.562 124.012C522.562 125.031 522.173 125.822 521.394 126.385C520.62 126.941 519.539 127.22 518.15 127.22C517.746 127.22 517.245 127.179 516.647 127.097C516.056 127.015 515.572 126.915 515.197 126.798V124.17C516.305 124.662 517.23 124.908 517.975 124.908C518.707 124.908 519.073 124.718 519.073 124.337C519.073 124.179 518.988 124.05 518.818 123.95C518.648 123.845 518.203 123.672 517.482 123.432C516.686 123.18 516.105 122.846 515.742 122.43C515.379 122.014 515.197 121.472 515.197 120.804C515.197 119.872 515.566 119.137 516.305 118.598C517.049 118.053 518.092 117.78 519.434 117.78C520.219 117.78 521.051 117.894 521.93 118.123V120.645C521.561 120.487 521.156 120.355 520.717 120.25C520.277 120.144 519.908 120.092 519.609 120.092C519.363 120.092 519.167 120.133 519.021 120.215C518.874 120.297 518.801 120.411 518.801 120.558C518.801 120.727 518.88 120.865 519.038 120.971C519.196 121.076 519.513 121.202 519.987 121.349C520.907 121.618 521.566 121.964 521.965 122.386C522.363 122.808 522.562 123.35 522.562 124.012ZM531.264 124.012C531.264 125.031 530.874 125.822 530.095 126.385C529.321 126.941 528.24 127.22 526.852 127.22C526.447 127.22 525.946 127.179 525.349 127.097C524.757 127.015 524.273 126.915 523.898 126.798V124.17C525.006 124.662 525.932 124.908 526.676 124.908C527.408 124.908 527.774 124.718 527.774 124.337C527.774 124.179 527.689 124.05 527.52 123.95C527.35 123.845 526.904 123.672 526.184 123.432C525.387 123.18 524.807 122.846 524.443 122.43C524.08 122.014 523.898 121.472 523.898 120.804C523.898 119.872 524.268 119.137 525.006 118.598C525.75 118.053 526.793 117.78 528.135 117.78C528.92 117.78 529.752 117.894 530.631 118.123V120.645C530.262 120.487 529.857 120.355 529.418 120.25C528.979 120.144 528.609 120.092 528.311 120.092C528.064 120.092 527.868 120.133 527.722 120.215C527.575 120.297 527.502 120.411 527.502 120.558C527.502 120.727 527.581 120.865 527.739 120.971C527.897 121.076 528.214 121.202 528.688 121.349C529.608 121.618 530.268 121.964 530.666 122.386C531.064 122.808 531.264 123.35 531.264 124.012ZM542.663 122.342C542.663 123.859 542.203 125.052 541.283 125.919C540.369 126.786 539.089 127.22 537.442 127.22C535.808 127.22 534.533 126.798 533.619 125.954C532.711 125.104 532.257 123.936 532.257 122.447C532.257 121.492 532.471 120.663 532.898 119.96C533.326 119.257 533.936 118.718 534.727 118.343C535.518 117.968 536.429 117.78 537.46 117.78C538.526 117.78 539.449 117.977 540.229 118.369C541.014 118.762 541.614 119.307 542.03 120.004C542.452 120.701 542.663 121.48 542.663 122.342ZM538.866 122.359C538.866 121.135 538.397 120.522 537.46 120.522C536.522 120.522 536.054 121.164 536.054 122.447C536.054 123.801 536.528 124.478 537.478 124.478C538.403 124.478 538.866 123.771 538.866 122.359ZM549.053 127V125.629H549.018C548.42 126.689 547.506 127.22 546.275 127.22C545.426 127.22 544.761 126.968 544.28 126.464C543.8 125.96 543.56 125.286 543.56 124.442C543.56 122.673 544.646 121.647 546.82 121.366L549.053 121.076C549.053 120.783 548.921 120.543 548.657 120.355C548.394 120.168 548.039 120.074 547.594 120.074C546.586 120.074 545.522 120.361 544.403 120.935V118.501C544.89 118.29 545.499 118.117 546.231 117.982C546.964 117.848 547.591 117.78 548.112 117.78C549.642 117.78 550.749 118.108 551.435 118.765C552.126 119.415 552.472 120.505 552.472 122.034V127H549.053ZM546.838 123.941C546.838 124.188 546.914 124.39 547.066 124.548C547.225 124.706 547.447 124.785 547.734 124.785C548.127 124.785 548.443 124.639 548.684 124.346C548.93 124.053 549.053 123.678 549.053 123.221V122.878L547.787 123.054C547.154 123.159 546.838 123.455 546.838 123.941ZM558.132 115.574C558.132 116.102 557.938 116.529 557.552 116.857C557.171 117.185 556.667 117.35 556.04 117.35C555.431 117.35 554.93 117.18 554.537 116.84C554.15 116.5 553.957 116.078 553.957 115.574C553.957 115.059 554.145 114.643 554.52 114.326C554.9 114.004 555.407 113.843 556.04 113.843C556.667 113.843 557.171 114.004 557.552 114.326C557.938 114.643 558.132 115.059 558.132 115.574ZM554.168 127V118H557.912V127H554.168ZM567.035 124.012C567.035 125.031 566.646 125.822 565.866 126.385C565.093 126.941 564.012 127.22 562.623 127.22C562.219 127.22 561.718 127.179 561.12 127.097C560.528 127.015 560.045 126.915 559.67 126.798V124.17C560.777 124.662 561.703 124.908 562.447 124.908C563.18 124.908 563.546 124.718 563.546 124.337C563.546 124.179 563.461 124.05 563.291 123.95C563.121 123.845 562.676 123.672 561.955 123.432C561.158 123.18 560.578 122.846 560.215 122.43C559.852 122.014 559.67 121.472 559.67 120.804C559.67 119.872 560.039 119.137 560.777 118.598C561.521 118.053 562.564 117.78 563.906 117.78C564.691 117.78 565.523 117.894 566.402 118.123V120.645C566.033 120.487 565.629 120.355 565.189 120.25C564.75 120.144 564.381 120.092 564.082 120.092C563.836 120.092 563.64 120.133 563.493 120.215C563.347 120.297 563.273 120.411 563.273 120.558C563.273 120.727 563.353 120.865 563.511 120.971C563.669 121.076 563.985 121.202 564.46 121.349C565.38 121.618 566.039 121.964 566.438 122.386C566.836 122.808 567.035 123.35 567.035 124.012Z" fill="#1D1D1D" fill-opacity="0.5"/>
<path d="M613 147H387C383.134 147 380 150.134 380 154V173C380 176.866 383.134 180 387 180H613C616.866 180 620 176.866 620 173V154C620 150.134 616.866 147 613 147Z" stroke="#E6E6E6" stroke-width="2"/>
<path d="M340.522 169H338.745L334.062 161.795C333.944 161.613 333.846 161.424 333.769 161.228H333.728C333.764 161.437 333.782 161.886 333.782 162.574V169H332.21V159.197H334.104L338.629 166.231C338.82 166.523 338.943 166.724 338.998 166.833H339.025C338.98 166.573 338.957 166.133 338.957 165.514V159.197H340.522V169ZM345.882 169.164C344.802 169.164 343.938 168.838 343.291 168.187C342.648 167.53 342.327 166.662 342.327 165.582C342.327 164.406 342.662 163.488 343.332 162.827C344.007 162.166 344.913 161.836 346.053 161.836C347.146 161.836 347.999 162.157 348.609 162.8C349.22 163.442 349.525 164.333 349.525 165.473C349.525 166.589 349.195 167.485 348.534 168.159C347.878 168.829 346.994 169.164 345.882 169.164ZM345.957 163.101C345.337 163.101 344.847 163.317 344.487 163.75C344.127 164.183 343.947 164.78 343.947 165.541C343.947 166.275 344.13 166.854 344.494 167.277C344.859 167.697 345.346 167.906 345.957 167.906C346.581 167.906 347.06 167.699 347.393 167.284C347.73 166.869 347.898 166.279 347.898 165.514C347.898 164.743 347.73 164.149 347.393 163.729C347.06 163.31 346.581 163.101 345.957 163.101ZM361.611 169H360.025V165.186C360.025 164.452 359.921 163.921 359.711 163.593C359.506 163.265 359.157 163.101 358.665 163.101C358.25 163.101 357.897 163.308 357.605 163.723C357.318 164.137 357.175 164.634 357.175 165.213V169H355.582V165.056C355.582 163.752 355.122 163.101 354.201 163.101C353.773 163.101 353.42 163.297 353.142 163.688C352.868 164.08 352.731 164.589 352.731 165.213V169H351.146V162H352.731V163.107H352.759C353.265 162.26 354.001 161.836 354.967 161.836C355.45 161.836 355.871 161.97 356.231 162.239C356.596 162.504 356.844 162.852 356.977 163.285C357.496 162.319 358.271 161.836 359.301 161.836C360.841 161.836 361.611 162.786 361.611 164.687V169ZM369.473 165.931H364.701C364.719 166.578 364.918 167.077 365.296 167.428C365.679 167.779 366.203 167.954 366.868 167.954C367.616 167.954 368.301 167.731 368.926 167.284V168.562C368.288 168.964 367.445 169.164 366.396 169.164C365.367 169.164 364.558 168.847 363.97 168.214C363.386 167.576 363.095 166.68 363.095 165.527C363.095 164.438 363.416 163.552 364.059 162.868C364.706 162.18 365.508 161.836 366.465 161.836C367.422 161.836 368.162 162.144 368.687 162.759C369.211 163.374 369.473 164.229 369.473 165.322V165.931ZM367.941 164.81C367.937 164.24 367.802 163.798 367.538 163.483C367.274 163.164 366.909 163.005 366.444 163.005C365.989 163.005 365.601 163.171 365.282 163.504C364.968 163.837 364.774 164.272 364.701 164.81H367.941Z" fill="#1D1D1D" fill-opacity="0.5"/>
<path d="M332.759 393.61V391.936C332.909 392.072 333.087 392.195 333.292 392.305C333.502 392.414 333.723 392.507 333.955 392.585C334.188 392.658 334.42 392.715 334.652 392.756C334.885 392.797 335.099 392.817 335.295 392.817C335.979 392.817 336.487 392.703 336.819 392.476C337.157 392.248 337.325 391.917 337.325 391.484C337.325 391.252 337.268 391.051 337.154 390.883C337.045 390.71 336.89 390.552 336.689 390.411C336.489 390.27 336.252 390.135 335.979 390.008C335.71 389.876 335.42 389.739 335.11 389.598C334.778 389.42 334.468 389.24 334.181 389.058C333.894 388.875 333.643 388.675 333.429 388.456C333.219 388.233 333.053 387.982 332.93 387.704C332.811 387.426 332.752 387.1 332.752 386.727C332.752 386.266 332.854 385.868 333.06 385.53C333.269 385.188 333.543 384.908 333.88 384.689C334.222 384.466 334.609 384.302 335.042 384.197C335.475 384.088 335.917 384.033 336.368 384.033C337.394 384.033 338.141 384.149 338.61 384.382V385.988C338.054 385.587 337.339 385.387 336.464 385.387C336.222 385.387 335.981 385.41 335.739 385.455C335.502 385.501 335.288 385.576 335.097 385.681C334.91 385.785 334.757 385.92 334.639 386.084C334.52 386.248 334.461 386.446 334.461 386.679C334.461 386.897 334.507 387.087 334.598 387.246C334.689 387.406 334.821 387.551 334.994 387.684C335.172 387.816 335.386 387.946 335.637 388.073C335.892 388.196 336.186 388.331 336.519 388.477C336.86 388.654 337.182 388.841 337.482 389.037C337.788 389.233 338.054 389.45 338.282 389.687C338.515 389.924 338.697 390.188 338.829 390.479C338.966 390.767 339.034 391.095 339.034 391.464C339.034 391.961 338.934 392.38 338.733 392.722C338.533 393.063 338.262 393.341 337.92 393.556C337.583 393.77 337.193 393.925 336.751 394.021C336.309 394.116 335.842 394.164 335.35 394.164C335.186 394.164 334.983 394.15 334.741 394.123C334.504 394.1 334.26 394.064 334.01 394.014C333.759 393.968 333.522 393.911 333.299 393.843C333.076 393.774 332.896 393.697 332.759 393.61ZM346.588 390.931H341.816C341.835 391.578 342.033 392.077 342.411 392.428C342.794 392.779 343.318 392.954 343.983 392.954C344.731 392.954 345.417 392.731 346.041 392.284V393.562C345.403 393.964 344.56 394.164 343.512 394.164C342.482 394.164 341.673 393.847 341.085 393.214C340.502 392.576 340.21 391.68 340.21 390.527C340.21 389.438 340.531 388.552 341.174 387.868C341.821 387.18 342.623 386.836 343.58 386.836C344.537 386.836 345.278 387.144 345.802 387.759C346.326 388.374 346.588 389.229 346.588 390.322V390.931ZM345.057 389.81C345.052 389.24 344.918 388.798 344.653 388.483C344.389 388.164 344.024 388.005 343.56 388.005C343.104 388.005 342.716 388.171 342.397 388.504C342.083 388.837 341.889 389.272 341.816 389.81H345.057ZM354.333 394H352.747V390.056C352.747 388.748 352.285 388.094 351.359 388.094C350.876 388.094 350.478 388.276 350.163 388.641C349.849 389.001 349.691 389.456 349.691 390.008V394H348.099V387H349.691V388.162H349.719C350.243 387.278 350.999 386.836 351.988 386.836C352.749 386.836 353.33 387.084 353.731 387.581C354.132 388.073 354.333 388.786 354.333 389.721V394ZM362.495 394H360.909V390.172C360.909 388.786 360.447 388.094 359.521 388.094C359.057 388.094 358.665 388.294 358.346 388.695C358.027 389.096 357.867 389.609 357.867 390.233V394H356.274V383.637H357.867V388.162H357.895C358.423 387.278 359.18 386.836 360.164 386.836C361.718 386.836 362.495 387.786 362.495 389.687V394ZM369.796 394H368.258V392.906H368.23C367.747 393.745 367.039 394.164 366.104 394.164C365.416 394.164 364.876 393.977 364.484 393.604C364.097 393.23 363.903 392.735 363.903 392.12C363.903 390.799 364.664 390.028 366.187 389.81L368.265 389.516C368.265 388.518 367.791 388.019 366.843 388.019C366.009 388.019 365.257 388.306 364.587 388.88V387.492C365.325 387.055 366.177 386.836 367.144 386.836C368.912 386.836 369.796 387.706 369.796 389.447V394ZM368.265 390.562L366.795 390.767C366.339 390.826 365.995 390.938 365.763 391.102C365.535 391.261 365.421 391.544 365.421 391.949C365.421 392.245 365.526 392.489 365.735 392.681C365.95 392.868 366.234 392.961 366.59 392.961C367.073 392.961 367.472 392.792 367.786 392.455C368.105 392.113 368.265 391.685 368.265 391.17V390.562Z" fill="#1D1D1D" fill-opacity="0.5"/>
<path d="M296.263 349H294.479L293.597 346.505H289.741L288.894 349H287.116L290.787 339.197H292.619L296.263 349ZM293.166 345.179L291.806 341.269C291.765 341.141 291.721 340.936 291.676 340.653H291.648C291.607 340.913 291.562 341.118 291.512 341.269L290.165 345.179H293.166ZM300.897 348.925C300.588 349.08 300.18 349.157 299.674 349.157C298.316 349.157 297.637 348.506 297.637 347.202V343.244H296.468V342H297.637V340.38L299.223 339.929V342H300.897V343.244H299.223V346.744C299.223 347.159 299.298 347.455 299.448 347.633C299.599 347.811 299.849 347.899 300.2 347.899C300.469 347.899 300.701 347.822 300.897 347.667V348.925ZM308.109 345.931H303.338C303.356 346.578 303.554 347.077 303.933 347.428C304.315 347.779 304.84 347.954 305.505 347.954C306.252 347.954 306.938 347.731 307.562 347.284V348.562C306.924 348.964 306.081 349.164 305.033 349.164C304.003 349.164 303.194 348.847 302.606 348.214C302.023 347.576 301.731 346.68 301.731 345.527C301.731 344.438 302.053 343.552 302.695 342.868C303.342 342.18 304.145 341.836 305.102 341.836C306.059 341.836 306.799 342.144 307.323 342.759C307.847 343.374 308.109 344.229 308.109 345.322V345.931ZM306.578 344.81C306.574 344.24 306.439 343.798 306.175 343.483C305.91 343.164 305.546 343.005 305.081 343.005C304.625 343.005 304.238 343.171 303.919 343.504C303.604 343.837 303.411 344.272 303.338 344.81H306.578ZM315.854 349H314.269V345.056C314.269 343.748 313.806 343.094 312.881 343.094C312.398 343.094 311.999 343.276 311.685 343.641C311.37 344.001 311.213 344.456 311.213 345.008V349H309.62V342H311.213V343.162H311.24C311.764 342.278 312.521 341.836 313.51 341.836C314.271 341.836 314.852 342.084 315.253 342.581C315.654 343.073 315.854 343.786 315.854 344.721V349ZM324.16 349H322.574V347.811H322.547C322.036 348.713 321.25 349.164 320.188 349.164C319.327 349.164 318.637 348.852 318.117 348.228C317.602 347.599 317.345 346.744 317.345 345.664C317.345 344.507 317.63 343.579 318.199 342.882C318.773 342.185 319.537 341.836 320.489 341.836C321.433 341.836 322.118 342.214 322.547 342.971H322.574V338.637H324.16V349ZM322.595 345.801V344.885C322.595 344.388 322.433 343.966 322.109 343.62C321.786 343.274 321.373 343.101 320.872 343.101C320.28 343.101 319.812 343.322 319.471 343.764C319.133 344.206 318.965 344.819 318.965 345.603C318.965 346.313 319.127 346.876 319.45 347.291C319.778 347.701 320.218 347.906 320.77 347.906C321.312 347.906 321.752 347.708 322.089 347.312C322.426 346.91 322.595 346.407 322.595 345.801ZM327.031 340.53C326.771 340.53 326.548 340.446 326.361 340.277C326.179 340.109 326.088 339.895 326.088 339.635C326.088 339.375 326.179 339.159 326.361 338.985C326.548 338.812 326.771 338.726 327.031 338.726C327.3 338.726 327.528 338.812 327.715 338.985C327.902 339.159 327.995 339.375 327.995 339.635C327.995 339.881 327.902 340.093 327.715 340.271C327.528 340.444 327.3 340.53 327.031 340.53ZM327.817 349H326.231V342H327.817V349ZM340.361 349H338.775V345.186C338.775 344.452 338.671 343.921 338.461 343.593C338.256 343.265 337.907 343.101 337.415 343.101C337 343.101 336.647 343.308 336.355 343.723C336.068 344.137 335.925 344.634 335.925 345.213V349H334.332V345.056C334.332 343.752 333.872 343.101 332.951 343.101C332.523 343.101 332.17 343.297 331.892 343.688C331.618 344.08 331.481 344.589 331.481 345.213V349H329.896V342H331.481V343.107H331.509C332.015 342.26 332.751 341.836 333.717 341.836C334.2 341.836 334.621 341.97 334.981 342.239C335.346 342.504 335.594 342.852 335.727 343.285C336.246 342.319 337.021 341.836 338.051 341.836C339.591 341.836 340.361 342.786 340.361 344.687V349ZM348.223 345.931H343.451C343.469 346.578 343.668 347.077 344.046 347.428C344.429 347.779 344.953 347.954 345.618 347.954C346.366 347.954 347.051 347.731 347.676 347.284V348.562C347.038 348.964 346.195 349.164 345.146 349.164C344.117 349.164 343.308 348.847 342.72 348.214C342.136 347.576 341.845 346.68 341.845 345.527C341.845 344.438 342.166 343.552 342.809 342.868C343.456 342.18 344.258 341.836 345.215 341.836C346.172 341.836 346.912 342.144 347.437 342.759C347.961 343.374 348.223 344.229 348.223 345.322V345.931ZM346.691 344.81C346.687 344.24 346.552 343.798 346.288 343.483C346.024 343.164 345.659 343.005 345.194 343.005C344.739 343.005 344.351 343.171 344.032 343.504C343.718 343.837 343.524 344.272 343.451 344.81H346.691ZM355.968 349H354.382V345.056C354.382 343.748 353.919 343.094 352.994 343.094C352.511 343.094 352.112 343.276 351.798 343.641C351.483 344.001 351.326 344.456 351.326 345.008V349H349.733V342H351.326V343.162H351.354C351.878 342.278 352.634 341.836 353.623 341.836C354.384 341.836 354.965 342.084 355.366 342.581C355.767 343.073 355.968 343.786 355.968 344.721V349ZM361.601 348.925C361.291 349.08 360.883 349.157 360.377 349.157C359.019 349.157 358.34 348.506 358.34 347.202V343.244H357.171V342H358.34V340.38L359.926 339.929V342H361.601V343.244H359.926V346.744C359.926 347.159 360.001 347.455 360.151 347.633C360.302 347.811 360.552 347.899 360.903 347.899C361.172 347.899 361.405 347.822 361.601 347.667V348.925ZM365.989 349.164C364.909 349.164 364.046 348.838 363.398 348.187C362.756 347.53 362.435 346.662 362.435 345.582C362.435 344.406 362.77 343.488 363.439 342.827C364.114 342.166 365.021 341.836 366.16 341.836C367.254 341.836 368.106 342.157 368.717 342.8C369.327 343.442 369.633 344.333 369.633 345.473C369.633 346.589 369.302 347.485 368.642 348.159C367.985 348.829 367.101 349.164 365.989 349.164ZM366.064 343.101C365.445 343.101 364.955 343.317 364.595 343.75C364.235 344.183 364.055 344.78 364.055 345.541C364.055 346.275 364.237 346.854 364.602 347.277C364.966 347.697 365.454 347.906 366.064 347.906C366.689 347.906 367.167 347.699 367.5 347.284C367.837 346.869 368.006 346.279 368.006 345.514C368.006 344.743 367.837 344.149 367.5 343.729C367.167 343.31 366.689 343.101 366.064 343.101Z" fill="#1D1D1D" fill-opacity="0.5"/>
<path d="M332.759 438.61V436.936C332.909 437.072 333.087 437.195 333.292 437.305C333.502 437.414 333.723 437.507 333.955 437.585C334.188 437.658 334.42 437.715 334.652 437.756C334.885 437.797 335.099 437.817 335.295 437.817C335.979 437.817 336.487 437.703 336.819 437.476C337.157 437.248 337.325 436.917 337.325 436.484C337.325 436.252 337.268 436.051 337.154 435.883C337.045 435.71 336.89 435.552 336.689 435.411C336.489 435.27 336.252 435.135 335.979 435.008C335.71 434.876 335.42 434.739 335.11 434.598C334.778 434.42 334.468 434.24 334.181 434.058C333.894 433.875 333.643 433.675 333.429 433.456C333.219 433.233 333.053 432.982 332.93 432.704C332.811 432.426 332.752 432.1 332.752 431.727C332.752 431.266 332.854 430.868 333.06 430.53C333.269 430.188 333.543 429.908 333.88 429.689C334.222 429.466 334.609 429.302 335.042 429.197C335.475 429.088 335.917 429.033 336.368 429.033C337.394 429.033 338.141 429.149 338.61 429.382V430.988C338.054 430.587 337.339 430.387 336.464 430.387C336.222 430.387 335.981 430.41 335.739 430.455C335.502 430.501 335.288 430.576 335.097 430.681C334.91 430.785 334.757 430.92 334.639 431.084C334.52 431.248 334.461 431.446 334.461 431.679C334.461 431.897 334.507 432.087 334.598 432.246C334.689 432.406 334.821 432.551 334.994 432.684C335.172 432.816 335.386 432.946 335.637 433.073C335.892 433.196 336.186 433.331 336.519 433.477C336.86 433.654 337.182 433.841 337.482 434.037C337.788 434.233 338.054 434.45 338.282 434.687C338.515 434.924 338.697 435.188 338.829 435.479C338.966 435.767 339.034 436.095 339.034 436.464C339.034 436.961 338.934 437.38 338.733 437.722C338.533 438.063 338.262 438.341 337.92 438.556C337.583 438.77 337.193 438.925 336.751 439.021C336.309 439.116 335.842 439.164 335.35 439.164C335.186 439.164 334.983 439.15 334.741 439.123C334.504 439.1 334.26 439.064 334.01 439.014C333.759 438.968 333.522 438.911 333.299 438.843C333.076 438.774 332.896 438.697 332.759 438.61ZM346.588 435.931H341.816C341.835 436.578 342.033 437.077 342.411 437.428C342.794 437.779 343.318 437.954 343.983 437.954C344.731 437.954 345.417 437.731 346.041 437.284V438.562C345.403 438.964 344.56 439.164 343.512 439.164C342.482 439.164 341.673 438.847 341.085 438.214C340.502 437.576 340.21 436.68 340.21 435.527C340.21 434.438 340.531 433.552 341.174 432.868C341.821 432.18 342.623 431.836 343.58 431.836C344.537 431.836 345.278 432.144 345.802 432.759C346.326 433.374 346.588 434.229 346.588 435.322V435.931ZM345.057 434.81C345.052 434.24 344.918 433.798 344.653 433.483C344.389 433.164 344.024 433.005 343.56 433.005C343.104 433.005 342.716 433.171 342.397 433.504C342.083 433.837 341.889 434.272 341.816 434.81H345.057ZM354.333 439H352.747V435.056C352.747 433.748 352.285 433.094 351.359 433.094C350.876 433.094 350.478 433.276 350.163 433.641C349.849 434.001 349.691 434.456 349.691 435.008V439H348.099V432H349.691V433.162H349.719C350.243 432.278 350.999 431.836 351.988 431.836C352.749 431.836 353.33 432.084 353.731 432.581C354.132 433.073 354.333 433.786 354.333 434.721V439ZM362.495 439H360.909V435.172C360.909 433.786 360.447 433.094 359.521 433.094C359.057 433.094 358.665 433.294 358.346 433.695C358.027 434.096 357.867 434.609 357.867 435.233V439H356.274V428.637H357.867V433.162H357.895C358.423 432.278 359.18 431.836 360.164 431.836C361.718 431.836 362.495 432.786 362.495 434.687V439ZM369.796 439H368.258V437.906H368.23C367.747 438.745 367.039 439.164 366.104 439.164C365.416 439.164 364.876 438.977 364.484 438.604C364.097 438.23 363.903 437.735 363.903 437.12C363.903 435.799 364.664 435.028 366.187 434.81L368.265 434.516C368.265 433.518 367.791 433.019 366.843 433.019C366.009 433.019 365.257 433.306 364.587 433.88V432.492C365.325 432.055 366.177 431.836 367.144 431.836C368.912 431.836 369.796 432.706 369.796 434.447V439ZM368.265 435.562L366.795 435.767C366.339 435.826 365.995 435.938 365.763 436.102C365.535 436.261 365.421 436.544 365.421 436.949C365.421 437.245 365.526 437.489 365.735 437.681C365.95 437.868 366.234 437.961 366.59 437.961C367.073 437.961 367.472 437.792 367.786 437.455C368.105 437.113 368.265 436.685 368.265 436.17V435.562Z" fill="#1D1D1D" fill-opacity="0.5"/>
<path d="M260.83 300.445V304H259.21V294.197H262.184C263.309 294.197 264.182 294.459 264.802 294.983C265.422 295.507 265.731 296.246 265.731 297.198C265.731 298.151 265.408 298.93 264.761 299.536C264.114 300.142 263.239 300.445 262.136 300.445H260.83ZM260.83 295.537V299.119H261.883C262.58 299.119 263.111 298.957 263.476 298.634C263.84 298.31 264.022 297.854 264.022 297.267C264.022 296.114 263.353 295.537 262.013 295.537H260.83ZM271.282 298.511C271.091 298.36 270.815 298.285 270.455 298.285C269.986 298.285 269.594 298.497 269.279 298.921C268.965 299.345 268.808 299.921 268.808 300.65V304H267.222V297H268.808V298.442H268.835C268.99 297.95 269.227 297.567 269.546 297.294C269.869 297.016 270.229 296.877 270.626 296.877C270.913 296.877 271.132 296.92 271.282 297.007V298.511ZM275.384 304.164C274.304 304.164 273.44 303.838 272.793 303.187C272.15 302.53 271.829 301.662 271.829 300.582C271.829 299.406 272.164 298.488 272.834 297.827C273.508 297.166 274.415 296.836 275.555 296.836C276.648 296.836 277.501 297.157 278.111 297.8C278.722 298.442 279.027 299.333 279.027 300.473C279.027 301.589 278.697 302.485 278.036 303.159C277.38 303.829 276.496 304.164 275.384 304.164ZM275.459 298.101C274.839 298.101 274.349 298.317 273.989 298.75C273.629 299.183 273.449 299.78 273.449 300.541C273.449 301.275 273.632 301.854 273.996 302.277C274.361 302.697 274.848 302.906 275.459 302.906C276.083 302.906 276.562 302.699 276.895 302.284C277.232 301.869 277.4 301.279 277.4 300.514C277.4 299.743 277.232 299.149 276.895 298.729C276.562 298.31 276.083 298.101 275.459 298.101ZM284.373 294.929C284.159 294.806 283.915 294.744 283.642 294.744C282.871 294.744 282.486 295.179 282.486 296.05V297H284.113V298.244H282.493V304H280.907V298.244H279.711V297H280.907V295.865C280.907 295.127 281.149 294.546 281.632 294.122C282.115 293.694 282.719 293.479 283.443 293.479C283.835 293.479 284.145 293.523 284.373 293.609V294.929ZM286.041 295.53C285.781 295.53 285.558 295.446 285.371 295.277C285.189 295.109 285.098 294.895 285.098 294.635C285.098 294.375 285.189 294.159 285.371 293.985C285.558 293.812 285.781 293.726 286.041 293.726C286.31 293.726 286.538 293.812 286.725 293.985C286.911 294.159 287.005 294.375 287.005 294.635C287.005 294.881 286.911 295.093 286.725 295.271C286.538 295.444 286.31 295.53 286.041 295.53ZM286.827 304H285.241V297H286.827V304ZM288.468 303.781V302.312C289.06 302.763 289.714 302.988 290.43 302.988C291.387 302.988 291.865 302.706 291.865 302.141C291.865 301.981 291.824 301.847 291.742 301.737C291.66 301.623 291.549 301.523 291.407 301.437C291.271 301.35 291.106 301.272 290.915 301.204C290.728 301.136 290.519 301.058 290.286 300.972C289.999 300.858 289.739 300.737 289.507 300.609C289.279 300.482 289.088 300.338 288.933 300.179C288.782 300.015 288.668 299.83 288.591 299.625C288.513 299.42 288.475 299.181 288.475 298.907C288.475 298.57 288.554 298.274 288.714 298.019C288.873 297.759 289.088 297.542 289.356 297.369C289.625 297.191 289.931 297.059 290.272 296.973C290.614 296.882 290.967 296.836 291.332 296.836C291.979 296.836 292.558 296.934 293.068 297.13V298.518C292.576 298.18 292.011 298.012 291.373 298.012C291.173 298.012 290.99 298.032 290.826 298.073C290.667 298.114 290.53 298.171 290.416 298.244C290.302 298.317 290.213 298.406 290.149 298.511C290.086 298.611 290.054 298.723 290.054 298.846C290.054 298.996 290.086 299.124 290.149 299.229C290.213 299.333 290.307 299.427 290.43 299.509C290.557 299.586 290.708 299.659 290.881 299.728C291.059 299.791 291.261 299.862 291.489 299.939C291.79 300.062 292.059 300.188 292.296 300.315C292.537 300.443 292.743 300.589 292.911 300.753C293.08 300.912 293.21 301.099 293.301 301.313C293.392 301.523 293.438 301.774 293.438 302.065C293.438 302.421 293.355 302.731 293.191 302.995C293.027 303.259 292.809 303.478 292.535 303.651C292.262 303.825 291.945 303.952 291.585 304.034C291.229 304.121 290.854 304.164 290.457 304.164C289.691 304.164 289.028 304.036 288.468 303.781ZM294.511 303.781V302.312C295.103 302.763 295.757 302.988 296.473 302.988C297.43 302.988 297.908 302.706 297.908 302.141C297.908 301.981 297.867 301.847 297.785 301.737C297.703 301.623 297.591 301.523 297.45 301.437C297.313 301.35 297.149 301.272 296.958 301.204C296.771 301.136 296.562 301.058 296.329 300.972C296.042 300.858 295.782 300.737 295.55 300.609C295.322 300.482 295.131 300.338 294.976 300.179C294.825 300.015 294.711 299.83 294.634 299.625C294.556 299.42 294.518 299.181 294.518 298.907C294.518 298.57 294.597 298.274 294.757 298.019C294.916 297.759 295.131 297.542 295.399 297.369C295.668 297.191 295.974 297.059 296.315 296.973C296.657 296.882 297.01 296.836 297.375 296.836C298.022 296.836 298.601 296.934 299.111 297.13V298.518C298.619 298.18 298.054 298.012 297.416 298.012C297.215 298.012 297.033 298.032 296.869 298.073C296.71 298.114 296.573 298.171 296.459 298.244C296.345 298.317 296.256 298.406 296.192 298.511C296.129 298.611 296.097 298.723 296.097 298.846C296.097 298.996 296.129 299.124 296.192 299.229C296.256 299.333 296.35 299.427 296.473 299.509C296.6 299.586 296.751 299.659 296.924 299.728C297.102 299.791 297.304 299.862 297.532 299.939C297.833 300.062 298.102 300.188 298.339 300.315C298.58 300.443 298.785 300.589 298.954 300.753C299.123 300.912 299.253 301.099 299.344 301.313C299.435 301.523 299.48 301.774 299.48 302.065C299.48 302.421 299.398 302.731 299.234 302.995C299.07 303.259 298.852 303.478 298.578 303.651C298.305 303.825 297.988 303.952 297.628 304.034C297.272 304.121 296.896 304.164 296.5 304.164C295.734 304.164 295.071 304.036 294.511 303.781ZM301.791 295.53C301.531 295.53 301.308 295.446 301.121 295.277C300.939 295.109 300.848 294.895 300.848 294.635C300.848 294.375 300.939 294.159 301.121 293.985C301.308 293.812 301.531 293.726 301.791 293.726C302.06 293.726 302.288 293.812 302.475 293.985C302.661 294.159 302.755 294.375 302.755 294.635C302.755 294.881 302.661 295.093 302.475 295.271C302.288 295.444 302.06 295.53 301.791 295.53ZM302.577 304H300.991V297H302.577V304ZM307.759 304.164C306.679 304.164 305.815 303.838 305.168 303.187C304.525 302.53 304.204 301.662 304.204 300.582C304.204 299.406 304.539 298.488 305.209 297.827C305.883 297.166 306.79 296.836 307.93 296.836C309.023 296.836 309.876 297.157 310.486 297.8C311.097 298.442 311.402 299.333 311.402 300.473C311.402 301.589 311.072 302.485 310.411 303.159C309.755 303.829 308.871 304.164 307.759 304.164ZM307.834 298.101C307.214 298.101 306.724 298.317 306.364 298.75C306.004 299.183 305.824 299.78 305.824 300.541C305.824 301.275 306.007 301.854 306.371 302.277C306.736 302.697 307.223 302.906 307.834 302.906C308.458 302.906 308.937 302.699 309.27 302.284C309.607 301.869 309.775 301.279 309.775 300.514C309.775 299.743 309.607 299.149 309.27 298.729C308.937 298.31 308.458 298.101 307.834 298.101ZM319.257 304H317.671V300.056C317.671 298.748 317.208 298.094 316.283 298.094C315.8 298.094 315.401 298.276 315.087 298.641C314.772 299.001 314.615 299.456 314.615 300.008V304H313.022V297H314.615V298.162H314.643C315.167 297.278 315.923 296.836 316.912 296.836C317.673 296.836 318.254 297.084 318.655 297.581C319.056 298.073 319.257 298.786 319.257 299.721V304ZM326.571 304H325.033V302.906H325.006C324.523 303.745 323.814 304.164 322.88 304.164C322.192 304.164 321.652 303.977 321.26 303.604C320.872 303.23 320.679 302.735 320.679 302.12C320.679 300.799 321.44 300.028 322.962 299.81L325.04 299.516C325.04 298.518 324.566 298.019 323.618 298.019C322.784 298.019 322.032 298.306 321.362 298.88V297.492C322.101 297.055 322.953 296.836 323.919 296.836C325.687 296.836 326.571 297.706 326.571 299.447V304ZM325.04 300.562L323.57 300.767C323.115 300.826 322.771 300.938 322.538 301.102C322.31 301.261 322.196 301.544 322.196 301.949C322.196 302.245 322.301 302.489 322.511 302.681C322.725 302.868 323.01 302.961 323.365 302.961C323.848 302.961 324.247 302.792 324.562 302.455C324.881 302.113 325.04 301.685 325.04 301.17V300.562ZM330.105 304H328.513V293.637H330.105V304ZM332.977 295.53C332.717 295.53 332.493 295.446 332.307 295.277C332.124 295.109 332.033 294.895 332.033 294.635C332.033 294.375 332.124 294.159 332.307 293.985C332.493 293.812 332.717 293.726 332.977 293.726C333.245 293.726 333.473 293.812 333.66 293.985C333.847 294.159 333.94 294.375 333.94 294.635C333.94 294.881 333.847 295.093 333.66 295.271C333.473 295.444 333.245 295.53 332.977 295.53ZM333.763 304H332.177V297H333.763V304ZM341.009 297.663L337.229 302.763H340.995V304H335.007V303.405L338.869 298.237H335.376V297H341.009V297.663ZM347.722 304H346.184V302.906H346.156C345.673 303.745 344.965 304.164 344.03 304.164C343.342 304.164 342.802 303.977 342.41 303.604C342.023 303.23 341.829 302.735 341.829 302.12C341.829 300.799 342.59 300.028 344.112 299.81L346.19 299.516C346.19 298.518 345.716 298.019 344.769 298.019C343.935 298.019 343.183 298.306 342.513 298.88V297.492C343.251 297.055 344.103 296.836 345.069 296.836C346.838 296.836 347.722 297.706 347.722 299.447V304ZM346.19 300.562L344.721 300.767C344.265 300.826 343.921 300.938 343.688 301.102C343.461 301.261 343.347 301.544 343.347 301.949C343.347 302.245 343.451 302.489 343.661 302.681C343.875 302.868 344.16 302.961 344.516 302.961C344.999 302.961 345.397 302.792 345.712 302.455C346.031 302.113 346.19 301.685 346.19 301.17V300.562ZM354.674 303.679C354.113 304.002 353.45 304.164 352.685 304.164C351.646 304.164 350.807 303.84 350.169 303.193C349.531 302.542 349.212 301.699 349.212 300.664C349.212 299.511 349.554 298.586 350.237 297.889C350.925 297.187 351.844 296.836 352.992 296.836C353.63 296.836 354.193 296.948 354.681 297.171V298.647C354.193 298.283 353.674 298.101 353.122 298.101C352.452 298.101 351.903 298.328 351.475 298.784C351.046 299.235 350.832 299.828 350.832 300.562C350.832 301.286 351.033 301.858 351.434 302.277C351.839 302.697 352.382 302.906 353.061 302.906C353.63 302.906 354.168 302.703 354.674 302.298V303.679ZM354.106 305.695C354.106 306.579 353.45 307.021 352.138 307.021C351.924 307.021 351.739 307.015 351.584 307.001V306.242C351.785 306.27 351.946 306.283 352.069 306.283C352.675 306.283 352.979 306.096 352.979 305.723C352.979 305.385 352.703 305.217 352.151 305.217C352.106 305.217 352.017 305.226 351.885 305.244V304H352.814V304.643C353.211 304.643 353.525 304.734 353.758 304.916C353.99 305.103 354.106 305.363 354.106 305.695ZM361.626 304H360.088V302.906H360.061C359.577 303.745 358.869 304.164 357.935 304.164C357.246 304.164 356.706 303.977 356.314 303.604C355.927 303.23 355.733 302.735 355.733 302.12C355.733 300.799 356.494 300.028 358.017 299.81L360.095 299.516C360.095 298.518 359.621 298.019 358.673 298.019C357.839 298.019 357.087 298.306 356.417 298.88V297.492C357.155 297.055 358.007 296.836 358.974 296.836C360.742 296.836 361.626 297.706 361.626 299.447V304ZM360.095 300.562L358.625 300.767C358.169 300.826 357.825 300.938 357.593 301.102C357.365 301.261 357.251 301.544 357.251 301.949C357.251 302.245 357.356 302.489 357.565 302.681C357.78 302.868 358.064 302.961 358.42 302.961C358.903 302.961 359.302 302.792 359.616 302.455C359.935 302.113 360.095 301.685 360.095 301.17V300.562ZM361.182 293.917C361.182 294.446 361.063 294.879 360.826 295.216C360.594 295.549 360.277 295.715 359.876 295.715C359.548 295.715 359.172 295.605 358.748 295.387C358.393 295.182 358.117 295.079 357.921 295.079C357.538 295.079 357.347 295.332 357.347 295.838H356.561C356.561 295.296 356.677 294.863 356.909 294.539C357.142 294.211 357.467 294.047 357.887 294.047C358.197 294.047 358.554 294.163 358.96 294.396C359.288 294.596 359.573 294.696 359.814 294.696C360.184 294.696 360.368 294.437 360.368 293.917H361.182ZM366.671 304.164C365.591 304.164 364.727 303.838 364.08 303.187C363.438 302.53 363.116 301.662 363.116 300.582C363.116 299.406 363.451 298.488 364.121 297.827C364.796 297.166 365.702 296.836 366.842 296.836C367.936 296.836 368.788 297.157 369.398 297.8C370.009 298.442 370.314 299.333 370.314 300.473C370.314 301.589 369.984 302.485 369.323 303.159C368.667 303.829 367.783 304.164 366.671 304.164ZM366.746 298.101C366.126 298.101 365.636 298.317 365.276 298.75C364.916 299.183 364.736 299.78 364.736 300.541C364.736 301.275 364.919 301.854 365.283 302.277C365.648 302.697 366.135 302.906 366.746 302.906C367.37 302.906 367.849 302.699 368.182 302.284C368.519 301.869 368.688 301.279 368.688 300.514C368.688 299.743 368.519 299.149 368.182 298.729C367.849 298.31 367.37 298.101 366.746 298.101Z" fill="#1D1D1D" fill-opacity="0.5"/>
<path d="M348.046 258.59C347.308 258.973 346.389 259.164 345.291 259.164C343.869 259.164 342.73 258.715 341.873 257.817C341.016 256.92 340.588 255.742 340.588 254.283C340.588 252.715 341.069 251.449 342.03 250.482C342.996 249.516 344.215 249.033 345.688 249.033C346.635 249.033 347.422 249.168 348.046 249.437V251.05C347.385 250.658 346.656 250.462 345.858 250.462C344.797 250.462 343.935 250.801 343.274 251.48C342.618 252.16 342.29 253.066 342.29 254.201C342.29 255.281 342.598 256.143 343.213 256.785C343.828 257.423 344.637 257.742 345.64 257.742C346.565 257.742 347.367 257.523 348.046 257.086V258.59ZM357.479 259H355.579L354.014 256.375C353.872 256.133 353.733 255.928 353.597 255.76C353.465 255.587 353.328 255.445 353.187 255.336C353.05 255.227 352.899 255.147 352.735 255.097C352.571 255.047 352.387 255.021 352.182 255.021H351.525V259H349.905V249.197H353.132C353.592 249.197 354.016 249.252 354.403 249.361C354.791 249.471 355.128 249.637 355.415 249.86C355.702 250.079 355.925 250.355 356.085 250.688C356.249 251.016 356.331 251.401 356.331 251.843C356.331 252.189 356.279 252.508 356.174 252.8C356.074 253.087 355.928 253.344 355.736 253.572C355.549 253.796 355.322 253.987 355.053 254.146C354.788 254.306 354.49 254.429 354.157 254.516V254.543C354.335 254.643 354.49 254.755 354.622 254.878C354.754 254.996 354.88 255.119 354.998 255.247C355.117 255.375 355.233 255.521 355.347 255.685C355.465 255.844 355.595 256.031 355.736 256.245L357.479 259ZM351.525 250.517V253.702H352.879C353.13 253.702 353.36 253.663 353.569 253.586C353.784 253.508 353.968 253.397 354.123 253.251C354.278 253.105 354.399 252.927 354.485 252.718C354.572 252.508 354.615 252.273 354.615 252.014C354.615 251.544 354.467 251.177 354.171 250.913C353.875 250.649 353.449 250.517 352.893 250.517H351.525ZM369.155 259H367.542V252.656C367.542 252.137 367.574 251.501 367.638 250.749H367.61C367.51 251.177 367.421 251.485 367.344 251.672L364.418 259H363.297L360.364 251.727C360.282 251.512 360.196 251.187 360.104 250.749H360.077C360.114 251.141 360.132 251.781 360.132 252.67V259H358.628V249.197H360.918L363.495 255.726C363.691 256.227 363.819 256.601 363.878 256.847H363.912C364.081 256.332 364.217 255.949 364.322 255.698L366.947 249.197H369.155V259Z" fill="#1D1D1D" fill-opacity="0.5"/>
<path d="M337.713 214H332.21V204.197H337.494V205.578H333.837V208.354H337.207V209.728H333.837V212.626H337.713V214ZM342.963 210.76H339.23V209.591H342.963V210.76ZM355.377 214H353.791V210.186C353.791 209.452 353.686 208.921 353.477 208.593C353.271 208.265 352.923 208.101 352.431 208.101C352.016 208.101 351.663 208.308 351.371 208.723C351.084 209.137 350.94 209.634 350.94 210.213V214H349.348V210.056C349.348 208.752 348.887 208.101 347.967 208.101C347.538 208.101 347.185 208.297 346.907 208.688C346.634 209.08 346.497 209.589 346.497 210.213V214H344.911V207H346.497V208.107H346.524C347.03 207.26 347.766 206.836 348.732 206.836C349.215 206.836 349.637 206.97 349.997 207.239C350.362 207.504 350.61 207.852 350.742 208.285C351.262 207.319 352.036 206.836 353.066 206.836C354.607 206.836 355.377 207.786 355.377 209.687V214ZM362.685 214H361.146V212.906H361.119C360.636 213.745 359.927 214.164 358.993 214.164C358.305 214.164 357.765 213.977 357.373 213.604C356.986 213.23 356.792 212.735 356.792 212.12C356.792 210.799 357.553 210.028 359.075 209.81L361.153 209.516C361.153 208.518 360.679 208.019 359.731 208.019C358.897 208.019 358.146 208.306 357.476 208.88V207.492C358.214 207.055 359.066 206.836 360.032 206.836C361.8 206.836 362.685 207.706 362.685 209.447V214ZM361.153 210.562L359.684 210.767C359.228 210.826 358.884 210.938 358.651 211.102C358.424 211.261 358.31 211.544 358.31 211.949C358.31 212.245 358.414 212.489 358.624 212.681C358.838 212.868 359.123 212.961 359.479 212.961C359.962 212.961 360.36 212.792 360.675 212.455C360.994 212.113 361.153 211.685 361.153 211.17V210.562ZM365.426 205.53C365.166 205.53 364.943 205.446 364.756 205.277C364.574 205.109 364.482 204.895 364.482 204.635C364.482 204.375 364.574 204.159 364.756 203.985C364.943 203.812 365.166 203.726 365.426 203.726C365.695 203.726 365.923 203.812 366.109 203.985C366.296 204.159 366.39 204.375 366.39 204.635C366.39 204.881 366.296 205.093 366.109 205.271C365.923 205.444 365.695 205.53 365.426 205.53ZM366.212 214H364.626V207H366.212V214ZM369.883 214H368.29V203.637H369.883V214Z" fill="#1D1D1D" fill-opacity="0.5"/>
</g>
<defs>
<clipPath id="clip0_516_294">
<rect width="1000" height="640" fill="white"/>
</clipPath>
</defs>
</svg>
